<svg id="Layer_1" data-name="Layer 1" xmlns="http://www.w3.org/2000/svg" viewBox="0 0 50 50"><defs><style>.cls-1{fill:#fff;}</style></defs><path class="cls-1" d="M14,4A10,10,0,0,0,4,14V36A10,10,0,0,0,14,46H36A10,10,0,0,0,46,36V14A10,10,0,0,0,36,4Zm0,2H36a8,8,0,0,1,8,8V36a8,8,0,0,1-8,8H14a8,8,0,0,1-8-8V14A8,8,0,0,1,14,6Zm-1,9a3,3,0,0,0-3,3V32a3,3,0,0,0,3,3H37a3,3,0,0,0,3-3V18a3,3,0,0,0-3-3Zm.41,2H36.58l-8.9,8.89a3.8,3.8,0,0,1-5.38,0ZM38,18.41V31.59L31.4,25Zm-26,0L18.59,25,12,31.59Zm18,8L36.59,33H13.41L20,26.41l.89.89a5.82,5.82,0,0,0,8.2,0Z"/></svg>