<svg id="Layer_1" data-name="Layer 1" xmlns="http://www.w3.org/2000/svg" viewBox="0 0 50 50"><defs><style>.cls-1{fill:#fff;}</style></defs><path class="cls-1" d="M14,4A10,10,0,0,0,4,14V36A10,10,0,0,0,14,46H36A10,10,0,0,0,46,36V14A10,10,0,0,0,36,4Zm0,2H36a8,8,0,0,1,8,8V36a8,8,0,0,1-8,8H14a8,8,0,0,1-8-8V14A8,8,0,0,1,14,6Zm4.05,5a6.12,6.12,0,0,0-4.58,1.62,5.78,5.78,0,0,0-1.08,1.43A2.8,2.8,0,0,0,12,15.44s0,.19,0,.46,0,.64,0,1.08a16.16,16.16,0,0,0,.6,3.5,24,24,0,0,0,6.47,10.45A24,24,0,0,0,29.52,37.4,16.16,16.16,0,0,0,33,38a10.23,10.23,0,0,0,1.07,0l.47,0a2.8,2.8,0,0,0,1.35-.39,5.78,5.78,0,0,0,1.43-1.08A6.12,6.12,0,0,0,39,32a3,3,0,0,0-1.38-2.35l-2.83-1.81a4.76,4.76,0,0,0-4.82-.17l.09,0-1.18.51-.09.06a1,1,0,0,1-1,.1,11.17,11.17,0,0,1-6-6,1,1,0,0,1,.1-1l.06-.09L22.42,20l0,.09a4.76,4.76,0,0,0-.17-4.82L20.4,12.42A3,3,0,0,0,18.05,11ZM18,13a1,1,0,0,1,.76.47l1.81,2.82a2.76,2.76,0,0,1,.09,2.79l0,0-.48,1.13.09-.18A3,3,0,0,0,19.9,23,13.3,13.3,0,0,0,27,30.1a3,3,0,0,0,2.88-.31l-.18.09,1.13-.48,0,0a2.76,2.76,0,0,1,2.79.09h0l2.82,1.81A1,1,0,0,1,37,32a4,4,0,0,1-1.07,3.1,3.64,3.64,0,0,1-.91.69c-.27.14-.53.17-.43.17l-.51,0a7.58,7.58,0,0,1-.92,0,14.51,14.51,0,0,1-3.08-.52,22.13,22.13,0,0,1-9.57-6,22.13,22.13,0,0,1-6-9.57A14.51,14.51,0,0,1,14,16.87,7.58,7.58,0,0,1,14,16c0-.23,0-.32,0-.51,0,.1,0-.16.17-.43a3.64,3.64,0,0,1,.69-.91A4,4,0,0,1,18,13Z"/></svg>