<svg id="Layer_1" data-name="Layer 1" xmlns="http://www.w3.org/2000/svg" viewBox="0 0 50 50"><defs><style>.cls-1{fill:#fff;}</style></defs><path class="cls-1" d="M34.22,5.47A10.85,10.85,0,0,0,23.38,16.31a9.73,9.73,0,0,0,.12,1.07A26.93,26.93,0,0,1,5.12,7.66a1,1,0,0,0-.86-.38,1,1,0,0,0-.79.5,10.6,10.6,0,0,0,.72,11.84,6.67,6.67,0,0,1-.78-.31,1,1,0,0,0-1,0,1,1,0,0,0-.49.85v.12a10.77,10.77,0,0,0,4.72,8.85.33.33,0,0,0-.1,0,1,1,0,0,0-.92.32,1,1,0,0,0-.2,1,10.86,10.86,0,0,0,7.5,7.09,18.75,18.75,0,0,1-9.6,2.66,18,18,0,0,1-2.22-.13,1,1,0,0,0-.65,1.85A28.87,28.87,0,0,0,16.09,46.5,28.09,28.09,0,0,0,37.66,37a30.07,30.07,0,0,0,7.46-19.56c0-.29,0-.56,0-.85a20.72,20.72,0,0,0,4.75-5,1,1,0,0,0-1.25-1.47c-.51.23-1.11.25-1.65.43A10.34,10.34,0,0,0,48.62,7.5a1,1,0,0,0-1.46-1.16,18.46,18.46,0,0,1-5.6,2.16A10.78,10.78,0,0,0,34.22,5.47Zm0,2a8.88,8.88,0,0,1,6.47,2.81,1,1,0,0,0,.93.28,20.65,20.65,0,0,0,3.76-1.12,8.84,8.84,0,0,1-2.57,2.34,1,1,0,0,0,.66,1.88,20.89,20.89,0,0,0,2.84-.78,19.1,19.1,0,0,1-2.81,2.5,1,1,0,0,0-.41.87c0,.41,0,.81,0,1.22a28.14,28.14,0,0,1-7,18.22A26,26,0,0,1,16.09,44.5,26.65,26.65,0,0,1,4.94,42.06a20.62,20.62,0,0,0,11.25-4.28,1,1,0,0,0-.6-1.78,8.78,8.78,0,0,1-7.53-4.69h.16a10.86,10.86,0,0,0,2.87-.37A1,1,0,0,0,11,29a8.77,8.77,0,0,1-6.84-7.22,10.72,10.72,0,0,0,3.15.66,1,1,0,0,0,.6-1.85A8.83,8.83,0,0,1,4,13.22,8.72,8.72,0,0,1,4.69,10a28.86,28.86,0,0,0,19.9,9.53,1,1,0,0,0,.82-.35,1,1,0,0,0,.21-.87,9,9,0,0,1-.24-2A8.82,8.82,0,0,1,34.22,7.47Z"/></svg>