<svg id="Lag_1" data-name="Lag 1" xmlns="http://www.w3.org/2000/svg" width="208" height="147" viewBox="0 0 208 147"><defs><style>.cls-1{fill:#f6bbd5;}.cls-2{fill:#f9f6ca;}.cls-3{fill:#fcf6ce;}.cls-4{fill:#fff;}.cls-5{fill:#e9e5f3;}.cls-6{fill:#fcfbf9;}.cls-7{fill:#d9cde7;}.cls-8{fill:#f0e9e7;}.cls-9{fill:#b7e0ef;}</style></defs><g id="milkshake"><path class="cls-1" d="M43.32,110.79c1.9,1,3,2.4,3,4s-1,2.8-2.6,3.8c6.7,1.9,12.2,6.3,14.2,10.7,2.7,6.1-18.3,7-23.1,6.9s-23.8-2.3-18.1-8.6c4.1-4.6,7-7.4,12.1-8.9-1.7-1-2.8-2.3-2.8-3.8,0-1.7,1.4-3.3,3.7-4.3-13.5-4.3-16.8-18.5-20.9-39.2-2.4-12-4.1-20.6-.8-25.7,4.8,3.6,17.5,2.8,22.8,2.7,5.5-.1,26.2.2,33.3-3.7,4.7,2.1,3.5,6.3,2.6,17.6C65.32,80.49,58.22,105.69,43.32,110.79Z"/><path class="cls-2" d="M23.52,33.89c.6,0,1.3.1,1.9.1Z"/><path class="cls-2" d="M49.32,33.09c-1.5.3-3,.6-4.6.8C46.32,33.59,47.82,33.29,49.32,33.09Z"/><path class="cls-3" d="M23.52,33.89c.6,0,1.3.1,1.9.1Z"/><path class="cls-3" d="M49.32,33.09c-1.5.3-3,.6-4.6.8C46.32,33.59,47.82,33.29,49.32,33.09Z"/><path class="cls-4" d="M63.62,39.09a2.3,2.3,0,0,0,.6-3.3h0a2.18,2.18,0,0,0-.4-.5,7.43,7.43,0,0,0-4-2.3c.5-.2.7-.5.7-.8-.1-1-2.7-1.8-6.1-2.5-.2-1.3-2-2.9-6.4-4.8-15.9-6.9-.5-10.2-12.1-7.6s-19.2,8.2-19.1,12.9c-4.8,1.2-8.2,2.8-7,4.7a2.7,2.7,0,0,0,.7.8c-2,1-3.2,2.3-3.2,4.2a2.6,2.6,0,0,0-1,2.6,4.35,4.35,0,0,0,1.9,3.2c4.8,3.6,17.5,2.8,22.8,2.7,5.5-.1,26.2.2,33.3-3.7a4,4,0,0,0,2.4-2.7C66.72,40.59,65.62,39.69,63.62,39.09Zm-40.1-5.2c.6,0,1.3.1,1.9.1Zm21.3,0c1.5-.3,3-.5,4.6-.8a40.41,40.41,0,0,1-4.6.8Z"/><path class="cls-4" d="M23.52,33.89c.6,0,1.3.1,1.9.1Z"/><path class="cls-4" d="M49.32,33.09c-1.5.3-3,.6-4.6.8C46.32,33.59,47.82,33.29,49.32,33.09Z"/><polygon class="cls-1" points="23.52 32.39 19.02 33.99 3.12 6.09 7.52 4.49 23.52 32.39"/><ellipse class="cls-5" cx="5.31" cy="5.28" rx="2.4" ry="0.4" transform="translate(-1.48 2.11) rotate(-19.81)"/><path class="cls-6" d="M23.72,57.39c.1-.7-3.5-2.1-7.2-2.4s-8.6.4-8.7,1.1,4.8-.6,8.6-.4S23.62,58,23.72,57.39Z"/><path class="cls-6" d="M46.52,57.69c0-.6-4.5-1.8-9.1-1.7s-10.3,1.1-10.3,1.7,5.7-1,10.3-1S46.52,58.39,46.52,57.69Z"/><path class="cls-6" d="M66.32,56.09c-.1-.6-4.1-1.3-8.1-1s-8.8,1.6-8.8,2.2,4.9-1.2,8.9-1.6S66.42,56.69,66.32,56.09Z"/><path class="cls-6" d="M27.82,87c2.2,10.1,7,19.5,6.7,19.6s-5-7.7-7.2-17.8-3.8-23.4-3.5-23.4S25.52,77,27.82,87Z"/><path class="cls-6" d="M47.32,84.79c-1.5,10.2-6.2,19.8-5.9,19.8s5.2-7.8,6.7-18,2-23.5,1.6-23.6S48.82,74.69,47.32,84.79Z"/><path class="cls-6" d="M42.52,119.09c0,.3-2.7,1-5.5,1.1s-6.3-.5-6.3-.8,3.5.5,6.3.4S42.52,118.69,42.52,119.09Z"/><path class="cls-6" d="M42.52,110.89c0,.3-2.7,1-5.5,1.1s-6.3-.5-6.3-.8,3.5.5,6.3.4S42.52,110.49,42.52,110.89Z"/><path class="cls-6" d="M51.92,130.69c0,.4-6.8,2.7-14.2,2.8s-16.6-2-16.6-2.3,9,1.5,16.4,1.4S51.92,130.19,51.92,130.69Z"/><path class="cls-7" d="M113,110.19c1.8,1,2.8,2.4,2.8,3.9a4.5,4.5,0,0,1-2.5,3.7c6.3,1.9,11.6,6.3,13.4,10.7,2.5,6.1-17.3,7-21.8,6.9s-22.4-2.3-17.1-8.6c3.8-4.6,6.6-7.4,11.4-8.9a4.41,4.41,0,0,1-2.6-3.7c0-1.7,1.4-3.3,3.5-4.3-12.7-4.2-15.8-18.4-19.7-39-2.2-12-3.8-20.5-.7-25.6,4.5,3.6,16.5,2.8,21.5,2.7,5.2-.1,24.7.2,31.4-3.7,4.5,2.1,3.3,6.3,2.5,17.6C133.72,80,127,105.19,113,110.19Z"/><path class="cls-2" d="M94.22,33.49c.6,0,1.2.1,1.8.1A10.87,10.87,0,0,1,94.22,33.49Z"/><path class="cls-2" d="M118.62,32.79c-1.4.3-2.9.6-4.3.8A35.77,35.77,0,0,1,118.62,32.79Z"/><path class="cls-3" d="M94.22,33.49c.6,0,1.2.1,1.8.1A10.87,10.87,0,0,1,94.22,33.49Z"/><path class="cls-3" d="M118.62,32.79c-1.4.3-2.9.6-4.3.8A35.77,35.77,0,0,1,118.62,32.79Z"/><path class="cls-4" d="M132.12,38.69a2.41,2.41,0,0,0,.5-3.4h0l-.3-.3a6.58,6.58,0,0,0-3.8-2.3c.4-.2.7-.5.6-.8-.1-1-2.6-1.8-5.8-2.5-.2-1.3-1.9-2.9-6.1-4.8-15-6.9-.4-10.2-11.4-7.6-10.8,2.6-18.1,8.2-18,12.9-4.5,1.2-7.7,2.8-6.6,4.7a2.7,2.7,0,0,0,.7.8c-1.9,1-3.1,2.3-3.1,4.1a2.81,2.81,0,0,0-1,2.6,4.56,4.56,0,0,0,1.8,3.2c4.6,3.6,16.5,2.8,21.5,2.7,5.2-.1,24.7.2,31.4-3.7a3.76,3.76,0,0,0,2.2-2.7C135,40.19,134,39.19,132.12,38.69Zm-37.9-5.2c.6,0,1.2.1,1.8.1A10.87,10.87,0,0,1,94.22,33.49Zm20.1,0c1.4-.3,2.9-.5,4.3-.8a20.42,20.42,0,0,1-4.3.8Z"/><path class="cls-4" d="M94.22,33.49c.6,0,1.2.1,1.8.1A10.87,10.87,0,0,1,94.22,33.49Z"/><path class="cls-4" d="M118.62,32.79c-1.4.3-2.9.6-4.3.8A35.77,35.77,0,0,1,118.62,32.79Z"/><polygon class="cls-7" points="94.22 31.99 90.02 33.69 74.92 5.79 79.22 4.19 94.22 31.99"/><ellipse class="cls-8" cx="77.03" cy="5.01" rx="2.3" ry="0.4" transform="translate(3.28 27.81) rotate(-20.9)"/><path class="cls-6" d="M94.42,57c.1-.7-3.3-2.1-6.8-2.4s-8.1.4-8.2,1.1,4.5-.6,8.1-.4S94.32,57.59,94.42,57Z"/><path class="cls-6" d="M116,57.29c0-.6-4.2-1.8-8.6-1.7s-9.7,1.1-9.7,1.7,5.4-1,9.7-1S116,58,116,57.29Z"/><path class="cls-6" d="M134.72,55.69c-.1-.6-3.8-1.3-7.6-1s-8.4,1.6-8.3,2.2,4.6-1.2,8.4-1.6S134.72,56.19,134.72,55.69Z"/><path class="cls-6" d="M98.32,86.49c2.1,10,6.6,19.5,6.3,19.5s-4.7-7.7-6.8-17.8-3.6-23.3-3.4-23.4C94.72,64.89,96.22,76.49,98.32,86.49Z"/><path class="cls-6" d="M116.72,84.39c-1.5,10.1-5.9,19.7-5.5,19.7s4.9-7.8,6.3-18,1.8-23.5,1.5-23.5S118.22,74.19,116.72,84.39Z"/><path class="cls-6" d="M112.22,118.49c0,.3-2.5,1-5.2,1.1s-6-.5-6-.8,3.3.5,5.9.4S112.22,118.19,112.22,118.49Z"/><path class="cls-6" d="M112.22,110.29c0,.3-2.5,1-5.2,1.1s-6-.5-6-.8,3.3.5,5.9.4S112.22,110,112.22,110.29Z"/><path class="cls-6" d="M121.12,130.09c0,.4-6.5,2.7-13.4,2.8s-15.7-2-15.7-2.3,8.6,1.5,15.5,1.4S121.12,129.69,121.12,130.09Z"/><path class="cls-9" d="M180.92,109.89c1.7,1,2.8,2.4,2.8,3.9a4.5,4.5,0,0,1-2.5,3.7c6.3,1.9,11.6,6.3,13.4,10.7,2.6,6.1-17.3,7-21.8,6.9s-22.4-2.3-17.1-8.6c3.8-4.6,6.6-7.4,11.4-8.9a4.56,4.56,0,0,1-2.6-3.8c0-1.7,1.4-3.3,3.5-4.3-12.7-4.2-15.8-18.4-19.7-39-2.2-12-3.8-20.5-.7-25.6,4.6,3.6,16.5,2.8,21.5,2.7,5.2-.1,24.7.2,31.4-3.7,4.5,2.1,3.3,6.3,2.5,17.6C201.62,79.69,194.92,104.79,180.92,109.89Z"/><path class="cls-2" d="M162.12,33.19c.6,0,1.2.1,1.8.1A10.87,10.87,0,0,0,162.12,33.19Z"/><path class="cls-2" d="M186.52,32.39c-1.4.3-2.9.6-4.3.8C183.62,32.89,185.12,32.59,186.52,32.39Z"/><path class="cls-3" d="M162.12,33.19c.6,0,1.2.1,1.8.1A10.87,10.87,0,0,0,162.12,33.19Z"/><path class="cls-3" d="M186.52,32.39c-1.4.3-2.9.6-4.3.8C183.62,32.89,185.12,32.59,186.52,32.39Z"/><path class="cls-4" d="M200,38.39a2.41,2.41,0,0,0,.5-3.4h0l-.3-.3a7.83,7.83,0,0,0-3.8-2.3c.4-.2.7-.5.6-.8-.1-1-2.6-1.8-5.8-2.5-.2-1.3-1.9-2.9-6.1-4.8-15-6.9-.4-10.2-11.4-7.6-10.8,2.6-18.1,8.2-18,12.9-4.5,1.2-7.7,2.8-6.6,4.7a2.7,2.7,0,0,0,.7.8c-1.9,1-3.1,2.3-3.1,4.1a2.81,2.81,0,0,0-1,2.6,4.56,4.56,0,0,0,1.8,3.2c4.6,3.6,16.5,2.8,21.5,2.7,5.2-.1,24.7.2,31.4-3.7a4,4,0,0,0,2.2-2.7C202.92,39.89,201.92,39,200,38.39Zm-37.9-5.2c.6,0,1.2.1,1.8.1A10.87,10.87,0,0,0,162.12,33.19Zm20.1,0c1.4-.3,2.9-.5,4.3-.8a29.71,29.71,0,0,1-4.3.8Z"/><path class="cls-4" d="M162.12,33.19c.6,0,1.2.1,1.8.1A10.87,10.87,0,0,0,162.12,33.19Z"/><path class="cls-4" d="M186.52,32.39c-1.4.3-2.9.6-4.3.8C183.62,32.89,185.12,32.59,186.52,32.39Z"/><polygon class="cls-9" points="162.12 31.69 157.92 33.29 142.82 5.49 147.02 3.89 162.12 31.69"/><ellipse class="cls-8" cx="144.91" cy="4.62" rx="2.3" ry="0.4" transform="translate(7.89 51.99) rotate(-20.9)"/><path class="cls-6" d="M162.32,56.59c.1-.7-3.3-2.1-6.8-2.4s-8.1.4-8.2,1.1,4.5-.6,8.1-.4S162.22,57.19,162.32,56.59Z"/><path class="cls-6" d="M183.92,57c0-.6-4.2-1.8-8.6-1.7s-9.7,1.1-9.7,1.7,5.4-1,9.7-1S183.92,57.59,183.92,57Z"/><path class="cls-6" d="M202.52,55.39c-.1-.6-3.8-1.3-7.6-1s-8.4,1.6-8.3,2.2,4.6-1.2,8.4-1.6S202.62,55.89,202.52,55.39Z"/><path class="cls-6" d="M166.22,86.19c2.1,10,6.6,19.5,6.3,19.5s-4.7-7.7-6.8-17.8-3.6-23.3-3.3-23.4S164,76.19,166.22,86.19Z"/><path class="cls-6" d="M184.62,84c-1.5,10.1-5.9,19.7-5.5,19.7s4.9-7.8,6.3-18,1.9-23.5,1.5-23.5S186,73.89,184.62,84Z"/><path class="cls-6" d="M180.12,118.19c0,.3-2.5,1-5.2,1.1s-6-.5-6-.8,3.3.5,6,.4S180.12,117.89,180.12,118.19Z"/><path class="cls-6" d="M180.12,110c0,.3-2.5,1-5.2,1.1s-6-.5-6-.8,3.3.5,6,.4S180.12,109.69,180.12,110Z"/><path class="cls-6" d="M189,129.69c0,.4-6.5,2.7-13.4,2.8s-15.7-2-15.7-2.3,8.5,1.5,15.4,1.4S189,129.39,189,129.69Z"/></g></svg>