<svg xmlns="http://www.w3.org/2000/svg" width="400" height="400" viewBox="0 0 400 400"><defs><style>.cls-1{fill:#d6e4c2;}.cls-2{fill:#453991;}.cls-3{fill:#fff;}.cls-4{fill:#6d68a5;}</style></defs><g id="Lag_4" data-name="Lag 4"><polygon class="cls-1" points="267.67 154.39 275.9 146.91 282.16 136.16 286.81 124.58 289.5 114.72 291.47 99.25 278.47 102.63 264.88 109.39 249.92 120.29 242.54 127.71 234.62 137.71 230.44 144.99 228.18 151.37 227.31 155.97 227.04 161.98 232.15 165.18 235.05 167.45 238.67 170.85 241.67 174.32 243.05 176.17 247.12 169.78 251.5 164.8 256.31 160.68 262.58 156.71 267.67 154.39"/><path class="cls-2" d="M313.55,206.46c0,30.3-22.34,54.87-49.9,54.87-18,0-33.73-10.46-42.52-26.15-8.61,15.63-24.78,26.15-43.31,26.15-27.55,0-49.89-23.27-49.89-52s22.34-52,49.89-52c17.44,0,32.8,9.33,41.71,23.46,8.37-17.39,25-29.24,44.12-29.24C291.21,151.58,313.55,176.15,313.55,206.46Z"/><ellipse class="cls-3" cx="175.66" cy="166.39" rx="4.87" ry="1.66"/><ellipse class="cls-3" cx="190.59" cy="173.97" rx="5.96" ry="11.1" transform="translate(-55.37 252.05) rotate(-60)"/><ellipse class="cls-3" cx="253.16" cy="173.97" rx="12.09" ry="7.14" transform="translate(-44.46 97.96) rotate(-20.17)"/><ellipse class="cls-3" cx="278.59" cy="170.97" rx="3.59" ry="7.7" transform="translate(56.31 410.63) rotate(-78.69)"/><path class="cls-4" d="M287.94,203.51c-1.14,2.75-6.75.28-9.58.25-.8,0-2,.86-2.88.2,0,.14-.24.26-.22.36a3.57,3.57,0,0,1,.06,1c-.59,3.17,2.72,7.52-.81,9.7s-6.67-2-8.62-4.64a9.87,9.87,0,0,1-.69-1.29c-.24.16-.69.59-.94.71-3,1.44-7.69,3.95-10.21.19s2.05-6.3,4.09-8.88c.51-.65.77-1.63,1.5-2.09a7.06,7.06,0,0,1-1.4-2.08c-1.09-2.71-4.22-7.69-1.85-9.9s8.23.56,10.72,1.49c.44.17,1.08,1.25,1.48,1.55a5.21,5.21,0,0,1,1-1.84c2.27-1.76,5.18-6.48,8.64-4.91s-.51,5.81.32,8.66c.11.38.28,1,.35,1.32.52.45,1.56.69,1.81,1.45C281.85,198.27,289.09,200.76,287.94,203.51Z"/><ellipse class="cls-2" cx="268.66" cy="201.07" rx="1.75" ry="2.95" transform="translate(-66.52 184.86) rotate(-34.04)"/><ellipse class="cls-2" cx="271.77" cy="198.9" rx="1.59" ry="2.88" transform="translate(-63.04 162.53) rotate(-30)"/><path class="cls-4" d="M180.78,188.6c1,2.81-4.85,4.7-7,6.56-.6.52-.92,2-2,2.06.07.13,0,.36.07.42a3.52,3.52,0,0,1,.7.69c1.67,2.76,7,3.81,5.85,7.78s-6.33,2.93-9.52,2.27a10.92,10.92,0,0,1-1.38-.5c-.07.28-.12.9-.22,1.15-1.3,3.09-3.12,8.07-7.5,6.94s-2.66-6.07-2.85-9.35c0-.83-.51-1.74-.27-2.56a7,7,0,0,1-2.44-.62c-2.61-1.3-8.26-2.93-8-6.16s6.52-5.06,9-6c.43-.17,1.63.21,2.13.17a5,5,0,0,1-.48-2c.52-2.83-.45-8.28,3.18-9.42s3.48,4.68,6,6.26c.34.21.84.53,1.14.75.69,0,1.62-.53,2.31-.13C172.74,188.74,179.8,185.78,180.78,188.6Z"/><ellipse class="cls-2" cx="166.33" cy="200.49" rx="2.95" ry="1.75" transform="translate(-83.73 127.48) rotate(-34.04)"/><ellipse class="cls-2" cx="163.56" cy="196.68" rx="2.95" ry="1.75" transform="translate(-91.17 173.26) rotate(-45)"/><polygon class="cls-1" points="190.59 159.09 180.89 151.59 172.83 139.99 166.36 127.19 162.19 116.08 158.03 98.35 172.22 100.35 187.48 106.21 204.76 116.7 213.55 124.25 223.26 134.74 228.66 142.61 231.9 149.7 233.44 154.94 234.53 161.9 229.56 166.39 226.81 169.47 223.44 173.97 220.74 178.46 219.53 180.82 214.37 173.97 209.07 168.82 203.44 164.74 196.28 161.04 190.59 159.09"/></g></svg>