<svg xmlns="http://www.w3.org/2000/svg" width="400" height="400" viewBox="0 0 400 400"><defs><style>.cls-1{fill:#d6e4c2;}.cls-2{fill:#8e9b78;}.cls-3{fill:#53681f;}</style></defs><g id="Lag_5" data-name="Lag 5"><polygon class="cls-1" points="154.28 203.09 159.33 203.09 162.54 197.6 167.13 200.35 173.56 203.09 187.79 216.46 187.79 209.78 187.79 203.54 187.79 193.73 189.08 191.68 192.42 192.63 195.21 191.14 197.29 189.11 198.27 186.95 199.66 180.6 203.14 182.22 207.73 181.95 209.54 193.44 215.8 211 219 197.9 222.49 191.54 227.22 181.41 228.61 181.68 231.67 184.79 236.12 186.14 240.02 185.73 245.17 183.71 241.55 213.84 253.1 196.54 255.89 197.49 259.23 196.81 261.59 195.6 263.54 199.79 265.63 202.22 254.08 214.65 248.51 225.87 242.33 248.21 239.19 265.73 237.63 286.3 238.93 302.8 240.24 348.75 235.3 348.75 227 347.95 219.45 348.75 212.53 350.39 205.86 351.73 200.07 353.2 189.51 356.01 189.51 345.26 190.51 335.24 191.77 328.04 193.03 319.61 193.16 310.81 193.66 302.02 191.91 281.68 188.67 274.42 185.43 263.28 183.19 253.35 179.94 243.42 178.45 235.68 173.21 227.69 168.47 219.94 162.24 211.46 154.28 203.09"/><ellipse class="cls-2" cx="215.4" cy="353.85" rx="26.32" ry="4.74" transform="translate(-39.59 27.37) rotate(-6.66)"/><polygon class="cls-3" points="113.64 130.74 110.85 120.12 114.99 110.97 122.67 104.8 133.01 105.86 137.74 111.41 135.89 100.53 142.82 91.08 147 90.16 150.44 94.21 155.62 85.68 163 79.76 168.91 80.86 171.72 84.16 176.64 77.09 184.67 70.17 190.93 64.66 197.72 63.31 204.36 64.1 210.66 66.83 215.09 72.04 222.23 80.42 228.78 71.76 234.1 67.5 239.37 66.68 248.62 72.88 253.54 78.66 255.75 87.11 258.31 91.87 262.79 96.55 264.65 102.83 262.29 107.65 254.61 107.97 260.76 112.28 264.75 119.3 265.63 124.43 260.9 128.22 255.58 132.49 248.55 125.97 243.08 120.13 236.49 123.48 229.49 128.11 221.91 130.3 213.59 131.62 202.02 129.71 194.78 131.14 190.6 134.98 188.53 139.56 180.01 140.06 173.89 145.2 158.6 143.13 143.44 139.72 130.78 136.78 113.64 130.74"/><polygon class="cls-3" points="240.42 65.15 248.74 63.25 258.43 67.05 266.83 73.67 269.88 82.21 266.79 85.91 275.69 84.8 286.71 90.92 289.14 94.43 286.89 97.13 296.42 101.76 304.5 108.13 305.8 112.98 303.96 115.19 312.11 119.55 321.32 126.48 328.59 131.89 332.41 137.59 334.26 143.07 334.27 148.19 331.37 151.66 326.7 157.25 336.88 163.02 342.7 167.61 345.45 172.01 343.53 179.44 340.31 183.3 333.69 184.8 330.47 186.73 328.06 190.26 323.22 191.57 318.05 189.41 314.81 183.03 313.37 187.96 308.69 190.99 304.5 191.52 299.32 187.45 293.51 182.87 296.56 177.28 299.62 172.98 294.12 167.38 287.33 161.39 282.48 155.01 278.11 148.05 275.35 138.53 271.3 132.47 266.29 128.84 261.45 126.94 257.72 119.86 250.82 114.57 246.78 101.97 243.95 89.52 241.68 79.13 240.42 65.15"/><polygon class="cls-3" points="173.21 227.69 170.75 232.72 166.03 235.01 160.93 235.01 157.2 231.35 157.2 227.69 154.28 232.53 148.37 234.06 146.4 233.1 146.4 230.43 141.5 232.15 136.59 232.15 134.63 229.86 134.63 227.69 130.31 228.91 124.81 229.1 120.49 229.29 117.35 227.69 115 225.29 113.43 222.24 113.43 218.81 113.43 213.28 107.93 214.62 104.4 214.62 102.04 213.28 100.47 207.94 100.47 204.13 102.43 200.13 103.02 197.46 102.83 194.22 104.2 191.17 106.75 190.03 109.89 192.32 108.91 188.69 109.7 184.69 111.07 182.41 114.21 182.41 117.75 182.41 118.33 187.17 118.53 191.17 122.26 191.94 126.58 192.32 130.31 193.84 134.04 195.94 137.96 200.32 141.3 202.04 144.25 201.85 146.6 200.7 150.13 203.18 154.28 203.09 159.62 208.71 164.46 214.81 168.47 219.94 173.21 227.69"/><polygon class="cls-3" points="117.75 182.41 118.53 191.17 126.58 192.32 134.04 195.94 137.96 200.32 141.3 202.04 144.25 201.85 146.6 200.7 150.13 203.18 159.33 203.09 162.54 197.6 167.13 200.35 168.62 199.21 172.01 198.01 173.86 194.72 176.79 195.92 181.1 195.47 184.8 194.27 187.79 193.73 189.08 191.68 192.42 192.63 195.21 191.14 198.27 186.95 199.66 180.6 203.14 182.22 207.73 181.95 210.69 180.6 213.31 178.41 215.47 173.47 218.85 177.22 222.86 179.31 227.22 181.41 228.61 181.68 231.67 184.79 236.12 186.14 240.02 185.73 243.04 184.55 245.17 183.71 245.82 185.74 247.21 187.54 249.21 188.33 251.83 187.54 251.83 189.93 251.83 192.18 251.83 194.87 253.1 196.54 255.89 197.49 259.23 196.81 261.59 195.6 263.54 199.79 265.63 202.22 269.68 201.37 271.78 198.57 274.14 203.18 277.03 203.18 279.91 203.18 283.06 201.37 285.95 198.06 287.52 194.24 287.52 189.4 287.52 187.1 291.99 186.59 296.71 184.56 299.6 182.41 301.44 179.2 301.44 175.64 302.75 171.05 302.75 167.48 300.38 165.7 296.45 165.7 300.65 161.37 304.06 156.01 306.16 149.9 306.16 143.78 304.58 137.67 301.96 133.08 298.81 131.29 292.25 131.29 291.99 126.71 289.62 122.38 287.26 119.83 283.85 119.83 280.18 119.83 277.55 114.73 273.88 109.38 268.89 104.79 262.33 102.5 255.24 103.77 250.25 106.32 249.99 102.5 246.58 97.91 240.54 94.85 235.03 94.85 228.73 94.85 223.75 94.85 219.55 96.13 217.19 98.42 215.09 102.5 214.56 108.36 211.95 107.85 208.52 105.81 204.85 106.07 205.11 111.67 202.49 109.12 199.07 108.36 195.14 109.12 190.68 112.69 185.95 115.75 182.54 120.59 184.11 128.24 181.75 125.18 177.81 125.94 175.19 122.38 169.42 121.1 162.07 121.1 154.28 122.12 149.47 125.18 145.53 128.49 142.12 135.37 143.96 140.21 139.5 137.16 134.51 136.39 130.05 138.18 129 143.27 129.26 147.09 133.46 153.21 126.11 151.43 120.6 154.49 117.75 159.33 114.82 165.44 112.99 172.07 112.99 177.67 114.21 182.41 117.75 182.41"/><polygon class="cls-3" points="250.17 222.68 252.5 229.02 256.94 231.9 261.75 231.9 265.26 227.29 265.26 222.68 268.02 228.78 273.59 230.7 275.44 229.5 275.44 226.14 280.06 228.3 284.69 228.3 286.54 225.42 286.54 222.68 290.61 224.22 295.79 224.46 299.86 224.7 302.82 222.68 305.04 219.66 306.52 215.83 306.52 211.51 306.52 204.55 311.7 206.23 315.03 206.23 317.25 204.55 318.73 197.84 318.73 193.04 316.88 188 316.32 184.65 316.51 180.57 315.21 176.73 312.81 175.29 309.85 178.17 310.77 173.61 310.03 168.58 308.74 165.7 305.78 165.7 302.45 165.7 301.89 171.69 301.71 176.73 298.19 177.69 294.12 178.17 290.61 180.09 287.09 182.73 283.39 188.24 280.25 190.4 277.47 190.16 275.25 188.72 271.92 191.84 268.02 191.73 262.99 198.8 258.42 206.47 254.64 212.93 250.17 222.68"/><polygon class="cls-3" points="100.65 204.22 92.79 204.18 88.01 200.72 86.3 195.82 90.16 190.56 95.27 188.88 87.53 188.31 83.42 183.34 84.09 181.02 87.81 179.79 83.77 175.88 82.13 171.18 84.66 168.24 87.7 167.24 84.54 163.66 82.43 158.48 80.72 154.43 81.9 150.68 84.46 147.32 88.19 144.41 92.98 142.82 100.7 140.28 96.99 135.63 95.81 132.24 96.88 129.37 103.8 125.4 109.12 123.64 115.37 123.68 119.3 123.02 123.75 121.33 128.47 121.25 130.93 123.17 128.78 127.23 133.51 124.62 139.36 123.53 143.02 123.79 144.07 126.8 145.26 130.19 138.8 132.95 133.28 134.98 133.47 138.91 134.38 143.22 133.51 147.5 131.83 152.04 127.03 157.83 125.75 161.81 127.01 164.55 129.39 166.28 127.12 170.81 128.63 174.74 122.58 182.44 115.7 189.9 109.88 196.11 100.65 204.22"/><path class="cls-3" d="M142.28,127.41C106.67,194.13,125.5,140,125.5,140"/><ellipse class="cls-3" cx="140.14" cy="152.85" rx="11.65" ry="34.58"/><ellipse class="cls-3" cx="121.55" cy="194.49" rx="9.85" ry="6.16"/></g></svg>