<?xml version="1.0" encoding="utf-8"?>
<!-- Generator: Adobe Illustrator 24.2.3, SVG Export Plug-In . SVG Version: 6.00 Build 0)  -->
<svg version="1.1" id="Lag_1" xmlns="http://www.w3.org/2000/svg" xmlns:xlink="http://www.w3.org/1999/xlink" x="0px" y="0px"
	 viewBox="0 0 290 315" style="enable-background:new 0 0 290 315;" xml:space="preserve">
<style type="text/css">
	.st0{fill:#D6E4C2;}
	.st1{fill:#8E9B78;}
	.st2{fill:#53681F;}
</style>
<g id="Lag_5">
	<polygon class="st0" points="90.3,149.1 95.3,149.1 98.5,143.6 103.1,146.4 109.6,149.1 123.8,162.5 123.8,155.8 123.8,149.5 
		123.8,139.7 125.1,137.7 128.4,138.6 131.2,137.1 133.3,135.1 134.3,132.9 135.7,126.6 139.1,128.2 143.7,127.9 145.5,139.4 
		151.8,157 155,143.9 158.5,137.5 163.2,127.4 164.6,127.7 167.7,130.8 172.1,132.1 176,131.7 181.2,129.7 177.6,159.8 189.1,142.5 
		191.9,143.5 195.2,142.8 197.6,141.6 199.5,145.8 201.6,148.2 190.1,160.6 184.5,171.9 178.3,194.2 175.2,211.7 173.6,232.3 
		174.9,248.8 176.2,294.8 171.3,294.8 163,294 155.4,294.8 148.5,296.4 141.9,297.7 136.1,299.2 125.5,302 125.5,291.3 126.5,281.2 
		127.8,274 129,265.6 129.2,256.8 129.7,248 127.9,227.7 124.7,220.4 121.4,209.3 119.2,199.4 115.9,189.4 114.4,181.7 109.2,173.7 
		104.5,165.9 98.2,157.5 	"/>
	<ellipse transform="matrix(0.9933 -0.116 0.116 0.9933 -33.7542 19.5818)" class="st1" cx="151.4" cy="299.9" rx="26.3" ry="4.7"/>
	<polygon class="st2" points="49.6,76.7 46.8,66.1 51,57 58.7,50.8 69,51.9 73.7,57.4 71.9,46.5 78.8,37.1 83,36.2 86.4,40.2 
		91.6,31.7 99,25.8 104.9,26.9 107.7,30.2 112.6,23.1 120.7,16.2 126.9,10.7 133.7,9.3 140.4,10.1 146.7,12.8 151.1,18 158.2,26.4 
		164.8,17.8 170.1,13.5 175.4,12.7 184.6,18.9 189.5,24.7 191.8,33.1 194.3,37.9 198.8,42.6 200.6,48.8 198.3,53.7 190.6,54 
		196.8,58.3 200.8,65.3 201.6,70.4 196.9,74.2 191.6,78.5 184.6,72 179.1,66.1 172.5,69.5 165.5,74.1 157.9,76.3 149.6,77.6 
		138,75.7 130.8,77.1 126.6,81 124.5,85.6 116,86.1 109.9,91.2 94.6,89.1 79.4,85.7 66.8,82.8 	"/>
	<polygon class="st2" points="176.4,11.2 184.7,9.2 194.4,13.1 202.8,19.7 205.9,28.2 202.8,31.9 211.7,30.8 222.7,36.9 225.1,40.4 
		222.9,43.1 232.4,47.8 240.5,54.1 241.8,59 240,61.2 248.1,65.6 257.3,72.5 264.6,77.9 268.4,83.6 270.3,89.1 270.3,94.2 
		267.4,97.7 262.7,103.2 272.9,109 278.7,113.6 281.5,118 279.5,125.4 276.3,129.3 269.7,130.8 266.5,132.7 264.1,136.3 
		259.2,137.6 254,135.4 250.8,129 249.4,134 244.7,137 240.5,137.5 235.3,133.4 229.5,128.9 232.6,123.3 235.6,119 230.1,113.4 
		223.3,107.4 218.5,101 214.1,94.1 211.4,84.5 207.3,78.5 202.3,74.8 197.5,72.9 193.7,65.9 186.8,60.6 182.8,48 179.9,35.5 
		177.7,25.1 	"/>
	<polygon class="st2" points="109.2,173.7 106.8,178.7 102,181 96.9,181 93.2,177.4 93.2,173.7 90.3,178.5 84.4,180.1 82.4,179.1 
		82.4,176.4 77.5,178.1 72.6,178.1 70.6,175.9 70.6,173.7 66.3,174.9 60.8,175.1 56.5,175.3 53.3,173.7 51,171.3 49.4,168.2 
		49.4,164.8 49.4,159.3 43.9,160.6 40.4,160.6 38,159.3 36.5,153.9 36.5,150.1 38.4,146.1 39,143.5 38.8,140.2 40.2,137.2 42.8,136 
		45.9,138.3 44.9,134.7 45.7,130.7 47.1,128.4 50.2,128.4 53.8,128.4 54.3,133.2 54.5,137.2 58.3,137.9 62.6,138.3 66.3,139.8 
		70,141.9 74,146.3 77.3,148 80.2,147.9 82.6,146.7 86.1,149.2 90.3,149.1 95.6,154.7 100.5,160.8 104.5,165.9 	"/>
	<polygon class="st2" points="53.8,128.4 54.5,137.2 62.6,138.3 70,141.9 74,146.3 77.3,148 80.2,147.9 82.6,146.7 86.1,149.2 
		95.3,149.1 98.5,143.6 103.1,146.4 104.6,145.2 108,144 109.9,140.7 112.8,141.9 117.1,141.5 120.8,140.3 123.8,139.7 125.1,137.7 
		128.4,138.6 131.2,137.1 134.3,132.9 135.7,126.6 139.1,128.2 143.7,127.9 146.7,126.6 149.3,124.4 151.5,119.5 154.9,123.2 
		158.9,125.3 163.2,127.4 164.6,127.7 167.7,130.8 172.1,132.1 176,131.7 179,130.6 181.2,129.7 181.8,131.7 183.2,133.5 
		185.2,134.3 187.8,133.5 187.8,135.9 187.8,138.2 187.8,140.9 189.1,142.5 191.9,143.5 195.2,142.8 197.6,141.6 199.5,145.8 
		201.6,148.2 205.7,147.4 207.8,144.6 210.1,149.2 213,149.2 215.9,149.2 219.1,147.4 222,144.1 223.5,140.2 223.5,135.4 
		223.5,133.1 228,132.6 232.7,130.6 235.6,128.4 237.4,125.2 237.4,121.6 238.8,117.1 238.8,113.5 236.4,111.7 232.5,111.7 
		236.6,107.4 240.1,102 242.2,95.9 242.2,89.8 240.6,83.7 238,79.1 234.8,77.3 228.2,77.3 228,72.7 225.6,68.4 223.3,65.8 
		219.9,65.8 216.2,65.8 213.5,60.7 209.9,55.4 204.9,50.8 198.3,48.5 191.2,49.8 186.2,52.3 186,48.5 182.6,43.9 176.5,40.8 
		171,40.8 164.7,40.8 159.8,40.8 155.6,42.1 153.2,44.4 151.1,48.5 150.6,54.4 147.9,53.8 144.5,51.8 140.9,52.1 141.1,57.7 
		138.5,55.1 135.1,54.4 131.1,55.1 126.7,58.7 121.9,61.8 118.5,66.6 120.1,74.2 117.8,71.2 113.8,71.9 111.2,68.4 105.4,67.1 
		98.1,67.1 90.3,68.1 85.5,71.2 81.5,74.5 78.1,81.4 80,86.2 75.5,83.2 70.5,82.4 66.1,84.2 65,89.3 65.3,93.1 69.5,99.2 62.1,97.4 
		56.6,100.5 53.8,105.3 50.8,111.4 49,118.1 49,123.7 50.2,128.4 	"/>
	<polygon class="st2" points="186.2,168.7 188.5,175 192.9,177.9 197.8,177.9 201.3,173.3 201.3,168.7 204,174.8 209.6,176.7 
		211.4,175.5 211.4,172.1 216.1,174.3 220.7,174.3 222.5,171.4 222.5,168.7 226.6,170.2 231.8,170.5 235.9,170.7 238.8,168.7 
		241,165.7 242.5,161.8 242.5,157.5 242.5,150.6 247.7,152.2 251,152.2 253.2,150.6 254.7,143.8 254.7,139 252.9,134 252.3,130.6 
		252.5,126.6 251.2,122.7 248.8,121.3 245.9,124.2 246.8,119.6 246,114.6 244.7,111.7 241.8,111.7 238.5,111.7 237.9,117.7 
		237.7,122.7 234.2,123.7 230.1,124.2 226.6,126.1 223.1,128.7 219.4,134.2 216.2,136.4 213.5,136.2 211.2,134.7 207.9,137.8 
		204,137.7 199,144.8 194.4,152.5 190.6,158.9 	"/>
	<polygon class="st2" points="36.7,150.2 28.8,150.2 24,146.7 22.3,141.8 26.2,136.6 31.3,134.9 23.5,134.3 19.4,129.3 20.1,127 
		23.8,125.8 19.8,121.9 18.1,117.2 20.7,114.2 23.7,113.2 20.5,109.7 18.4,104.5 16.7,100.4 17.9,96.7 20.5,93.3 24.2,90.4 29,88.8 
		36.7,86.3 33,81.6 31.8,78.2 32.9,75.4 39.8,71.4 45.1,69.6 51.4,69.7 55.3,69 59.8,67.3 64.5,67.2 66.9,69.2 64.8,73.2 69.5,70.6 
		75.4,69.5 79,69.8 80.1,72.8 81.3,76.2 74.8,78.9 69.3,81 69.5,84.9 70.4,89.2 69.5,93.5 67.8,98 63,103.8 61.8,107.8 63,110.6 
		65.4,112.3 63.1,116.8 64.6,120.7 58.6,128.4 51.7,135.9 45.9,142.1 	"/>
	<path class="st2" d="M78.3,73.4C42.7,140.1,61.5,86,61.5,86"/>
	<ellipse class="st2" cx="76.1" cy="98.9" rx="11.6" ry="34.6"/>
	<ellipse class="st2" cx="57.6" cy="140.5" rx="9.9" ry="6.2"/>
</g>
</svg>
