<svg xmlns="http://www.w3.org/2000/svg" width="400" height="400" viewBox="0 0 400 400"><defs><style>.cls-1{fill:#fce368;}.cls-2{fill:#fcf6ce;}.cls-3{fill:#fbffc9;stroke:#fcf6ce;stroke-miterlimit:10;stroke-width:0.5px;}.cls-4{fill:#fff;}</style></defs><g id="Lag_6" data-name="Lag 6"><polygon class="cls-1" points="69.53 207.79 69.53 286.23 287.55 260.38 287.55 159.28 282.36 148.38 274.28 139.28 263.9 131.07 253.52 124.73 244.87 120.12 235.64 116.66 225.26 113.77 214.87 113.77 69.53 207.79"/><circle class="cls-2" cx="123.25" cy="264.7" r="12.78"/><ellipse class="cls-2" cx="176.3" cy="181.79" rx="12.78" ry="11.52"/><circle class="cls-2" cx="146.01" cy="175.34" r="3.13"/><circle class="cls-2" cx="241.5" cy="219.64" r="21.28"/><ellipse class="cls-2" cx="205.42" cy="139.89" rx="10.76" ry="5.73"/><ellipse class="cls-2" cx="239.38" cy="147.33" rx="5.72" ry="10.53"/><polygon class="cls-2" points="69.53 250.1 75.79 251.92 80.73 258.99 80.73 265.91 80.73 273.16 76.78 279.42 69.53 281.73 69.53 250.1"/><polygon class="cls-2" points="135.39 164.1 136.27 168.4 132.64 174.72 127.33 178.33 121.77 182.1 115.53 183.24 111.13 180.56 135.39 164.1"/><ellipse class="cls-2" cx="147.67" cy="232.37" rx="7.19" ry="12.73"/><ellipse class="cls-2" cx="102.85" cy="235" rx="8.28" ry="7.88"/><polygon class="cls-2" points="177.83 273.59 193.33 271.7 195.24 268.16 195.55 261.9 194.03 257.21 190.65 253.93 186.13 251.89 181.76 253.5 178.67 256.14 175.51 259.95 175.22 265.98 175.07 269.17 177.83 273.59"/><line class="cls-3" x1="69.53" y1="207.79" x2="287.55" y2="159.28"/><path class="cls-4" d="M232.23,209.53s4.92-5.67,14.59-.3,7.48,12.55,7.48,12.55c2.48-4.47-.45-10.84-6.54-14.22S234.71,205.06,232.23,209.53Z"/><path class="cls-4" d="M168,176.08s3.87-4.59,11.06-.6,5.35,9.7,5.35,9.7c2-3.58-.07-8.53-4.6-11S169.94,172.49,168,176.08Z"/><path class="cls-4" d="M115.12,260s3.87-4.59,11.06-.6,5.34,9.71,5.34,9.71c2-3.59-.07-8.53-4.6-11S117.11,256.46,115.12,260Z"/><path class="cls-4" d="M234.46,146.06s.78-4.65,4.88-4.46,4.48,4.87,4.48,4.87c.15-3.25-1.83-6-4.42-6.09S234.6,142.81,234.46,146.06Z"/><path class="cls-4" d="M202.54,135.68s-4,.66-3.9,4.35,4.18,4.08,4.18,4.08c-2.81.09-5.16-1.72-5.24-4.05S199.73,135.77,202.54,135.68Z"/><path class="cls-4" d="M131.27,167.35s1.79,4.62-5,9.29S115.84,178,115.84,178c1.9,2.76,6.9,2.6,11.17-.34S133.18,170.11,131.27,167.35Z"/><path class="cls-4" d="M107.35,231.58a6.3,6.3,0,0,1-10,6.9,6.08,6.08,0,0,0,10-6.9Z"/><path class="cls-4" d="M147.58,242s4.8-1.41,4.41-9.85-5.31-9.42-5.31-9.42c3.39-.16,6.33,4,6.58,9.35S151,241.85,147.58,242Z"/><path class="cls-4" d="M72.94,278.76s4.79-1.69,4.31-12.07-5.42-11.63-5.42-11.63c3.39-.15,6.38,5,6.68,11.57S76.32,278.61,72.94,278.76Z"/><path class="cls-4" d="M179.45,259.42s3.19-3.76,9.18-.44,4.48,8,4.48,8c1.64-2.94-.09-7-3.87-9.12S181.09,256.47,179.45,259.42Z"/></g></svg>