<svg xmlns="http://www.w3.org/2000/svg" width="400" height="400" viewBox="0 0 400 400"><defs><style>.cls-1{fill:#fff;}.cls-2{fill:#c40a2a;}.cls-3{fill:#d6e4c2;}.cls-4{fill:#bacc96;}.cls-5{fill:#c8d8ad;}</style></defs><g id="Lag_10" data-name="Lag 10"><path class="cls-1" d="M251.82,246.67s7.25-5.72,25.47,7.89,16.14,23.18,16.14,23.18c3.26-5.32-3.42-16.58-14.91-25.16S255.08,241.35,251.82,246.67Z"/><ellipse class="cls-2" cx="140.89" cy="250.3" rx="51.56" ry="59.35" transform="translate(-138.89 185.29) rotate(-47.54)"/><ellipse class="cls-2" cx="252.17" cy="288.54" rx="55.24" ry="51.77" transform="matrix(0.96, -0.29, 0.29, 0.96, -72.16, 84.44)"/><polygon class="cls-3" points="156.49 205.95 169.35 193.96 181.12 178.05 185.02 165.1 190.25 141.57 190.25 130.03 192.25 111.38 197.08 118.48 197.08 138.69 193.86 158.67 190.25 168.96 183.81 183.66 178.59 193.08 172.95 201.51 162.11 213.06 156.49 213.06 156.49 205.95"/><polygon class="cls-3" points="234.87 239.74 231.64 219.32 227.62 201.96 221.59 178.05 213.55 156.22 206.32 138.69 197.08 118.48 192.25 111.38 185.02 101.61 181.12 101.61 170.96 92.73 166.53 84.74 164.78 78.08 169.75 78.08 172.95 72.31 181.12 86.96 188.24 96.28 197.08 104.28 206.32 118.93 213.55 134.91 222.8 156.02 230.43 183.66 234.87 204.06 239.68 222.82 242.44 237.66 242.44 244.93 239.88 247.57 236.53 246.27 234.78 245.1 234.87 239.74"/><polygon class="cls-4" points="178.02 81.41 190.45 76.62 204.51 76.62 217.26 79.02 229.57 84.64 245.39 96.78 251.76 105.52 261.65 117.66 277.26 133.93 289.57 145.1 296.82 149.22 302.53 149.22 315.06 149.22 304.07 153.35 288.25 153.35 270.88 150.44 250.88 145.34 233.52 137.08 219.46 128.58 206.32 118.93 193.08 99.69 188.24 96.28 182.31 89.01 178.02 81.41"/><polygon class="cls-5" points="181.12 101.61 179.9 111.38 181.12 119.36 182.75 127.61 184.95 133.44 189.67 144.15 190.25 138.05 190.25 132.47 190.25 130.03 191.01 122.88 191.87 114.99 192.25 111.38 185.02 101.61 181.12 101.61"/><polygon class="cls-5" points="197.08 118.48 197.08 131.01 197.08 138.69 196.2 144.15 194.54 154.46 198.8 159.94 203.61 166.71 210.89 174.48 215.94 178.85 223.5 185.62 221.59 178.05 219.02 171.81 217.04 166.22 214.92 159.94 211.83 152.05 209.02 144.15 206.32 138.69 202.75 129.56 197.08 118.48"/><polygon class="cls-5" points="232.15 191.55 241 197.06 251.1 201.91 266.05 205.8 259.46 194.14 249.1 173.26 240.78 156.99 237.92 149.95 234.62 140.24 233.52 137.08 225.69 132.35 219.46 128.58 213.01 123.85 206.32 118.93 219.02 154.32 225.39 173.5 232.15 191.55"/><path class="cls-1" d="M252.33,251.44s7.68-8.92,25.38,1.83,15,22.72,15,22.72c3.62-7.27-2.49-18.65-13.64-25.43S255.94,244.18,252.33,251.44Z"/><path class="cls-1" d="M162.79,221.61s11-2,19.19,18.43-.5,28.11-.5,28.11c6.86-3.36,8.24-16.5,3.07-29.36S169.65,218.25,162.79,221.61Z"/></g></svg>