<svg xmlns="http://www.w3.org/2000/svg" width="400" height="400" viewBox="0 0 400 400"><defs><style>.cls-1{fill:#472823;}.cls-2{fill:#6d4844;}.cls-3{fill:#e5132c;}.cls-4{fill:#fff;}</style></defs><g id="Lag_6" data-name="Lag 6"><polygon class="cls-1" points="85.01 127.08 208.04 339.47 210.36 339.47 325.8 261.36 327.06 258.32 206.03 47.51 203.67 45.38 200.8 46.2 87.53 122.95 86.16 124.74 85.01 127.08"/><polygon class="cls-2" points="93.81 128.95 120.1 174.63 152.23 153.47 124.97 106.79 93.81 128.95"/><polygon class="cls-1" points="99.53 131.98 123.98 174.63 153.08 153.3 129.25 111.49 99.53 131.98"/><polygon class="cls-2" points="130.65 101.39 158.43 148.94 192.38 126.92 163.57 78.32 130.65 101.39"/><polygon class="cls-1" points="138.41 104.11 164.36 146.76 195.24 125.43 169.94 83.62 138.41 104.11"/><polygon class="cls-2" points="170.68 76.4 196.97 122.07 229.1 100.91 201.84 54.23 170.68 76.4"/><polygon class="cls-1" points="176.4 79.42 200.85 122.07 229.95 100.75 206.12 58.93 176.4 79.42"/><polygon class="cls-2" points="123.45 180.67 149.73 226.35 181.86 205.19 154.6 158.5 123.45 180.67"/><polygon class="cls-1" points="129.17 183.69 153.62 226.35 182.71 205.02 158.88 163.2 129.17 183.69"/><polygon class="cls-2" points="162.74 155.28 189.03 200.96 221.16 179.8 193.9 133.11 162.74 155.28"/><polygon class="cls-1" points="168.46 158.3 192.91 200.96 222.01 179.63 198.18 137.82 168.46 158.3"/><polygon class="cls-2" points="200.31 128.95 226.6 174.63 258.73 153.47 231.47 106.79 200.31 128.95"/><polygon class="cls-1" points="206.03 131.98 230.49 174.63 259.58 153.3 235.75 111.49 206.03 131.98"/><polygon class="cls-2" points="164.15 252.75 153.08 235.31 185.92 212.77 191.95 222.59 164.15 252.75"/><polygon class="cls-1" points="159.31 236.26 169.32 250.26 192.87 221.24 187.89 215.53 159.31 236.26"/><polygon class="cls-3" points="159.31 258.2 261.72 144.22 328.89 258.2 328.89 263.13 210.33 343.04 207.03 340.77 159.31 258.2"/><polygon class="cls-4" points="158.29 263.6 268.11 206.61 265.83 149.24 261.67 143.06 158.29 258.95 158.29 263.6"/></g></svg>