<svg xmlns="http://www.w3.org/2000/svg" width="400" height="400" viewBox="0 0 400 400"><defs><style>.cls-1{fill:#bf9358;}.cls-2{fill:#513531;}.cls-3{fill:#fcd8bc;}</style></defs><g id="Lag_9" data-name="Lag 9"><polygon class="cls-1" points="139.17 138.07 123.35 149.27 115.63 158.91 109.45 176.28 105.21 202.92 105.21 228.39 112.54 247.69 123.73 265.83 139.17 282.37 156.93 295.94 172.37 304.82 190.51 304.82 208.26 300.57 221.77 295.94 237.21 290.92 250.72 287.83 264.23 282.37 274.65 266.6 281.99 248.08 285.85 233.8 285.85 216.43 285.85 195.19 283.92 182.27 276.2 168.95 270.41 163.16 267.32 155.77 260.76 147.72 250.72 138.07 244.93 132.28 235.28 125.72 224.09 118.77 215.98 114.53 203.63 112.6 189.35 112.6 178.54 112.6 166.19 116.46 155.77 123.79 147.66 130.35 139.17 138.07"/><ellipse class="cls-2" cx="122.38" cy="200.39" rx="11.71" ry="8.81" transform="translate(-103.16 135.1) rotate(-42.44)"/><ellipse class="cls-2" cx="170.88" cy="212.43" rx="9.49" ry="7.86" transform="translate(-64.79 75.36) rotate(-21)"/><ellipse class="cls-2" cx="207.58" cy="254.46" rx="13.41" ry="8.79" transform="translate(-77.41 91.31) rotate(-21)"/><ellipse class="cls-2" cx="253.38" cy="177.14" rx="6.32" ry="7.66" transform="translate(-26.84 46.54) rotate(-9.97)"/><ellipse class="cls-2" cx="259.06" cy="225.86" rx="8.34" ry="11.82" transform="translate(-63.74 107.86) rotate(-21)"/><ellipse class="cls-2" cx="156.22" cy="267.32" rx="9.49" ry="7.86" transform="translate(-85.43 73.76) rotate(-21)"/><ellipse class="cls-2" cx="249.1" cy="275.41" rx="9.08" ry="5.72" transform="translate(-82.16 107.58) rotate(-21)"/><path class="cls-2" d="M163.76,154.11c1.33,3.47-1,7.58-5.12,9.18s-8.62.08-9.95-3.39,1-7.58,5.12-9.17,8.62-.08,9.95,3.38"/><path class="cls-2" d="M216.89,190.58c1.66,4.33-.12,9-4,10.51s-8.32-.83-10-5.15.11-9,4-10.51,8.32.83,10,5.15"/><path class="cls-2" d="M226.16,146.05c1.66,4.33-.12,9-4,10.51s-8.32-.83-10-5.15.11-9,4-10.51,8.32.83,10,5.15"/><path class="cls-2" d="M192.21,127.6c1.46,3.81-1,8.32-5.58,10.06s-9.43.07-10.89-3.74,1-8.32,5.58-10.07,9.42-.07,10.89,3.75"/><path class="cls-3" d="M213.76,145.45a6.45,6.45,0,0,1,10.84,6,6.21,6.21,0,0,0-10.84-6Z"/><path class="cls-3" d="M204.14,190.25a6.45,6.45,0,0,1,10.84,6,6.21,6.21,0,0,0-10.84-6Z"/><path class="cls-3" d="M250.26,172A6.44,6.44,0,0,1,256,183a6.2,6.2,0,0,0-5.69-11Z"/><path class="cls-3" d="M253.86,228.11a6.44,6.44,0,0,1,8.41-9.1,6.2,6.2,0,0,0-8.41,9.1Z"/><path class="cls-3" d="M166,217a6.44,6.44,0,0,1,10.64-6.34A6.2,6.2,0,0,0,166,217Z"/><path class="cls-3" d="M113.92,204.08s-.87-3.67,6-7.78,9.72-1.6,9.72-1.6c-1.28-2.15-5.85-1.8-10.19.79S112.64,201.93,113.92,204.08Z"/><path class="cls-3" d="M161.09,153.82a6.44,6.44,0,0,1-10.56,6.47,6.2,6.2,0,0,0,10.56-6.47Z"/><path class="cls-3" d="M179.46,136a6.44,6.44,0,0,1,8.58-8.94,6.2,6.2,0,0,0-8.58,8.94Z"/><path class="cls-3" d="M216.33,251.22s.55,3.74-6.68,7.24-9.82.74-9.82.74c1.09,2.26,5.67,2.31,10.23.1S217.42,253.48,216.33,251.22Z"/><path class="cls-3" d="M256.09,274s.07,2-5,4.43-6.58,1.16-6.58,1.16c.55,1.14,3.59.81,6.79-.73S256.64,275.09,256.09,274Z"/><path class="cls-3" d="M152.1,272.94a6.45,6.45,0,0,1,7.21-10.08,6.2,6.2,0,0,0-7.21,10.08Z"/></g></svg>