<svg xmlns="http://www.w3.org/2000/svg" width="385.17" height="587.04" viewBox="0 0 385.17 587.04"><defs><style>.cls-1{fill:#fcd8bc;}.cls-2{fill:#f6bbd5;}.cls-3{fill:#edaa9f;}.cls-4{fill:#f7c0ba;}.cls-5{fill:#edcbc4;}.cls-6{fill:#fff;}.cls-7{fill:#eac4ac;}.cls-10,.cls-8{fill:none;stroke-miterlimit:10;}.cls-8{stroke:#eac2a7;}.cls-9{fill:#b7e0ef;}.cls-10{stroke:#edcbc4;}.cls-11{fill:#eac2a7;}.cls-12{fill:#e5d29c;}.cls-13{fill:#f9f6ca;}</style></defs><g id="Lag_2" data-name="Lag 2"><polygon class="cls-1" points="200.35 66.48 200.13 66.65 199.53 65.69 200.29 66.42 200.35 66.48"/><polygon class="cls-1" points="219.64 142.84 218.72 148.52 219.19 147.68 219 148.89 219.74 154.27 220.01 155.9 220.92 161.36 220.97 161.69 221.96 167 221.96 177.67 220.79 182.84 220.17 185.6 218.76 191.84 214.08 203.48 206.69 214 197.08 227.34 190.34 235.79 188.79 237.3 184.64 241.35 182.06 243.87 177.9 246.81 174.67 247.83 170.24 247.83 164.41 247.75 163.88 247.77 162.65 247.8 160.01 247.06 156.83 246.17 150.86 243.21 146.45 240.95 140.42 237.87 129.19 231.72 121.87 227.72 121.36 227.44 121.31 226.81 121.91 227.14 121.93 226.81 118.39 224.44 115.35 222.66 110.86 219.75 107.78 217.44 105.18 215.49 102.51 213.56 100.79 212.32 98.86 210.26 96.21 207.13 94.89 205.41 93.56 203.2 92.11 199.95 91.65 197.96 90.62 196.17 90.29 197.22 90.13 196.54 89.23 194.06 87.58 189.49 86.31 183.62 86.3 176.57 86.3 175.65 86.27 174.47 86.25 173.98 87.45 175.38 87.15 167.2 87.15 151.19 86 151.68 86 151.34 88.98 149.28 89 149.26 94.61 143.88 94.64 143.84 96.27 141.63 99.31 138.45 104.07 132.3 111.51 121.59 114.16 116.81 113.79 116.95 114.3 116.12 115.67 114.08 118.02 110.58 119.21 108.16 121.21 104.08 123.19 100.05 123.55 99.41 128.44 90.77 136.07 78.84 140.49 72.88 141.32 70.98 141.32 70.97 145.61 65.78 153.73 60.15 160.46 57.92 163.31 56.97 166.46 56.45 166.5 56.44 172.21 55.5 177.9 55.5 182.48 56.6 184.03 56.97 189.67 58.94 190.34 59.17 194.77 61.97 194.79 61.98 200.13 66.65 203.62 73.38 206.69 80.56 213.24 92.93 217.38 102.09 218.99 105.58 220.68 109.27 222.38 115.82 222.58 116.6 223.17 121.59 222.29 126.86 220.68 133.2 220.53 134.93 220.53 134.94 220.12 139.9 219.64 142.84"/><polygon class="cls-1" points="208.53 470.37 213.13 466.75 219.54 460.89 225.12 455.73 230.7 451.27 235.16 449.45 241.86 448.2 241.86 450.01 243.95 450.15 247.02 449.73 249.66 448.76 251.9 447.36 253.85 444.85 253.85 447.78 252.45 451.13 250.22 454.61 247.71 456.98 243.25 459.21 239.49 460.19 232.65 463.26 238.65 463.26 243.81 463.68 248.97 464.1 252.73 465.91 253.85 468.98 254.83 471.9 249.94 472.74 245.34 473.3 242.55 473.3 239.63 473.3 237.25 473.3 232.65 472.74 230.42 472.74 230.48 473.3 232.3 473.71 235.1 473.71 237.4 474.02 240.13 474.02 242.61 474.02 245.61 474.02 248.35 474.02 251.09 473.4 253.41 472.63 254.83 472.44 254.83 473.81 254.42 476.11 254.01 477.95 253.69 479.42 253.46 480.94 253.27 483.37 249.96 484.89 247.39 484.89 243.85 484.89 241.19 484.66 238.98 484.38 236.69 484.06 234.43 483.69 232.37 483.42 229.84 483.32 229.61 484.06 231.31 484.2 234.71 484.7 237.65 485.12 239.86 485.35 242.25 485.57 244.91 485.76 246.98 485.76 249.32 485.76 250.88 485.3 253.41 484.52 253.64 485.76 253.82 487.46 253.82 489.39 253.87 492.24 252.26 492.88 248.63 493.98 245.19 495.22 242.01 495.73 239.07 496 235.81 495.77 233.42 495.32 231.31 494.58 228.41 494.26 228.41 495.22 230.48 495.41 233.42 496.24 235.86 496.74 238.94 496.74 241.46 496.74 243.85 496.42 246.75 495.68 249.18 494.72 252.03 493.71 253.55 493.16 253.55 494.63 253 496.37 251.76 499.27 250.01 501.15 247.41 503.28 242.27 504.44 236.19 505.15 229.76 505.15 221.47 505.15 215.62 506.2 212.59 505.5 207.79 503.04 205.34 501.76 206.16 491.24 206.98 483.41 207.79 474.88 208.53 470.37"/><polygon class="cls-2" points="241.86 448.2 243.51 447.91 245.12 447.35 246.65 446.63 247.89 446.07 249.09 445.44 250.13 444.85 251.26 444.46 252.27 444.24 252.98 444.05 253.54 444.05 253.88 444.39 253.85 444.85 253.18 445.71 252.64 446.41 251.9 447.36 250.81 448.04 249.66 448.76 248.13 449.32 247.02 449.73 245.79 449.9 244.66 450.05 243.95 450.15 242.8 450.15 241.86 450.01 241.86 448.2"/><polygon class="cls-3" points="205.34 501.76 214.31 506.2 214.31 509.73 214.31 512.99 213.71 516.2 213.1 518.1 212.45 520.2 211.9 522.41 211.1 524.61 210.25 526.22 209.25 528.07 208.39 529.58 207.64 530.58 206.59 530.58 206.34 529.63 205.84 526.72 205.34 522.56 205.34 518.85 205.34 514.14 205.34 510.13 205.34 506.2 205.34 501.76"/><polygon class="cls-4" points="210.62 468.71 208.39 470.47 207.24 479.32 206.46 487.08 205.86 493.39 205.35 499.85 205.2 506.3 205.2 514.24 205.2 518.95 205.69 526.82 206.45 530.68 199.22 531.56 187.92 530.68 177.8 529.07 160.48 525.98 131.42 519.82 113.66 515.12 72.78 501.86 47.29 493.17 73.03 475.62 72.92 474.72 91.3 450.15 112.2 453.46 147.33 459.64 152.61 461.05 158.14 462.21 167.02 464.01 184.81 466.18 191.33 467.1 202.95 468.01 210.62 468.71"/><polygon class="cls-4" points="47.44 493.07 43.65 486.9 39.59 476.3 66.15 462.04 73.61 457.2 78.84 454.45 83.16 452.23 87.74 450.79 90.22 450.05 90.7 449.81 90.7 450.48 89.5 452 84.15 459.8 80.15 464 78.02 467.16 76.14 469.75 73.11 473.68 73.07 474.62 74.01 476.07 47.44 493.07"/><polygon class="cls-4" points="39.59 476.3 36.47 466.73 33.17 454.1 31.8 448.61 65.15 448.61 67.06 448.12 70.63 448.12 75.33 448.12 79.43 448.5 82.47 448.73 84.75 448.8 89 449.81 87.74 450.79 86.34 450.96 84.64 451.42 82.37 452.24 81.37 452.73 80.23 453.39 79.27 453.8 78.45 454.22 77.23 454.82 75.66 455.7 74.14 456.51 72.59 457.37 71.2 458.18 68.98 459.72 67.4 460.74 66.12 461.64 65.15 462.21 65.37 462.8 39.59 476.3"/><polygon class="cls-4" points="59.87 447.35 60.09 449.06 32.01 449.47 31.14 444.98 30.59 441.43 29.33 434.42 28.23 425.35 38.24 425.35 52.74 427.72 65.15 431.97 73.55 436.7 79.39 439.86 84.83 443.72 90.7 448.92 91.19 449.19 89.87 449.3 88.33 449.08 86.83 448.71 85.51 448.42 84.31 448.12 82.84 448.12 80.72 448.12 78.08 447.87 76.25 447.73 73.8 447.58 71.6 447.54 68.71 447.43 66.3 447.51 64.69 447.76 62.75 448.12 61.69 447.91 60.4 447.8 59.38 448.12 59.87 447.35"/><polygon class="cls-4" points="72.51 436.63 73.26 435.67 75.92 437.41 78.51 438.6 82.26 440.99 84.44 442.62 86.82 444.26 90.91 447.73 89.68 437.41 89.68 426.81 90.02 421.5 91.19 416.73 92.72 374.63 92.72 357.51 92.72 351.42 91.19 342.78 89.99 331.74 87.59 323.57 85.35 317.81 82.61 312.85 79.91 308.05 77.03 303.72 73.99 299.56 71.59 296.36 69.67 294.28 68.06 294.28 60.38 297.48 50.78 303.08 44.38 308.37 39.89 313.97 37.33 319.41 35.09 325.49 33.01 330.94 31.41 337.98 30.13 345.02 28.69 351.9 27.41 364.23 26.68 373.11 26.68 379.47 26.32 389.16 26.32 394.07 26.32 398.04 26.85 405.84 27.06 410.83 27.58 416.75 28.23 425.35 30.59 441.43 33.17 454.1 35.77 464.07 39.59 476.3 43.65 486.9 47.44 493.07 65.15 438.94 72.51 436.63"/><polygon class="cls-4" points="99.93 451.39 98.89 434.1 97.11 417.63 96.57 402.79 95.62 393.68 94.94 386.31 93.44 375.83 93.15 373.82 93.15 371.18 93.15 365.96 93.15 362.13 93.15 358.56 93.15 354.32 93.15 350.58 92.35 347 91.67 343.56 91.25 340.35 90.97 336.38 90.54 333.5 89.74 328.92 88.98 326.32 88.13 323.73 87.56 322.17 86.67 319.81 85.77 317.73 85.02 316.36 84.31 315.04 83.03 312.58 82.09 310.93 81.09 309.18 80.34 308.1 79.63 307.06 78.59 305.59 77.46 303.89 76.61 302.62 75.62 301.25 74.77 300.11 73.99 299.56 73.35 298.08 72.59 297.14 71.59 296.36 70.71 294.82 69.67 294.28 69.67 293.79 71.56 292.84 73.78 291.76 76.47 289.7 78.06 288.04 80.71 285.39 80.91 289.97 81.24 291.69 81.77 294.28 82.23 297.13 83.16 299.84 84.22 302.56 85.41 305.01 86.97 308.1 88.77 311.19 90.56 314.38 92.72 317.77 95.35 321.26 97.94 324.15 100.53 326.84 103.72 329.13 107.2 331.02 110.69 332.82 115.18 334.91 119.36 337.1 126.31 340.47 132.44 343.84 137.8 345.99 142.7 347.21 147.75 348.13 152.2 348.74 156.95 349.05 161.24 349.05 165.06 348.9 167.36 348.9 185.24 464.79 185.24 465.44 185.24 465.82 183.42 465.57 176.97 464.77 173.37 464.42 170.11 463.91 166.98 463.4 160.47 462.25 152.75 460.95 146.83 460 141.92 459.15 137.65 458.58 112.34 453.36 99.93 451.39"/><polygon class="cls-4" points="235.16 449.45 233.11 450.29 230.7 451.27 229.17 452.49 226.91 454.3 225.12 455.73 221.77 458.83 219.54 460.89 217.32 462.92 215.81 464.3 214.09 465.87 212.56 467.19 210.62 468.71 208.98 468.44 208.2 468.39 207.37 468.31 202.75 467.87 202.23 467.82 202.19 467.56 181.97 340.4 181.94 340.19 181.9 339.97 183.79 336.4 188.4 327.67 190.77 331.27 193.05 335.22 194.98 339.53 195.6 343.13 195.6 355.07 195.21 357.73 195.16 358.08 194.98 359.28 194.19 363.67 193.84 367.97 193.5 369.97 193.5 369.98 193.23 371.57 193.23 375.09 193.58 378.07 194.9 381.76 196.04 385.62 197.27 389.66 198.41 392.21 200.52 394.49 203.06 396.86 205.43 399.32 207.72 400.46 210.09 402.22 212.63 404.24 215 406.52 217.64 409.51 219.48 411.7 220.8 415.39 222.47 419.16 222.47 426.1 221.85 429.96 221.68 433.04 221.76 436.29 222.47 439.09 224.22 441.55 225.98 443.57 228.79 445.33 231.69 447.1 235.16 449.45"/><polygon class="cls-5" points="167.81 348.7 171.25 348.15 174.6 347.53 177.27 346.57 178.23 345.68 179.39 344.31 181.18 341.74 182.34 339.77 202.68 467.62 197.19 466.96 195.24 466.91 193.19 466.75 191.15 466.43 189.19 466.54 187.78 465.96 186.16 465.63 167.81 348.7"/><circle class="cls-6" cx="179.15" cy="362.3" r="3.67"/><circle class="cls-6" cx="182.82" cy="381.44" r="3.67"/><circle class="cls-6" cx="185.24" cy="403.69" r="3.67"/><circle class="cls-6" cx="188.3" cy="425.18" r="3.67"/><circle class="cls-6" cx="191.97" cy="451.92" r="3.67"/><polygon class="cls-1" points="161.66 257.86 161.57 260.73 161.86 264.2 161.96 267.46 163.05 272.12 163.05 275.48 163.25 280.04 163.15 284.5 162.56 287.69 161.27 291.23 159.88 294.89 158.59 297.37 157.8 300.14 156.91 302.12 156.71 304 156.61 305.69 154.14 304.2 151.56 302.32 149.39 301.33 147.25 299.69 143.06 310.93 142.64 312.04 142.17 313.3 139.61 310.59 136.99 307.83 127.45 297.76 119.98 289.86 107.78 276.98 101.22 270.05 107.14 266.84 107.15 266.84 108.45 266.13 111.93 264.67 116.73 262.67 120.27 260.9 122.49 256.91 123.37 252.63 123.37 247.91 123.21 246.85 123.21 246.81 122.49 242.01 122.04 236.16 121.98 235.42 121.65 231.25 121.65 231.22 121.36 227.44 121.31 226.81 156.58 245.55 164.07 247.12 163.88 247.77 162.75 251.62 162.16 254.69 161.66 257.86"/><path class="cls-1" d="M171.1,276.65l-.9,5.25-.38,4.32-.13,1.47-.19,4.78v2.6l-.54,3v.08l-1.14,6.35-3.73,9.34-7.94,4.6L142.64,312l-3-1.45.34-1.25,4.29-15.93,9.21-2.08,8.41-27.13,1,1.93,1.92.67,2.43,1.28,1.66,1-1.79,1.79.13,1.92.54,1.66,1.12,1.66,1,1.15.19-.11Z"/><polygon class="cls-5" points="188.4 327.67 183.79 336.4 181.94 340.19 181.18 341.74 178.88 344.81 178.23 345.68 177.27 346.57 175.84 347.09 174.6 347.53 171.24 348.15 167.8 348.7 163.03 348.98 162.85 348.99 155.94 348.99 155.79 348.97 147.75 348.13 135.98 345.26 135.94 345.25 135.77 345.18 131.36 343.25 131.3 343.22 126.31 340.47 119.36 337.1 112.43 333.63 112.41 333.62 106.16 330.45 106.15 330.45 100.53 326.84 96.79 322.87 93.68 319.05 90.56 314.38 87.91 309.71 87.8 309.52 85.41 305.01 83.16 299.84 82.23 297.13 81.42 292.65 81.24 291.69 80.91 289.97 80.71 285.39 87.65 278.27 95.54 273.47 101.22 270.05 107.78 276.98 119.98 289.86 127.45 297.76 136.99 307.83 139.95 309.34 143.06 310.93 147.71 313.3 156.13 318.47 162.38 319.78 164.07 316.62 166.53 311.88 167.8 307.73 170.02 301.17 171.1 305.42 172.48 308.22 174.84 312.14 176.52 314.16 179.2 317.29 182.34 319.78 183.88 321.62 185.24 323.23 188.4 327.67"/><polygon class="cls-1" points="170.02 301.17 166.53 311.88 162.38 319.78 156.13 318.47 168.94 298.18 168.95 298.16 170.02 301.17"/><circle class="cls-6" cx="167.8" cy="323.45" r="3.67"/><circle class="cls-6" cx="175.48" cy="343.44" r="3.67"/><polygon class="cls-1" points="90.62 196.17 90.29 197.22 89.55 199.57 88.48 202.19 87.81 203.06 85.65 205.24 85.08 205.69 84.02 205.86 84.01 205.86 82.41 206.12 81.49 206.27 79.74 206.27 78.47 205.86 77.6 205.59 76.75 205.13 74.88 204.13 72.28 202.36 72.16 202.23 70.59 200.65 68.37 198.4 64.68 192.38 63.03 188.59 60.6 183.06 58.95 173.15 58.95 167.03 60.12 163.24 61.38 161.2 63.52 158.87 66.92 157.9 71.68 158.58 74.05 159.98 75.95 161.1 77.21 162.25 80.32 165.09 84.11 171.01 85.17 172.72 85.19 172.74 86.27 174.47 86.83 175.38 86.92 180.24 87.31 183.64 88.87 191.02 90.62 196.17"/><path class="cls-2" d="M89.5,227.15l-.93,11.49-.93,3.08-1.2,2.43-.18.35-1.09,1.09-.76.76-1.47.85h-1.7l-1.77-.62-1.77-1.23-2-1.93L73.46,240l-2.32-5.4-1.62-4.78L69,227.38l-.49-2.31-.15-1.44-.47-4.35,0-.33-.3-4-.06-.81.1-.82.43-3.69v0l.12-.78.57-3.7,1.84-4.44v0l1.62,1.47-.06.14-1.56,3.48-.33,3-.13,1.17v8.95l.39,3,.26,1.41,0,.13.37,2,1,3.4.7,3.47L74.11,235l.73,1.7,1.24,2.54,1.62,2.24,1.62,1.31.81.36.05,0,1.22.54,1.85-.54.9-1.51.49-.81.34-.82,0-.06,1.32-3.2.47-5.48v-5.47l-.34-3.35-.2-2.05L86,218.92l-.54-3.57-1.24-4.17-1.08-3.54-.76-1.52-1.09-2.18-1.46-1.78.82-1,0,0,0,0h0c.23.25,1.59,1.68,1.74,1.89s.87,1.56,1.53,2.77h0l0,0c.5.89.91,1.65.91,1.65l1.15,2.93,1.54,5.24.85,3.09.34,2.63.26,2Z"/><polygon class="cls-7" points="86.44 176.78 84.25 173.33 81.2 168.65 77.69 165.5 74.24 163.5 70.41 162.97 67.67 163.73 65.95 165.57 64.94 167.19 64 170.18 64 175.02 64 178.55 65.33 182.85 67.28 187.23 68.61 190.22 71.58 194.98 74.73 198.11 76.82 199.51 79.01 200.66 80.73 201.2 82.14 201.2 85.04 200.74 86.44 199.66 87.78 197.98 88.64 195.9 89.5 193.22 88.09 189.15 86.84 183.31 86.52 180.62 86.44 176.78"/><polyline class="cls-8" points="167.67 155.34 168.31 158.67 168.82 161.11 168.82 163.41 168.82 165.21 167.67 167.65"/><polyline class="cls-8" points="162.28 177.39 160.62 180.21 159.72 182.9 159.72 185.98 159.72 188.54 160.49 190.47 161.51 192 163.05 192.9 165.1 193.41 166.26 193.41"/><polyline class="cls-8" points="175.23 194.18 176.9 194.82 178.31 194.82 179.59 194.18"/><polyline class="cls-8" points="184.85 191.49 186.64 190.98 187.92 190.08 189.08 188.93 189.72 187.64 189.72 185.98 189.72 184.06 188.56 182.26 187.28 180.59 186.26 179.57"/><polygon class="cls-6" points="100.7 146.97 106.06 154.89 112.01 161.04 118.36 164.23 125.3 166.22 132.44 167.19 138.99 167.19 143.75 164.43 148.91 159.87 150.29 157.45 148.11 151.74 146.13 146.97 144.15 142.21 140.77 138.05 137 133.88 132.44 131.3 126.89 129.32 121.53 129.32 116.97 129.32 112.01 132.69 108.24 135.67 104.67 140.03 100.7 146.97"/><polygon points="150.29 154.16 150.29 157.45 148.11 151.74 146.66 148.26 144.14 142.21 140.77 138.05 134.58 134.32 129.38 132.48 123.41 131.5 118.65 131.61 112.9 133.78 108.02 136.92 104.67 140.03 100.7 146.98 97.33 146.98 94.16 144.4 94.61 143.88 94.64 143.84 99.31 138.45 104.07 132.3 108.83 129.32 111.26 128.05 113 127.14 113.79 126.95 116.93 126.19 118.75 125.75 124.31 125.75 127.02 126.55 129.66 127.34 133.63 129.32 137.2 131.5 140.38 133.68 144.54 138.45 146.92 142.81 148.71 146.98 149.64 150.9 150.29 154.16"/><ellipse class="cls-9" cx="125.3" cy="148.26" rx="17.41" ry="15.05"/><polygon class="cls-6" points="219.64 142.84 218.72 148.52 216.43 152.59 211.72 158.47 206.68 161.52 201.18 163.41 195.52 164.35 190.33 164.35 186.55 161.71 182.47 157.35 181.36 155.04 183.09 149.58 184.24 146.26 186.24 140.49 188.91 136.51 191.9 132.53 194.04 131.07 195.52 130.06 196.3 129.72 196.33 129.7 199.92 128.17 207.78 128.17 207.83 128.21 210.87 130.7 211.02 130.82 211.72 131.39 214.7 134.23 217.53 138.4 219.64 142.84"/><polygon points="220.53 134.93 220.53 134.94 220.12 139.9 219.64 142.84 217.53 138.4 214.87 135.43 211.01 132.43 206.45 130.36 202.67 130.25 197.95 131.19 193.82 132.95 188.91 136.51 186.24 140.49 184.24 146.26 183.09 149.58 181.36 155.04 181.36 151.89 181.88 148.79 182.62 145.03 184.04 141.05 185.93 136.88 189.23 132.34 191.74 130.25 194.57 128.17 196.64 126.92 197.72 126.27 201.97 124.76 206.37 124.76 209.03 125.53 210.93 126.08 211.03 126.14 214.23 128.17 214.45 128.33 215.95 129.47 218.01 131.01 220.53 134.93"/><ellipse class="cls-9" cx="201.52" cy="146.26" rx="13.8" ry="14.38"/><polygon points="111.44 128.17 110.11 127.32 110.11 124.39 111.44 126.7 113 127.14 113.79 126.95 112.78 128.17 111.09 129.32 111.44 128.17"/><polygon points="117.13 126.85 116.51 124.76 115.89 123.41 115.89 120.66 117.13 123.14 118.02 123.75 118.91 124.76 119.89 125.75 117.13 126.85"/><polygon points="124.31 125.75 123.97 123.75 124.14 122.34 125.5 120.66 125.5 122.61 126.19 124.39 127.02 126.55 124.31 125.75"/><polygon points="133.63 129.32 133.63 127.23 133.63 125.1 134.81 122.17 135.35 125.74 136.33 128.17 137.2 131.5 133.63 129.32"/><polygon points="196.64 129.43 196.64 127.14 196.64 124.8 195.74 121.59 195.32 125.51 194.57 128.17 193.9 131.82 196.64 129.43"/><polygon points="203.44 127.39 204.08 125.19 204.74 122.95 204.78 119.61 203.28 123.26 201.81 125.59 200.13 128.91 203.44 127.39"/><polygon points="210.04 127.8 211.21 125.83 212.4 123.81 213.25 120.58 210.9 123.75 208.91 125.66 206.47 128.47 210.04 127.8"/><polygon points="214.35 131.06 215.97 129.45 217.63 127.8 219.27 124.89 216.2 127.36 213.79 128.7 210.72 130.8 214.35 131.06"/><circle cx="123.97" cy="148.26" r="6.87"/><circle class="cls-6" cx="122.23" cy="146.26" r="1.54"/><circle class="cls-6" cx="126.61" cy="147.09" r="1.11"/><circle cx="204.92" cy="147.09" r="6.87"/><circle class="cls-6" cx="201.52" cy="146.26" r="1.11"/><circle class="cls-6" cx="205.15" cy="144.02" r="1.54"/><polyline class="cls-10" points="166.26 228.81 169.95 229.89 172.64 229.89 175.23 229.89 178.38 228.81"/><polygon class="cls-2" points="145.01 206.27 153.08 213.92 159.72 218.77 164.07 220.56 169.95 221.82 174.43 220.92 179.59 219.49 182.33 216.79 184.85 214.04 187.28 211.23 188.4 208.36 181.37 210.87 174.25 211.41 167.67 211.59 158.11 210.69 148.78 207.65 145.01 206.27"/><path class="cls-2" d="M145.68,205.72l5.23-2,4.71-1.35,5.67-1.17,7.17-1,5.35-.33s2.91.07,3.1,0,3.81,0,3.81,0l2.39.26,1.74.07,3.16.32,2.52.13,4.51.71-1,2L190.53,207l-2.75,1.42-1.15.43-1.72.55-2.82,1.06-1.09.36-2,.09-2.14.16-2.69.22-3.66.12-2.86.08-2-.2-5.44-.49-2.11-.25-1.42-.38-1.33-.44-2.75-1-1.76-.55s-5.24-2-5.22-1.9-.53-.08-.53-.08Z"/><polygon class="cls-11" points="145.68 205.72 143.62 205.1 142.14 204.46 139.92 203.53 138.62 202.97 138.16 201.86 137.51 200.94 136.59 200.57 136.59 201.68 137.5 202.5 137.61 203.5 137.16 204.39 136.59 205.16 136.59 205.72 137.33 205.72 137.88 205.16 138.22 204.33 138.5 203.56 139.77 204.06 141.13 204.72 143.1 205.66 145.16 206.19 145.68 205.72"/><polygon class="cls-11" points="194.43 201.3 195.04 200.93 195.6 199.88 196.07 199.17 196.62 198.44 197.36 198.73 196.4 200.09 196.29 201.11 196.51 201.88 196.73 202.65 197.36 203.02 197.14 203.46 196.26 203.2 195.71 202.5 195.6 201.66 195.04 202.06 194.64 202.19 194.43 201.3"/><polygon class="cls-12" points="163.84 113.66 163.84 115.28 162.99 118.11 159.72 119.61 154.53 115.79 150.29 113.95 145.23 112.3 140.38 110.94 130.84 110.94 125.5 112.49 119.88 114.63 114.16 116.81 113.79 116.95 114.3 116.12 116.67 112.28 119.21 108.16 119.88 107.07 125.5 105.13 133.63 103.38 140.58 103.38 148.72 105.13 155.31 107.84 159.72 110.94 163.84 113.66"/><polygon class="cls-12" points="222.38 115.82 220.68 115.21 218.5 111.5 211.79 110.75 207.84 111.5 203.62 112.3 198.92 114.82 191.75 121.59 191.75 113.66 193.9 111.5 200.41 108.04 206.69 106.1 211.79 105.13 216.56 105.13 218.99 105.58 220.68 109.27 222.38 115.82"/><path class="cls-2" d="M188.4,267.34l-3.16,2.71-2.76.85-3.46.56-3.71,1.9,0,0a20.25,20.25,0,0,0-3.35,2.37,8.77,8.77,0,0,1-1.8,1.43l-.19.11-1-1.15-1.12-1.66-.54-1.66-.13-1.92,1.79-1.79,3.17-3,2.14-1.9,2.81-1.48,2.8-1.32,3-.49h3.13l1,1.32.41,1.48.66,2.19Z"/><polygon class="cls-13" points="184.64 241.35 182.06 243.87 177.9 246.81 174.67 247.83 170.24 247.83 164.41 247.75 163.88 247.77 164.07 247.12 170.45 247.2 174.84 247.2 178.03 246.18 182.15 243.26 184.64 241.35"/><polygon class="cls-13" points="220.17 185.6 218.76 191.84 214.08 203.48 206.69 214 197.08 227.34 190.34 235.79 188.79 237.3 190.34 235.22 193.9 230.72 197 226.81 201.02 221.2 203.62 217.57 206.5 213.54 210.72 207.49 213.81 203.07 217.11 194.82 218.44 191.49 220.17 185.6"/><polygon class="cls-13" points="221.96 167 221.96 167.83 221.6 166.77 220.92 161.36 220.97 161.69 221.96 167"/><polygon class="cls-13" points="221.96 172.26 221.96 177.67 220.79 182.84 221.96 172.26"/><polygon class="cls-13" points="220.01 155.9 218.68 148.75 218.72 148.52 219.19 147.68 219 148.89 219.74 154.27 220.01 155.9"/><polygon class="cls-13" points="72.22 202.08 70.6 205.71 70.27 208.7 70.14 209.87 70.14 215.19 70.14 218.82 70.81 223.37 71.18 225.37 72.22 228.77 72.92 232.24 74.11 235 74.84 236.71 76.08 239.25 77.7 241.49 80.18 243.19 81.4 243.73 83.25 243.19 84.15 241.68 85.01 239.99 86.33 236.79 86.8 231.31 86.8 226.81 86.46 222.49 86.03 218.92 85.49 215.35 84.25 211.18 83.17 207.64 82.41 206.12 79.74 206.27 78.47 205.86 76.75 205.13 74.88 204.13 72.22 202.08"/><polygon class="cls-13" points="63.52 158.87 60.12 163.24 61.38 161.2 63.52 158.87"/><path class="cls-13" d="M244.37,201.2l-13,25.61-27.73,17.9-17.68,16.2-6.1.49-5.61,2.8-5.31,4.91-4.09-2.31-3-2.6-.2-6.34,2.22-10.09.53,0,10.26.08,7.39-4,8.28-8.08,23.74-32.31,6.09-17.88L222,172.26l-1-10.9-2.2-12.84,2-15.32,2.49-11.61-2.49-12.32-14-28.71-6.56-13.91.22-.17-.06-.06-.76-.73.6,1L194.79,62h0l-4.43-2.8-.67-.23L184,57l-1.55-.37-4.58-1.1h-5.69l-5.71.94h0l-3.15.52-2.85,1-6.73,2.23-8.12,5.63L141.32,71h0l-.83,1.9-4.42,6-7.63,11.93-3.14,4.9-1.75,3.74-.36.64-2,4-4.54,8.2-2.37,3.84-.51.83.37-.14-2.65,4.78-7.44,10.71-4.76,6.15-3,3.18L89,149.26l0,0-3,2.06v.34l1.15-.49v16l.3,8.18-1.2-1.4-1.06-1.24,0,0L84.11,171l-3.79-5.92-3.11-2.84L76,161.1,74.05,160l-2.37-1.4-4.76-.68-3.4,1L59,167l1.65,16,4.08,9.32,3.69,6,2.22,2.25-1.84,4.44-.57,3.7-.12.78v0l-.53,1.85-.08.28.08,1.17v1.21l.06.81.3,4,0,.33.47,4.35.15,1.44.49,2.31.26,1.51h0l.26.88,1.62,4.78,2.32,5.4,2.23,3.47,2,1.93,1.77,1.23,1.77.62h1.7l1.47-.85.76-.76,1.09-1.09.18-.35.36-.42.84-2,.93-3.08.93-11.49,0-.6L89.09,221l-.6-2.17-.85-3.09-1.54-5.24L85,207.56s-.41-.76-.91-1.65l0,0,1.06-.17.57-.45,2.83-3.05,2.14-6,4.27,9.24,5.9,6.91,17.6,12.12,2.92,2.37.34,4.41v0l1.56,15.6.16,5.78-.88,4.28-2.22,4-13.12,5.94h0L72,257.2,43.44,227.75,25.76,187.39l-6.92-42.67L29.37,83.1,53.9,47l61-21.63,69.91-2.89,18.77,7.14,8.27,11.59.9,6.59-2.93,8,9.41,10.82,14.35,29.77,11.88,51.84Z"/><polygon class="cls-13" points="67.52 211.46 67.52 212.91 67.44 211.74 67.52 211.46"/><polygon class="cls-13" points="71.68 158.58 63.52 158.87 66.92 157.9 71.68 158.58"/><polygon class="cls-13" points="77.7 245.35 75.69 243.42 73.46 239.95 77.7 245.35"/><polygon class="cls-13" points="82.94 247.2 81.24 247.2 79.47 246.58 82.94 247.2"/><path class="cls-13" d="M86.1,210.49,84,205.91c.5.89.91,1.65.91,1.65Z"/><polygon class="cls-13" points="88.98 149.28 87.15 151.19 86 151.68 86 151.34 88.98 149.28"/><polygon class="cls-13" points="116.67 112.28 115.67 114.08 114.16 116.81 113.79 116.95 114.3 116.12 116.67 112.28"/><polygon class="cls-13" points="123.55 99.41 122.22 102.26 121.21 104.08 123.19 100.05 123.55 99.41"/><polygon class="cls-13" points="194.77 61.97 190.34 59.48 189.67 58.94 190.34 59.17 194.77 61.97"/><polygon class="cls-13" points="200.35 66.48 200.13 66.65 199.53 65.69 200.29 66.42 200.35 66.48"/><polygon class="cls-13" points="68.05 209.61 67.52 212.91 67.44 211.74 67.52 211.46 68.05 209.61"/><polygon class="cls-13" points="70.6 200.62 70.59 200.65 68.37 198.4 70.6 200.62"/><polygon class="cls-13" points="85.17 245.59 84.41 246.35 82.94 247.2 85.17 245.59"/><polygon class="cls-13" points="86.44 244.15 86.26 244.5 85.17 245.59 86.44 244.15"/><polygon class="cls-13" points="68.05 209.61 67.62 213.2 67.62 213.3 67.58 214.93 67.52 214.12 67.52 212.91 67.44 211.74 67.52 211.46 68.05 209.61"/><polygon class="cls-13" points="68.37 223.63 67.9 219.28 67.88 218.95 68.37 223.63"/><polygon class="cls-13" points="69.01 227.38 68.52 225.07 68.37 223.63 69.01 227.38"/><polygon class="cls-13" points="89.46 226.55 89.09 223.49 88.83 221.45 88.49 218.82 89.09 220.99 89.46 226.55"/><polygon class="cls-13" points="77.21 162.25 74.05 159.98 75.95 161.1 77.21 162.25"/><polygon class="cls-13" points="87.15 151.19 86 151.68 86 151.37 87.15 151.19"/><polygon class="cls-13" points="166.46 56.45 160.46 57.92 163.31 56.97 166.46 56.45"/><polygon class="cls-13" points="194.77 61.97 188.39 58.56 182.48 56.6 184.03 56.97 189.67 58.94 190.34 59.17 194.77 61.97"/><polygon class="cls-13" points="200.29 66.42 200.13 66.65 199.53 65.69 200.29 66.42"/><polygon class="cls-13" points="272.54 556.72 272.53 556.71 272.53 556.67 272.54 556.72"/><polygon class="cls-13" points="168.96 298.1 169.5 292.47 169.5 295.07 168.96 298.1"/><polygon class="cls-13" points="182.34 319.78 183.88 321.62 179.2 317.29 182.34 319.78"/><polygon class="cls-13" points="185.24 323.23 188.4 327.67 183.88 321.62 185.24 323.23"/><polygon class="cls-13" points="193.5 369.97 194.19 363.67 193.84 367.97 193.5 369.97"/><polygon class="cls-13" points="194.19 363.67 195.16 358.08 194.98 359.28 194.19 363.67"/><polygon class="cls-13" points="195.21 357.73 195.6 353.1 195.6 355.07 195.21 357.73"/><polygon class="cls-13" points="210.09 402.22 212.63 404.24 207.72 400.46 210.09 402.22"/><polygon class="cls-13" points="235.16 449.45 228.79 445.33 231.69 447.1 235.16 449.45"/><path class="cls-13" d="M374.88,453.4V465l-2.9,3.71L368.83,473l-4.11,2.55-3.62,2.05H356l-3.39-2.05-3.61-3-1.95-4.88-2.66-9.39-.73-4.83-2.9-6.3-2.17-3.05-5.32-3.23-4.36-1.93-5.07-1L320,437l-2.42-2.42-4.6-4.11-2.9-3.79.24,3.31,3.15,6.53,2.17,3.63,5.57,1.69,5.07,3.06,4.12,3.47,5.8,3.6,6,7.76,1.94,5.81.48,5.32v7.25l-2.42,5.55-3,6.28-4.8,6.29-4,3.31L328,506.93l1.65,4.3,3,2.49,5.46,1,5.29,1.82,4.47,6.45,1.16,5.13v7.94l-.83,4.8-3.14,6.45-4.47,5-4.8,4.47-3,1.82h-5.3l-2.81-1.16-1.66-.66-1.82-2.15-1.32-2-.33-3.31.83-3,1.32-2.15,1.49,2.31,1.49.17,2,.16,2.49-2,2.15-1.82,1.49-3v-2.15l-2.16-1.82-2.31-1.16-2.81-.83-3.15-.66-2.48-.49-2.15-2.33-1.82-1.64-1.65,3.8-1.82,1.82-3.15,3.64-3,2.15-5.44,3.42-9.09,3.1-3.1-.41-7.23-.21-5.64,1-4,5.05.24,1.42.48,2.91v0h0l1.44,1.61,1.86,1.59s3.07.44,3.8.44,3.91-2,3.91-2l2.09-2.9,2-2.46.87-1.89-.58-2.46h2.75l2,2,1.6,3.19,1.16,4.34V563l-.87,5.22-1.31,3.33-2.46,2.17-5.51,2.91h-9.45l-6.42-2.43-8.16-4-4.52-3.47-3.3-4.34-1.91-2.78-2.43-3.48L247,550.73,246.5,546l-.35-4.69-.17-4,.34-3.3,1.39-3.48,4.69-6.07,4-4.34,2.09-4v-5.55l-1.22-2.6-1.21-1.82s-2.09-3.05-3.3-3.39a9.51,9.51,0,0,1-2.74-1.66l1.74-1.88,1.25-2.9.55-3.21.32-.92-.05-2.85v-1.93l-.18-1.7-.37-2.39.18-2.43.23-1.52L254,478l.41-1.84.41-2.3v-1.9l-2.1-6L249,464.1l-3.59-.29-4-.33-3.75-.22h-4.95l6.84-3.07,3.76-1,4.46-2.24,2.51-2.37,2.64-4.46,1-2.37v-2.93l-.31-.8-1.27.19-4.38,1.83-2.77,1.28-3.26.85-3.25.61-3.45.64-3.47-2.35-2.9-1.77L226,443.57l-1.76-2-1.75-2.46-.71-2.8.09-6.33.62-3.86v-6.94l-1.67-3.77-1.32-3.69-1.84-2.19-2.64-3-2.37-2.28-2.54-2-2.37-1.76-2.29-1.14-2.37-2.46-2.54-2.37-2.11-2.28-1.14-2.55-1.23-4-1.14-3.86-1.32-3.69-.35-3,.27-5.11h0l.34-2,.35-4.3.79-4.39.18-1.2,0-.25v-.1l.39-2.66V343.13l-.62-3.6-1.93-4.31-2.28-4-2.37-3.6-3.16-4.44-1.36-1.61-1.54-1.84-3.14-2.49-2.68-3.13-1.68-2-2.36-3.92-1.38-2.8L170,301.17l-1.07-3v-.06l.54-3v-2.6l.32-6.25.38-4.32.9-5.25,4.18-3.27,0,0,3.71-1.9,3.46-.56,2.76-.85,3.16-2.71,11.52-.5h12.87l7.57,2.26h14.8l9.33,2.76,6,2.68,4.31,5,5.75,8.11,2,6.64.67,10.72,3.35,6.71,5.3,4.35L282,319.78l7.71,1.36,8.37.33,10.39,3.69,6,2.51,7.37,4.53,3.35,5L329.62,349l-.67,6.33.67,9.72-1.68,12.07-6.37,14.41.34,6.67,3,7.74,7.37,5.7,5,4,5.36,1,11.39,5.55,3.39,3,2.9,6.45.73,6.77-1.46,11.75.73,4.21,3.14-2.44h7.74Z"/><polygon class="cls-13" points="272.53 553.98 272.53 556.67 272.05 553.76 272.53 553.98"/></g><g id="Lag_3" data-name="Lag 3"><ellipse class="cls-11" cx="183.71" cy="189.26" rx="3.32" ry="0.72" transform="translate(-78.61 161.75) rotate(-39.87)"/><ellipse class="cls-11" cx="168.14" cy="189.38" rx="0.87" ry="4.1" transform="translate(-60.09 299.14) rotate(-74.08)"/></g></svg>