<svg xmlns="http://www.w3.org/2000/svg" width="210mm" height="242.5mm" viewBox="0 0 595.28 687.41"><defs><style>.cls-1{fill:#fcd8bc;}.cls-2{fill:#f6bbd5;}.cls-3{fill:#fff;}.cls-4{fill:#d2e8f3;}.cls-5{fill:#edcbc4;}.cls-6{fill:#dbeff6;}.cls-7{fill:#e6dbee;}.cls-8{fill:none;stroke:#efcbb4;stroke-miterlimit:10;}</style></defs><g id="Lag_2" data-name="Lag 2"><path class="cls-1" d="M340,159.41v16l-.71,8.22-.11,1.42-1,11.89-.25,3.67-.46,6.63-.72,8.32-.34,3.93v2.84l-.16.26L334.81,225l-2.67,1.28L289.69,241l-15.82,5.41-13,3.84-3.74.53-3.22-.32-3.09-.53-3.73-2.56-5.24-5.22-4-5.44-4.27-6.08-4.27-7.32h0l-1-1.62-2.13-3.84-2.14-4.12-2.63-5.17-1.66-3.81-2.07-5.5-1.06-4.41V176.45l.78-5.72.67-4.64.65-5.6V158h0l0-3.86,0-4.77V145l-.66-3.42,2,1.26h5.27L223,138.05l-2.88-6.4V121l3.15,5.19,6.25,5.72,1.42.6.46-1v1.16l4.39,1.86.62.25.45-.85.12,1.08L241,136.7l.92.23.28-.49,0,.55,4.74,1.16,6.19-.1-1.38-6.14-.8-5.72V118.6L253.13,108l1.81,9.32,1.9,8.12,3.48,6,3.41,4.26,3.72,4,4.8,1.61-3.47-5.86-3.19-8-1.6-8,.27-5.59.8-7.19,2.13-7.19,2.39-6.12,4-6.13L277.86,82l.27,0-3.22,10-1.33,6.92-.8,8v5.25l.53,8.06,2.13,6,2.87,5.46,3.79,5,6.15,4.26-5.09-7.72L280.43,125l-2.12-6.12V105.55l2.12,10.92,5.93,9.72,4.68,5.19,6.6,5.06,4.44,1.9a27.15,27.15,0,0,1,5.67-.23,11.13,11.13,0,0,1,10,7h5.88l2.39-1.21,6.13,1.21-2.66-3.87-6.13-7.45-3.66-6.39L338,142.83Z"/><polygon class="cls-1" points="328.48 278.71 326.44 283.09 322.22 285.3 322.17 285.32 320.32 286.29 317.76 287.15 317.75 287.15 314.19 288.34 300.19 288.34 294.35 286.59 291.36 285.68 291.04 285.58 291.03 285.58 287.64 284.54 285.49 283.19 285.46 283.18 278.31 278.71 281.23 271.42 282.98 262.96 282.98 254.5 284.43 246.04 284.43 242.83 324.4 229.12 323.23 236.12 322.36 243.7 322.36 250.12 322.94 255.08 324.4 263.54 321.48 265.58 318.57 267.04 314.19 267.62 316.14 268.67 316.98 269.13 317.98 269.67 322.36 269.96 325.57 269.67 325.57 273.46 328.48 278.71"/><polygon class="cls-2" points="241.55 212.92 240.09 217.29 239.7 219.5 239.7 221.28 240.12 222.73 241.14 224.34 242.59 225.45 243.95 226.13 246.24 226.47 247.86 226.47 250.33 226.47 252.11 226.13 254.66 225.53 256.96 224.85 259.34 223.75 261.3 222.81 264.19 221.2 266.91 219.69 268.95 218.22 271.33 216.35 272.95 214.99 274.9 213.37 276.35 211.67 277.63 210.14 278.99 208.78 279.75 207.25 280.86 205.72 281.45 203.85 278.31 206.23 276.94 206.91 275.16 208.1 273.71 209.12 272.01 209.97 270.4 210.74 268.52 211.5 266.82 212.18 264.95 213.03 263 213.63 260.57 214.31 258.75 215.16 256.96 215.67 255.09 216.01 253.39 216.18 251.77 216.43 249.99 216.69 248.54 216.86 247.09 216.86 245.82 216.6 244.8 216.09 244.12 215.16 243.44 214.05 241.55 212.92"/><path class="cls-2" d="M242.84,213l-1.29-.05Z"/><polygon class="cls-2" points="243.44 214.05 242.84 212.97 238.35 209.99 236.81 208.31 235.75 206.91 235.03 205.9 234.36 204.74 233.83 203.49 233.44 202.43 233.25 200.94 233.54 199.59 234.16 198.68 234.79 198.05 235.56 197.43 236.23 197.09 237.2 196.56 238.98 196.27 240.28 196.27 241.55 196.27 243.12 196.27 244.56 196.27 246.15 196.56 247.93 196.99 249.37 197.33 250.72 197.67 252.45 198.2 254.33 198.87 256.11 199.4 257.85 200.07 259.58 200.75 261.55 201.37 263.57 202.05 265.59 202.58 267.81 202.91 269.64 203.11 272.19 203.44 274.21 203.54 275.85 203.59 277.39 203.85 278.98 203.85 280.27 203.85 280.43 204.62 279.37 205.43 278.31 206.23 272.86 206.52 271.71 206.62 269.73 206.72 266.61 206.67 264.01 206.43 261.65 206.14 254.76 205.8 252.5 205.66 250.91 205.47 249.37 205.42 247.83 205.16 246.63 205.16 245.28 205.16 243.79 205.16 242.84 205.16 241.55 205.42 240.56 205.16 241 206.43 241.91 208.11 242.84 209.99 243.36 211.63 243.89 212.97 244.56 214.8 244.8 216.09 243.44 214.05"/><polygon class="cls-2" points="242.49 213.48 241.55 212.92 239.46 211.24 238.35 209.99 242.84 212.97 243.44 214.05 242.49 213.48"/><polygon class="cls-2" points="281.45 203.85 280.27 203.85 280.43 204.62 281.45 203.85"/><polygon class="cls-3" points="240.56 205.16 242.19 208.68 243.36 211.63 244.12 213.61 244.8 216.09 245.82 216.6 248.54 216.86 249.99 216.69 251.77 216.43 253.39 216.18 255.09 216.01 256.96 215.67 259.36 214.87 263.78 213.26 268.52 211.5 270.87 210.51 272.86 209.55 274.31 208.7 275.9 207.6 278.31 206.23 276.02 206.18 272.77 205.98 270.16 206.18 268.19 206.18 265.36 206.53 261.65 206.14 258.85 206.02 256.2 205.88 252.13 205.56 250.91 205.47 248.28 205.16 246.63 205.16 240.56 205.16"/><polygon class="cls-3" points="264.95 213.03 266.82 212.18 262.2 213.84 264.95 213.03"/><path class="cls-3" d="M241,173c-13.19-1.43-20.64-7.77-22.2-15h0a13.48,13.48,0,0,1-.3-2.37,34.22,34.22,0,0,1,.3-6.26v0a17.86,17.86,0,0,1,2.14-6.5h4.47l-1.56-3.12a8.6,8.6,0,0,1,2.61-1.17,9.79,9.79,0,0,1,2-.34c.32,0,.65,0,1,0a19.86,19.86,0,0,1,2.43.08,21.24,21.24,0,0,1,2.46.38c.45.09.91.21,1.36.34a20,20,0,0,1,3.46,1.33,17.38,17.38,0,0,1,1.78,1,19.1,19.1,0,0,1,2.14,1.53,20.18,20.18,0,0,1,2.13,2,20.75,20.75,0,0,1,2.1,2.65,26.79,26.79,0,0,1,3.28,6.88C254.55,166.83,255.58,174.58,241,173Z"/><path class="cls-4" d="M246.93,153.35c-.2,7.33-6.81,14.39-14.33,12.69s-12.55-4.61-13.09-14.87c-.2-3.78.42-6.49,1.7-8.34h4.17l-1.2-2.4c2.27-1,5.26-1,8.78-.39C241.49,141.59,247.14,146,246.93,153.35Z"/><ellipse cx="233.21" cy="154.44" rx="7.83" ry="7.55"/><circle class="cls-3" cx="232.33" cy="155.48" r="1.81"/><circle class="cls-3" cx="229.51" cy="153.67" r="0.87"/><path class="cls-3" d="M319.66,157.42c-.36,9.07-9.4,17.53-26.84,19.28s-16.2-6.84-11.45-20.67a28.79,28.79,0,0,1,1.67-3.94,22.26,22.26,0,0,1,1.28-2.25,23.75,23.75,0,0,1,2.58-3.44,16.56,16.56,0,0,1,1.23-1.28c.54-.53,1.1-1,1.67-1.49a24.19,24.19,0,0,1,3.47-2.33c.51-.29,1-.56,1.55-.79a24,24,0,0,1,2.82-1.12,25.3,25.3,0,0,1,4.44-1,27.15,27.15,0,0,1,5.67-.23,11.13,11.13,0,0,1,10,7h0C319.37,148.64,319.84,153.09,319.66,157.42Z"/><path class="cls-4" d="M288.26,154.88c.22,8.14,7.31,16,15.39,14.1s13.48-5.13,14.06-16.52-5.28-14.09-14.45-12.37S288,146.74,288.26,154.88Z"/><circle cx="299" cy="154.44" r="7.96"/><ellipse class="cls-3" cx="301.16" cy="155.68" rx="2.16" ry="2"/><ellipse class="cls-3" cx="296.6" cy="153.67" rx="1.03" ry="0.96"/><path class="cls-5" d="M353,68l-.35,3.27A27,27,0,0,1,353,68Z"/><path class="cls-5" d="M352.68,71.23l.66,7.33c-.06-.25-.11-.49-.16-.74a5.86,5.86,0,0,1-.14-.75l-.09-.58a7.24,7.24,0,0,1-.12-.92c0-.15,0-.3-.05-.45q-.06-.54-.09-1.08v0c0-.48,0-1,0-1.44S352.66,71.68,352.68,71.23Z"/><path class="cls-5" d="M355.06,83.78a26.58,26.58,0,0,1-1-2.69c-.26-.81-.49-1.64-.68-2.47Z"/><path class="cls-5" d="M358.09,89.1a30.71,30.71,0,0,1-3-5.3Z"/><polygon class="cls-5" points="358.1 89.11 358.1 89.12 358.09 89.11 358.1 89.11"/><path class="cls-5" d="M378.05,132.31l4.06,3.34-1.05-.76s0,0,0,0c-.35-.26-.69-.53-1-.81C379.31,133.5,378.67,132.91,378.05,132.31Z"/><path class="cls-5" d="M382.22,135.72l3.88,2.33c-.34-.17-.68-.35-1-.54l-.92-.53-.09,0C383.44,136.54,382.82,136.14,382.22,135.72Z"/><path class="cls-5" d="M386.16,138.08l4.75,2A37.48,37.48,0,0,1,386.16,138.08Z"/><path class="cls-5" d="M402.19,142.25a40.24,40.24,0,0,1-11.27-2.14Z"/><path class="cls-2" d="M429.12,71.64C428,55.29,412.28,41.82,392.43,40.89S355.74,51.84,353,68l-.35,3.27.66,7.33v0a6.57,6.57,0,0,1-.16-.77,5.86,5.86,0,0,1-.14-.75,5.4,5.4,0,0,1-.09-.58,7.24,7.24,0,0,1-.12-.92,3.44,3.44,0,0,1-.05-.45c0-.36-.06-.72-.09-1.08v0c0-.47,0-1,0-1.44s0-.88,0-1.33A27,27,0,0,1,353,68l-7.85-3.8-5.38-2.33-7.55-2.47-8-1.88-9.88-1.6L302,54l-11-.87H266.15l-5.83.79L254.91,56l-6.21,2.36,6-2.79,5.58-1.63-3.25-5.35-4.88-4.88L245.91,40l-7.67-2.33-7.87-.93h-6.54L215.7,38.8l-6.74,3L202.68,46l-5.11,4.65-3.95,4.88-2.09,4.65L189.9,65.3l-.7,5.11-.46,3.72L185,77.85l-3.49,5.81-1.63,7V105l2.33,5.58,2.09,4.72,4.42,5,4.41,3.72,4.42,2.09h7.9l3.15,6.25,2.66,4,3.73,3.18,3.09,1.95,2,1.26h5.27L223,138.05l-2.88-6.4V121l3.15,5.19,6.25,5.72,1.42.6.46-1v1.16l4.39,1.86.62.25.45-.85.12,1.08L241,136.7l.92.23.28-.49,0,.55,4.74,1.16,6.19-.1-1.38-6.14-.8-5.72V118.6L253.13,108l1.81,9.32,1.9,8.12,3.48,6,3.41,4.26,3.72,4,4.8,1.61-3.47-5.86-3.19-8-1.6-8,.27-5.59.8-7.19,2.13-7.19,2.39-6.12,4-6.13L277.86,82l.45-.54-.18.56-3.22,10-1.33,6.92-.8,8v5.25l.53,8.06,2.13,6,2.87,5.46,3.79,5,6.15,4.26-5.09-7.72L280.43,125l-2.12-6.12V105.55l2.12,10.92,5.93,9.72,4.68,5.19,6.6,5.06,4.44,1.9a27.15,27.15,0,0,1,5.67-.23,11.13,11.13,0,0,1,10,7h5.88l2.39-1.21,6.13,1.21-2.66-3.87-6.13-7.45-3.66-6.39L338,142.83,340,159.41l.09.77v9.08l-.09,1.56v4.61l-.71,8.22-.11,1.42-.07,1.08v0l-1,17.68-.13,2.33-.72,10.68-.79,5.49,1-.86-1,2.17v10.8l-1.64,6.69-1.55,6.44-2.06,5.92L328.48,260l-4.08,3.51-2.92,2L318.57,267l-4.38.58,1.95,1.05.84.46,1,.54,4.38.29,3.21-.29V271l7.65-1,5.15-1.8L343,265.1l3.86-3.86,5.41-7.73,2.31-4.63,2.06-4.38,1.55-5.15v-4.89l1.29-10.17,1.28,10.17v5.15l-1.8,5.92-1.54,5.2-4.12,7.68,5.92-4.38,1.54-4.38,2.58-4.63,1.29-4.9v-6.69l1.28-4.12V207.68l-1-3.83,1-2.61-.58-5,6.41-5.1,5-5.34,5.33-6.41,4.63-6.21,4.21-6.91,4.34-6.83,1.42-4.83,2.85-7.75,2.66-4.64a40.24,40.24,0,0,1-11.27-2.14l11.27,2.14c18.35.86,33.8-10.49,34.49-25.35a22.56,22.56,0,0,0-2.46-11.3,22.06,22.06,0,0,0-5.1-34ZM230.37,69.48l2.84-1.93L228,71.62Zm-10.9,11.16,1.62-1.87-2.65,3.63Zm-15.16,38.81-.22-4.11,1.38-5.65Zm2.4-14.3.62-2.29,1-2.17Zm151.38-16h0Zm9,37.08,6.58,4.16.45.22,3.93,1.72c-.39-.14-.77-.29-1.15-.45s-.57-.23-.85-.36a38.4,38.4,0,0,1-7.26-4l-.29-.2c-.48-.34-1-.7-1.41-1.06a36,36,0,0,1-3.44-3.07Zm-12-42.39,3,5.3A30.71,30.71,0,0,1,355.06,83.8Zm-1-2.71a23.11,23.11,0,0,1-.68-2.47l1.71,5.16A26.58,26.58,0,0,1,354,81.09Zm2.58,31.33,0,0v0q-.18-.45-.33-.9a10.69,10.69,0,0,1-.36-1.09,26.87,26.87,0,0,1-1.2-8.31c0-.33,0-.67,0-1l.07,3.27a2.45,2.45,0,0,0,0,.27l1.78,7.76a.06.06,0,0,0,0,0l3.1,5.91,3.9,4.77a32.65,32.65,0,0,1-3.9-4.77A29.52,29.52,0,0,1,356.61,112.42Zm20.83,49.35-3.6,5.17-5.13,3.63L364.63,173l-3.78,3.36-2-24.53,4-3.45,5.79-1.84,4.65,1.16,4.2,2.85.61,5.13Zm3.62-26.88s0,0,0,0c-.35-.26-.69-.53-1-.81-.68-.55-1.32-1.14-1.94-1.74l4.06,3.34C381.75,135.41,381.4,135.16,381.06,134.89Zm4,2.62-.92-.53-.09,0c-.64-.38-1.26-.78-1.86-1.21l3.88,2.33C385.76,137.88,385.42,137.7,385.09,137.51Zm1.07.57,4.75,2A37.48,37.48,0,0,1,386.16,138.08Z"/><path class="cls-5" d="M354.72,101.07l.07,3.27c-.06-.75-.09-1.51-.09-2.27C354.7,101.74,354.7,101.4,354.72,101.07Z"/><path class="cls-5" d="M354.79,104.34a2.45,2.45,0,0,0,0,.27l0-.08Z"/><path class="cls-5" d="M354.81,104.61l1.78,7.76q-.18-.45-.33-.9a10.69,10.69,0,0,1-.36-1.09A27.35,27.35,0,0,1,354.81,104.61Z"/><path class="cls-5" d="M356.59,112.37a.06.06,0,0,0,0,0l0,0Z"/><polygon class="cls-5" points="358.1 89.12 358.09 89.11 358.1 89.11 358.1 89.12"/><path class="cls-5" d="M356.61,112.42l3.1,5.91A29.52,29.52,0,0,1,356.61,112.42Z"/><path class="cls-5" d="M359.71,118.33l3.9,4.77A32.65,32.65,0,0,1,359.71,118.33Z"/><path class="cls-5" d="M363.62,123.12l3.44,3.07A36,36,0,0,1,363.62,123.12Z"/><path class="cls-5" d="M367.06,126.19l6.58,4.16a41.3,41.3,0,0,1-4.88-2.9l-.29-.2C368,126.9,367.52,126.55,367.06,126.19Z"/><path class="cls-5" d="M373.64,130.35l.45.22-.29-.12Z"/><path class="cls-5" d="M378,132.29c-.39-.14-.77-.29-1.15-.45l-.85-.36c-.65-.29-1.3-.59-1.93-.91Z"/><polygon class="cls-5" points="205.47 109.69 204.31 119.45 204.09 115.34 205.47 109.69"/><polygon class="cls-5" points="205.47 109.69 204.31 119.45 204.09 115.34 205.47 109.69"/><polygon class="cls-5" points="231.39 131.55 231.4 132.71 230.93 132.51 231.39 131.55"/><polygon class="cls-5" points="236.86 133.97 236.98 135.05 236.41 134.82 236.86 133.97"/><polygon class="cls-5" points="242.23 136.44 242.2 136.99 241.95 136.93 242.23 136.44"/><polygon class="cls-5" points="337.37 221.49 336.41 223.66 336.41 224.08 336.13 224.29 336.41 222.35 337.37 221.49"/><path class="cls-5" d="M317.75,145.1l-1.08-.47L308.19,141l-2.8-1.2-3.31-1.42a27.15,27.15,0,0,1,5.67-.23A11.13,11.13,0,0,1,317.75,145.1Z"/><polygon class="cls-5" points="339.96 170.82 339.96 175.43 339.25 183.65 339.14 185.07 339.96 170.82"/><path class="cls-5" d="M353,68l-.35,3.27A27,27,0,0,1,353,68Z"/><path class="cls-5" d="M355.06,83.78a26.58,26.58,0,0,1-1-2.69c-.26-.81-.49-1.64-.68-2.47Z"/><path class="cls-5" d="M353.34,78.56c-.06-.25-.11-.49-.16-.74a5.86,5.86,0,0,1-.14-.75l-.09-.58a7.24,7.24,0,0,1-.12-.92c0-.15,0-.3-.05-.45q-.06-.54-.09-1.08v0c0-.48,0-1,0-1.44s0-.88,0-1.33Z"/><path class="cls-5" d="M358.09,89.1a30.71,30.71,0,0,1-3-5.3Z"/><polygon class="cls-5" points="358.1 89.11 358.1 89.12 358.09 89.11 358.1 89.11"/><path class="cls-5" d="M354.81,104.61l0-.08v-.19A2.45,2.45,0,0,0,354.81,104.61Z"/><path class="cls-5" d="M359.71,118.33a29.52,29.52,0,0,1-3.1-5.91Z"/><path class="cls-5" d="M356.61,112.42l0,0v0A.06.06,0,0,0,356.61,112.42Z"/><path class="cls-5" d="M354.79,104.34c-.06-.75-.09-1.51-.09-2.27,0-.33,0-.67,0-1Z"/><path class="cls-5" d="M356.59,112.37q-.18-.45-.33-.9a10.69,10.69,0,0,1-.36-1.09,27.35,27.35,0,0,1-1.09-5.77Z"/><path class="cls-5" d="M363.61,123.1a32.65,32.65,0,0,1-3.9-4.77Z"/><path class="cls-5" d="M367.06,126.19a36,36,0,0,1-3.44-3.07Z"/><path class="cls-5" d="M378,132.29c-.39-.14-.77-.29-1.15-.45l-.85-.36c-.65-.29-1.3-.59-1.93-.91Z"/><path class="cls-5" d="M373.64,130.35a41.3,41.3,0,0,1-4.88-2.9l-.29-.2c-.48-.35-1-.7-1.41-1.06Z"/><path class="cls-5" d="M374.09,130.57l-.29-.12-.16-.1Z"/><polygon class="cls-5" points="378.05 155.64 377.44 161.77 373.84 166.94 368.71 170.57 364.63 172.96 360.85 176.32 358.82 151.79 362.8 148.34 368.59 146.5 373.24 147.66 377.44 150.51 378.05 155.64"/><path class="cls-5" d="M386.1,138.05c-.34-.17-.68-.35-1-.54l-.92-.53-.09,0c-.64-.39-1.26-.79-1.86-1.21Z"/><path class="cls-5" d="M382.11,135.65l-1.05-.76s0,0,0,0c-.35-.26-.69-.53-1-.81-.68-.55-1.32-1.14-1.94-1.74Z"/><path class="cls-5" d="M390.91,140.11a37.48,37.48,0,0,1-4.75-2Z"/><path class="cls-5" d="M402.19,142.25a40.24,40.24,0,0,1-11.27-2.14Z"/><path class="cls-3" d="M356.59,112.37v0l0,0A.06.06,0,0,1,356.59,112.37Z"/><polygon class="cls-5" points="325.57 269.67 325.57 270.97 322.36 271.26 317.98 270.97 314.19 268.93 316.14 268.67 316.98 269.13 317.98 269.67 322.36 269.96 325.57 269.67"/><polygon class="cls-5" points="337.37 221.49 336.41 223.66 336.41 222.35 337.37 221.49"/><polygon class="cls-2" points="229.29 223.25 229.29 229.79 228.55 239.11 227.62 245.95 226.99 253.72 225.59 261.17 223.73 265.37 221.09 269.72 218.29 272.67 215.5 274.22 211.77 275.93 210.06 275.93 212.54 278.57 216.66 279.19 220.78 279.19 223.89 279.19 229.29 278.11 233.25 275.93 237.4 272.82 239.7 270.03 242.19 266.61 244.71 262.73 246.57 258.84 246.57 262.26 246.57 266.14 245.02 268.94 243.44 271.26 242.19 273.45 244.86 272.05 247.35 269.25 249.06 266.14 249.99 263.81 249.99 261.64 249.99 259.46 249.99 256.05 250.76 252.63 250.84 249.88 229.29 223.25"/><polygon class="cls-6" points="274.78 283.56 276.15 282.18 277.53 280.3 278.31 278.71 285.46 283.18 291.04 285.58 300.19 288.34 308.06 288.34 314.19 288.34 317.75 287.15 322.21 285.3 326.44 283.08 328.49 278.71 331.99 281.43 335 283.52 331.49 287.19 325.61 291.07 318.6 294.45 312.34 296.08 305.82 296.95 298.69 296.95 292.93 295.58 286.92 293.45 281.66 290.44 278.31 287.83 274.78 283.56"/><polygon class="cls-7" points="274.78 283.56 271.65 284.56 268.26 285.19 265.51 285.94 243.1 320.99 245.6 322.87 252.37 325.37 258 327.25 265.51 329.26 274.02 331.13 282.16 332.51 290.3 333.39 295.94 333.39 305.57 333.39 310.33 333.39 311.96 332.26 305.7 324.25 304.2 320.49 303.4 317.24 303.4 315.23 304.89 314.48 306.45 314.48 308.7 315.61 310.58 317.36 313.46 319.99 318.72 324.75 319.72 322.87 321.23 321.62 322.98 320.37 324.73 319.62 326.11 319.62 326.11 318.11 326.11 316.61 327.86 315.48 329.36 314.11 331.12 312.85 332.62 312.73 335 312.98 335 311.35 337.13 309.1 340.06 306.22 343.89 302.71 346.52 300.96 347.52 299.21 349.27 296.95 351.77 294.82 354.4 291.95 343.76 287.83 338.63 285.56 335 283.52 331.49 287.19 327.11 289.44 320.98 292.45 314.96 294.2 309.58 295.33 304.07 295.33 298.25 294.7 292.55 292.57 286.29 290.19 281.04 287.83 274.78 283.56"/><polygon class="cls-7" points="365.31 296.21 355.22 305.58 359.67 309.54 365.91 315.79 368.92 319.75 371.92 324.8 355.82 358.68 357.62 362.4 357.86 365.16 358.46 368.89 358.7 371.05 362.07 370.45 365.67 369.85 368.92 369.61 371.92 368.53 375.76 366.48 379.61 364.68 384.77 363.36 388.98 361.44 393.18 359.16 397.03 357.48 395.22 345.34 393.18 337.29 391.26 330.21 390.18 325.4 387.42 320.72 384.53 317.23 382.01 311.59 379.73 307.74 376.85 304.38 373.24 299.93 369.28 297.65 365.31 296.21"/><polygon class="cls-7" points="216.89 334.46 230.89 321.89 253.46 287.19 247.57 288.34 243.1 289.24 237.31 291.12 232.76 292.99 229.28 294.86 226.16 297.36 223.66 299.77 222.15 302.44 221.08 305.48 220.28 308.45 219.74 312.61 218.94 318.14 218.58 323.67 218.13 327.33 216.89 334.46"/><path class="cls-6" d="M266.1,285.38,254,286.63l-3.6,5.55-7.31,11.24-11.65,17.91-14,12.58-4.66,6.29-3.14,5.11-.66,4.95v10.56l1.49,9.57,2.14,11.39,2.81,10.89.66,7.1v7.92l1.36,8.09,2.43,7.59,4.63,8.58,4.12,4.62,6.6,6.11,6.93,2,10.4,2.14,10.89,1,12.71.83,13.86-.83,11.22-1,9.08-1.48,8.08-2.48,6.77-3.79,3.63-5.95,3-5.77,4-9.9,2.48-11.06,2.31-9.9-14-29.47c.95,2,.82-7.8.82-7.8L327,346.85l-14.4-15.15L304,332.83H290.89l-12-1.53-12.79-2.6L253,324.82l-9.26-4.38Z"/><polygon class="cls-3" points="287.94 344.22 316.5 345.78 312.98 356.48 284.77 354.03 287.94 344.22"/><polygon class="cls-7" points="344.51 316.44 344.51 314.96 345.99 313.4 347 312.38 348.29 312.38 351.33 314.41 358.71 321.6 356.68 321.6 344.51 316.44"/><polygon class="cls-6" points="346.52 300.96 347.52 299.21 349.27 296.95 351.77 294.82 354.4 291.95 365.31 296.21 362.11 299.18 355.22 305.58 353.64 304.85 352.5 304 351.3 303.07 350.09 302.29 348.81 301.65 346.52 300.96"/><polygon class="cls-1" points="362.07 370.45 365.67 369.85 368.92 369.61 371.92 368.53 375.76 366.48 379.61 364.68 383.03 363.81 386.85 362.41 390.97 360.36 395.06 358.34 401.2 387.38 404.64 404.43 407.15 417.87 409.18 427.41 411.21 437.42 411.21 441.64 407.77 437.73 395.26 422.25 388.85 414.59 380.56 407.87 371.8 400.83 362.07 370.45"/><polygon class="cls-1" points="411.21 441.64 411.21 446.91 411.21 452.9 409.5 458.31 406.87 462.55 403.65 463.28 395.32 461.09 385.38 457.73 376.76 453.2 365.22 444.14 355.22 430.69 348.7 418.56 344.03 407.31 340.54 397.81 339 393.24 326.54 367 326.95 346.85 359.66 348.71 351.61 369.75 350.17 372.24 350.02 375.01 351.61 377.64 356.74 384.66 367.85 397.23 371.8 400.83 377.87 405.7 383.05 410.96 387.58 414.76 392.84 420.94 411.21 441.64"/><polygon class="cls-1" points="326.95 346.85 322.11 341.76 317.24 336.63 312.55 331.7 310.06 329.82 308.09 327.31 306.47 325.24 305.7 324.25 304.64 321.6 303.93 319.41 303.4 317.24 305.77 320.33 307.18 321.13 309.08 321.6 310.79 321.6 312.19 321.6 313.19 320.83 316.5 323.63 319.5 326.14 322.81 328.74 326.12 331.25 331.09 334.46 332.33 335.26 333.84 336.16 339.65 339.27 342.36 340.47 341.15 339.07 338.35 337.86 335.04 336.06 329.63 332.75 328.12 331.55 326.54 330.25 324.62 328.94 322.88 327.54 321.51 326.54 319.71 325.24 318.72 324.75 319.72 322.87 322.12 320.98 322.98 320.37 324.73 319.62 326.03 319.93 327.57 320.29 336.94 324.63 351.61 330.75 352.08 329.85 339.35 324.94 334.74 322.73 330.63 320.93 328.43 319.93 327.22 319.42 326.11 316.61 327.86 315.48 329.36 314.11 331.12 312.85 332.62 312.73 338.85 314.61 343.54 316.82 345.46 317.72 353.08 320.73 356.68 321.6 358.71 321.6 357.6 320.52 356.43 319.38 355.22 318.2 354.4 317.4 353.49 316.51 352.52 315.57 351.33 314.41 350.28 313.7 348.29 312.38 347 312.38 345.99 313.4 344.51 314.96 344.51 316.44 336.34 313.21 335 312.98 335 311.35 336.11 310.17 337.13 309.1 340.06 306.22 342.21 304.25 343.89 302.71 345.04 301.95 346.52 300.96 348.81 301.65 350.09 302.29 352.5 304 353.64 304.85 355.22 305.58 358.44 308.45 361.21 311.09 363.32 313.19 365.91 315.79 366.82 316.99 368.92 319.75 370.02 321.6 371.39 323.9 371.92 324.8 369.62 329.64 368.33 332.36 366.58 336.04 364.87 339.64 363.42 342.68 362.07 345.53 360.77 348.27 359.46 351.02 358.19 353.6 356.88 356 355.82 358.68 326.95 346.85"/><polygon class="cls-2" points="313.19 320.83 312.17 319.61 310.99 318.22 310.13 317.31 309.6 316.44 308.7 315.61 307.87 315.19 307.02 314.76 306.45 314.48 304.89 314.48 303.4 315.23 303.4 317.24 304.45 318.61 305.28 319.68 306.14 320.54 307.18 321.13 308.64 321.49 309.82 321.6 311.38 321.6 312.19 321.6 313.19 320.83"/><polygon class="cls-1" points="212.64 381.78 209.01 375.12 201.4 360.46 193.65 345.13 188.26 334.46 181.35 321.37 179.83 316.65 179.83 310.83 163.32 312.27 160.62 321.2 162.81 321.88 163.99 327.27 165.51 333.39 167.53 341.25 169.89 350.35 172.75 360.8 174.78 367.88 178.31 377.65 181.18 385.91 186.63 397.03 188.93 403.26 192.81 410.51 197.02 416.74 201.4 422.81 204.43 426.18 208.31 428.37 211.17 428.37 213.87 428.37 216.23 427.19 219.91 423.37 216.11 407.69 216.06 402.59 215.72 398.38 215.72 394.84 215.45 392.67 212.64 381.78"/><path class="cls-1" d="M163.32,312.27,161.88,310c-.5-.81-1.14-1.89-1.79-3.2a22.83,22.83,0,0,1-1.5-3.39,20.32,20.32,0,0,1-.9-3.69,20.72,20.72,0,0,1-.2-2.69c0-.92.06-1.85.2-3.69.13-1.57.19-2.38.3-3.09a22.69,22.69,0,0,1,.7-3.09,20.68,20.68,0,0,1,1-2.59s.36-.81,1.79-3.49h0a1.18,1.18,0,0,0-.2-1c-.4-.43-1.09-.08-2.19-.2a9.62,9.62,0,0,1-2.19-.8c-1-.42-1.73-.8-2.5-1.2-.59-.3-1.29-.66-2.19-1.19a28.83,28.83,0,0,1-2.49-1.6c-.31-.22-.94-.74-2.2-1.79s-1.64-1.38-2.09-1.8a15.31,15.31,0,0,1-1.5-1.49c-.43-.51-.36-.52-1.1-1.5-.58-.78-.67-.83-1.39-1.79-.19-.26-.43-.61-.9-1.3s-.55-.83-.5-.9,1.13.47,2.89.9c.71.17.58.07,1.6.3a10.83,10.83,0,0,0,2.49.5,5,5,0,0,0,1.4-.2,3,3,0,0,0,1.1-.5,2,2,0,0,0,.79-1.2c.11-.61-.24-1-.1-1.09s1,.63,2.3,1.39c.94.56,1,.38,2.59,1.2,1.09.54,1.09.62,2.59,1.39a9.62,9.62,0,0,0,4.79,1.5c1.76.22,1.8.13,3,.3.67.09,1.48.26,3.09.6s1.89.42,2.6.5c.89.09,1.74.09,2.29.1,1.62,0,1.58-.12,2,0,.61.17.76.45,2.4,2.09,1,1,1.11,1.07,1.79,1.8a8.89,8.89,0,0,1,1.5,1.79c.36.8.23,1.32.2,3,0,.88,0,1.72.1,3.39.1,2.29.24,2.28.3,4.19,0,.59,0,.45,0,3.39,0,2.66,0,2.46,0,2.89,0,1.34-.13,1.55-.4,4.59-.15,1.64-.13,1.61-.3,3.49-.06.67-.16,1.72-.3,3.09-.1,1-.24,2.21-.4,3.59L180,309l-.2,1.83Z"/><polygon class="cls-1" points="140.04 264.52 139.02 263.93 138.3 263.2 137.78 262.47 137.44 261.66 137.44 260.72 138.51 259.95 139.84 259.61 141.2 259.61 142.14 259.61 143.68 259.91 144.62 259.95 145.99 260.46 146.84 260.72 147.7 261.28 148.55 261.79 149.36 262.35 149.79 262.73 150.21 263.23 150.31 264.32 149.94 265.11 149.52 265.52 148.82 265.89 147.9 266.14 147.02 266.22 146.37 266.15 145.43 266.02 144.53 265.72 142.93 265.42 141.67 265.16 140.04 264.52"/><polygon class="cls-1" points="137.44 261.66 134.18 257.91 132.06 254.78 129.74 251.22 128.23 248.22 126.72 244.9 125.61 241.57 124.7 238.34 123.89 234.1 123.89 231.18 123.89 229.26 124.39 227.44 125.2 226.54 126.51 227.04 127.93 227.85 129.24 228.96 130.67 230.67 132.77 232.59 134.58 235.21 136.9 239.55 141.44 247.12 143.88 251.22 146.18 255.09 147.9 257.1 149.92 259.61 151.33 260.23 152.54 260.23 153.04 259.02 152.54 256.5 150.72 248.12 149.81 244.1 149.21 240.76 148.91 236.52 149.11 233.09 149.61 229.36 150.31 225.63 151.33 222.6 152.24 220.08 153.04 217.96 153.85 216.45 154.46 215.24 155.46 214.63 157.38 215.34 157.99 216.45 158.89 218.47 158.89 221.09 158.89 224.92 159.6 228.96 160.1 234.41 160.1 237.63 160.88 241.26 160.88 243.99 161.92 247.62 162.93 250.65 163.94 253.97 165.25 256.8 166.76 260.33 168.18 262.45 170.29 265.37 172.21 267.49 174.13 269.11 175.44 270.21 171.16 270.11 166.66 269.11 160.88 268.9 155.56 267.49 149.52 265.52 144.53 265.72 139.02 263.93 137.44 261.66"/><polygon class="cls-1" points="163.63 270.21 174.63 270.92 172.51 268.5 164.85 267.9 163.63 270.21"/><polygon class="cls-1" points="147.6 263.66 145.43 266.02 150.31 267.9 150.31 264.32 147.6 263.66"/><polygon class="cls-2" points="123.89 234.1 123.31 231.8 123.03 230 122.75 228.09 122.75 226.63 122.75 225.17 123.32 224.1 124.21 224.1 125.51 224.1 126.63 224.5 127.75 225.45 129.27 227.08 130.74 229.1 132.77 232.59 127.93 227.85 126.51 227.04 125.2 226.54 124.39 227.44 123.89 229.26 123.93 231.64 123.89 234.1"/><polyline class="cls-1" points="130.67 230.67 131.13 230.99 130.4 230.27 130.77 230.99 132.13 232.24 132.77 232.59 130.03 229.91"/><polygon class="cls-2" points="154.18 218.55 155.87 219.25 156.74 219.61 157.55 221.27 158.76 224.29 159.3 221.42 159.3 218.55 158.35 216.31 157.41 214.19 156.74 213.13 155 213.13 153.53 215.13 152.8 216.54 152.03 221.27 154.18 218.55"/><polygon class="cls-1" points="151.68 289 151.3 287.29 150.31 285.42 149.67 283.85 148.24 282.51 146.97 281.01 144.88 278.7 142.86 276.91 141.37 275.71 138.46 273.92 137.11 273.25 135.77 272.65 133.98 271.9 133.98 270.92 136.37 271.98 138.01 272.8 140.85 274.37 141.89 274.89 143.88 274.67 147.52 273.3 145.43 271.5 143.93 270.01 142.83 268.51 141.9 267.32 140.54 265.42 138.83 264.74 137.44 263.66 136.52 262.49 135.17 262.49 133.01 262.49 130.39 264.29 127.56 266.9 124.49 270.21 122.78 272.87 122.25 274.74 122.25 276.31 123.52 278.1 127.33 279.97 136.96 284.97 140.7 287.14 144.58 289 143.88 287.74 144.43 286.46 145.1 285.57 146.75 286.24 148.24 286.84 149.36 287.74 151.68 289"/><polygon class="cls-2" points="143.88 287.74 144.58 289 146.07 290.69 148.21 292.78 150.4 294.14 152.22 294.5 153.84 293.77 153.84 292.89 153.37 291.63 152.33 290.02 151.68 289 150.03 287.74 148.86 287.04 148.24 286.84 146.75 286.24 145.1 285.57 143.88 286.94 143.88 287.74"/><polygon class="cls-1" points="145.44 290.54 143.62 289.29 141.95 288.45 139.81 287.2 137.93 286.68 135.95 286.1 133.5 285.57 130.99 285.32 129.64 284.96 129.22 284.23 129.69 284.23 130.99 284.23 132.92 284.85 136.26 285.32 136.96 284.97 131.81 282.29 128.8 280.73 125.82 279.23 123.52 278.1 122.25 280.73 120.98 283.08 120.14 284.8 119.36 286.1 119.36 288.14 119.62 290.04 121.03 291.32 122.8 292.42 124.63 293.3 127.08 294.3 128.8 294.5 131.41 295.34 133.13 295.6 134.8 295.6 137.2 295.81 139.34 295.6 138.56 294.5 138.35 293.98 138.66 293.3 139.6 293.04 140.59 292.83 142.31 292.78 143.88 292.73 145.08 292.99 147.22 293.88 147.79 294.09 148.21 292.78 147.16 291.84 146.07 290.69 145.44 290.54"/><polygon class="cls-2" points="139.34 295.6 138.56 294.5 138.35 293.98 138.66 293.3 140.59 292.83 143.88 292.73 145.08 292.99 146.12 293.42 147.79 294.09 148.86 295.08 149.25 295.81 149.25 296.75 148.21 297.53 146.69 297.89 145.08 297.89 143.51 297.89 142.05 297.43 140.96 297.06 140.03 296.49 139.34 295.6"/><polygon class="cls-1" points="147.44 273.57 143.88 274.93 141.06 275.17 141.95 275.89 143.88 277.52 144.67 278.1 145.41 278.96 146.97 281.01 148.65 282.6 149.67 283.85 150.56 285.9 151.68 287.74 151.68 289 152.17 289.77 152.9 290.91 153.37 291.63 153.84 292.89 153.84 293.77 152.22 294.5 150.4 294.14 149.39 293.51 148.21 292.78 147.79 294.09 148.86 295.08 149.25 295.81 149.25 296.75 148.21 297.53 146.69 297.89 145.08 297.89 143.51 297.89 140.96 297.06 140.03 296.49 139.34 295.6 137.2 295.81 134.8 295.6 133.13 295.6 135.22 300.35 136.27 302.63 137.45 304.95 138.74 306.68 143.1 312 146.91 315.58 151.68 318.51 155.07 320 160.62 321.2 162.68 313.26 162.08 311.6 161.21 310.27 160.62 308.98 160.06 307.92 159.55 306.73 159.04 305.53 158.49 304.43 158.08 303.55 157.71 302.31 157.48 301.39 157.21 300.29 156.93 298.73 156.79 295.81 157.07 292.47 157.39 290.04 158.22 286.95 159.92 282.68 160.61 281.02 159 280.51 157.66 280.06 156.33 279.5 155.18 278.95 153.84 278.1 152.61 277.43 151.41 276.74 150.22 276.01 149.25 275.32 148.21 274.54 147.44 273.57"/><polygon class="cls-1" points="162.08 311.6 163.85 312.67 161.45 321.46 159.73 321.01 162.08 311.6"/><polyline class="cls-7" points="298.25 447.07 290.04 447.79 281.14 447.62 274.78 447.46 268.6 447.62 263.47 447.79 252.58 446.8 242.18 444.66 235.25 442.68 234.59 452.79 243.84 457.02 256.22 459.69 267.66 461.57 279.89 461.57 293.06 461.57 303.4 460.79 312.65 458.91 319.55 457.02 323.94 454.67 327.7 452.12 325.19 439.05 318.43 442.84"/><polygon class="cls-3" points="237.81 454.26 243.84 457.02 251.64 458.7 260.76 460.44 267.66 461.57 274.78 461.57 286.16 461.57 293.06 461.57 303.4 460.79 311.11 459.22 317.81 457.92 319.55 457.02 326.54 459.12 334.9 464.56 345.58 475.24 354.32 485.34 362.07 495.63 376.38 518.74 386.64 538.28 392.89 554.12 395.92 563.55 399.63 575.01 401.65 583.43 403.33 589.16 398.62 594.22 384.8 599.61 362.07 603.65 329.88 607.69 300.9 609.38 275.96 609.38 256.08 609.38 237.81 607.36 220.03 604.66 213.63 602.98 205.2 598.6 207.56 571.98 210.59 541.65 213.29 523.12 219.35 497.51 224.75 481.33 231.49 466.17 237.81 454.26"/><polygon class="cls-6" points="234.59 452.79 237.81 454.26 233.02 463.28 227.1 476.05 222.99 486.6 219.35 497.51 216.07 511.39 213.77 521.09 211.75 533.74 210.05 547.09 209.01 559.66 207.84 569.21 206.28 586.49 205.2 598.6 210.24 601.21 217.79 604.07 226.26 605.61 237.81 607.36 247.24 608.4 256.08 609.38 266.63 609.38 277.99 609.38 288.53 609.38 300.9 609.38 311.45 608.76 325.48 607.95 336.63 606.85 348 605.42 362.07 603.65 375.86 601.2 386.7 598.87 393.38 596.26 398.62 594.22 403.33 589.16 400.48 578.55 396.98 566.81 394.07 557.8 390.73 548.65 387.42 540.26 382.86 531.09 378.48 522.74 372.33 512.19 366.9 503.43 362.07 495.63 355.93 487.48 349.45 479.71 343.36 473.02 337.47 467.14 330.3 461.57 326.54 459.12 319.55 457.02 326.71 452.79 331.49 452.79 340.54 457.63 348.42 463.28 355.03 468.79 361.02 474.57 367.42 480.56 374.44 488.62 380.85 496.05 387.46 505.34 393.44 514.02 399.02 523.31 403.33 536.94 428.09 606.1 439.64 640.08 435.91 644.84 424.35 649.6 411.21 651.98 377.12 655.71 344.15 658.09 319.34 658.09 297.64 658.09 277.54 658.09 259.19 658.09 238.46 655.71 222.49 653.34 202.1 649.6 198.36 624.11 195.98 595.22 195.98 557.84 198.7 535.41 202.1 515.36 207.54 499.39 214 484.44 219.91 469.49 225.21 463.28 234.59 452.79"/><polygon class="cls-5" points="339.07 186.17 338.05 203.85 337.92 206.18 337.2 216.86 336.41 222.35 337.37 221.49 336.41 223.66 336.13 224.29 336.25 222.61 336.41 220.36 336.75 215.58 336.78 215.16 337.93 200.63 339.07 186.17"/><polygon class="cls-5" points="316.98 269.13 314.19 268.93 313.28 268.19 314.19 267.62 316.14 268.67 316.98 269.13"/><polygon class="cls-5" points="324.4 263.54 321.48 265.58 318.57 267.04 324.4 263.54"/></g><g id="Lag_3" data-name="Lag 3"><polygon points="226.44 138.54 225.29 137.22 224.18 133.35 224.88 132.16 226.86 136.38 228.46 137.75 229.51 138.19 226.44 138.54"/><polygon points="234.37 138.71 231.87 138.26 231.86 138.24 231.01 136.76 230.74 135.14 230.3 133.83 230.93 132.51 231.39 131.55 231.4 132.71 231.41 134.25 233.09 136.46 234.32 138.62 234.37 138.71"/><polygon points="239.24 140.43 235.67 139.1 235.68 138.96 235.75 137.78 235.86 135.85 236.41 134.82 236.86 133.97 236.98 135.05 237.15 136.59 238.42 139.27 239.14 140.29 239.24 140.43"/><polygon points="243.14 142.86 243.06 142.81 240.91 141.5 240.92 141.28 241.01 139.96 241.11 138.41 241.95 136.93 242.23 136.44 242.2 136.99 242.07 139 242.67 141.61 243.14 142.86"/><polygon points="245.19 145.11 245.19 143.45 245.19 141.36 246.63 139.62 246.63 142.79 247.29 145.77 247.29 147.54 245.19 145.11"/><polygon points="297.32 139.99 297.93 138.84 297.87 137.72 298.07 136.77 296.39 135.5 296.95 137.27 295.58 139.06 294.67 140.79 297.32 139.99"/><polygon points="293.34 141.52 292.94 140.26 292.35 138.42 290.81 136.86 291.12 139.48 290.36 142.42 289.74 143.76 293.34 141.52"/><polygon points="288.17 145.25 287.69 143.78 287.22 142.31 285.52 140.69 286.31 143.13 286.26 145.83 286.04 147.17 288.17 145.25"/><polygon points="284.33 149.9 283.94 148.29 283.44 146.26 281.46 144.95 282.21 148.03 282.19 151.11 282.61 152.82 284.33 149.9"/><polygon class="cls-1" points="378.05 155.64 377.44 161.77 373.84 166.94 368.71 170.57 364.63 172.96 360.85 176.32 358.82 151.79 362.8 148.34 368.59 146.5 373.24 147.66 377.44 150.51 378.05 155.64"/><polyline class="cls-8" points="261.38 163.67 261.38 167.53 261.38 170.57 260.57 174.57 259.44 178.02 257.65 181.46 256.84 184.22 256.84 186.15"/><polyline class="cls-8" points="256.84 188.78 258.2 190.16 259.44 190.16 261.38 190.16 264.51 189.47"/></g></svg>