<svg xmlns="http://www.w3.org/2000/svg" width="452.83" height="674.06" viewBox="0 0 452.83 674.06"><defs><style>.cls-1{fill:#fcd8bc;}.cls-2{fill:#cc6289;}.cls-3{fill:#f7daea;}.cls-4{fill:#fff;}.cls-5{fill:#d6e4c2;}.cls-6{fill:#f7f2f4;}.cls-7{fill:#eac7b0;}.cls-8{fill:#f6bbd5;}.cls-9{fill:#f2d2e3;}</style></defs><g id="hoved"><path class="cls-1" d="M354.42,251.46c-4.86,16.2-9.24,30-13.51,41.74a10.09,10.09,0,0,1,7.78,1.57c5.73,4.19,5.28,14.56-1,23.15s-15.93,12.13-21.67,8c-21.48,34.93-49.88,29.67-125.2,17.24-74.38-12.27-100.32-24.73-105.68-67.38a8.62,8.62,0,0,1-2.34,1.09C86,278.92,78,272.26,75,262.05s.07-20.13,6.88-22.14c4.14-1.22,8.7.76,12.32,4.79.52-14.6,2-31.62,4-51.58C109.63,79.47,157.55,76.86,246.07,92.31S388.24,138.75,354.42,251.46Z"/><polygon class="cls-1" points="57.69 326.54 80.39 355.16 107.31 371.4 133.47 379.94 148.36 382.7 154.87 369.75 186.42 360.66 199.86 369.4 216.3 360.66 243.27 372.29 251.18 392.13 266.19 404.24 284.7 414.79 312.68 423.6 321.79 427.58 330.11 429.82 344.17 434.93 346.82 432.06 342.89 426.94 340.66 420.55 344.49 420.55 346.82 425.66 351.53 430.46 354.4 426.3 354.4 420.23 351.85 413.83 349.61 409.8 340.98 404.88 325.31 401.36 312.68 387.93 298.13 377.4 276.51 368.53 239.34 366.45 234.46 364.01 231.63 353.52 232.36 348.3 171.14 337.7 169.6 343.81 165.86 351.88 147.84 351.88 128.67 341.25 114.29 331.02 93.82 315.18 73.85 310.97 73.85 296.5 71.12 286.56 67.61 281 62.77 296.5 60.25 290.09 62.77 282.74 67.92 277.16 65.05 274.43 59.61 275.71 50.98 283.06 42.67 297.24 42.67 306.67 45.86 318.55 57.69 326.54"/><polygon class="cls-1" points="122.29 500.36 133.47 550.42 131.45 589.87 136.56 605.04 138.38 624.25 185.05 617.68 185.05 604.02 187.58 569.13 190.01 536.26 193.76 504.91 205.06 505.08 232.08 534.24 242.74 574.7 259.11 595.93 266.47 607.06 287.2 618.18 308.95 617.68 319.57 608.58 307.94 586.83 293.78 559.02 283.19 496.31 122.29 500.36"/></g><g id="hår"><path class="cls-2" d="M401.36,113.35c-18-19.88-45.53-24.28-61.47-9.84a33.09,33.09,0,0,0-10,17.74C308.87,107.64,278.17,96,243,89.59c-27.61-5-53.8-6-75.6-3.6a33,33,0,0,0-6.12-19.38c-12.59-17.45-40.43-18.89-62.18-3.2s-29.18,42.55-16.59,60c6.23,8.63,16.19,13.35,27.31,14h0l-7.44,22-9.56,80.93L113,199.21,143.6,163c20.65,12.05,49,22.24,81,28.05,36.08,6.55,69.73,6.24,94.34.45l18.63,45.7,6,49.32,24.84-78.79.87-24.37-.67-1.5c13.31,4.12,27,2.23,36.53-6.41C421,161,419.36,133.22,401.36,113.35ZM351.84,173.2l2.49-.35c-.35.46-.72.92-1.11,1.37Q352.53,173.72,351.84,173.2Z"/><path class="cls-3" d="M354.33,175c-.35.46-.72.92-1.11,1.37q-.69-.49-1.38-1Z"/><path class="cls-3" d="M354.33,175c-.35.46-.72.92-1.11,1.37q-.69-.49-1.38-1Z"/><path class="cls-3" d="M354.33,175c-.35.46-.72.92-1.11,1.37q-.69-.49-1.38-1Z"/></g><g id="Lag_4" data-name="Lag 4"><ellipse class="cls-2" cx="176.57" cy="201.86" rx="3.61" ry="25.03" transform="translate(-60.9 326.5) rotate(-76.52)"/><ellipse class="cls-2" cx="285.17" cy="227.05" rx="25.03" ry="3.61"/><circle class="cls-4" cx="147.91" cy="253.91" r="40.61"/><ellipse class="cls-4" cx="283.34" cy="281" rx="40.61" ry="39.29"/><ellipse class="cls-5" cx="150.3" cy="253.91" rx="32.74" ry="31.11"/><ellipse class="cls-5" cx="283.34" cy="277.16" rx="33.96" ry="31.11"/><ellipse cx="148.36" cy="248.67" rx="25.56" ry="23"/><circle cx="280.51" cy="271.67" r="25.56"/><circle class="cls-6" cx="147.91" cy="231.53" r="4.5"/><circle class="cls-6" cx="135.91" cy="231.55" r="2.25"/><circle class="cls-6" cx="139.74" cy="237.08" r="2.25"/><circle class="cls-6" cx="278.84" cy="253.91" r="4.5"/><circle class="cls-6" cx="269.23" cy="258.41" r="3.04"/><circle class="cls-6" cx="276.88" cy="264.16" r="3.23"/><ellipse class="cls-7" cx="209.64" cy="288" rx="3.77" ry="7.39" transform="translate(-89.36 481.61) rotate(-86.87)"/><path class="cls-8" d="M218.81,306.26c-3.55,5.33-7.05,10.11-12.63,8.66s-5.81-6.17-9.88-10.09,8-8.61,12-8.31S222.36,300.92,218.81,306.26Z"/><path d="M218.92,305.75c-4.69,1.74-9.07,6.66-12.83,4.8s-5.67-4.1-9.89-6.63,11.27-1.23,12.86-1.16S223.6,304,218.92,305.75Z"/><path d="M318,260.41l8.91-3.09-6.47,7.5Z"/><path d="M322.3,270.72l8.65.15-7.61,4.23Z"/><path d="M324,282.09l7.16,1.13-7.52,2.87Z"/><path d="M115.53,229.41l-11-3.61,7.68,8.6Z"/><path d="M108.51,245.45l-7.57-7.32,8.49,2.44Z"/><path d="M107.44,255.44l-5.8-4.17,5.74.85Z"/><ellipse class="cls-7" cx="88.07" cy="258.41" rx="3.64" ry="7.55" transform="translate(-48.82 22.2) rotate(-11.27)"/><ellipse class="cls-7" cx="338.3" cy="310.97" rx="7.55" ry="3.64" transform="translate(-100.15 448.46) rotate(-60)"/><polygon class="cls-9" points="100.63 174.22 120.12 141.49 137.26 118.24 172.29 97.62 201.97 97.62 274.34 109.49 327.41 129.04 360.39 179.66 365.22 217.67 350.98 176.41 322.49 133.93 273.64 116.57 200.22 105.3 166.18 108 139.74 123.63 123.78 145.79 100.63 174.22"/></g><g id="Lag_6" data-name="Lag 6"><path class="cls-8" d="M136.56,411.84l18.31-42.09,19.36-7.89,12.19-1.2,8.36,2.87L200,370l8.14-7.17,8.12-2.15s17.44,2.87,18.16,3.35,8.75,4.3,8.75,4.3L254.39,410,195.16,423.6Z"/><path class="cls-9" d="M346.69,465.72c-1,5.1-6.73,8.43-13.59,8.25-.62,7.53-5.22,13.38-10.8,13.38-3.36,0-6.36-2.12-8.35-5.45a18.53,18.53,0,0,0-.58-3.41,9.17,9.17,0,0,1-.69.81,17,17,0,0,0,1.27,2.6q.09.9.09,1.83c0,8.37-4.87,15.15-10.87,15.15-3.49,0-6.59-2.28-8.57-5.84-1.61,5.55-5.52,9.46-10.08,9.46-3.19,0-6.06-1.92-8.06-5-1,6.84-5.41,12-10.64,12a9.55,9.55,0,0,1-7.54-4.24c-1.89,4.46-5.38,7.45-9.36,7.45s-7.25-2.8-9.17-7c-1.93,4.22-5.32,7-9.17,7-4.25,0-7.93-3.39-9.72-8.33-2,3.14-4.89,5.12-8.13,5.12-3,0-5.71-1.69-7.67-4.42-2,2.73-4.69,4.42-7.68,4.42-3.49,0-6.6-2.29-8.59-5.86-1.67,5.34-5.5,9.07-9.95,9.07-3.64,0-6.86-2.48-8.83-6.31-2,3.83-5.19,6.31-8.83,6.31-4.17,0-7.79-3.26-9.61-8.06-2,3-4.82,4.85-8,4.85-4.47,0-8.31-3.75-10-9.11-2,3.09-4.88,5-8.1,5-5,0-9.2-4.69-10.47-11.08h-.4a7.68,7.68,0,0,1-2.34-.36c-2,3.52-5.07,5.78-8.54,5.78-4.33,0-8.07-3.52-9.82-8.62a9.11,9.11,0,0,1-6.68,3.2c-5.44,0-10-5.57-10.75-12.82-4.73,1.43-9.35.63-11.9-2.52-3.78-4.67-1.58-12.72,4.93-18a22.11,22.11,0,0,1,2.08-1.49C73,453.38,77.14,448.91,82,448.91s8.92,4.38,10.33,10.46a8.75,8.75,0,0,1,5.79-2.32c4.67,0,8.64,4.09,10.19,9.83a9,9,0,0,1,6.32-2.82c4.3,0,8,3.49,9.79,8.55,2-3.27,5-5.35,8.28-5.35,4.5,0,8.36,3.81,10,9.23a9.58,9.58,0,0,1,7.58-4.29c3.63,0,6.85,2.48,8.82,6.31,2-3.83,5.19-6.31,8.83-6.31s6.69,2.36,8.68,6c1.73-5.16,5.5-8.73,9.86-8.73s8.13,3.57,9.86,8.73c-.2.37-.39.75-.56,1.15a6.28,6.28,0,0,1,.87-.12c-.09-.35-.2-.69-.31-1,2-3.66,5.13-6,8.68-6a8.81,8.81,0,0,1,6,2.52c2-3.2,4.92-5.23,8.21-5.23,4,0,7.51,3,9.4,7.51,1.88-4.49,5.38-7.51,9.39-7.51,3.07,0,5.84,1.77,7.82,4.61,1.94-4.12,5.29-6.84,9.09-6.84,3.55,0,6.7,2.37,8.68,6,1.65-5.43,5.52-9.24,10-9.24,3.1,0,5.89,1.81,7.87,4.71,1.72-5.19,5.49-8.78,9.87-8.78a8.4,8.4,0,0,1,4.65,1.45c1.63-5.47,5.51-9.33,10-9.33a8.63,8.63,0,0,1,5.53,2.11c.95-7,5.37-12.32,10.69-12.32,4.75,0,8.79,4.24,10.27,10.15.41.05.82.11,1.23.19C342,453.78,347.79,459.81,346.69,465.72Z"/><path class="cls-9" d="M196.67,479.25a6.28,6.28,0,0,0-.87.12c.17-.4.36-.78.56-1.15C196.47,478.56,196.58,478.9,196.67,479.25Z"/><path class="cls-9" d="M196.67,479.25a6.28,6.28,0,0,0-.87.12c.17-.4.36-.78.56-1.15C196.47,478.56,196.58,478.9,196.67,479.25Z"/><path class="cls-9" d="M314,481.9a17,17,0,0,1-1.27-2.6,9.17,9.17,0,0,0,.69-.81A18.53,18.53,0,0,1,314,481.9Z"/><path class="cls-9" d="M314,481.9a17,17,0,0,1-1.27-2.6,9.17,9.17,0,0,0,.69-.81A18.53,18.53,0,0,1,314,481.9Z"/><polygon class="cls-8" points="84.3 456.37 136.08 411.6 194.68 423.36 253.92 409.8 317.3 450.49 248.27 485.76 147.56 485.76 84.3 456.37"/><polygon class="cls-3" points="136.56 411.84 195.16 423.6 154.87 369.75 136.56 411.84"/><polygon class="cls-3" points="259.11 414.96 195.16 423.6 242.55 367.3 259.11 414.96"/><ellipse class="cls-3" cx="165.34" cy="636.9" rx="31.28" ry="11.38"/><ellipse class="cls-8" cx="165.42" cy="626.4" rx="29.67" ry="13.52"/><path class="cls-3" d="M336.32,640.65c-2.27,10.52-38.71,1.11-42.29-1s-34.76-.4-33.54-9.47,22.28-9.32,34.32-7S338.59,630.13,336.32,640.65Z"/><path class="cls-8" d="M338,627c-4.74,16.89-28.58,9.76-39.63,5.87S255.24,636,262,615s26.6-2.46,41-7.85S342.74,610.12,338,627Z"/></g><g id="Lag_5" data-name="Lag 5"><path class="cls-8" d="M373.06,192.12c-9.93,7.65-18.73,4.16-22.49-5.29-3.1-7.82-5.72-16.44-1.93-22.36a7,7,0,0,1-6.61-3.55,6.81,6.81,0,0,1,.31-6.64c-7,.29-12.94-6.51-17.71-13.63-5.76-8.61-4.84-15.42,6.15-21.44s19.15-1.2,21.39,8.72c1.82,8.07,3.07,16.83-1.33,22.13a6.76,6.76,0,0,1,5.25,3.5,6.64,6.64,0,0,1,.16,5.71c6.83-1.34,13.75,4.44,19.55,10.72C382.84,177.6,383,184.47,373.06,192.12Z"/><rect class="cls-4" x="346.81" y="136.27" width="0.58" height="14.92" transform="translate(-11.71 32.42) rotate(-5.26)"/><rect class="cls-4" x="339.16" y="139.8" width="0.58" height="14.92" transform="translate(-4.71 283.16) rotate(-45)"/><rect class="cls-4" x="360.1" y="158.19" width="0.58" height="14.92" transform="translate(21.49 371.72) rotate(-55.99)"/><rect class="cls-4" x="352.99" y="163.4" width="0.58" height="14.92" transform="translate(-33.1 102.23) rotate(-15.74)"/><ellipse class="cls-4" cx="347.72" cy="154.85" rx="4.47" ry="1.11" transform="translate(-32.23 177.88) rotate(-27.47)"/><path class="cls-8" d="M168.83,85c8.75,9,6.3,18.12-2.65,23-7.41,4-15.67,7.58-22,4.5a7,7,0,0,1-2.75,7,6.8,6.8,0,0,1-6.64.46c1.1,6.9-5,13.61-11.48,19.17-7.88,6.72-14.76,6.6-22-3.62s-3.41-18.88,6.18-22.25c7.81-2.75,16.36-5,22.14-1.25a6.76,6.76,0,0,1,2.86-5.62,6.66,6.66,0,0,1,5.66-.82C136,98.92,141,91.38,146.53,84.89,153.27,77,160.08,76.08,168.83,85Z"/><rect class="cls-4" x="123.48" y="108.97" width="0.58" height="14.92" transform="translate(35.41 261.59) rotate(-101.92)"/><rect class="cls-4" x="127.87" y="116.17" width="0.58" height="14.92" transform="translate(152 300.1) rotate(-141.66)"/><rect class="cls-4" x="143.71" y="93.23" width="0.58" height="14.92" transform="translate(225.63 256.3) rotate(-152.65)"/><rect class="cls-4" x="149.71" y="99.69" width="0.58" height="14.92" transform="translate(108.09 286.66) rotate(-112.4)"/><ellipse class="cls-4" cx="134.75" cy="114.53" rx="1.11" ry="4.47" transform="matrix(0.83, -0.56, 0.56, 0.83, -41.05, 95.34)"/><path class="cls-3" d="M222.32,368.46c.61,6.73-3.29,9.75-8.4,8.76-4.23-.82-8.68-2.1-10.21-5.53a3.54,3.54,0,0,1-3.33,2,3.5,3.5,0,0,1-2.8-2.05c-1.77,3.27-6.33,4.05-10.71,4.19-5.29.16-8-2.21-7.62-9s4.69-9.09,9.59-7.27c4,1.48,8.13,3.42,9.23,6.95a3.23,3.23,0,0,1,5.45.17c1.28-3.51,5.66-5,10-5.87C218.69,359.83,221.7,361.73,222.32,368.46Z"/><polygon class="cls-4" points="197.78 368.13 197.65 368.41 190.84 364.77 190.97 364.49 197.78 368.13"/><polygon class="cls-4" points="210.84 364.89 210.96 365.17 203.98 368.43 203.86 368.15 210.84 364.89"/><polygon class="cls-4" points="211.44 372.38 211.36 372.69 204.04 370.42 204.12 370.12 211.44 372.38"/><ellipse class="cls-4" cx="199.29" cy="369.36" rx="2.41" ry="0.57" transform="translate(-184.13 540.03) rotate(-85.65)"/><polygon class="cls-4" points="197.44 369.91 197.51 370.21 190.07 372.01 190.01 371.7 197.44 369.91"/><path class="cls-8" d="M153.75,374.49c-1.67,6.05-5.68,9.91-8.95,8.61a5.52,5.52,0,0,1-2.89-3.45,3.94,3.94,0,0,1-3.2-.26c-1.89-1.1-2.8-3.85-2.67-7.22a4.7,4.7,0,0,1-3.5-.86c-2.1-1.59-2.82-4.95-2.16-8.68a6.09,6.09,0,0,1-4.81-2.82c-1.36-2.25-1.12-5.31.37-8.2-2.49-2-3.93-4.69-3.61-7.28.56-4.41,6-6.91,12.18-5.6,5.62,1.2,9.9,5.14,10.19,9.17a6.74,6.74,0,0,1,0,1.19,5.31,5.31,0,0,1-.39,1.43l.14.1c.14.11.27.22.41.35a7.59,7.59,0,0,1,2,5.4,3.29,3.29,0,0,1,1.48.46,5.89,5.89,0,0,1,2.5,4.31l.07,0C154.13,362.47,155.42,368.43,153.75,374.49Z"/><path class="cls-8" d="M147.26,355.16a5.87,5.87,0,0,0-.41-.46l-.14-.13a5.42,5.42,0,0,0,.82-1.44,5.88,5.88,0,0,0,.32-1.25A7.45,7.45,0,0,1,147.26,355.16Z"/><path class="cls-8" d="M243.27,372.29c-1.42,5.58.07,10.64,3.34,11.28a4.9,4.9,0,0,0,3.95-1.23,3.9,3.9,0,0,0,2.73,1.42c2.05.11,4.06-1.58,5.51-4.29a4.58,4.58,0,0,0,3.25,1.11c2.45-.17,4.58-2.44,5.75-5.68a5.78,5.78,0,0,0,5.23.23c2.15-1.07,3.36-3.58,3.48-6.6,3-.31,5.37-1.67,6.29-3.86,1.57-3.72-1.72-8.45-7.36-10.56-5.14-1.92-10.45-1-12.54,2a5.14,5.14,0,0,0-.53.94,4.58,4.58,0,0,0-.34,1.32h-.16l-.49.07a6.49,6.49,0,0,0-4.11,3.21,3.35,3.35,0,0,0-1.42-.39,5.18,5.18,0,0,0-4,2.1h-.06C248.49,362.7,244.7,366.7,243.27,372.29Z"/></g></svg>