<svg xmlns="http://www.w3.org/2000/svg" width="400" height="400" viewBox="0 0 400 400"><defs><style>.cls-1{fill:#777691;}.cls-2{fill:#f7daea;}.cls-3{fill:#fff;}</style></defs><g id="Lag_8" data-name="Lag 8"><polygon class="cls-1" points="323.33 87.96 323.33 98.39 317.73 110.02 308.9 120.85 299.68 130.87 292.87 137.29 286.05 145.71 283.24 155.34 281.24 166.56 278.82 176.19 270.4 185.81 276.43 197.44 279.23 207.07 280.83 216.29 282.04 222.71 285.25 230.73 292.46 237.95 300.49 243.96 307.3 249.98 311.71 257.6 315.31 266.82 316.13 273.64 316.13 280.86 314.51 286.07 312.51 275.64 308.11 267.62 304.1 264.01 299.27 260 293.67 256.39 288.45 253.99 281.24 251.18 274.42 247.57 268 246.37 262.38 242.76 258.77 239.55 252.76 234.74 250.75 231.13 248.34 227.12 247.15 223.11 245.94 218.7 244.74 214.29 243.13 210.28 241.53 204.26 239.93 200.65 235.51 202.66 231.91 206.27 226.69 219.9 220.68 231.13 224.5 230.18 228 230.18 232.13 231.61 235.63 233.2 238.66 234.95 242.31 237.5 245.01 240.68 246.93 244.49 248.03 248.79 248.84 255.31 250.26 261.83 252.66 266.44 256.63 272.16 262.19 279.48 250.43 275.98 244.38 273.91 237.22 270.42 229.44 265.8 221.65 259.76 216.07 253.88 210.99 248.79 206.1 242.35 202.24 244.36 189.79 249.58 173.35 253.99 160.13 255.19 148.09 254.39 149.75 255.31 153.09 257.69 155.97 259.12 159.47 260.08 163.28 261.19 166.94 262.78 169.63 264.69 172.5 267.23 175.69 270.73 177.12 275.19 178.38 280.27 180.78 286.07 182.68 289.34 185.85 289.98 189.35 292.52 192.69 296.02 194.93 299.99 197.94 305.72 202.24 315.1 199.38 310.17 195.72 306.99 191.26 304.45 186.97 302.38 179.97 299.99 174.09 297.77 168.84 295.7 164.4 293.47 158.82 290.45 153.9 287.11 148.97 282.82 143.09 276.3 139.43 270.42 137.51 271.85 136.41 274.55 135.28 278.84 135.28 288.7 134.18 291.88 131.47 296.02 129.41 298.4 125.75 302.06 122.56 306.04 120.8 310.33 120.8 314.47 121.78 320.03 125.75 329.57 120.8 324.96 116.36 319.24 114.45 313.51 113.19 307.31 113.19 292.68 114.45 285.36 116.53 276.94 119.06 268.03 121.61 261.19 125.11 253.24 128.41 246.01 125.23 244.36 111.19 236.34 99.97 228.72 89.94 219.9 85.53 214.29 81.13 208.27 86.73 203.46 83.53 199.05 81.13 195.04 83.92 190.63 94.36 185.41 102.78 177.79 112.41 170.17 112.55 170.08 111.19 170.17 114.81 154.53 117.22 142.5 121.22 130.47 129.25 120.85 137.66 112.43 145.69 106.41 158.51 101.2 172.16 97.19 182.59 94.78 192.6 91.17 203.03 84.35 194.62 94.78 191 103.2 189.79 112.83 190.6 118.84 195.01 127.26 201.03 131.67 208.25 140.1 211.85 147.31 215.47 156.14 216.47 162.19 217.88 163.36 224.69 168.57 230.71 170.57 234.72 167.37 241.94 160.15 250.35 151.33 257.18 140.9 264.38 128.87 272.42 121.65 279.23 115.23 290.06 109.62 297.68 107.21 302.88 107.21 308.11 104.81 315.73 97.99 323.33 87.96"/><polygon class="cls-2" points="353.86 276.14 341.03 271.33 334.17 267.76 353.86 276.14"/><polygon class="cls-2" points="353.86 276.14 341.03 271.33 334.17 267.76 353.86 276.14"/><path d="M137,154.66c.34-2,3.32-10.94,3.32-10.94l3.31-6.3,6-8.61,6-7.3,9.62-7.29"/><polyline points="138.49 154.66 142.98 148.6 152.29 139.73 160.61 132.62 165.2 127.65 170.5 122.68 174.37 117.9 176.76 114.22 180.44 107.79"/><polyline points="123.98 151.37 123.98 143.83 126.37 137.76 130.97 132.62"/><polyline points="151.11 149.53 159.46 144.57 167.93 140.89 175.84 136.29 181.36 131.22 187.61 122.68"/><polyline points="183.38 143.47 189.08 140.52 194.41 136.11 196.8 131.22"/><polyline points="198.09 151.37 201.77 150.45 204.9 147.88 206.37 144.38"/><polyline points="240.39 176.04 249.09 171.55 255.42 164.96 261.22 158.1 266.5 151.37 272.56 143.47 276.78 137.34 283.37 131.22 288.12 126.46 294.18 122.68 298.67 122.68 303.68 121.45 306.58 121.45"/><polyline points="238.28 183.55 244.08 183.55 251.47 179.07 260.43 173.53 265.44 168.26 269.92 163.25 275.73 157.69 279.42 154.41 282.85 150.91 285.48 149.53"/><polyline points="244.08 183.55 252.52 183.55 258.85 180.78 263.6 177.62 268.08 176.04 271.51 171.29 273.48 168.13 277.83 166.54 280.21 166.54"/><polyline points="246.72 188.96 253.58 188.96 262.15 194.23 267.81 199.77 272.3 206.96 277.04 213.22 280.21 219.54"/><polyline points="248.04 199.24 254.1 201.35 259.64 205.57 263.46 210.84 268.08 216.38 272.03 221.92 275.46 227.19 280.21 232.99 289.44 238.79"/><polyline points="248.04 206.96 253.58 213.48 257.53 219.54 260.43 227.46 265.7 234.05 273.48 240.9 282.32 245.91 289.44 247.5 297.08 250.4 302.1 253.03 309.21 259.1 313.17 266.22"/><polyline points="144.67 182.36 144.67 187.64 146.78 193.97 151.11 200.56 154.43 209.53 154.43 216.12 153.11 223.5 149.55 228.51 144.67 232.2 139.66 234.31 135.44 238.79"/><polyline points="207.17 243.28 214.02 245.12 219.03 248.02 222.72 251.19 226.41 256.46"/><polyline points="213.23 239.85 220.35 239.85 226.41 241.43 231.95 243.28 236.44 246.18 240.39 251.72"/><polyline points="224.04 247.76 232.48 251.72 238.28 256.46 244.08 260.94 248.04 264.11"/><polyline points="128.59 249.87 125.42 258.83 123.58 266.22 121.73 271.95 117.77 280.72"/><polyline points="130.43 253.03 128.59 267.76 124.89 277.56 121.2 286.52 116.45 295.23"/><polyline points="135.44 253.03 142.56 267.76 150.74 276.14 158.65 284.15 165.77 288.37 178.42 295.23"/><polyline points="144.93 254.62 148.1 260.68 153.37 265.3 160.23 267.76 167.61 270.17"/><circle cx="118.83" cy="193.97" r="11.6"/><circle class="cls-3" cx="115.33" cy="195.48" r="4.94"/><polyline points="169.36 163.12 174.7 166.54 176.39 169.88 172.88 173.5 167.61 173.5 180.44 177.36 180.44 180.74 178.42 185.08 177.11 188.96 174.02 191.6 171.32 191.6 167.61 188.96 172.77 195.48 173.25 199.24 172.53 202.7 169.36 200.43 172.05 206.96 172.05 210.58 170.36 214.28 165.2 215.25 167.61 217.66 169.36 221.04 167.61 224.66 165.2 227.07 161.91 227.07"/></g></svg>