<svg xmlns="http://www.w3.org/2000/svg" width="1367" height="919" viewBox="0 0 1367 919"><defs><style>.cls-1{fill:#3d3936;}.cls-2{fill:#d6e4c2;}.cls-3{fill:#f9f6ca;}.cls-4{fill:#fcf6ce;}.cls-5{fill:#bfc4b7;}.cls-6{fill:#fff;}.cls-7{fill:#f0e9e7;}.cls-8{fill:#fcfbf9;}.cls-9{fill:#9e9690;}.cls-10{fill:#727170;}.cls-11{fill:#514f4e;}</style></defs><g id="Game_over" data-name="Game over"><rect class="cls-1" x="41" y="34" width="1277" height="849" rx="89.07"/><path class="cls-2" d="M288.26,662.67c7.71,4.86,12.49,11.59,12.49,19,0,6.95-4.18,13.3-11.05,18.07,27.91,9.14,51.06,30.24,59.17,51.48,11.24,29.41-76.33,33.73-96.42,33.13s-99.07-11-75.66-41.52c17-22.11,29.1-35.91,50.32-42.78-7.13-4.81-11.49-11.28-11.49-18.38,0-8.34,6-15.77,15.41-20.72-56.08-20.41-70-89-87-188.33-9.89-57.77-17-99.13-3.2-123.65,20.12,17.26,72.81,13.55,95.07,13.05,23-.54,109.23.92,138.87-17.95,19.76,10.06,14.65,30.22,11,84.89C379.79,516.57,350.13,638.05,288.26,662.67Z"/><path class="cls-3" d="M205.43,292.17c2.66.14,5.31.35,7.88.62C210.6,292.63,208,292.44,205.43,292.17Z"/><path class="cls-3" d="M313.21,288.47a133.49,133.49,0,0,1-19,3.66C300.52,290.82,306.92,289.54,313.21,288.47Z"/><path class="cls-4" d="M205.43,292.17c2.66.14,5.31.35,7.88.62C210.6,292.63,208,292.44,205.43,292.17Z"/><path class="cls-4" d="M313.21,288.47a133.49,133.49,0,0,1-19,3.66C300.52,290.82,306.92,289.54,313.21,288.47Z"/><path class="cls-5" d="M372.8,317.13c5.11-5.22,6.07-11.25.87-18.1-4.24-5.58-10-9.06-16.84-11,1.93-1.2,2.92-2.5,2.74-3.88-.6-4.64-11.33-8.68-25.64-12-.76-6.2-8.43-13.86-26.91-23.1-66.22-33.16-1.92-49.26-50.54-36.5-47.62,12.51-79.89,39.4-79.62,62.17-20,5.68-34.05,13.28-29,22.74a14.35,14.35,0,0,0,3,3.87c-8.27,4.66-13.55,11.22-13.55,20-3.15,2.83-4.79,6.87-4.37,12.46A21.64,21.64,0,0,0,140.84,349c20.12,17.26,72.81,13.55,95.07,13.05,23-.54,109.23.92,138.87-17.95,5.6-3.55,9.17-7.82,9.93-13C385.68,324.48,381,320,372.8,317.13Zm-167.37-25c2.66.14,5.31.35,7.88.62C210.6,292.63,208,292.44,205.43,292.17Zm88.78,0c6.31-1.31,12.71-2.59,19-3.66A133.49,133.49,0,0,1,294.21,292.13Z"/><path class="cls-5" d="M205.43,292.17c2.66.14,5.31.35,7.88.62C210.6,292.63,208,292.44,205.43,292.17Z"/><path class="cls-5" d="M313.21,288.47a133.49,133.49,0,0,1-19,3.66C300.52,290.82,306.92,289.54,313.21,288.47Z"/><polygon class="cls-6" points="205.43 284.89 186.75 292.79 120.27 158.43 138.95 150.53 205.43 284.89"/><ellipse class="cls-7" cx="129.52" cy="154.3" rx="10.09" ry="1.93" transform="matrix(0.92, -0.39, 0.39, 0.92, -49.65, 62.2)"/><path class="cls-8" d="M206.15,405.31c.3-3.14-14.41-10.15-30.18-11.44s-35.86,2.12-36.16,5.26,20.06-3.06,35.83-1.77S205.85,408.45,206.15,405.31Z"/><path class="cls-8" d="M301.52,407.12c0-3.06-18.68-8.5-37.88-8.32s-43,5.3-43,8.36,23.82-4.77,43-5S301.55,410.18,301.52,407.12Z"/><path class="cls-8" d="M384,399.2c-.3-2.73-17-6.2-33.66-4.62s-36.92,7.91-36.62,10.63,20.28-6,36.95-7.59S384.32,401.92,384,399.2Z"/><path class="cls-8" d="M223.28,548.18c9.31,48.52,29.15,94.05,27.85,94.27s-20.73-37.19-30-85.71S205,444.15,206.31,443.93,214,499.66,223.28,548.18Z"/><path class="cls-8" d="M304.67,537.62c-6.44,48.91-26,95.1-24.43,95.28s21.53-37.84,28-86.76,8.18-113.37,6.58-113.55S311.1,488.7,304.67,537.62Z"/><path class="cls-8" d="M284.78,702.62c0,1.68-11.24,4.94-22.92,5.1s-26.27-2.32-26.3-4,14.58,2.3,26.27,2.14S284.75,700.93,284.78,702.62Z"/><path class="cls-8" d="M284.78,663c0,1.69-11.24,5-22.92,5.11s-26.27-2.32-26.3-4,14.58,2.3,26.27,2.14S284.75,661.35,284.78,663Z"/><path class="cls-8" d="M324.06,758.3c0,1.78-28.59,13-59.07,13.47s-69.23-9.45-69.26-11.23,37.76,7.37,68.23,6.94S324,756.51,324.06,758.3Z"/><path class="cls-9" d="M198.62,207.15c-14.31,7.12,3.15,18.39-2.33,18.79s-14.66-16.34,0-24.73-13.76-38.24-4.69-30.55S212.93,200,198.62,207.15Z"/><path class="cls-9" d="M230.52,253.44c-14.51,7.18,3.2,18.54-2.36,18.94s-14.88-16.46,0-24.92-14-38.54-4.75-30.79S245,246.26,230.52,253.44Z"/><path class="cls-9" d="M239.09,170.44c-11.11,6.42,2.45,16.58-1.81,16.94s-11.39-14.73,0-22.3-10.69-34.48-3.64-27.54S250.2,164,239.09,170.44Z"/><path class="cls-9" d="M269.7,217.44c-12,6.8,2.63,17.56-1.95,17.94s-12.26-15.59,0-23.61-11.51-36.51-3.92-29.17S281.66,210.64,269.7,217.44Z"/><path class="cls-9" d="M303.31,259.1c-12.82,6.18,2.82,15.94-2.09,16.28s-13.13-14.15,0-21.42-12.32-33.13-4.19-26.47S316.12,252.93,303.31,259.1Z"/><path class="cls-9" d="M307.31,174.77c-12.82,6.3,2.82,16.26-2.09,16.61s-13.13-14.44,0-21.86-12.32-33.8-4.19-27S320.12,168.47,307.31,174.77Z"/><path class="cls-9" d="M330.21,216.27c-12.81,6.17,2.83,15.93-2.09,16.28s-13.13-14.15,0-21.43S315.83,178,324,184.66,343,210.09,330.21,216.27Z"/><ellipse class="cls-10" cx="134.66" cy="250.22" rx="8.4" ry="3.53" transform="translate(-129.38 355.23) rotate(-83.4)"/><path class="cls-9" d="M348.21,276.27c-12.81,6.17,2.83,15.93-2.09,16.28s-13.13-14.15,0-21.43S333.83,238,342,244.66,361,270.09,348.21,276.27Z"/><path class="cls-9" d="M176.21,267.27c-12.81,6.17,2.83,15.93-2.09,16.28s-13.13-14.15,0-21.43S161.83,229,170,235.66,189,261.09,176.21,267.27Z"/><ellipse cx="135.72" cy="260.85" rx="13.04" ry="7.92" transform="translate(-90.43 72.92) rotate(-22.79)"/><ellipse class="cls-11" cx="126.77" cy="253.49" rx="3.89" ry="8.26" transform="translate(-142.12 163.89) rotate(-45)"/><ellipse class="cls-10" cx="267.2" cy="275.12" rx="8.4" ry="3.53" transform="translate(-116.18 264.66) rotate(-44.27)"/><ellipse cx="261.32" cy="284.04" rx="7.92" ry="13.04" transform="translate(-84.77 454.89) rotate(-73.66)"/><ellipse class="cls-11" cx="259.02" cy="272.69" rx="3.89" ry="8.26" transform="translate(-26.54 27.94) rotate(-5.87)"/><ellipse class="cls-10" cx="367.78" cy="217.6" rx="8.4" ry="3.53" transform="translate(109.35 557.93) rotate(-83.4)"/><ellipse cx="368.84" cy="228.23" rx="13.04" ry="7.92" transform="translate(-59.61 160.66) rotate(-22.79)"/><ellipse class="cls-11" cx="359.89" cy="220.87" rx="3.89" ry="8.26" transform="translate(-50.77 319.18) rotate(-45)"/><ellipse class="cls-10" cx="280.83" cy="152.83" rx="8.4" ry="3.53" transform="translate(-37.11 186.53) rotate(-34.61)"/><ellipse cx="273.53" cy="160.63" rx="7.92" ry="13.04" transform="translate(9.22 336.02) rotate(-63.99)"/><ellipse class="cls-11" cx="273.17" cy="149.05" rx="8.26" ry="3.89" transform="translate(106.36 411.76) rotate(-86.2)"/><ellipse class="cls-10" cx="159.78" cy="163.6" rx="8.4" ry="3.53" transform="translate(-21.1 303.51) rotate(-83.4)"/><ellipse cx="160.84" cy="174.23" rx="13.04" ry="7.92" transform="translate(-54.93 75.89) rotate(-22.79)"/><ellipse class="cls-11" cx="151.89" cy="166.87" rx="3.89" ry="8.26" transform="translate(-73.51 156.28) rotate(-45)"/><path class="cls-6" d="M526.25,260c-8.08,2.31-18.48,3.63-27.55-3.3-5.94-4.45-10.89-11.88-11.06-25.41-.33-35.47,33-66.82,51.65-72.93,9.24-3,16.66-3.13,22.27,1a22.19,22.19,0,0,1,8.58,11.72c1.48,4.62,1.15,9.07-1.15,14.35-2,4.46-4.62,11.06-6.44,15.84-.49,1.32-1.65,2.48-3.46.83-3.8-2.64-6.44-7.43-4.29-15.68s8.25-17.49,4.62-21.12c-5.28-5.44-32.18,8.75-47.85,32.67-15.35,23.43-14.85,48.51-8.25,54.62,9.07,8.41,28.38-4,38.44-23.93-5.28,1-10.56,2-14.52,2.31-8.25.83-13.36-2.64-15.84-7.92-.82-1.65-.33-2.64,1.65-2.64,12.87-.16,25.41-4.29,35.48-4.45,8.25-.17,12.87,3.46,15,8.41.83,1.82.5,3-1.65,2.64a56.4,56.4,0,0,0-11.55.33C554.63,242.88,534.5,257.73,526.25,260Z"/><path class="cls-6" d="M624.26,195.36q2.24-3.21,4-1c2.48,3,3.8,10.07-.16,18.32-3.63,7.42-11.88,19.8-15.84,28.54-4.13,9.24-4.29,16.34,1.32,16,6.76-.33,15.84-11.55,21.61-22.94.83-1.48,2-1.65,2.64-.16s.66,5.61-1.48,10.23c-4.29,9.07-14.69,18.15-23.76,17.65-8.91-.49-13.53-5.77-13.53-13.53-5.28,6.77-12.71,12.87-20.63,12.87-15.34,0-18.48-21-4.78-40.92C587,201,600,193.55,608.26,193.55c7.09,0,10.39,5.44,10.06,11.88C620.47,201.47,622.45,198,624.26,195.36Zm-13.2,6.77c-5.28-.5-17.32,10.23-26.4,24.91-8.74,14.19-10.89,28.71-4.45,28.88,6.76.16,15.34-10.4,23.76-24.92C614.36,212.85,615.85,202.62,611.06,202.13Z"/><path class="cls-6" d="M683.66,194.21c5.61.16,8.58,8.91,6.44,16.17,7.92-7.76,19-15.51,24.42-15.35,5.94.17,7.26,9.9,4,18.15-3,7.43-11.05,18.32-15.17,26.57-4.62,9.4-2.31,17,3.63,16.83,6.76-.17,14.19-11.06,20.62-22.61.83-1.48,2.14-1.48,3-.33s.33,6.6-1.49,10.4c-4.61,9.4-15.17,17.65-24.74,17.65-14.36,0-19.64-11.38-13.53-24.91,6.1-13.7,20.78-32.18,18.31-33-1.32-.5-6.93,1.32-17.65,12-13.7,13.7-21.78,29.54-28.71,45.05-1,2-2.31,2.47-3.8.82-2.8-2.48-5.11-8.91-.33-20.79,5.45-13.69,23.27-36.46,20-37.62-2-.82-10.07,3.63-20.63,15.18-9.73,10.56-17.65,25.91-24.25,41.42-.66,1.48-1.65,2.14-3.14.82-3.63-3.13-4.45-8.58-1.65-17,3.47-10.4,15.51-33.66,25.91-49.17,1.15-1.82,2.47-1.65,3.46,0,2.81,4.62,2.31,11.05-.16,17.65C665.35,203.78,677.72,194,683.66,194.21Z"/><path class="cls-6" d="M747.85,256.91c13.69.66,25.73-12.54,32.83-23.43.82-1.32,2.14-1.32,2.8.16.66,1.32.17,5.94-2.8,10.23-6.93,10.07-19.64,17.66-32.34,17.82-21,.33-28.21-20.29-17.49-41.58s27.56-29.86,35.8-25.08a30.73,30.73,0,0,1,9.74,8.58c3,4,1.65,14-5.28,22.44C763,236,752,240.24,740.42,230.84,735.14,246,739.1,256.41,747.85,256.91Zm13.69-38c5.28-6.93,8.91-15.51,6.6-17.33-3.47-2.8-17.16,7.1-24.91,22.77-.5,1-1,2-1.32,2.81C750,232.32,756.75,225.23,761.54,219Z"/><path class="cls-6" d="M896.34,224.73c-13.37,24.59-34.15,43.89-56.59,35.64-13.53-5-18.81-17.32-18.81-30.85,0-35.15,30.85-65.67,49.5-72.27,9.56-3.3,17.81-1.49,22.44,3.3C913.33,169.46,908.71,202,896.34,224.73Zm-6.76-60.22c-8.09-3-29,8.25-44.55,32.34-15.84,24.58-16.17,52.47-4.95,57.25,10.89,4.62,30.36-8.58,44.21-34C899.31,192.56,898.65,167.81,889.58,164.51Z"/><path class="cls-6" d="M960.69,194.37c1.81-1.81,2.8-1.48,3.13.66.5,3.47-1.48,7.76-6.76,14.36-8.25,10.39-23.27,26.23-39.11,51.31-.82,1.32-1.65,2.48-3.3,1.65-6.43-3.14-8.74-6.43-8.25-15.18.66-11.55,5.12-35.14,10.73-52.3.66-1.82,2-2.48,3.3-1.32,5.44,4.62,6.27,10.72,4,20.79-3,12.7-6.27,21.94-8.58,39.93C927.52,235,949.47,205.92,960.69,194.37Z"/><path class="cls-6" d="M1040.22,261.53c-12.54-.66-17.49-11.88-13.37-25.25,3.47-11.05,13.37-23.26,20.46-31.18a38.39,38.39,0,0,1-19.8,6.27c-13.69,28.71-31.51,49.5-51.15,49.83-21,.33-28.05-20.13-17.32-41.25,10.39-20.46,27.22-29.7,35.47-24.92,4.13,2.48,7.1,4.79,9.74,8.42,2.8,4,1.15,13.69-5.45,22.11-7.75,10.06-18.81,14.19-30.36,4.95-5.28,15-1.15,25.74,7.26,26.07,18.15.82,36.3-25.25,45.38-46.2-12.71-5.28,3.46-27.23,10.39-27.56,5.12-.16,3.47,9.9-.66,20.63,5.78-.83,11.55-3.47,18-7.76,2-1.32,3.46-2.14,4.62-.49,3.3,3.63,7.42,11.55,2.47,17-7.75,8.58-16.17,19.8-19,28.71-2.81,9.08-.83,15.68,4.12,15.84,6.93.33,15.35-10.56,20.63-22.77.66-1.32,1.81-1.65,2.47-.16.82,1.81,1.15,6.1-.82,10.72C1059.19,254.43,1049.29,262,1040.22,261.53ZM989.4,218.79c5.28-6.76,8.74-15.34,6.6-17.16-3.63-3.13-17.16,7.26-24.75,22.44-.5.83-.83,2-1.32,2.81C978,231.83,984.45,225.06,989.4,218.79Z"/><path class="cls-6" d="M1080.15,261c-2,2.47-6.77,1.49-9.08-2.31a10,10,0,0,1,.83-12c2.47-2.64,7.26-.83,9.4,3.79A10.63,10.63,0,0,1,1080.15,261Zm42.4-103.12c2.15,4.62,1.82,12.7-5,24.91-9.07,16.34-22.93,42.24-31.35,60.56-.82,1.65-1.48,2-2.8.66-2.48-2.64-4.13-8.09-.5-18,6.6-17.65,23.1-50.32,35.47-68.47C1119.75,155.6,1121.56,155.6,1122.55,157.91Z"/><path class="cls-6" d="M509.62,369.85a32.16,32.16,0,0,1-1,8.42,17.36,17.36,0,0,1-2.86,6.07,12,12,0,0,1-4.48,3.69,13.32,13.32,0,0,1-5.8,1.24h-8.36V350.33h8.41a13.5,13.5,0,0,1,5.81,1.23,11.9,11.9,0,0,1,4.45,3.72,18,18,0,0,1,2.83,6.13A32.43,32.43,0,0,1,509.62,369.85Zm-3.79,0a28.84,28.84,0,0,0-.8-7.2,15.39,15.39,0,0,0-2.2-5,9.31,9.31,0,0,0-3.3-3,8.71,8.71,0,0,0-4.1-1h-4.51V386h4.51a8.6,8.6,0,0,0,4.1-1,9.21,9.21,0,0,0,3.3-3,15.31,15.31,0,0,0,2.2-5A28.28,28.28,0,0,0,505.83,369.85Z"/><path class="cls-6" d="M520.07,362v17.6a24.51,24.51,0,0,0,.14,2.55,8,8,0,0,0,.6,2.37,4.84,4.84,0,0,0,1.3,1.76,3.4,3.4,0,0,0,2.25.69,4.18,4.18,0,0,0,2.45-.75,6.08,6.08,0,0,0,1.81-2,11.35,11.35,0,0,0,1.16-3,14.82,14.82,0,0,0,.41-3.49V362h3.63v20.4c0,.59,0,1.22,0,1.9s0,1.34,0,2,0,1.24.06,1.79,0,.95.08,1.21h-3.52c-.07-.7-.13-1.54-.16-2.53s-.06-1.93-.06-2.81h-.11a9.72,9.72,0,0,1-2.53,4.48,6,6,0,0,1-4.4,1.74,6.08,6.08,0,0,1-3.55-.94,6.15,6.15,0,0,1-2.06-2.45,11.28,11.28,0,0,1-1-3.38,28,28,0,0,1-.25-3.79V362Z"/><path class="cls-6" d="M562,350.16a5.1,5.1,0,0,0-1.59-.27,3,3,0,0,0-1.85.55,3.87,3.87,0,0,0-1.18,1.43,6.58,6.58,0,0,0-.6,2,16.07,16.07,0,0,0-.17,2.33V362h4.62v3h-4.62v24.31H553V365h-3.68v-3H553v-5.78a12.29,12.29,0,0,1,1.7-6.79,5.93,5.93,0,0,1,5.34-2.61,7.16,7.16,0,0,1,2.26.33Zm8,3.47a2.53,2.53,0,0,1-.75,1.89,2.29,2.29,0,0,1-1.67.75,2.26,2.26,0,0,1-1.74-.75,2.64,2.64,0,0,1-.68-1.89,2.68,2.68,0,0,1,.68-1.87,2.31,2.31,0,0,1,3.44,0A2.62,2.62,0,0,1,570,353.63Zm-4.29,35.64V362h3.63v27.28Z"/><path class="cls-6" d="M590.91,389.27l-9.35-13.75h-.11v13.75h-3.63V347.69h3.63V374h.11l8.8-12h4.35l-9.79,12.65,10.39,14.63Z"/><path class="cls-6" d="M614.23,353.63a2.59,2.59,0,0,1-.72,1.89,2.34,2.34,0,0,1-3.43,0,2.65,2.65,0,0,1-.69-1.89,2.69,2.69,0,0,1,.69-1.87,2.33,2.33,0,0,1,3.46,0A2.69,2.69,0,0,1,614.23,353.63ZM610,389.27V362h3.63v27.28Z"/><path class="cls-6" d="M635.18,389.27l-9.35-13.75h-.11v13.75h-3.63V347.69h3.63V374h.11l8.8-12H639l-9.79,12.65,10.39,14.63Z"/><path class="cls-6" d="M657.18,389.27l-9.35-13.75h-.11v13.75h-3.63V347.69h3.63V374h.11l8.8-12H661l-9.79,12.65,10.39,14.63Z"/><path class="cls-6" d="M667.41,376.4a20.61,20.61,0,0,0,.39,4.15,12.65,12.65,0,0,0,1.13,3.3,6.19,6.19,0,0,0,1.88,2.2,4.56,4.56,0,0,0,2.68.8,4.38,4.38,0,0,0,3.21-1.21,8.3,8.3,0,0,0,1.88-2.92l2.75,1.6a10.56,10.56,0,0,1-2.94,4.15,7.39,7.39,0,0,1-5,1.68,8,8,0,0,1-7.1-3.85q-2.52-3.85-2.53-10.62a24.68,24.68,0,0,1,.66-5.88,15.2,15.2,0,0,1,1.89-4.62,9.2,9.2,0,0,1,3-3,7.51,7.51,0,0,1,4-1.07,7.63,7.63,0,0,1,4.08,1,7.93,7.93,0,0,1,2.71,2.86,13.44,13.44,0,0,1,1.51,4.24,27.3,27.3,0,0,1,.47,5.17v2Zm11.06-3a14.82,14.82,0,0,0-1.27-6.63,4.21,4.21,0,0,0-4-2.5,3.82,3.82,0,0,0-2.68,1,7.55,7.55,0,0,0-1.77,2.36,11.89,11.89,0,0,0-1,3,15.39,15.39,0,0,0-.3,2.8Z"/><path class="cls-6" d="M709.27,366.72a5.89,5.89,0,0,0-1.85-2,4.85,4.85,0,0,0-2.72-.74,3.65,3.65,0,0,0-2.88,1.29,4.94,4.94,0,0,0-1.13,3.39,4.08,4.08,0,0,0,1.1,3.19,10.38,10.38,0,0,0,3.3,1.81,17.84,17.84,0,0,1,2.2,1.08,8.16,8.16,0,0,1,2,1.56,7.75,7.75,0,0,1,1.4,2.23,7.86,7.86,0,0,1,.55,3.11,8.55,8.55,0,0,1-2.17,6.24,7.55,7.55,0,0,1-5.64,2.23,8.48,8.48,0,0,1-4.23-1.08,9.28,9.28,0,0,1-3.19-2.88l2.2-2.37a8.43,8.43,0,0,0,2.22,2.34,5.24,5.24,0,0,0,3.06.91,3.84,3.84,0,0,0,3.1-1.41,5.55,5.55,0,0,0,1.19-3.71,5.15,5.15,0,0,0-.44-2.23,4.72,4.72,0,0,0-1.16-1.51,7.37,7.37,0,0,0-1.62-1c-.6-.29-1.24-.57-1.9-.83a13.44,13.44,0,0,1-2-.93,7,7,0,0,1-1.74-1.43,7.1,7.1,0,0,1-1.24-2.12,8.52,8.52,0,0,1-.46-3,8.19,8.19,0,0,1,.58-3.13,6.9,6.9,0,0,1,1.62-2.45,7.77,7.77,0,0,1,2.39-1.6,7.48,7.48,0,0,1,2.94-.57,8.34,8.34,0,0,1,4,.9,8.07,8.07,0,0,1,2.72,2.34Z"/><path class="cls-6" d="M729,389.27c0-.3-.06-.66-.08-1.1s0-.91,0-1.41,0-1,0-1.43v-1.18h-.11q-1.38,5.84-6.6,5.83a6.31,6.31,0,0,1-2.31-.44,5.55,5.55,0,0,1-2.09-1.43,7.63,7.63,0,0,1-1.54-2.5,9.73,9.73,0,0,1-.61-3.66,9.49,9.49,0,0,1,1-4.78,8.1,8.1,0,0,1,2.64-2.86,9.51,9.51,0,0,1,3.49-1.41,20.27,20.27,0,0,1,3.6-.35h2.15v-1.43q0-3.58-1.32-5.23a4.34,4.34,0,0,0-3.58-1.65,5.32,5.32,0,0,0-2.86.83,8,8,0,0,0-2.25,2.09l-1.93-2.26a8.54,8.54,0,0,1,3.3-2.8,9.27,9.27,0,0,1,4.07-1q4.29,0,6.11,2.8t1.81,8.2v11.33c0,.36,0,.82,0,1.37s0,1.11.06,1.68,0,1.1.08,1.59.07.89.11,1.19Zm-.44-13.86h-2.2a14.73,14.73,0,0,0-2.64.24,6.12,6.12,0,0,0-2.33.94,5.28,5.28,0,0,0-1.68,1.9,6.49,6.49,0,0,0-.66,3.13,5.7,5.7,0,0,0,1.26,4.13,3.86,3.86,0,0,0,5.37.33,6.7,6.7,0,0,0,1.7-2.37,13.11,13.11,0,0,0,.91-3.13,21.16,21.16,0,0,0,.27-3.3Z"/><path class="cls-6" d="M746,362.84a6,6,0,0,1,4.47-1.73,5.46,5.46,0,0,1,4.35,1.89,6,6,0,0,1,1.15,2,13.8,13.8,0,0,1,.63,2.37h.11a11.19,11.19,0,0,1,.93-2.34,8.54,8.54,0,0,1,1.51-2,7.25,7.25,0,0,1,2.08-1.4,6.48,6.48,0,0,1,2.66-.52,6,6,0,0,1,3.51.93,6.45,6.45,0,0,1,2.05,2.45,11.12,11.12,0,0,1,1,3.41,29.94,29.94,0,0,1,.24,3.77v17.6h-3.63v-17.6a24.52,24.52,0,0,0-.13-2.56,9.14,9.14,0,0,0-.58-2.37,4.51,4.51,0,0,0-1.29-1.76,3.59,3.59,0,0,0-2.29-.68,4.07,4.07,0,0,0-2.39.74,5.91,5.91,0,0,0-1.79,2,12,12,0,0,0-1.1,3,16,16,0,0,0-.38,3.5v15.73h-3.63v-17.6a25.43,25.43,0,0,0-.14-2.59,9,9,0,0,0-.55-2.39,3.88,3.88,0,0,0-1.25-1.73,3.53,3.53,0,0,0-2.22-.66,4,4,0,0,0-2.41.74,6.31,6.31,0,0,0-1.77,2,10.59,10.59,0,0,0-1.12,3,15.45,15.45,0,0,0-.39,3.5v15.73H740V368.86c0-.58,0-1.22,0-1.9s0-1.33-.06-2,0-1.22,0-1.76,0-.94-.09-1.23h3.58c.07.69.13,1.54.16,2.53s.06,1.92.06,2.8h.11A8.92,8.92,0,0,1,746,362.84Z"/><path class="cls-6" d="M779,389.27V347.69h3.63v41.58Z"/><path class="cls-6" d="M793.09,376.4a21.39,21.39,0,0,0,.38,4.15,12.3,12.3,0,0,0,1.14,3.3,6,6,0,0,0,1.88,2.2,4.52,4.52,0,0,0,2.68.8,4.37,4.37,0,0,0,3.2-1.21,8.3,8.3,0,0,0,1.88-2.92l2.75,1.6a10.56,10.56,0,0,1-2.94,4.15,7.36,7.36,0,0,1-5,1.68A8,8,0,0,1,792,386.3q-2.54-3.85-2.53-10.62a25.22,25.22,0,0,1,.65-5.88,15,15,0,0,1,1.9-4.62,9.08,9.08,0,0,1,3-3,8.22,8.22,0,0,1,8.06,0A8,8,0,0,1,805.8,365a14,14,0,0,1,1.51,4.24,27.32,27.32,0,0,1,.46,5.17v2Zm11-3a14.69,14.69,0,0,0-1.27-6.63,4.2,4.2,0,0,0-4-2.5,3.84,3.84,0,0,0-2.68,1,7.55,7.55,0,0,0-1.77,2.36,11.49,11.49,0,0,0-1,3,14.64,14.64,0,0,0-.31,2.8Z"/><path class="cls-6" d="M821.74,389.76a7.29,7.29,0,0,1-1.81.22,4.33,4.33,0,0,1-4-2,10.33,10.33,0,0,1-1.18-5.28V365h-3.57v-3h3.52v-7.54h3.57V362h4.84v3h-4.84v17.1a6.89,6.89,0,0,0,.72,3.6,2.35,2.35,0,0,0,2.14,1.13,4,4,0,0,0,1-.14,6.38,6.38,0,0,0,.93-.3l.17,2.92A8.67,8.67,0,0,1,821.74,389.76Z"/><path class="cls-6" d="M851.94,389.27v-4.9h-.11a9.61,9.61,0,0,1-2.2,4.13,5.67,5.67,0,0,1-4.35,1.65,6.34,6.34,0,0,1-3.68-1.1,8.89,8.89,0,0,1-2.7-3.06,16.75,16.75,0,0,1-1.68-4.61,30.78,30.78,0,0,1,0-11.69,15.32,15.32,0,0,1,1.62-4.54,8.35,8.35,0,0,1,2.69-3,6.54,6.54,0,0,1,3.72-1.07,6.07,6.07,0,0,1,4.18,1.51,7.68,7.68,0,0,1,2.31,4h.11V347.69h3.63v41.58Zm0-13.64a26.51,26.51,0,0,0-.36-4.51,13.47,13.47,0,0,0-1.1-3.61,7.08,7.08,0,0,0-1.84-2.39,4,4,0,0,0-2.53-.88,3.94,3.94,0,0,0-2.56.88,6.86,6.86,0,0,0-1.79,2.39,13.17,13.17,0,0,0-1,3.61,28.87,28.87,0,0,0-.33,4.51,28,28,0,0,0,.33,4.42,13.6,13.6,0,0,0,1,3.61,6.8,6.8,0,0,0,1.79,2.42,4.15,4.15,0,0,0,5.11,0,7.1,7.1,0,0,0,1.82-2.42,13.94,13.94,0,0,0,1.1-3.61A25.69,25.69,0,0,0,851.94,375.63Z"/><path class="cls-6" d="M865.91,376.4a20.64,20.64,0,0,0,.38,4.15,12.65,12.65,0,0,0,1.13,3.3,6.19,6.19,0,0,0,1.88,2.2,4.57,4.57,0,0,0,2.69.8,4.37,4.37,0,0,0,3.2-1.21,8.3,8.3,0,0,0,1.88-2.92l2.75,1.6a10.56,10.56,0,0,1-2.94,4.15,7.36,7.36,0,0,1-5,1.68,8,8,0,0,1-7.09-3.85q-2.53-3.85-2.53-10.62a24.69,24.69,0,0,1,.65-5.88,15,15,0,0,1,1.9-4.62,9.08,9.08,0,0,1,3-3,7.51,7.51,0,0,1,4-1.07,7.61,7.61,0,0,1,4.08,1,8,8,0,0,1,2.72,2.86,13.69,13.69,0,0,1,1.5,4.24,27.3,27.3,0,0,1,.47,5.17v2Zm11.05-3a14.69,14.69,0,0,0-1.27-6.63,4.21,4.21,0,0,0-4-2.5,3.84,3.84,0,0,0-2.68,1,7.55,7.55,0,0,0-1.77,2.36,11.89,11.89,0,0,0-1,3,15.39,15.39,0,0,0-.3,2.8Z"/><path class="cls-6" d="M901.6,353.63a2.59,2.59,0,0,1-.72,1.89,2.34,2.34,0,0,1-3.43,0,2.65,2.65,0,0,1-.69-1.89,2.69,2.69,0,0,1,.69-1.87,2.33,2.33,0,0,1,3.46,0A2.69,2.69,0,0,1,901.6,353.63Zm-4.23,35.64V362H901v27.28Z"/><path class="cls-6" d="M923.43,389.27v-17.6a24.52,24.52,0,0,0-.13-2.56,8.09,8.09,0,0,0-.61-2.37,4.57,4.57,0,0,0-1.32-1.76,3.49,3.49,0,0,0-2.23-.68,4.14,4.14,0,0,0-2.44.74,6.2,6.2,0,0,0-1.82,2,11.63,11.63,0,0,0-1.15,3,14.4,14.4,0,0,0-.42,3.5v15.73h-3.63V368.86c0-.58,0-1.22,0-1.9l-.06-2c0-.64,0-1.22-.05-1.76s0-.94-.09-1.23H913c.08.69.13,1.54.17,2.53s.05,1.92.05,2.8h.11a10,10,0,0,1,2.53-4.48,6,6,0,0,1,4.4-1.73,6.13,6.13,0,0,1,3.55.93,6.06,6.06,0,0,1,2.06,2.45,11.4,11.4,0,0,1,1,3.41,29.94,29.94,0,0,1,.24,3.77v17.6Z"/><path class="cls-6" d="M952.47,388.88a29.27,29.27,0,0,1-.46,5.39,13,13,0,0,1-1.57,4.29,8,8,0,0,1-3,2.86,9.47,9.47,0,0,1-4.68,1.05,10.67,10.67,0,0,1-5-1.24A10.48,10.48,0,0,1,934,397.9l2.37-2.53a8.69,8.69,0,0,0,2.78,2.75,6.92,6.92,0,0,0,3.76,1.05,5.43,5.43,0,0,0,3-.77,5.17,5.17,0,0,0,1.84-2.15,11.14,11.14,0,0,0,.94-3.24,29.13,29.13,0,0,0,.27-4.13v-4.51h-.11a9.5,9.5,0,0,1-2.2,4.13,5.63,5.63,0,0,1-4.34,1.65,6.39,6.39,0,0,1-3.69-1.1,9,9,0,0,1-2.69-3.06,16.75,16.75,0,0,1-1.68-4.61,28.12,28.12,0,0,1-.58-5.86,29.09,29.09,0,0,1,.55-5.83,15.61,15.61,0,0,1,1.63-4.54,8.35,8.35,0,0,1,2.69-3,6.53,6.53,0,0,1,3.71-1.07,6.16,6.16,0,0,1,4.21,1.51,7.52,7.52,0,0,1,2.34,4H949V362h3.52ZM949,375.63a27.44,27.44,0,0,0-.35-4.46,14,14,0,0,0-1.1-3.63,6.91,6.91,0,0,0-1.85-2.42,4,4,0,0,0-2.53-.88,3.91,3.91,0,0,0-2.55.88,6.74,6.74,0,0,0-1.79,2.39,13.16,13.16,0,0,0-1,3.61,28.87,28.87,0,0,0-.33,4.51,28,28,0,0,0,.33,4.42,13.59,13.59,0,0,0,1,3.61,6.68,6.68,0,0,0,1.79,2.42,4.15,4.15,0,0,0,5.11,0,7.17,7.17,0,0,0,1.82-2.39,13.59,13.59,0,0,0,1.1-3.58A27.24,27.24,0,0,0,949,375.63Z"/><path class="cls-6" d="M967.16,362.76a5,5,0,0,1,3.63-1.6,2.73,2.73,0,0,1,.66.06l-.11,3.74a2.45,2.45,0,0,0-.41-.08,3.18,3.18,0,0,0-.47,0,3.64,3.64,0,0,0-2.45.93,7.63,7.63,0,0,0-1.79,2.42,14,14,0,0,0-1.07,3.38,20.29,20.29,0,0,0-.36,3.77v13.92h-3.63V368.86c0-.58,0-1.22,0-1.9l-.06-2c0-.64,0-1.22-.05-1.76s0-.94-.09-1.23h3.52c.08.69.13,1.56.17,2.61s0,2.15,0,3.33h.11A10.26,10.26,0,0,1,967.16,362.76Z"/><path class="cls-6" d="M977.66,376.4a20.61,20.61,0,0,0,.39,4.15,12.3,12.3,0,0,0,1.13,3.3,6.19,6.19,0,0,0,1.88,2.2,4.56,4.56,0,0,0,2.68.8,4.38,4.38,0,0,0,3.21-1.21,8.44,8.44,0,0,0,1.88-2.92l2.75,1.6a10.48,10.48,0,0,1-3,4.15,7.35,7.35,0,0,1-5,1.68,8,8,0,0,1-7.1-3.85Q974,382.45,974,375.68a24.68,24.68,0,0,1,.66-5.88,15.2,15.2,0,0,1,1.89-4.62,9.11,9.11,0,0,1,3-3,7.5,7.5,0,0,1,4-1.07,7.65,7.65,0,0,1,4.09,1,8,8,0,0,1,2.71,2.86,13.44,13.44,0,0,1,1.51,4.24,27.3,27.3,0,0,1,.47,5.17v2Zm11.06-3a14.82,14.82,0,0,0-1.27-6.63,4.21,4.21,0,0,0-4-2.5,3.82,3.82,0,0,0-2.68,1,7.55,7.55,0,0,0-1.77,2.36,11.51,11.51,0,0,0-1,3,15.39,15.39,0,0,0-.3,2.8Z"/><path class="cls-6" d="M1012.59,389.27v-4.9h-.11a9.61,9.61,0,0,1-2.2,4.13,5.67,5.67,0,0,1-4.35,1.65,6.34,6.34,0,0,1-3.68-1.1,9,9,0,0,1-2.7-3.06,16.75,16.75,0,0,1-1.68-4.61,30.78,30.78,0,0,1,0-11.69,15.32,15.32,0,0,1,1.62-4.54,8.35,8.35,0,0,1,2.69-3,6.57,6.57,0,0,1,3.72-1.07,6.07,6.07,0,0,1,4.18,1.51,7.68,7.68,0,0,1,2.31,4h.11V347.69h3.63v41.58Zm0-13.64a26.51,26.51,0,0,0-.36-4.51,13.47,13.47,0,0,0-1.1-3.61,7.08,7.08,0,0,0-1.84-2.39,4,4,0,0,0-2.53-.88,3.94,3.94,0,0,0-2.56.88,6.86,6.86,0,0,0-1.79,2.39,13.17,13.17,0,0,0-1,3.61,28.87,28.87,0,0,0-.33,4.51,28,28,0,0,0,.33,4.42,13.6,13.6,0,0,0,1,3.61,6.8,6.8,0,0,0,1.79,2.42,4.15,4.15,0,0,0,5.11,0,7.1,7.1,0,0,0,1.82-2.42,13.94,13.94,0,0,0,1.1-3.61A25.69,25.69,0,0,0,1012.59,375.63Z"/><path class="cls-6" d="M1028.81,353.63a2.62,2.62,0,0,1-.71,1.89,2.29,2.29,0,0,1-1.71.75,2.24,2.24,0,0,1-1.73-.75,2.65,2.65,0,0,1-.69-1.89,2.69,2.69,0,0,1,.69-1.87,2.33,2.33,0,0,1,3.46,0A2.69,2.69,0,0,1,1028.81,353.63Zm-4.23,35.64V362h3.63v27.28Z"/><path class="cls-6" d="M1038.66,376.4a20.64,20.64,0,0,0,.38,4.15,12.65,12.65,0,0,0,1.13,3.3,6.19,6.19,0,0,0,1.88,2.2,4.57,4.57,0,0,0,2.69.8,4.37,4.37,0,0,0,3.2-1.21,8.3,8.3,0,0,0,1.88-2.92l2.75,1.6a10.56,10.56,0,0,1-2.94,4.15,7.36,7.36,0,0,1-5,1.68,8,8,0,0,1-7.09-3.85q-2.54-3.85-2.53-10.62a24.69,24.69,0,0,1,.65-5.88,15,15,0,0,1,1.9-4.62,9.08,9.08,0,0,1,3-3,7.51,7.51,0,0,1,4-1.07,7.61,7.61,0,0,1,4.08,1,8,8,0,0,1,2.72,2.86,13.69,13.69,0,0,1,1.5,4.24,27.3,27.3,0,0,1,.47,5.17v2Zm11-3a14.69,14.69,0,0,0-1.27-6.63,4.21,4.21,0,0,0-4-2.5,3.84,3.84,0,0,0-2.68,1,7.55,7.55,0,0,0-1.77,2.36,11.89,11.89,0,0,0-1,3,15.39,15.39,0,0,0-.3,2.8Z"/><path class="cls-6" d="M1073.91,389.27v-17.6a24.55,24.55,0,0,0-.14-2.56,8.09,8.09,0,0,0-.6-2.37,4.57,4.57,0,0,0-1.32-1.76,3.49,3.49,0,0,0-2.23-.68,4.17,4.17,0,0,0-2.45.74,6.18,6.18,0,0,0-1.81,2,11.64,11.64,0,0,0-1.16,3,14.91,14.91,0,0,0-.41,3.5v15.73h-3.63V368.86c0-.58,0-1.22,0-1.9s0-1.33-.05-2,0-1.22-.06-1.76,0-.94-.08-1.23h3.52c.07.69.13,1.54.16,2.53s.06,1.92.06,2.8h.11a9.86,9.86,0,0,1,2.53-4.48,6,6,0,0,1,4.4-1.73,5.67,5.67,0,0,1,5.61,3.38,11.11,11.11,0,0,1,1,3.41,28.19,28.19,0,0,1,.25,3.77v17.6Z"/><path class="cls-6" d="M1096.18,366.72a5.86,5.86,0,0,0-1.84-2,4.87,4.87,0,0,0-2.72-.74,3.67,3.67,0,0,0-2.89,1.29,5,5,0,0,0-1.13,3.39,4.09,4.09,0,0,0,1.11,3.19,10.43,10.43,0,0,0,3.29,1.81,17.28,17.28,0,0,1,2.21,1.08,8.16,8.16,0,0,1,2,1.56,8,8,0,0,1,1.4,2.23,7.86,7.86,0,0,1,.55,3.11,8.6,8.6,0,0,1-2.17,6.24,7.55,7.55,0,0,1-5.64,2.23,8.54,8.54,0,0,1-4.24-1.08,9.34,9.34,0,0,1-3.18-2.88l2.19-2.37a8.61,8.61,0,0,0,2.23,2.34,5.21,5.21,0,0,0,3,.91,3.86,3.86,0,0,0,3.11-1.41,5.54,5.54,0,0,0,1.18-3.71,5.16,5.16,0,0,0-.43-2.23,4.72,4.72,0,0,0-1.16-1.51,7.88,7.88,0,0,0-1.62-1c-.61-.29-1.24-.57-1.9-.83a13.1,13.1,0,0,1-2-.93,6.73,6.73,0,0,1-3-3.55,8.51,8.51,0,0,1-.47-3,8.38,8.38,0,0,1,.58-3.13,7.06,7.06,0,0,1,1.63-2.45,7.77,7.77,0,0,1,2.39-1.6,7.48,7.48,0,0,1,2.94-.57,8.34,8.34,0,0,1,4,.9,8.17,8.17,0,0,1,2.72,2.34Z"/><path class="cls-6" d="M1106.47,376.4a20.61,20.61,0,0,0,.39,4.15,12,12,0,0,0,1.13,3.3,6.09,6.09,0,0,0,1.88,2.2,4.54,4.54,0,0,0,2.68.8,4.39,4.39,0,0,0,3.21-1.21,8.28,8.28,0,0,0,1.87-2.92l2.75,1.6a10.56,10.56,0,0,1-2.94,4.15,7.36,7.36,0,0,1-5,1.68,8,8,0,0,1-7.09-3.85q-2.53-3.85-2.53-10.62a24.68,24.68,0,0,1,.66-5.88,15.2,15.2,0,0,1,1.89-4.62,9.11,9.11,0,0,1,3-3,7.48,7.48,0,0,1,4-1.07,7.65,7.65,0,0,1,4.09,1,8,8,0,0,1,2.71,2.86,13.44,13.44,0,0,1,1.51,4.24,27.3,27.3,0,0,1,.47,5.17v2Zm11-3a14.69,14.69,0,0,0-1.27-6.63,4.19,4.19,0,0,0-4-2.5,3.84,3.84,0,0,0-2.68,1,7.7,7.7,0,0,0-1.77,2.36,11.49,11.49,0,0,0-1,3,15.49,15.49,0,0,0-.31,2.8Z"/><path class="cls-6" d="M1134,362.76a5,5,0,0,1,3.63-1.6,2.73,2.73,0,0,1,.66.06l-.11,3.74a2.27,2.27,0,0,0-.41-.08,3.18,3.18,0,0,0-.47,0,3.64,3.64,0,0,0-2.45.93,7.63,7.63,0,0,0-1.79,2.42,14,14,0,0,0-1.07,3.38,20.29,20.29,0,0,0-.36,3.77v13.92H1128V368.86c0-.58,0-1.22,0-1.9l-.06-2c0-.64,0-1.22-.05-1.76s0-.94-.09-1.23h3.52c.08.69.13,1.56.17,2.61s0,2.15,0,3.33h.11A10.35,10.35,0,0,1,1134,362.76Z"/><path class="cls-6" d="M491.14,419.63a2.66,2.66,0,0,1-.71,1.9,2.32,2.32,0,0,1-1.71.74,2.28,2.28,0,0,1-1.73-.74,2.92,2.92,0,0,1,0-3.77,2.34,2.34,0,0,1,3.47,0A2.72,2.72,0,0,1,491.14,419.63Zm-4.23,35.64V428h3.63v27.28Z"/><path class="cls-6" d="M513,455.27v-17.6a24.55,24.55,0,0,0-.14-2.56,7.79,7.79,0,0,0-.61-2.37,4.57,4.57,0,0,0-1.32-1.76,3.46,3.46,0,0,0-2.22-.68,4.15,4.15,0,0,0-2.45.74,6.2,6.2,0,0,0-1.82,2,11.63,11.63,0,0,0-1.15,3,14.4,14.4,0,0,0-.41,3.5v15.73h-3.63V434.86c0-.58,0-1.22,0-1.9s0-1.33-.06-2,0-1.22-.05-1.76,0-.94-.08-1.23h3.52c.07.69.12,1.54.16,2.53s.06,1.92.06,2.8h.11a9.77,9.77,0,0,1,2.53-4.48,6,6,0,0,1,4.4-1.73,6.1,6.1,0,0,1,3.54.93,6.16,6.16,0,0,1,2.07,2.45,11.7,11.7,0,0,1,1,3.41,30,30,0,0,1,.25,3.77v17.6Z"/><path class="cls-6" d="M538.5,455.27v-4.9h-.11a9.61,9.61,0,0,1-2.2,4.13,5.67,5.67,0,0,1-4.35,1.65,6.34,6.34,0,0,1-3.68-1.1,8.89,8.89,0,0,1-2.7-3.06,16.75,16.75,0,0,1-1.68-4.61,30.78,30.78,0,0,1,0-11.69,15.32,15.32,0,0,1,1.62-4.54,8.35,8.35,0,0,1,2.69-3,6.54,6.54,0,0,1,3.72-1.07,6.07,6.07,0,0,1,4.18,1.51,7.68,7.68,0,0,1,2.31,4h.11V413.69H542v41.58Zm0-13.64a26.51,26.51,0,0,0-.36-4.51,13.47,13.47,0,0,0-1.1-3.61,7.08,7.08,0,0,0-1.84-2.39,4,4,0,0,0-2.53-.88,3.94,3.94,0,0,0-2.56.88,6.86,6.86,0,0,0-1.79,2.39,13.17,13.17,0,0,0-1,3.61,28.87,28.87,0,0,0-.33,4.51,28,28,0,0,0,.33,4.42,13.6,13.6,0,0,0,1,3.61,6.8,6.8,0,0,0,1.79,2.42,4.15,4.15,0,0,0,5.11,0,7.1,7.1,0,0,0,1.82-2.42,13.94,13.94,0,0,0,1.1-3.61A25.69,25.69,0,0,0,538.5,441.63Z"/><path class="cls-6" d="M551.09,462.47h-3l3.19-13.64h3.63Z"/><path class="cls-6" d="M581.34,432.72a6,6,0,0,0-1.84-2,4.88,4.88,0,0,0-2.73-.74,3.65,3.65,0,0,0-2.88,1.29,5,5,0,0,0-1.13,3.39,4.12,4.12,0,0,0,1.1,3.19,10.38,10.38,0,0,0,3.3,1.81,17.17,17.17,0,0,1,2.2,1.08,8.16,8.16,0,0,1,1.95,1.56,7.75,7.75,0,0,1,1.4,2.23,7.86,7.86,0,0,1,.56,3.11,8.56,8.56,0,0,1-2.18,6.24,7.53,7.53,0,0,1-5.63,2.23,8.52,8.52,0,0,1-4.24-1.08,9.37,9.37,0,0,1-3.19-2.88l2.2-2.37a8.46,8.46,0,0,0,2.23,2.34,5.21,5.21,0,0,0,3,.91,3.87,3.87,0,0,0,3.11-1.41A5.54,5.54,0,0,0,579.8,448a5.15,5.15,0,0,0-.44-2.23,4.7,4.7,0,0,0-1.15-1.51,7.69,7.69,0,0,0-1.63-1c-.6-.29-1.24-.57-1.89-.83a13.1,13.1,0,0,1-2-.93,7.13,7.13,0,0,1-1.74-1.43,6.87,6.87,0,0,1-1.23-2.12,8.51,8.51,0,0,1-.47-3,8.19,8.19,0,0,1,.58-3.13,6.9,6.9,0,0,1,1.62-2.45,7.69,7.69,0,0,1,2.39-1.59,7.31,7.31,0,0,1,2.94-.58,8.34,8.34,0,0,1,4,.9,8.07,8.07,0,0,1,2.72,2.34Z"/><path class="cls-6" d="M607,441.68a24.29,24.29,0,0,1-.66,5.89,15.5,15.5,0,0,1-1.87,4.56,8.58,8.58,0,0,1-3,3,7.72,7.72,0,0,1-4,1,7.56,7.56,0,0,1-4-1,9,9,0,0,1-3-3,15.26,15.26,0,0,1-1.9-4.56,24.29,24.29,0,0,1-.66-5.89,26.13,26.13,0,0,1,.64-5.94,15.13,15.13,0,0,1,1.84-4.62,8.86,8.86,0,0,1,3-3,7.92,7.92,0,0,1,4-1,7.81,7.81,0,0,1,4,1,8.75,8.75,0,0,1,3,3,15.67,15.67,0,0,1,1.87,4.62A25,25,0,0,1,607,441.68Zm-3.74-.08a26.51,26.51,0,0,0-.35-4.5,13.71,13.71,0,0,0-1.08-3.59,6.74,6.74,0,0,0-1.78-2.39,4,4,0,0,0-2.56-.88,4.08,4.08,0,0,0-2.59.88,6.41,6.41,0,0,0-1.78,2.39,14.55,14.55,0,0,0-1,3.59,26.47,26.47,0,0,0-.36,4.5,25.43,25.43,0,0,0,.36,4.44,15.05,15.05,0,0,0,1,3.57,6.18,6.18,0,0,0,1.78,2.39,4.17,4.17,0,0,0,2.59.85,4.12,4.12,0,0,0,2.58-.85,6.1,6.1,0,0,0,1.79-2.39,15.05,15.05,0,0,0,1-3.57A25.47,25.47,0,0,0,603.28,441.6Z"/><path class="cls-6" d="M620.08,428.84a6,6,0,0,1,4.46-1.73,5.46,5.46,0,0,1,4.35,1.89,6,6,0,0,1,1.15,2,13.8,13.8,0,0,1,.63,2.37h.11a11.19,11.19,0,0,1,.93-2.34,8.54,8.54,0,0,1,1.51-2,7.25,7.25,0,0,1,2.08-1.4,6.48,6.48,0,0,1,2.66-.52,6,6,0,0,1,3.51.93,6.45,6.45,0,0,1,2,2.45,11.12,11.12,0,0,1,1,3.41,29.94,29.94,0,0,1,.24,3.77v17.6h-3.63v-17.6a24.52,24.52,0,0,0-.13-2.56,9.14,9.14,0,0,0-.58-2.37,4.51,4.51,0,0,0-1.29-1.76,3.59,3.59,0,0,0-2.29-.68,4.07,4.07,0,0,0-2.39.74,6,6,0,0,0-1.79,2,12,12,0,0,0-1.1,3,16,16,0,0,0-.38,3.5v15.73h-3.63v-17.6a25.43,25.43,0,0,0-.14-2.59,9,9,0,0,0-.55-2.39A3.88,3.88,0,0,0,625.6,431a3.53,3.53,0,0,0-2.22-.66,4,4,0,0,0-2.4.74,6.21,6.21,0,0,0-1.78,2,10.91,10.91,0,0,0-1.12,3,15.45,15.45,0,0,0-.39,3.5v15.73h-3.63V434.86c0-.58,0-1.22,0-1.9l-.06-2c0-.64,0-1.22-.05-1.76s0-.94-.09-1.23h3.58c.07.69.13,1.54.16,2.53s.06,1.92.06,2.8h.11A8.85,8.85,0,0,1,620.08,428.84Z"/><path class="cls-6" d="M682.54,426.89a13.13,13.13,0,0,1-.8,4.75,10.08,10.08,0,0,1-2.12,3.44,8.71,8.71,0,0,1-3,2.09,9.29,9.29,0,0,1-3.6.72h-5.72v17.38h-3.8V416.33h9.19a12.68,12.68,0,0,1,3.46.49,8.22,8.22,0,0,1,3.19,1.73,9.1,9.1,0,0,1,2.34,3.28A12.31,12.31,0,0,1,682.54,426.89Zm-3.8,0a10,10,0,0,0-.49-3.32,5.89,5.89,0,0,0-1.38-2.27,5.3,5.3,0,0,0-2-1.29,7,7,0,0,0-2.45-.41h-5.17v15h5.22a6,6,0,0,0,4.43-1.89Q678.75,430.81,678.74,426.92Z"/><path class="cls-6" d="M691.45,419.63a2.63,2.63,0,0,1-.72,1.9,2.28,2.28,0,0,1-1.7.74,2.25,2.25,0,0,1-1.73-.74,2.92,2.92,0,0,1,0-3.77,2.33,2.33,0,0,1,3.46,0A2.69,2.69,0,0,1,691.45,419.63Zm-4.24,35.64V428h3.63v27.28Z"/><path class="cls-6" d="M710.86,455.27l-5.44-11.44L700,455.27h-4l7.26-14.36L696.62,428h4.07l4.78,10.28L710.2,428h4l-6.54,12.87L715,455.27Z"/><path class="cls-6" d="M724.34,419.63a2.63,2.63,0,0,1-.72,1.9,2.28,2.28,0,0,1-1.7.74,2.25,2.25,0,0,1-1.73-.74,2.92,2.92,0,0,1,0-3.77,2.18,2.18,0,0,1,1.73-.77,2.21,2.21,0,0,1,1.73.77A2.69,2.69,0,0,1,724.34,419.63Zm-4.24,35.64V428h3.63v27.28Z"/><path class="cls-6" d="M734.18,442.4a20.61,20.61,0,0,0,.39,4.15,12.3,12.3,0,0,0,1.13,3.3,6.19,6.19,0,0,0,1.88,2.2,4.56,4.56,0,0,0,2.68.8,4.38,4.38,0,0,0,3.21-1.21,8.3,8.3,0,0,0,1.88-2.92l2.75,1.6a10.56,10.56,0,0,1-2.94,4.15,7.39,7.39,0,0,1-5,1.68,8,8,0,0,1-7.1-3.85q-2.52-3.85-2.53-10.62a24.68,24.68,0,0,1,.66-5.88,15.2,15.2,0,0,1,1.89-4.62,9.11,9.11,0,0,1,3-3,7.5,7.5,0,0,1,4-1.07,7.65,7.65,0,0,1,4.09,1,8,8,0,0,1,2.71,2.86,13.44,13.44,0,0,1,1.51,4.24,27.3,27.3,0,0,1,.47,5.17v2Zm11.06-3a14.82,14.82,0,0,0-1.27-6.63,4.21,4.21,0,0,0-4-2.5,3.82,3.82,0,0,0-2.68,1,7.55,7.55,0,0,0-1.77,2.36,11.89,11.89,0,0,0-1,3,15.39,15.39,0,0,0-.3,2.8Z"/><path class="cls-6" d="M783,441.68a24.29,24.29,0,0,1-.66,5.89,15.5,15.5,0,0,1-1.87,4.56,8.58,8.58,0,0,1-3,3,7.77,7.77,0,0,1-4,1,7.56,7.56,0,0,1-4-1,9,9,0,0,1-3-3,15,15,0,0,1-1.9-4.56,24.29,24.29,0,0,1-.66-5.89,26.15,26.15,0,0,1,.63-5.94,15.39,15.39,0,0,1,1.85-4.62,8.75,8.75,0,0,1,3-3,8,8,0,0,1,4-1,7.86,7.86,0,0,1,4,1,8.75,8.75,0,0,1,3,3,15.67,15.67,0,0,1,1.87,4.62A25,25,0,0,1,783,441.68Zm-3.74-.08a26.47,26.47,0,0,0-.36-4.5,13.34,13.34,0,0,0-1.07-3.59,6.65,6.65,0,0,0-1.79-2.39,3.91,3.91,0,0,0-2.55-.88,4.08,4.08,0,0,0-2.59.88,6.43,6.43,0,0,0-1.79,2.39,15,15,0,0,0-1,3.59,26.47,26.47,0,0,0-.36,4.5,25.43,25.43,0,0,0,.36,4.44,15.54,15.54,0,0,0,1,3.57,6.19,6.19,0,0,0,1.79,2.39,4.17,4.17,0,0,0,2.59.85,4.12,4.12,0,0,0,2.58-.85,6.1,6.1,0,0,0,1.79-2.39,14.61,14.61,0,0,0,1-3.57A25.43,25.43,0,0,0,779.28,441.6Z"/><path class="cls-6" d="M807,454.88a29.24,29.24,0,0,1-.47,5.39,12.82,12.82,0,0,1-1.56,4.29,8.07,8.07,0,0,1-3,2.86,9.47,9.47,0,0,1-4.68,1.05,10.64,10.64,0,0,1-5-1.24,10.39,10.39,0,0,1-3.77-3.33l2.37-2.53a8.66,8.66,0,0,0,2.77,2.75,7,7,0,0,0,3.77,1.05,5.43,5.43,0,0,0,3-.77,5.17,5.17,0,0,0,1.84-2.15,11.45,11.45,0,0,0,.94-3.24,29.13,29.13,0,0,0,.27-4.13v-4.51h-.11a9.5,9.5,0,0,1-2.2,4.13,5.65,5.65,0,0,1-4.34,1.65,6.35,6.35,0,0,1-3.69-1.1,9,9,0,0,1-2.69-3.06,16.13,16.13,0,0,1-1.68-4.61,27.46,27.46,0,0,1-.58-5.86,28.38,28.38,0,0,1,.55-5.83,15.91,15.91,0,0,1,1.62-4.54,8.46,8.46,0,0,1,2.7-3,6.53,6.53,0,0,1,3.71-1.07,6.18,6.18,0,0,1,4.21,1.51,7.59,7.59,0,0,1,2.34,4h.16V428H807Zm-3.52-13.25a26.33,26.33,0,0,0-.36-4.46,13.6,13.6,0,0,0-1.1-3.63,6.9,6.9,0,0,0-1.84-2.42,4.12,4.12,0,0,0-5.09,0,6.84,6.84,0,0,0-1.78,2.39,13.16,13.16,0,0,0-1,3.61,28.87,28.87,0,0,0-.33,4.51,28,28,0,0,0,.33,4.42,13.59,13.59,0,0,0,1,3.61,6.78,6.78,0,0,0,1.78,2.42,4.16,4.16,0,0,0,5.12,0,7.15,7.15,0,0,0,1.81-2.39,13.23,13.23,0,0,0,1.1-3.58A26.15,26.15,0,0,0,803.48,441.63Z"/><path class="cls-6" d="M825.87,455.27V416.33h3.84v35.36h11.12v3.58Z"/><path class="cls-6" d="M862.33,441.68a24.29,24.29,0,0,1-.66,5.89,15.5,15.5,0,0,1-1.87,4.56,8.69,8.69,0,0,1-3,3,7.72,7.72,0,0,1-4,1,7.61,7.61,0,0,1-4-1,8.92,8.92,0,0,1-3-3,15,15,0,0,1-1.9-4.56,24.29,24.29,0,0,1-.66-5.89,26.15,26.15,0,0,1,.63-5.94,15.39,15.39,0,0,1,1.84-4.62,8.86,8.86,0,0,1,3-3,7.92,7.92,0,0,1,4-1,7.81,7.81,0,0,1,4,1,8.86,8.86,0,0,1,3,3,15.67,15.67,0,0,1,1.87,4.62A25,25,0,0,1,862.33,441.68Zm-3.74-.08a26.47,26.47,0,0,0-.36-4.5,13.71,13.71,0,0,0-1.07-3.59,6.76,6.76,0,0,0-1.79-2.39,3.94,3.94,0,0,0-2.56-.88,4.05,4.05,0,0,0-2.58.88,6.43,6.43,0,0,0-1.79,2.39,14.56,14.56,0,0,0-1,3.59,26.47,26.47,0,0,0-.36,4.5,25.43,25.43,0,0,0,.36,4.44,15.06,15.06,0,0,0,1,3.57,6.19,6.19,0,0,0,1.79,2.39,4.36,4.36,0,0,0,5.17,0,6.19,6.19,0,0,0,1.79-2.39,15.06,15.06,0,0,0,1-3.57A25.43,25.43,0,0,0,858.59,441.6Z"/><path class="cls-6" d="M869.15,455.27V413.69h3.63v41.58Z"/><path class="cls-6" d="M892.69,455.27a10,10,0,0,1-.08-1.1q0-.66-.06-1.41c0-.49,0-1,0-1.43v-1.18h-.11Q891,456,885.81,456a6.31,6.31,0,0,1-2.31-.44,5.63,5.63,0,0,1-2.09-1.43,8,8,0,0,1-1.54-2.5,10,10,0,0,1-.6-3.66,9.6,9.6,0,0,1,1-4.78,8.29,8.29,0,0,1,2.64-2.86,9.56,9.56,0,0,1,3.5-1.41,20.09,20.09,0,0,1,3.6-.35h2.14v-1.43q0-3.58-1.32-5.23a4.33,4.33,0,0,0-3.57-1.65,5.29,5.29,0,0,0-2.86.83,8.17,8.17,0,0,0-2.26,2.09l-1.92-2.26a8.4,8.4,0,0,1,3.3-2.8,9.23,9.23,0,0,1,4.07-1q4.29,0,6.1,2.8t1.82,8.2v11.33c0,.36,0,.82,0,1.37s0,1.11,0,1.68,0,1.1.08,1.59.08.89.11,1.19Zm-.44-13.86h-2.2a14.73,14.73,0,0,0-2.64.24,6.23,6.23,0,0,0-2.34.94,5.28,5.28,0,0,0-1.68,1.9,6.49,6.49,0,0,0-.66,3.13,5.66,5.66,0,0,0,1.27,4.13,3.85,3.85,0,0,0,5.36.33,6.72,6.72,0,0,0,1.71-2.37,12.65,12.65,0,0,0,.9-3.13,20.05,20.05,0,0,0,.28-3.3Z"/><path class="cls-6" d="M922,455.27h-4.29L910.34,428h3.85l5.67,23.43H920L925.36,428h3.74Z"/><path class="cls-6" d="M938.5,419.63a2.66,2.66,0,0,1-.71,1.9,2.32,2.32,0,0,1-1.71.74,2.28,2.28,0,0,1-1.73-.74,2.92,2.92,0,0,1,0-3.77,2.34,2.34,0,0,1,3.47,0A2.72,2.72,0,0,1,938.5,419.63Zm-4.23,35.64V428h3.63v27.28Z"/><path class="cls-6" d="M946.37,455.27V413.69H950v41.58Z"/><path class="cls-6" d="M958.47,455.27V413.69h3.63v41.58Z"/><path class="cls-6" d="M972.55,442.4a21.39,21.39,0,0,0,.38,4.15,12.3,12.3,0,0,0,1.14,3.3,6,6,0,0,0,1.88,2.2,4.52,4.52,0,0,0,2.68.8,4.37,4.37,0,0,0,3.2-1.21,8.3,8.3,0,0,0,1.88-2.92l2.75,1.6a10.56,10.56,0,0,1-2.94,4.15,7.36,7.36,0,0,1-5,1.68,8,8,0,0,1-7.09-3.85q-2.54-3.85-2.53-10.62a25.22,25.22,0,0,1,.65-5.88,15,15,0,0,1,1.9-4.62,9.08,9.08,0,0,1,3-3,8.22,8.22,0,0,1,8.06,0,8,8,0,0,1,2.72,2.86,14,14,0,0,1,1.51,4.24,27.32,27.32,0,0,1,.46,5.17v2Zm11.05-3a14.69,14.69,0,0,0-1.27-6.63,4.2,4.2,0,0,0-4-2.5,3.84,3.84,0,0,0-2.68,1,7.55,7.55,0,0,0-1.77,2.36,11.49,11.49,0,0,0-1,3,14.64,14.64,0,0,0-.31,2.8Z"/><path class="cls-6" d="M1017.76,455.27v-17.6a24.55,24.55,0,0,0-.14-2.56,8.76,8.76,0,0,0-.58-2.37,4.32,4.32,0,0,0-1.29-1.76,3.49,3.49,0,0,0-2.23-.68,4.17,4.17,0,0,0-2.45.74,6.48,6.48,0,0,0-1.84,2,11,11,0,0,0-1.18,3,14.4,14.4,0,0,0-.41,3.5v15.73H1004V413.69h3.63v19.47h.11a9.27,9.27,0,0,1,2.46-4.35,6.06,6.06,0,0,1,4.38-1.7,5.64,5.64,0,0,1,5.59,3.38,11.4,11.4,0,0,1,1,3.41,30,30,0,0,1,.25,3.77v17.6Z"/><path class="cls-6" d="M1041.13,455.27c0-.3-.06-.66-.08-1.1s0-.91-.06-1.41,0-1,0-1.43v-1.18h-.11q-1.38,5.84-6.6,5.83a6.31,6.31,0,0,1-2.31-.44,5.55,5.55,0,0,1-2.09-1.43,7.63,7.63,0,0,1-1.54-2.5,9.73,9.73,0,0,1-.61-3.66,9.49,9.49,0,0,1,1-4.78,8.1,8.1,0,0,1,2.64-2.86,9.44,9.44,0,0,1,3.49-1.41,20.09,20.09,0,0,1,3.6-.35h2.15v-1.43q0-3.58-1.32-5.23a4.35,4.35,0,0,0-3.58-1.65,5.29,5.29,0,0,0-2.86.83,8,8,0,0,0-2.25,2.09l-1.93-2.26a8.4,8.4,0,0,1,3.3-2.8,9.23,9.23,0,0,1,4.07-1q4.29,0,6.11,2.8t1.81,8.2v11.33c0,.36,0,.82,0,1.37s0,1.11,0,1.68,0,1.1.09,1.59.07.89.11,1.19Zm-.44-13.86h-2.2a14.73,14.73,0,0,0-2.64.24,6.23,6.23,0,0,0-2.34.94,5.26,5.26,0,0,0-1.67,1.9,6.49,6.49,0,0,0-.66,3.13,5.7,5.7,0,0,0,1.26,4.13,3.85,3.85,0,0,0,5.36.33,6.6,6.6,0,0,0,1.71-2.37,13.11,13.11,0,0,0,.91-3.13,21.16,21.16,0,0,0,.27-3.3Z"/><path class="cls-6" d="M1060.22,455.27h-4.29L1048.61,428h3.85l5.67,23.43h.11l5.39-23.43h3.74Z"/><path class="cls-6" d="M1074.52,442.4a20.64,20.64,0,0,0,.38,4.15,12.3,12.3,0,0,0,1.14,3.3,6,6,0,0,0,1.88,2.2,4.52,4.52,0,0,0,2.68.8,4.37,4.37,0,0,0,3.2-1.21,8.3,8.3,0,0,0,1.88-2.92l2.75,1.6a10.56,10.56,0,0,1-2.94,4.15,7.36,7.36,0,0,1-5,1.68,8,8,0,0,1-7.09-3.85q-2.54-3.85-2.53-10.62a24.69,24.69,0,0,1,.65-5.88,15,15,0,0,1,1.9-4.62,9.08,9.08,0,0,1,3-3,8.22,8.22,0,0,1,8.06,0,8,8,0,0,1,2.72,2.86,13.69,13.69,0,0,1,1.5,4.24,27.3,27.3,0,0,1,.47,5.17v2Zm11-3a14.69,14.69,0,0,0-1.27-6.63,4.21,4.21,0,0,0-4-2.5,3.84,3.84,0,0,0-2.68,1,7.55,7.55,0,0,0-1.77,2.36,11.49,11.49,0,0,0-1,3,14.64,14.64,0,0,0-.31,2.8Z"/><path class="cls-6" d="M1110.21,419.63a2.66,2.66,0,0,1-.71,1.9,2.32,2.32,0,0,1-1.71.74,2.27,2.27,0,0,1-1.73-.74,2.92,2.92,0,0,1,0-3.77,2.33,2.33,0,0,1,3.46,0A2.69,2.69,0,0,1,1110.21,419.63ZM1106,455.27V428h3.63v27.28Z"/><path class="cls-6" d="M500.55,530.87V526h-.11a9.61,9.61,0,0,1-2.2,4.13,5.67,5.67,0,0,1-4.35,1.65,6.34,6.34,0,0,1-3.68-1.1,9,9,0,0,1-2.7-3,16.58,16.58,0,0,1-1.67-4.63,27.29,27.29,0,0,1-.58-5.85,28.38,28.38,0,0,1,.55-5.83,15.72,15.72,0,0,1,1.62-4.54,8.46,8.46,0,0,1,2.7-3,6.51,6.51,0,0,1,3.71-1.07,6.07,6.07,0,0,1,4.18,1.51,7.68,7.68,0,0,1,2.31,4h.11V489.29h3.63v41.58Zm0-13.64a26.59,26.59,0,0,0-.36-4.51,12.94,12.94,0,0,0-1.1-3.6,6.9,6.9,0,0,0-1.84-2.4,4.12,4.12,0,0,0-5.09,0,6.93,6.93,0,0,0-1.79,2.4,13.34,13.34,0,0,0-1,3.6,29,29,0,0,0-.33,4.51,28,28,0,0,0,.33,4.42,14,14,0,0,0,1,3.61,6.83,6.83,0,0,0,1.79,2.42,4.16,4.16,0,0,0,5.12,0,7,7,0,0,0,1.81-2.42,13.57,13.57,0,0,0,1.1-3.61A25.69,25.69,0,0,0,500.55,517.23Z"/><path class="cls-6" d="M514.52,518a21.47,21.47,0,0,0,.38,4.15,12.06,12.06,0,0,0,1.14,3.3,6.08,6.08,0,0,0,1.88,2.2,4.54,4.54,0,0,0,2.68.8,4.37,4.37,0,0,0,3.2-1.21,8.3,8.3,0,0,0,1.88-2.92l2.75,1.6a10.56,10.56,0,0,1-2.94,4.15,7.36,7.36,0,0,1-5,1.68,8,8,0,0,1-7.09-3.85q-2.53-3.85-2.53-10.62a25.28,25.28,0,0,1,.65-5.88,15,15,0,0,1,1.9-4.62,9.27,9.27,0,0,1,3-3,8.22,8.22,0,0,1,8.06,0,8,8,0,0,1,2.72,2.86,14,14,0,0,1,1.51,4.24,27.4,27.4,0,0,1,.46,5.17v2Zm11.05-3a14.61,14.61,0,0,0-1.27-6.62,4.19,4.19,0,0,0-4-2.51,3.88,3.88,0,0,0-2.68,1,7.71,7.71,0,0,0-1.77,2.37,11.75,11.75,0,0,0-1,3,14.64,14.64,0,0,0-.31,2.8Z"/><path class="cls-6" d="M542,504.36a5,5,0,0,1,3.63-1.6,2.73,2.73,0,0,1,.66.06l-.11,3.74-.42-.09-.46,0a3.62,3.62,0,0,0-2.45.93,7.49,7.49,0,0,0-1.79,2.42,13.49,13.49,0,0,0-1.07,3.39,20.11,20.11,0,0,0-.36,3.76v13.92H536V510.46c0-.58,0-1.22,0-1.9s0-1.33,0-2,0-1.23-.06-1.77a10.9,10.9,0,0,0-.08-1.23h3.52c.07.7.13,1.56.17,2.61s0,2.16,0,3.33h.11A10.18,10.18,0,0,1,542,504.36Z"/><path class="cls-6" d="M552.52,518a20.68,20.68,0,0,0,.39,4.15,12.06,12.06,0,0,0,1.13,3.3,6.18,6.18,0,0,0,1.88,2.2,4.56,4.56,0,0,0,2.68.8,4.38,4.38,0,0,0,3.21-1.21,8.44,8.44,0,0,0,1.88-2.92l2.75,1.6a10.58,10.58,0,0,1-3,4.15,7.35,7.35,0,0,1-5,1.68,8,8,0,0,1-7.1-3.85q-2.53-3.85-2.53-10.62a24.74,24.74,0,0,1,.66-5.88,15.2,15.2,0,0,1,1.89-4.62,9.2,9.2,0,0,1,3-3,7.48,7.48,0,0,1,4-1.07,7.65,7.65,0,0,1,4.09,1,8,8,0,0,1,2.71,2.86,13.44,13.44,0,0,1,1.51,4.24,27.38,27.38,0,0,1,.47,5.17v2Zm11.06-3a14.6,14.6,0,0,0-1.28-6.62,4.19,4.19,0,0,0-4-2.51,3.9,3.9,0,0,0-2.68,1,7.84,7.84,0,0,0-1.76,2.37,11.76,11.76,0,0,0-1,3,15.39,15.39,0,0,0-.3,2.8Z"/><path class="cls-6" d="M584.2,508.32a5.84,5.84,0,0,0-1.84-1.95,4.8,4.8,0,0,0-2.72-.75,3.63,3.63,0,0,0-2.89,1.3,5,5,0,0,0-1.13,3.38,4.12,4.12,0,0,0,1.1,3.19,10.38,10.38,0,0,0,3.3,1.81,17.17,17.17,0,0,1,2.2,1.08,8.16,8.16,0,0,1,1.95,1.56,7.5,7.5,0,0,1,2,5.34,8.54,8.54,0,0,1-2.18,6.24,7.49,7.49,0,0,1-5.63,2.23,8.62,8.62,0,0,1-4.24-1.07,9.5,9.5,0,0,1-3.19-2.89l2.2-2.37a8.46,8.46,0,0,0,2.23,2.34,5.14,5.14,0,0,0,3,.91,3.89,3.89,0,0,0,3.11-1.4,5.59,5.59,0,0,0,1.18-3.72,5.15,5.15,0,0,0-.44-2.23,4.7,4.7,0,0,0-1.15-1.51,7.69,7.69,0,0,0-1.63-1c-.6-.3-1.23-.57-1.89-.83a12.22,12.22,0,0,1-2-.93,6.91,6.91,0,0,1-1.73-1.43,6.7,6.7,0,0,1-1.24-2.12,8.55,8.55,0,0,1-.47-3,8.19,8.19,0,0,1,.58-3.13,7,7,0,0,1,1.62-2.45,7.69,7.69,0,0,1,2.39-1.59,7.33,7.33,0,0,1,2.95-.58,8.18,8.18,0,0,1,4,.91,8.07,8.07,0,0,1,2.73,2.33Z"/><path class="cls-6" d="M608.91,504.44a6.05,6.05,0,0,1,4.47-1.73,5.46,5.46,0,0,1,4.35,1.9,6.06,6.06,0,0,1,1.15,2,15.9,15.9,0,0,1,.63,2.37h.11a11.19,11.19,0,0,1,.93-2.34,8,8,0,0,1,1.51-2,7.11,7.11,0,0,1,2.08-1.4,6.44,6.44,0,0,1,2.66-.52,5.92,5.92,0,0,1,3.5.93,6.48,6.48,0,0,1,2.06,2.45,10.85,10.85,0,0,1,1,3.41,28.3,28.3,0,0,1,.25,3.77v17.6H630v-17.6a24.55,24.55,0,0,0-.14-2.56,8.25,8.25,0,0,0-.58-2.36,4.19,4.19,0,0,0-1.29-1.76,3.52,3.52,0,0,0-2.28-.69,4.05,4.05,0,0,0-2.39.74,5.77,5.77,0,0,0-1.79,2,11.37,11.37,0,0,0-1.1,3,15.45,15.45,0,0,0-.39,3.5v15.73h-3.62v-17.6a25.43,25.43,0,0,0-.14-2.59,9.52,9.52,0,0,0-.55-2.39,3.82,3.82,0,0,0-1.26-1.73,3.48,3.48,0,0,0-2.21-.66,4,4,0,0,0-2.41.74,6.28,6.28,0,0,0-1.78,2,11,11,0,0,0-1.12,3,16,16,0,0,0-.38,3.5v15.73H602.9V510.46c0-.58,0-1.22,0-1.9s0-1.33,0-2,0-1.23-.06-1.77,0-.94-.08-1.23h3.57c.08.7.13,1.54.17,2.53s.05,1.92.05,2.8h.11A9,9,0,0,1,608.91,504.44Z"/><path class="cls-6" d="M646.13,495.23a2.59,2.59,0,0,1-.72,1.89,2.34,2.34,0,0,1-3.43,0,2.65,2.65,0,0,1-.69-1.89,2.69,2.69,0,0,1,.69-1.87,2.33,2.33,0,0,1,3.46,0A2.69,2.69,0,0,1,646.13,495.23Zm-4.24,35.64V503.59h3.63v27.28Z"/><path class="cls-6" d="M654,530.87V489.29h3.63v41.58Z"/><path class="cls-6" d="M679.18,530.87l-9.35-13.75h-.11v13.75h-3.63V489.29h3.63v26.34h.11l8.8-12H683l-9.79,12.65,10.39,14.63Z"/><path class="cls-6" d="M698.16,508.32a5.84,5.84,0,0,0-1.84-1.95,4.83,4.83,0,0,0-2.73-.75,3.63,3.63,0,0,0-2.88,1.3,4.9,4.9,0,0,0-1.13,3.38,4.08,4.08,0,0,0,1.1,3.19,10.38,10.38,0,0,0,3.3,1.81,17.84,17.84,0,0,1,2.2,1.08,8.16,8.16,0,0,1,2,1.56,7.75,7.75,0,0,1,1.4,2.23,7.86,7.86,0,0,1,.55,3.11,8.54,8.54,0,0,1-2.17,6.24,7.52,7.52,0,0,1-5.64,2.23,8.58,8.58,0,0,1-4.23-1.07,9.41,9.41,0,0,1-3.19-2.89l2.2-2.37a8.32,8.32,0,0,0,2.23,2.34,5.12,5.12,0,0,0,3.05.91,3.89,3.89,0,0,0,3.11-1.4,5.64,5.64,0,0,0,1.18-3.72,5.15,5.15,0,0,0-.44-2.23,4.72,4.72,0,0,0-1.16-1.51,7.37,7.37,0,0,0-1.62-1c-.6-.3-1.24-.57-1.9-.83a12.51,12.51,0,0,1-2-.93,7,7,0,0,1-1.74-1.43,6.87,6.87,0,0,1-1.23-2.12,8.33,8.33,0,0,1-.47-3,8.19,8.19,0,0,1,.58-3.13,7,7,0,0,1,1.62-2.45,7.57,7.57,0,0,1,2.39-1.59,7.31,7.31,0,0,1,2.94-.58,8.22,8.22,0,0,1,4,.91A7.94,7.94,0,0,1,700.3,506Z"/><path class="cls-6" d="M720.21,530.87v-17.6a24.52,24.52,0,0,0-.13-2.56,9,9,0,0,0-.58-2.36,4.28,4.28,0,0,0-1.29-1.76,3.45,3.45,0,0,0-2.23-.69,4.17,4.17,0,0,0-2.45.74,6.31,6.31,0,0,0-1.84,2,10.47,10.47,0,0,0-1.18,3,14.4,14.4,0,0,0-.42,3.5v15.73h-3.63V489.29h3.63v19.47h.11a9.37,9.37,0,0,1,2.47-4.35,6.76,6.76,0,0,1,7.91-.77,6.14,6.14,0,0,1,2.06,2.45,11.7,11.7,0,0,1,1,3.41,30.06,30.06,0,0,1,.24,3.77v17.6Z"/><path class="cls-6" d="M743.59,530.87a10,10,0,0,1-.08-1.1c0-.44,0-.91-.06-1.4s0-1,0-1.43v-1.19h-.11q-1.37,5.84-6.6,5.83a6.31,6.31,0,0,1-2.31-.44,5.63,5.63,0,0,1-2.09-1.43,8,8,0,0,1-1.54-2.5,10,10,0,0,1-.6-3.66,9.6,9.6,0,0,1,1-4.78,8.38,8.38,0,0,1,2.64-2.86,9.37,9.37,0,0,1,3.5-1.4,19.26,19.26,0,0,1,3.6-.36h2.14v-1.43q0-3.59-1.32-5.23a4.33,4.33,0,0,0-3.57-1.65,5.29,5.29,0,0,0-2.86.83,8.17,8.17,0,0,0-2.26,2.09l-1.92-2.26a8.4,8.4,0,0,1,3.3-2.8,9.2,9.2,0,0,1,4.07-1q4.29,0,6.1,2.8c1.21,1.87,1.82,4.61,1.82,8.2V525c0,.36,0,.82,0,1.37s0,1.11,0,1.68.05,1.1.08,1.6.08.88.11,1.18ZM743.15,517H741a13.88,13.88,0,0,0-2.64.25,6.06,6.06,0,0,0-2.34.93,5.28,5.28,0,0,0-1.68,1.9,6.49,6.49,0,0,0-.66,3.13,5.66,5.66,0,0,0,1.27,4.13,3.85,3.85,0,0,0,5.36.33,6.72,6.72,0,0,0,1.71-2.37,12.65,12.65,0,0,0,.9-3.13,20.05,20.05,0,0,0,.28-3.3Z"/><path class="cls-6" d="M767.46,530.87l-9.35-13.75H758v13.75h-3.63V489.29H758v26.34h.11l8.8-12h4.34l-9.79,12.65,10.4,14.63Z"/><path class="cls-6" d="M777.69,518a21.47,21.47,0,0,0,.38,4.15,12.06,12.06,0,0,0,1.14,3.3,6.18,6.18,0,0,0,1.88,2.2,4.54,4.54,0,0,0,2.68.8,4.37,4.37,0,0,0,3.2-1.21,8.3,8.3,0,0,0,1.88-2.92l2.75,1.6a10.56,10.56,0,0,1-2.94,4.15,7.36,7.36,0,0,1-5,1.68,8,8,0,0,1-7.09-3.85q-2.54-3.85-2.53-10.62a25.28,25.28,0,0,1,.65-5.88,15,15,0,0,1,1.9-4.62,9.27,9.27,0,0,1,3-3,8.22,8.22,0,0,1,8.06,0,8,8,0,0,1,2.72,2.86,14,14,0,0,1,1.51,4.24,27.4,27.4,0,0,1,.46,5.17v2Zm11-3a14.61,14.61,0,0,0-1.27-6.62,4.19,4.19,0,0,0-4-2.51,3.88,3.88,0,0,0-2.68,1,7.71,7.71,0,0,0-1.77,2.37,11.75,11.75,0,0,0-1,3,14.64,14.64,0,0,0-.31,2.8Z"/><path class="cls-6" d="M803.26,528.5a2.74,2.74,0,0,1-.74,2,2.44,2.44,0,0,1-1.84.77,2.35,2.35,0,0,1-1.82-.77,2.81,2.81,0,0,1-.71-2,2.87,2.87,0,0,1,.71-1.92,2.31,2.31,0,0,1,1.82-.83,2.39,2.39,0,0,1,1.84.83A2.8,2.8,0,0,1,803.26,528.5Z"/><path class="cls-6" d="M840.06,496.22a22.12,22.12,0,0,1,2.72,6.57,35.16,35.16,0,0,1,1,8.55,36.55,36.55,0,0,1-.88,8.34,21.67,21.67,0,0,1-2.53,6.46,12.58,12.58,0,0,1-4,4.18,9.94,9.94,0,0,1-5.39,1.48,10.24,10.24,0,0,1-7.65-3.24l-2,4.12-2.42-1.15,2.75-5.17a20.26,20.26,0,0,1-2.67-6.52,36.56,36.56,0,0,1-.91-8.5,38.16,38.16,0,0,1,.85-8.28,21,21,0,0,1,2.51-6.43,12.46,12.46,0,0,1,4-4.15,10.29,10.29,0,0,1,5.53-1.49,9.92,9.92,0,0,1,7.42,3.14l1.87-4,2.31,1.15Zm-18,15.12a38.39,38.39,0,0,0,.46,6.16,24.19,24.19,0,0,0,1.41,5.17l12.54-25a8.13,8.13,0,0,0-2.42-2.31,5.9,5.9,0,0,0-3.08-.83,6.14,6.14,0,0,0-3.93,1.32,10,10,0,0,0-2.78,3.58,19.78,19.78,0,0,0-1.65,5.33A37.34,37.34,0,0,0,822,511.34Zm17.71,0a37.39,37.39,0,0,0-.47-6.07,23.12,23.12,0,0,0-1.4-5.09L825.21,525a8.56,8.56,0,0,0,2.5,2.39,6.38,6.38,0,0,0,7.07-.47,10.19,10.19,0,0,0,2.75-3.63,21.37,21.37,0,0,0,1.65-5.39A38.14,38.14,0,0,0,839.73,511.34Z"/><path class="cls-6" d="M861.12,530.87h-5l-9.63-38.94h4.18l8,34.59h.11l8-34.59h4.07Z"/><path class="cls-6" d="M881.91,528.5a2.81,2.81,0,0,1-.74,2,2.42,2.42,0,0,1-1.84.79,2.34,2.34,0,0,1-1.82-.79,2.83,2.83,0,0,1-.71-2,2.79,2.79,0,0,1,.71-2,2.34,2.34,0,0,1,1.82-.8,2.43,2.43,0,0,1,1.84.8A2.77,2.77,0,0,1,881.91,528.5Zm-4.4-9.24V491.93h3.63v27.33Z"/></g></svg>