<?xml version="1.0" encoding="utf-8"?>
<!-- Generator: Adobe Illustrator 24.2.3, SVG Export Plug-In . SVG Version: 6.00 Build 0)  -->
<svg version="1.1" id="Lag_1" xmlns="http://www.w3.org/2000/svg" xmlns:xlink="http://www.w3.org/1999/xlink" x="0px" y="0px"
	 viewBox="0 0 212 141.4" style="enable-background:new 0 0 212 141.4;" xml:space="preserve">
<style type="text/css">
	.st0{fill:#F6BBD5;}
	.st1{fill:#F9F6CA;}
	.st2{fill:#FCF6CE;}
	.st3{fill:#FFFFFF;}
	.st4{fill:#E9E5F3;}
	.st5{fill:#FCFBF9;}
	.st6{fill:#D9CDE7;}
	.st7{fill:#F0E9E7;}
	.st8{fill:#B7E0EF;}
</style>
<g id="milkshake">
	<path class="st0" d="M505.8,79c1.9,1,3,2.4,3,4s-1,2.8-2.6,3.8c6.7,1.9,12.2,6.3,14.2,10.7c2.7,6.1-18.3,7-23.1,6.9
		s-23.8-2.3-18.1-8.6c4.1-4.6,7-7.4,12.1-8.9c-1.7-1-2.8-2.3-2.8-3.8c0-1.7,1.4-3.3,3.7-4.3c-13.5-4.3-16.8-18.5-20.9-39.2
		c-2.4-12-4.1-20.6-0.8-25.7c4.8,3.6,17.5,2.8,22.8,2.7c5.5-0.1,26.2,0.2,33.3-3.7c4.7,2.1,3.5,6.3,2.6,17.6
		C527.8,48.7,520.7,73.9,505.8,79z"/>
	<path class="st1" d="M486,2.1c0.6,0,1.3,0.1,1.9,0.1L486,2.1z"/>
	<path class="st1" d="M511.8,1.3c-1.5,0.3-3,0.6-4.6,0.8C508.8,1.8,510.3,1.5,511.8,1.3z"/>
	<path class="st2" d="M486,2.1c0.6,0,1.3,0.1,1.9,0.1L486,2.1z"/>
	<path class="st2" d="M511.8,1.3c-1.5,0.3-3,0.6-4.6,0.8C508.8,1.8,510.3,1.5,511.8,1.3z"/>
	<path class="st3" d="M526.1,7.3c1.1-0.7,1.4-2.2,0.6-3.3l0,0c-0.1-0.2-0.3-0.4-0.4-0.5c-1.1-1.2-2.5-2-4-2.3
		c0.5-0.2,0.7-0.5,0.7-0.8c-0.1-1-2.7-1.8-6.1-2.5c-0.2-1.3-2-2.9-6.4-4.8c-15.9-6.9-0.5-10.2-12.1-7.6
		c-11.5,2.6-19.2,8.2-19.1,12.9c-4.8,1.2-8.2,2.8-7,4.7c0.2,0.3,0.4,0.6,0.7,0.8c-2,1-3.2,2.3-3.2,4.2c-0.8,0.6-1.2,1.6-1,2.6
		c0.1,1.3,0.8,2.4,1.9,3.2c4.8,3.6,17.5,2.8,22.8,2.7c5.5-0.1,26.2,0.2,33.3-3.7c1.2-0.5,2.1-1.5,2.4-2.7
		C529.2,8.8,528.1,7.9,526.1,7.3z M486,2.1c0.6,0,1.3,0.1,1.9,0.1L486,2.1z M507.3,2.1c1.5-0.3,3-0.5,4.6-0.8
		C510.3,1.7,508.8,1.9,507.3,2.1L507.3,2.1z"/>
	<path class="st3" d="M486,2.1c0.6,0,1.3,0.1,1.9,0.1L486,2.1z"/>
	<path class="st3" d="M511.8,1.3c-1.5,0.3-3,0.6-4.6,0.8C508.8,1.8,510.3,1.5,511.8,1.3z"/>
	<polygon class="st0" points="486,0.6 481.5,2.2 465.6,-25.7 470,-27.3 	"/>
	<ellipse transform="matrix(0.9408 -0.3389 0.3389 0.9408 36.666 156.9715)" class="st4" cx="467.8" cy="-26.5" rx="2.4" ry="0.4"/>
	<path class="st5" d="M486.2,25.6c0.1-0.7-3.5-2.1-7.2-2.4c-3.8-0.3-8.6,0.4-8.7,1.1s4.8-0.6,8.6-0.4S486.1,26.2,486.2,25.6z"/>
	<path class="st5" d="M509,25.9c0-0.6-4.5-1.8-9.1-1.7c-4.6,0-10.3,1.1-10.3,1.7s5.7-1,10.3-1S509,26.6,509,25.9z"/>
	<path class="st5" d="M528.8,24.3c-0.1-0.6-4.1-1.3-8.1-1s-8.8,1.6-8.8,2.2s4.9-1.2,8.9-1.6S528.9,24.9,528.8,24.3z"/>
	<path class="st5" d="M490.3,55.2c2.2,10.1,7,19.5,6.7,19.6s-5-7.7-7.2-17.8s-3.8-23.4-3.5-23.4S488,45.2,490.3,55.2z"/>
	<path class="st5" d="M509.8,53c-1.5,10.2-6.2,19.8-5.9,19.8c0.4,0,5.2-7.8,6.7-18c1.5-10.2,2-23.5,1.6-23.6
		C511.8,31.2,511.3,42.9,509.8,53z"/>
	<path class="st5" d="M505,87.3c0,0.3-2.7,1-5.5,1.1s-6.3-0.5-6.3-0.8s3.5,0.5,6.3,0.4S505,86.9,505,87.3z"/>
	<path class="st5" d="M505,79.1c0,0.3-2.7,1-5.5,1.1s-6.3-0.5-6.3-0.8s3.5,0.5,6.3,0.4S505,78.7,505,79.1z"/>
	<path class="st5" d="M514.4,98.9c0,0.4-6.8,2.7-14.2,2.8s-16.6-2-16.6-2.3s9,1.5,16.4,1.4C507.4,100.7,514.4,98.4,514.4,98.9z"/>
	<path class="st6" d="M575.5,78.4c1.8,1,2.8,2.4,2.8,3.9c-0.1,1.6-1.1,3-2.5,3.7c6.3,1.9,11.6,6.3,13.4,10.7
		c2.5,6.1-17.3,7-21.8,6.9s-22.4-2.3-17.1-8.6c3.8-4.6,6.6-7.4,11.4-8.9c-1.5-0.7-2.5-2.1-2.6-3.7c0-1.7,1.4-3.3,3.5-4.3
		c-12.7-4.2-15.8-18.4-19.7-39c-2.2-12-3.8-20.5-0.7-25.6c4.5,3.6,16.5,2.8,21.5,2.7c5.2-0.1,24.7,0.2,31.4-3.7
		c4.5,2.1,3.3,6.3,2.5,17.6C596.2,48.2,589.5,73.4,575.5,78.4z"/>
	<path class="st1" d="M556.7,1.7c0.6,0,1.2,0.1,1.8,0.1C557.9,1.8,557.3,1.8,556.7,1.7z"/>
	<path class="st1" d="M581.1,1c-1.4,0.3-2.9,0.6-4.3,0.8C578.3,1.4,579.7,1.2,581.1,1z"/>
	<path class="st2" d="M556.7,1.7c0.6,0,1.2,0.1,1.8,0.1C557.9,1.8,557.3,1.8,556.7,1.7z"/>
	<path class="st2" d="M581.1,1c-1.4,0.3-2.9,0.6-4.3,0.8C578.3,1.4,579.7,1.2,581.1,1z"/>
	<path class="st3" d="M594.6,6.9c1.1-0.8,1.3-2.3,0.5-3.4l0,0c-0.1-0.1-0.2-0.2-0.3-0.3c-1-1.2-2.3-2-3.8-2.3
		c0.4-0.2,0.7-0.5,0.6-0.8c-0.1-1-2.6-1.8-5.8-2.5c-0.2-1.3-1.9-2.9-6.1-4.8c-15-6.9-0.4-10.2-11.4-7.6c-10.8,2.6-18.1,8.2-18,12.9
		c-4.5,1.2-7.7,2.8-6.6,4.7c0.2,0.3,0.4,0.6,0.7,0.8c-1.9,1-3.1,2.3-3.1,4.1c-0.8,0.6-1.1,1.6-1,2.6c0.1,1.3,0.8,2.4,1.8,3.2
		c4.6,3.6,16.5,2.8,21.5,2.7c5.2-0.1,24.7,0.2,31.4-3.7c1.1-0.5,2-1.5,2.2-2.7C597.5,8.4,596.5,7.4,594.6,6.9z M556.7,1.7
		c0.6,0,1.2,0.1,1.8,0.1C557.9,1.8,557.3,1.8,556.7,1.7z M576.8,1.7c1.4-0.3,2.9-0.5,4.3-0.8C579.7,1.3,578.3,1.6,576.8,1.7
		L576.8,1.7z"/>
	<path class="st3" d="M556.7,1.7c0.6,0,1.2,0.1,1.8,0.1C557.9,1.8,557.3,1.8,556.7,1.7z"/>
	<path class="st3" d="M581.1,1c-1.4,0.3-2.9,0.6-4.3,0.8C578.3,1.4,579.7,1.2,581.1,1z"/>
	<polygon class="st6" points="556.7,0.2 552.5,1.9 537.4,-26 541.7,-27.6 	"/>
	
		<ellipse transform="matrix(0.9342 -0.3567 0.3567 0.9342 45.0415 190.6868)" class="st7" cx="539.5" cy="-26.8" rx="2.3" ry="0.4"/>
	<path class="st5" d="M556.9,25.2c0.1-0.7-3.3-2.1-6.8-2.4s-8.1,0.4-8.2,1.1s4.5-0.6,8.1-0.4C553.5,23.8,556.8,25.8,556.9,25.2z"/>
	<path class="st5" d="M578.5,25.5c0-0.6-4.2-1.8-8.6-1.7c-4.4,0-9.7,1.1-9.7,1.7s5.4-1,9.7-1S578.5,26.2,578.5,25.5z"/>
	<path class="st5" d="M597.2,23.9c-0.1-0.6-3.8-1.3-7.6-1s-8.4,1.6-8.3,2.2s4.6-1.2,8.4-1.6S597.2,24.4,597.2,23.9z"/>
	<path class="st5" d="M560.8,54.7c2.1,10,6.6,19.5,6.3,19.5s-4.7-7.7-6.8-17.8s-3.6-23.3-3.4-23.4C557.2,33.1,558.7,44.7,560.8,54.7
		z"/>
	<path class="st5" d="M579.2,52.6c-1.5,10.1-5.9,19.7-5.5,19.7s4.9-7.8,6.3-18s1.8-23.5,1.5-23.5S580.7,42.4,579.2,52.6z"/>
	<path class="st5" d="M574.7,86.7c0,0.3-2.5,1-5.2,1.1s-6-0.5-6-0.8s3.3,0.5,5.9,0.4S574.7,86.4,574.7,86.7z"/>
	<path class="st5" d="M574.7,78.5c0,0.3-2.5,1-5.2,1.1s-6-0.5-6-0.8s3.3,0.5,5.9,0.4S574.7,78.2,574.7,78.5z"/>
	<path class="st5" d="M583.6,98.3c0,0.4-6.5,2.7-13.4,2.8c-6.9,0.1-15.7-2-15.7-2.3s8.6,1.5,15.5,1.4
		C576.9,100.1,583.6,97.9,583.6,98.3z"/>
	<path class="st8" d="M643.4,78.1c1.7,1,2.8,2.4,2.8,3.9c-0.1,1.6-1.1,3-2.5,3.7c6.3,1.9,11.6,6.3,13.4,10.7
		c2.6,6.1-17.3,7-21.8,6.9c-4.6-0.1-22.4-2.3-17.1-8.6c3.8-4.6,6.6-7.4,11.4-8.9c-1.5-0.7-2.5-2.2-2.6-3.8c0-1.7,1.4-3.3,3.5-4.3
		c-12.7-4.2-15.8-18.4-19.7-39c-2.2-12-3.8-20.5-0.7-25.6c4.6,3.6,16.5,2.8,21.5,2.7c5.2-0.1,24.7,0.2,31.4-3.7
		c4.5,2.1,3.3,6.3,2.5,17.6C664.1,47.9,657.4,73,643.4,78.1z"/>
	<path class="st1" d="M624.6,1.4c0.6,0,1.2,0.1,1.8,0.1C625.8,1.4,625.2,1.4,624.6,1.4z"/>
	<path class="st1" d="M649,0.6c-1.4,0.3-2.9,0.6-4.3,0.8C646.1,1.1,647.6,0.8,649,0.6z"/>
	<path class="st2" d="M624.6,1.4c0.6,0,1.2,0.1,1.8,0.1C625.8,1.4,625.2,1.4,624.6,1.4z"/>
	<path class="st2" d="M649,0.6c-1.4,0.3-2.9,0.6-4.3,0.8C646.1,1.1,647.6,0.8,649,0.6z"/>
	<path class="st3" d="M662.5,6.6c1.1-0.8,1.3-2.3,0.5-3.4l0,0c-0.1-0.1-0.2-0.2-0.3-0.3c-1-1.1-2.3-1.9-3.8-2.3
		c0.4-0.2,0.7-0.5,0.6-0.8c-0.1-1-2.6-1.8-5.8-2.5c-0.2-1.3-1.9-2.9-6.1-4.8c-15-6.9-0.4-10.2-11.4-7.6c-10.8,2.6-18.1,8.2-18,12.9
		c-4.5,1.2-7.7,2.8-6.6,4.7c0.2,0.3,0.4,0.6,0.7,0.8c-1.9,1-3.1,2.3-3.1,4.1c-0.8,0.6-1.1,1.6-1,2.6c0.1,1.3,0.8,2.4,1.8,3.2
		c4.6,3.6,16.5,2.8,21.5,2.7c5.2-0.1,24.7,0.2,31.4-3.7c1.1-0.5,1.9-1.5,2.2-2.7C665.4,8.1,664.4,7.2,662.5,6.6z M624.6,1.4
		c0.6,0,1.2,0.1,1.8,0.1C625.8,1.4,625.2,1.4,624.6,1.4z M644.7,1.4c1.4-0.3,2.9-0.5,4.3-0.8C647.6,1,646.2,1.2,644.7,1.4L644.7,1.4
		z"/>
	<path class="st3" d="M624.6,1.4c0.6,0,1.2,0.1,1.8,0.1C625.8,1.4,625.2,1.4,624.6,1.4z"/>
	<path class="st3" d="M649,0.6c-1.4,0.3-2.9,0.6-4.3,0.8C646.1,1.1,647.6,0.8,649,0.6z"/>
	<polygon class="st8" points="624.6,-0.1 620.4,1.5 605.3,-26.3 609.5,-27.9 	"/>
	
		<ellipse transform="matrix(0.9342 -0.3567 0.3567 0.9342 49.6482 214.8732)" class="st7" cx="607.4" cy="-27.2" rx="2.3" ry="0.4"/>
	<path class="st5" d="M624.8,24.8c0.1-0.7-3.3-2.1-6.8-2.4s-8.1,0.4-8.2,1.1s4.5-0.6,8.1-0.4S624.7,25.4,624.8,24.8z"/>
	<path class="st5" d="M646.4,25.2c0-0.6-4.2-1.8-8.6-1.7c-4.3,0-9.7,1.1-9.7,1.7s5.4-1,9.7-1C642.2,24.2,646.4,25.8,646.4,25.2z"/>
	<path class="st5" d="M665,23.6c-0.1-0.6-3.8-1.3-7.6-1s-8.4,1.6-8.3,2.2s4.6-1.2,8.4-1.6S665.1,24.1,665,23.6z"/>
	<path class="st5" d="M628.7,54.4c2.1,10,6.6,19.5,6.3,19.5c-0.3,0.1-4.7-7.7-6.8-17.8s-3.6-23.3-3.3-23.4S626.5,44.4,628.7,54.4z"
		/>
	<path class="st5" d="M647.1,52.2c-1.5,10.1-5.9,19.7-5.5,19.7s4.9-7.8,6.3-18s1.9-23.5,1.5-23.5S648.5,42.1,647.1,52.2z"/>
	<path class="st5" d="M642.6,86.4c0,0.3-2.5,1-5.2,1.1s-6-0.5-6-0.8c-0.1-0.3,3.3,0.5,6,0.4C640.1,87.1,642.6,86.1,642.6,86.4z"/>
	<path class="st5" d="M642.6,78.2c0,0.3-2.5,1-5.2,1.1s-6-0.5-6-0.8c-0.1-0.3,3.3,0.5,6,0.4C640.1,78.8,642.6,77.9,642.6,78.2z"/>
	<path class="st5" d="M651.5,97.9c0,0.4-6.5,2.7-13.4,2.8c-6.9,0.1-15.7-2-15.7-2.3s8.5,1.5,15.4,1.4
		C644.8,99.7,651.5,97.6,651.5,97.9z"/>
</g>
<g id="milkshake_1_">
	<path class="st0" d="M44.9,112.4c1.8,1,3,2.4,3,4s-1,2.8-2.7,3.8c6.7,1.9,12.2,6.3,14.2,10.7c2.7,6.1-18.3,7-23.1,6.9
		s-23.8-2.3-18.1-8.6c4.1-4.6,7-7.4,12.1-8.9c-1.7-1-2.8-2.3-2.8-3.8c0-1.7,1.4-3.3,3.7-4.3C17.8,107.9,14.5,93.6,10.4,73
		C8,61,6.3,52.4,9.6,47.3c4.8,3.6,17.5,2.8,22.8,2.7c5.5-0.1,26.2,0.2,33.3-3.7c4.7,2.1,3.5,6.3,2.6,17.6
		C66.9,82.1,59.8,107.3,44.9,112.4z"/>
	<path class="st1" d="M25.1,35.5c0.6,0,1.3,0.1,1.9,0.1L25.1,35.5z"/>
	<path class="st1" d="M50.9,34.7c-1.5,0.3-3,0.6-4.6,0.8C47.9,35.2,49.4,35,50.9,34.7z"/>
	<path class="st2" d="M25.1,35.5c0.6,0,1.3,0.1,1.9,0.1L25.1,35.5z"/>
	<path class="st2" d="M50.9,34.7c-1.5,0.3-3,0.6-4.6,0.8C47.9,35.2,49.4,35,50.9,34.7z"/>
	<path class="st3" d="M65.2,40.7c1.1-0.7,1.4-2.2,0.6-3.3l0,0c-0.1-0.2-0.3-0.4-0.4-0.5c-1.1-1.2-2.5-2-4-2.3
		c0.5-0.2,0.7-0.5,0.7-0.8c-0.1-1-2.7-1.8-6.2-2.5c-0.2-1.3-2-2.9-6.4-4.8C33.6,19.7,49,16.3,37.4,19C26,21.6,18.2,27.2,18.3,31.9
		c-4.8,1.2-8.2,2.8-7,4.7c0.2,0.3,0.4,0.6,0.7,0.8c-2,1-3.2,2.3-3.2,4.2c-0.8,0.6-1.2,1.6-1,2.6c0.1,1.3,0.8,2.4,1.9,3.2
		c4.8,3.6,17.5,2.8,22.8,2.7c5.5-0.1,26.2,0.2,33.3-3.7c1.2-0.5,2.1-1.5,2.4-2.7C68.3,42.2,67.2,41.3,65.2,40.7z M25.1,35.5
		c0.6,0,1.3,0.1,1.9,0.1L25.1,35.5z M46.4,35.5c1.5-0.3,3-0.5,4.6-0.8C49.4,35.1,47.9,35.3,46.4,35.5L46.4,35.5z"/>
	<path class="st3" d="M25.1,35.5c0.6,0,1.3,0.1,1.9,0.1L25.1,35.5z"/>
	<path class="st3" d="M50.9,34.7c-1.5,0.3-3,0.6-4.6,0.8C47.9,35.2,49.4,35,50.9,34.7z"/>
	<polygon class="st0" points="25.1,34 20.6,35.6 4.7,7.7 9.2,6.1 	"/>
	<ellipse transform="matrix(0.9408 -0.3389 0.3389 0.9408 -1.9301 2.7473)" class="st4" cx="6.9" cy="6.9" rx="2.4" ry="0.4"/>
	<path class="st5" d="M25.3,59c0.1-0.7-3.5-2.1-7.2-2.4S9.5,57,9.4,57.7s4.8-0.6,8.6-0.4S25.2,59.6,25.3,59z"/>
	<path class="st5" d="M48.1,59.4c0-0.6-4.5-1.8-9.1-1.7s-10.3,1.1-10.3,1.7c0,0.6,5.7-1,10.3-1S48.1,60,48.1,59.4z"/>
	<path class="st5" d="M67.9,57.7c-0.1-0.6-4.1-1.3-8.1-1S51,58.4,51,58.9s4.9-1.2,8.9-1.6S68,58.3,67.9,57.7z"/>
	<path class="st5" d="M29.4,88.7c2.2,10.1,7,19.5,6.7,19.6s-5-7.7-7.2-17.8S25,67.1,25.3,67S27.1,78.6,29.4,88.7z"/>
	<path class="st5" d="M48.9,86.5c-1.5,10.2-6.2,19.8-5.8,19.8s5.2-7.8,6.7-18s2-23.5,1.6-23.6S50.4,76.3,48.9,86.5z"/>
	<path class="st5" d="M44.1,120.7c0,0.3-2.7,1-5.5,1.1s-6.3-0.5-6.3-0.8s3.5,0.5,6.3,0.4S44.1,120.4,44.1,120.7z"/>
	<path class="st5" d="M44.1,112.5c0,0.3-2.7,1-5.5,1.1s-6.3-0.5-6.3-0.8s3.5,0.5,6.3,0.4S44.1,112.1,44.1,112.5z"/>
	<path class="st5" d="M53.5,132.3c0,0.4-6.8,2.7-14.2,2.8s-16.6-2-16.6-2.3s9,1.5,16.4,1.4S53.5,131.9,53.5,132.3z"/>
	<path class="st6" d="M114.6,111.9c1.8,1,2.8,2.4,2.8,3.9c-0.1,1.6-1.1,3-2.5,3.7c6.3,1.9,11.6,6.3,13.4,10.7
		c2.5,6.1-17.3,7-21.8,6.9s-22.4-2.3-17.1-8.6c3.8-4.6,6.6-7.4,11.4-8.9c-1.5-0.7-2.5-2.1-2.6-3.7c0-1.7,1.4-3.3,3.5-4.3
		C89,107.4,85.9,93.2,82,72.6c-2.3-12-4-20.6-0.8-25.6c4.6,3.6,16.5,2.8,21.5,2.7c5.2-0.1,24.7,0.2,31.4-3.7
		c4.5,2.1,3.3,6.3,2.5,17.6C135.3,81.6,128.6,106.8,114.6,111.9z"/>
	<path class="st1" d="M95.8,35.1c0.6,0,1.2,0.1,1.8,0.1C97,35.2,96.4,35.2,95.8,35.1z"/>
	<path class="st1" d="M120.2,34.4c-1.4,0.3-2.9,0.6-4.3,0.8C117.4,34.9,118.8,34.6,120.2,34.4z"/>
	<path class="st2" d="M95.8,35.1c0.6,0,1.2,0.1,1.8,0.1C97,35.2,96.4,35.2,95.8,35.1z"/>
	<path class="st2" d="M120.2,34.4c-1.4,0.3-2.9,0.6-4.3,0.8C117.4,34.9,118.8,34.6,120.2,34.4z"/>
	<path class="st3" d="M133.7,40.3c1.1-0.8,1.3-2.3,0.5-3.4l0,0c-0.1-0.1-0.2-0.2-0.3-0.3c-1-1.2-2.3-2-3.8-2.3
		c0.4-0.2,0.7-0.5,0.6-0.8c-0.1-1-2.6-1.8-5.8-2.5c-0.2-1.3-1.9-2.9-6.1-4.8c-15-6.9-0.4-10.2-11.4-7.6c-10.8,2.6-18.1,8.2-18,12.9
		c-4.5,1.2-7.7,2.7-6.6,4.7c0.2,0.3,0.4,0.6,0.7,0.8c-1.9,1-3.1,2.3-3.1,4.1c-0.8,0.6-1.1,1.6-1,2.6c0.1,1.3,0.8,2.4,1.8,3.2
		c4.6,3.6,16.5,2.8,21.5,2.7c5.2-0.1,24.7,0.2,31.4-3.7c1.1-0.5,2-1.5,2.2-2.7C136.6,41.9,135.6,40.9,133.7,40.3z M95.8,35.1
		c0.6,0,1.2,0.1,1.8,0.1C97,35.2,96.4,35.2,95.8,35.1z M115.9,35.1c1.4-0.3,2.9-0.5,4.3-0.8C118.8,34.7,117.4,35,115.9,35.1
		L115.9,35.1z"/>
	<path class="st3" d="M95.8,35.1c0.6,0,1.2,0.1,1.8,0.1C97,35.2,96.4,35.2,95.8,35.1z"/>
	<path class="st3" d="M120.2,34.4c-1.4,0.3-2.9,0.6-4.3,0.8C117.4,34.9,118.8,34.6,120.2,34.4z"/>
	<polygon class="st6" points="95.8,33.6 91.6,35.3 76.5,7.4 80.8,5.8 	"/>
	<ellipse transform="matrix(0.9342 -0.3567 0.3567 0.9342 2.8124 28.4753)" class="st7" cx="78.6" cy="6.6" rx="2.3" ry="0.4"/>
	<path class="st5" d="M96,58.6c0.1-0.7-3.3-2.1-6.8-2.4S81,56.6,81,57.3s4.5-0.6,8.1-0.4S95.9,59.2,96,58.6z"/>
	<path class="st5" d="M117.6,59c0-0.6-4.2-1.8-8.6-1.7s-9.7,1.1-9.7,1.7s5.4-1,9.7-1C113.4,58,117.6,59.6,117.6,59z"/>
	<path class="st5" d="M136.3,57.3c-0.1-0.6-3.9-1.3-7.6-1s-8.4,1.6-8.3,2.2s4.6-1.2,8.4-1.6C132.6,56.5,136.3,57.9,136.3,57.3z"/>
	<path class="st5" d="M99.9,88.2c2.1,10,6.6,19.5,6.3,19.5s-4.7-7.7-6.8-17.8S95.7,66.6,96,66.6S97.8,78.1,99.9,88.2z"/>
	<path class="st5" d="M118.3,86c-1.5,10.1-5.9,19.7-5.5,19.7s4.9-7.8,6.3-18s1.9-23.5,1.5-23.5S119.8,75.9,118.3,86z"/>
	<path class="st5" d="M113.8,120.2c0,0.3-2.5,1-5.2,1.1s-6-0.5-6-0.8s3.3,0.5,5.9,0.4S113.8,119.8,113.8,120.2z"/>
	<path class="st5" d="M113.8,112c0,0.3-2.5,1-5.2,1.1s-6-0.5-6-0.8s3.3,0.5,5.9,0.4S113.8,111.6,113.8,112z"/>
	<path class="st5" d="M122.7,131.7c0,0.4-6.5,2.7-13.4,2.8s-15.7-2-15.7-2.3s8.6,1.5,15.5,1.4C116,133.5,122.7,131.3,122.7,131.7z"
		/>
	<path class="st8" d="M182.5,111.5c1.7,1,2.8,2.4,2.8,3.9c-0.1,1.6-1.1,3-2.5,3.7c6.3,1.9,11.6,6.3,13.4,10.7
		c2.6,6.1-17.3,7-21.8,6.9s-22.4-2.3-17.1-8.6c3.8-4.6,6.6-7.4,11.4-8.9c-1.5-0.7-2.5-2.2-2.6-3.8c0-1.7,1.4-3.3,3.5-4.3
		c-12.7-4.2-15.9-18.4-19.7-39c-2.2-12-3.8-20.5-0.7-25.6c4.6,3.6,16.5,2.8,21.5,2.7c5.2-0.1,24.7,0.2,31.4-3.7
		c4.5,2.1,3.3,6.3,2.5,17.6C203.2,81.3,196.5,106.5,182.5,111.5z"/>
	<path class="st1" d="M163.7,34.8c0.6,0,1.2,0.1,1.8,0.1C164.9,34.9,164.3,34.9,163.7,34.8z"/>
	<path class="st1" d="M188.1,34c-1.4,0.3-2.9,0.6-4.3,0.8C185.2,34.5,186.7,34.3,188.1,34z"/>
	<path class="st2" d="M163.7,34.8c0.6,0,1.2,0.1,1.8,0.1C164.9,34.9,164.3,34.9,163.7,34.8z"/>
	<path class="st2" d="M188.1,34c-1.4,0.3-2.9,0.6-4.3,0.8C185.2,34.5,186.7,34.3,188.1,34z"/>
	<path class="st3" d="M201.6,40c1.1-0.8,1.3-2.3,0.5-3.4l0,0c-0.1-0.1-0.2-0.2-0.3-0.3c-1-1.1-2.3-1.9-3.8-2.3
		c0.4-0.2,0.7-0.5,0.6-0.8c-0.1-1-2.6-1.8-5.8-2.5c-0.2-1.3-1.9-2.9-6.1-4.8c-15-6.9-0.4-10.2-11.4-7.6c-10.8,2.6-18.1,8.2-18,12.9
		c-4.5,1.2-7.7,2.7-6.6,4.7c0.2,0.3,0.4,0.6,0.7,0.8c-1.9,1-3.1,2.3-3.1,4.1c-0.8,0.6-1.1,1.6-1,2.6c0.1,1.3,0.8,2.4,1.8,3.2
		c4.6,3.6,16.5,2.8,21.5,2.7c5.2-0.1,24.7,0.2,31.4-3.7c1.1-0.5,1.9-1.5,2.2-2.7C204.5,41.5,203.5,40.6,201.6,40z M163.7,34.8
		c0.6,0,1.2,0.1,1.8,0.1C164.9,34.9,164.3,34.9,163.7,34.8z M183.8,34.8c1.4-0.3,2.9-0.5,4.3-0.8C186.7,34.4,185.3,34.6,183.8,34.8
		L183.8,34.8z"/>
	<path class="st3" d="M163.7,34.8c0.6,0,1.2,0.1,1.8,0.1C164.9,34.9,164.3,34.9,163.7,34.8z"/>
	<path class="st3" d="M188.1,34c-1.4,0.3-2.9,0.6-4.3,0.8C185.2,34.5,186.7,34.3,188.1,34z"/>
	<polygon class="st8" points="163.7,33.3 159.5,34.9 144.4,7.1 148.7,5.5 	"/>
	<ellipse transform="matrix(0.9342 -0.3567 0.3567 0.9342 7.4191 52.6617)" class="st7" cx="146.5" cy="6.2" rx="2.3" ry="0.4"/>
	<path class="st5" d="M163.9,58.2c0.1-0.7-3.3-2.1-6.8-2.4s-8.1,0.4-8.2,1.1s4.5-0.6,8.1-0.4S163.8,58.9,163.9,58.2z"/>
	<path class="st5" d="M185.5,58.6c0-0.6-4.2-1.8-8.6-1.7s-9.7,1.1-9.7,1.7s5.4-1,9.7-1S185.5,59.3,185.5,58.6z"/>
	<path class="st5" d="M204.2,57c-0.1-0.6-3.9-1.3-7.6-1s-8.4,1.6-8.3,2.2s4.6-1.2,8.4-1.6S204.2,57.5,204.2,57z"/>
	<path class="st5" d="M167.8,87.9c2.1,10,6.6,19.5,6.3,19.5s-4.7-7.7-6.8-17.8s-3.6-23.3-3.3-23.4S165.6,77.8,167.8,87.9z"/>
	<path class="st5" d="M186.2,85.6c-1.5,10.1-5.9,19.7-5.5,19.7s4.9-7.8,6.3-18s1.9-23.5,1.5-23.5S187.6,75.5,186.2,85.6z"/>
	<path class="st5" d="M181.7,119.9c0,0.3-2.6,1-5.2,1.1s-5.9-0.5-6-0.8s3.3,0.5,6,0.4S181.7,119.5,181.7,119.9z"/>
	<path class="st5" d="M181.7,111.6c0,0.3-2.6,1-5.2,1.1s-5.9-0.5-6-0.8s3.3,0.5,6,0.4S181.7,111.3,181.7,111.6z"/>
	<path class="st5" d="M190.6,131.4c0,0.4-6.5,2.7-13.4,2.8s-15.7-2-15.7-2.3s8.6,1.5,15.4,1.4S190.6,131,190.6,131.4z"/>
</g>
</svg>
