<svg id="Lag_1" data-name="Lag 1" xmlns="http://www.w3.org/2000/svg" width="212" height="141.45" viewBox="0 0 212 141.45"><defs><style>.cls-1{fill:#f6bbd5;}.cls-2{fill:#f9f6ca;}.cls-3{fill:#fcf6ce;}.cls-4{fill:#fff;}.cls-5{fill:#e9e5f3;}.cls-6{fill:#fcfbf9;}.cls-7{fill:#d9cde7;}.cls-8{fill:#f0e9e7;}.cls-9{fill:#b7e0ef;}</style></defs><g id="milkshake"><path class="cls-1" d="M45,112.42c1.85,1,3,2.41,3,4s-1,2.77-2.65,3.76c6.69,1.89,12.24,6.28,14.19,10.68,2.69,6.11-18.3,7-23.11,6.88s-23.75-2.29-18.14-8.62c4.07-4.59,7-7.45,12.06-8.88-1.7-1-2.75-2.34-2.75-3.82,0-1.73,1.44-3.27,3.69-4.3C17.79,107.87,14.46,93.6,10.38,73,8,61,6.31,52.4,9.62,47.31c4.82,3.56,17.49,2.81,22.78,2.7,5.51-.11,26.18.19,33.29-3.72,4.73,2.09,3.51,6.27,2.62,17.62C66.89,82.09,59.78,107.31,45,112.42Z"/><path class="cls-2" d="M25.11,35.51c.64,0,1.27.07,1.88.13Z"/><path class="cls-2" d="M50.93,34.74a39.07,39.07,0,0,1-4.56.76C47.89,35.23,49.42,35,50.93,34.74Z"/><path class="cls-3" d="M25.11,35.51c.64,0,1.27.07,1.88.13Z"/><path class="cls-3" d="M50.93,34.74a39.07,39.07,0,0,1-4.56.76C47.89,35.23,49.42,35,50.93,34.74Z"/><path class="cls-4" d="M65.21,40.69a2.35,2.35,0,0,0,.65-3.26h0a1.85,1.85,0,0,0-.43-.49,7.71,7.71,0,0,0-4-2.29c.46-.25.7-.52.66-.81-.14-1-2.71-1.8-6.15-2.48-.18-1.29-2-2.88-6.44-4.8C33.61,19.67,49,16.33,37.37,19c-11.45,2.6-19.19,8.19-19.12,12.9-4.79,1.18-8.16,2.76-7,4.72a3.09,3.09,0,0,0,.72.81c-2,1-3.24,2.33-3.24,4.15a2.72,2.72,0,0,0-1,2.58,4.38,4.38,0,0,0,1.9,3.17C14.44,50.87,27.11,50.12,32.4,50c5.51-.11,26.18.19,33.29-3.72a4.12,4.12,0,0,0,2.42-2.7C68.3,42.22,67.19,41.29,65.21,40.69Zm-40.1-5.18c.64,0,1.27.07,1.88.13Zm21.27,0c1.52-.27,3-.54,4.56-.76a35.39,35.39,0,0,1-4.57.75Z"/><path class="cls-4" d="M25.11,35.51c.64,0,1.27.07,1.88.13Z"/><path class="cls-4" d="M50.93,34.74a39.07,39.07,0,0,1-4.56.76C47.89,35.23,49.42,35,50.93,34.74Z"/><polygon class="cls-1" points="25.1 34 20.62 35.64 4.69 7.74 9.16 6.1 25.1 34"/><ellipse class="cls-5" cx="6.9" cy="6.9" rx="2.37" ry="0.41" transform="translate(-1.93 2.75) rotate(-19.81)"/><path class="cls-6" d="M25.27,59c.07-.65-3.46-2.1-7.23-2.37s-8.6.44-8.67,1.09,4.81-.63,8.59-.36S25.2,59.65,25.27,59Z"/><path class="cls-6" d="M48.11,59.37c0-.63-4.48-1.76-9.08-1.73s-10.31,1.1-10.3,1.74,5.71-1,10.31-1S48.11,60,48.11,59.37Z"/><path class="cls-6" d="M67.9,57.73c-.07-.57-4.08-1.29-8.07-1S51,58.37,51.05,58.94s4.86-1.25,8.86-1.58S68,58.29,67.9,57.73Z"/><path class="cls-6" d="M29.37,88.66c2.24,10.07,7,19.52,6.68,19.57s-5-7.72-7.2-17.8S25,67.06,25.31,67,27.11,78.58,29.37,88.66Z"/><path class="cls-6" d="M48.88,86.46c-1.54,10.16-6.24,19.75-5.85,19.78s5.16-7.85,6.7-18,2-23.53,1.58-23.57S50.42,76.31,48.88,86.46Z"/><path class="cls-6" d="M44.11,120.72c0,.35-2.69,1-5.49,1.06s-6.3-.49-6.3-.84,3.49.48,6.29.45S44.11,120.37,44.11,120.72Z"/><path class="cls-6" d="M44.11,112.5c0,.35-2.69,1-5.49,1.06s-6.3-.48-6.3-.83,3.49.48,6.29.44S44.11,112.15,44.11,112.5Z"/><path class="cls-6" d="M53.53,132.28c0,.37-6.85,2.7-14.16,2.79s-16.59-2-16.6-2.33,9,1.53,16.36,1.44S53.52,131.87,53.53,132.28Z"/><path class="cls-7" d="M114.59,111.87c1.75,1,2.83,2.4,2.83,3.94a4.66,4.66,0,0,1-2.5,3.74c6.32,1.89,11.56,6.27,13.4,10.66,2.54,6.09-17.29,7-21.84,6.87s-22.43-2.29-17.13-8.6c3.84-4.58,6.59-7.44,11.39-8.87a4.7,4.7,0,0,1-2.63-3.74c0-1.73,1.36-3.27,3.49-4.29-12.7-4.23-15.85-18.43-19.7-39-2.24-12-3.85-20.53-.72-25.61,4.55,3.57,16.48,2.81,21.53,2.7,5.2-.11,24.73.19,31.44-3.72,4.48,2.09,3.32,6.26,2.48,17.59C135.32,81.63,128.6,106.79,114.59,111.87Z"/><path class="cls-2" d="M95.83,35.15c.61,0,1.2.07,1.79.12C97,35.24,96.41,35.2,95.83,35.15Z"/><path class="cls-2" d="M120.24,34.38a34.87,34.87,0,0,1-4.3.76C117.37,34.87,118.82,34.6,120.24,34.38Z"/><path class="cls-3" d="M95.83,35.15c.61,0,1.2.07,1.79.12C97,35.24,96.41,35.2,95.83,35.15Z"/><path class="cls-3" d="M120.24,34.38a34.87,34.87,0,0,1-4.3.76C117.37,34.87,118.82,34.6,120.24,34.38Z"/><path class="cls-4" d="M133.74,40.32a2.44,2.44,0,0,0,.49-3.42h0a2.35,2.35,0,0,0-.3-.33,7.14,7.14,0,0,0-3.82-2.29c.44-.25.66-.52.62-.8-.14-1-2.57-1.8-5.81-2.48-.17-1.29-1.91-2.87-6.09-4.79-15-6.86-.43-10.2-11.45-7.56-10.78,2.59-18.09,8.16-18,12.88-4.52,1.18-7.71,2.75-6.58,4.71a3.29,3.29,0,0,0,.69.8c-1.87,1-3.07,2.33-3.07,4.14a2.85,2.85,0,0,0-1,2.58,4.37,4.37,0,0,0,1.8,3.16c4.55,3.57,16.48,2.81,21.53,2.7,5.2-.11,24.73.19,31.44-3.72a4,4,0,0,0,2.25-2.69C136.65,41.87,135.6,40.87,133.74,40.32ZM95.83,35.15c.61,0,1.2.07,1.79.12C97,35.24,96.41,35.2,95.83,35.15Zm20.11,0c1.43-.27,2.88-.54,4.3-.76a34.84,34.84,0,0,1-4.3.75Z"/><path class="cls-4" d="M95.83,35.15c.61,0,1.2.07,1.79.12C97,35.24,96.41,35.2,95.83,35.15Z"/><path class="cls-4" d="M120.24,34.38a34.87,34.87,0,0,1-4.3.76C117.37,34.87,118.82,34.6,120.24,34.38Z"/><polygon class="cls-7" points="95.83 33.64 91.6 35.28 76.55 7.45 80.78 5.81 95.83 33.64"/><ellipse class="cls-8" cx="78.63" cy="6.58" rx="2.26" ry="0.4" transform="translate(2.83 28.48) rotate(-20.9)"/><path class="cls-6" d="M96,58.58c.06-.65-3.27-2.1-6.84-2.37S81,56.65,81,57.3s4.54-.63,8.11-.36S95.93,59.23,96,58.58Z"/><path class="cls-6" d="M117.59,59c0-.64-4.23-1.76-8.58-1.73s-9.74,1.1-9.73,1.73,5.4-1,9.74-1S117.6,59.59,117.59,59Z"/><path class="cls-6" d="M136.28,57.31c-.07-.56-3.85-1.28-7.63-1s-8.36,1.64-8.29,2.2,4.59-1.24,8.37-1.57S136.34,57.87,136.28,57.31Z"/><path class="cls-6" d="M99.87,88.17c2.11,10,6.61,19.48,6.31,19.53S101.49,100,99.38,90,95.74,66.63,96,66.58,97.77,78.12,99.87,88.17Z"/><path class="cls-6" d="M118.31,86c-1.46,10.14-5.9,19.7-5.54,19.74s4.88-7.84,6.34-18S121,64.24,120.6,64.2,119.76,75.87,118.31,86Z"/><path class="cls-6" d="M113.8,120.16c0,.35-2.54,1-5.19,1.06s-6-.48-6-.83,3.3.47,5.94.44S113.8,119.81,113.8,120.16Z"/><path class="cls-6" d="M113.8,112c0,.35-2.54,1-5.19,1.06s-6-.48-6-.83,3.3.48,5.94.44S113.8,111.61,113.8,112Z"/><path class="cls-6" d="M122.7,131.69c0,.37-6.48,2.71-13.38,2.79s-15.68-2-15.68-2.32,8.55,1.53,15.45,1.44S122.69,131.32,122.7,131.69Z"/><path class="cls-9" d="M182.48,111.55c1.74,1,2.82,2.4,2.82,4a4.64,4.64,0,0,1-2.5,3.74c6.32,1.89,11.57,6.26,13.4,10.66,2.55,6.09-17.28,7-21.83,6.86s-22.44-2.28-17.14-8.6c3.84-4.58,6.59-7.43,11.4-8.86a4.68,4.68,0,0,1-2.61-3.8c0-1.73,1.36-3.27,3.5-4.3-12.7-4.22-15.85-18.42-19.71-39-2.23-12-3.84-20.54-.72-25.61,4.56,3.57,16.49,2.8,21.53,2.7,5.2-.11,24.74.19,31.45-3.72,4.47,2.08,3.32,6.26,2.48,17.58C203.2,81.29,196.49,106.46,182.48,111.55Z"/><path class="cls-2" d="M163.72,34.81c.6,0,1.2.08,1.78.13C164.89,34.87,164.29,34.87,163.72,34.81Z"/><path class="cls-2" d="M188.11,34.05a31.59,31.59,0,0,1-4.31.75C185.25,34.53,186.7,34.27,188.11,34.05Z"/><path class="cls-3" d="M163.72,34.81c.6,0,1.2.08,1.78.13C164.89,34.87,164.29,34.87,163.72,34.81Z"/><path class="cls-3" d="M188.11,34.05a31.59,31.59,0,0,1-4.31.75C185.25,34.53,186.7,34.27,188.11,34.05Z"/><path class="cls-4" d="M201.62,40a2.43,2.43,0,0,0,.51-3.4h0a2,2,0,0,0-.31-.34A7.2,7.2,0,0,0,198,34c.44-.25.67-.52.63-.81-.14-1-2.57-1.79-5.81-2.47-.17-1.29-1.91-2.88-6.1-4.79-15-6.87-.43-10.2-11.44-7.56-10.79,2.59-18.09,8.16-18,12.88-4.52,1.17-7.71,2.75-6.58,4.71a3.29,3.29,0,0,0,.69.8c-1.88,1-3.07,2.32-3.07,4.14a2.81,2.81,0,0,0-1,2.58,4.41,4.41,0,0,0,1.79,3.16c4.56,3.57,16.49,2.8,21.53,2.7,5.2-.11,24.74.19,31.45-3.72a4,4,0,0,0,2.23-2.7C204.54,41.51,203.49,40.58,201.62,40Zm-37.9-5.17c.6,0,1.2.08,1.78.13C164.89,34.87,164.29,34.87,163.72,34.81Zm20.1,0c1.43-.27,2.88-.53,4.31-.75a33.18,33.18,0,0,1-4.31.74Z"/><path class="cls-4" d="M163.72,34.81c.6,0,1.2.08,1.78.13C164.89,34.87,164.29,34.87,163.72,34.81Z"/><path class="cls-4" d="M188.11,34.05a31.59,31.59,0,0,1-4.31.75C185.25,34.53,186.7,34.27,188.11,34.05Z"/><polygon class="cls-9" points="163.72 33.31 159.49 34.94 144.43 7.11 148.66 5.48 163.72 33.31"/><ellipse class="cls-8" cx="146.52" cy="6.24" rx="2.26" ry="0.4" transform="translate(7.41 52.68) rotate(-20.9)"/><path class="cls-6" d="M163.88,58.25c.07-.65-3.26-2.1-6.83-2.37s-8.12.44-8.19,1.09,4.54-.63,8.11-.37S163.81,58.87,163.88,58.25Z"/><path class="cls-6" d="M185.48,58.62c0-.63-4.23-1.76-8.58-1.72s-9.74,1.1-9.73,1.73,5.39-1,9.74-1S185.49,59.26,185.48,58.62Z"/><path class="cls-6" d="M204.16,57c-.07-.56-3.85-1.28-7.62-1s-8.36,1.63-8.3,2.2,4.6-1.25,8.37-1.58S204.23,57.55,204.16,57Z"/><path class="cls-6" d="M167.76,87.87c2.11,10,6.6,19.48,6.31,19.53s-4.7-7.71-6.81-17.76-3.64-23.32-3.34-23.36S165.65,77.79,167.76,87.87Z"/><path class="cls-6" d="M186.19,85.65c-1.46,10.13-5.89,19.7-5.53,19.74s4.88-7.84,6.33-18,1.86-23.52,1.49-23.52S187.65,75.52,186.19,85.65Z"/><path class="cls-6" d="M181.69,119.87c0,.35-2.55,1-5.19,1.06s-5.95-.49-6-.83,3.3.47,6,.44S181.68,119.48,181.69,119.87Z"/><path class="cls-6" d="M181.69,111.63c0,.35-2.55,1-5.19,1.06s-5.95-.48-6-.83,3.3.47,6,.44S181.68,111.28,181.69,111.63Z"/><path class="cls-6" d="M190.58,131.36c0,.37-6.47,2.7-13.37,2.79s-15.68-2-15.69-2.32,8.55,1.52,15.45,1.43S190.58,131,190.58,131.36Z"/></g></svg>