<svg xmlns="http://www.w3.org/2000/svg" width="332" height="207" viewBox="0 0 332 207"><defs><style>.cls-1{fill:#f6bbd5;}.cls-2{fill:#f9f6ca;}.cls-3{fill:#fcf6ce;}.cls-4{fill:#fff;}.cls-5{fill:#e9e5f3;}.cls-6{fill:#fcfbf9;}.cls-7{fill:#d9cde7;}.cls-8{fill:#f0e9e7;}.cls-9{fill:#b7e0ef;}</style></defs><g id="milkshake"><path class="cls-1" d="M107.84,146.55c1.85,1,3,2.41,3,3.95s-1,2.77-2.65,3.76c6.69,1.89,12.24,6.28,14.19,10.68,2.69,6.11-18.3,7-23.11,6.88s-23.75-2.29-18.14-8.62c4.07-4.59,7-7.45,12.06-8.88-1.7-1-2.75-2.34-2.75-3.82,0-1.73,1.44-3.27,3.69-4.3C80.68,142,77.35,127.73,73.27,107.1c-2.37-12-4.07-20.57-.76-25.66C77.33,85,90,84.25,95.29,84.14c5.51-.11,26.18.19,33.29-3.72,4.73,2.09,3.51,6.27,2.62,17.62C129.78,116.22,122.67,141.44,107.84,146.55Z"/><path class="cls-2" d="M88,69.64c.64,0,1.27.07,1.88.13Z"/><path class="cls-2" d="M113.82,68.87a36.43,36.43,0,0,1-4.56.76C110.78,69.36,112.31,69.09,113.82,68.87Z"/><path class="cls-3" d="M88,69.64c.64,0,1.27.07,1.88.13Z"/><path class="cls-3" d="M113.82,68.87a36.43,36.43,0,0,1-4.56.76C110.78,69.36,112.31,69.09,113.82,68.87Z"/><path class="cls-4" d="M128.1,74.82a2.36,2.36,0,0,0,.21-3.76,7.68,7.68,0,0,0-4-2.29c.46-.25.7-.52.66-.81-.14-1-2.71-1.8-6.15-2.48-.18-1.29-2-2.88-6.44-4.8-15.88-6.88-.46-10.22-12.12-7.58C88.81,55.7,81.07,61.29,81.14,66c-4.79,1.18-8.16,2.76-7,4.72a3.06,3.06,0,0,0,.72.81c-2,1-3.24,2.33-3.24,4.15a2.73,2.73,0,0,0-1,2.58,4.35,4.35,0,0,0,1.9,3.17C77.33,85,90,84.25,95.29,84.14c5.51-.11,26.18.19,33.29-3.72a4.11,4.11,0,0,0,2.37-2.7C131.19,76.35,130.08,75.42,128.1,74.82ZM88,69.64c.64,0,1.27.07,1.88.13Zm21.27,0c1.52-.27,3-.54,4.56-.76A36.43,36.43,0,0,1,109.26,69.63Z"/><path class="cls-4" d="M88,69.64c.64,0,1.27.07,1.88.13Z"/><path class="cls-4" d="M113.82,68.87a36.43,36.43,0,0,1-4.56.76C110.78,69.36,112.31,69.09,113.82,68.87Z"/><polygon class="cls-1" points="87.99 68.13 83.51 69.77 67.58 41.87 72.05 40.23 87.99 68.13"/><ellipse class="cls-5" cx="69.79" cy="41.02" rx="2.37" ry="0.41" transform="translate(-9.77 26.09) rotate(-19.81)"/><path class="cls-6" d="M88.16,93.12c.07-.65-3.46-2.1-7.23-2.37s-8.6.44-8.67,1.09,4.81-.63,8.59-.36S88.09,93.78,88.16,93.12Z"/><path class="cls-6" d="M111,93.5c0-.63-4.48-1.76-9.08-1.73s-10.31,1.1-10.3,1.74,5.71-1,10.31-1S111,94.14,111,93.5Z"/><path class="cls-6" d="M130.79,91.86c-.07-.57-4.08-1.29-8.07-1s-8.85,1.64-8.78,2.21,4.86-1.25,8.86-1.58S130.86,92.42,130.79,91.86Z"/><path class="cls-6" d="M92.26,122.79c2.24,10.07,7,19.52,6.68,19.57s-5-7.72-7.2-17.8-3.85-23.37-3.54-23.42S90,112.71,92.26,122.79Z"/><path class="cls-6" d="M111.77,120.59c-1.54,10.16-6.24,19.75-5.85,19.78s5.16-7.85,6.7-18,2-23.53,1.58-23.57S113.31,110.44,111.77,120.59Z"/><path class="cls-6" d="M107,154.85c0,.35-2.69,1-5.49,1.06s-6.3-.49-6.3-.84,3.49.48,6.29.45S107,154.5,107,154.85Z"/><path class="cls-6" d="M107,146.63c0,.35-2.69,1-5.49,1.06s-6.3-.48-6.3-.83,3.49.48,6.29.44S107,146.28,107,146.63Z"/><path class="cls-6" d="M116.42,166.41c0,.37-6.85,2.7-14.16,2.79s-16.59-2-16.6-2.33,9,1.53,16.36,1.44S116.41,166,116.42,166.41Z"/><path class="cls-7" d="M177.48,146c1.75,1,2.83,2.4,2.83,3.94a4.65,4.65,0,0,1-2.5,3.74c6.32,1.89,11.56,6.27,13.4,10.66,2.54,6.09-17.29,7-21.84,6.87s-22.43-2.29-17.13-8.6c3.84-4.58,6.59-7.44,11.39-8.87A4.69,4.69,0,0,1,161,150c0-1.73,1.36-3.27,3.49-4.29-12.7-4.23-15.85-18.43-19.7-39-2.24-12-3.85-20.53-.72-25.61,4.55,3.57,16.48,2.81,21.53,2.7,5.2-.11,24.73.19,31.44-3.72,4.48,2.09,3.32,6.26,2.48,17.59C198.21,115.76,191.49,140.92,177.48,146Z"/><path class="cls-2" d="M158.72,69.28c.61,0,1.2.07,1.79.12C159.89,69.37,159.3,69.33,158.72,69.28Z"/><path class="cls-2" d="M183.13,68.51a32.87,32.87,0,0,1-4.3.76C180.26,69,181.71,68.73,183.13,68.51Z"/><path class="cls-3" d="M158.72,69.28c.61,0,1.2.07,1.79.12C159.89,69.37,159.3,69.33,158.72,69.28Z"/><path class="cls-3" d="M183.13,68.51a32.87,32.87,0,0,1-4.3.76C180.26,69,181.71,68.73,183.13,68.51Z"/><path class="cls-4" d="M196.63,74.45a2.44,2.44,0,0,0,.19-3.75A7.13,7.13,0,0,0,193,68.41c.44-.25.66-.52.62-.8-.14-1-2.57-1.8-5.81-2.48-.17-1.29-1.91-2.87-6.09-4.79-15-6.86-.43-10.2-11.45-7.56-10.78,2.59-18.09,8.16-18,12.88-4.52,1.18-7.71,2.75-6.58,4.71a3.09,3.09,0,0,0,.69.8c-1.87,1-3.07,2.33-3.07,4.14a2.85,2.85,0,0,0-1,2.58,4.36,4.36,0,0,0,1.8,3.16c4.55,3.57,16.48,2.81,21.53,2.7,5.2-.11,24.73.19,31.44-3.72a4,4,0,0,0,2.25-2.69C199.54,76,198.49,75,196.63,74.45Zm-37.91-5.17c.61,0,1.2.07,1.79.12C159.89,69.37,159.3,69.33,158.72,69.28Zm20.11,0c1.43-.27,2.88-.54,4.3-.76A32.87,32.87,0,0,1,178.83,69.27Z"/><path class="cls-4" d="M158.72,69.28c.61,0,1.2.07,1.79.12C159.89,69.37,159.3,69.33,158.72,69.28Z"/><path class="cls-4" d="M183.13,68.51a32.87,32.87,0,0,1-4.3.76C180.26,69,181.71,68.73,183.13,68.51Z"/><polygon class="cls-7" points="158.72 67.77 154.49 69.41 139.44 41.58 143.67 39.94 158.72 67.77"/><ellipse class="cls-8" cx="141.53" cy="40.72" rx="2.26" ry="0.4" transform="translate(-5.22 53.16) rotate(-20.9)"/><path class="cls-6" d="M158.89,92.71c.06-.65-3.27-2.1-6.84-2.37s-8.12.44-8.19,1.09,4.54-.63,8.11-.36S158.82,93.36,158.89,92.71Z"/><path class="cls-6" d="M180.48,93.09c0-.64-4.23-1.76-8.58-1.73s-9.74,1.1-9.73,1.73,5.4-1,9.74-1S180.49,93.72,180.48,93.09Z"/><path class="cls-6" d="M199.17,91.44c-.07-.56-3.85-1.28-7.63-1s-8.36,1.64-8.29,2.2,4.59-1.24,8.37-1.57S199.23,92,199.17,91.44Z"/><path class="cls-6" d="M162.76,122.3c2.11,10,6.61,19.48,6.31,19.53s-4.69-7.7-6.8-17.75-3.64-23.32-3.35-23.37S160.66,112.25,162.76,122.3Z"/><path class="cls-6" d="M181.2,120.11c-1.46,10.14-5.9,19.7-5.54,19.74s4.88-7.84,6.34-18,1.85-23.48,1.49-23.52S182.65,110,181.2,120.11Z"/><path class="cls-6" d="M176.69,154.29c0,.35-2.54,1-5.19,1.06s-5.95-.48-5.95-.83,3.3.47,5.94.44S176.69,153.94,176.69,154.29Z"/><path class="cls-6" d="M176.69,146.09c0,.35-2.54,1-5.19,1.06s-5.95-.48-5.95-.83,3.3.48,5.94.44S176.69,145.74,176.69,146.09Z"/><path class="cls-6" d="M185.59,165.82c0,.37-6.48,2.71-13.38,2.79s-15.68-2-15.68-2.32,8.55,1.53,15.45,1.44S185.58,165.45,185.59,165.82Z"/><path class="cls-9" d="M245.37,145.68c1.74,1,2.82,2.4,2.82,3.95a4.62,4.62,0,0,1-2.5,3.74c6.32,1.89,11.57,6.26,13.4,10.66,2.55,6.09-17.28,7-21.83,6.86s-22.44-2.28-17.14-8.6c3.84-4.58,6.59-7.43,11.4-8.86a4.68,4.68,0,0,1-2.61-3.8c0-1.73,1.36-3.27,3.5-4.3-12.7-4.22-15.85-18.42-19.71-39-2.23-12-3.84-20.54-.72-25.61,4.56,3.57,16.49,2.8,21.53,2.7,5.2-.11,24.74.19,31.45-3.72,4.47,2.08,3.32,6.26,2.48,17.58C266.09,115.42,259.38,140.59,245.37,145.68Z"/><path class="cls-2" d="M226.61,68.94c.6,0,1.2.08,1.78.13C227.78,69,227.18,69,226.61,68.94Z"/><path class="cls-2" d="M251,68.18a31.18,31.18,0,0,1-4.31.75C248.14,68.66,249.59,68.4,251,68.18Z"/><path class="cls-3" d="M226.61,68.94c.6,0,1.2.08,1.78.13C227.78,69,227.18,69,226.61,68.94Z"/><path class="cls-3" d="M251,68.18a31.18,31.18,0,0,1-4.31.75C248.14,68.66,249.59,68.4,251,68.18Z"/><path class="cls-4" d="M264.51,74.11a2.43,2.43,0,0,0,.2-3.74,7.16,7.16,0,0,0-3.82-2.29c.44-.25.67-.52.63-.81-.14-1-2.57-1.79-5.81-2.47-.17-1.29-1.91-2.88-6.1-4.79-15-6.87-.43-10.2-11.44-7.56-10.79,2.59-18.09,8.16-18,12.88-4.52,1.17-7.71,2.75-6.58,4.71a3.09,3.09,0,0,0,.69.8c-1.88,1-3.07,2.32-3.07,4.14a2.8,2.8,0,0,0-1,2.58A4.4,4.4,0,0,0,212,80.72c4.56,3.57,16.49,2.8,21.53,2.7,5.2-.11,24.74.19,31.45-3.72A4,4,0,0,0,267.21,77C267.43,75.64,266.38,74.71,264.51,74.11Zm-37.9-5.17c.6,0,1.2.08,1.78.13C227.78,69,227.18,69,226.61,68.94Zm20.1,0c1.43-.27,2.88-.53,4.31-.75A31.18,31.18,0,0,1,246.71,68.93Z"/><path class="cls-4" d="M226.61,68.94c.6,0,1.2.08,1.78.13C227.78,69,227.18,69,226.61,68.94Z"/><path class="cls-4" d="M251,68.18a31.18,31.18,0,0,1-4.31.75C248.14,68.66,249.59,68.4,251,68.18Z"/><polygon class="cls-9" points="226.61 67.44 222.38 69.07 207.32 41.24 211.55 39.61 226.61 67.44"/><ellipse class="cls-8" cx="209.42" cy="40.39" rx="2.26" ry="0.4" transform="translate(-0.63 77.35) rotate(-20.9)"/><path class="cls-6" d="M226.77,92.38c.07-.65-3.26-2.1-6.83-2.37s-8.12.44-8.19,1.09,4.54-.63,8.11-.37S226.7,93,226.77,92.38Z"/><path class="cls-6" d="M248.37,92.75c0-.63-4.23-1.76-8.58-1.72s-9.74,1.1-9.73,1.73,5.39-1,9.74-1S248.38,93.39,248.37,92.75Z"/><path class="cls-6" d="M267.05,91.11c-.07-.56-3.85-1.28-7.62-1s-8.36,1.63-8.3,2.2,4.6-1.25,8.37-1.58S267.12,91.68,267.05,91.11Z"/><path class="cls-6" d="M230.65,122c2.11,10.05,6.6,19.48,6.31,19.53s-4.7-7.71-6.81-17.76-3.64-23.32-3.34-23.36S228.54,111.92,230.65,122Z"/><path class="cls-6" d="M249.08,119.78c-1.46,10.13-5.89,19.7-5.53,19.74s4.88-7.84,6.33-18,1.86-23.48,1.49-23.52S250.54,109.65,249.08,119.78Z"/><path class="cls-6" d="M244.58,154c0,.35-2.55,1-5.19,1.06s-5.95-.49-6-.83,3.3.47,5.95.44S244.57,153.61,244.58,154Z"/><path class="cls-6" d="M244.58,145.76c0,.35-2.55,1-5.19,1.06s-5.95-.48-6-.83,3.3.47,5.95.44S244.57,145.41,244.58,145.76Z"/><path class="cls-6" d="M253.47,165.49c0,.37-6.47,2.7-13.37,2.79s-15.68-2-15.69-2.32,8.55,1.52,15.45,1.43S253.47,165.12,253.47,165.49Z"/></g></svg>