<svg id="Lag_1" data-name="Lag 1" xmlns="http://www.w3.org/2000/svg" width="212" height="141.4" viewBox="0 0 212 141.4"><defs><style>.cls-1{fill:#f6bbd5;}.cls-2{fill:#f9f6ca;}.cls-3{fill:#fcf6ce;}.cls-4{fill:#fff;}.cls-5{fill:#e9e5f3;}.cls-6{fill:#fcfbf9;}.cls-7{fill:#d9cde7;}.cls-8{fill:#f0e9e7;}.cls-9{fill:#b7e0ef;}</style></defs><g id="milkshake"><path class="cls-1" d="M44.9,112.4c1.8,1,3,2.4,3,4s-1,2.8-2.7,3.8c6.7,1.9,12.2,6.3,14.2,10.7,2.7,6.1-18.3,7-23.1,6.9s-23.8-2.3-18.1-8.6c4.1-4.6,7-7.4,12.1-8.9-1.7-1-2.8-2.3-2.8-3.8,0-1.7,1.4-3.3,3.7-4.3C17.8,107.9,14.5,93.6,10.4,73,8,61,6.3,52.4,9.6,47.3c4.8,3.6,17.5,2.8,22.8,2.7,5.5-.1,26.2.2,33.3-3.7,4.7,2.1,3.5,6.3,2.6,17.6C66.9,82.1,59.8,107.3,44.9,112.4Z"/><path class="cls-2" d="M25.1,35.5c.6,0,1.3.1,1.9.1Z"/><path class="cls-2" d="M50.9,34.7c-1.5.3-3,.6-4.6.8C47.9,35.2,49.4,35,50.9,34.7Z"/><path class="cls-3" d="M25.1,35.5c.6,0,1.3.1,1.9.1Z"/><path class="cls-3" d="M50.9,34.7c-1.5.3-3,.6-4.6.8C47.9,35.2,49.4,35,50.9,34.7Z"/><path class="cls-4" d="M65.2,40.7a2.3,2.3,0,0,0,.6-3.3h0a2.18,2.18,0,0,0-.4-.5,7.43,7.43,0,0,0-4-2.3c.5-.2.7-.5.7-.8-.1-1-2.7-1.8-6.2-2.5-.2-1.3-2-2.9-6.4-4.8C33.6,19.7,49,16.3,37.4,19,26,21.6,18.2,27.2,18.3,31.9c-4.8,1.2-8.2,2.8-7,4.7a2.7,2.7,0,0,0,.7.8c-2,1-3.2,2.3-3.2,4.2a2.6,2.6,0,0,0-1,2.6,4.35,4.35,0,0,0,1.9,3.2c4.8,3.6,17.5,2.8,22.8,2.7,5.5-.1,26.2.2,33.3-3.7a4,4,0,0,0,2.4-2.7C68.3,42.2,67.2,41.3,65.2,40.7ZM25.1,35.5c.6,0,1.3.1,1.9.1Zm21.3,0c1.5-.3,3-.5,4.6-.8a40.41,40.41,0,0,1-4.6.8Z"/><path class="cls-4" d="M25.1,35.5c.6,0,1.3.1,1.9.1Z"/><path class="cls-4" d="M50.9,34.7c-1.5.3-3,.6-4.6.8C47.9,35.2,49.4,35,50.9,34.7Z"/><polygon class="cls-1" points="25.1 34 20.6 35.6 4.7 7.7 9.2 6.1 25.1 34"/><ellipse class="cls-5" cx="6.9" cy="6.9" rx="2.4" ry="0.4" transform="translate(-1.93 2.75) rotate(-19.81)"/><path class="cls-6" d="M25.3,59c.1-.7-3.5-2.1-7.2-2.4s-8.6.4-8.7,1.1,4.8-.6,8.6-.4S25.2,59.6,25.3,59Z"/><path class="cls-6" d="M48.1,59.4c0-.6-4.5-1.8-9.1-1.7s-10.3,1.1-10.3,1.7,5.7-1,10.3-1S48.1,60,48.1,59.4Z"/><path class="cls-6" d="M67.9,57.7c-.1-.6-4.1-1.3-8.1-1S51,58.4,51,58.9s4.9-1.2,8.9-1.6S68,58.3,67.9,57.7Z"/><path class="cls-6" d="M29.4,88.7c2.2,10.1,7,19.5,6.7,19.6s-5-7.7-7.2-17.8S25,67.1,25.3,67,27.1,78.6,29.4,88.7Z"/><path class="cls-6" d="M48.9,86.5c-1.5,10.2-6.2,19.8-5.8,19.8s5.2-7.8,6.7-18,2-23.5,1.6-23.6S50.4,76.3,48.9,86.5Z"/><path class="cls-6" d="M44.1,120.7c0,.3-2.7,1-5.5,1.1s-6.3-.5-6.3-.8,3.5.5,6.3.4S44.1,120.4,44.1,120.7Z"/><path class="cls-6" d="M44.1,112.5c0,.3-2.7,1-5.5,1.1s-6.3-.5-6.3-.8,3.5.5,6.3.4S44.1,112.1,44.1,112.5Z"/><path class="cls-6" d="M53.5,132.3c0,.4-6.8,2.7-14.2,2.8s-16.6-2-16.6-2.3,9,1.5,16.4,1.4S53.5,131.9,53.5,132.3Z"/><path class="cls-7" d="M114.6,111.9c1.8,1,2.8,2.4,2.8,3.9a4.5,4.5,0,0,1-2.5,3.7c6.3,1.9,11.6,6.3,13.4,10.7,2.5,6.1-17.3,7-21.8,6.9s-22.4-2.3-17.1-8.6c3.8-4.6,6.6-7.4,11.4-8.9a4.41,4.41,0,0,1-2.6-3.7c0-1.7,1.4-3.3,3.5-4.3C89,107.4,85.9,93.2,82,72.6c-2.3-12-4-20.6-.8-25.6,4.6,3.6,16.5,2.8,21.5,2.7,5.2-.1,24.7.2,31.4-3.7,4.5,2.1,3.3,6.3,2.5,17.6C135.3,81.6,128.6,106.8,114.6,111.9Z"/><path class="cls-2" d="M95.8,35.1c.6,0,1.2.1,1.8.1A10.87,10.87,0,0,1,95.8,35.1Z"/><path class="cls-2" d="M120.2,34.4c-1.4.3-2.9.6-4.3.8C117.4,34.9,118.8,34.6,120.2,34.4Z"/><path class="cls-3" d="M95.8,35.1c.6,0,1.2.1,1.8.1A10.87,10.87,0,0,1,95.8,35.1Z"/><path class="cls-3" d="M120.2,34.4c-1.4.3-2.9.6-4.3.8C117.4,34.9,118.8,34.6,120.2,34.4Z"/><path class="cls-4" d="M133.7,40.3a2.41,2.41,0,0,0,.5-3.4h0l-.3-.3a6.58,6.58,0,0,0-3.8-2.3c.4-.2.7-.5.6-.8-.1-1-2.6-1.8-5.8-2.5-.2-1.3-1.9-2.9-6.1-4.8-15-6.9-.4-10.2-11.4-7.6-10.8,2.6-18.1,8.2-18,12.9-4.5,1.2-7.7,2.7-6.6,4.7a2.7,2.7,0,0,0,.7.8c-1.9,1-3.1,2.3-3.1,4.1a2.81,2.81,0,0,0-1,2.6,4.56,4.56,0,0,0,1.8,3.2c4.6,3.6,16.5,2.8,21.5,2.7,5.2-.1,24.7.2,31.4-3.7a3.76,3.76,0,0,0,2.2-2.7C136.6,41.9,135.6,40.9,133.7,40.3ZM95.8,35.1c.6,0,1.2.1,1.8.1A10.87,10.87,0,0,1,95.8,35.1Zm20.1,0c1.4-.3,2.9-.5,4.3-.8a20.42,20.42,0,0,1-4.3.8Z"/><path class="cls-4" d="M95.8,35.1c.6,0,1.2.1,1.8.1A10.87,10.87,0,0,1,95.8,35.1Z"/><path class="cls-4" d="M120.2,34.4c-1.4.3-2.9.6-4.3.8C117.4,34.9,118.8,34.6,120.2,34.4Z"/><polygon class="cls-7" points="95.8 33.6 91.6 35.3 76.5 7.4 80.8 5.8 95.8 33.6"/><ellipse class="cls-8" cx="78.61" cy="6.61" rx="2.3" ry="0.4" transform="translate(2.81 28.48) rotate(-20.9)"/><path class="cls-6" d="M96,58.6c.1-.7-3.3-2.1-6.8-2.4s-8.2.4-8.2,1.1,4.5-.6,8.1-.4S95.9,59.2,96,58.6Z"/><path class="cls-6" d="M117.6,59c0-.6-4.2-1.8-8.6-1.7s-9.7,1.1-9.7,1.7,5.4-1,9.7-1S117.6,59.6,117.6,59Z"/><path class="cls-6" d="M136.3,57.3c-.1-.6-3.9-1.3-7.6-1s-8.4,1.6-8.3,2.2,4.6-1.2,8.4-1.6S136.3,57.9,136.3,57.3Z"/><path class="cls-6" d="M99.9,88.2c2.1,10,6.6,19.5,6.3,19.5s-4.7-7.7-6.8-17.8S95.7,66.6,96,66.6,97.8,78.1,99.9,88.2Z"/><path class="cls-6" d="M118.3,86c-1.5,10.1-5.9,19.7-5.5,19.7s4.9-7.8,6.3-18,1.9-23.5,1.5-23.5S119.8,75.9,118.3,86Z"/><path class="cls-6" d="M113.8,120.2c0,.3-2.5,1-5.2,1.1s-6-.5-6-.8,3.3.5,5.9.4S113.8,119.8,113.8,120.2Z"/><path class="cls-6" d="M113.8,112c0,.3-2.5,1-5.2,1.1s-6-.5-6-.8,3.3.5,5.9.4S113.8,111.6,113.8,112Z"/><path class="cls-6" d="M122.7,131.7c0,.4-6.5,2.7-13.4,2.8s-15.7-2-15.7-2.3,8.6,1.5,15.5,1.4S122.7,131.3,122.7,131.7Z"/><path class="cls-9" d="M182.5,111.5c1.7,1,2.8,2.4,2.8,3.9a4.5,4.5,0,0,1-2.5,3.7c6.3,1.9,11.6,6.3,13.4,10.7,2.6,6.1-17.3,7-21.8,6.9s-22.4-2.3-17.1-8.6c3.8-4.6,6.6-7.4,11.4-8.9a4.56,4.56,0,0,1-2.6-3.8c0-1.7,1.4-3.3,3.5-4.3-12.7-4.2-15.9-18.4-19.7-39-2.2-12-3.8-20.5-.7-25.6,4.6,3.6,16.5,2.8,21.5,2.7,5.2-.1,24.7.2,31.4-3.7,4.5,2.1,3.3,6.3,2.5,17.6C203.2,81.3,196.5,106.5,182.5,111.5Z"/><path class="cls-2" d="M163.7,34.8c.6,0,1.2.1,1.8.1A10.87,10.87,0,0,1,163.7,34.8Z"/><path class="cls-2" d="M188.1,34c-1.4.3-2.9.6-4.3.8C185.2,34.5,186.7,34.3,188.1,34Z"/><path class="cls-3" d="M163.7,34.8c.6,0,1.2.1,1.8.1A10.87,10.87,0,0,1,163.7,34.8Z"/><path class="cls-3" d="M188.1,34c-1.4.3-2.9.6-4.3.8C185.2,34.5,186.7,34.3,188.1,34Z"/><path class="cls-4" d="M201.6,40a2.41,2.41,0,0,0,.5-3.4h0l-.3-.3A7.83,7.83,0,0,0,198,34c.4-.2.7-.5.6-.8-.1-1-2.6-1.8-5.8-2.5-.2-1.3-1.9-2.9-6.1-4.8-15-6.9-.4-10.2-11.4-7.6-10.8,2.6-18.1,8.2-18,12.9-4.5,1.2-7.7,2.7-6.6,4.7a2.7,2.7,0,0,0,.7.8c-1.9,1-3.1,2.3-3.1,4.1a2.81,2.81,0,0,0-1,2.6,4.56,4.56,0,0,0,1.8,3.2c4.6,3.6,16.5,2.8,21.5,2.7,5.2-.1,24.7.2,31.4-3.7a4,4,0,0,0,2.2-2.7C204.5,41.5,203.5,40.6,201.6,40Zm-37.9-5.2c.6,0,1.2.1,1.8.1A10.87,10.87,0,0,1,163.7,34.8Zm20.1,0c1.4-.3,2.9-.5,4.3-.8a29.71,29.71,0,0,1-4.3.8Z"/><path class="cls-4" d="M163.7,34.8c.6,0,1.2.1,1.8.1A10.87,10.87,0,0,1,163.7,34.8Z"/><path class="cls-4" d="M188.1,34c-1.4.3-2.9.6-4.3.8C185.2,34.5,186.7,34.3,188.1,34Z"/><polygon class="cls-9" points="163.7 33.3 159.5 34.9 144.4 7.1 148.7 5.5 163.7 33.3"/><ellipse class="cls-8" cx="146.49" cy="6.22" rx="2.3" ry="0.4" transform="translate(7.42 52.66) rotate(-20.9)"/><path class="cls-6" d="M163.9,58.2c.1-.7-3.3-2.1-6.8-2.4s-8.1.4-8.2,1.1,4.5-.6,8.1-.4S163.8,58.9,163.9,58.2Z"/><path class="cls-6" d="M185.5,58.6c0-.6-4.2-1.8-8.6-1.7s-9.7,1.1-9.7,1.7,5.4-1,9.7-1S185.5,59.3,185.5,58.6Z"/><path class="cls-6" d="M204.2,57c-.1-.6-3.9-1.3-7.6-1s-8.4,1.6-8.3,2.2,4.6-1.2,8.4-1.6S204.2,57.5,204.2,57Z"/><path class="cls-6" d="M167.8,87.9c2.1,10,6.6,19.5,6.3,19.5s-4.7-7.7-6.8-17.8-3.6-23.3-3.3-23.4S165.6,77.8,167.8,87.9Z"/><path class="cls-6" d="M186.2,85.6c-1.5,10.1-5.9,19.7-5.5,19.7s4.9-7.8,6.3-18,1.9-23.5,1.5-23.5S187.6,75.5,186.2,85.6Z"/><path class="cls-6" d="M181.7,119.9c0,.3-2.6,1-5.2,1.1s-5.9-.5-6-.8,3.3.5,6,.4S181.7,119.5,181.7,119.9Z"/><path class="cls-6" d="M181.7,111.6c0,.3-2.6,1-5.2,1.1s-5.9-.5-6-.8,3.3.5,6,.4S181.7,111.3,181.7,111.6Z"/><path class="cls-6" d="M190.6,131.4c0,.4-6.5,2.7-13.4,2.8s-15.7-2-15.7-2.3,8.6,1.5,15.4,1.4S190.6,131,190.6,131.4Z"/></g></svg>