<svg xmlns="http://www.w3.org/2000/svg" width="93" height="151" viewBox="0 0 93 151"><defs><style>.cls-1{fill:#f6bbd5;}.cls-2{fill:#f9f6ca;}.cls-3{fill:#fcf6ce;}.cls-4{fill:#fff;}.cls-5{fill:#e9e5f3;}.cls-6{fill:#fcfbf9;}</style></defs><g id="milkshake"><path class="cls-1" d="M56.65,115.49c1.84,1,3,2.4,3,4s-1,2.76-2.65,3.75c6.69,1.9,12.24,6.28,14.18,10.69,2.7,6.1-18.29,7-23.11,6.87s-23.74-2.28-18.13-8.61c4.06-4.59,7-7.46,12.06-8.89-1.71-1-2.76-2.34-2.76-3.81,0-1.73,1.44-3.28,3.7-4.3C29.49,110.9,26.16,96.67,22.08,76c-2.37-12-4.07-20.58-.77-25.67C26.13,54,38.76,53.18,44.1,53.08c5.5-.11,26.18.19,33.28-3.73C82.12,51.44,80.89,55.63,80,67,78.58,85.16,71.47,110.38,56.65,115.49Z"/><path class="cls-2" d="M36.79,38.57c.64,0,1.28.07,1.89.13C38,38.67,37.4,38.63,36.79,38.57Z"/><path class="cls-2" d="M62.63,37.8a36.74,36.74,0,0,1-4.56.76C59.58,38.29,61.12,38,62.63,37.8Z"/><path class="cls-3" d="M36.79,38.57c.64,0,1.28.07,1.89.13C38,38.67,37.4,38.63,36.79,38.57Z"/><path class="cls-3" d="M62.63,37.8a36.74,36.74,0,0,1-4.56.76C59.58,38.29,61.12,38,62.63,37.8Z"/><path class="cls-4" d="M76.91,43.75A2.36,2.36,0,0,0,77.12,40a7.69,7.69,0,0,0-4-2.3c.46-.25.7-.52.66-.8-.15-1-2.72-1.8-6.15-2.49-.18-1.28-2-2.87-6.45-4.79C45.27,22.73,60.68,19.39,49,22,37.62,24.64,29.88,30.22,29.94,35c-4.78,1.18-8.16,2.75-7,4.72a3.25,3.25,0,0,0,.73.8c-2,1-3.25,2.33-3.25,4.15a2.75,2.75,0,0,0-1,2.59,4.32,4.32,0,0,0,1.89,3.16C26.13,54,38.76,53.18,44.1,53.08c5.5-.11,26.18.19,33.28-3.73a4.12,4.12,0,0,0,2.38-2.69C80,45.28,78.88,44.35,76.91,43.75ZM36.79,38.57c.64,0,1.28.07,1.89.13C38,38.67,37.4,38.63,36.79,38.57Zm21.28,0c1.51-.27,3-.53,4.56-.76A36.74,36.74,0,0,1,58.07,38.56Z"/><path class="cls-4" d="M36.79,38.57c.64,0,1.28.07,1.89.13C38,38.67,37.4,38.63,36.79,38.57Z"/><path class="cls-4" d="M62.63,37.8a36.74,36.74,0,0,1-4.56.76C59.58,38.29,61.12,38,62.63,37.8Z"/><polygon class="cls-1" points="36.79 37.06 32.32 38.7 16.38 10.81 20.86 9.17 36.79 37.06"/><ellipse class="cls-5" cx="18.6" cy="9.95" rx="2.37" ry="0.41" transform="translate(-2.27 6.89) rotate(-19.81)"/><path class="cls-6" d="M37,62.06c.07-.65-3.46-2.11-7.24-2.38s-8.59.45-8.66,1.1,4.8-.64,8.58-.37S36.89,62.71,37,62.06Z"/><path class="cls-6" d="M59.82,62.44c0-.64-4.47-1.77-9.08-1.73s-10.31,1.1-10.3,1.73,5.71-1,10.31-1S59.83,63.07,59.82,62.44Z"/><path class="cls-6" d="M79.59,60.79c-.07-.57-4.07-1.29-8.06-1S62.68,61.47,62.75,62s4.86-1.25,8.86-1.58S79.67,61.36,79.59,60.79Z"/><path class="cls-6" d="M41.07,91.72c2.23,10.07,7,19.53,6.68,19.57s-5-7.72-7.2-17.79S36.69,70.12,37,70.08,38.84,81.65,41.07,91.72Z"/><path class="cls-6" d="M60.58,89.53c-1.54,10.15-6.24,19.74-5.86,19.78s5.16-7.86,6.71-18,2-23.54,1.57-23.58S62.12,79.37,60.58,89.53Z"/><path class="cls-6" d="M55.81,123.78c0,.35-2.69,1-5.49,1.06S44,124.36,44,124s3.5.48,6.3.44S55.8,123.43,55.81,123.78Z"/><path class="cls-6" d="M55.81,115.56c0,.35-2.69,1-5.49,1.06s-6.3-.48-6.31-.83,3.5.48,6.3.44S55.8,115.21,55.81,115.56Z"/><path class="cls-6" d="M65.23,135.34c0,.37-6.86,2.71-14.16,2.8s-16.59-2-16.6-2.33,9.05,1.53,16.35,1.44S65.22,135,65.23,135.34Z"/></g></svg>