<svg xmlns="http://www.w3.org/2000/svg" width="210mm" height="148.37mm" viewBox="0 0 595.28 420.57"><defs><style>.cls-1{fill:#f7daea;}.cls-2{fill:#f0e9e7;}.cls-3{fill:#b8b5b5;}.cls-4{fill:#fff;}.cls-5{fill:#e6dbee;}.cls-6{fill:#d9cde7;}.cls-7{fill:#dbeff6;}.cls-8{fill:#f2d7de;}.cls-9{fill:#f6bbd5;}.cls-10{fill:#b7e0ef;}.cls-11{fill:#d6e4c2;}.cls-12{fill:none;stroke:#fcfbf9;stroke-miterlimit:10;}</style></defs><g id="Lag_2" data-name="Lag 2"><path class="cls-1" d="M525.42,370.44c-121.3-.13-241.73,1.69-363.21,1.39,1.55-41.76.13-91.55-.22-131.46-.47-55,22.63-87.17,81.27-87,80.56.24,177.84-2,260.18,3.12,15.36,1,22,6.49,21.92,21.64C525.17,240.9,524.82,306.77,525.42,370.44Z"/><path class="cls-1" d="M215.94,326.71c-13.07,43.86-47.29,33.35-91.3,35.11s-53.93-16.4-50-56.86,50.65-63.87,86.22-55.38S229,282.85,215.94,326.71Z"/><ellipse class="cls-2" cx="151.98" cy="369.75" rx="41.58" ry="40.79"/><rect class="cls-1" x="156.99" y="188.8" width="25.75" height="73.74" transform="translate(105.14 -49.27) rotate(23.72)"/><rect class="cls-1" x="73.87" y="321.08" width="31.66" height="38.38"/><circle class="cls-3" cx="151.98" cy="370.83" r="32.32"/><ellipse class="cls-2" cx="429.85" cy="369.75" rx="41.58" ry="40.79"/><circle class="cls-3" cx="429.85" cy="369.75" r="32.32"/><circle cx="429.85" cy="369.75" r="24.69"/><circle cx="151.98" cy="370.83" r="24.69"/><circle class="cls-4" cx="151.98" cy="369.75" r="6.27"/><circle class="cls-4" cx="429.85" cy="369.75" r="6.27"/></g><g id="Lag_3" data-name="Lag 3"><path class="cls-5" d="M106.79,362.28c-9.37.37-20.09,0-29.4-.51-2.5-.13-3.09-.75-3.28-2.73a35.42,35.42,0,0,1-.23-8.16c.25-2,1-2.63,3.52-2.53,9.34.39,20,.58,29.41.14,2.52-.12,3.2.52,3.42,2.54a47.6,47.6,0,0,1,0,8.44C110.07,361.53,109.3,362.18,106.79,362.28Z"/><rect class="cls-4" x="239.96" y="185.91" width="57.68" height="169.47" rx="2.95"/><rect class="cls-4" x="327.76" y="185.91" width="180.69" height="118.97" rx="11.33"/><path class="cls-5" d="M481.67,377.58c12.09-.23,26.41-.89,38.46-1.23,3.23-.09,4.53-.56,4.84-2.48a18.16,18.16,0,0,0,.1-7.52c-.44-1.91-1.59-2.35-5-2.26-12.64.37-28,.85-40.62,1-3.39.05-4.54.56-4.71,2.51a16.17,16.17,0,0,0,1.4,7.65C476.92,377.15,478.42,377.64,481.67,377.58Z"/><rect class="cls-5" x="196.28" y="364.48" width="188.71" height="12.71" rx="3.51"/><rect class="cls-5" x="242.93" y="189.56" width="24.45" height="162.17" rx="4.16"/><rect class="cls-5" x="270.56" y="189.56" width="24.45" height="162.17" rx="4.16"/><polygon class="cls-4" points="169.87 299.68 212.3 192.89 217.81 187.84 222.53 185.66 228.04 184.86 232.56 186.42 232.24 301.79 232.1 354.07 220.11 354.11 214.83 342.33 209.55 334.89 202.7 324.67 198 318.45 192.9 313.5 188.19 309.19 183.29 305.66 177.99 302.73 172.69 301.37 169.87 299.68"/><polygon class="cls-5" points="173.73 294.46 229.66 294.46 229.66 189.56 224.2 189.56 220.21 191.98 216.55 194.22 173.73 294.46"/><polygon class="cls-5" points="173.73 298.5 180.88 300.92 186.93 304.89 192.72 309.37 199.01 315.41 203.36 321.08 210.85 331.24 216.16 339.1 222.21 351.74 229.66 351.74 229.66 298.5 173.73 298.5"/><rect x="218.98" y="289.82" width="2.7" height="12.96"/><circle cx="220.33" cy="288.2" r="2.47"/><circle cx="220.33" cy="304.55" r="2.47"/><circle cx="255.16" cy="287.82" r="2.47"/><rect x="253.81" y="289.82" width="2.7" height="12.96"/><circle cx="255.16" cy="304.55" r="2.47"/><path class="cls-4" d="M209.44,192.4l-23.26,56.94a6.84,6.84,0,0,1-6.53,4.44l-23.23-1c-4.94-.22-8-6-5.71-10.79L175.51,189a3.29,3.29,0,0,1,3-2l28.06.32C208.86,187.43,210.39,190.06,209.44,192.4Z"/><path class="cls-5" d="M206.12,195.5l-20.43,52a3.59,3.59,0,0,1-3.43,2.38L157,248.77c-2.57-.11-4.16-3.09-3-5.63l23-51.09a3.58,3.58,0,0,1,3.24-2.2l22.7.21C205.45,190.08,207.13,192.94,206.12,195.5Z"/><polygon class="cls-6" points="113.18 361.93 116.74 354.11 119.66 348.34 123.86 343.78 128.24 338.52 133.17 336.93 139.74 334.19 146.38 332.82 153.71 332.82 160.28 332.82 166.85 335.01 173.73 338.52 176.67 341.86 181.09 347.38 184.3 351.74 186.57 357.47 188.76 364.48 188.76 371.86 201.69 370.83 201.21 361.93 199.44 355.38 197.52 348.34 193.56 341.86 187.12 332.82 181.09 328.95 173.73 325.12 164.39 322.69 154.8 321.08 145.72 322.42 135.09 325.12 125.23 328.95 117.83 333.92 112.08 340.27 106.88 346.47 103.05 354.11 113.18 361.93"/><polyline class="cls-6" points="101.13 359.46 100.31 369.75 113.18 369.75 113.18 361.93 103.05 354.11"/><polygon class="cls-6" points="393.18 361.93 396.74 354.11 399.66 348.34 403.86 343.78 408.24 338.52 413.17 336.93 419.74 334.19 426.37 332.82 433.7 332.82 440.28 332.82 446.85 335.01 453.72 338.52 456.67 341.86 461.09 347.38 464.3 351.74 466.56 357.47 468.76 364.48 468.76 371.86 481.69 370.83 481.21 361.93 479.44 355.38 477.52 348.34 473.56 341.86 467.11 332.82 461.09 328.95 453.72 325.12 444.38 322.69 434.8 321.08 425.71 322.42 415.08 325.12 405.23 328.95 397.83 333.92 392.08 340.27 386.88 346.47 383.04 354.11 393.18 361.93"/><polyline class="cls-6" points="383.04 354.11 381.87 358.75 381.49 364.48 381.49 373.03 393.37 373.03 393.37 367.21 393.37 364.48 393.18 361.93"/><rect class="cls-5" x="333.43" y="191.12" width="169.36" height="108.56" rx="11.33"/><polygon class="cls-4" points="184.23 175.28 525.36 175.28 525.36 168.68 186.22 168.68 179.99 175.28 184.23 175.28"/></g><g id="Lag_4" data-name="Lag 4"><polygon class="cls-7" points="312.56 204.74 329.61 175.28 347.53 175.28 332.2 204.74 331.85 207.67 330.04 210.42 327.89 212.15 325.82 213.01 323.41 213.01 321 213.01 318.76 213.01 316.86 211.46 315.14 210.42 313.59 208.53 312.56 206.46 312.56 204.74"/><polygon class="cls-4" points="332.2 204.74 334.26 208.01 335.99 210.42 338.23 212.15 340.29 213.01 342.01 213.01 344.43 213.01 346.84 213.01 349.25 211.63 350.8 210.08 352.35 207.67 353.21 205.77 353.21 203.53 353.21 201.98 365.27 175.28 347.53 175.28 332.2 204.74"/><polygon class="cls-7" points="365.27 175.28 353.21 201.98 353.21 205.77 354.42 207.84 356.48 210.25 358.38 211.63 360.96 213.01 364.06 213.01 366.99 213.01 369.23 211.97 371.47 210.94 372.85 209.05 374.23 206.63 374.23 202.84 383.87 175.28 365.27 175.28"/><polygon class="cls-4" points="383.87 175.28 374.23 202.84 374.23 206.63 376.12 209.22 379.05 211.28 381.29 212.15 383.87 213.01 387.32 213.01 389.9 213.01 392.14 211.46 393.69 209.56 394.73 207.67 395.59 204.74 395.59 202.84 400.41 175.28 383.87 175.28"/><polygon class="cls-7" points="395.59 202.84 397.48 206.81 399.55 209.56 402.13 211.46 405.41 213.01 407.82 213.01 412.2 211.72 413.66 210.69 415.03 209.31 416.06 207.93 417.09 205.8 417.09 202.84 416.77 175.28 400.41 175.28 395.59 202.84"/><polyline class="cls-5" points="410.23 213.01 412.2 211.72 407.82 213.01"/><polygon class="cls-4" points="416.77 175.28 417.09 205.8 419 208.34 420.75 209.82 422.59 211.14 424.52 212.36 426.28 213.01 428.29 213.01 430.49 213.01 431.89 212.36 433.73 211.72 435.22 210.18 436.45 209.12 436.97 207.55 437.76 205 434.61 175.28 416.77 175.28"/><polygon class="cls-7" points="434.61 175.28 437.76 205 439.08 207.73 440.35 209.48 441.71 210.85 443.66 212.22 445.71 213.01 448.25 213.58 450.59 213.58 453.32 212.31 454.88 211.14 456.54 209.48 457.61 207.63 458.78 205.39 458.78 203.73 451.47 175.28 434.61 175.28"/><polygon class="cls-4" points="451.47 175.28 458.78 205.39 460.24 207.44 461.32 208.8 462.68 210.26 464.73 211.63 466.88 212.6 469.12 213.58 471.27 213.58 473.7 213.01 475.26 212.22 477.12 210.95 478.29 209.58 479.17 208.12 479.85 206.56 479.85 203.92 479.85 202.17 468.34 175.28 451.47 175.28"/><polygon class="cls-7" points="468.34 175.28 479.85 202.17 479.85 203.92 479.85 206.56 480.82 208.61 482.29 210.17 483.65 211.04 485.51 211.92 487.26 212.6 489.41 213.01 490.87 213.01 492.24 213.01 493.99 212.6 495.36 212.02 496.53 211.34 497.99 210.07 499.36 208.8 500.24 207.34 500.72 205.68 500.72 203.53 487.46 175.28 468.34 175.28"/><polygon class="cls-4" points="487.46 175.28 500.72 203.53 500.72 205.68 500.24 207.34 499.36 208.8 501.31 210.46 503.65 212.02 505.6 212.41 508.04 213.01 509.89 213.01 512.13 213.01 513.7 212.51 514.96 211.92 516.62 210.85 517.7 209.97 518.77 208.51 519.45 207.24 520.04 205.78 520.04 203.63 520.04 202.66 506.97 175.28 487.46 175.28"/></g><g id="Lag_5" data-name="Lag 5"><polygon class="cls-8" points="312.12 155.71 320 140.37 329.46 125.04 339.45 111.81 351.54 96.47 364.67 83.25 380.44 68.44 395.68 55.75 414.6 40.94 488.7 148.31 480.29 155.71 312.12 155.71"/><polygon class="cls-4" points="414.09 41 417.88 38.39 423.42 38.39 429.51 39.69 434.23 43.11 437.27 45.61 439.74 47.21 441.7 45.14 443.32 44.81 445.82 44.7 448.21 44.92 449.19 45.36 451.9 46.34 453.75 47.97 456.14 50.04 457.98 52.22 459.94 50.91 461.89 50.69 465.04 50.47 467.54 50.91 470.69 52.22 473.3 53.96 477.75 57.44 481.55 60.49 483.61 61.58 486.32 62.12 488.06 62.12 489.26 61.36 489.26 59.18 489.26 57.33 488.54 55.05 487.08 53.74 485.89 52.98 485.89 51.89 486.98 51.13 489.26 51.23 492.95 52.54 495.45 54.28 498.38 57.22 500.12 59.94 502.07 63.1 503.48 66.26 504.68 69.74 505.33 73.55 505.33 77.25 505.33 79.64 505.33 81.93 505.33 84.98 504.68 87.16 503.48 89.33 502.29 91.62 500.55 94.34 499.14 96.95 497.73 98.43 489.47 100.76 491.1 102.5 492.4 104.03 493.93 106.1 495.23 108.49 496.31 110.34 497.29 112.63 498.27 115.24 499.14 117.85 499.57 120.46 499.36 123.08 499.03 125.36 498.6 127.54 497.83 129.82 496.53 132.11 495.34 133.53 495.45 135.49 495.34 137.77 495.01 140.06 494.03 142.23 493.17 144.19 491.64 145.72 490.45 147.13 488.54 148.44 414.09 41"/><polygon class="cls-9" points="448.02 45.3 448.02 43.57 448.46 41.56 449.09 39.82 450.13 37.98 451.17 36.5 452.3 35.41 453.66 34.06 455.2 33.14 456.78 32.31 458.37 31.7 459.72 31.26 461.49 30.96 463.02 30.96 464.52 31.31 465.88 31.83 467.19 32.83 468.63 34.71 469.68 36.01 470.58 36.45 472.74 36.53 475.18 37.05 476.8 37.75 478.33 38.55 479.6 39.67 480.59 41.16 481.49 42.36 482.39 43.93 482.75 45.3 482.75 46.5 482.94 47.28 482.94 48.41 482.94 49.28 482.94 50.37 482.66 51.19 482.26 52.23 481.72 53.32 481.13 54.32 480.59 55.28 480.01 55.93 479.24 57.1 478.19 57.6 471.58 52.63 463.81 50.71 461.72 50.85 459.69 51.07 457.66 52.38 455.74 50.2 452.61 47.67 451.35 46.5 448.02 45.3"/><polygon class="cls-7" points="497.73 98.43 571.85 80.25 571.85 83.99 572.79 86.62 574.1 89.34 496.31 110.34 489.47 100.76 497.73 98.43"/><ellipse class="cls-10" cx="572.98" cy="84.77" rx="1.07" ry="4.69" transform="translate(-3.55 140.49) rotate(-13.94)"/><path class="cls-11" d="M499.79,20.11c.15-.77-.45-1.59-.82-2.26-14.1-4.54-23.48,6.43-29.72,18.2l1.46.9C477,25.09,485.67,14.47,499.79,20.11Z"/><path class="cls-1" d="M472.68,42c.14.05.28,0,.39-.08.63-2.41-1.48-4.36-3.68-5.78l-.14.24C471.47,37.79,473.5,39.61,472.68,42Z"/><path class="cls-1" d="M463.37,37.67c-.12-.09-.14-.27-.18-.41,1.41-2.31,4.14-2,6.52-1.12l-.09.3C467.22,35.59,464.64,35.2,463.37,37.67Z"/><polyline class="cls-12" points="390.83 59.79 395.59 59.79 400.41 61.19 406.34 64.71 410.01 68.49 414.09 76.33 414.09 83.01 414.09 88.99 421.27 91.11 427.27 93.42 432.18 95.29 437.76 100.26 441.33 105.18 443.09 110.34 443.09 116.8 443.09 123.13 449.08 123.13 454.36 124.89 459.71 127.71 463.19 131.23 466.45 137.56 468.34 142.84 468.34 148.44 468.34 154.75"/><polyline class="cls-12" points="414.09 88.99 402.17 98.33 392.65 107.27 383.87 116.61 378.21 122.6 371.17 130.35 363.77 137.74 359.55 143.03 354.97 150.07 352.68 154.75"/><polyline class="cls-12" points="443.09 123.13 437.76 128.59 431.75 133.87 425.41 139.5 420.13 143.73 412.2 150.78 406.34 155.71"/></g></svg>