<svg xmlns="http://www.w3.org/2000/svg" width="400" height="400" viewBox="0 0 400 400"><defs><style>.cls-1{fill:#f7d26b;}.cls-2{fill:#f4c582;}.cls-3{fill:#e5132c;}.cls-4{fill:#065b28;}</style></defs><g id="Lag_6" data-name="Lag 6"><path class="cls-1" d="M98.62,297.46c-.88,1.45-.88,1.86-3.12,7.66-1.68,4.35-2.09,5.17-3.12,5.68-2.32,1.14-5.45-.45-5.68-.57-1.52-.79-1.57-1.5-3.41-2.27a15.26,15.26,0,0,0-3.4-.85,30.93,30.93,0,0,1-3.69-.57,8.06,8.06,0,0,1-3.12-1.7,7.69,7.69,0,0,1-2.28-4.26c-.79-4.14,2-8,3.69-10.22,1.83-2.46,2.74-2.68,4.26-5.39a21.46,21.46,0,0,0,2-4.82c.87-3.2.26-4,.85-6.82.51-2.43,1.48-4.08,3.41-7.38a48.6,48.6,0,0,1,4.82-6.81c3-3.53,3.74-3.42,6.25-6.53a42.86,42.86,0,0,0,4.54-7.09c2.84-5.21,2.61-6.41,4.54-9.94,1.48-2.71,2-2.72,7.95-9.65,4.63-5.41,7.84-9.52,9.93-12.21a107.89,107.89,0,0,0,7.1-9.65c3.42-5.54,2.85-6.32,5.39-9.36,3.79-4.53,5.8-3.7,8.8-8,2.5-3.54,1.15-4.17,4-8.8,2-3.33,3.11-3.63,7.38-9.09,1.92-2.46,1.41-2,4.54-6.24,4.52-6.1,6.78-9.15,9.93-12.21,1.67-1.61,2.34-2.07,4.83-4.54,3-2.93,4.44-4.43,5.39-6.24,1.38-2.63.64-3.13,2.27-6.53,1.29-2.68,1.76-2.39,3.13-5.11,2-4.07,1.4-5.54,3.12-6.81,1-.74,2.56-.79,5.68-.85a34.19,34.19,0,0,1,8.23.56,40.15,40.15,0,0,1,7.66,2.56,52.92,52.92,0,0,1,6.81,3.12c1,.57,3.25,1.88,9.65,7.38,5.05,4.33,4.44,4.18,7.38,6.53,4.73,3.77,5.7,3.68,9.37,6.81a69.36,69.36,0,0,1,7.1,7.38c4.11,4.65,4.83,6,9.08,11.07,6.23,7.49,6.11,6.41,9.65,11.07s3.23,5.17,8.52,12.49a100,100,0,0,0,6.53,8.52c3.14,3.47,4.85,4.62,7.66,8.51,3.08,4.27,3.48,6.31,3.12,7.95-.28,1.33-.9,1.65-1.13,3.41a7.44,7.44,0,0,0,1.13,5.39c.83,1.09,2.07,1.58,4.54,2.56a40.06,40.06,0,0,0,5.56,1.61l.41.09c2.27.48,3.11.46,3.12.57,0,.26-5,1-11.07,1.42a14.11,14.11,0,0,0-4.83.85c-1.2.47-1.47.8-4.26,2.55s-4.07,2.55-5.1,2.84c-2.06.57-2.28-.15-5.68,0a19.57,19.57,0,0,0-7.67,1.7,19.1,19.1,0,0,0-4.25,2.84c-2.54,2.12-2.84,3.24-5.4,6a23.81,23.81,0,0,1-6,5.11,19.62,19.62,0,0,1-8.51,2.27c-4.35.33-4.9-.74-10.22-.56a46.86,46.86,0,0,0-7.1.85,40.22,40.22,0,0,0-8.8,2.27,28.91,28.91,0,0,0-6,3.12c-4.45,3.07-4.05,4.81-8.23,7.66a17.47,17.47,0,0,1-7.66,3.41c-2.73.4-3.76-.27-6.25.57a13.1,13.1,0,0,0-5.11,3.4c-1.72,1.73-1.68,2.46-4.54,6.82-2,3-3,4.55-4.26,5.39a11.59,11.59,0,0,1-6.81,1.7,13.65,13.65,0,0,1-6.53-1.7c-1.65-.94-1.67-1.47-3.69-2.55a19.61,19.61,0,0,0-4.54-1.71,26.76,26.76,0,0,0-5.39-.85c-3-.2-4.43-.31-6,.28s-2.54,1.61-4.25,3.41a59.12,59.12,0,0,0-4,5.11c-2.91,3.82-3.47,4.23-4,4.54a11.33,11.33,0,0,1-5.68,1.42,15.77,15.77,0,0,1-5.11-.57c-2.1-.6-2.07-1.08-5.11-2.27a15.43,15.43,0,0,0-5.11-1.42,39.45,39.45,0,0,0-4.25.29c-3.47.26-3.36.2-3.69.28C101.32,293,99.77,295.57,98.62,297.46Z"/><ellipse class="cls-2" cx="308.96" cy="218.95" rx="16.79" ry="10.22" transform="translate(-52.76 106.92) rotate(-18.12)"/><polygon class="cls-2" points="187.37 125.08 188.29 120.54 191.06 114.3 194.75 110.33 200.42 108.05 208.09 105.78 214.33 104.36 219.16 104.36 226.25 106.63 232.22 109.47 239.88 112.31 248.39 116.28 258.61 122.53 267.98 129.63 275.93 135.3 283.59 143.25 290.4 148.36 299.77 160.57 307.44 172.21 315.95 184.13 319.64 192.64 321.63 199.74 324.47 211.09 324.91 215.64 292.68 221.59 293.24 213.93 292.39 207.12 287 202.01 281.89 196.62 276.5 193.21 271.67 185.26 267.7 177.6 262.3 171.35 256.14 166.24 249.25 158.58 246.41 154.04 242.15 151.2 236.19 144.67 228.81 140.7 222.56 135.87 215.75 130.48 212.91 127.64 207.52 124.2 201.28 124.8 193.04 124.23 187.37 125.08"/><ellipse class="cls-3" cx="129.48" cy="260.28" rx="26.34" ry="22.35" transform="matrix(0.95, -0.31, 0.31, 0.95, -74.51, 53.16)"/><ellipse class="cls-3" cx="166.2" cy="205.65" rx="23.09" ry="15.55" transform="translate(-55.7 61.87) rotate(-18.12)"/><ellipse class="cls-3" cx="201.37" cy="238.81" rx="19.77" ry="13.22" transform="translate(-64.27 74.45) rotate(-18.12)"/><ellipse class="cls-3" cx="236.6" cy="192.29" rx="31.81" ry="22.41" transform="translate(-48.06 83.1) rotate(-18.12)"/><ellipse class="cls-3" cx="190.11" cy="156.28" rx="24.98" ry="14.64" transform="translate(-54.78 131.95) rotate(-33.75)"/><polyline class="cls-4" points="125.7 223.89 129.48 229.42 138.34 226.93 136.37 223.89"/><polyline class="cls-4" points="90.06 284.38 98.93 281.89 96.96 278.85"/><polyline class="cls-4" points="192.69 218.52 201.56 216.03 199.58 212.99"/><polyline class="cls-4" points="154.86 179.39 161.78 185.46 163.25 182.15"/><polyline class="cls-4" points="222.83 155.45 229.75 161.53 231.22 158.22"/><polyline class="cls-4" points="163.25 243.73 170.17 249.81 171.65 246.49"/><polyline class="cls-4" points="236.6 232.74 246.76 241.96 248.71 237.16"/><polyline class="cls-4" points="268.26 223.99 267.78 212.28 263.62 213.93"/><polyline class="cls-4" points="165.37 270.67 174.24 268.18 172.26 265.14"/></g></svg>