<svg xmlns="http://www.w3.org/2000/svg" width="507" height="251" viewBox="0 0 507 251"><defs><style>.cls-1{fill:#dbeff6;stroke:#fff;stroke-miterlimit:10;stroke-width:9px;}.cls-2{fill:#5423e8;}.cls-3{fill:#fff;}</style></defs><rect class="cls-1" x="75.51" y="57.51" width="356.5" height="151" rx="15.11"/><rect class="cls-2" x="110" y="162" width="287" height="3"/><rect class="cls-3" x="106" y="165" width="287" height="3"/><path class="cls-3" d="M148.47,95.9c-.92-1.32-.63-2.09,1.55-2.35,13.88-2,26.17-8,37.58-9.07,8.56-.78,16.08.75,20.65,9.1,4,7.26,1.58,14.66-3.73,21.62-7.8,10.23-25.39,20.7-47.22,25.17a20.12,20.12,0,0,1-10.5-.6c-4.29,7.15-8.82,15.68-14.07,26.38-.6,1.29-1.44,1.34-2.67.54-2.47-1.72-4.38-5.35-2.27-12.23,3.67-11.61,18-36,31.6-54C153.64,100.33,150.32,98.41,148.47,95.9Zm52.62-.75c-4-6.63-20.37.88-31.32,3.94.21,3.36-1.21,7.82-5.54,14.09-4,6-8.38,12-13,19.32C188.58,124.93,206.17,103.59,201.09,95.15Z"/><path class="cls-3" d="M215.49,158.79c8.1,0,19.31-9.7,25.28-19.7,1.08-1.69,2.92-1.93,3.7-.23,1,1.94.46,4.73-1.2,7.83-2.13,3.88-13.76,15-27.23,15.56-11.62.47-18.21-5.12-15.17-18.82,4.88-22.06,22.65-45.79,39-60.06,2.4-2.15,4.73-2.54,7.19-1.07,5.07,2.94,6.37,7.49,4.71,13.47-4.26,15.64-22.17,31.76-36.69,39.91C209.1,148.3,207.89,158.76,215.49,158.79Zm30.4-65.29c-2.25-.86-13.84,13.74-24.46,30.4a62.64,62.64,0,0,0-3.66,6.23C240,114.88,248.13,94.37,245.89,93.5Z"/><path class="cls-3" d="M296.37,107.39q2.11-2.56,4-1c2.66,2.09,4.33,7.36.68,13.84-3.35,5.84-11.18,15.7-14.81,22.55-3.77,7.24-3.61,12.61,2.1,12,6.87-.67,15.6-9.71,20.95-18.68.77-1.17,1.94-1.37,2.69-.29s.93,4.2-1,7.82c-3.95,7.12-14.12,14.63-23.39,14.83-9.1.19-14.06-3.51-14.42-9.37-5.06,5.45-12.35,10.52-20.42,11-15.64,1-19.81-14.66-6.78-30.59C258.63,114,271.56,107.55,280,107c7.23-.45,10.85,3.46,10.81,8.33A87.58,87.58,0,0,1,296.37,107.39Zm-13.14,5.94c-5.4,0-17.18,8.82-25.74,20.47-8.25,11.27-9.76,22.37-3.19,22.09,6.9-.31,15.15-8.82,23.05-20.31C287.1,121.22,288.13,113.4,283.23,113.33Z"/><path class="cls-3" d="M340.15,157.58c-8.38,17.28-19.08,38.07-32.79,42.92-3.14,1.07-6.34,1.27-9.75-2-3.59-3.53-7.23-7.68-4.32-15.24,4.36-11.53,18.18-19.88,34.53-25.77,1.51-3,3-6.19,4.66-9.29-5,4.31-11.16,7.94-17.91,8-12.15,0-13.05-9.07-9.69-17.53,3.21-8.2,10.68-21,20.92-32.93a2.74,2.74,0,0,1,4.21-.26c4.28,3.73,3.59,9-2.18,16.76-5.6,7.6-9,12.94-11.82,19-3,6.31-2.38,10.65,1.51,10.66,6.58,0,14.49-8.52,22.4-19.89,6.66-9.67,13.19-21.33,18.69-28,1.41-1.72,2.57-2,4.15-1.13,2.49,2.09,4.17,7.37.19,14-4.6,7.54-13.93,23.12-20.25,35.64a87,87,0,0,0,28.58-21c.78-.93,2.29-1.15,2.7.08s.08,4-2.58,7.41C365.32,147,353.85,152.48,340.15,157.58ZM300.71,194c2.33,2.24,15.28-12.2,24.58-31.15C304,173.57,297.49,191.11,300.71,194Z"/><path class="cls-2" d="M142,96.08c-.93-1.32-.64-2.08,1.54-2.34,13.89-2,26.18-8,37.59-9.08,8.56-.78,16.08.76,20.65,9.1,4,7.26,1.58,14.66-3.73,21.62-7.81,10.23-25.39,20.7-47.22,25.18a20.38,20.38,0,0,1-10.51-.6c-4.28,7.14-8.82,15.67-14.06,26.38-.6,1.28-1.44,1.34-2.67.54-2.47-1.73-4.38-5.36-2.28-12.24,3.67-11.61,18-36,31.61-54C147.15,100.51,143.82,98.59,142,96.08Zm52.62-.75c-4-6.63-20.37.88-31.33,3.94.21,3.36-1.2,7.83-5.54,14.1-4,6-8.37,12-13,19.31C182.09,125.12,199.68,103.77,194.6,95.33Z"/><path class="cls-2" d="M209,159c8.11,0,19.32-9.7,25.29-19.7,1.07-1.69,2.92-1.93,3.7-.23,1,2,.46,4.73-1.21,7.83-2.12,3.88-13.76,15-27.22,15.57-11.62.46-18.21-5.13-15.18-18.82,4.88-22.07,22.66-45.8,39-60.06,2.4-2.15,4.74-2.55,7.2-1.07,5.07,2.93,6.37,7.48,4.71,13.46-4.26,15.64-22.17,31.76-36.69,39.91C202.61,148.48,201.4,158.94,209,159Zm30.4-65.28c-2.25-.87-13.83,13.73-24.45,30.4a62.44,62.44,0,0,0-3.67,6.23C233.45,115.06,241.64,94.55,239.39,93.69Z"/><path class="cls-2" d="M289.87,107.57q2.13-2.56,4-1c2.66,2.08,4.34,7.36.69,13.83-3.35,5.84-11.18,15.7-14.81,22.55-3.77,7.24-3.61,12.61,2.09,12,6.88-.67,15.61-9.71,21-18.67.77-1.18,1.94-1.37,2.68-.29s.94,4.19-1,7.81c-3.95,7.13-14.12,14.63-23.39,14.83-9.11.19-14.06-3.51-14.42-9.36-5.07,5.44-12.35,10.51-20.42,11-15.64,1-19.81-14.65-6.79-30.59,12.71-15.54,25.65-22,34.06-22.49,7.23-.45,10.85,3.46,10.81,8.34A88.56,88.56,0,0,1,289.87,107.57Zm-13.13,5.94c-5.41,0-17.18,8.82-25.74,20.48-8.25,11.26-9.76,22.36-3.19,22.08,6.9-.3,15.15-8.82,23-20.31C280.6,121.4,281.64,113.58,276.74,113.51Z"/><path class="cls-2" d="M333.66,157.76c-8.39,17.28-19.09,38.07-32.8,42.92-3.14,1.07-6.33,1.27-9.74-2-3.6-3.53-7.23-7.68-4.32-15.24,4.35-11.52,18.18-19.88,34.53-25.77,1.5-3,3-6.19,4.66-9.29-5,4.31-11.16,7.94-17.91,8-12.15,0-13.05-9.07-9.69-17.53,3.21-8.2,10.68-21,20.92-32.93a2.73,2.73,0,0,1,4.2-.26c4.28,3.73,3.6,9-2.17,16.76-5.6,7.6-9,12.94-11.82,19-3,6.32-2.38,10.65,1.5,10.67,6.58,0,14.5-8.53,22.4-19.9,6.66-9.66,13.2-21.32,18.69-28,1.42-1.71,2.58-2,4.15-1.13,2.5,2.1,4.17,7.37.19,14-4.59,7.54-13.93,23.12-20.24,35.64a86.84,86.84,0,0,0,28.57-21c.79-.92,2.3-1.14,2.71.08s.08,4-2.58,7.41C358.83,147.2,347.35,152.67,333.66,157.76Zm-39.44,36.46c2.33,2.23,15.28-12.2,24.57-31.16C297.51,173.75,291,191.29,294.22,194.22Z"/></svg>