<svg xmlns="http://www.w3.org/2000/svg" width="151" height="141" viewBox="0 0 151 141"><defs><style>.cls-1{fill:#f6bbd5;}</style></defs><g id="Tid_point" data-name="Tid + point"><path class="cls-1" d="M58.6,63.81,69,48.25a42.26,42.26,0,0,0-7.49,1,55.88,55.88,0,0,0-6.73,1.9q-2.81,1-5,1.91c-1.47.61-2.52,1-3.16,1.28a.78.78,0,0,1-.48-.17.49.49,0,0,1-.24-.41,23.93,23.93,0,0,1,1.59-3.35q1.59-3.07,3.74-6.59,12-4.27,21.13-4.28,10.59,0,14.69,4.51A11,11,0,0,1,89.35,48a14,14,0,0,1,.8,4.57A20.1,20.1,0,0,1,88,61.84a21.4,21.4,0,0,1-6.1,7.26,28.25,28.25,0,0,1-9.33,4.7,40.23,40.23,0,0,1-11.76,1.63c-.75,0-2.29-.14-4.61-.41l-3.08,5.6a2.32,2.32,0,0,1,.48,1.17,3.12,3.12,0,0,1-.48,1.77c-.45.69-1.06,1.59-1.81,2.7s-1.26,1.86-1.52,2.22a4.81,4.81,0,0,1-.89,1,1.55,1.55,0,0,1-1,.41c-.66,0-1.08-.2-1.27-.6a4.11,4.11,0,0,1-.27-1.65,13.4,13.4,0,0,1,1.49-4.77q1.48-3.27,4.49-8.67a6.28,6.28,0,0,1-2.49-1.6,2.93,2.93,0,0,1-.89-2q0-2.11,2.42-3.93A18.92,18.92,0,0,1,58.6,63.81Zm3.56.92L60.21,68l2.31.14c.67,0,1.23.07,1.69.07a30.2,30.2,0,0,0,10.37-1.61,20.67,20.67,0,0,0,7-4,16.66,16.66,0,0,0,3.75-4.77,9.72,9.72,0,0,0,1.16-4,4.05,4.05,0,0,0-1.78-3.49,11.63,11.63,0,0,0-5.11-1.72A64.54,64.54,0,0,0,71,48.19a6,6,0,0,1,.06.92,9.42,9.42,0,0,1-1.88,4.68l-5.94,9.33,4.47-.51c.37,0,.55.17.55.51s-.3.5-.89.62Z"/><path class="cls-1" d="M94.08,84.25c-1.12,0-1.67-.58-1.67-1.75a4.28,4.28,0,0,1,1.07-2.63,10.84,10.84,0,0,1,2.57-2.34,5.19,5.19,0,0,1,2.56-1q1.08,0,1.08,1.23a5.42,5.42,0,0,1-.94,2.55,12.1,12.1,0,0,1-2.29,2.75A3.88,3.88,0,0,1,94.08,84.25Zm6.8-14.7A1.45,1.45,0,0,1,99.64,69a2.29,2.29,0,0,1-.43-1.45,5,5,0,0,1,1-2.6,11.85,11.85,0,0,1,2.48-2.66,4.29,4.29,0,0,1,2.43-1.13,1.41,1.41,0,0,1,1.12.46,1.73,1.73,0,0,1,.41,1.22,5.73,5.73,0,0,1-1,2.59,12.46,12.46,0,0,1-2.34,2.91A3.88,3.88,0,0,1,100.88,69.55Z"/></g></svg>