<svg xmlns="http://www.w3.org/2000/svg" width="400" height="400" viewBox="0 0 400 400"><defs><style>.cls-1{fill:#ea4293;}.cls-2{fill:#c92d7f;}.cls-3{fill:#d6e4c2;}.cls-4{fill:#c1ceab;}</style></defs><g id="Lag_3" data-name="Lag 3"><ellipse class="cls-1" cx="149.22" cy="214.38" rx="12.1" ry="13.11"/><ellipse class="cls-1" cx="161.32" cy="205.05" rx="12.1" ry="13.11"/><ellipse class="cls-1" cx="172.41" cy="198.25" rx="12.1" ry="13.11"/><ellipse class="cls-1" cx="178.97" cy="192.95" rx="12.1" ry="13.11"/><ellipse class="cls-1" cx="185.52" cy="194.21" rx="12.1" ry="13.11"/><circle class="cls-1" cx="159.81" cy="229" r="14.62"/><ellipse class="cls-1" cx="173.42" cy="243.62" rx="12.1" ry="13.11"/><ellipse class="cls-1" cx="189.81" cy="255.48" rx="12.1" ry="13.11"/><ellipse class="cls-1" cx="199.39" cy="262.53" rx="12.1" ry="13.11"/><ellipse class="cls-1" cx="219.34" cy="265.56" rx="14.65" ry="13.11"/><ellipse class="cls-1" cx="235.75" cy="254.21" rx="12.1" ry="13.11"/><ellipse class="cls-1" cx="242.75" cy="242.37" rx="12.1" ry="13.11"/><ellipse class="cls-1" cx="211.49" cy="164.21" rx="12.1" ry="13.11"/><ellipse class="cls-1" cx="211.49" cy="172.03" rx="12.1" ry="13.11"/><ellipse class="cls-1" cx="208.21" cy="190.43" rx="12.1" ry="13.11"/><ellipse class="cls-1" cx="244.28" cy="246.78" rx="12.86" ry="13.99"/><circle class="cls-1" cx="247.86" cy="230.51" r="14.87"/><ellipse class="cls-1" cx="249.81" cy="211.36" rx="12.1" ry="13.11"/><ellipse class="cls-1" cx="223.65" cy="156.76" rx="12.1" ry="13.11"/><circle class="cls-1" cx="234.96" cy="155.79" r="14.08"/><ellipse class="cls-1" cx="244.28" cy="169.87" rx="12.1" ry="13.11"/><ellipse class="cls-1" cx="247.86" cy="185.14" rx="12.1" ry="13.11"/><ellipse class="cls-1" cx="250.63" cy="198.83" rx="12.1" ry="13.11"/><ellipse class="cls-1" cx="235.75" cy="265.56" rx="12.1" ry="13.11"/><ellipse class="cls-1" cx="206.56" cy="223.25" rx="46.25" ry="37.52"/><ellipse class="cls-1" cx="225.31" cy="186.91" rx="13.82" ry="19.38"/><ellipse class="cls-1" cx="142.98" cy="186.91" rx="12.1" ry="13.11"/><ellipse class="cls-1" cx="149.22" cy="173.8" rx="12.1" ry="13.11"/><path class="cls-2" d="M159.88,176.3s-3,6.19-12.21,3.77-8.79-9.29-8.79-9.29a10.87,10.87,0,0,0,21,5.52Z"/><ellipse class="cls-1" cx="203.44" cy="139.63" rx="10.05" ry="11.47"/><polygon class="cls-3" points="123.8 231.51 127.44 225.75 132.8 219.66 136.63 216.88 144.91 207.56 152.93 199.22 164.96 190.64 173.91 184.61 177.35 182.34 182.92 182.34 190.41 185.49 200.57 189.41 202.41 183.6 203.48 178.15 201.8 172.38 200.57 166.71 200.57 163.19 210.97 159.27 216.72 153.6 222.63 149.57 242.24 140.39 250.33 136.63 256.59 133.09 262.75 128.71 267.52 123.7 253.18 129.33 245.09 130.67 235.06 130.67 225.48 130.67 217.83 130.67 211.04 133.08 200.57 141.01 193.41 148.94 188.7 151.03 194.4 142.13 198.76 137.05 198.76 130.67 195.66 123.7 191.05 113.48 190.2 105.97 190.2 99.09 192.03 92.62 186.33 100.75 181.84 107.85 181.63 114.73 174.94 122.03 169.64 128.5 167.18 132.04 174.94 144.22 178.42 150.61 181.42 154.99 182.92 158.3 177.35 161.42 173.91 162.06 170.49 156.24 164.5 144.22 159.93 149.15 152.07 147.69 137.94 147.48 126.37 149.36 115.02 151.03 110.1 151.86 106.03 151.86 103.03 151.24 99.17 147.9 104.1 153.6 109.67 157.29 115.24 158.3 121.02 159.27 127.66 159.27 134.08 161.42 139.87 163.19 144.91 163.19 149.06 163.19 153.79 163.75 159.93 163.19 163.85 163.19 171.14 163.19 163.85 166.71 157.64 170.01 150.36 176.3 145.65 182.34 140.72 187.64 136.63 194.44 132.37 206.04 128.09 212.77 124.87 220.67 123.16 228.63 123.8 231.51"/><polygon class="cls-3" points="156.23 162.98 158.38 165.24 160.62 169.18 171.72 165.18 171.04 160.26 156.23 162.98"/><polygon class="cls-1" points="193.83 143.02 188.7 151.03 193.41 148.94 195.49 146.64 193.83 143.02"/><polygon class="cls-4" points="173.91 162.06 177.35 161.42 182.92 158.3 181.42 154.99 178.42 150.61 176.97 147.95 174.94 144.22 173.34 141.71 171.72 139.17 170.3 136.94 169.13 135.1 167.18 132.04 165.7 128.16 163.98 124.63 158.55 115.66 155.08 109.91 152.66 105.42 151.68 103.88 149.22 102.76 146.21 102.76 144.67 102.76 144.67 105 144.67 107.39 145.37 109.77 155.08 126.73 158.69 132.41 162.47 138.37 164.5 144.22 166.87 148.97 171.3 157.44 173.91 162.06"/><path class="cls-2" d="M178.66,218.75s-3,6.19-12.21,3.77-8.79-9.3-8.79-9.3c-1.45,5.49,2.08,11.18,7.88,12.71S177.21,224.24,178.66,218.75Z"/><path class="cls-2" d="M195.18,197.81s-3,6.19-12.22,3.77-8.78-9.29-8.78-9.29c-1.45,5.49,2.08,11.18,7.88,12.71S193.73,203.31,195.18,197.81Z"/><path class="cls-2" d="M212.57,218.75s-3,6.19-12.21,3.77-8.79-9.3-8.79-9.3c-1.44,5.49,2.09,11.18,7.88,12.71S211.13,224.24,212.57,218.75Z"/><path class="cls-2" d="M231,197.23s-3,6.19-12.22,3.77-8.78-9.3-8.78-9.3c-1.45,5.49,2.08,11.18,7.88,12.71A10.58,10.58,0,0,0,231,197.23Z"/><path class="cls-2" d="M226,176.3s-3,6.19-12.22,3.77-8.78-9.29-8.78-9.29c-1.45,5.49,2.08,11.18,7.88,12.7A10.58,10.58,0,0,0,226,176.3Z"/><path class="cls-2" d="M258.52,196s-3,6.19-12.22,3.77-8.78-9.3-8.78-9.3c-1.45,5.49,2.08,11.18,7.88,12.71A10.58,10.58,0,0,0,258.52,196Z"/><path class="cls-2" d="M198,241.35s-3,6.19-12.21,3.77-8.79-9.3-8.79-9.3a10.87,10.87,0,0,0,21,5.53Z"/><path class="cls-2" d="M249.19,222.23s-3,6.19-12.21,3.77-8.79-9.3-8.79-9.3c-1.45,5.49,2.08,11.18,7.88,12.71A10.58,10.58,0,0,0,249.19,222.23Z"/><path class="cls-2" d="M236.67,244.37s-3,6.19-12.22,3.77-8.78-9.3-8.78-9.3a10.87,10.87,0,0,0,21,5.53Z"/><path class="cls-2" d="M218.87,259.75s-3,6.19-12.21,3.77-8.78-9.29-8.78-9.29c-1.45,5.49,2.08,11.18,7.88,12.71S217.43,265.24,218.87,259.75Z"/><path class="cls-2" d="M244.65,163.19s-3,6.19-12.21,3.77-8.79-9.29-8.79-9.29a10.87,10.87,0,0,0,21,5.52Z"/></g></svg>