<svg xmlns="http://www.w3.org/2000/svg" width="502" height="390" viewBox="0 0 502 390"><defs><style>.cls-1{fill:#f2d7de;stroke:#fff;stroke-miterlimit:10;stroke-width:35px;}.cls-2{fill:#ff938e;}.cls-3{fill:#fff;}</style></defs><g id="Gode_dårlige_ting" data-name="Gode dårlige ting"><rect class="cls-1" x="91.5" y="88.5" width="320" height="207" rx="58.53"/><path class="cls-2" d="M176.1,185.09l16.77-25.33a65.86,65.86,0,0,0-12,1.67A94.64,94.64,0,0,0,170,164.52c-3,1.1-5.69,2.14-8.05,3.12l-5.08,2.09a1.33,1.33,0,0,1-.77-.28.82.82,0,0,1-.39-.67,38.52,38.52,0,0,1,2.56-5.45q2.55-5,6-10.75,19.23-7,34-7,17,0,23.63,7.35a17.62,17.62,0,0,1,3.66,6.32,22.75,22.75,0,0,1,1.29,7.43,33.37,33.37,0,0,1-3.43,15.17,35.08,35.08,0,0,1-9.82,11.83,45.6,45.6,0,0,1-15,7.65A64.35,64.35,0,0,1,179.67,204c-1.2,0-3.68-.23-7.42-.67l-4.94,9.13a3.82,3.82,0,0,1,.77,1.89,5.16,5.16,0,0,1-.77,2.89c-.73,1.12-1.71,2.58-2.91,4.4s-2,3-2.45,3.62a8.53,8.53,0,0,1-1.43,1.56,2.48,2.48,0,0,1-1.56.67c-1.07,0-1.75-.33-2-1a6.77,6.77,0,0,1-.44-2.7q0-2.45,2.39-7.76T166.1,202a10.11,10.11,0,0,1-4-2.62,4.82,4.82,0,0,1-1.43-3.17c0-2.3,1.3-4.44,3.9-6.4S171,186.24,176.1,185.09Zm5.72,1.5-3.13,5.35c1.39.07,2.62.15,3.71.22s2,.11,2.72.11a47.88,47.88,0,0,0,16.68-2.62A33.15,33.15,0,0,0,213,183.17a26.81,26.81,0,0,0,6-7.77,15.82,15.82,0,0,0,1.86-6.51,6.64,6.64,0,0,0-2.85-5.68,18.53,18.53,0,0,0-8.22-2.81,103.27,103.27,0,0,0-13.82-.75,9,9,0,0,1,.11,1.5c0,1.93-1,4.48-3,7.63L183.52,184l7.2-.84c.59,0,.88.28.88.84s-.48.81-1.43,1Z"/><path class="cls-2" d="M250.63,200v4.12q-11.49,15.42-18.69,15.42-3.9,0-6.13-4.32t-2.22-11.33a43.25,43.25,0,0,1,2.64-13.49,96.87,96.87,0,0,1,7.06-15.87,100.27,100.27,0,0,1,9.18-14c3.16-4,6.11-6.78,8.82-8.37a5.59,5.59,0,0,1,2.58-1,1.5,1.5,0,0,1,1.54,1,11.13,11.13,0,0,1,.38,3.53q0,7.74-6.21,19a114.66,114.66,0,0,1-17.31,23,25.4,25.4,0,0,0-.55,4.45,10.12,10.12,0,0,0,1.51,5.79,4.82,4.82,0,0,0,4.21,2.22,5.42,5.42,0,0,0,3-1.08,30,30,0,0,0,3.35-2.7Q245.52,204.79,250.63,200Zm-16.44-10a55.21,55.21,0,0,0,5.53-6.46,80.52,80.52,0,0,0,5-7.74,64.54,64.54,0,0,0,3.71-7.4,14.78,14.78,0,0,0,1.34-4.95c0-.86-.29-1.28-.88-1.28a3.12,3.12,0,0,0-1.26.61q-3.36,2.79-7.53,10.88A65.93,65.93,0,0,0,234.19,190Z"/><path class="cls-2" d="M256.56,190.66a66.63,66.63,0,0,1,16.22-11.41q7.86-3.74,12.14-3.73a3,3,0,0,1,2.15,1,7.33,7.33,0,0,1,1.56,2.25,5.26,5.26,0,0,1,.58,1.9,1.61,1.61,0,0,1-.77,1.47,14.45,14.45,0,0,1-2.69,1.14c.25.6.58,1.36,1,2.29s.71,1.67.93,2.25a4.4,4.4,0,0,1,.33,1.53q0,1.34-2.67,5c-1.77,2.43-3,4.22-3.73,5.37a7.84,7.84,0,0,0-1.07,4.23q0,4.13,3.73,4.12t12-7.29v3.4q-13.91,15.65-19.9,15.64a3.35,3.35,0,0,1-3-1.42,8,8,0,0,1-.9-4.2q0-4.4,3.13-12.75-8,9-11.93,12.83T257.22,218c-.8,0-1.81-.7-3-2.11a20.37,20.37,0,0,1-3.21-5.48,18,18,0,0,1-1.41-7,16.37,16.37,0,0,1,.5-4.37A10.62,10.62,0,0,1,252,195.5,47.79,47.79,0,0,1,256.56,190.66Zm26.33-6.13q-14.29,6.63-20.36,11.25t-6.08,9.52a6.14,6.14,0,0,0,.61,2.92,1.83,1.83,0,0,0,1.65,1.14,6,6,0,0,0,2.14-.78,43.35,43.35,0,0,0,10.55-9Q276.18,194.06,282.89,184.53Z"/><path class="cls-2" d="M321.14,202.79l-9.78,8.41q-7,6.18-9.34,6.18c-1.43,0-2.94-1.67-4.51-5a20.79,20.79,0,0,1-2.36-8.71,13.43,13.43,0,0,1,1-5.37,39,39,0,0,1,3.32-5.71,77.44,77.44,0,0,1,6.43-8,46.42,46.42,0,0,1,5.44-5.09c1.58-1.21,2.68-1.81,3.3-1.81a4,4,0,0,1,2.89,1.56,4.81,4.81,0,0,1,1.4,3.22,7.77,7.77,0,0,1-1.51,3.4,50.56,50.56,0,0,1-4.78,5.93,108.2,108.2,0,0,1-9.1,8.6l-1,3.06A3.51,3.51,0,0,0,302,205a1.32,1.32,0,0,0,1.48,1.5q1.53,0,7.23-4a93,93,0,0,0,12.34-10.63q2.58-2.62,4.28-4.62c1.14-1.34,2.16-2.59,3.08-3.76a29.08,29.08,0,0,1,2.28-2.64,2.86,2.86,0,0,1,1.62-.95,2.07,2.07,0,0,1,2.15,1.17,8.12,8.12,0,0,1,.77,4,8,8,0,0,1-1.32,3.76q-1.32,2.25-4.95,7.68t-7.23,11.24q-3.6,5.82-7.33,13.11l3.37-3.34q3.22-3.16,6.79-6.62t5.88-5.54c1.54-1.39,3.47-3,5.77-4.87v3.73q-7.41,8.07-13.43,15.31t-9.29,11.57l-3.82,5.07c-1,1.3-1.88,2.51-2.67,3.65a30.58,30.58,0,0,1-2,2.61c-.53.61-1,.92-1.29.92-.77,0-1.45-.77-2.06-2.31a11.46,11.46,0,0,1-.9-4.09,6.38,6.38,0,0,1,.6-2.84Q307.35,225.12,321.14,202.79Z"/><path class="cls-3" d="M181.08,185.36,197.84,160a65.23,65.23,0,0,0-12,1.67A90,90,0,0,0,175,164.79q-4.51,1.64-8,3.12c-2.37,1-4.06,1.68-5.09,2.08a1.28,1.28,0,0,1-.77-.28.8.8,0,0,1-.38-.66,38.83,38.83,0,0,1,2.55-5.46q2.56-5,6-10.74,19.23-7,34-7,17,0,23.63,7.35a17.66,17.66,0,0,1,3.65,6.32,22.51,22.51,0,0,1,1.3,7.43,33.27,33.27,0,0,1-3.44,15.17A35,35,0,0,1,218.56,194a45.62,45.62,0,0,1-15,7.66,64.45,64.45,0,0,1-18.91,2.64q-1.82,0-7.42-.67l-4.95,9.13a3.72,3.72,0,0,1,.77,1.9,5.09,5.09,0,0,1-.77,2.89l-2.91,4.4c-1.21,1.82-2,3-2.44,3.62a8.49,8.49,0,0,1-1.43,1.55,2.47,2.47,0,0,1-1.57.67c-1.06,0-1.74-.32-2-1a6.6,6.6,0,0,1-.44-2.7c0-1.64.79-4.22,2.39-7.77s4-8.24,7.23-14.11a10.24,10.24,0,0,1-4-2.61,4.89,4.89,0,0,1-1.43-3.18q0-3.45,3.91-6.4T181.08,185.36Zm5.71,1.5-3.13,5.34c1.39.08,2.63.15,3.71.23s2,.11,2.72.11a47.88,47.88,0,0,0,16.68-2.62A33,33,0,0,0,218,183.44a26.46,26.46,0,0,0,6-7.77,15.78,15.78,0,0,0,1.87-6.51,6.61,6.61,0,0,0-2.86-5.68,18.43,18.43,0,0,0-8.21-2.81,103.43,103.43,0,0,0-13.83-.75,8.07,8.07,0,0,1,.11,1.5c0,1.93-1,4.47-3,7.63l-9.56,15.19,7.2-.83c.58,0,.88.28.88.83s-.48.82-1.43,1Z"/><path class="cls-3" d="M255.6,200.27v4.12q-11.47,15.42-18.68,15.42c-2.6,0-4.65-1.43-6.13-4.31s-2.23-6.65-2.23-11.33a43.35,43.35,0,0,1,2.64-13.5,98,98,0,0,1,7.06-15.86,100.27,100.27,0,0,1,9.18-14q4.76-6,8.82-8.38a5.65,5.65,0,0,1,2.59-1,1.49,1.49,0,0,1,1.53,1,11.18,11.18,0,0,1,.39,3.54q0,7.74-6.21,19a114.38,114.38,0,0,1-17.31,23,25.49,25.49,0,0,0-.55,4.46,10.07,10.07,0,0,0,1.51,5.78,4.8,4.8,0,0,0,4.2,2.23,5.37,5.37,0,0,0,3-1.08,31.48,31.48,0,0,0,3.35-2.7Q250.5,205.06,255.6,200.27Zm-16.43-10a54.1,54.1,0,0,0,5.52-6.45,78.65,78.65,0,0,0,5-7.74,63.73,63.73,0,0,0,3.71-7.4,14.6,14.6,0,0,0,1.35-5c0-.85-.29-1.28-.88-1.28a3.19,3.19,0,0,0-1.26.62q-3.36,2.78-7.53,10.88A65.07,65.07,0,0,0,239.17,190.25Z"/><path class="cls-3" d="M261.54,190.92a66.87,66.87,0,0,1,16.21-11.41q7.86-3.72,12.15-3.73a3,3,0,0,1,2.14,1,7.53,7.53,0,0,1,1.57,2.25,5.5,5.5,0,0,1,.58,1.89,1.62,1.62,0,0,1-.77,1.48,16.57,16.57,0,0,1-2.7,1.14l1,2.28c.41.93.72,1.68.94,2.26a4.31,4.31,0,0,1,.33,1.53q0,1.33-2.67,5c-1.78,2.43-3,4.22-3.74,5.37a7.91,7.91,0,0,0-1.07,4.23q0,4.13,3.74,4.12t12-7.29v3.39Q287.36,220,281.38,220a3.35,3.35,0,0,1-3.05-1.42,7.86,7.86,0,0,1-.91-4.21q0-4.4,3.14-12.74-8,9-11.93,12.83c-2.6,2.54-4.75,3.81-6.43,3.81-.81,0-1.82-.7-3-2.12a20.32,20.32,0,0,1-3.22-5.48,18,18,0,0,1-1.4-7,16.35,16.35,0,0,1,.49-4.37,10.48,10.48,0,0,1,1.93-3.59A48.77,48.77,0,0,1,261.54,190.92Zm26.33-6.12q-14.3,6.63-20.37,11.24t-6.07,9.52a6.24,6.24,0,0,0,.6,2.92,1.84,1.84,0,0,0,1.65,1.15,6,6,0,0,0,2.15-.78,43.54,43.54,0,0,0,10.55-9Q281.16,194.33,287.87,184.8Z"/><path class="cls-3" d="M326.12,203.06l-9.79,8.4q-7,6.18-9.34,6.18-2.14,0-4.51-5a20.94,20.94,0,0,1-2.36-8.71,13.36,13.36,0,0,1,1-5.37,38.29,38.29,0,0,1,3.33-5.71,75.12,75.12,0,0,1,6.43-8,46.69,46.69,0,0,1,5.44-5.1c1.57-1.2,2.67-1.81,3.3-1.81a3.93,3.93,0,0,1,2.88,1.56,4.79,4.79,0,0,1,1.4,3.23,7.65,7.65,0,0,1-1.51,3.4,49.57,49.57,0,0,1-4.78,5.92,106.24,106.24,0,0,1-9.09,8.6l-1.05,3.07a3.64,3.64,0,0,0-.44,1.55,1.33,1.33,0,0,0,1.49,1.51q1.53,0,7.22-4A90.91,90.91,0,0,0,328,192.2q2.58-2.61,4.29-4.62c1.13-1.33,2.16-2.59,3.08-3.75a27.74,27.74,0,0,1,2.28-2.65,2.77,2.77,0,0,1,1.62-.94,2,2,0,0,1,2.14,1.16,8.13,8.13,0,0,1,.77,4,7.9,7.9,0,0,1-1.32,3.75q-1.32,2.26-4.94,7.68T328.73,208q-3.6,5.82-7.34,13.11l3.38-3.34c2.14-2.12,4.41-4.32,6.79-6.63s4.34-4.14,5.88-5.53,3.46-3,5.77-4.87v3.72q-7.43,8.08-13.44,15.31t-9.29,11.58l-3.82,5.07c-1,1.29-1.87,2.51-2.66,3.64s-1.45,2-2,2.62-1,.92-1.29.92c-.77,0-1.46-.77-2.06-2.31a11.33,11.33,0,0,1-.91-4.09,6.22,6.22,0,0,1,.61-2.84Q312.32,225.37,326.12,203.06Z"/></g></svg>