<?xml version="1.0" encoding="utf-8"?>
<!-- Generator: Adobe Illustrator 24.2.3, SVG Export Plug-In . SVG Version: 6.00 Build 0)  -->
<svg version="1.1" id="Lag_1" xmlns="http://www.w3.org/2000/svg" xmlns:xlink="http://www.w3.org/1999/xlink" x="0px" y="0px"
	 viewBox="0 0 1595 899.8" style="enable-background:new 0 0 1595 899.8;" xml:space="preserve">
<style type="text/css">
	.st0{fill:#F6BBD5;}
	.st1{fill:#F2D7DE;}
	.st2{fill:#F9F6CA;}
	.st3{fill:#FCF6CE;}
	.st4{fill:#FFFFFF;}
	.st5{fill:#EDCBC4;}
	.st6{fill:#F0E9E7;}
	.st7{fill:#FCFBF9;}
	.st8{fill:#E5132C;}
	.st9{fill:#D6E4C2;}
	.st10{fill:#EA4293;}
	.st11{fill:#C92D7F;}
	.st12{fill:#C1CEAB;}
	.st13{fill:#453991;}
	.st14{fill:#6D68A5;}
	.st15{fill:#472823;}
	.st16{fill:#6D4844;}
	.st17{fill:#C40A2A;}
	.st18{fill:#BACC96;}
	.st19{fill:#C8D8AD;}
	.st20{fill:#BF9358;}
	.st21{fill:#513531;}
	.st22{fill:#FCD8BC;}
	.st23{fill:#8E9B78;}
	.st24{fill:#53681F;}
	.st25{fill:#FCE368;}
	.st26{fill:none;stroke:#FCF6CE;stroke-width:0.5;stroke-miterlimit:10;}
	.st27{fill:#F7D26B;}
	.st28{fill:#F4C582;}
	.st29{fill:#065B28;}
	.st30{fill:#777691;}
	.st31{fill:#04561D;}
	.st32{fill:none;}
</style>
<g id="Gode_dårlige_ting_1_">
	<path class="st0" d="M115.5,13.8H1368c56.1,0,101.6,41.6,101.6,93v700c0,51.3-45.5,93-101.6,93H115.5c-56,0-101.5-41.6-101.5-93
		V106.7C14.1,55.3,59.5,13.8,115.5,13.8z"/>
	<path class="st1" d="M349.1,640.8c8.8,5.1,14.2,12.1,14.2,19.8c0,7.3-4.8,13.9-12.5,18.9c31.8,9.5,58.2,31.5,67.5,53.7
		c12.8,30.7-87,35.2-109.9,34.5c-22.9-0.6-113-11.5-86.3-43.3c19.4-23.1,33.2-37.5,57.3-44.7c-8.1-5-13.1-11.8-13.1-19.2
		c0-8.7,6.8-16.5,17.6-21.6c-63.9-21.3-79.8-92.9-99.2-196.5c-11.3-60.3-19.4-103.4-3.6-129c22.9,18.1,83,14.1,108.4,13.6
		c26.2-0.5,124.5,0.9,158.3-18.7c22.6,10.5,16.6,31.5,12.5,88.6C453.4,488.4,419.6,615.1,349.1,640.8z"/>
	<path class="st2" d="M254.7,254.2c3.1,0.1,6,0.3,9,0.6C260.5,254.7,257.6,254.5,254.7,254.2z"/>
	<path class="st2" d="M377.6,250.4c-7.1,1.8-14.4,3-21.7,3.9C363.1,252.9,370.4,251.5,377.6,250.4z"/>
	<path class="st3" d="M254.7,254.2c3.1,0.1,6,0.3,9,0.6C260.5,254.7,257.6,254.5,254.7,254.2z"/>
	<path class="st3" d="M377.6,250.4c-7.1,1.8-14.4,3-21.7,3.9C363.1,252.9,370.4,251.5,377.6,250.4z"/>
	<path class="st4" d="M445.4,280.3c5.8-5.4,7-11.7,1-18.9c-4.8-5.8-11.4-9.5-19.1-11.5c2.2-1.3,3.3-2.6,3.1-4.1
		c-0.7-4.8-12.9-9.1-29.2-12.5c-0.9-6.5-9.6-14.5-30.7-24.1c-75.5-34.6-2.2-51.4-57.6-38.1c-54.3,13-91.1,41.1-90.7,64.9
		c-22.8,5.9-38.8,13.9-33.1,23.7c0.9,1.6,2.1,2.9,3.4,4.1c-9.5,4.9-15.5,11.7-15.5,20.9c-3.5,2.9-5.5,7.2-5,13
		c0.5,6.3,3.8,12,9,15.9c22.9,18.1,83,14.1,108.4,13.6c26.2-0.5,124.5,0.9,158.3-18.7c6.4-3.7,10.5-8.1,11.3-13.6
		C460.1,287.9,454.9,283.3,445.4,280.3z M254.7,254.2c3.1,0.1,6,0.3,9,0.6C260.5,254.7,257.6,254.5,254.7,254.2z M355.8,254.2
		c7.2-1.4,14.5-2.7,21.7-3.9C370.4,252.1,363.2,253.4,355.8,254.2L355.8,254.2z"/>
	<path class="st4" d="M254.7,254.2c3.1,0.1,6,0.3,9,0.6C260.5,254.7,257.6,254.5,254.7,254.2z"/>
	<path class="st4" d="M377.6,250.4c-7.1,1.8-14.4,3-21.7,3.9C363.1,252.9,370.4,251.5,377.6,250.4z"/>
	<polygon class="st5" points="254.7,246.6 233.4,254.8 157.6,114.7 178.9,106.5 	"/>
	<ellipse transform="matrix(0.934 -0.3572 0.3572 0.934 -28.315 67.32)" class="st6" cx="168.1" cy="110.3" rx="11.4" ry="2"/>
	<path class="st7" d="M255.5,372.2c0.3-3.2-16.4-10.5-34.4-11.9s-40.9,2.2-41.3,5.5c-0.3,3.3,22.9-3.2,40.8-1.9
		S255.2,375.6,255.5,372.2z"/>
	<path class="st7" d="M364.3,374.2c0-3.2-21.3-8.9-43.2-8.7s-49,5.5-49,8.8c0,3.2,27.1-5,49-5.2
		C342.9,368.9,364.3,377.3,364.3,374.2z"/>
	<path class="st7" d="M458.3,365.9c-0.3-2.8-19.4-6.5-38.4-4.8s-42.1,8.2-41.7,11.1c0.3,2.8,23.1-6.3,42.2-7.9
		C439.4,362.5,458.6,368.8,458.3,365.9z"/>
	<path class="st7" d="M275,521.3c10.6,50.6,33.2,98.2,31.8,98.4s-23.6-38.8-34.2-89.4c-10.6-50.6-18.3-117.5-16.9-117.7
		C257.2,412.4,264.4,470.7,275,521.3z"/>
	<path class="st7" d="M367.8,510.4c-7.3,51-29.6,99.2-27.8,99.4s24.5-39.4,31.9-90.6c7.4-51.1,9.3-118.3,7.5-118.4
		S375.1,459.4,367.8,510.4z"/>
	<path class="st7" d="M345.1,682.6c0,1.8-12.8,5.2-26.1,5.3c-13.3,0.1-30-2.4-30-4.2s16.6,2.4,30,2.2
		C332.3,685.7,345.1,680.8,345.1,682.6z"/>
	<path class="st7" d="M345.1,641.2c0,1.8-12.8,5.1-26.1,5.3c-13.3,0.2-30-2.4-30-4.2s16.6,2.4,30,2.2
		C332.3,644.4,345.1,639.5,345.1,641.2z"/>
	<path class="st7" d="M389.9,740.6c0,1.9-32.6,13.6-67.4,14.1s-78.9-9.9-79-11.7s43.1,7.7,77.7,7.2
		C355.9,749.6,389.9,738.8,389.9,740.6z"/>
	<ellipse transform="matrix(0.8622 -0.5065 0.5065 0.8622 -64.9071 228.2174)" cx="387.1" cy="233.4" rx="51.7" ry="19.3"/>
	
		<ellipse transform="matrix(0.859 -0.5119 0.5119 0.859 -63.0332 228.0193)" class="st4" cx="382.5" cy="228.5" rx="51.7" ry="17.4"/>
	<ellipse transform="matrix(0.8638 -0.5038 0.5038 0.8638 -60.2479 219.171)" cx="375.3" cy="221" rx="51.7" ry="20"/>
	<path class="st4" d="M556.3,210.8c-0.7,1.7-1.6,1.9-2.8,0.6c-2.5-2.5-4.3-7.6-1.6-16.7c4.6-15.3,21.7-47.3,37.6-70.5
		c-6.2-0.5-9.5-3-11.6-6.8c-0.9-1.7-0.3-2.5,2.1-2.8c15.3-1.7,28.8-8.6,41-9.1c9.2-0.3,17.2,2.2,21.7,13.7
		c3.8,10.1,1.3,20.3-5.6,28.9c-9.8,12.1-29.4,22.7-49.6,27.1c6.8,7.9,13.4,16,17.2,23.1c2.5,4.6,3.3,10.2,0.9,13.7
		c-0.9,1.4-1.8,1.9-2.8,0.3c-12-15.1-21.4-26.1-30-34.9C567.6,186.4,562.3,197,556.3,210.8z M593.5,142.2c-4.9,8-9.5,15.1-14.4,23.4
		c40.1-8.2,60.6-32.9,55.4-44.8c-4-9.4-22.1-0.7-34.1,2.4C600.4,128,598.4,133.9,593.5,142.2z"/>
	<path class="st4" d="M651.6,208.1c15,0.6,28.3-12.8,36.1-23.9c0.9-1.4,2.4-1.4,3.1,0.2c0.7,1.4,0.2,6.1-3.1,10.4
		c-7.6,10.2-21.7,18.1-35.6,18.2c-23,0.3-31-20.7-19.3-42.5s30.3-30.5,39.4-25.6c4.2,2.2,7.9,5.2,10.7,8.8
		c3.3,4.1,1.8,14.3-5.8,22.9c-8.9,10.1-21.1,14.5-33.7,4.9C637.6,197,642,207.6,651.6,208.1z M666.6,169.4
		c5.8-7.1,9.8-15.9,7.3-17.6c-3.8-2.8-18.9,7.2-27.4,23.3c-0.6,1-1.1,2-1.5,2.8C654,183,661.4,175.7,666.6,169.4z"/>
	<path class="st4" d="M725,217.3c-10,22.5-22.9,49.4-37.6,54.7c-3.6,1.4-7.3,0.8-10.5-3.5c-3.8-5-7.1-11-3.6-20.9
		c5.2-15.1,20.9-25.5,38.9-31.8c1.8-3.8,3.4-7.7,5.2-11.6c-5.2,4.9-11.6,8.5-18.4,8.5c-16.8,0-19.9-21.1-5.2-41.2
		c14.1-19.5,28.8-27.1,38.2-27.1c7.3,0,10.8,5.2,10.7,11.1c2.2-3.3,4.2-6.4,6-9.3c1.5-2.3,3.3-2.5,4.6-1c2.7,3,4.2,10.2-0.3,18.5
		c-5.5,10.1-16.9,30.5-24.5,46.7c12.9-5.9,24-14.6,32.5-25.3c1.1-1.4,2.7-1.4,3.1,0.3c0.3,1.5-0.6,5.2-3.6,9.8
		C753,205.4,740,212.2,725,217.3z M680.5,262.6c2.4,3.2,16.8-14.3,28.5-39.9C685.4,235.3,677.5,258.4,680.5,262.6L680.5,262.6z
		 M734.6,152.8c-5.6-0.3-18.9,10.4-28.8,25c-9.8,14.5-11.7,29.3-4.6,29.4c7.1,0.2,16.3-10.4,25.6-25.3
		C738.2,163.5,739.8,153.1,734.6,152.8L734.6,152.8z"/>
	<path class="st4" d="M774.3,207.8c8.8,0.6,21.4-11.5,28.5-24.4c1.3-2.2,3.3-2.4,4,0c0.9,2.7,0.2,6.4-1.8,10.4
		c-2.5,5-15.8,19-30.3,18.7c-12.5-0.3-19.3-8.5-15-26.6c6.7-29.3,27.4-59.8,45.9-77.6c2.7-2.7,5.2-3,7.8-0.8
		c5.2,4.4,6.4,10.6,4.2,18.6c-5.6,20.7-26,40.9-42.2,50.7C768.2,193.2,766.1,207,774.3,207.8z M811.4,122.4
		c-2.4-1.4-15.7,17.3-28.3,38.9c-1.6,2.6-3.1,5.3-4.3,8.1C803.5,150.7,813.7,123.8,811.4,122.4L811.4,122.4z"/>
	<path class="st4" d="M895.1,212.8c-13.8-0.6-19.3-12.1-14.7-25.8c3.8-11.3,14.7-23.8,22.5-31.8c-6.5,4-14,6.2-21.8,6.4
		c-15,29.3-34.6,50.5-56.3,50.8c-23,0.3-30.9-20.6-19-42.1c11.4-20.9,30-30.3,39-25.5c4.2,2.1,7.9,5,10.7,8.6c3.1,4.1,1.3,14-6,22.5
		c-8.5,10.2-20.7,14.5-33.4,5c-5.8,15.3-1.3,26.3,8,26.6c19.9,0.8,39.9-25.8,49.9-47.2c-14-5.4,3.8-27.8,11.4-28.1
		c5.6-0.2,3.8,10.1-0.7,21.1c6.4-0.8,12.8-3.5,19.8-7.9c2.2-1.4,3.8-2.2,5.1-0.5c3.6,3.8,8.2,11.8,2.7,17.3
		c-8.5,8.8-17.8,20.2-20.9,29.3c-3.1,9.3-0.9,16,4.6,16.2c7.6,0.3,16.9-10.7,22.7-23.3c0.7-1.4,2.1-1.7,2.7-0.2
		c0.9,1.9,1.3,6.3-0.9,11C915.9,205.6,905,213.3,895.1,212.8z M839.1,169.3c5.8-6.9,9.6-15.7,7.3-17.5c-4-3.2-18.9,7.4-27.2,22.9
		c-0.6,0.8-0.9,2-1.5,2.8C826.6,182.5,833.6,175.6,839.1,169.3z"/>
	<path class="st4" d="M572.9,327.9c0,1-0.1,2-0.6,2.9c-0.3,0.7-0.8,1.5-1.4,2.1c-1.1,1.1-2.7,1.8-4.4,1.8h-3.8v10.6h-2.5v-24h6.2
		c0.8,0,1.6,0.1,2.3,0.3c0.8,0.2,1.5,0.5,2.2,1c0.7,0.6,1.3,1.3,1.6,2.1C572.7,325.7,572.9,326.7,572.9,327.9z M570.4,327.9
		c0-0.7-0.1-1.5-0.3-2.1c-0.2-0.5-0.5-1-0.9-1.5c-0.3-0.3-0.8-0.6-1.4-0.8c-0.6-0.2-1-0.2-1.6-0.2h-3.4v9.2h3.4c1.1,0,2.2-0.4,3-1.1
		C570.1,330.4,570.6,329.1,570.4,327.9z"/>
	<path class="st4" d="M578.9,323.3c0,0.4-0.1,0.8-0.5,1.1s-0.7,0.4-1.1,0.4s-0.8-0.2-1.1-0.4c-0.3-0.3-0.5-0.7-0.5-1.1
		s0.1-0.8,0.5-1.1c0.2-0.3,0.7-0.5,1.1-0.5s0.8,0.2,1.1,0.5C578.6,322.5,578.9,322.9,578.9,323.3z M576,345.2v-16.8h2.4v16.8H576z"
		/>
	<path class="st4" d="M591.8,345.3l-3.6-7l-3.5,7.1h-2.6l4.8-8.9l-4.4-7.9h2.7l3.2,6.4l3.2-6.4h2.6l-4.3,7.9l4.9,8.9L591.8,345.3z"
		/>
	<path class="st4" d="M600.8,323.3c0,0.4-0.1,0.8-0.5,1.1c-0.6,0.6-1.6,0.6-2.2,0.1l-0.1-0.1c-0.3-0.3-0.5-0.7-0.5-1.1
		s0.1-0.8,0.5-1.1c0.6-0.6,1.5-0.6,2.2-0.1l0.1,0.1C600.5,322.5,600.8,322.9,600.8,323.3z M597.9,345.2v-16.8h2.4v16.8H597.9z"/>
	<path class="st4" d="M607.3,337.4c0,0.8,0.1,1.7,0.2,2.6c0.1,0.7,0.3,1.4,0.8,2.1c0.3,0.5,0.7,1,1.3,1.4c0.6,0.3,1.1,0.5,1.8,0.5
		c0.8,0,1.6-0.2,2.2-0.7s1-1.1,1.3-1.8l1.8,0.9c-0.5,0.9-1,1.9-1.9,2.6s-2.1,1-3.3,1c-1.9,0.1-3.8-0.8-4.7-2.4
		c-1.3-2-1.8-4.3-1.7-6.6c0-1.3,0.1-2.4,0.5-3.7c0.2-1,0.7-2,1.3-2.8c0.5-0.7,1.1-1.4,2.1-1.9c0.8-0.4,1.7-0.6,2.6-0.6
		c0.9,0,1.9,0.2,2.7,0.6s1.4,1,1.8,1.8c0.5,0.8,0.8,1.7,1,2.6c0.2,1,0.3,2.2,0.3,3.2v1.3L607.3,337.4z M614.5,335.5
		c0.1-1.4-0.2-2.8-0.8-4.1c-0.5-0.9-1.5-1.6-2.6-1.5c-0.7,0-1.3,0.2-1.8,0.6s-0.9,0.9-1.1,1.5c-0.3,0.6-0.6,1.3-0.7,1.9
		c-0.1,0.5-0.2,1.1-0.2,1.7L614.5,335.5z"/>
	<path class="st4" d="M639.6,337c0,1.3-0.1,2.4-0.5,3.7c-0.2,0.9-0.7,2-1.3,2.8c-0.5,0.7-1.1,1.4-2.1,1.9c-1.6,0.8-3.6,0.8-5.2,0
		c-0.8-0.4-1.5-1-1.9-1.9c-0.6-0.8-1-1.8-1.3-2.8c-0.3-1.1-0.5-2.4-0.5-3.7s0.1-2.5,0.5-3.7c0.2-1,0.7-2,1.3-2.8
		c0.5-0.7,1.1-1.4,1.9-1.9c0.8-0.4,1.7-0.6,2.7-0.6c0.9,0,1.8,0.2,2.6,0.6s1.5,1,2.1,1.9c0.6,0.8,1,1.9,1.3,2.8
		C639.5,334.5,639.7,335.7,639.6,337z M637.2,336.9c0-0.9-0.1-1.9-0.2-2.8c-0.1-0.7-0.3-1.5-0.7-2.2c-0.2-0.5-0.7-1-1.1-1.5
		c-0.5-0.3-1-0.5-1.7-0.5c-0.6,0-1.3,0.2-1.7,0.5c-0.5,0.4-0.9,0.9-1.1,1.5c-0.3,0.7-0.6,1.5-0.7,2.2c-0.1,0.9-0.2,1.9-0.2,2.8
		s0.1,1.9,0.2,2.7c0.1,0.7,0.3,1.5,0.7,2.2c0.2,0.5,0.7,1,1.1,1.5c1,0.7,2.4,0.7,3.4,0c0.5-0.4,0.9-0.9,1.1-1.5
		c0.3-0.7,0.6-1.5,0.7-2.2C637.1,338.7,637.2,337.8,637.2,336.9L637.2,336.9z"/>
	<path class="st4" d="M655.6,345.1c0,1.1-0.1,2.2-0.3,3.3c-0.1,0.9-0.6,1.8-1,2.6c-0.5,0.7-1.1,1.4-1.9,1.8
		c-0.9,0.4-2.1,0.6-3.1,0.6c-1.1,0-2.3-0.2-3.3-0.7s-1.8-1.3-2.5-2.1l1.6-1.6c0.5,0.7,1.1,1.3,1.8,1.7c0.8,0.4,1.6,0.6,2.5,0.6
		c0.7,0,1.4-0.1,2.1-0.5c0.6-0.3,0.9-0.7,1.3-1.4c0.3-0.6,0.6-1.4,0.6-2c0.1-0.8,0.2-1.7,0.2-2.5v-2.8h-0.1
		c-0.2,0.9-0.8,1.8-1.5,2.5c-0.8,0.7-1.8,1.1-2.8,1c-0.9,0-1.7-0.2-2.5-0.6c-0.8-0.5-1.4-1.1-1.8-1.9c-0.6-0.9-0.9-1.9-1.1-2.8
		c-0.2-1.1-0.3-2.4-0.3-3.7s0.1-2.4,0.3-3.5c0.2-0.9,0.6-1.9,1-2.8c0.5-0.7,1-1.4,1.8-1.9c0.7-0.4,1.6-0.6,2.5-0.6
		c1,0,2.1,0.3,2.8,0.9c0.8,0.6,1.4,1.5,1.6,2.5h0.1v-2.8h2.3L655.6,345.1z M653.3,336.9c0-0.9-0.1-1.9-0.2-2.7
		c-0.1-0.7-0.3-1.6-0.7-2.2c-0.3-0.6-0.7-1-1.3-1.5c-1-0.7-2.4-0.7-3.4,0c-0.5,0.4-0.9,0.9-1.1,1.5c-0.3,0.7-0.6,1.5-0.7,2.2
		c-0.1,0.9-0.2,1.9-0.2,2.8s0.1,1.8,0.2,2.7c0.1,0.7,0.3,1.5,0.7,2.2c0.2,0.5,0.7,1,1.1,1.5c1,0.7,2.4,0.7,3.4,0
		c0.6-0.4,0.9-0.9,1.3-1.5c0.3-0.7,0.6-1.5,0.7-2.2C653.2,338.7,653.3,337.8,653.3,336.9L653.3,336.9z"/>
	<path class="st4" d="M668.1,345.3v-24h2.5v21.8h7.4v2.2H668.1z"/>
	<path class="st4" d="M692.4,337c0,1.3-0.1,2.4-0.5,3.7c-0.2,0.9-0.7,2-1.3,2.8c-0.5,0.7-1.1,1.4-1.9,1.9c-0.8,0.4-1.7,0.6-2.6,0.6
		c-0.9,0-1.8-0.2-2.6-0.6s-1.5-1-1.9-1.9c-0.6-0.8-1-1.8-1.3-2.8c-0.3-1.1-0.5-2.4-0.5-3.7s0.1-2.5,0.5-3.7c0.2-1,0.7-2,1.3-2.8
		c0.5-0.7,1.1-1.4,2.1-1.9c1.7-0.8,3.6-0.8,5.4,0c0.8,0.4,1.5,1,1.9,1.9c0.6,0.8,1,1.9,1.3,2.8C692.2,334.5,692.4,335.7,692.4,337z
		 M689.9,336.9c0-0.9-0.1-1.9-0.2-2.8c-0.1-0.7-0.3-1.5-0.7-2.2c-0.2-0.5-0.7-1-1.1-1.5c-0.5-0.3-1-0.5-1.7-0.5
		c-0.6,0-1.3,0.2-1.7,0.5c-0.5,0.4-0.9,0.9-1.1,1.5c-0.3,0.7-0.6,1.5-0.7,2.2c-0.1,0.9-0.2,1.9-0.2,2.8s0.1,1.9,0.2,2.7
		c0.1,0.7,0.3,1.5,0.7,2.2c0.2,0.5,0.7,1,1.1,1.5c0.5,0.3,1.1,0.5,1.7,0.5s1.3-0.2,1.7-0.5c0.5-0.4,0.9-0.9,1.1-1.5
		c0.3-0.7,0.6-1.5,0.7-2.2C689.8,338.7,689.9,337.8,689.9,336.9L689.9,336.9z"/>
	<path class="st4" d="M696.8,345.3v-25.6h2.4v25.6H696.8z"/>
	<path class="st4" d="M712.6,345.3c0-0.2,0-0.4,0-0.6c0-0.3,0-0.5,0-0.8s0-0.6,0-0.9v-0.7h-0.1c-0.6,2.4-2.1,3.5-4.3,3.5
		c-0.6,0-1-0.1-1.5-0.3c-0.6-0.2-1-0.5-1.4-0.9c-0.5-0.4-0.8-0.9-1-1.6c-0.6-1.7-0.6-3.5,0.2-5.2c0.5-0.7,1-1.3,1.7-1.8
		c0.7-0.4,1.5-0.7,2.3-0.8c0.8-0.1,1.6-0.2,2.4-0.2h1.4v-0.8c0.1-1.1-0.2-2.3-0.9-3.2c-0.6-0.7-1.5-1-2.4-1c-0.7,0-1.4,0.2-1.9,0.5
		s-1.1,0.7-1.5,1.3l-1.3-1.4c0.6-0.7,1.4-1.4,2.2-1.7c0.8-0.4,1.7-0.6,2.7-0.6c1.6-0.1,3.1,0.5,4,1.7c0.9,1.6,1.4,3.3,1.3,5v7
		c0,0.2,0,0.5,0,0.8v1c0,0.3,0,0.6,0,0.9s0,0.5,0.1,0.7L712.6,345.3z M712.2,336.8h-1.5c-0.6,0-1.1,0-1.7,0.1
		c-0.6,0.1-1,0.3-1.6,0.5c-0.5,0.3-0.9,0.7-1.1,1.1c-0.3,0.6-0.5,1.3-0.5,2c-0.1,0.9,0.2,1.9,0.8,2.5c0.9,0.9,2.5,1,3.5,0.2
		c0.5-0.4,0.9-0.9,1.1-1.5c0.3-0.6,0.5-1.3,0.6-2c0.1-0.6,0.2-1.4,0.2-2.1L712.2,336.8z"/>
	<path class="st4" d="M731.9,345.3h-2.8l-4.9-16.8h2.5l3.8,14.4h0.1l3.5-14.4h2.5L731.9,345.3z"/>
	<path class="st4" d="M742.9,323.3c0,0.4-0.1,0.8-0.5,1.1c-0.6,0.6-1.6,0.6-2.2,0.1l-0.1-0.1c-0.3-0.3-0.5-0.7-0.5-1.1
		s0.1-0.8,0.5-1.1c0.6-0.6,1.5-0.6,2.2-0.1l0.1,0.1C742.8,322.5,742.9,322.9,742.9,323.3z M740.2,345.2v-16.8h2.4v16.8H740.2z"/>
	<path class="st4" d="M748.1,345.3v-25.6h2.4v25.6H748.1z"/>
	<path class="st4" d="M774.3,345.1c0,1.1-0.1,2.2-0.3,3.3c-0.2,0.9-0.6,1.8-1,2.6c-0.5,0.7-1.1,1.4-1.9,1.8
		c-0.9,0.4-2.1,0.6-3.1,0.6c-2.3,0-4.6-1-5.8-2.8l1.6-1.6c0.5,0.7,1.1,1.3,1.8,1.7c0.8,0.4,1.6,0.6,2.5,0.6c0.7,0,1.4-0.1,2.1-0.5
		c0.6-0.3,0.9-0.7,1.3-1.4c0.3-0.6,0.6-1.4,0.6-2c0.1-0.8,0.2-1.7,0.2-2.5v-2.8h-0.1c-0.2,0.9-0.8,1.8-1.5,2.5
		c-0.8,0.7-1.8,1.1-2.8,1c-0.9,0-1.7-0.2-2.5-0.6c-0.8-0.5-1.4-1.1-1.8-1.9c-0.6-0.9-0.9-1.9-1.1-2.8c-0.2-1.1-0.5-2.4-0.3-3.7
		c0-1.3,0.1-2.4,0.3-3.5c0.2-0.9,0.6-1.9,1.1-2.8c0.5-0.7,1-1.4,1.8-1.9c0.7-0.4,1.6-0.6,2.5-0.6c1,0,2.1,0.3,2.8,0.9
		c0.8,0.6,1.4,1.5,1.6,2.5h0.1v-2.8h2.3L774.3,345.1z M772.1,336.9c0-0.9-0.1-1.9-0.2-2.7c-0.1-0.7-0.3-1.6-0.7-2.2
		c-0.3-0.5-0.7-1-1.3-1.5c-1-0.7-2.4-0.7-3.4,0c-0.5,0.4-0.9,0.9-1.1,1.5c-0.3,0.7-0.6,1.5-0.7,2.2c-0.1,0.9-0.2,1.9-0.2,2.8
		s0.1,1.8,0.2,2.7c0.1,0.7,0.3,1.5,0.7,2.2c0.2,0.5,0.7,1,1.1,1.5c0.5,0.3,1,0.5,1.7,0.5c0.6,0,1.3-0.2,1.7-0.5
		c0.6-0.4,0.9-0.9,1.3-1.5c0.3-0.7,0.6-1.5,0.7-2.2C772,338.7,772.1,337.8,772.1,336.9L772.1,336.9z"/>
	<path class="st4" d="M781.3,337.4c0,0.8,0.1,1.7,0.2,2.6c0.1,0.7,0.3,1.4,0.8,2.1c0.3,0.5,0.7,1,1.3,1.4c0.6,0.3,1.1,0.5,1.8,0.5
		c0.8,0,1.6-0.2,2.2-0.7s1-1.1,1.3-1.8l1.8,0.9c-0.5,0.9-1.1,1.9-1.9,2.6c-0.9,0.7-2.1,1-3.3,1c-1.9,0.1-3.8-0.8-4.7-2.4
		c-1.3-2-1.8-4.3-1.7-6.6c0-1.3,0.1-2.4,0.5-3.7c0.2-1,0.7-2,1.3-2.8c0.5-0.7,1.1-1.4,2.1-1.9c1.7-0.8,3.6-0.8,5.4,0
		c0.8,0.4,1.4,1,1.8,1.8c0.5,0.8,0.8,1.7,1,2.6c0.2,1,0.3,2.1,0.3,3.1v1.3H781.3z M788.6,335.5c0.1-1.4-0.2-2.8-0.8-4.1
		c-0.5-0.9-1.5-1.6-2.6-1.5c-0.7,0-1.3,0.2-1.8,0.6s-0.9,0.9-1.1,1.5c-0.3,0.6-0.6,1.3-0.7,1.9c-0.1,0.5-0.2,1.1-0.2,1.7
		L788.6,335.5z"/>
	<path class="st4" d="M799.5,328.9c0.6-0.6,1.5-0.9,2.4-0.9c0.1,0,0.3,0,0.5,0l-0.1,2.3h-0.2h-0.4c-0.6,0-1.1,0.2-1.6,0.5
		c-0.5,0.4-0.9,0.9-1.1,1.5c-0.3,0.6-0.6,1.4-0.7,2.1c-0.1,0.7-0.2,1.6-0.2,2.3v8.6h-2.4v-12.5c0-0.3,0-0.7,0-1.1s0-0.8,0-1.3
		s0-0.7,0-1s0-0.6,0-0.7h2.3c0,0.4,0.1,0.9,0.1,1.6c0,0.6,0,1.4,0,2.1h0.1C798.2,331,798.7,329.9,799.5,328.9z"/>
	<path class="st4" d="M814.7,345.3v-10.9c0-0.5,0-1-0.1-1.6c0-0.5-0.2-1-0.3-1.5c-0.2-0.4-0.5-0.7-0.9-1c-0.5-0.3-0.9-0.4-1.5-0.4
		s-1.1,0.1-1.6,0.4s-0.9,0.7-1.3,1.3s-0.6,1.1-0.8,1.9c-0.2,0.7-0.2,1.5-0.2,2.2v9.7h-2.4v-12.5c0-0.3,0-0.7,0-1.1s0-0.8,0-1.3
		c0-0.4,0-0.7,0-1s0-0.6,0-0.7h2.3c0,0.4,0.1,0.9,0.1,1.6c0,0.6,0,1.1,0,1.7h0.1c0.3-1,0.9-2,1.7-2.7c1.5-1.3,3.6-1.5,5.2-0.5
		c0.6,0.4,1,0.9,1.4,1.5c0.3,0.6,0.6,1.4,0.7,2.1c0.1,0.7,0.1,1.6,0.2,2.3v10.9L814.7,345.3z"/>
	<path class="st4" d="M823.9,337.4c0,0.8,0.1,1.7,0.2,2.6c0.1,0.7,0.3,1.4,0.8,2.1c0.3,0.5,0.7,1,1.3,1.4c0.6,0.3,1.1,0.5,1.8,0.5
		c0.8,0,1.6-0.2,2.2-0.7s1-1.1,1.3-1.8l1.8,0.9c-0.5,0.9-1.1,1.9-1.9,2.6c-0.9,0.7-2.1,1-3.3,1c-1.9,0.1-3.8-0.8-4.7-2.4
		c-1.3-2-1.8-4.3-1.7-6.6c0-1.3,0.1-2.4,0.5-3.7c0.2-1,0.7-2,1.3-2.8c0.5-0.7,1.1-1.4,2.1-1.9c0.8-0.4,1.7-0.6,2.6-0.6
		s1.9,0.2,2.7,0.6s1.4,1,1.8,1.8c0.5,0.8,0.8,1.7,1,2.6c0.2,1,0.3,2.1,0.3,3.1v1.3H823.9z M831.2,335.5c0.1-1.4-0.2-2.8-0.8-4.1
		c-0.5-0.9-1.5-1.6-2.6-1.5c-0.7,0-1.3,0.2-1.8,0.6s-0.9,0.9-1.1,1.5c-0.3,0.6-0.6,1.3-0.7,1.9c-0.1,0.5-0.2,1.1-0.2,1.7
		L831.2,335.5z"/>
	<path class="st4" d="M844.8,345.3v-25.6h2.5v25.6H844.8z"/>
	<path class="st4" d="M860.4,345.3c0-0.2,0-0.4,0-0.6s0-0.5,0-0.8s0-0.6,0-0.9v-0.7h-0.1c-0.6,2.4-2.1,3.5-4.3,3.5
		c-0.6,0-1-0.1-1.5-0.3c-0.6-0.2-1-0.5-1.5-0.9s-0.8-0.9-1-1.6c-0.7-1.7-0.6-3.5,0.2-5.2c0.5-0.7,1-1.3,1.7-1.8
		c0.7-0.4,1.5-0.7,2.3-0.8c0.8-0.1,1.6-0.2,2.4-0.2h1.4v-0.8c0.1-1.1-0.2-2.3-0.9-3.2c-0.6-0.7-1.5-1-2.4-1c-0.7,0-1.4,0.2-1.9,0.5
		s-1.1,0.7-1.5,1.3l-1.3-1.4c0.6-0.7,1.3-1.4,2.2-1.7c0.8-0.4,1.8-0.6,2.7-0.6c1.6-0.1,3.1,0.5,4,1.7c0.9,1.6,1.4,3.3,1.3,5v7
		c0,0.2,0,0.5,0,0.8v1c0,0.3,0,0.6,0,0.9s0,0.5,0.1,0.7L860.4,345.3z M860.2,336.8h-1.5c-0.6,0-1.1,0-1.7,0.1
		c-0.6,0.1-1.1,0.3-1.6,0.5c-0.5,0.3-0.9,0.7-1.1,1.1c-0.3,0.6-0.5,1.3-0.5,2c-0.1,0.9,0.2,1.9,0.8,2.5c0.5,0.5,1.1,0.7,1.8,0.7
		s1.3-0.2,1.7-0.5c0.5-0.4,0.9-0.9,1.1-1.5c0.2-0.6,0.5-1.3,0.6-2c0.1-0.6,0.2-1.4,0.2-2.1L860.2,336.8z"/>
	<path class="st4" d="M873.2,345.3h-2.8l-4.9-16.8h2.5l3.8,14.4h0.1l3.5-14.4h2.5L873.2,345.3z"/>
	<path class="st4" d="M882.6,337.4c0,0.8,0.1,1.7,0.2,2.6c0.1,0.7,0.3,1.4,0.8,2.1c0.3,0.5,0.7,1,1.3,1.4c0.6,0.3,1.1,0.5,1.8,0.5
		c0.8,0,1.6-0.2,2.2-0.7c0.6-0.5,1-1.1,1.3-1.8l1.8,0.9c-0.5,0.9-1,1.9-1.9,2.6s-2.1,1-3.3,1c-1.9,0.1-3.8-0.8-4.7-2.4
		c-1.3-2-1.8-4.3-1.7-6.6c0-1.3,0.1-2.4,0.5-3.7c0.2-1,0.7-2,1.3-2.8c0.5-0.7,1.1-1.4,2.1-1.9c0.8-0.4,1.7-0.6,2.6-0.6
		c0.9,0,1.9,0.2,2.7,0.6s1.4,1,1.8,1.8c0.5,0.8,0.8,1.7,1,2.6c0.2,1,0.3,2.1,0.3,3.1v1.3H882.6z M889.9,335.5
		c0.1-1.4-0.2-2.8-0.8-4.1c-0.5-0.9-1.5-1.6-2.6-1.5c-0.7,0-1.3,0.2-1.8,0.6s-0.9,0.9-1.1,1.5c-0.3,0.6-0.6,1.3-0.7,1.9
		c-0.1,0.5-0.2,1.1-0.2,1.7L889.9,335.5z"/>
	<path class="st4" d="M569.2,385.9v-3l0,0c-0.2,0.9-0.8,1.8-1.5,2.5c-0.8,0.7-1.8,1-2.8,1c-0.9,0-1.7-0.2-2.5-0.6
		c-0.8-0.5-1.4-1.1-1.8-1.9c-0.6-0.8-0.9-1.9-1.1-2.8c-0.2-1.1-0.3-2.4-0.3-3.7s0.1-2.4,0.3-3.5c0.2-0.9,0.6-1.9,1.1-2.8
		c0.5-0.7,1-1.4,1.8-1.9c0.7-0.4,1.6-0.6,2.5-0.6c1,0,2.1,0.3,2.7,0.9c0.8,0.6,1.4,1.5,1.5,2.5l0,0v-11.7h2.4v25.6H569.2
		L569.2,385.9z M569.2,377.5c0-0.9-0.1-1.9-0.2-2.8c-0.1-0.7-0.3-1.5-0.7-2.2c-0.2-0.5-0.7-1-1.3-1.5c-0.5-0.3-1-0.5-1.7-0.5
		c-0.6,0-1.3,0.2-1.7,0.5c-0.5,0.4-0.9,0.9-1.1,1.5c-0.3,0.7-0.6,1.5-0.7,2.2c-0.1,0.9-0.2,1.9-0.2,2.8s0.1,1.8,0.2,2.7
		c0.1,0.7,0.3,1.5,0.7,2.2c0.2,0.5,0.7,1,1.1,1.5c0.5,0.3,1,0.5,1.7,0.5c0.6,0,1.3-0.2,1.7-0.5c0.5-0.4,0.9-0.9,1.1-1.5
		c0.3-0.7,0.6-1.5,0.7-2.2C569.1,379.3,569.2,378.5,569.2,377.5L569.2,377.5z"/>
	<path class="st4" d="M578.4,378c0,0.8,0.1,1.7,0.2,2.6c0.1,0.7,0.3,1.5,0.8,2.1c0.3,0.5,0.7,1,1.3,1.4s1.1,0.5,1.8,0.5
		c0.8,0,1.6-0.2,2.2-0.7c0.6-0.5,1-1.1,1.3-1.8l1.8,0.9c-0.5,0.9-1,1.9-1.9,2.6s-2.1,1-3.3,1c-1.9,0.1-3.8-0.8-4.7-2.4
		c-1.3-2-1.8-4.3-1.7-6.6c0-1.3,0.1-2.4,0.5-3.7c0.2-1,0.7-2,1.3-2.8c0.5-0.7,1.1-1.4,2.1-1.9c1.7-0.8,3.6-0.8,5.4,0
		c0.8,0.4,1.4,1,1.8,1.8c0.5,0.8,0.8,1.7,1,2.6c0.2,1,0.3,2.1,0.3,3.1v1.3H578.4z M585.8,376.2c0.1-1.4-0.2-2.8-0.8-4.1
		c-0.5-0.9-1.5-1.6-2.6-1.6c-0.7,0-1.3,0.2-1.8,0.6s-0.9,0.9-1.1,1.5c-0.3,0.6-0.6,1.3-0.7,1.9c-0.1,0.5-0.2,1.1-0.2,1.8
		L585.8,376.2z"/>
	<path class="st4" d="M596.8,369.6c0.6-0.6,1.5-0.9,2.4-0.9c0.1,0,0.3,0,0.5,0l-0.1,2.3h-0.2h-0.3c-0.6,0-1.1,0.2-1.6,0.6
		s-0.9,0.9-1.1,1.5c-0.3,0.6-0.6,1.4-0.7,2.1s-0.2,1.6-0.2,2.3v8.6h-2.4v-12.5c0-0.3,0-0.7,0-1.1v-1.3c0-0.4,0-0.7,0-1s0-0.6,0-0.7
		h2.3c0,0.4,0.1,0.9,0.1,1.6c0,0.6,0,1.4,0,2.1h0.1C595.4,371.7,595.9,370.6,596.8,369.6z"/>
	<path class="st4" d="M603.7,378c0,0.8,0.1,1.7,0.2,2.6c0.1,0.7,0.3,1.5,0.8,2.1c0.3,0.5,0.7,1,1.3,1.4s1.1,0.5,1.8,0.5
		c0.8,0,1.6-0.2,2.2-0.7s1-1.1,1.3-1.8l1.8,0.9c-0.5,0.9-1.1,1.9-1.9,2.6c-0.9,0.7-2.1,1-3.3,1c-1.9,0.1-3.8-0.8-4.7-2.4
		c-1.3-2-1.8-4.3-1.7-6.6c0-1.3,0.1-2.4,0.5-3.7c0.2-1,0.7-2,1.3-2.8c0.5-0.7,1.1-1.4,2.1-1.9c1.7-0.8,3.6-0.8,5.4,0
		c0.8,0.4,1.4,1,1.8,1.8c0.5,0.8,0.8,1.7,1,2.6c0.2,1,0.3,2.1,0.3,3.1v1.3H603.7z M611,376.2c0.1-1.4-0.2-2.8-0.8-4.1
		c-0.5-0.9-1.5-1.6-2.6-1.6c-0.7,0-1.3,0.2-1.8,0.6s-0.9,0.9-1.1,1.5c-0.3,0.6-0.6,1.3-0.7,1.9c-0.1,0.5-0.2,1.1-0.2,1.8L611,376.2z
		"/>
	<path class="st4" d="M624.7,372c-0.3-0.5-0.7-0.9-1.3-1.1c-0.6-0.3-1.1-0.5-1.8-0.4c-0.8,0-1.5,0.3-1.9,0.8
		c-0.6,0.6-0.8,1.4-0.8,2.1c-0.1,0.7,0.2,1.5,0.7,2c0.7,0.5,1.4,0.8,2.2,1.1c0.5,0.2,1,0.4,1.5,0.6s0.9,0.6,1.3,0.9
		c0.9,0.9,1.4,2.1,1.3,3.2c0.1,1.4-0.5,2.8-1.5,3.9c-1,0.9-2.4,1.5-3.8,1.4c-1,0-1.9-0.2-2.8-0.6c-0.8-0.4-1.6-1-2.2-1.8l1.5-1.5
		c0.3,0.5,0.9,1,1.5,1.5c0.6,0.4,1.3,0.6,2.1,0.5c0.8,0,1.6-0.3,2.1-0.8c0.6-0.6,0.8-1.5,0.8-2.3c0-0.5-0.1-0.9-0.3-1.4
		c-0.2-0.3-0.5-0.6-0.8-0.9c-0.3-0.2-0.7-0.5-1.1-0.6c-0.3-0.2-0.8-0.3-1.3-0.5s-0.9-0.3-1.4-0.5s-0.8-0.5-1.1-0.9s-0.7-0.8-0.8-1.3
		c-0.5-1.3-0.5-2.6,0.1-3.8c0.2-0.5,0.7-1,1.1-1.5c0.5-0.4,1-0.7,1.6-0.9c0.6-0.2,1.3-0.3,1.9-0.3c0.9,0,1.8,0.2,2.6,0.5
		c0.7,0.4,1.4,0.8,1.8,1.5L624.7,372z"/>
	<path class="st4" d="M638.4,378c0,0.8,0.1,1.7,0.2,2.6c0.1,0.7,0.3,1.5,0.8,2.1c0.3,0.5,0.7,1,1.3,1.4s1.1,0.5,1.8,0.5
		c0.8,0,1.6-0.2,2.2-0.7c0.6-0.5,1-1.1,1.3-1.8l1.8,0.9c-0.5,0.9-1.1,1.9-1.9,2.6c-0.9,0.7-2.1,1-3.3,1c-1.9,0.1-3.8-0.8-4.7-2.4
		c-1.3-2-1.8-4.3-1.7-6.6c0-1.3,0.1-2.4,0.5-3.7c0.2-1,0.7-2,1.3-2.8c0.5-0.7,1.1-1.4,2.1-1.9c1.7-0.8,3.6-0.8,5.4,0
		c0.8,0.4,1.4,1,1.8,1.8c0.5,0.8,0.8,1.7,1,2.6c0.2,1,0.3,2.1,0.3,3.1v1.3H638.4z M645.7,376.2c0.1-1.4-0.2-2.8-0.8-4.1
		c-0.5-0.9-1.5-1.6-2.6-1.6c-0.7,0-1.3,0.2-1.8,0.6s-0.9,0.9-1.1,1.5c-0.3,0.6-0.6,1.3-0.7,1.9c-0.1,0.5-0.2,1.1-0.2,1.8
		L645.7,376.2z"/>
	<path class="st4" d="M663.9,385.7c0,1.1-0.1,2.2-0.3,3.3c-0.2,0.9-0.6,1.8-1,2.6c-0.5,0.7-1.1,1.4-1.9,1.8
		c-0.9,0.4-2.1,0.7-3.1,0.6c-2.3,0-4.6-1-5.8-2.8l1.6-1.6c0.5,0.7,1.1,1.3,1.8,1.7c0.8,0.4,1.6,0.6,2.5,0.6c0.7,0,1.4-0.1,2.1-0.5
		c0.6-0.3,0.9-0.7,1.3-1.4c0.3-0.6,0.6-1.4,0.6-2c0.1-0.8,0.2-1.7,0.2-2.5v-2.7l0,0c-0.2,0.9-0.8,1.8-1.5,2.5
		c-0.8,0.7-1.8,1.1-2.8,1c-0.9,0-1.7-0.2-2.5-0.6c-0.8-0.5-1.4-1.1-1.8-1.9c-0.6-0.9-0.9-1.9-1.1-2.8c-0.2-1.1-0.5-2.4-0.3-3.7
		c0-1.3,0.1-2.4,0.3-3.5c0.2-0.9,0.6-1.9,1.1-2.8c0.5-0.7,1-1.4,1.8-1.9c0.7-0.4,1.6-0.6,2.5-0.6c1,0,2.1,0.3,2.8,0.9
		c0.8,0.6,1.4,1.5,1.6,2.5h0.1v-2.8h2.3L663.9,385.7z M661.5,377.5c0-0.9-0.1-1.9-0.2-2.7c-0.1-0.7-0.3-1.6-0.7-2.2
		c-0.2-0.5-0.7-1-1.3-1.5c-0.5-0.3-1-0.5-1.7-0.5c-0.6,0-1.3,0.2-1.7,0.5c-0.5,0.4-0.9,0.9-1.1,1.5c-0.3,0.7-0.6,1.5-0.7,2.2
		c-0.1,0.9-0.2,1.9-0.2,2.8s0.1,1.8,0.2,2.7c0.1,0.7,0.3,1.5,0.7,2.2c0.2,0.5,0.7,1,1.1,1.5c1,0.7,2.4,0.7,3.4,0
		c0.6-0.4,0.9-0.9,1.3-1.5c0.3-0.7,0.6-1.5,0.7-2.2C661.4,379.4,661.5,378.5,661.5,377.5z"/>
	<path class="st4" d="M670.9,378c0,0.8,0.1,1.7,0.2,2.6c0.1,0.7,0.3,1.5,0.8,2.1c0.3,0.5,0.7,1,1.3,1.4s1.1,0.5,1.8,0.5
		c0.8,0,1.6-0.2,2.2-0.7s1-1.1,1.3-1.8l1.8,0.9c-0.5,0.9-1.1,1.9-1.9,2.6c-0.9,0.7-2.1,1-3.3,1c-1.9,0.1-3.8-0.8-4.7-2.4
		c-1.3-2-1.8-4.3-1.7-6.6c0-1.3,0.1-2.4,0.5-3.7c0.2-1,0.7-2,1.3-2.8c0.5-0.7,1.1-1.4,2.1-1.9c1.7-0.8,3.6-0.8,5.4,0
		c0.8,0.4,1.4,1,1.8,1.8c0.5,0.8,0.8,1.7,1,2.6c0.2,1,0.3,2.1,0.3,3.1v1.3H670.9z M678.1,376.2c0.1-1.4-0.2-2.8-0.8-4.1
		c-0.5-0.9-1.5-1.6-2.6-1.6c-0.7,0-1.3,0.2-1.8,0.6s-0.9,0.9-1.1,1.5c-0.3,0.6-0.6,1.3-0.7,1.9c-0.1,0.5-0.2,1.1-0.2,1.8
		L678.1,376.2z"/>
	<path class="st4" d="M694.2,385.9V375c0-0.5,0-1-0.1-1.6c0-0.5-0.2-1-0.3-1.5c-0.2-0.4-0.5-0.7-0.9-1c-0.5-0.3-0.9-0.4-1.5-0.4
		s-1.1,0.1-1.6,0.4s-0.9,0.7-1.1,1.3c-0.3,0.5-0.6,1.1-0.8,1.9c-0.2,0.7-0.2,1.5-0.2,2.2v9.7h-2.4v-12.6c0-0.3,0-0.7,0-1.1V371
		c0-0.4,0-0.7,0-1s0-0.6,0-0.7h2.3c0,0.4,0.1,0.9,0.1,1.6s0,1.1,0,1.7h0.1c0.3-1,0.9-2,1.7-2.7s1.8-1,3-1c0.8,0,1.7,0.2,2.4,0.5
		c0.6,0.4,1,0.9,1.4,1.5c0.3,0.6,0.6,1.4,0.7,2.1c0.1,0.7,0.1,1.6,0.2,2.3v10.9L694.2,385.9z"/>
	<path class="st4" d="M713,369.6c0.8-0.7,1.8-1,3-1c1.1,0,2.2,0.4,2.8,1.1c0.3,0.3,0.6,0.7,0.8,1.3s0.3,0.9,0.5,1.5h0.1
		c0.1-0.5,0.3-0.9,0.6-1.5c0.2-0.4,0.6-0.8,1-1.3c0.5-0.3,0.9-0.6,1.4-0.8c0.6-0.2,1.1-0.3,1.7-0.3c0.8,0,1.6,0.2,2.3,0.5
		c0.6,0.4,1,0.9,1.4,1.5c0.3,0.6,0.6,1.4,0.7,2.1s0.1,1.6,0.1,2.3v10.8H727v-10.7c0-0.5,0-1-0.1-1.6s-0.2-1-0.3-1.5
		c-0.2-0.4-0.5-0.7-0.9-1c-0.5-0.3-1-0.4-1.5-0.4c-0.6,0-1.1,0.2-1.6,0.4c-0.5,0.3-0.9,0.7-1.1,1.3c-0.3,0.6-0.6,1.1-0.7,1.9
		c-0.1,0.7-0.2,1.5-0.2,2.2v9.7h-2.4v-11c0-0.5,0-1-0.1-1.6c0-0.5-0.2-1-0.3-1.5c-0.1-0.4-0.5-0.7-0.8-1c-0.5-0.3-0.9-0.4-1.5-0.4
		s-1.1,0.1-1.6,0.4s-0.9,0.7-1.1,1.3c-0.3,0.5-0.6,1.1-0.8,1.9c-0.2,0.7-0.2,1.5-0.2,2.2v9.7h-2.4v-12.6c0-0.3,0-0.7,0-1.1v-1.3
		c0-0.4,0-0.7,0-1s0-0.6,0-0.7h2.4c0,0.4,0.1,0.9,0.1,1.6s0,1.1,0,1.7h0.1C711.8,371.4,712.2,370.5,713,369.6z"/>
	<path class="st4" d="M737.8,364c0,0.4-0.1,0.8-0.5,1.1c-0.6,0.6-1.6,0.6-2.2,0.1l-0.1-0.1c-0.3-0.3-0.5-0.7-0.5-1.1
		s0.1-0.8,0.5-1.1c0.6-0.6,1.5-0.6,2.2-0.1l0.1,0.1C737.5,363.1,737.8,363.6,737.8,364z M734.9,385.9v-16.8h2.4v16.8H734.9z"/>
	<path class="st4" d="M742.9,385.9v-25.6h2.4v25.6H742.9z"/>
	<path class="st4" d="M759.6,385.9l-6.3-8.5h-0.1v8.5h-2.4v-25.6h2.4v16.2h0.1l5.8-7.4h2.8l-6.5,7.8l6.8,9H759.6z"/>
	<path class="st4" d="M772.3,372c-0.3-0.5-0.7-0.9-1.3-1.1c-0.6-0.3-1.1-0.5-1.8-0.4c-0.8,0-1.5,0.3-1.9,0.8
		c-0.6,0.6-0.8,1.4-0.8,2.1c-0.1,0.7,0.2,1.5,0.7,2c0.7,0.5,1.4,0.8,2.2,1.1c0.5,0.2,1,0.4,1.5,0.6s0.9,0.6,1.3,0.9
		c0.9,0.9,1.4,2.1,1.3,3.2c0.1,1.4-0.5,2.8-1.5,3.9c-1,0.9-2.4,1.5-3.8,1.4c-1,0-1.9-0.2-2.8-0.6c-0.8-0.4-1.6-1-2.2-1.8l1.5-1.5
		c0.3,0.5,0.9,1,1.5,1.5c0.6,0.4,1.3,0.6,2.1,0.5c0.8,0,1.6-0.3,2.1-0.8c0.6-0.6,0.8-1.5,0.8-2.3c0-0.5-0.1-0.9-0.3-1.4
		c-0.2-0.3-0.5-0.6-0.8-0.9c-0.3-0.2-0.7-0.5-1.1-0.6c-0.3-0.2-0.8-0.3-1.3-0.5s-0.9-0.3-1.4-0.5c-0.9-0.5-1.6-1.3-1.9-2.2
		c-0.5-1.3-0.5-2.6,0.1-3.8c0.2-0.5,0.7-1,1.1-1.5c0.5-0.4,1-0.7,1.6-0.9c0.6-0.2,1.3-0.3,1.9-0.3c0.9,0,1.8,0.2,2.6,0.5
		c0.7,0.3,1.4,0.8,1.8,1.5L772.3,372z"/>
	<path class="st4" d="M786.9,385.9V375c0-0.5,0-1-0.1-1.6s-0.2-1-0.3-1.5c-0.2-0.4-0.5-0.7-0.9-1c-0.5-0.3-0.9-0.4-1.5-0.4
		s-1.1,0.1-1.6,0.4s-0.9,0.7-1.3,1.3s-0.6,1.1-0.8,1.9c-0.2,0.7-0.2,1.5-0.2,2.2v9.7h-2.4v-25.7h2.4v12h0.1c0.2-1,0.8-2,1.6-2.7
		c1.5-1.1,3.5-1.4,5.2-0.5c0.6,0.4,1,0.9,1.4,1.5c0.3,0.6,0.6,1.4,0.7,2.1s0.1,1.6,0.1,2.3v10.8L786.9,385.9z"/>
	<path class="st4" d="M802.5,385.9c0-0.2,0-0.4,0-0.6s0-0.5,0-0.8s0-0.6,0-0.9v-0.8h-0.1c-0.6,2.4-2.1,3.5-4.3,3.5
		c-0.6,0-1-0.1-1.5-0.3c-0.6-0.2-1-0.5-1.4-0.9c-0.5-0.4-0.8-0.9-1-1.6s-0.5-1.5-0.3-2.3c0-1,0.2-2.1,0.7-2.9c0.5-0.7,1-1.4,1.7-1.8
		s1.5-0.7,2.3-0.8c0.8-0.1,1.6-0.2,2.4-0.2h1.4v-0.8c0.1-1.1-0.2-2.3-0.9-3.2c-0.6-0.7-1.5-1-2.4-1c-0.7,0-1.4,0.2-1.9,0.5
		c-0.6,0.3-1.1,0.7-1.5,1.3l-1.3-1.4c0.6-0.7,1.3-1.4,2.2-1.8c0.8-0.4,1.7-0.6,2.7-0.6c1.6-0.1,3.2,0.5,4.1,1.7
		c0.9,1.6,1.4,3.3,1.1,5v7c0,0.2,0,0.5,0,0.8v1c0,0.3,0,0.6,0,0.9s0,0.5,0.1,0.7L802.5,385.9z M802.2,377.4h-1.5
		c-0.6,0-1.1,0-1.7,0.1c-0.6,0.1-1,0.3-1.6,0.5c-0.5,0.3-0.9,0.7-1.1,1.1c-0.3,0.6-0.5,1.3-0.5,2c-0.1,0.9,0.2,1.9,0.8,2.5
		c0.9,0.9,2.5,1,3.5,0.2c0.5-0.4,0.9-0.9,1.1-1.5c0.3-0.6,0.5-1.3,0.6-2s0.2-1.4,0.2-2.1L802.2,377.4z"/>
	<path class="st4" d="M818.3,385.9l-6.3-8.5h-0.1v8.5h-2.2v-25.6h2.4v16.2h0.1l5.8-7.4h2.8l-6.6,7.7l7,9L818.3,385.9z"/>
	<path class="st4" d="M825.1,378c0,0.8,0.1,1.7,0.2,2.6c0.1,0.7,0.3,1.5,0.8,2.1c0.3,0.5,0.7,1,1.3,1.4s1.1,0.5,1.8,0.5
		c0.8,0,1.6-0.2,2.2-0.7s1-1.1,1.3-1.8l1.8,0.9c-0.5,0.9-1.1,1.9-1.9,2.6c-0.9,0.7-2.1,1-3.3,1c-1.9,0.1-3.8-0.8-4.7-2.4
		c-1.3-2-1.8-4.3-1.7-6.6c0-1.3,0.1-2.4,0.5-3.7c0.2-1,0.7-2,1.3-2.8c0.5-0.7,1.1-1.4,2.1-1.9c1.7-0.8,3.6-0.8,5.4,0
		c0.8,0.4,1.4,1,1.8,1.8c0.5,0.8,0.8,1.7,1,2.6c0.2,1,0.3,2.1,0.3,3.1v1.3H825.1z M832.5,376.2c0.1-1.4-0.2-2.8-0.8-4.1
		c-0.5-0.9-1.5-1.6-2.6-1.6c-0.7,0-1.3,0.2-1.8,0.6s-0.9,0.9-1.1,1.5c-0.3,0.6-0.6,1.3-0.7,1.9c-0.1,0.5-0.2,1.1-0.2,1.8
		L832.5,376.2z"/>
	<path class="st4" d="M842.1,384.4c0,0.4-0.1,0.9-0.5,1.3c-0.3,0.3-0.8,0.5-1.3,0.5s-0.9-0.2-1.1-0.5c-0.3-0.3-0.5-0.7-0.5-1.3
		c0-0.4,0.1-0.8,0.5-1.1c0.3-0.3,0.7-0.5,1.1-0.5s0.9,0.2,1.3,0.5C841.9,383.6,842.1,384,842.1,384.4z"/>
	<path class="st4" d="M572.7,426.6v-11.4h-9.9v11.4h-2.5v-24h2.5v10.5h9.9v-10.5h2.5v24H572.7z"/>
	<path class="st4" d="M583.5,429.1c0.1,1.5-0.3,2.8-1,4.1c-0.8,1-2.2,1.7-3.5,1.6c-0.2,0-0.5,0-0.7,0s-0.5-0.1-0.8-0.1l0.2-2
		c0.3,0.1,0.7,0.2,1,0.2c0.5,0,0.8-0.1,1.1-0.3c0.3-0.2,0.6-0.5,0.7-0.8c0.2-0.4,0.3-0.7,0.3-1.1c0.1-0.5,0.1-0.9,0.1-1.5v-19.1h2.4
		L583.5,429.1z M583.9,404.6c0,0.4-0.1,0.8-0.5,1.1c-0.3,0.3-0.7,0.4-1.1,0.4s-0.8-0.2-1.1-0.4c-0.3-0.3-0.5-0.7-0.5-1.1
		s0.1-0.8,0.5-1.1c0.2-0.3,0.7-0.5,1.1-0.5s0.8,0.2,1.1,0.5C583.8,403.7,583.9,404.2,583.9,404.6L583.9,404.6z"/>
	<path class="st4" d="M598.8,418.7c0,0.8,0.1,1.7,0.2,2.6c0.1,0.7,0.3,1.4,0.8,2.1c0.3,0.5,0.7,1,1.3,1.4c0.6,0.3,1.1,0.5,1.8,0.5
		c0.8,0,1.6-0.2,2.1-0.7c0.6-0.5,1-1.1,1.3-1.8l1.8,0.9c-0.5,0.9-1.1,1.9-1.9,2.6c-0.9,0.7-2.1,1-3.3,1c-1.3,0.1-2.5-0.3-3.4-1.1
		c-0.9-0.8-1.6-2-1.7-3.2c-0.1,1.1-0.8,2.3-1.7,3.1c-1,0.8-2.3,1.3-3.5,1.1c-0.6,0-1.1-0.1-1.6-0.2c-0.6-0.2-1-0.5-1.4-0.8
		c-0.5-0.4-0.8-0.9-1-1.6c-0.3-0.7-0.5-1.5-0.3-2.3c0-0.9,0.2-1.9,0.7-2.7c0.5-0.6,1-1.3,1.7-1.7c0.7-0.4,1.5-0.6,2.3-0.8
		c0.8-0.1,1.6-0.2,2.4-0.2h1.4v-1.1c0.1-1.3-0.2-2.4-0.9-3.4c-0.5-0.7-1.4-1.3-2.4-1.3c-0.7,0-1.4,0.2-1.9,0.5
		c-0.6,0.3-1.1,0.7-1.5,1.3l-1.3-1.4c0.6-0.7,1.4-1.4,2.2-1.8s1.7-0.6,2.7-0.6c1.1-0.1,2.3,0.3,3.1,1s1.3,1.8,1.4,2.8
		c0.3-1,0.9-2.1,1.7-2.8s1.9-1,3.1-1c0.9,0,1.9,0.2,2.7,0.6s1.4,1,1.8,1.8c0.5,0.8,0.8,1.7,1,2.6c0.2,1,0.3,2.1,0.3,3.1v1.4H599v0.1
		H598.8z M596.5,418.6H595c-0.6,0-1.1,0-1.7,0.1c-0.6,0.1-1,0.3-1.6,0.5c-0.5,0.2-0.9,0.6-1.1,1c-0.3,0.5-0.5,1.1-0.5,1.7
		s0.1,1,0.2,1.5c0.1,0.3,0.3,0.7,0.6,0.9c0.2,0.2,0.6,0.4,0.8,0.5c0.3,0.1,0.7,0.2,1,0.2c0.6,0,1.3-0.2,1.7-0.5
		c0.5-0.3,0.9-0.8,1.1-1.4c0.3-0.6,0.5-1.1,0.6-1.8c0.1-0.6,0.2-1.4,0.2-2L596.5,418.6z M606.1,416.8c0.1-1.4-0.2-2.8-0.8-4.1
		c-0.5-0.9-1.5-1.6-2.6-1.6c-0.7,0-1.3,0.2-1.7,0.6c-0.5,0.4-0.9,0.9-1.1,1.5c-0.3,0.6-0.6,1.3-0.7,1.9c-0.1,0.5-0.2,1.1-0.2,1.8
		h7.2v-0.1H606.1z"/>
	<path class="st4" d="M612.8,426.6V401h2.4v25.6H612.8z"/>
	<path class="st4" d="M633.4,418.2c0,1.1-0.1,2.4-0.3,3.5c-0.2,0.9-0.6,2-1.1,2.8c-0.5,0.7-1,1.4-1.8,1.9c-0.7,0.4-1.6,0.6-2.5,0.6
		c-1,0-2.1-0.3-2.7-0.9c-0.8-0.6-1.3-1.6-1.6-2.5l0,0v11H621v-24.9h2.3v3h0.1c0.2-0.9,0.8-1.9,1.5-2.6c0.8-0.7,1.8-1,2.8-1
		c0.9,0,1.7,0.2,2.4,0.6c0.8,0.5,1.4,1.1,1.8,1.9c0.6,0.8,0.9,1.9,1.1,2.8C633.2,415.7,633.4,417,633.4,418.2z M630.8,418.1
		c0-0.9-0.1-1.8-0.2-2.7c-0.1-0.7-0.3-1.6-0.7-2.2c-0.2-0.5-0.7-1-1.1-1.5c-1-0.7-2.4-0.7-3.4,0c-0.6,0.4-0.9,0.9-1.3,1.5
		c-0.3,0.7-0.6,1.5-0.7,2.2c-0.1,0.9-0.2,1.8-0.2,2.7c0,0.9,0.1,1.9,0.2,2.8c0.1,0.7,0.3,1.5,0.7,2.2c0.2,0.5,0.7,1,1.3,1.5
		c0.5,0.3,1,0.5,1.7,0.5c0.6,0,1.3-0.2,1.7-0.5c0.5-0.4,0.9-0.9,1.1-1.5c0.3-0.7,0.6-1.5,0.7-2.2C630.8,420,630.8,419.1,630.8,418.1
		z"/>
	<path class="st4" d="M653.8,426.6v-3h-0.1c-0.2,0.9-0.8,1.8-1.5,2.5c-0.8,0.7-1.8,1.1-2.8,1c-0.9,0-1.7-0.2-2.4-0.6
		c-0.8-0.5-1.4-1.1-1.8-1.9c-0.6-0.8-0.9-1.9-1.1-2.8c-0.2-1.1-0.5-2.4-0.3-3.7c0-1.3,0.1-2.4,0.3-3.5c0.2-0.9,0.6-1.9,1.1-2.8
		c0.5-0.7,1-1.4,1.8-1.9c0.7-0.4,1.6-0.6,2.5-0.6c1,0,2.1,0.3,2.7,0.9c0.8,0.6,1.3,1.5,1.5,2.5h0.1V401h2.4v25.6H653.8L653.8,426.6z
		 M653.8,418.1c0-0.9-0.1-1.9-0.2-2.8c-0.1-0.7-0.3-1.5-0.7-2.2c-0.2-0.5-0.7-1-1.3-1.5c-1-0.7-2.4-0.7-3.4,0
		c-0.5,0.4-0.9,0.9-1.1,1.5c-0.3,0.7-0.6,1.5-0.7,2.2c-0.1,0.9-0.2,1.9-0.2,2.8s0.1,1.8,0.2,2.7c0.1,0.7,0.3,1.5,0.7,2.2
		c0.2,0.5,0.7,1,1.1,1.5c0.5,0.3,1,0.5,1.7,0.5c0.6,0,1.3-0.2,1.7-0.5c0.6-0.4,0.9-0.9,1.3-1.5c0.3-0.7,0.6-1.5,0.7-2.2
		C653.6,420,653.6,419.1,653.8,418.1z"/>
	<path class="st4" d="M663,418.7c0,0.8,0.1,1.7,0.2,2.6c0.1,0.7,0.3,1.4,0.8,2.1c0.3,0.5,0.7,1,1.3,1.4c0.6,0.3,1.1,0.5,1.8,0.5
		c0.8,0,1.6-0.2,2.2-0.7s1-1.1,1.3-1.8l1.8,0.9c-0.5,0.9-1.1,1.9-1.9,2.6c-0.9,0.7-2.1,1-3.3,1c-1.9,0.1-3.8-0.8-4.7-2.4
		c-1.3-2-1.8-4.3-1.7-6.6c0-1.3,0.1-2.4,0.5-3.7c0.2-1,0.7-2,1.3-2.8c0.5-0.7,1.1-1.4,2.1-1.9c1.7-0.8,3.6-0.8,5.4,0
		c0.8,0.4,1.4,1,1.8,1.8c0.5,0.8,0.8,1.7,1,2.6c0.2,1,0.3,2.1,0.3,3.1v1.1H663V418.7z M670.3,416.8c0.1-1.4-0.2-2.8-0.8-4.1
		c-0.5-0.9-1.5-1.6-2.6-1.6c-0.7,0-1.3,0.2-1.8,0.6s-0.9,0.9-1.1,1.5c-0.3,0.6-0.6,1.3-0.7,1.9c-0.1,0.5-0.2,1.1-0.2,1.8h7.3v-0.1
		H670.3z"/>
	<path class="st4" d="M681.2,410.3c0.8-0.7,1.8-1,3-1c0.6,0,1.1,0.1,1.7,0.3c0.5,0.2,0.8,0.5,1.1,0.8s0.6,0.7,0.8,1.3
		s0.3,0.9,0.5,1.5h0.1c0.1-0.5,0.3-0.9,0.6-1.5c0.2-0.4,0.6-0.8,1-1.3c0.5-0.3,0.9-0.6,1.4-0.8c0.6-0.2,1.1-0.3,1.7-0.3
		c0.8,0,1.6,0.2,2.3,0.5c0.6,0.4,1.1,0.9,1.5,1.6c0.3,0.6,0.6,1.4,0.7,2.1c0.1,0.7,0.1,1.6,0.1,2.3v10.9h-2.4v-10.9
		c0-0.5,0-1-0.1-1.6s-0.2-1-0.3-1.5c-0.2-0.4-0.5-0.7-0.9-1c-0.5-0.3-1-0.4-1.5-0.4c-0.6,0-1.1,0.2-1.6,0.4
		c-0.5,0.3-0.9,0.7-1.1,1.3c-0.3,0.6-0.6,1.1-0.7,1.9c-0.1,0.7-0.2,1.5-0.2,2.2v9.7h-2.4v-11c0-0.5,0-1-0.1-1.6c0-0.5-0.2-1-0.3-1.5
		c-0.1-0.4-0.5-0.7-0.8-1c-0.5-0.3-0.9-0.4-1.5-0.4s-1.1,0.1-1.6,0.4s-0.9,0.7-1.1,1.3c-0.3,0.6-0.6,1.1-0.8,1.9
		c-0.1,0.7-0.2,1.5-0.2,2.2v9.7h-2.4v-12.6c0-0.3,0-0.7,0-1.1s0-0.8,0-1.3c0-0.4,0-0.7,0-1s0-0.6,0-0.7h2.4c0,0.4,0.1,0.9,0.1,1.6
		s0,1.1,0,1.7h-0.5C679.9,412.1,680.4,411,681.2,410.3z"/>
	<path class="st4" d="M714.1,410.3c0.8-0.7,1.8-1,3-1s2.2,0.4,2.8,1.1c0.3,0.3,0.6,0.7,0.8,1.3s0.3,0.9,0.5,1.5h0.1
		c0.1-0.5,0.3-0.9,0.6-1.5c0.2-0.4,0.6-0.8,1-1.3c0.5-0.3,0.9-0.6,1.4-0.8c0.6-0.2,1.1-0.3,1.7-0.3c0.8,0,1.6,0.2,2.3,0.5
		c0.6,0.4,1,0.9,1.4,1.5c0.3,0.6,0.6,1.4,0.7,2.1s0.1,1.6,0.1,2.3v10.9h-2.4v-10.7c0-0.5,0-1-0.1-1.6s-0.2-1-0.3-1.5
		c-0.2-0.4-0.5-0.7-0.9-1c-0.5-0.3-1-0.4-1.5-0.4c-0.6,0-1.1,0.2-1.6,0.4c-0.5,0.3-0.9,0.7-1.1,1.3c-0.3,0.6-0.6,1.1-0.7,1.9
		c-0.1,0.7-0.2,1.5-0.2,2.2v9.7h-2.4v-11c0-0.5,0-1-0.1-1.6c0-0.5-0.2-1-0.3-1.5c-0.1-0.4-0.5-0.7-0.8-1c-0.5-0.3-0.9-0.4-1.5-0.4
		s-1.1,0.1-1.6,0.4s-0.9,0.7-1.1,1.3c-0.3,0.6-0.6,1.1-0.8,1.9c-0.1,0.7-0.2,1.5-0.2,2.2v9.7h-2.4v-12.6c0-0.3,0-0.7,0-1.1
		s0-0.8,0-1.3c0-0.4,0-0.7,0-1s0-0.6,0-0.7h2.4c0,0.4,0.1,0.9,0.1,1.6s0,1.1,0,1.7h0.1C712.9,412.1,713.4,411,714.1,410.3z"/>
	<path class="st4" d="M737.3,418.7c0,0.8,0.1,1.7,0.2,2.6c0.1,0.7,0.3,1.4,0.8,2.1c0.3,0.5,0.7,1,1.3,1.4s1.1,0.5,1.8,0.5
		c0.8,0,1.6-0.2,2.2-0.7s1-1.1,1.3-1.8l1.8,0.9c-0.5,0.9-1,1.9-1.9,2.6s-2.1,1-3.3,1c-1.9,0.1-3.8-0.8-4.7-2.4
		c-1.3-2-1.8-4.3-1.7-6.6c0-1.3,0.1-2.4,0.5-3.7c0.2-1,0.7-2,1.3-2.8c0.5-0.7,1.1-1.4,2.1-1.9c0.8-0.4,1.7-0.6,2.7-0.6
		c0.9,0,1.9,0.2,2.7,0.6s1.4,1,1.8,1.8c0.5,0.8,0.8,1.7,1,2.6c0.2,1,0.3,2.1,0.3,3.1v1.3H737.3L737.3,418.7L737.3,418.7z
		 M744.6,416.8c0.1-1.4-0.2-2.8-0.8-4.1c-0.5-0.9-1.5-1.6-2.6-1.6c-0.7,0-1.3,0.2-1.8,0.6s-0.9,0.9-1.1,1.5
		c-0.3,0.6-0.6,1.3-0.7,1.9c-0.1,0.5-0.2,1.1-0.2,1.8h7.3v-0.1H744.6z"/>
	<path class="st4" d="M760.4,426.6v-3h-0.1c-0.2,0.9-0.8,1.8-1.5,2.5c-0.8,0.7-1.8,1.1-2.8,1c-0.9,0-1.7-0.2-2.5-0.6
		c-0.8-0.5-1.4-1.1-1.8-1.9c-0.6-0.9-0.9-1.9-1.1-2.8c-0.2-1.1-0.3-2.4-0.3-3.7s0.1-2.4,0.3-3.5c0.2-0.9,0.6-1.9,1-2.8
		c0.5-0.7,1-1.4,1.8-1.9c0.8-0.4,1.6-0.7,2.5-0.7c1,0,2.1,0.3,2.7,0.9c0.8,0.6,1.4,1.5,1.5,2.5h0.1v-11.7h2.4v25.6h-2.2L760.4,426.6
		L760.4,426.6z M760.4,418.1c0-0.9-0.1-1.9-0.2-2.8c-0.1-0.7-0.3-1.5-0.7-2.2c-0.2-0.5-0.7-1-1.3-1.5c-1-0.7-2.4-0.7-3.4,0
		c-0.5,0.4-0.9,0.9-1.1,1.5c-0.3,0.7-0.6,1.5-0.7,2.2c-0.1,0.9-0.2,1.9-0.2,2.8s0.1,1.8,0.2,2.7c0.1,0.7,0.3,1.5,0.7,2.2
		c0.2,0.5,0.7,1,1.1,1.5c1,0.7,2.4,0.7,3.4,0c0.6-0.4,0.9-0.9,1.3-1.5c0.3-0.7,0.6-1.5,0.7-2.2C760.4,420,760.4,419.1,760.4,418.1z"
		/>
	<path class="st4" d="M782.8,426.6c0-0.2,0-0.4,0-0.6s0-0.5,0-0.8s0-0.6,0-0.9v-0.7h-0.1c-0.6,2.4-2.1,3.5-4.3,3.5
		c-0.6,0-1-0.1-1.5-0.3c-0.6-0.2-1-0.5-1.4-0.9c-0.5-0.4-0.8-0.9-1-1.6c-0.3-0.7-0.5-1.5-0.3-2.3c0-1,0.2-2.1,0.7-2.9
		c0.5-0.7,1-1.4,1.7-1.8s1.5-0.7,2.3-0.8c0.8-0.1,1.6-0.2,2.4-0.2h1.4v-0.9c0.1-1.1-0.2-2.3-0.9-3.2c-0.6-0.7-1.5-1-2.4-1
		c-0.7,0-1.4,0.2-1.9,0.5s-1.1,0.7-1.5,1.3l-1.3-1.4c0.6-0.7,1.4-1.4,2.2-1.8s1.7-0.6,2.7-0.6c1.6-0.1,3.2,0.5,4.1,1.7
		c0.9,1.6,1.4,3.3,1.1,5v7c0,0.2,0,0.5,0,0.8s0,0.6,0,1s0,0.6,0,0.9s0,0.5,0.1,0.7L782.8,426.6z M782.6,418h-1.5
		c-0.6,0-1.1,0-1.7,0.1c-0.6,0.1-1,0.3-1.6,0.5c-0.5,0.3-0.9,0.7-1.1,1.1c-0.3,0.6-0.5,1.3-0.5,2c-0.1,0.9,0.2,1.9,0.8,2.5
		c0.9,0.9,2.5,1,3.5,0.2l0,0c0.5-0.4,0.9-0.9,1.1-1.5c0.3-0.6,0.5-1.3,0.6-2c0.1-0.6,0.2-1.4,0.2-2.1L782.6,418z"/>
	<path class="st4" d="M794.9,426.9c-0.3,0.1-0.8,0.1-1.1,0.1c-1,0.1-2.2-0.4-2.6-1.3c-0.6-1-0.8-2.1-0.8-3.2v-11H788v-1.9h2.3v-4.7
		h2.4v4.7h3.2v1.9h-3.2V422c-0.1,0.7,0.1,1.6,0.5,2.2c0.3,0.4,0.8,0.7,1.4,0.7c0.2,0,0.5,0,0.7-0.1c0.2,0,0.5-0.1,0.6-0.2l0.1,1.8
		C795.5,426.7,795.2,426.8,794.9,426.9z"/>
	<path class="st4" d="M812,402.5c-0.3-0.1-0.7-0.2-1-0.2c-0.5,0-0.9,0.1-1.3,0.3c-0.3,0.2-0.6,0.5-0.8,0.8c-0.2,0.4-0.3,0.8-0.3,1.3
		c-0.1,0.5-0.1,0.9-0.1,1.5v3.5h3.1v1.9h-3.1v15h-2.4v-15h-2.5v-1.9h2.5v-3.5c-0.1-1.5,0.3-2.9,1.1-4.2c0.8-1,2.2-1.7,3.5-1.6
		c0.5,0,1,0.1,1.5,0.2L812,402.5z"/>
	<path class="st4" d="M822.1,426.6c0-0.2,0-0.4,0-0.6s0-0.5,0-0.8s0-0.6,0-0.9v-0.7H822c-0.6,2.4-2.1,3.5-4.3,3.5
		c-0.6,0-1-0.1-1.5-0.3c-0.6-0.2-1-0.5-1.4-0.9c-0.5-0.4-0.8-0.9-1-1.6s-0.5-1.5-0.3-2.3c0-1,0.2-2.1,0.7-2.9c0.5-0.7,1-1.4,1.7-1.8
		s1.5-0.7,2.3-0.8c0.8-0.1,1.6-0.2,2.4-0.2h1.4v-0.9c0.1-1.1-0.2-2.3-0.9-3.2c-0.6-0.7-1.5-1-2.4-1c-0.7,0-1.4,0.2-1.9,0.5
		s-1.1,0.7-1.5,1.3l-1.3-1.4c0.6-0.7,1.3-1.4,2.2-1.8c0.8-0.4,1.7-0.5,2.6-0.6c1.6-0.1,3.2,0.5,4.1,1.7c0.9,1.6,1.4,3.3,1.3,5v7
		c0,0.2,0,0.5,0,0.8s0,0.6,0,1s0,0.6,0,0.9s0,0.5,0.1,0.7L822.1,426.6z M821.8,418h-1.5c-0.6,0-1.1,0-1.7,0.1
		c-0.6,0.1-1,0.3-1.6,0.5c-0.5,0.3-0.9,0.7-1.1,1.1c-0.3,0.6-0.5,1.3-0.5,2c-0.1,0.9,0.2,1.9,0.8,2.5c0.9,0.9,2.5,1,3.5,0.2l0,0
		c0.5-0.4,0.9-0.9,1.1-1.5c0.3-0.6,0.5-1.3,0.6-2c0.1-0.6,0.2-1.4,0.2-2.1L821.8,418z"/>
	<path class="st4" d="M838.5,426.6v-10.9c0-0.5,0-1-0.1-1.6c0-0.5-0.2-1-0.3-1.5c-0.2-0.4-0.5-0.7-0.9-1c-0.5-0.3-0.9-0.4-1.5-0.4
		s-1.1,0.1-1.6,0.4s-0.9,0.7-1.3,1.3s-0.6,1.1-0.8,1.9c-0.2,0.7-0.2,1.5-0.2,2.2v9.7h-2.4v-12.6c0-0.3,0-0.7,0-1.1s0-0.8,0-1.3
		c0-0.4,0-0.7,0-1s0-0.6,0-0.7h2.3c0,0.4,0.1,0.9,0.1,1.6s0,1.1,0,1.7h0.1c0.3-1,0.9-2,1.7-2.7c1.5-1.3,3.6-1.5,5.2-0.5
		c0.6,0.4,1,0.9,1.4,1.5c0.3,0.6,0.6,1.4,0.7,2.1c0.1,0.7,0.1,1.6,0.2,2.3v10.9L838.5,426.6z"/>
	<path class="st4" d="M857.8,426.4c0,1.1-0.1,2.2-0.3,3.3c-0.2,0.9-0.6,1.8-1,2.6c-0.5,0.7-1.1,1.4-1.9,1.8
		c-0.9,0.4-2.1,0.7-3.1,0.6c-1.1,0-2.3-0.3-3.3-0.7c-1-0.5-1.8-1.3-2.5-2.1l1.6-1.6c0.5,0.7,1.1,1.3,1.8,1.7
		c0.8,0.4,1.6,0.6,2.5,0.6c1.4,0.1,2.6-0.6,3.2-1.8c0.3-0.6,0.6-1.4,0.6-2c0.1-0.8,0.2-1.7,0.2-2.5v-2.8h-0.1
		c-0.2,0.9-0.8,1.8-1.5,2.5c-0.8,0.7-1.8,1.1-2.8,1c-0.9,0-1.7-0.2-2.4-0.6c-0.8-0.5-1.4-1.1-1.8-1.9c-0.6-0.8-0.9-1.9-1.1-2.8
		c-0.2-1.1-0.5-2.4-0.3-3.7c0-1.3,0.1-2.4,0.3-3.5c0.2-0.9,0.6-1.9,1.1-2.8c0.5-0.7,1-1.4,1.8-1.9c0.7-0.4,1.6-0.6,2.5-0.6
		c1,0,2.1,0.3,2.8,0.9c0.8,0.6,1.4,1.5,1.6,2.5h0.1v-2.8h2.3L857.8,426.4z M855.5,418.1c0-0.9-0.1-1.9-0.2-2.7
		c-0.1-0.7-0.3-1.6-0.7-2.2c-0.2-0.5-0.7-1-1.3-1.5c-1-0.7-2.4-0.7-3.4,0c-0.5,0.4-0.9,0.9-1.1,1.5c-0.3,0.7-0.6,1.5-0.7,2.2
		c-0.1,0.9-0.2,1.9-0.2,2.8s0.1,1.8,0.2,2.7c0.1,0.7,0.3,1.5,0.7,2.2c0.2,0.5,0.7,1,1.1,1.5c0.5,0.3,1,0.5,1.7,0.5
		c0.6,0,1.3-0.2,1.7-0.5c0.6-0.4,0.9-0.9,1.3-1.5c0.3-0.7,0.6-1.5,0.7-2.2C855.4,420,855.5,419.1,855.5,418.1L855.5,418.1z"/>
	<path class="st4" d="M864.7,418.7c0,0.8,0.1,1.7,0.2,2.6c0.1,0.7,0.3,1.4,0.8,2.1c0.3,0.5,0.7,1,1.3,1.4s1.1,0.5,1.8,0.5
		c0.8,0,1.6-0.2,2.2-0.7s1-1.1,1.3-1.8l1.8,0.9c-0.5,0.9-1.1,1.9-1.9,2.6c-0.9,0.7-2.1,1-3.3,1c-1.9,0.1-3.8-0.8-4.7-2.4
		c-1.3-2-1.8-4.3-1.7-6.6c0-1.3,0.1-2.4,0.5-3.7c0.2-1,0.7-2,1.3-2.8c0.5-0.7,1.1-1.4,2.1-1.9c1.7-0.8,3.6-0.8,5.4,0
		c0.8,0.4,1.4,1,1.8,1.8c0.5,0.8,0.8,1.7,1,2.6c0.2,1,0.3,2.1,0.3,3.1v1.1h-10.2V418.7z M872.1,416.8c0.1-1.4-0.2-2.8-0.8-4.1
		c-0.5-0.9-1.5-1.6-2.6-1.6c-0.7,0-1.3,0.2-1.8,0.6s-0.9,0.9-1.1,1.5c-0.3,0.6-0.6,1.3-0.7,1.9c-0.1,0.5-0.2,1.1-0.2,1.8h7.3v-0.1
		H872.1z"/>
	<path class="st4" d="M894.7,426.6v-3h-0.1c-0.2,0.9-0.8,1.8-1.5,2.5c-0.8,0.7-1.8,1.1-2.8,1c-0.9,0-1.7-0.2-2.5-0.6
		c-0.8-0.5-1.4-1.1-1.8-1.9c-0.6-0.9-0.9-1.9-1.1-2.8c-0.2-1.1-0.5-2.4-0.3-3.7c0-1.3,0.1-2.4,0.3-3.5c0.2-0.9,0.6-1.9,1.1-2.8
		c0.5-0.7,1-1.4,1.8-1.9c0.7-0.4,1.6-0.6,2.5-0.6c1,0,2.1,0.3,2.7,0.9c0.8,0.6,1.3,1.5,1.5,2.5h0.1V401h2.4v25.6H894.7L894.7,426.6z
		 M894.7,418.1c0-0.9-0.1-1.9-0.2-2.8c-0.1-0.7-0.3-1.5-0.7-2.2c-0.2-0.5-0.7-1-1.3-1.5c-1-0.7-2.4-0.7-3.4,0
		c-0.5,0.4-0.9,0.9-1.1,1.5c-0.3,0.7-0.6,1.5-0.7,2.2c-0.1,0.9-0.2,1.9-0.2,2.8s0.1,1.8,0.2,2.7c0.1,0.7,0.3,1.5,0.7,2.2
		c0.2,0.5,0.7,1,1.1,1.5c0.5,0.3,1,0.5,1.7,0.5c0.6,0,1.3-0.2,1.7-0.5c0.6-0.4,0.9-0.9,1.3-1.5c0.3-0.7,0.6-1.5,0.7-2.2
		C894.6,420,894.7,419.1,894.7,418.1z"/>
	<path class="st4" d="M903.9,418.7c0,0.8,0.1,1.7,0.2,2.6c0.1,0.7,0.3,1.4,0.8,2.1c0.3,0.5,0.7,1,1.3,1.4c0.6,0.3,1.1,0.5,1.8,0.5
		c0.8,0,1.6-0.2,2.2-0.7s1-1.1,1.3-1.8l1.8,0.9c-0.5,0.9-1.1,1.9-1.9,2.6c-0.9,0.7-2.1,1-3.3,1c-1.9,0.1-3.8-0.8-4.7-2.4
		c-1.3-2-1.8-4.3-1.7-6.6c0-1.3,0.1-2.4,0.5-3.7c0.2-1,0.7-2,1.3-2.8c0.5-0.7,1.1-1.4,2.1-1.9c1.7-0.8,3.6-0.8,5.4,0
		c0.8,0.4,1.4,1,1.8,1.8c0.5,0.8,0.8,1.7,1,2.6c0.2,1,0.3,2.1,0.3,3.1v1.1h-10.2V418.7z M911.4,416.8c0.1-1.4-0.2-2.8-0.8-4.1
		c-0.5-0.9-1.5-1.6-2.6-1.6c-0.7,0-1.3,0.2-1.8,0.6s-0.9,0.9-1.1,1.5c-0.3,0.6-0.6,1.3-0.7,1.9c-0.1,0.5-0.2,1.1-0.2,1.8h7.3v-0.1
		H911.4z"/>
	<path class="st4" d="M571.5,467c0,1.1-0.1,2.2-0.3,3.3c-0.1,0.9-0.6,1.8-1,2.6c-0.5,0.7-1.1,1.4-1.9,1.8c-0.9,0.4-2.1,0.7-3.1,0.6
		c-1.1,0-2.3-0.2-3.3-0.7s-1.8-1.3-2.5-2.1l1.6-1.6c0.5,0.7,1.1,1.3,1.8,1.7c0.8,0.4,1.6,0.6,2.5,0.6c1.4,0.1,2.6-0.6,3.2-1.8
		c0.3-0.6,0.6-1.4,0.6-2c0.1-0.8,0.2-1.7,0.2-2.5v-2.8l0,0c-0.2,0.9-0.8,1.8-1.5,2.5c-0.8,0.7-1.8,1-2.8,1c-0.9,0-1.7-0.2-2.5-0.6
		c-0.8-0.5-1.4-1.1-1.8-1.9c-0.6-0.8-0.9-1.9-1.1-2.8c-0.2-1.1-0.3-2.4-0.3-3.7s0.1-2.4,0.3-3.5c0.2-0.9,0.6-1.9,1.1-2.8
		c0.5-0.7,1-1.4,1.8-1.9c0.7-0.4,1.6-0.6,2.5-0.6c1,0,2.1,0.3,2.8,0.9c0.8,0.6,1.4,1.5,1.6,2.5l0,0v-2.8h2.3L571.5,467z
		 M569.2,458.8c0-0.9-0.1-1.9-0.2-2.7c-0.1-0.7-0.3-1.6-0.7-2.2c-0.2-0.6-0.7-1-1.3-1.5c-0.5-0.3-1-0.5-1.7-0.5
		c-0.6,0-1.3,0.2-1.7,0.5c-0.5,0.4-0.9,0.9-1.1,1.5c-0.3,0.7-0.6,1.5-0.7,2.2c-0.1,0.9-0.2,1.9-0.2,2.8s0.1,1.8,0.2,2.7
		c0.1,0.7,0.3,1.6,0.7,2.2c0.2,0.5,0.7,1,1.1,1.5c0.5,0.3,1,0.5,1.7,0.5c0.6,0,1.3-0.2,1.7-0.5c0.5-0.4,0.9-0.9,1.1-1.5
		c0.3-0.7,0.6-1.5,0.7-2.2C569.1,460.7,569.2,459.8,569.2,458.8z"/>
	<path class="st4" d="M588.7,458.8c0,1.3-0.1,2.4-0.5,3.7c-0.2,1-0.7,2-1.3,2.8c-0.5,0.7-1.1,1.4-1.9,1.9c-0.8,0.4-1.7,0.6-2.6,0.6
		c-0.9,0-1.8-0.2-2.6-0.6s-1.5-1-1.9-1.9c-0.6-0.8-1-1.8-1.3-2.8c-0.3-1.1-0.5-2.4-0.5-3.7c0-1.3,0.1-2.5,0.5-3.7
		c0.2-1,0.7-2,1.3-2.8c0.5-0.7,1.1-1.4,2.1-1.9c1.7-0.8,3.6-0.8,5.4,0c0.8,0.4,1.5,1,1.9,1.9c0.6,0.8,1,1.9,1.3,2.8
		C588.6,456.4,588.7,457.6,588.7,458.8z M586.3,458.8c0-0.9-0.1-1.9-0.2-2.8c-0.1-0.7-0.3-1.5-0.7-2.2c-0.2-0.5-0.7-1-1.1-1.5
		c-0.5-0.3-1-0.5-1.7-0.5c-0.6,0-1.3,0.2-1.7,0.5c-0.6,0.4-0.9,0.9-1.1,1.5c-0.3,0.7-0.6,1.5-0.7,2.2c-0.1,0.9-0.2,1.9-0.2,2.8
		s0.1,1.9,0.2,2.7c0.1,0.7,0.3,1.5,0.7,2.2c0.2,0.5,0.7,1,1.1,1.5c0.5,0.3,1.1,0.5,1.7,0.5s1.3-0.2,1.7-0.5c0.5-0.4,0.9-0.9,1.1-1.5
		c0.3-0.7,0.6-1.5,0.7-2.2C586.2,460.6,586.3,459.7,586.3,458.8z"/>
	<path class="st4" d="M602.2,467.2v-3l0,0c-0.2,0.9-0.8,1.8-1.5,2.5c-0.8,0.7-1.8,1-2.8,1c-0.9,0-1.7-0.2-2.5-0.6
		c-0.8-0.5-1.4-1.1-1.8-1.9c-0.6-0.9-0.9-1.9-1.1-2.8c-0.2-1.1-0.3-2.4-0.3-3.7s0.1-2.4,0.3-3.5c0.2-0.9,0.6-1.9,1-2.8
		c0.5-0.7,1-1.4,1.8-1.9c0.7-0.4,1.6-0.6,2.5-0.6c1,0,2.1,0.3,2.7,0.9c0.8,0.6,1.4,1.5,1.5,2.5h0.1v-11.7h2.4v25.6H602.2z
		 M602.2,458.8c0-0.9-0.1-1.9-0.2-2.8c-0.1-0.7-0.3-1.5-0.7-2.2c-0.2-0.5-0.7-1-1.3-1.5c-1-0.7-2.4-0.7-3.4,0
		c-0.5,0.4-0.9,0.9-1.1,1.5c-0.3,0.7-0.6,1.5-0.7,2.2c-0.1,0.9-0.2,1.9-0.2,2.8s0.1,1.8,0.2,2.7c0.1,0.7,0.3,1.6,0.7,2.2
		c0.2,0.5,0.7,1,1.1,1.5c1,0.7,2.4,0.7,3.4,0c0.6-0.4,0.9-0.9,1.3-1.5c0.3-0.7,0.6-1.5,0.7-2.2C602.2,460.6,602.2,459.8,602.2,458.8
		L602.2,458.8z"/>
	<path class="st4" d="M611.6,459.4c0,0.8,0.1,1.7,0.2,2.6c0.1,0.7,0.3,1.4,0.8,2.1c0.3,0.5,0.7,1,1.3,1.4s1.1,0.5,1.8,0.5
		c0.8,0,1.6-0.2,2.2-0.7c0.6-0.5,1-1.1,1.3-1.8l1.8,0.9c-0.5,0.9-1.1,1.9-1.9,2.6c-0.9,0.7-2.1,1-3.3,1c-1.9,0-3.8-0.8-4.7-2.4
		c-1.3-2-1.8-4.3-1.7-6.6c0-1.3,0.1-2.4,0.5-3.7c0.2-1,0.7-2,1.3-2.8c0.5-0.7,1.1-1.4,2.1-1.9c1.7-0.8,3.6-0.8,5.4,0
		c0.8,0.4,1.4,1,1.8,1.8c0.5,0.8,0.8,1.7,1,2.6c0.2,1,0.3,2.1,0.3,3.1v1.1h-10.2V459.4z M618.9,457.5c0.1-1.4-0.2-2.8-0.8-4.1
		c-0.5-0.9-1.5-1.6-2.6-1.6c-0.7,0-1.3,0.2-1.8,0.6s-0.9,0.9-1.1,1.5c-0.3,0.6-0.6,1.3-0.7,1.9c-0.1,0.5-0.2,1.1-0.2,1.8h7.3v-0.1
		H618.9z"/>
	<path class="st4" d="M635.3,445.3c0,0.4-0.1,0.8-0.5,1.1c-0.3,0.3-0.7,0.4-1.1,0.4s-0.9-0.2-1.1-0.4c-0.3-0.3-0.5-0.7-0.5-1.1
		s0.1-0.8,0.5-1.1c0.2-0.3,0.7-0.5,1.1-0.5s0.8,0.2,1.1,0.5C635.1,444.4,635.3,444.9,635.3,445.3z M632.4,467.2v-16.8h2.4v16.8
		H632.4z"/>
	<path class="st4" d="M649.8,467.2v-10.9c0-0.5,0-1-0.1-1.6c0-0.5-0.2-1-0.3-1.5c-0.2-0.4-0.5-0.7-0.9-1c-0.5-0.3-0.9-0.4-1.5-0.4
		s-1.1,0.1-1.6,0.4s-0.9,0.7-1.1,1.3c-0.3,0.5-0.6,1.1-0.8,1.9c-0.2,0.7-0.2,1.5-0.2,2.2v9.7h-2.4v-12.6c0-0.3,0-0.7,0-1.1
		s0-0.8,0-1.3c0-0.4,0-0.7,0-1s0-0.6,0-0.7h2.3c0,0.4,0.1,0.9,0.1,1.6c0,0.6,0,1.1,0,1.8h0.1c0.2-1,0.8-2,1.6-2.8c0.8-0.7,1.8-1,3-1
		c0.8,0,1.7,0.2,2.4,0.5c0.6,0.4,1,0.9,1.4,1.5c0.3,0.6,0.6,1.4,0.7,2.1s0.1,1.6,0.1,2.3v10.9L649.8,467.2z"/>
	<path class="st4" d="M669,467c0,1.1-0.1,2.2-0.3,3.3c-0.2,0.9-0.6,1.8-1,2.6c-0.5,0.7-1.1,1.4-1.9,1.8c-0.9,0.4-2.1,0.7-3.1,0.6
		c-2.4,0-4.6-1-5.8-2.8l1.6-1.6c0.5,0.7,1.1,1.3,1.8,1.7c0.8,0.4,1.6,0.6,2.5,0.6c0.7,0,1.4-0.1,2.1-0.5c0.6-0.3,0.9-0.7,1.3-1.4
		c0.3-0.6,0.6-1.4,0.6-2c0.1-0.8,0.2-1.7,0.2-2.5V464h-0.1c-0.2,0.9-0.8,1.8-1.5,2.5c-0.8,0.7-1.8,1-2.8,1c-0.9,0-1.7-0.2-2.5-0.6
		c-0.8-0.5-1.4-1.1-1.8-1.9c-0.6-0.9-0.9-1.9-1.1-2.8c-0.2-1.1-0.5-2.4-0.3-3.7c0-1.3,0.1-2.4,0.5-3.7c0.2-0.9,0.6-1.9,1.1-2.8
		c0.5-0.7,1-1.4,1.8-1.9c0.7-0.4,1.6-0.6,2.5-0.6c1,0,2.1,0.3,2.8,0.9c0.8,0.6,1.4,1.5,1.6,2.5h0.1v-2.8h2.3L669,467z M666.8,458.8
		c0-0.9-0.1-1.9-0.2-2.7c-0.1-0.7-0.3-1.6-0.7-2.2c-0.2-0.6-0.7-1-1.3-1.5c-1-0.7-2.4-0.7-3.4,0c-0.5,0.4-0.9,0.9-1.1,1.5
		c-0.3,0.7-0.6,1.5-0.7,2.2c-0.1,0.9-0.2,1.9-0.2,2.8s0.1,1.8,0.2,2.7c0.1,0.7,0.3,1.6,0.7,2.2c0.2,0.5,0.7,1,1.1,1.5
		c0.5,0.3,1,0.5,1.7,0.5c0.6,0,1.3-0.2,1.7-0.5c0.6-0.4,0.9-0.9,1.3-1.5c0.3-0.7,0.6-1.5,0.7-2.2
		C666.6,460.7,666.8,459.8,666.8,458.8L666.8,458.8z"/>
	<path class="st4" d="M678.8,450.9c0.6-0.6,1.5-0.9,2.4-0.9c0.1,0,0.3,0,0.5,0l-0.1,2.3h-0.2h-0.3c-0.6,0-1.1,0.2-1.6,0.6
		s-0.9,0.9-1.1,1.5c-0.3,0.6-0.6,1.4-0.7,2.1c-0.1,0.7-0.2,1.6-0.2,2.3v8.6H675v-12.6c0-0.3,0-0.7,0-1.1s0-0.8,0-1.3
		c0-0.4,0-0.7,0-1s0-0.6,0-0.7h2.3c0,0.4,0.1,0.9,0.1,1.6s0,1.4,0,2.1h0.1C677.5,453,677.9,451.8,678.8,450.9z"/>
	<path class="st4" d="M685.8,459.4c0,0.8,0.1,1.7,0.2,2.6c0.1,0.7,0.3,1.4,0.8,2.1c0.3,0.5,0.7,1,1.3,1.4s1.1,0.5,1.8,0.5
		c0.8,0,1.6-0.2,2.2-0.7c0.6-0.5,1-1.1,1.3-1.8l1.8,0.9c-0.5,0.9-1.1,1.9-1.9,2.6c-0.9,0.7-2.1,1-3.3,1c-1.9,0-3.8-0.8-4.7-2.4
		c-1.3-2-1.8-4.3-1.7-6.6c0-1.3,0.1-2.4,0.5-3.7c0.2-1,0.7-2,1.3-2.8c0.5-0.7,1.1-1.4,2.1-1.9c0.8-0.4,1.7-0.6,2.6-0.6
		c0.9,0,1.9,0.2,2.7,0.6s1.4,1,1.8,1.8c0.5,0.8,0.8,1.7,1,2.6c0.2,1,0.3,2.1,0.3,3.1v1.3H685.8L685.8,459.4L685.8,459.4z
		 M693.1,457.5c0.1-1.4-0.2-2.8-0.8-4.1c-0.5-0.9-1.5-1.6-2.6-1.6c-0.7,0-1.3,0.2-1.8,0.6s-0.9,0.9-1.1,1.5
		c-0.3,0.6-0.6,1.3-0.7,1.9c-0.1,0.5-0.2,1.1-0.2,1.8h7.3v-0.1H693.1z"/>
	<path class="st4" d="M708.9,467.2v-3h-0.1c-0.2,0.9-0.8,1.8-1.5,2.5c-0.8,0.7-1.8,1-2.8,1c-0.9,0-1.7-0.2-2.5-0.6
		c-0.8-0.5-1.4-1.1-1.8-1.9c-0.6-0.9-0.9-1.9-1.1-2.8c-0.2-1.1-0.3-2.4-0.3-3.7s0.1-2.4,0.3-3.5c0.2-0.9,0.6-1.9,1-2.8
		c0.5-0.7,1-1.4,1.8-1.9c0.7-0.4,1.6-0.6,2.5-0.6c1,0,2.1,0.3,2.7,0.9c0.8,0.6,1.3,1.5,1.5,2.5h0.1v-11.7h2.4v25.6H708.9z
		 M708.9,458.8c0-0.9-0.1-1.9-0.2-2.8c-0.1-0.7-0.3-1.5-0.7-2.2c-0.2-0.5-0.7-1-1.3-1.5c-1-0.7-2.4-0.7-3.4,0
		c-0.5,0.4-0.9,0.9-1.1,1.5c-0.3,0.7-0.6,1.5-0.7,2.2c-0.1,0.9-0.2,1.9-0.2,2.8s0.1,1.8,0.2,2.7c0.1,0.7,0.3,1.6,0.7,2.2
		c0.2,0.5,0.7,1,1.1,1.5c1,0.7,2.4,0.7,3.4,0c0.6-0.4,0.9-0.9,1.3-1.5c0.3-0.7,0.6-1.5,0.7-2.2C708.9,460.6,708.9,459.8,708.9,458.8
		L708.9,458.8z"/>
	<path class="st4" d="M719.8,445.3c0,0.4-0.1,0.8-0.5,1.1c-0.6,0.6-1.6,0.6-2.2,0.1l-0.1-0.1c-0.3-0.3-0.5-0.7-0.5-1.1
		s0.1-0.8,0.5-1.1c0.6-0.6,1.5-0.6,2.2-0.1l0.1,0.1C719.5,444.4,719.8,444.9,719.8,445.3z M716.9,467.2v-16.8h2.4v16.8H716.9z"/>
	<path class="st4" d="M726.2,459.4c0,0.8,0.1,1.7,0.2,2.6c0.1,0.7,0.3,1.4,0.8,2.1c0.3,0.5,0.7,1,1.3,1.4c0.6,0.3,1.1,0.5,1.8,0.5
		c0.8,0,1.6-0.2,2.2-0.7c0.6-0.5,1-1.1,1.3-1.8l1.8,0.9c-0.5,0.9-1,1.9-1.9,2.6s-2.1,1-3.3,1c-1.9,0-3.8-0.8-4.7-2.4
		c-1.3-2-1.8-4.3-1.7-6.6c0-1.3,0.1-2.4,0.5-3.7c0.2-1,0.7-2,1.3-2.8c0.5-0.7,1.1-1.4,2.1-1.9c0.8-0.4,1.7-0.6,2.6-0.6
		s1.9,0.2,2.7,0.6s1.4,1,1.8,1.8c0.5,0.8,0.8,1.7,1,2.6c0.2,1,0.3,2.1,0.3,3.1v1.3H726.2L726.2,459.4L726.2,459.4z M733.7,457.5
		c0.1-1.4-0.2-2.8-0.8-4.1c-0.5-0.9-1.5-1.6-2.6-1.6c-0.7,0-1.3,0.2-1.8,0.6s-0.9,0.9-1.1,1.5c-0.3,0.6-0.6,1.3-0.7,1.9
		c-0.1,0.5-0.2,1.1-0.2,1.8h7.3v-0.1H733.7z"/>
	<path class="st4" d="M749.7,467.2v-10.9c0-0.5,0-1-0.1-1.6c0-0.5-0.2-1-0.3-1.5c-0.2-0.4-0.5-0.7-0.9-1c-0.5-0.3-0.9-0.4-1.5-0.4
		s-1.1,0.1-1.6,0.4s-0.9,0.7-1.3,1.3c-0.3,0.6-0.6,1.1-0.8,1.9c-0.2,0.7-0.2,1.5-0.2,2.2v9.7h-2.4v-12.6c0-0.3,0-0.7,0-1.1
		s0-0.8,0-1.3c0-0.4,0-0.7,0-1s0-0.6,0-0.7h2.3c0,0.4,0.1,0.9,0.1,1.6c0,0.6,0,1.1,0,1.8h0.1c0.2-1,0.8-2,1.6-2.8c0.8-0.7,1.8-1,3-1
		c0.8,0,1.7,0.2,2.4,0.5c0.6,0.4,1,0.9,1.4,1.5c0.3,0.6,0.6,1.4,0.7,2.1c0.1,0.7,0.1,1.6,0.1,2.3v10.9L749.7,467.2z"/>
	<path class="st4" d="M764.5,453.3c-0.3-0.5-0.7-0.9-1.3-1.1c-0.6-0.3-1.1-0.5-1.8-0.4c-0.7,0-1.5,0.3-1.9,0.8
		c-0.6,0.6-0.8,1.4-0.8,2.1c-0.1,0.7,0.2,1.5,0.7,2c0.7,0.5,1.4,0.8,2.2,1.1c0.5,0.2,1,0.4,1.5,0.6c1,0.5,1.8,1.4,2.3,2.3
		c0.2,0.6,0.3,1.3,0.3,1.9c0.1,1.4-0.5,2.8-1.5,3.9c-1,0.9-2.3,1.5-3.8,1.4c-1,0-1.9-0.2-2.8-0.6c-0.8-0.4-1.6-1-2.2-1.8l1.5-1.5
		c0.3,0.5,0.9,1,1.5,1.5c0.6,0.4,1.3,0.6,2.1,0.5c0.8,0,1.6-0.3,2.1-0.8c0.6-0.6,0.8-1.5,0.8-2.3c0-0.5-0.1-0.9-0.3-1.4
		c-0.2-0.3-0.5-0.6-0.8-0.9c-0.3-0.2-0.7-0.5-1-0.6c-0.5-0.2-0.8-0.3-1.3-0.5s-0.9-0.3-1.4-0.5s-0.8-0.5-1.1-0.9s-0.7-0.8-0.8-1.3
		c-0.5-1.3-0.5-2.6,0.1-3.8c0.2-0.5,0.7-1,1.1-1.5s1-0.7,1.6-0.9c0.6-0.2,1.3-0.3,1.9-0.3c1.7-0.1,3.4,0.7,4.4,2L764.5,453.3z"/>
	<path class="st4" d="M771.3,459.4c0,0.8,0.1,1.7,0.2,2.6c0.1,0.7,0.3,1.4,0.8,2.1c0.3,0.5,0.7,1,1.3,1.4s1.1,0.5,1.8,0.5
		c0.8,0,1.6-0.2,2.2-0.7s1-1.1,1.3-1.8l1.8,0.9c-0.5,0.9-1.1,1.9-1.9,2.6c-0.9,0.7-2.1,1-3.3,1c-1.9,0-3.8-0.8-4.7-2.4
		c-1.3-2-1.8-4.3-1.7-6.6c0-1.3,0.1-2.4,0.5-3.7c0.2-1,0.7-2,1.3-2.8c0.5-0.7,1.1-1.4,2.1-1.9c1.7-0.8,3.6-0.8,5.4,0
		c0.8,0.4,1.4,1,1.8,1.8c0.5,0.8,0.8,1.7,1,2.6c0.2,1,0.3,2.1,0.3,3.1v1.1h-10.2V459.4z M778.7,457.5c0.1-1.4-0.2-2.8-0.8-4.1
		c-0.5-0.9-1.5-1.6-2.6-1.6c-0.7,0-1.3,0.2-1.8,0.6s-0.9,0.9-1.1,1.5c-0.3,0.6-0.6,1.3-0.7,1.9c-0.1,0.5-0.2,1.1-0.2,1.8h7.3v-0.1
		H778.7z"/>
	<path class="st4" d="M789.6,450.9c0.6-0.6,1.5-0.9,2.4-0.9c0.1,0,0.3,0,0.5,0l-0.1,2.3h-0.2h-0.3c-0.6,0-1.1,0.2-1.6,0.6
		s-0.9,0.9-1.1,1.5c-0.3,0.6-0.6,1.4-0.7,2.1c-0.1,0.7-0.2,1.6-0.2,2.3v8.6h-2.5v-12.6c0-0.3,0-0.7,0-1.1s0-0.8,0-1.3
		c0-0.4,0-0.7,0-1s0-0.6,0-0.7h2.3c0,0.4,0.1,0.9,0.1,1.6s0,1.4,0,2.1l0,0C788.1,453,788.7,451.8,789.6,450.9z"/>
	<path class="st4" d="M799.8,465.7c0,0.4-0.1,0.8-0.5,1.1c-0.3,0.3-0.8,0.5-1.3,0.5s-0.9-0.2-1.3-0.5c-0.7-0.7-0.7-1.7,0-2.4
		c0.3-0.3,0.8-0.5,1.3-0.5s0.9,0.2,1.3,0.5C799.5,464.9,799.8,465.3,799.8,465.7z M796.8,460.1v-16.8h2.4v16.8H796.8z"/>
	<rect x="1026.7" y="441.3" class="st4" width="395.7" height="11.2"/>
	<polygon class="st4" points="1032.3,309.4 1023.1,318 991.9,289.2 1001.2,280.6 	"/>
	<polygon class="st4" points="1023.5,318.5 1014.4,310 1065.8,262.5 1074.9,270.9 	"/>
	<polygon class="st4" points="1016.9,659.6 1007.8,651.2 1059.1,603.6 1068.2,612 	"/>
	<polygon class="st4" points="1008.7,610.9 1018.1,602.7 1067.3,652.4 1057.8,660.4 	"/>
	<path class="st8" d="M1129.1,150.1l-0.1-0.1c0.9,0.2,1.9,0.4,2.8,0.6l-0.2,0.1l-1.3,0.8L1129.1,150.1z"/>
	<path class="st8" d="M1161.3,188.1c-0.3,13.1-45.6,36.1-55.7,39.4c-10.1,3.3-19.4-46.9-16.5-59.2c1.5-6.1,7.5-11.8,15.6-15.4
		l0.6,0.2l4.2,0.9l2.4,0.4l3.8,0.4l-3.6,1.4l-2.3,1.5l-1.7,1.5l-1.4,1.7l-1.8,2.2l-1.7,3.2l-1.4,2.4h3.5l3-0.7l4.2-0.6l2.4-0.2
		l3.2-1.1l0.7-1.5l0.9-1.5l1.7-1.9l-1.8,2.3l-0.3,0.7l-0.3,0.5l-0.2,0.7l-0.3,0.9l-0.2,0.9l-0.1,1.3l-0.1,1.3l-0.1,1.8l0.1,3.2
		l1.4-0.9l1.1-0.8l1.4-0.8l1.1-0.9l1.1-0.9l0.9-0.7l0.7-0.8l0.7-0.9l1-1.5l0.8-1.3l0.8-1.4l0.7-1.1l0.6-1.1l0.5-1.5v-0.6l0.5-0.9
		v6.4l0.2,2.2l0.2,1.8l0.6,2l1,2.6l1.3,2.1l1.1,1.6l1.4,1.9l1.6,1.4l1.3-1.5l0.8-1.5l0.8-1.9l0.3-1.6l0.3-1.6v-5.7l1.4,2.2l2.3,2.7
		l3.8,3.1l2.5,1.7l3.5,1.4l3.5,0.7h1.5C1161,181.5,1161.4,184.7,1161.3,188.1z"/>
	<polygon class="st9" points="1169.7,177 1166.5,177.9 1162.1,178.2 1159.9,178.4 1158.5,178.4 1154.8,177.6 1151.3,176.3 
		1148.8,174.7 1145.1,171.6 1142.8,168.8 1141.5,166.6 1141.5,172.4 1141.1,173.9 1140.8,175.4 1140,177.3 1139.2,178.8 
		1138.1,180.3 1136.5,179 1135,177.1 1133.8,175.5 1132.6,173.4 1131.6,170.9 1131,169 1130.6,167.2 1130.5,164.9 1130.5,158.6 
		1130.1,159.6 1130.1,160.2 1129.6,161.7 1129.1,162.9 1128.4,164.1 1127.7,165.4 1126.9,166.6 1125.9,168 1125.2,169 1124.5,169.8 
		1123.6,170.5 1122.4,171.5 1121.4,172.4 1120,173.1 1118.9,174 1117.5,175 1117.4,171.8 1117.5,170 1117.7,168.8 1117.8,167.4 
		1118,166.6 1118.3,165.6 1118.7,164.9 1119,164.4 1119.4,163.6 1121.2,161.3 1119.5,163.1 1118.6,164.6 1117.9,166 1114.6,167.2 
		1112.2,167.4 1108,168 1105.1,168.8 1101.6,168.8 1102.9,166.2 1104.7,163 1106.5,160.8 1107.9,159.2 1109.7,157.7 1112,156.2 
		1115.6,154.9 1111.7,154.5 1109.3,154.1 1105.2,153.2 1104.7,152.9 1102.6,152 1100.3,149.4 1099.1,147.5 1098.2,144.5 
		1098.2,139.1 1101.6,140.5 1104,142.5 1113.4,142.5 1117.7,143.2 1122,144.5 1125.6,146.5 1127.5,148.1 1128.9,149.9 1129.1,150.1 
		1130.3,151.5 1131.6,150.7 1131.8,150.6 1135.1,148.6 1138.6,146.7 1142.4,145.2 1146.4,144.5 1150.5,145 1155.8,144.5 
		1160.2,144.5 1160.1,145.9 1158.7,148.1 1157,150.2 1154.9,152.4 1152.6,153.9 1150.8,154.9 1147.7,155.6 1144.8,156.1 
		1147.9,156.8 1150.4,157.9 1151.8,159.2 1153.9,160.5 1155.8,162.2 1157.7,164 1160.6,167.2 1164.3,171.2 1167.8,174.5 	"/>
	
		<ellipse transform="matrix(0.4817 -0.8764 0.8764 0.4817 416.291 1052.3381)" class="st2" cx="1097.8" cy="174.3" rx="1.7" ry="0.7"/>
	
		<ellipse transform="matrix(0.4817 -0.8764 0.8764 0.4817 415.5477 1063.3444)" class="st2" cx="1106.7" cy="180.4" rx="1.7" ry="0.7"/>
	
		<ellipse transform="matrix(0.4817 -0.8764 0.8764 0.4817 421.2633 1072.9197)" class="st2" cx="1117.6" cy="180.3" rx="1.7" ry="0.7"/>
	
		<ellipse transform="matrix(0.4817 -0.8764 0.8764 0.4817 406.7058 1056.7679)" class="st2" cx="1096.7" cy="184.6" rx="1.7" ry="0.7"/>
	
		<ellipse transform="matrix(0.4817 -0.8764 0.8764 0.4817 408.4138 1069.1633)" class="st2" cx="1108" cy="189.3" rx="1.7" ry="0.7"/>
	
		<ellipse transform="matrix(0.4817 -0.8764 0.8764 0.4817 398.3023 1064.1381)" class="st2" cx="1098.7" cy="195.4" rx="1.7" ry="0.7"/>
	
		<ellipse transform="matrix(0.4817 -0.8764 0.8764 0.4817 412.8538 1077.8851)" class="st2" cx="1117.6" cy="189.9" rx="1.7" ry="0.7"/>
	
		<ellipse transform="matrix(0.4817 -0.8764 0.8764 0.4817 402.6191 1076.0161)" class="st2" cx="1110.9" cy="197.6" rx="1.7" ry="0.7"/>
	
		<ellipse transform="matrix(0.4817 -0.8764 0.8764 0.4817 392.428 1070.6381)" class="st2" cx="1101.3" cy="203.6" rx="1.7" ry="0.7"/>
	
		<ellipse transform="matrix(0.4817 -0.8764 0.8764 0.4817 389.3546 1079.306)" class="st2" cx="1107.1" cy="210.5" rx="1.7" ry="0.7"/>
	
		<ellipse transform="matrix(0.4817 -0.8764 0.8764 0.4817 382.8354 1074.8075)" class="st2" cx="1100" cy="213.8" rx="1.7" ry="0.7"/>
	
		<ellipse transform="matrix(0.4817 -0.8764 0.8764 0.4817 377.9582 1083.4304)" class="st2" cx="1104.9" cy="222.2" rx="1.7" ry="0.7"/>
	
		<ellipse transform="matrix(0.4817 -0.8764 0.8764 0.4817 385.4385 1089.7004)" class="st2" cx="1113.9" cy="219" rx="1.7" ry="0.7"/>
	<ellipse transform="matrix(0.4817 -0.8764 0.8764 0.4817 395.6707 1084.885)" class="st2" cx="1115" cy="208" rx="1.7" ry="0.7"/>
	
		<ellipse transform="matrix(0.4817 -0.8764 0.8764 0.4817 396.6484 1096.1425)" class="st2" cx="1125" cy="212.8" rx="1.7" ry="0.7"/>
	
		<ellipse transform="matrix(0.4817 -0.8764 0.8764 0.4817 405.8542 1088.6941)" class="st2" cx="1123.3" cy="201.3" rx="1.7" ry="0.7"/>
	
		<ellipse transform="matrix(0.4817 -0.8764 0.8764 0.4817 408.8174 1101.4287)" class="st2" cx="1135.5" cy="205.1" rx="1.7" ry="0.7"/>
	
		<ellipse transform="matrix(0.4817 -0.8764 0.8764 0.4817 414.7669 1091.6088)" class="st2" cx="1130.2" cy="195.2" rx="1.7" ry="0.7"/>
	
		<ellipse transform="matrix(0.4817 -0.8764 0.8764 0.4817 418.7436 1106.1135)" class="st2" cx="1144.4" cy="199.1" rx="1.7" ry="0.7"/>
	
		<ellipse transform="matrix(0.4817 -0.8764 0.8764 0.4817 423.9736 1084.9197)" class="st2" cx="1129.1" cy="184" rx="1.7" ry="0.7"/>
	
		<ellipse transform="matrix(0.4817 -0.8764 0.8764 0.4817 423.9456 1098.4318)" class="st2" cx="1140.5" cy="190.8" rx="1.7" ry="0.7"/>
	
		<ellipse transform="matrix(0.4817 -0.8764 0.8764 0.4817 435.0916 1099.3225)" class="st2" cx="1146.9" cy="181.8" rx="1.7" ry="0.7"/>
	
		<ellipse transform="matrix(0.4817 -0.8764 0.8764 0.4817 431.3034 1107.9191)" class="st2" cx="1152.2" cy="189.4" rx="1.7" ry="0.7"/>
	
		<ellipse transform="matrix(0.4817 -0.8764 0.8764 0.4817 423.2571 1045.8047)" class="st2" cx="1095.7" cy="165.1" rx="1.7" ry="0.7"/>
	
		<ellipse transform="matrix(0.6018 -0.7987 0.7987 0.6018 368.9397 1140.7465)" class="st10" cx="1328.4" cy="200.4" rx="6.2" ry="6.3"/>
	
		<ellipse transform="matrix(0.6051 -0.7962 0.7962 0.6051 372.7388 1139.813)" class="st10" cx="1335.3" cy="194.2" rx="6.2" ry="6.3"/>
	
		<ellipse transform="matrix(0.6018 -0.7987 0.7987 0.6018 380.0077 1146.8611)" class="st10" cx="1340.1" cy="192.4" rx="6.2" ry="6.3"/>
	
		<ellipse transform="matrix(0.6018 -0.7987 0.7987 0.6018 383.5732 1148.4462)" class="st10" cx="1343.4" cy="189.6" rx="6.2" ry="6.3"/>
	
		<ellipse transform="matrix(0.6018 -0.7987 0.7987 0.6018 384.5046 1151.3633)" class="st10" cx="1346.8" cy="190.1" rx="6.2" ry="6.3"/>
	<ellipse class="st10" cx="1334" cy="207.2" rx="7.5" ry="7"/>
	
		<ellipse transform="matrix(0.6018 -0.7987 0.7987 0.6018 363.2126 1156.5093)" class="st10" cx="1341.3" cy="214" rx="6.2" ry="6.3"/>
	
		<ellipse transform="matrix(0.6018 -0.7987 0.7987 0.6018 362.3494 1165.6602)" class="st10" cx="1350.1" cy="219.5" rx="6.2" ry="6.3"/>
	
		<ellipse transform="matrix(0.6018 -0.7987 0.7987 0.6018 361.7894 1171.0107)" class="st10" cx="1355.2" cy="222.7" rx="6.2" ry="6.3"/>
	
		<ellipse transform="matrix(0.9998 -2.084464e-02 2.084464e-02 0.9998 -4.369 28.5125)" class="st10" cx="1365.5" cy="223.8" rx="7.6" ry="6.3"/>
	
		<ellipse transform="matrix(0.6018 -0.7987 0.7987 0.6018 372.8747 1184.0155)" class="st10" cx="1373.7" cy="218.1" rx="6.2" ry="6.3"/>
	
		<ellipse transform="matrix(0.6018 -0.7987 0.7987 0.6018 378.7965 1184.493)" class="st10" cx="1377.2" cy="212.4" rx="6.2" ry="6.3"/>
	
		<ellipse transform="matrix(0.6018 -0.7987 0.7987 0.6018 401.4836 1155.7671)" class="st10" cx="1359.7" cy="175.3" rx="6.2" ry="6.3"/>
	
		<ellipse transform="matrix(0.6018 -0.7987 0.7987 0.6018 398.5087 1157.3899)" class="st10" cx="1359.9" cy="179.1" rx="6.2" ry="6.3"/>
	
		<ellipse transform="matrix(0.6018 -0.7987 0.7987 0.6018 390.8468 1159.8518)" class="st10" cx="1358.5" cy="188" rx="6.2" ry="6.3"/>
	
		<ellipse transform="matrix(0.9663 -0.2573 0.2573 0.9663 -8.8147 361.7882)" class="st10" cx="1378" cy="214.6" rx="6.6" ry="6.7"/>
	<ellipse class="st10" cx="1379.6" cy="206.5" rx="7.8" ry="7.1"/>
	
		<ellipse transform="matrix(0.6018 -0.7987 0.7987 0.6018 392.0905 1180.9941)" class="st10" cx="1380.3" cy="197.3" rx="6.2" ry="6.3"/>
	
		<ellipse transform="matrix(0.6018 -0.7987 0.7987 0.6018 406.8774 1159.2278)" class="st10" cx="1365.9" cy="171.6" rx="6.2" ry="6.3"/>
	<ellipse class="st10" cx="1371.6" cy="170.9" rx="7.3" ry="6.8"/>
	
		<ellipse transform="matrix(0.6018 -0.7987 0.7987 0.6018 406.4215 1170.1976)" class="st10" cx="1376.7" cy="177.5" rx="6.2" ry="6.3"/>
	
		<ellipse transform="matrix(0.6018 -0.7987 0.7987 0.6018 401.4812 1174.8397)" class="st10" cx="1378.8" cy="184.8" rx="6.2" ry="6.3"/>
	
		<ellipse transform="matrix(0.6018 -0.7987 0.7987 0.6018 396.9479 1178.7163)" class="st10" cx="1380.5" cy="191.3" rx="6.2" ry="6.3"/>
	
		<ellipse transform="matrix(0.6018 -0.7987 0.7987 0.6018 368.6121 1186.3313)" class="st10" cx="1373.9" cy="223.5" rx="6.2" ry="6.3"/>
	
		<ellipse transform="matrix(0.9997 -2.450821e-02 2.450821e-02 0.9997 -4.5851 33.3458)" class="st10" cx="1358.1" cy="203.7" rx="23.9" ry="17.9"/>
	
		<ellipse transform="matrix(0.9991 -4.348829e-02 4.348829e-02 0.9991 -6.8012 59.6361)" class="st10" cx="1367.3" cy="186.1" rx="7.2" ry="9.3"/>
	
		<ellipse transform="matrix(0.6018 -0.7987 0.7987 0.6018 377.9561 1132.5975)" class="st10" cx="1324.7" cy="187.3" rx="6.2" ry="6.3"/>
	
		<ellipse transform="matrix(0.6018 -0.7987 0.7987 0.6018 384.1531 1132.4764)" class="st10" cx="1327.7" cy="181" rx="6.2" ry="6.3"/>
	<path class="st11" d="M1333.2,182c0,0-1.5,3-6.3,2s-4.7-4.3-4.7-4.3c-0.6,2.7,1.4,5.4,4.3,5.9
		C1329.4,186.3,1332.4,184.6,1333.2,182L1333.2,182z"/>
	
		<ellipse transform="matrix(0.9967 -8.088791e-02 8.088791e-02 0.9967 -8.7873 110.1362)" class="st10" cx="1355" cy="163.5" rx="5.2" ry="5.5"/>
	<polygon class="st9" points="1315.5,209 1317.2,206.2 1320,203.2 1321.8,201.7 1326,197.1 1330,193.1 1336,188.8 1340.6,185.8 
		1342.3,184.6 1345.2,184.5 1349.1,185.9 1354.4,187.5 1355.3,184.8 1355.8,182.1 1354.7,179.4 1354,176.7 1353.9,175 1359.3,172.9 
		1362.1,170.2 1365.1,168.1 1375.1,163.4 1379.2,161.6 1382.4,159.7 1385.5,157.5 1387.9,155.1 1380.6,158 1376.4,158.7 
		1371.3,158.8 1366.2,159 1362.3,159.2 1358.8,160.4 1353.6,164.4 1350.1,168.3 1347.7,169.4 1350.4,165 1352.6,162.5 1352.4,159.5 
		1350.7,156.2 1348.1,151.3 1347.5,147.8 1347.4,144.4 1348.3,141.3 1345.5,145.4 1343.3,148.8 1343.3,152.2 1340,155.7 
		1337.4,158.9 1336.2,160.6 1340.4,166.4 1342.3,169.4 1343.9,171.4 1344.7,172.9 1342,174.6 1340.1,174.9 1338.3,172.2 1335,166.6 
		1332.7,169 1328.6,168.3 1321.3,168.5 1315.4,169.6 1309.6,170.5 1307,171 1304.9,171.2 1303.3,170.8 1301.3,169.3 1303.9,172 
		1306.9,173.7 1309.8,174.1 1312.8,174.4 1316.2,174.3 1319.6,175.2 1322.6,176 1325.2,176 1327.4,175.8 1329.8,176.1 1333,175.6 
		1335,175.6 1338.8,175.5 1335,177.3 1331.9,179 1328.3,182.1 1325.9,185 1323.5,187.7 1321.4,191 1319.5,196.6 1317.3,200 
		1315.9,203.8 1315.1,207.6 	"/>
	<polygon class="st9" points="1331,175.6 1332.2,176.7 1333.4,178.6 1339.1,176.5 1338.7,174.1 	"/>
	<polygon class="st10" points="1350.2,165.5 1347.7,169.4 1350.1,168.3 1351.1,167.2 	"/>
	<polygon class="st12" points="1340.1,174.9 1342,174.6 1344.7,172.9 1343.9,171.4 1342.3,169.4 1341.5,168.1 1340.4,166.4 
		1339.5,165.2 1338.7,164 1337.9,162.9 1337.2,162.1 1336.2,160.6 1335.4,158.8 1334.3,157.2 1331.4,152.9 1329.5,150.2 
		1328.2,148.1 1327.7,147.4 1326.3,146.9 1324.9,146.9 1324.1,146.9 1324.1,148.1 1324.1,149.1 1324.5,150.3 1329.8,158.3 
		1331.8,160.9 1333.9,163.7 1335,166.6 1336.3,168.8 1338.8,172.7 	"/>
	<path class="st11" d="M1343.6,202c0,0-1.5,3-6.3,2s-4.7-4.3-4.7-4.3c-0.6,2.7,1.4,5.4,4.3,5.9
		C1339.8,206.3,1342.9,204.8,1343.6,202L1343.6,202z"/>
	<path class="st11" d="M1351.8,191.7c0,0-1.5,3-6.3,2s-4.7-4.3-4.7-4.3c-0.6,2.7,1.4,5.4,4.3,5.9C1348,196,1351,194.4,1351.8,191.7
		L1351.8,191.7z"/>
	<path class="st11" d="M1361.1,201.4c0,0-1.5,3-6.3,2s-4.7-4.3-4.7-4.3c-0.6,2.7,1.4,5.4,4.3,5.9
		C1357.4,205.8,1360.3,204.1,1361.1,201.4C1361.1,201.5,1361.1,201.4,1361.1,201.4z"/>
	<path class="st11" d="M1370.2,190.9c0,0-1.5,3-6.3,2s-4.7-4.3-4.7-4.3c-0.6,2.7,1.4,5.4,4.3,5.9
		C1366.5,195.2,1369.4,193.6,1370.2,190.9L1370.2,190.9z"/>
	<path class="st11" d="M1367.3,180.9c0,0-1.5,3-6.3,2s-4.7-4.3-4.7-4.3c-0.6,2.7,1.4,5.4,4.3,5.9
		C1363.6,185.2,1366.6,183.6,1367.3,180.9C1367.3,181,1367.3,181,1367.3,180.9z"/>
	<path class="st11" d="M1384.5,189.8c0,0-1.5,3-6.3,2s-4.7-4.3-4.7-4.3c-0.6,2.7,1.4,5.4,4.3,5.9
		C1380.7,194.1,1383.7,192.4,1384.5,189.8L1384.5,189.8z"/>
	<path class="st11" d="M1353.9,212.5c0,0-1.5,3-6.3,2s-4.7-4.3-4.7-4.3c-0.6,2.7,1.3,5.4,4.3,5.9
		C1350.2,216.9,1353.2,215.2,1353.9,212.5C1353.9,212.6,1353.9,212.5,1353.9,212.5z"/>
	<path class="st11" d="M1380,202.6c0,0-1.5,3-6.3,2s-4.7-4.3-4.7-4.3c-0.6,2.7,1.4,5.4,4.3,5.9
		C1376.4,206.8,1379.3,205.3,1380,202.6L1380,202.6z"/>
	<path class="st11" d="M1374,213.3c0,0-1.5,3-6.3,2s-4.7-4.3-4.7-4.3c-0.6,2.7,1.4,5.4,4.3,5.9C1370.2,217.7,1373.2,216,1374,213.3
		L1374,213.3z"/>
	<path class="st11" d="M1365.1,221c0,0-1.5,3-6.3,2s-4.7-4.3-4.7-4.3c-0.6,2.7,1.4,5.4,4.3,5.9
		C1361.3,225.3,1364.3,223.7,1365.1,221L1365.1,221z"/>
	<path class="st11" d="M1376.7,174.3c0,0-1.5,3-6.3,2s-4.7-4.3-4.7-4.3c-0.6,2.7,1.4,5.4,4.3,5.9
		C1373,178.7,1375.9,177,1376.7,174.3C1376.7,174.4,1376.7,174.3,1376.7,174.3z"/>
	<polygon class="st9" points="1263,176.3 1266.5,173.2 1269.1,169 1271.2,164.4 1272.3,160.4 1273.2,154.2 1267.6,155.6 
		1261.7,158.2 1255.3,162.6 1252.1,165.6 1248.7,169.6 1246.9,172.5 1246,175 1245.5,176.9 1245.4,179.3 1247.7,180.5 1248.8,181.5 
		1250.4,182.8 1251.7,184.2 1252.4,184.9 1254.1,182.4 1256,180.3 1258.1,178.8 1260.7,177.2 	"/>
	<path class="st13" d="M1282.7,197c0,12.1-9.6,21.9-21.4,21.9c-7.8,0-14.6-4.2-18.4-10.4c-3.6,6.4-10.8,10.3-18.7,10.4
		c-11.9,0-21.4-9.3-21.4-20.8s9.6-20.8,21.4-20.8c7.4,0.1,14.1,3.7,18,9.4c3.6-7,10.7-11.7,19-11.7
		C1273.1,175.1,1282.7,184.9,1282.7,197z"/>
	<ellipse class="st4" cx="1223.3" cy="181.1" rx="2.1" ry="0.6"/>
	<ellipse transform="matrix(0.45 -0.893 0.893 0.45 511.8527 1199.4868)" class="st4" cx="1229.7" cy="184.2" rx="2.4" ry="4.7"/>
	<ellipse transform="matrix(0.9531 -0.3027 0.3027 0.9531 3.2589 389.0387)" class="st4" cx="1256.7" cy="184" rx="5.2" ry="2.8"/>
	
		<ellipse transform="matrix(0.1752 -0.9845 0.9845 0.1752 865.4743 1398.9401)" class="st4" cx="1267.7" cy="182.9" rx="1.5" ry="3.3"/>
	<path class="st14" d="M1271.6,195.9c-0.5,1.1-3,0.1-4.1,0.1c-0.3,0-0.9,0.3-1.3,0.1c0,0.1-0.1,0.1-0.1,0.1c0,0.1,0,0.2,0,0.4
		c-0.2,1.3,1.1,3-0.3,3.9c-1.5,0.8-2.8-0.8-3.8-1.9c-0.1-0.2-0.2-0.3-0.3-0.5c-0.1,0.1-0.3,0.2-0.3,0.3c-1.3,0.6-3.3,1.6-4.4,0.1
		s0.9-2.5,1.8-3.5c0.2-0.2,0.3-0.6,0.7-0.8c-0.2-0.2-0.5-0.5-0.6-0.8c-0.5-1-1.8-3-0.8-4c1-0.9,3.5,0.2,4.6,0.6
		c0.2,0.1,0.5,0.5,0.7,0.6c0.1-0.3,0.2-0.5,0.5-0.7c1-0.7,2.2-2.6,3.8-2c1.6,0.6-0.2,2.3,0.1,3.4c0,0.1,0.1,0.4,0.1,0.5
		c0.2,0.2,0.7,0.3,0.8,0.6C1269,193.8,1272.2,194.7,1271.6,195.9z"/>
	
		<ellipse transform="matrix(0.7764 -0.6302 0.6302 0.7764 160.7317 843.8598)" class="st13" cx="1269.7" cy="195.4" rx="0.8" ry="1.2"/>
	
		<ellipse transform="matrix(0.8319 -0.5549 0.5549 0.8319 104.9561 734.3167)" class="st13" cx="1264.6" cy="193.9" rx="0.7" ry="1.2"/>
	<path class="st14" d="M1225.5,189.9c0.5,1.1-2.1,1.9-3.1,2.6c-0.2,0.2-0.3,0.8-0.9,0.8c0,0,0,0.1,0,0.2c0.1,0.1,0.2,0.2,0.3,0.3
		c0.7,1.1,3.1,1.6,2.5,3.1c-0.6,1.6-2.7,1.1-4.1,0.9c-0.2-0.1-0.5-0.1-0.6-0.2c0,0.1,0,0.3-0.1,0.4c-0.6,1.3-1.4,3.2-3.2,2.7
		c-1.8-0.5-1.1-2.4-1.3-3.8c0-0.3-0.2-0.7-0.1-1c-0.3,0-0.7-0.1-1-0.2c-1.1-0.5-3.5-1.1-3.4-2.5s2.8-2,3.9-2.4
		c0.2-0.1,0.7,0.1,0.9,0.1c-0.1-0.2-0.2-0.5-0.2-0.8c0.2-1.1-0.2-3.3,1.4-3.8s1.5,1.9,2.6,2.5c0.1,0.1,0.3,0.2,0.5,0.3
		c0.3,0,0.7-0.2,1-0.1C1222.1,189.9,1225.1,188.8,1225.5,189.9z"/>
	
		<ellipse transform="matrix(0.8699 -0.4933 0.4933 0.8699 62.6248 626.8101)" class="st13" cx="1219.3" cy="194.7" rx="1.2" ry="0.7"/>
	
		<ellipse transform="matrix(0.7679 -0.6406 0.6406 0.7679 159.044 825.1127)" class="st13" cx="1218.1" cy="193.1" rx="1.2" ry="0.8"/>
	<polygon class="st9" points="1229.7,178.1 1225.6,175.1 1222.1,170.5 1219.3,165.4 1217.5,160.9 1215.7,153.8 1221.8,154.7 
		1228.4,157 1235.8,161.1 1239.6,164.2 1243.8,168.3 1246.1,171.6 1247.6,174.4 1248.2,176.5 1248.6,179.2 1246.6,181.1 
		1245.3,182.2 1243.9,184.1 1242.7,185.9 1242.2,186.8 1240,184.1 1237.7,182 1235.3,180.3 1232.2,178.9 	"/>
	<polygon class="st15" points="1131.8,254.6 1191.1,334.7 1192,334.6 1238.6,300.2 1238.9,299 1180.6,219.6 1179.5,218.8 
		1178.3,219.3 1132.7,253 1132.1,253.7 	"/>
	<polygon class="st16" points="1135.5,255.2 1148.2,272.3 1161.2,263 1148.1,245.4 	"/>
	<polygon class="st15" points="1138.1,256.1 1149.9,272.2 1161.5,262.9 1150,247.1 	"/>
	<polygon class="st16" points="1150.4,243.2 1163.7,261 1177.4,251.3 1163.6,233 	"/>
	<polygon class="st15" points="1153.7,244 1166.1,260 1178.5,250.7 1166.4,234.9 	"/>
	<polygon class="st16" points="1166.5,232.1 1179.2,249.2 1192.2,239.9 1179,222.4 	"/>
	<polygon class="st15" points="1169.1,233 1180.8,249.1 1192.5,239.8 1181,224.1 	"/>
	<polygon class="st16" points="1149.8,274.6 1162.6,291.8 1175.4,282.5 1162.3,264.9 	"/>
	<polygon class="st15" points="1152.4,275.6 1164.2,291.7 1175.9,282.4 1164.4,266.6 	"/>
	<polygon class="st16" points="1165.8,263.4 1178.4,280.6 1191.4,271.3 1178.3,253.7 	"/>
	<polygon class="st15" points="1168.3,264.4 1180,280.5 1191.7,271.2 1180.2,255.5 	"/>
	<polygon class="st16" points="1180.8,251.9 1193.6,269 1206.4,259.7 1193.3,242.2 	"/>
	<polygon class="st15" points="1183.4,252.9 1195.2,268.9 1206.8,259.6 1195.3,243.9 	"/>
	<polygon class="st16" points="1169.5,301.8 1164.3,295.2 1177.5,285.3 1180.3,289.1 	"/>
	<polygon class="st15" points="1166.9,295.4 1171.7,300.6 1180.7,288.4 1178.4,286.4 	"/>
	<polygon class="st8" points="1167.7,304.1 1207.5,256 1239.7,298.9 1240,300.9 1192.1,335.9 1190.6,335.2 	"/>
	<polygon class="st4" points="1167.3,306.2 1212.3,280.4 1209.4,257.9 1207.4,255.6 1167.2,304.4 	"/>
	<path class="st4" d="M1326.8,294.9c0,0,3-2.2,10.4,3s6.5,8.8,6.5,8.8c1.4-2-1.4-6.3-6-9.5C1333,294,1328.1,292.9,1326.8,294.9z"/>
	
		<ellipse transform="matrix(0.4768 -0.879 0.879 0.4768 410.1336 1281.7463)" class="st17" cx="1281.8" cy="296.3" rx="19.9" ry="23.4"/>
	
		<ellipse transform="matrix(0.9905 -0.1375 0.1375 0.9905 -30.1293 185.3992)" class="st17" cx="1326.9" cy="310.8" rx="22.4" ry="19.5"/>
	<polygon class="st9" points="1288.1,279.6 1293.3,275.1 1298.1,269 1299.7,264.2 1301.8,255.4 1301.8,251 1302.6,244 1304.6,246.7 
		1304.6,254.2 1303.2,261.7 1301.8,265.7 1299.2,271.2 1297.1,274.7 1294.8,277.9 1290.3,282.2 1288.1,282.2 	"/>
	<polygon class="st9" points="1319.9,292.3 1318.6,284.6 1317,278 1314.5,269 1311.3,260.9 1308.3,254.2 1304.6,246.7 1302.6,244 
		1299.7,240.3 1298.1,240.3 1294,237 1292.2,234 1291.5,231.5 1293.5,231.5 1294.8,229.3 1298.1,234.8 1300.9,238.2 1304.6,241.3 
		1308.3,246.8 1311.3,252.9 1315,260.8 1318.1,271.2 1319.9,278.8 1321.9,285.9 1322.9,291.5 1322.9,294.2 1321.9,295.2 
		1320.5,294.7 1319.9,294.3 	"/>
	<polygon class="st18" points="1296.8,232.7 1301.8,230.9 1307.5,230.9 1312.8,231.8 1317.8,233.9 1324.2,238.5 1326.8,241.8 
		1330.8,246.4 1337.1,252.4 1342.1,256.6 1345,258.2 1347.3,258.2 1352.4,258.2 1348,259.7 1341.5,259.7 1334.6,258.7 1326.3,256.7 
		1319.4,253.7 1313.7,250.5 1308.3,246.8 1303,239.6 1300.9,238.2 1298.5,235.5 	"/>
	<polygon class="st19" points="1298.1,240.3 1297.6,244 1298.1,247 1298.8,250 1299.7,252.2 1301.6,256.3 1301.8,254 1301.8,251.9 
		1301.8,251 1302.1,248.3 1302.4,245.3 1302.6,244 1299.7,240.3 	"/>
	<polygon class="st19" points="1304.6,246.7 1304.6,251.4 1304.6,254.2 1304.2,256.3 1303.6,260.2 1305.3,262.2 1307.2,264.8 
		1310.2,267.7 1312.2,269.3 1315.3,272 1314.5,269 1313.5,266.7 1312.7,264.6 1311.8,262.2 1310.5,259.3 1309.4,256.3 1308.3,254.2 
		1306.9,250.8 	"/>
	<polygon class="st19" points="1318.8,274.1 1322.4,276.2 1326.5,278 1332.5,279.5 1329.9,275.1 1325.7,267.3 1322.2,261.1 
		1321.1,258.5 1319.9,254.8 1319.4,253.7 1316.2,251.9 1313.7,250.5 1311.1,248.7 1308.3,246.8 1313.5,260.2 1316.1,267.4 	"/>
	<path class="st4" d="M1327,296.7c0,0,3.1-3.3,10.3,0.7c7.2,4.1,6,8.6,6,8.6c1.5-2.7-1-7-5.6-9.6
		C1333.2,293.8,1328.4,294,1327,296.7z"/>
	<path class="st4" d="M1290.7,285.4c0,0,4.4-0.7,7.8,6.9c3.3,7.6-0.2,10.5-0.2,10.5c2.7-1.3,3.3-6.3,1.3-11.1
		C1297.4,287,1293.4,284.2,1290.7,285.4z"/>
	
		<ellipse transform="matrix(2.281765e-02 -0.9997 0.9997 2.281765e-02 882.0201 1687.4441)" cx="1304.2" cy="392.5" rx="20.1" ry="47.9"/>
	
		<ellipse transform="matrix(2.302326e-02 -0.9997 0.9997 2.302326e-02 889.31 1680.7599)" class="st4" cx="1304.6" cy="385.4" rx="18.3" ry="47.9"/>
	
		<ellipse transform="matrix(2.286648e-02 -0.9997 0.9997 2.286648e-02 900.0485 1671.0674)" cx="1304.9" cy="375.1" rx="21" ry="47.9"/>
	<polygon class="st20" points="1090.9,338.6 1083.2,344.5 1079.7,349.3 1077.2,357.7 1076.2,370.5 1077.1,382.3 1081.6,391.2 
		1088,399.4 1096.5,406.6 1106,412.3 1114.2,415.9 1123.5,415.3 1132.2,412.6 1139,410 1146.6,407.1 1153.3,405.1 1159.9,402.1 
		1164.6,394.2 1167.7,385.3 1169.1,378.4 1168.4,370.2 1167.6,360.2 1166.1,354.2 1161.6,348.2 1158.5,345.7 1156.6,342.3 
		1153,338.7 1147.5,334.6 1144.3,332.1 1139.1,329.3 1133.2,326.4 1128.9,324.8 1122.6,324.3 1115.3,324.9 1109.8,325.2 
		1103.7,327.5 1098.7,331.3 1094.9,334.7 	"/>
	
		<ellipse transform="matrix(0.8197 -0.5728 0.5728 0.8197 -13.3695 684.6851)" class="st21" cx="1080.9" cy="363.6" rx="5.8" ry="4.3"/>
	
		<ellipse transform="matrix(0.9652 -0.2616 0.2616 0.9652 -58.1184 302.1157)" class="st21" cx="1105.7" cy="369.4" rx="4.7" ry="3.7"/>
	
		<ellipse transform="matrix(0.9524 -0.3048 0.3048 0.9524 -65.0714 361.2243)" class="st21" cx="1124.4" cy="389" rx="6.8" ry="4.2"/>
	
		<ellipse transform="matrix(0.9652 -0.2616 0.2616 0.9652 -52.2946 312.495)" class="st21" cx="1147.6" cy="352.7" rx="3.2" ry="3.7"/>
	
		<ellipse transform="matrix(0.8983 -0.4394 0.4394 0.8983 -48.0483 543.7365)" class="st21" cx="1150.5" cy="375.7" rx="4.2" ry="5.6"/>
	
		<ellipse transform="matrix(0.9652 -0.2616 0.2616 0.9652 -65.1817 301.0589)" class="st21" cx="1098.2" cy="395.4" rx="4.7" ry="3.7"/>
	
		<ellipse transform="matrix(0.9509 -0.3095 0.3095 0.9509 -67.2662 374.1312)" class="st21" cx="1145.5" cy="399.1" rx="4.6" ry="2.7"/>
	<path class="st21" d="M1102,341.8c0.6,1.9-0.6,3.8-2.6,4.4c-1.9,0.8-4.1,0.1-5-1.6c-0.6-1.9,0.6-3.8,2.6-4.3
		C1098.8,339.3,1101.1,340,1102,341.8"/>
	<path class="st21" d="M1129.1,359c0.9,1.9,0,4.1-2.1,5c-2.2,0.6-4.4-0.4-5-2.4l0,0c-0.9-1.9,0-4.1,2.1-5
		C1126.2,355.8,1128.5,357,1129.1,359L1129.1,359"/>
	<path class="st21" d="M1133.8,337.9c0.9,1.9,0,4.1-2.1,5c-2.2,0.6-4.4-0.4-5.1-2.4l0,0c-0.9-1.9,0-4.1,2.1-5
		C1130.9,334.9,1133.2,335.9,1133.8,337.9L1133.8,337.9"/>
	<path class="st21" d="M1116.5,329.2c0.8,1.8-0.6,4-2.8,4.8c-2.3,0.8-4.8,0-5.6-1.8c-0.8-1.8,0.6-4,2.8-4.8
		C1113.2,326.6,1115.8,327.5,1116.5,329.2"/>
	<path class="st22" d="M1127.5,337.6c1-1,2.6-1.3,3.9-0.5c1.4,0.6,2.1,2,1.6,3.3c0.8-1.4,0.2-3.1-1.3-3.9
		C1130.3,335.8,1128.4,336.2,1127.5,337.6C1127.6,337.6,1127.5,337.6,1127.5,337.6z"/>
	<path class="st22" d="M1122.6,358.8c1-1,2.6-1.3,3.9-0.5c1.4,0.6,2.1,2,1.6,3.3c0.8-1.4,0.2-3.1-1.3-3.9
		C1125.4,357,1123.5,357.4,1122.6,358.8C1122.7,358.8,1122.6,358.8,1122.6,358.8z"/>
	<path class="st22" d="M1146.1,350.1c1.5-0.4,3,0.3,3.5,1.6c0.8,1.1,0.5,2.7-0.7,3.7c1.5-0.7,2.1-2.5,1.3-3.9
		C1149.5,350.1,1147.6,349.5,1146.1,350.1L1146.1,350.1z"/>
	<path class="st22" d="M1148,376.6c-0.9-1.1-0.7-2.7,0.3-3.7c0.9-1,2.6-1.4,3.9-0.6c-1.3-1-3.2-0.9-4.3,0.2l0,0
		C1146.7,373.8,1146.7,375.6,1148,376.6z"/>
	<path class="st22" d="M1103.2,371.4c-0.5-1.4,0.1-2.7,1.5-3.3c1.3-0.8,3-0.6,3.9,0.4c-0.9-1.4-2.7-1.7-4.2-0.9l0,0
		C1102.8,368.3,1102.4,370,1103.2,371.4z"/>
	<path class="st22" d="M1076.6,365.3c0,0-0.5-1.8,3.1-3.7s4.9-0.7,4.9-0.7c-0.7-1-3-0.8-5.2,0.4
		C1077.1,362.6,1076.1,364.3,1076.6,365.3z"/>
	<path class="st22" d="M1100.7,341.6c0.5,1.4-0.1,2.7-1.5,3.4c-1.3,0.8-3,0.6-3.9-0.3c0.9,1.3,2.7,1.7,4.2,0.8l0,0
		C1101,344.7,1101.6,342.9,1100.7,341.6z"/>
	<path class="st22" d="M1110,333.2c-0.8-1.1-0.7-2.7,0.5-3.7c0.9-1,2.6-1.4,3.9-0.6c-1.3-1-3.2-0.9-4.3,0.1l0,0
		C1108.9,330.3,1108.9,332.1,1110,333.2z"/>
	<path class="st22" d="M1128.8,387.6c0,0,0.2,1.8-3.4,3.4c-3.6,1.7-5,0.3-5,0.3c0.6,1,2.8,1,5.2,0
		C1128,390.3,1129.4,388.6,1128.8,387.6z"/>
	<path class="st22" d="M1149.1,398.3c0,0,0,0.9-2.5,2.1c-2.5,1.1-3.3,0.5-3.3,0.5c0.2,0.5,1.8,0.4,3.4-0.3
		C1148.3,399.9,1149.3,398.8,1149.1,398.3z"/>
	<path class="st22" d="M1096.1,397.8c-1-1-1-2.6-0.1-3.7c0.8-1.1,2.4-1.7,3.8-1.1c-1.4-0.8-3.3-0.5-4.2,0.7l0,0
		C1094.5,395.1,1094.7,396.9,1096.1,397.8z"/>
	<polygon class="st9" points="1121.3,533.5 1123.7,533 1124.6,530.6 1127,531.1 1130.3,531.5 1138.3,534.8 1137.6,532.3 1137,530 
		1136,526.5 1136.5,525.5 1138.1,525.5 1139.3,524.7 1140,523.6 1140.3,522.8 1140.3,520.3 1142,520.5 1144.2,519.9 1146.3,523.9 
		1150.9,529.7 1151,524.6 1152.1,521.9 1153.3,517.6 1154,517.5 1155.7,518.3 1158,518.3 1159.7,517.8 1162,516.4 1163.2,527.9 
		1166.9,520.3 1168.4,520.3 1169.9,519.7 1170.9,519 1172.1,520.3 1173.4,521 1169.2,526.9 1167.7,531.6 1167,540.4 1167.3,547.2 
		1168.7,554.9 1170.9,560.9 1176.1,577.6 1173.8,578.1 1169.9,578.7 1166.4,579.9 1163.4,581.2 1160.3,582.4 1157.8,583.6 
		1153.1,585.8 1152,581.9 1151.5,578.1 1151.4,575.3 1151,572 1150.3,568.8 1149.6,565.5 1146.7,558.3 1144.6,556 1141.9,552.2 
		1139.9,548.8 1137.4,545.5 1135.9,542.8 1132.6,540.4 1129.6,538.1 1125.9,535.7 	"/>
	
		<ellipse transform="matrix(0.9491 -0.3149 0.3149 0.9491 -124.0003 396.8604)" class="st23" cx="1166.2" cy="582.2" rx="12.6" ry="1.8"/>
	<polygon class="st24" points="1095,511.4 1092.6,507.9 1093.6,504 1096.7,500.9 1101.6,500.2 1104.3,501.7 1102.4,497.9 
		1104.7,493.7 1106.6,492.9 1108.6,494 1110.1,490.2 1113.1,487.3 1115.9,487.1 1117.5,487.9 1119.1,484.8 1122.2,481.4 
		1124.6,478.7 1127.7,477.4 1130.9,477 1134.1,477.3 1136.7,478.8 1140.9,481.1 1143.1,477.2 1145.1,475 1147.5,474.2 1152.5,475.4 
		1155.4,477 1157.2,479.8 1158.9,481.3 1161.5,482.5 1163,484.6 1162.3,486.7 1158.8,487.6 1162.1,488.5 1164.7,490.7 1165.6,492.4 
		1163.8,494.3 1161.6,496.5 1157.8,494.8 1154.6,493.4 1151.8,495.3 1149,497.8 1145.7,499.4 1141.9,500.8 1136.3,501.4 1133,502.7 
		1131.4,504.5 1131,506.4 1127,507.6 1124.7,510.2 1117.3,511 1109.9,511.4 1103.6,511.7 	"/>
	<polygon class="st24" points="1147.9,473.4 1151.6,471.9 1156.5,472.2 1161.1,473.7 1163.4,476.5 1162.3,478.1 1166.3,476.8 
		1172.1,477.8 1173.6,478.9 1172.8,480.1 1177.7,480.7 1182.2,482.2 1183.3,483.9 1182.6,484.8 1187,485.5 1192,487.1 1195.8,488.3 
		1198.2,489.9 1199.6,491.7 1200.2,493.6 1199.1,495.3 1197.6,497.8 1202.9,498.8 1206.1,499.8 1207.8,501.2 1207.6,504.1 
		1206.4,505.9 1203.6,507.1 1202.2,508.2 1201.4,509.8 1199.3,510.8 1196.6,510.6 1194.5,508.5 1194.4,510.5 1192.4,512.2 
		1190.5,512.8 1187.7,511.8 1184.6,510.8 1185.4,508.4 1186.4,506.5 1183.3,505.1 1179.4,503.6 1176.6,501.8 1173.8,499.7 
		1171.6,496.5 1169.1,494.7 1166.3,494 1163.9,493.8 1161.4,491.6 1157.7,490.5 1154.6,486.3 1152,482 1149.9,478.5 	"/>
	<polygon class="st24" points="1132.6,540.4 1132,542.6 1130,544 1127.6,544.5 1125.5,543.6 1125.1,542.2 1124.3,544.3 
		1121.6,545.5 1120.6,545.4 1120.3,544.4 1118.2,545.7 1115.9,546.2 1114.7,545.5 1114.6,544.7 1112.6,545.7 1110,546.3 
		1108.1,546.9 1106.5,546.6 1105.1,546 1104.1,545 1103.7,543.8 1103.2,541.8 1100.7,542.8 1099.1,543.3 1097.8,543 1096.6,541.3 
		1096.1,539.8 1096.7,538.1 1096.7,537.1 1096.2,535.9 1096.6,534.7 1097.7,534 1099.4,534.5 1098.6,533.2 1098.5,531.7 1099,530.7 
		1100.4,530.3 1102,530 1102.8,531.7 1103.3,533.1 1105.1,532.9 1107.2,532.6 1109.1,532.8 1111,533.1 1113.3,534.3 1115.1,534.6 
		1116.4,534.2 1117.4,533.5 1119.4,534.1 1121.3,533.5 1124.4,535 1127.2,536.7 1129.6,538.1 	"/>
	<polygon class="st24" points="1102,530 1103.3,533.1 1107.2,532.6 1111,533.1 1113.3,534.3 1115.1,534.6 1116.4,534.2 
		1117.4,533.5 1119.4,534.1 1123.7,533 1124.6,530.6 1127,531.1 1127.6,530.5 1129.1,529.7 1129.6,528.3 1131.1,528.4 1133,527.8 
		1134.7,527 1136,526.5 1136.5,525.5 1138.1,525.5 1139.3,524.7 1140.3,522.8 1140.3,520.3 1142,520.5 1144.2,519.9 1145.5,519 
		1146.5,518 1146.9,515.9 1149,517 1151,517.3 1153.3,517.6 1154,517.5 1155.7,518.3 1158,518.3 1159.7,517.8 1161.1,517 
		1162,516.4 1162.4,517.2 1163.2,517.6 1164.3,517.7 1165.4,517.2 1165.6,518 1165.9,518.8 1166.2,519.8 1166.9,520.3 1168.4,520.3 
		1169.9,519.7 1170.9,519 1172.1,520.3 1173.4,521 1175.2,520.2 1175.9,518.9 1177.5,520.4 1178.9,520.1 1180.2,519.8 1181.5,518.7 
		1182.5,517.3 1182.8,515.7 1182.4,513.9 1182.2,513.1 1184.2,512.4 1186.2,511.1 1187.3,510 1187.9,508.6 1187.5,507.4 
		1187.6,505.5 1187.3,504.1 1186,503.8 1184.2,504.2 1185.7,502.1 1186.7,499.8 1187.2,497.3 1186.5,495.1 1185.2,493.1 
		1183.5,491.6 1181.8,491.3 1178.7,492 1178.2,490.3 1176.7,489.1 1175.3,488.4 1173.7,488.8 1172,489.2 1170.2,487.5 1167.9,486 
		1165.2,484.9 1161.9,484.7 1158.7,486 1156.6,487.5 1156.1,486.1 1154,484.8 1150.9,484.3 1148.3,484.9 1145.3,485.7 1143.1,486.2 
		1141.1,487.1 1140.3,488.3 1139.8,489.9 1140.1,492.1 1138.7,492.2 1137,491.9 1135.3,492.3 1136,494.4 1134.5,493.8 1132.8,493.9 
		1131,494.5 1129.3,496.4 1127.3,498 1126.3,500.2 1127.8,502.8 1126.3,501.9 1124.6,502.7 1123,501.6 1120.2,501.8 1116.7,502.6 
		1113.2,503.8 1111.3,505.5 1109.7,507.1 1108.8,510 1110.1,511.6 1107.7,510.9 1105.3,511.2 1103.4,512.4 1103.4,514.3 1104,515.7 
		1106.5,517.5 1102.9,517.7 1100.7,519.4 1099.8,521.4 1099.1,524.1 1098.8,526.7 1099.4,528.7 1100.4,530.3 	"/>
	<polygon class="st24" points="1168.1,530.2 1169.9,532.3 1172.2,532.8 1174.5,532.3 1175.7,530.2 1175.2,528.5 1177.1,530.5 
		1180,530.6 1180.7,529.9 1180.3,528.7 1182.7,529 1184.9,528.4 1185.5,527.2 1185.2,526.2 1187.3,526.3 1189.7,525.8 1191.6,525.5 
		1192.9,524.5 1193.6,523.1 1193.9,521.5 1193.4,519.9 1192.8,517.4 1195.4,517.4 1197,517.1 1197.8,516.2 1197.8,513.5 
		1197.3,511.8 1196,510.2 1195.4,509 1195,507.5 1194.1,506.2 1192.8,505.9 1191.7,507.4 1191.6,505.6 1190.8,503.8 1189.9,502.9 
		1188.5,503.2 1187,503.6 1187.3,505.8 1187.7,507.7 1186.2,508.4 1184.3,509 1182.8,510.2 1181.5,511.5 1180.3,513.9 1179.1,515.1 
		1177.7,515.3 1176.6,515 1175.3,516.5 1173.5,516.9 1171.8,520 1170.4,523.3 1169.3,526.1 	"/>
	<polygon class="st24" points="1096.2,539.8 1092.6,540.6 1090,539.9 1088.7,538.3 1090,535.9 1092.2,534.8 1088.5,535.4 
		1086.1,534.1 1086.2,533.1 1087.8,532.3 1085.5,531.3 1084.3,529.7 1085.2,528.3 1086.5,527.7 1084.6,526.7 1083.1,525.1 
		1082,523.7 1082.1,522.3 1083,520.7 1084.5,519.3 1086.5,518.1 1089.8,516.3 1087.7,515.1 1086.8,513.9 1087,512.8 1089.8,510.6 
		1092.1,509.3 1095.1,508.6 1096.9,508 1098.8,506.8 1101,506.3 1102.4,506.7 1101.7,508.5 1103.7,507 1106.4,506 1108.1,505.7 
		1108.9,506.6 1109.8,507.8 1107.1,509.4 1104.7,510.8 1105.1,512.3 1106,513.7 1106,515.4 1105.7,517.3 1104,519.9 1103.7,521.5 
		1104.7,522.4 1105.9,522.8 1105.3,524.7 1106.4,525.9 1104.3,529.5 1101.9,532.9 1099.8,535.8 	"/>
	<path class="st24" d="M1108.1,507c-10,28.4-6.6,6.5-6.6,6.5"/>
	
		<ellipse transform="matrix(0.9628 -0.2702 0.2702 0.9628 -98.358 319.0371)" class="st24" cx="1109.6" cy="516.8" rx="5.6" ry="13.1"/>
	<ellipse transform="matrix(0.9761 -0.2173 0.2173 0.9761 -89.6315 252.8795)" class="st24" cx="1105" cy="534" rx="4.8" ry="2.3"/>
	<polygon class="st25" points="1246.7,523.2 1246.7,559.5 1355.4,547.5 1355.4,500.8 1352.9,495.7 1348.8,491.5 1343.7,487.7 
		1338.4,484.8 1334.2,482.6 1329.5,481.1 1324.4,479.7 1319.2,479.7 	"/>
	<ellipse class="st3" cx="1273.5" cy="549.5" rx="6.4" ry="5.9"/>
	<ellipse class="st3" cx="1299.9" cy="511.2" rx="6.4" ry="5.3"/>
	<ellipse class="st3" cx="1284.9" cy="508.2" rx="1.6" ry="1.5"/>
	<ellipse class="st3" cx="1332.5" cy="528.6" rx="10.6" ry="9.8"/>
	<ellipse class="st3" cx="1312.2" cy="494.8" rx="5.4" ry="2.6"/>
	<ellipse class="st3" cx="1331.4" cy="495.3" rx="2.8" ry="4.9"/>
	<polygon class="st3" points="1246.7,540.7 1249.8,541.6 1252.3,544.8 1252.3,548.1 1252.3,551.4 1250.2,554.3 1246.7,555.4 	"/>
	<polygon class="st3" points="1279.5,503 1280,505 1278.1,507.9 1275.5,509.5 1272.7,511.3 1269.6,511.8 1267.4,510.6 	"/>
	<ellipse class="st3" cx="1285.7" cy="534.6" rx="3.6" ry="5.9"/>
	<ellipse class="st3" cx="1263.3" cy="535.8" rx="4.1" ry="3.7"/>
	<polygon class="st3" points="1300.7,553.7 1308.5,552.7 1309.4,551.2 1309.6,548.3 1308.8,546.1 1307.1,544.6 1304.8,543.7 
		1302.6,544.4 1301.2,545.5 1299.6,547.3 1299.4,550.1 1299.3,551.6 	"/>
	<line class="st26" x1="1246.7" y1="523.2" x2="1355.4" y2="500.8"/>
	<path class="st4" d="M1327.8,524.1c0,0,2.5-2.6,7.3-0.1c4.8,2.5,3.8,5.8,3.8,5.8c1.3-2.1-0.2-5-3.3-6.6
		C1332.5,521.6,1329.1,522,1327.8,524.1z"/>
	<path class="st4" d="M1295.8,508.5c0,0,1.9-2.1,5.5-0.3s2.6,4.5,2.6,4.5c1-1.7,0-4-2.3-5.1C1299.3,506.4,1296.7,506.8,1295.8,508.5
		z"/>
	<path class="st4" d="M1269.4,547.4c0,0,1.9-2.1,5.5-0.3c3.5,1.8,2.6,4.5,2.6,4.5c1-1.7,0-4-2.3-5.1S1270.4,545.8,1269.4,547.4z"/>
	<path class="st4" d="M1329,494.6c0,0,0.3-2.2,2.4-2.1s2.3,2.3,2.3,2.3c0.3-1.1-0.3-2.4-1.6-2.7c-1.3-0.3-2.6,0.3-3,1.5
		C1329,493.9,1329,494.3,1329,494.6L1329,494.6z"/>
	<path class="st4" d="M1310.8,493c-1.1,0.1-1.9,1-1.9,2c0,1.7,2.1,1.9,2.1,1.9c-1.3,0.1-2.4-0.7-2.6-1.9
		C1308.5,493.8,1309.5,492.9,1310.8,493z"/>
	<path class="st4" d="M1277.5,504.5c0,0,0.9,2.1-2.5,4.3c-3.4,2.2-5.2,0.6-5.2,0.6c0.9,1.3,3.4,1.3,5.6-0.1
		C1277.5,508,1278.4,505.8,1277.5,504.5z"/>
	<path class="st4" d="M1265.6,534.2c0.6,1.3,0.1,2.6-1.1,3.3c-1.1,0.8-2.7,0.7-3.8-0.2c0.9,1.3,2.7,1.5,4.1,0.6l0,0
		C1266.2,537.2,1266.5,535.5,1265.6,534.2z"/>
	<path class="st4" d="M1285.5,539.1c0,0,2.4-0.6,2.2-4.6c-0.2-4-2.6-4.4-2.6-4.4c1.7-0.1,3.2,1.9,3.3,4.4
		C1288.5,537,1287.3,539,1285.5,539.1z"/>
	<path class="st4" d="M1248.4,554c0,0,2.4-0.8,2.2-5.6c-0.2-4.8-2.7-5.4-2.7-5.4c1.7-0.1,3.2,2.3,3.3,5.3
		C1251.2,551.3,1250,553.9,1248.4,554z"/>
	<path class="st4" d="M1301.5,547.1c0,0,1.6-1.8,4.6-0.2s2.3,3.8,2.3,3.8c0.8-1.4,0-3.2-1.9-4.2
		C1304.5,545.5,1302.3,545.8,1301.5,547.1z"/>
	<path class="st27" d="M1107.1,735c-0.7,1-1.3,2.2-1.7,3.3c-0.9,1.9-1.1,2.3-1.6,2.5c-0.9,0.2-1.9,0.1-2.8-0.3
		c-0.8-0.3-0.8-0.7-1.7-1c-0.6-0.2-1.1-0.3-1.7-0.4c-0.6-0.1-1.3-0.2-1.8-0.3c-0.6-0.2-1.1-0.4-1.5-0.8c-0.6-0.5-0.9-1.1-1-1.9
		c-0.3-1.9,1.1-3.4,2.1-4.5c0.8-0.7,1.6-1.5,2.2-2.3c0.5-0.6,0.8-1.4,1-2.1c0.5-1.4,0.2-1.8,0.6-3c0.3-1.1,1-2.3,1.8-3.2
		c0.7-1,1.6-2,2.5-2.9c1.5-1.6,1.9-1.5,3.2-2.8c0.9-0.9,1.7-2,2.4-3c1.5-2.3,1.4-2.8,2.4-4.3c0.8-1.1,1-1.1,4.1-4.2
		c2.4-2.3,4.1-4.1,5.1-5.2c1.4-1.4,2.5-2.7,3.6-4.2c1.8-2.4,1.5-2.7,2.8-4.1c1.9-2,3-1.6,4.6-3.3c1.4-1.6,0.7-1.8,2.2-3.9
		c1-1.5,1.6-1.6,3.9-3.9c1-1,0.8-0.8,2.4-2.7s3.3-3.7,5.1-5.2c0.9-0.7,1.1-0.8,2.5-2c1-0.7,2.1-1.7,2.7-2.7c0.7-1.1,0.3-1.4,1.3-2.8
		c0.7-1.1,0.9-1,1.6-2.2c1.1-1.8,0.8-2.4,1.7-2.9c0.5-0.3,1.3-0.3,2.8-0.3c1.4,0,2.7,0.1,4.1,0.3c1.3,0.3,2.6,0.7,3.8,1.3
		c1.1,0.4,2.3,0.9,3.4,1.5c1.7,0.9,3.3,2.1,4.7,3.3c2.5,2,2.2,1.9,3.6,3c2.3,1.8,2.7,1.7,4.6,3.1c1.3,1,2.4,2.2,3.4,3.3
		c1.9,2.1,2.3,2.7,4.3,5c3,3.3,3,2.9,4.7,5s1.5,2.3,4.1,5.6c1,1.4,2.1,2.6,3.2,3.9c1.4,1.3,2.6,2.5,3.6,3.9c1.5,1.9,1.6,2.8,1.5,3.5
		s-0.5,0.7-0.6,1.5c-0.2,0.8,0,1.7,0.5,2.4c0.3,0.5,1,0.7,2.3,1.1c0.9,0.3,1.8,0.6,2.7,0.8h0.2c1.1,0.2,1.6,0.2,1.6,0.3
		c-1.8,0.3-3.6,0.5-5.6,0.4c-0.8,0-1.6,0.1-2.4,0.3c-0.8,0.3-1.5,0.6-2.2,1c-0.8,0.5-1.7,0.8-2.6,1.1c-1,0.2-1.1-0.1-2.8-0.1
		c-1.4,0-2.6,0.2-3.9,0.6c-0.8,0.3-1.5,0.7-2.2,1.1c-1,0.8-1.9,1.7-2.7,2.6c-0.9,0.8-1.9,1.6-3.1,2.2c-1.4,0.5-2.8,0.8-4.3,0.8
		c-2.2,0.1-2.4-0.4-5.1-0.4c-1.1,0-2.4,0.1-3.5,0.3c-1.5,0.1-3,0.4-4.4,0.8c-1,0.3-2.1,0.7-3.1,1.3c-2.3,1.3-2.1,2.1-4.2,3.2
		c-1.1,0.7-2.5,1.3-3.9,1.4s-1.8-0.2-3.2,0.2c-1,0.3-1.8,0.7-2.6,1.5c-0.9,0.7-0.9,1-2.4,2.9c-0.6,0.9-1.4,1.7-2.3,2.3
		c-1,0.5-2.3,0.7-3.4,0.6c-1.1,0-2.3-0.3-3.2-0.8c-0.8-0.4-0.8-0.6-1.8-1.1c-0.7-0.3-1.5-0.6-2.3-0.8c-0.9-0.2-1.8-0.4-2.7-0.4
		c-1-0.2-2.1-0.2-3,0c-0.8,0.3-1.6,0.8-2.2,1.5c-0.7,0.7-1.4,1.5-2.1,2.2c-1.5,1.7-1.8,1.8-2.1,2c-0.9,0.4-1.8,0.6-2.8,0.5
		c-0.9,0-1.7-0.1-2.5-0.3c-0.9-0.3-1.7-0.6-2.5-1c-0.8-0.3-1.7-0.6-2.5-0.7c-0.7,0-1.4,0-2.2,0.1c-1.7,0.1-1.7,0-1.8,0.1
		C1108.5,733.2,1107.6,734,1107.1,735z"/>
	<polygon class="st28" points="1154.1,660.2 1154.6,658.2 1156.1,655.5 1158,653.9 1160.9,652.9 1164.7,652.1 1167.9,651.6 
		1170.3,651.6 1173.8,652.7 1176.8,654.1 1180.6,655.4 1184.8,657.3 1189.8,660.2 1194.4,663.5 1198.2,666.1 1202,669.7 1205.3,672 
		1209.7,677.5 1213.5,682.8 1217.5,688.2 1219.2,692 1220.1,695.2 1221.4,700.2 1221.6,702.3 1205.3,704.4 1205.8,701 1205.4,698 
		1202.8,695.7 1200.3,693.2 1197.7,691.6 1195.4,688.1 1193.4,684.6 1190.8,681.8 1187.9,679.4 1184.6,676 1183.2,673.9 
		1181.1,672.6 1178.2,669.6 1174.5,667.7 1171.6,665.5 1168.1,663 1166.8,661.8 1164.2,660.1 1161.1,660.3 1157,660 	"/>
	<ellipse transform="matrix(0.988 -0.1543 0.1543 0.988 -97.5028 181.8945)" class="st8" cx="1123" cy="719.1" rx="13.1" ry="9.9"/>
	
		<ellipse transform="matrix(0.9786 -0.2057 0.2057 0.9786 -120.0326 250.0525)" class="st8" cx="1142.6" cy="702.3" rx="11.5" ry="6.9"/>
	<ellipse transform="matrix(0.9717 -0.2362 0.2362 0.9717 -135.924 295.327)" class="st8" cx="1164.7" cy="715" rx="11" ry="6.9"/>
	
		<ellipse transform="matrix(0.9793 -0.2026 0.2026 0.9793 -116.0927 253.3315)" class="st8" cx="1179.4" cy="693.8" rx="15.9" ry="10"/>
	
		<ellipse transform="matrix(0.8995 -0.4368 0.4368 0.8995 -178.494 572.227)" class="st8" cx="1154.9" cy="674.2" rx="12.2" ry="6.7"/>
	<polyline class="st29" points="1155.3,701.5 1159.8,700.6 1158.8,699.2 	"/>
	<polyline class="st29" points="1136.9,683.8 1140.3,686.5 1141.1,685.1 	"/>
	<polyline class="st29" points="1171.3,674.2 1174.8,676.9 1175.6,675.6 	"/>
	<polyline class="st29" points="1140.2,712.3 1143.5,715.1 1144.3,713.6 	"/>
	<polyline class="st29" points="1177,708.5 1182.1,712.7 1183.1,710.6 	"/>
	<polyline class="st29" points="1193.1,705.1 1193,699.9 1190.9,700.6 	"/>
	<polyline class="st29" points="1140.8,724.2 1145.3,723.2 1144.3,721.9 	"/>
	<polygon class="st30" points="1383.9,567.5 1383.9,571.9 1381.3,576.8 1377.1,581.4 1372.6,585.7 1369.3,588.5 1366,592.1 
		1364.8,596.3 1363.7,601 1362.6,605.1 1358.6,609.2 1361.5,614.2 1362.8,618.3 1363.5,622.2 1364.1,625 1365.7,628.4 1369.1,631.5 
		1373,634 1376.3,636.6 1378.3,639.9 1380,643.8 1380.5,646.8 1380.5,649.8 1379.7,652 1378.8,647.6 1376.6,644.2 1374.7,642.6 
		1372.4,640.9 1369.7,639.4 1367.2,638.3 1363.7,637.2 1360.4,635.6 1357.4,635.1 1354.7,633.5 1353,632.2 1350.1,630.1 
		1349.1,628.6 1348,626.8 1347.4,625.2 1346.9,623.3 1346.3,621.4 1345.5,619.6 1344.7,617.1 1343.9,615.6 1341.8,616.4 1340.1,618 
		1337.6,623.8 1334.7,628.6 1336.5,628.2 1338.2,628.2 1340.3,628.8 1341.8,629.4 1343.3,630.2 1345,631.3 1346.4,632.7 
		1347.3,634.2 1347.8,636.1 1348.2,638.9 1348.9,641.6 1350.1,643.6 1352,646.1 1354.6,649.2 1348.9,647.7 1346.1,646.9 
		1342.6,645.3 1338.9,643.3 1335.1,640.8 1332.5,638.3 1330.1,636.1 1327.7,633.4 1325.9,634.2 1319.9,636.4 1312,638.3 
		1305.7,638.8 1299.9,638.5 1300.7,638.9 1302.3,639.9 1303.7,640.5 1305.4,640.9 1307.2,641.4 1308.9,642.1 1310.3,642.9 
		1311.6,643.9 1313.1,645.5 1313.8,647.4 1314.4,649.6 1315.5,652 1316.4,653.4 1318,653.6 1319.7,654.8 1321.3,656.3 1322.4,657.9 
		1323.8,660.4 1325.9,664.4 1324.5,662.3 1322.7,661 1320.6,659.9 1318.6,659 1315.2,657.9 1312.3,657 1309.8,656.2 1307.8,655.2 
		1305,653.9 1302.6,652.5 1300.4,650.6 1297.5,647.8 1295.7,645.3 1294.8,645.9 1294.3,647.1 1293.8,649 1293.8,653.1 1293.2,654.5 
		1291.9,656.3 1290.9,657.3 1289.2,658.9 1287.7,660.5 1286.8,662.4 1286.8,664.2 1287.3,666.5 1289.2,670.6 1286.8,668.7 
		1284.6,666.2 1283.7,663.8 1283.2,661.1 1283.2,654.8 1283.7,651.8 1284.7,648.1 1286,644.4 1287.3,641.4 1288.8,638 1290.4,635 
		1289,634.2 1282.2,630.8 1276.9,627.6 1272,623.8 1269.9,621.4 1267.8,618.8 1270.5,616.7 1268.9,614.8 1267.8,613.2 1269.1,611.3 
		1274.1,609.1 1278.1,605.8 1282.8,602.5 1282.8,602.5 1282.2,602.5 1283.9,595.8 1285.1,590.7 1287,585.6 1290.9,581.4 
		1294.9,577.9 1298.8,575.3 1304.9,573.1 1311.4,571.4 1316.4,570.4 1321.2,568.8 1326.2,565.9 1322.2,570.4 1320.5,573.9 
		1319.9,578.1 1320.3,580.6 1322.4,584.3 1325.3,586.1 1328.7,589.7 1330.5,592.8 1332.2,596.6 1332.7,599.2 1333.4,599.6 
		1336.6,601.9 1339.6,602.7 1341.4,601.4 1344.9,598.2 1348.9,594.5 1352.2,590 1355.6,584.9 1359.5,581.9 1362.8,579 1368,576.7 
		1371.6,575.7 1374.1,575.7 1376.6,574.7 1380.3,571.7 	"/>
	<path d="M1294.5,595.9c0.1-0.8,1.6-4.7,1.6-4.7l1.6-2.7l2.8-3.7l2.8-3.1l4.6-3.1"/>
	<polyline points="1295.3,595.9 1297.4,593.3 1302,589.6 1305.9,586.6 1308.1,584.4 1310.6,582.3 1312.6,580.2 1313.7,578.6 
		1315.4,575.9 	"/>
	<polyline points="1288.4,594.5 1288.4,591.4 1289.5,588.7 1291.7,586.6 	"/>
	<polyline points="1301.4,593.8 1305.4,591.7 1309.4,590 1313.2,588.1 1315.9,585.9 1318.8,582.3 	"/>
	<polyline points="1316.8,591.1 1319.5,589.9 1322.1,588 1323.3,585.9 	"/>
	<polyline points="1323.8,594.5 1325.7,594.2 1327.1,593 1327.8,591.6 	"/>
	<polyline points="1344.1,605 1348.3,603.1 1351.4,600.3 1354.2,597.4 1356.7,594.5 1359.6,591.1 1361.6,588.5 1364.8,585.9 
		1367,583.8 1370,582.3 1372.1,582.3 1374.6,581.8 1375.9,581.8 	"/>
	<polyline points="1343.1,608.3 1346,608.3 1349.5,606.4 1353.8,604 1356.2,601.7 1358.4,599.6 1361.1,597.2 1362.8,595.8 
		1364.5,594.3 1365.8,593.8 	"/>
	<polyline points="1346,608.3 1349.9,608.3 1353,607.1 1355.3,605.8 1357.5,605 1359.1,603 1360.1,601.7 1362.1,601 1363.3,601 	"/>
	<polyline points="1347.2,610.6 1350.5,610.6 1354.6,612.8 1357.4,615.1 1359.5,618.3 1361.7,620.9 1363.3,623.6 	"/>
	<polyline points="1347.8,614.9 1350.7,615.9 1353.4,617.6 1355.2,619.9 1357.5,622.2 1359.3,624.6 1361,626.9 1363.3,629.3 
		1367.7,631.8 	"/>
	<polyline points="1347.8,618.3 1350.5,621 1352.3,623.6 1353.8,627 1356.3,629.9 1360.1,632.8 1364.3,634.9 1367.7,635.6 
		1371.4,636.7 1373.8,637.9 1377.2,640.5 1379,643.5 	"/>
	<polyline points="1298.3,607.7 1298.3,610 1299.2,612.7 1301.4,615.6 1303,619.3 1303,622.1 1302.3,625.3 1300.6,627.5 1298.3,629 
		1295.9,630 1293.9,631.8 	"/>
	<polyline points="1328.2,633.7 1331.5,634.6 1333.9,635.8 1335.7,637.2 1337.4,639.4 	"/>
	<polyline points="1331.1,632.3 1334.6,632.3 1337.4,633 1340.1,633.7 1342.3,635 1344.1,637.4 	"/>
	<polyline points="1336.4,635.7 1340.4,637.4 1343.1,639.4 1346,641.3 1347.8,642.7 	"/>
	<polyline points="1290.6,636.5 1289.1,640.4 1288.2,643.5 1287.3,646 1285.3,649.8 	"/>
	<polyline points="1291.5,637.9 1290.6,644.3 1288.7,648.4 1287,652.2 1284.7,655.9 	"/>
	<polyline points="1293.9,637.9 1297.3,644.3 1301.2,647.8 1304.9,651.2 1308.3,653 1314.5,655.9 	"/>
	<polyline points="1298.4,638.6 1299.9,641.2 1302.4,643.1 1305.7,644.3 1309.3,645.2 	"/>
	<ellipse cx="1285.9" cy="612.7" rx="5.6" ry="5"/>
	<ellipse class="st4" cx="1284.2" cy="613.4" rx="2.4" ry="2.1"/>
	<polyline points="1310,599.5 1312.7,601 1313.5,602.4 1311.8,604 1309.3,604 1315.4,605.6 1315.4,607 1314.5,608.9 1313.8,610.6 
		1312.3,611.7 1311.1,611.7 1309.3,610.6 1311.8,613.4 1312,614.9 1311.6,616.4 1310,615.5 1311.4,618.3 1311.4,619.8 1310.6,621.4 
		1308.1,621.8 1309.3,622.9 1310,624.2 1309.3,625.8 1308.1,626.8 1306.5,626.8 	"/>
	<ellipse class="st17" cx="1294.1" cy="757.6" rx="52.2" ry="40.8"/>
	<path class="st4" d="M1305,740.4c0,0,4-4.6,14.5,0.6c10.5,5.2,9.6,11.3,9.6,11.3c1.7-3.7-2.3-9.4-8.9-12.6S1306.7,736.7,1305,740.4
		z"/>
	<polygon class="st31" points="1285.5,728.6 1281.8,726.4 1279,725.2 1275.4,721.6 1272.9,718.2 1269.1,715.2 1266.9,713.4 
		1262.4,712.9 1259.4,712.9 1256.4,715.8 1259.2,715.3 1262.2,715.2 1265.5,716.2 1268.4,719.2 1271.8,722.5 1275.4,726.6 
		1281.2,730.9 1288.5,733.8 1286.5,735.5 1282.4,737.2 1276.7,736.8 1271.9,735.2 1268.4,733 1263.8,729.8 1265.9,733.9 
		1270.7,738.1 1275.1,740 1280.3,741.1 1286.2,740.3 1291.1,739 1293.4,738.7 1296.5,739.2 1300,740.5 1303.6,741.8 1306.9,743.5 
		1309,746.2 1313.5,751.5 1312.6,745.8 1310.3,741.8 1308.3,739.8 1304.1,737 1300.1,735.2 1305,734.9 1308.7,734.6 1313,734.2 
		1316.9,734.2 1320.8,734.2 1322.8,734.6 1320,732.2 1316.5,732.2 1313.8,731.3 1310.8,731 1306.7,731.3 1303.3,732.2 1300.6,732.2 
		1304.2,728.5 1309.3,724.3 1313.4,720.7 1315.4,716.5 1317.1,710.7 1317.7,707.2 1317.6,704.4 1316.5,701.9 1315.4,700.8 
		1315.5,703.4 1315.1,707.1 1314.5,710 1313.6,712.2 1312.2,714.5 1310,717.2 1306.4,719.5 1303.8,721.6 1302.1,723.2 1300.8,725.2 
		1299.4,727.2 1297.4,728.3 1297.3,726.2 1297.5,721.1 1298.2,717.4 1297.3,711.1 1296.8,706.4 1296.4,702.1 1295.2,696.5 
		1294.4,691.2 1292.8,694.7 1292.3,697.9 1292.4,701 1292.6,705.4 1293.1,708.7 1293.6,712.6 1294.5,714.9 1294,717.9 1293,720.6 
		1292.2,723.8 1292.3,727.1 1293.9,730.3 1294.7,731.8 1295.3,733.3 1291.9,734.5 1290.6,732.3 1288.3,727 1286.1,722.8 1283.8,719 
		1282.2,716.7 1281.6,720.6 1281.8,723 1282.9,725.2 	"/>
	<polygon class="st24" points="1291.9,734.5 1295.3,733.3 1292.3,727.1 1292.2,723.8 1285.7,712.6 1285.7,715 1284.3,715.8 
		1282.2,716.7 1288.8,728.4 	"/>
	<ellipse transform="matrix(0.785 -0.6195 0.6195 0.785 -166.7637 949.131)" class="st31" cx="1284" cy="714.8" rx="2.6" ry="1.4"/>
</g>
<rect x="760.4" y="418.1" class="st32" width="2.2" height="1.3"/>
</svg>
