<svg xmlns="http://www.w3.org/2000/svg" width="1595" height="886" viewBox="0 0 1595 886"><defs><style>.cls-1{fill:#f6bbd5;}.cls-2{fill:#f2d7de;}.cls-3{fill:#f9f6ca;}.cls-4{fill:#fcf6ce;}.cls-5{fill:#fff;}.cls-6{fill:#edcbc4;}.cls-7{fill:#f0e9e7;}.cls-8{fill:#fcfbf9;}.cls-9{fill:#e5132c;}.cls-10{fill:#d6e4c2;}.cls-11{fill:#ea4293;}.cls-12{fill:#c92d7f;}.cls-13{fill:#c1ceab;}.cls-14{fill:#453991;}.cls-15{fill:#6d68a5;}.cls-16{fill:#472823;}.cls-17{fill:#6d4844;}.cls-18{fill:#c40a2a;}.cls-19{fill:#bacc96;}.cls-20{fill:#c8d8ad;}.cls-21{fill:#bf9358;}.cls-22{fill:#513531;}.cls-23{fill:#fcd8bc;}.cls-24{fill:#8e9b78;}.cls-25{fill:#53681f;}.cls-26{fill:#fce368;}.cls-27{fill:#fbffc9;stroke:#fcf6ce;stroke-miterlimit:10;stroke-width:0.5px;}.cls-28{fill:#f7d26b;}.cls-29{fill:#f4c582;}.cls-30{fill:#065b28;}.cls-31{fill:#777691;}.cls-32{fill:#04561d;}</style></defs><g id="Gode_dårlige_ting" data-name="Gode dårlige ting"><rect class="cls-1" x="99" y="19" width="1277" height="849" rx="89.07"/><path class="cls-2" d="M392.92,619.94c7.71,4.87,12.49,11.6,12.49,19,0,7-4.18,13.31-11.05,18.08,27.91,9.13,51.06,30.24,59.17,51.48,11.24,29.4-76.33,33.72-96.42,33.12s-99.07-11-75.66-41.52c17-22.11,29.1-35.91,50.32-42.78-7.12-4.8-11.49-11.27-11.49-18.38,0-8.33,6-15.77,15.41-20.71-56.07-20.41-70-89-87-188.34-9.89-57.76-17-99.12-3.2-123.64,20.12,17.26,72.81,13.55,95.07,13,23-.53,109.23.92,138.87-17.94,19.76,10.06,14.65,30.22,10.95,84.89C484.45,473.85,454.8,595.33,392.92,619.94Z"/><path class="cls-3" d="M310.09,249.45c2.67.14,5.31.34,7.88.61C315.26,249.91,312.63,249.72,310.09,249.45Z"/><path class="cls-3" d="M417.88,245.74a132.52,132.52,0,0,1-19,3.66C405.18,248.09,411.58,246.82,417.88,245.74Z"/><path class="cls-4" d="M310.09,249.45c2.67.14,5.31.34,7.88.61C315.26,249.91,312.63,249.72,310.09,249.45Z"/><path class="cls-4" d="M417.88,245.74a132.52,132.52,0,0,1-19,3.66C405.18,248.09,411.58,246.82,417.88,245.74Z"/><path class="cls-5" d="M477.46,274.4c5.11-5.21,6.07-11.25.87-18.09-4.24-5.59-10-9.07-16.84-11,1.93-1.2,2.92-2.5,2.74-3.88-.6-4.64-11.32-8.68-25.64-12-.75-6.2-8.43-13.86-26.91-23.11-66.22-33.16-1.91-49.26-50.53-36.5-47.63,12.52-79.9,39.41-79.63,62.18-20,5.68-34,13.28-29,22.74a14.55,14.55,0,0,0,3,3.87c-8.27,4.66-13.55,11.21-13.55,20-3.15,2.84-4.79,6.87-4.36,12.47a21.59,21.59,0,0,0,7.91,15.23c20.12,17.26,72.81,13.55,95.07,13,23-.53,109.23.92,138.87-17.94,5.6-3.55,9.17-7.83,9.93-13C490.34,281.76,485.7,277.29,477.46,274.4ZM310.09,249.45c2.67.14,5.31.34,7.88.61C315.26,249.91,312.63,249.72,310.09,249.45Zm88.78,0c6.31-1.31,12.71-2.58,19-3.66A132.52,132.52,0,0,1,398.87,249.4Z"/><path class="cls-5" d="M310.09,249.45c2.67.14,5.31.34,7.88.61C315.26,249.91,312.63,249.72,310.09,249.45Z"/><path class="cls-5" d="M417.88,245.74a132.52,132.52,0,0,1-19,3.66C405.18,248.09,411.58,246.82,417.88,245.74Z"/><polygon class="cls-6" points="310.09 242.17 291.41 250.06 224.93 115.7 243.61 107.81 310.09 242.17"/><ellipse class="cls-7" cx="234.18" cy="111.58" rx="10.09" ry="1.93" transform="translate(-24.94 99.4) rotate(-22.79)"/><path class="cls-8" d="M310.81,362.58c.3-3.13-14.41-10.15-30.18-11.44s-35.86,2.13-36.16,5.27,20.06-3.06,35.83-1.77S310.51,365.72,310.81,362.58Z"/><path class="cls-8" d="M406.18,364.4c0-3.06-18.68-8.51-37.88-8.32s-43,5.29-43,8.35,23.82-4.77,43-4.95S406.21,367.45,406.18,364.4Z"/><path class="cls-8" d="M488.68,356.47c-.31-2.72-17-6.19-33.67-4.61s-36.92,7.91-36.62,10.63,20.29-6,37-7.6S489,359.2,488.68,356.47Z"/><path class="cls-8" d="M327.94,505.46c9.31,48.52,29.15,94.05,27.85,94.26s-20.73-37.19-30-85.71S309.68,401.42,311,401.21,318.63,456.94,327.94,505.46Z"/><path class="cls-8" d="M409.33,494.89c-6.43,48.92-26,95.11-24.43,95.29s21.53-37.84,28-86.76,8.18-113.37,6.58-113.55S415.76,446,409.33,494.89Z"/><path class="cls-8" d="M389.44,659.89c0,1.69-11.23,5-22.92,5.11s-26.27-2.32-26.3-4,14.58,2.3,26.27,2.13S389.41,658.21,389.44,659.89Z"/><path class="cls-8" d="M389.44,620.31c0,1.69-11.23,4.94-22.92,5.11s-26.27-2.33-26.3-4,14.58,2.3,26.27,2.13S389.41,618.63,389.44,620.31Z"/><path class="cls-8" d="M428.73,715.57c0,1.79-28.6,13-59.07,13.48s-69.23-9.45-69.26-11.23,37.75,7.37,68.22,6.94S428.7,713.79,428.73,715.57Z"/><ellipse cx="426.19" cy="229.5" rx="46.47" ry="17.98" transform="translate(-55.9 273.09) rotate(-33.47)"/><ellipse class="cls-5" cx="422.27" cy="224.58" rx="46.46" ry="16.32" transform="translate(-53.65 271.96) rotate(-33.69)"/><ellipse cx="415.94" cy="217.65" rx="46.48" ry="18.74" transform="translate(-51.16 264.53) rotate(-33.35)"/><path class="cls-5" d="M574.72,207.83c-.64,1.61-1.44,1.78-2.55.65-2.23-2.42-3.82-7.26-1.44-16,4-14.68,19-45.33,33-67.59-5.41-.49-8.28-2.91-10.19-6.46-.8-1.61-.32-2.42,1.75-2.74,13.38-1.61,25.33-8.23,36-8.71,8.12-.32,15.13,2.1,19,13.07,3.35,9.67,1.12,19.51-4.94,27.74-8.6,11.62-25.8,21.78-43.48,26,6.05,7.59,11.79,15.33,15.13,22.1,2.23,4.36,2.87,9.84.8,13.07-.8,1.29-1.59,1.78-2.55.32-10.51-14.52-18.79-25-26.28-33.39C584.59,184.44,580,194.6,574.72,207.83Zm32.65-65.65c-4.3,7.74-8.29,14.51-12.59,22.42,35.2-7.91,53.2-31.46,48.58-42.91-3.5-9-19.43-.65-29.94,2.26C613.42,128.46,611.67,134.11,607.37,142.18Z"/><path class="cls-5" d="M658.33,205.25c13.22.65,24.85-12.26,31.7-22.91.79-1.29,2.07-1.29,2.7.16.64,1.29.16,5.81-2.7,10-6.69,9.84-19,17.26-31.22,17.42-20.23.32-27.24-19.84-16.88-40.65s26.59-29.2,34.56-24.52a29.8,29.8,0,0,1,9.4,8.39c2.86,3.87,1.59,13.71-5.1,21.93-7.81,9.68-18.48,13.88-29.63,4.68C646.07,194.6,649.89,204.77,658.33,205.25Zm13.22-37.1c5.1-6.78,8.6-15.17,6.37-16.94-3.34-2.74-16.56,6.94-24,22.26-.48,1-1,1.94-1.27,2.74C660.4,181.21,666.93,174.28,671.55,168.15Z"/><path class="cls-5" d="M722.68,214c-8.76,21.62-20.07,47.27-33,52.43-3.19,1.29-6.37.81-9.24-3.39-3.35-4.84-6.21-10.48-3.19-20,4.62-14.52,18.32-24.36,34.09-30.49,1.59-3.55,3-7.42,4.62-11.13-4.62,4.68-10.2,8.06-16.09,8.06-14.65,0-17.52-20.16-4.62-39.52,12.42-18.71,25.32-26,33.45-26,6.37,0,9.55,5,9.39,10.65,1.92-3.23,3.67-6.13,5.26-8.88,1.27-2.25,2.87-2.42,4-1,2.39,2.9,3.66,9.84-.32,17.74-4.77,9.68-14.81,29.2-21.5,44.85a79.76,79.76,0,0,0,28.51-24.2c1-1.29,2.39-1.29,2.71.32.32,1.45-.48,5-3.19,9.36C747.36,202.67,735.89,209.12,722.68,214Zm-39,43.4c2.07,3.06,14.66-13.72,25-38.24C688,231.38,681,253.48,683.65,257.36Zm47.47-105.18c-4.94-.33-16.57,10-25.33,24-8.6,13.88-10.35,28.07-4,28.23,6.21.17,14.34-10,22.46-24.19C734.3,162.5,735.73,152.5,731.12,152.18Z"/><path class="cls-5" d="M766,204.93c7.65.64,18.8-11,25-23.39,1.11-2.1,2.87-2.26,3.5,0,.8,2.58.16,6.13-1.59,10-2.23,4.84-13.86,18.23-26.6,17.9-11-.32-16.88-8.06-13.22-25.48,5.9-28.07,24-57.27,40.3-74.37,2.39-2.58,4.62-2.9,6.85-.81,4.61,4.2,5.57,10.17,3.66,17.75-4.94,19.84-22.78,39.2-36.95,48.55C760.58,190.89,758.83,204.28,766,204.93Zm32.49-81.79c-2.07-1.29-13.85,16.62-24.84,37.26a85.39,85.39,0,0,0-3.82,7.75C791.64,150.24,800.56,124.43,798.48,123.14Z"/><path class="cls-5" d="M871.91,209.77c-12.11-.65-16.89-11.62-12.9-24.68,3.34-10.81,12.9-22.75,19.74-30.49a36.77,36.77,0,0,1-19.11,6.13c-13.22,28.07-30.42,48.39-49.37,48.71-20.23.33-27.08-19.68-16.72-40.32,10-20,26.28-29,34.24-24.36a29.33,29.33,0,0,1,9.4,8.22c2.7,3.88,1.11,13.39-5.26,21.62-7.49,9.84-18.16,13.87-29.31,4.84-5.09,14.68-1.11,25.17,7,25.49,17.52.8,35-24.68,43.8-45.17-12.26-5.16,3.35-26.62,10-26.94,4.94-.16,3.35,9.68-.63,20.16,5.57-.8,11.15-3.38,17.36-7.58,1.91-1.29,3.34-2.1,4.46-.48,3.18,3.55,7.17,11.29,2.39,16.61-7.49,8.39-15.61,19.36-18.32,28.07-2.71,8.87-.8,15.33,4,15.49,6.69.32,14.82-10.33,19.91-22.26.64-1.29,1.75-1.62,2.39-.16.8,1.77,1.12,6-.79,10.48C890.22,202.83,880.67,210.25,871.91,209.77ZM822.85,168c5.1-6.62,8.44-15,6.37-16.78-3.5-3.07-16.56,7.1-23.89,21.94-.48.81-.79,1.93-1.27,2.74C811.86,180.73,818.07,174.12,822.85,168Z"/><path class="cls-5" d="M589.32,320a7.79,7.79,0,0,1-.46,2.8,6.09,6.09,0,0,1-1.23,2,5.28,5.28,0,0,1-3.88,1.66h-3.34v10.25H578.2v-23h5.36a7.1,7.1,0,0,1,2,.3,4.6,4.6,0,0,1,1.86,1A5.51,5.51,0,0,1,588.8,317,7.49,7.49,0,0,1,589.32,320Zm-2.21,0a5.72,5.72,0,0,0-.29-2,3.59,3.59,0,0,0-.8-1.35,3.33,3.33,0,0,0-1.17-.76,4.07,4.07,0,0,0-1.42-.24h-3v8.83h3.05a3.45,3.45,0,0,0,2.58-1.12A4.77,4.77,0,0,0,587.11,320Z"/><path class="cls-5" d="M594.52,315.68a1.54,1.54,0,0,1-.42,1.12,1.34,1.34,0,0,1-1,.44,1.3,1.3,0,0,1-1-.44,1.57,1.57,0,0,1-.4-1.12,1.59,1.59,0,0,1,.4-1.1,1.29,1.29,0,0,1,1-.46,1.32,1.32,0,0,1,1,.46A1.63,1.63,0,0,1,594.52,315.68Zm-2.47,21V320.62h2.11v16.09Z"/><path class="cls-5" d="M605.83,336.71,602.66,330l-3.14,6.75h-2.34l4.23-8.47-3.88-7.62h2.37l2.79,6.06,2.75-6.06h2.31l-3.81,7.59,4.29,8.5Z"/><path class="cls-5" d="M613.68,315.68a1.54,1.54,0,0,1-.42,1.12,1.36,1.36,0,0,1-2,0,1.57,1.57,0,0,1-.4-1.12,1.59,1.59,0,0,1,.4-1.1,1.34,1.34,0,0,1,2,0A1.59,1.59,0,0,1,613.68,315.68Zm-2.47,21V320.62h2.12v16.09Z"/><path class="cls-5" d="M619.42,329.12a12.47,12.47,0,0,0,.22,2.45,7.2,7.2,0,0,0,.66,1.95,3.72,3.72,0,0,0,1.1,1.3,2.64,2.64,0,0,0,1.56.47,2.52,2.52,0,0,0,1.87-.72,4.91,4.91,0,0,0,1.09-1.72l1.6.94a6.11,6.11,0,0,1-1.71,2.45,4.27,4.27,0,0,1-2.9,1,4.64,4.64,0,0,1-4.13-2.27,11.35,11.35,0,0,1-1.48-6.26,15.21,15.21,0,0,1,.38-3.48,9.11,9.11,0,0,1,1.11-2.72,5.39,5.39,0,0,1,1.75-1.77,4.42,4.42,0,0,1,2.32-.63,4.36,4.36,0,0,1,2.38.61,4.68,4.68,0,0,1,1.58,1.69,7.93,7.93,0,0,1,.88,2.5A16.41,16.41,0,0,1,628,328v1.17Zm6.44-1.79a8.85,8.85,0,0,0-.74-3.91A2.45,2.45,0,0,0,622.8,322a2.24,2.24,0,0,0-1.56.56,4.43,4.43,0,0,0-1,1.4,6.57,6.57,0,0,0-.58,1.77,9,9,0,0,0-.18,1.65Z"/><path class="cls-5" d="M647.87,328.7a14.35,14.35,0,0,1-.38,3.47,9.29,9.29,0,0,1-1.09,2.69,5.08,5.08,0,0,1-1.75,1.76,4.7,4.7,0,0,1-4.63,0,5.33,5.33,0,0,1-1.74-1.76,9,9,0,0,1-1.11-2.69,14.35,14.35,0,0,1-.38-3.47,15.91,15.91,0,0,1,.36-3.51,9.16,9.16,0,0,1,1.08-2.73,5.2,5.2,0,0,1,1.74-1.75,4.56,4.56,0,0,1,2.36-.61,4.47,4.47,0,0,1,2.32.61,5.14,5.14,0,0,1,1.75,1.75,9.44,9.44,0,0,1,1.09,2.73A14.75,14.75,0,0,1,647.87,328.7Zm-2.17-.05a15.85,15.85,0,0,0-.21-2.66,8.29,8.29,0,0,0-.63-2.12,4,4,0,0,0-1-1.41,2.28,2.28,0,0,0-1.49-.51,2.36,2.36,0,0,0-1.51.51,3.93,3.93,0,0,0-1,1.41,9.21,9.21,0,0,0-.61,2.12,15.89,15.89,0,0,0-.2,2.66,15.24,15.24,0,0,0,.2,2.62,9.58,9.58,0,0,0,.61,2.11,3.76,3.76,0,0,0,1,1.41,2.53,2.53,0,0,0,3,0,3.76,3.76,0,0,0,1-1.41,9.06,9.06,0,0,0,.61-2.11A15.2,15.2,0,0,0,645.7,328.65Z"/><path class="cls-5" d="M661.85,336.49a16.73,16.73,0,0,1-.28,3.18,7.5,7.5,0,0,1-.91,2.53,4.68,4.68,0,0,1-1.73,1.69,5.47,5.47,0,0,1-2.72.61,6.1,6.1,0,0,1-2.94-.73,6,6,0,0,1-2.19-2l1.38-1.49a5,5,0,0,0,1.62,1.62,4,4,0,0,0,2.19.62,3.06,3.06,0,0,0,1.75-.46,3,3,0,0,0,1.07-1.26,6.69,6.69,0,0,0,.55-1.92,18,18,0,0,0,.16-2.43v-2.66h-.07a5.56,5.56,0,0,1-1.28,2.43,3.26,3.26,0,0,1-2.53,1,3.62,3.62,0,0,1-2.15-.65,5.25,5.25,0,0,1-1.57-1.8,9.75,9.75,0,0,1-1-2.72,16.87,16.87,0,0,1-.33-3.46,16.63,16.63,0,0,1,.32-3.44,9.47,9.47,0,0,1,.94-2.68,5,5,0,0,1,1.57-1.75,3.81,3.81,0,0,1,2.17-.63,3.54,3.54,0,0,1,2.45.89,4.47,4.47,0,0,1,1.36,2.35h.1v-2.72h2.05Zm-2.05-7.82a15.57,15.57,0,0,0-.21-2.63,8.13,8.13,0,0,0-.64-2.15,4.12,4.12,0,0,0-1.08-1.43,2.4,2.4,0,0,0-3,0,3.88,3.88,0,0,0-1,1.42,7.82,7.82,0,0,0-.61,2.12,17.2,17.2,0,0,0-.19,2.67,16.51,16.51,0,0,0,.19,2.61,8,8,0,0,0,.61,2.12,3.76,3.76,0,0,0,1,1.43,2.39,2.39,0,0,0,3,0,4,4,0,0,0,1.06-1.41,7.83,7.83,0,0,0,.64-2.11A15.53,15.53,0,0,0,659.8,328.67Z"/><path class="cls-5" d="M672.84,336.71v-23h2.24V334.6h6.48v2.11Z"/><path class="cls-5" d="M694.09,328.7a14.34,14.34,0,0,1-.39,3.47,9,9,0,0,1-1.09,2.69,5.14,5.14,0,0,1-1.74,1.76,4.5,4.5,0,0,1-2.33.61,4.43,4.43,0,0,1-2.31-.61,5.33,5.33,0,0,1-1.74-1.76,9,9,0,0,1-1.11-2.69,14.87,14.87,0,0,1-.38-3.47,15.31,15.31,0,0,1,.37-3.51,8.89,8.89,0,0,1,1.07-2.73,5.14,5.14,0,0,1,1.75-1.75,4.79,4.79,0,0,1,4.68,0,5.2,5.2,0,0,1,1.74,1.75,9.16,9.16,0,0,1,1.09,2.73A14.74,14.74,0,0,1,694.09,328.7Zm-2.18-.05a15.85,15.85,0,0,0-.21-2.66,8.29,8.29,0,0,0-.63-2.12,3.93,3.93,0,0,0-1-1.41,2.26,2.26,0,0,0-1.49-.51,2.33,2.33,0,0,0-1.5.51,3.84,3.84,0,0,0-1,1.41,8.75,8.75,0,0,0-.6,2.12,15.85,15.85,0,0,0-.21,2.66,15.2,15.2,0,0,0,.21,2.62,9.07,9.07,0,0,0,.6,2.11,3.68,3.68,0,0,0,1,1.41,2.38,2.38,0,0,0,1.5.5,2.41,2.41,0,0,0,1.51-.5,3.66,3.66,0,0,0,1-1.41,9.06,9.06,0,0,0,.61-2.11A15.2,15.2,0,0,0,691.91,328.65Z"/><path class="cls-5" d="M698.06,336.71V312.18h2.12v24.53Z"/><path class="cls-5" d="M711.78,336.71a5,5,0,0,1,0-.64c0-.26,0-.54,0-.83s0-.57,0-.85v-.69h-.06q-.81,3.44-3.85,3.44a3.8,3.8,0,0,1-1.35-.26,3.38,3.38,0,0,1-1.21-.85,4.46,4.46,0,0,1-.9-1.47,6.92,6.92,0,0,1,.25-5,4.91,4.91,0,0,1,1.54-1.68,5.37,5.37,0,0,1,2-.83,11.23,11.23,0,0,1,2.1-.21h1.25V326a5,5,0,0,0-.77-3.08,2.51,2.51,0,0,0-2.08-1,3.09,3.09,0,0,0-1.67.48,5,5,0,0,0-1.32,1.24l-1.12-1.34a5,5,0,0,1,1.93-1.65,5.31,5.31,0,0,1,2.37-.58,3.89,3.89,0,0,1,3.55,1.65,9,9,0,0,1,1.06,4.84v6.68c0,.22,0,.49,0,.81l0,1c0,.33,0,.64,0,.94s0,.52.06.69Zm-.26-8.17h-1.28a8,8,0,0,0-1.54.14,3.58,3.58,0,0,0-1.36.55,3.16,3.16,0,0,0-1,1.12,3.88,3.88,0,0,0-.38,1.85,3.39,3.39,0,0,0,.73,2.44,2.23,2.23,0,0,0,3.13.19,4.08,4.08,0,0,0,1-1.39,7.64,7.64,0,0,0,.53-1.85,12,12,0,0,0,.16-1.95Z"/><path class="cls-5" d="M728.82,336.71h-2.49l-4.27-16.09h2.25l3.3,13.82h.06l3.14-13.82H733Z"/><path class="cls-5" d="M738.47,315.68a1.54,1.54,0,0,1-.42,1.12,1.36,1.36,0,0,1-2,0,1.57,1.57,0,0,1-.4-1.12,1.59,1.59,0,0,1,.4-1.1,1.34,1.34,0,0,1,2,0A1.59,1.59,0,0,1,738.47,315.68Zm-2.47,21V320.62h2.12v16.09Z"/><path class="cls-5" d="M743.05,336.71V312.18h2.12v24.53Z"/><path class="cls-5" d="M766,336.49a17.62,17.62,0,0,1-.27,3.18,7.72,7.72,0,0,1-.91,2.53,4.7,4.7,0,0,1-1.74,1.69,5.45,5.45,0,0,1-2.72.61,6.23,6.23,0,0,1-5.13-2.69l1.38-1.49a5.22,5.22,0,0,0,1.62,1.62,4,4,0,0,0,2.19.62,3.06,3.06,0,0,0,1.75-.46,3,3,0,0,0,1.07-1.26,6.69,6.69,0,0,0,.55-1.92,16.52,16.52,0,0,0,.16-2.43v-2.66h-.06a5.68,5.68,0,0,1-1.29,2.43,3.25,3.25,0,0,1-2.53,1,3.62,3.62,0,0,1-2.15-.65,5.25,5.25,0,0,1-1.57-1.8,9.75,9.75,0,0,1-1-2.72,16.17,16.17,0,0,1-.34-3.46,17.35,17.35,0,0,1,.32-3.44,9.17,9.17,0,0,1,1-2.68,5,5,0,0,1,1.57-1.75,3.8,3.8,0,0,1,2.16-.63,3.54,3.54,0,0,1,2.45.89,4.41,4.41,0,0,1,1.36,2.35h.1v-2.72h2Zm-2-7.82a15.57,15.57,0,0,0-.21-2.63,8.13,8.13,0,0,0-.64-2.15,4.23,4.23,0,0,0-1.07-1.43,2.42,2.42,0,0,0-3,0,4.12,4.12,0,0,0-1,1.42,7.82,7.82,0,0,0-.61,2.12,17.2,17.2,0,0,0-.19,2.67,16.51,16.51,0,0,0,.19,2.61,8,8,0,0,0,.61,2.12,4,4,0,0,0,1,1.43,2.26,2.26,0,0,0,1.49.52,2.22,2.22,0,0,0,1.49-.52,4,4,0,0,0,1.06-1.41,7.83,7.83,0,0,0,.64-2.11A15.53,15.53,0,0,0,764,328.67Z"/><path class="cls-5" d="M772.12,329.12a12.47,12.47,0,0,0,.22,2.45,7.2,7.2,0,0,0,.66,1.95,3.72,3.72,0,0,0,1.1,1.3,2.64,2.64,0,0,0,1.56.47,2.51,2.51,0,0,0,1.87-.72,4.77,4.77,0,0,0,1.09-1.72l1.61.94a6.23,6.23,0,0,1-1.72,2.45,4.25,4.25,0,0,1-2.9,1,4.64,4.64,0,0,1-4.13-2.27A11.35,11.35,0,0,1,770,328.7a14.66,14.66,0,0,1,.39-3.48,8.85,8.85,0,0,1,1.1-2.72,5.32,5.32,0,0,1,1.76-1.77,4.74,4.74,0,0,1,4.69,0,4.79,4.79,0,0,1,1.59,1.69,8.19,8.19,0,0,1,.87,2.5,15.58,15.58,0,0,1,.28,3.05v1.17Zm6.44-1.79a8.85,8.85,0,0,0-.74-3.91A2.44,2.44,0,0,0,775.5,322a2.28,2.28,0,0,0-1.56.56,4.58,4.58,0,0,0-1,1.4,6.94,6.94,0,0,0-.58,1.77,9,9,0,0,0-.18,1.65Z"/><path class="cls-5" d="M788.14,321.07a2.9,2.9,0,0,1,2.12-.94,1.74,1.74,0,0,1,.38,0l-.06,2.21-.24-.05-.28,0a2.13,2.13,0,0,0-1.42.55,4.3,4.3,0,0,0-1,1.43,8.09,8.09,0,0,0-.63,2,12.08,12.08,0,0,0-.21,2.22v8.21h-2.11v-12c0-.34,0-.72,0-1.12s0-.79,0-1.17,0-.72,0-1,0-.56-.05-.73h2.05c0,.41.08.92.1,1.54s0,1.27,0,2h.06A6.11,6.11,0,0,1,788.14,321.07Z"/><path class="cls-5" d="M801.44,336.71V326.33c0-.5,0-1-.08-1.51a4.72,4.72,0,0,0-.35-1.4,2.78,2.78,0,0,0-.77-1,2,2,0,0,0-1.3-.4,2.35,2.35,0,0,0-1.42.44,3.56,3.56,0,0,0-1.06,1.2,6.72,6.72,0,0,0-.68,1.75,8.73,8.73,0,0,0-.24,2.06v9.28h-2.11v-12c0-.34,0-.72,0-1.12s0-.79,0-1.17,0-.72,0-1,0-.56-.05-.73h2.05c0,.41.08.9.1,1.49s0,1.13,0,1.65h.06a5.79,5.79,0,0,1,1.48-2.64,3.9,3.9,0,0,1,4.63-.47,3.66,3.66,0,0,1,1.2,1.44,6.61,6.61,0,0,1,.56,2,16.82,16.82,0,0,1,.15,2.23v10.38Z"/><path class="cls-5" d="M809.52,329.12a12.47,12.47,0,0,0,.22,2.45,7.2,7.2,0,0,0,.66,1.95,3.72,3.72,0,0,0,1.1,1.3,2.64,2.64,0,0,0,1.56.47,2.51,2.51,0,0,0,1.87-.72,4.91,4.91,0,0,0,1.09-1.72l1.61.94a6.23,6.23,0,0,1-1.72,2.45,4.27,4.27,0,0,1-2.9,1,4.64,4.64,0,0,1-4.13-2.27,11.35,11.35,0,0,1-1.48-6.26,14.66,14.66,0,0,1,.39-3.48,8.85,8.85,0,0,1,1.1-2.72,5.39,5.39,0,0,1,1.75-1.77,4.42,4.42,0,0,1,2.32-.63,4.36,4.36,0,0,1,2.38.61,4.68,4.68,0,0,1,1.58,1.69,7.93,7.93,0,0,1,.88,2.5,16.41,16.41,0,0,1,.27,3.05v1.17Zm6.44-1.79a8.85,8.85,0,0,0-.74-3.91A2.45,2.45,0,0,0,812.9,322a2.26,2.26,0,0,0-1.56.56,4.43,4.43,0,0,0-1,1.4,6.57,6.57,0,0,0-.58,1.77,9,9,0,0,0-.18,1.65Z"/><path class="cls-5" d="M827.85,336.71V312.18H830v24.53Z"/><path class="cls-5" d="M841.56,336.71c0-.17,0-.38,0-.64s0-.54,0-.83,0-.57,0-.85v-.69h-.07q-.79,3.44-3.84,3.44a3.8,3.8,0,0,1-1.35-.26A3.42,3.42,0,0,1,835,336a4.61,4.61,0,0,1-.89-1.47,6.78,6.78,0,0,1,.25-5,4.91,4.91,0,0,1,1.54-1.68,5.37,5.37,0,0,1,2-.83,11.15,11.15,0,0,1,2.1-.21h1.25V326a5,5,0,0,0-.77-3.08,2.53,2.53,0,0,0-2.09-1,3.06,3.06,0,0,0-1.66.48,4.87,4.87,0,0,0-1.32,1.24l-1.12-1.34a5,5,0,0,1,1.92-1.65,5.31,5.31,0,0,1,2.38-.58,3.89,3.89,0,0,1,3.55,1.65,9,9,0,0,1,1.06,4.84v6.68c0,.22,0,.49,0,.81l0,1c0,.33,0,.64.05.94s0,.52.06.69Zm-.25-8.17H840a8,8,0,0,0-1.54.14,3.51,3.51,0,0,0-1.36.55,3.06,3.06,0,0,0-1,1.12,3.87,3.87,0,0,0-.39,1.85,3.39,3.39,0,0,0,.74,2.44,2.21,2.21,0,0,0,1.6.74,2.19,2.19,0,0,0,1.52-.55,4,4,0,0,0,1-1.39,8.12,8.12,0,0,0,.53-1.85,13.25,13.25,0,0,0,.16-1.95Z"/><path class="cls-5" d="M852.68,336.71h-2.5l-4.26-16.09h2.25l3.3,13.82h.06l3.14-13.82h2.18Z"/><path class="cls-5" d="M861,329.12a12.47,12.47,0,0,0,.22,2.45,7.2,7.2,0,0,0,.66,1.95,3.72,3.72,0,0,0,1.1,1.3,2.64,2.64,0,0,0,1.56.47,2.52,2.52,0,0,0,1.87-.72,4.91,4.91,0,0,0,1.09-1.72l1.6.94a6.11,6.11,0,0,1-1.71,2.45,4.27,4.27,0,0,1-2.9,1,4.64,4.64,0,0,1-4.13-2.27,11.35,11.35,0,0,1-1.48-6.26,15.21,15.21,0,0,1,.38-3.48,9.11,9.11,0,0,1,1.11-2.72,5.39,5.39,0,0,1,1.75-1.77,4.42,4.42,0,0,1,2.32-.63,4.36,4.36,0,0,1,2.38.61,4.68,4.68,0,0,1,1.58,1.69,7.93,7.93,0,0,1,.88,2.5,16.41,16.41,0,0,1,.27,3.05v1.17Zm6.44-1.79a8.85,8.85,0,0,0-.74-3.91A2.45,2.45,0,0,0,864.4,322a2.24,2.24,0,0,0-1.56.56,4.61,4.61,0,0,0-1,1.4,6.92,6.92,0,0,0-.57,1.77,9,9,0,0,0-.18,1.65Z"/><path class="cls-5" d="M586,375.67v-2.89H586a5.78,5.78,0,0,1-1.28,2.43,3.28,3.28,0,0,1-2.53,1,3.66,3.66,0,0,1-2.15-.64,5.27,5.27,0,0,1-1.57-1.81,9.45,9.45,0,0,1-1-2.72,16.84,16.84,0,0,1-.34-3.46,17.42,17.42,0,0,1,.32-3.44,9.47,9.47,0,0,1,1-2.68,5,5,0,0,1,1.57-1.75,3.8,3.8,0,0,1,2.16-.63,3.5,3.5,0,0,1,2.44.89,4.52,4.52,0,0,1,1.35,2.35H586V351.13h2.11v24.54Zm0-8.05a16,16,0,0,0-.21-2.67,7.46,7.46,0,0,0-.64-2.12,3.82,3.82,0,0,0-1.07-1.41,2.26,2.26,0,0,0-1.47-.52,2.22,2.22,0,0,0-1.49.52,3.89,3.89,0,0,0-1,1.41,7.83,7.83,0,0,0-.6,2.12,17.16,17.16,0,0,0-.2,2.67,16.47,16.47,0,0,0,.2,2.61,8,8,0,0,0,.6,2.12,3.89,3.89,0,0,0,1,1.43,2.22,2.22,0,0,0,1.49.52,2.26,2.26,0,0,0,1.49-.52,4,4,0,0,0,1-1.43,7.66,7.66,0,0,0,.64-2.12A15.33,15.33,0,0,0,586,367.62Z"/><path class="cls-5" d="M594.16,368.07a12.44,12.44,0,0,0,.23,2.45,7.2,7.2,0,0,0,.66,2,3.7,3.7,0,0,0,1.09,1.3,2.65,2.65,0,0,0,1.57.47,2.49,2.49,0,0,0,1.86-.72,4.79,4.79,0,0,0,1.1-1.72l1.6.94a6.14,6.14,0,0,1-1.71,2.45,4.27,4.27,0,0,1-2.9,1,4.65,4.65,0,0,1-4.14-2.27,11.44,11.44,0,0,1-1.47-6.26,15.21,15.21,0,0,1,.38-3.48,9.22,9.22,0,0,1,1.1-2.72,5.41,5.41,0,0,1,1.76-1.77,4.76,4.76,0,0,1,4.7,0,4.68,4.68,0,0,1,1.58,1.69,8.29,8.29,0,0,1,.88,2.5,16.41,16.41,0,0,1,.27,3v1.17Zm6.44-1.78a8.72,8.72,0,0,0-.74-3.92,2.43,2.43,0,0,0-2.32-1.47,2.28,2.28,0,0,0-1.56.56,4.58,4.58,0,0,0-1,1.4,6.94,6.94,0,0,0-.58,1.77,9,9,0,0,0-.18,1.66Z"/><path class="cls-5" d="M610.19,360a2.88,2.88,0,0,1,2.11-.94,1.92,1.92,0,0,1,.39,0l-.07,2.21-.24-.05-.27,0a2.12,2.12,0,0,0-1.43.56,4.43,4.43,0,0,0-1,1.42,8.09,8.09,0,0,0-.62,2,12.08,12.08,0,0,0-.21,2.22v8.22h-2.12V363.62c0-.34,0-.72,0-1.12l0-1.17c0-.37,0-.72,0-1s0-.56,0-.73h2c0,.41.07.92.09,1.54s0,1.27,0,2h.07A6.15,6.15,0,0,1,610.19,360Z"/><path class="cls-5" d="M616.31,368.07a12.47,12.47,0,0,0,.22,2.45,7.2,7.2,0,0,0,.66,2,3.72,3.72,0,0,0,1.1,1.3,2.64,2.64,0,0,0,1.56.47,2.51,2.51,0,0,0,1.87-.72,4.77,4.77,0,0,0,1.09-1.72l1.61.94a6.16,6.16,0,0,1-1.72,2.45,4.25,4.25,0,0,1-2.9,1,4.64,4.64,0,0,1-4.13-2.27,11.35,11.35,0,0,1-1.48-6.26,14.66,14.66,0,0,1,.39-3.48,9,9,0,0,1,1.1-2.72,5.32,5.32,0,0,1,1.76-1.77,4.74,4.74,0,0,1,4.69,0,4.68,4.68,0,0,1,1.58,1.69,8,8,0,0,1,.88,2.5,16.41,16.41,0,0,1,.27,3v1.17Zm6.44-1.78a8.86,8.86,0,0,0-.74-3.92,2.45,2.45,0,0,0-2.32-1.47,2.28,2.28,0,0,0-1.56.56,4.58,4.58,0,0,0-1,1.4,6.57,6.57,0,0,0-.58,1.77,9,9,0,0,0-.18,1.66Z"/><path class="cls-5" d="M634.77,362.36a3.41,3.41,0,0,0-1.08-1.15,2.7,2.7,0,0,0-1.58-.44,2.12,2.12,0,0,0-1.69.76,3,3,0,0,0-.65,2,2.43,2.43,0,0,0,.64,1.88,6,6,0,0,0,1.92,1.07,8.92,8.92,0,0,1,1.28.63,4.65,4.65,0,0,1,1.14.93,4.44,4.44,0,0,1,1.14,3.15,5.06,5.06,0,0,1-1.27,3.68,4.33,4.33,0,0,1-3.28,1.31,5,5,0,0,1-2.47-.63,5.51,5.51,0,0,1-1.86-1.7l1.28-1.4a5.21,5.21,0,0,0,1.3,1.38,3,3,0,0,0,1.78.54,2.24,2.24,0,0,0,1.81-.83,3.3,3.3,0,0,0,.69-2.19,3.07,3.07,0,0,0-.26-1.32,2.71,2.71,0,0,0-.67-.89,4.58,4.58,0,0,0-1-.62c-.35-.17-.72-.33-1.1-.48a7.83,7.83,0,0,1-1.17-.55,4,4,0,0,1-1-.85,3.91,3.91,0,0,1-.72-1.25,5.62,5.62,0,0,1,.06-3.62,4.21,4.21,0,0,1,1-1.44,4.38,4.38,0,0,1,1.39-.94,4.26,4.26,0,0,1,1.72-.34,4.73,4.73,0,0,1,2.32.53A4.85,4.85,0,0,1,636,361Z"/><path class="cls-5" d="M646.69,368.07a12.47,12.47,0,0,0,.22,2.45,7.2,7.2,0,0,0,.66,2,3.72,3.72,0,0,0,1.1,1.3,2.64,2.64,0,0,0,1.56.47,2.51,2.51,0,0,0,1.87-.72,4.77,4.77,0,0,0,1.09-1.72l1.61.94a6.16,6.16,0,0,1-1.72,2.45,4.25,4.25,0,0,1-2.9,1,4.64,4.64,0,0,1-4.13-2.27,11.35,11.35,0,0,1-1.48-6.26,14.66,14.66,0,0,1,.39-3.48,9,9,0,0,1,1.1-2.72,5.32,5.32,0,0,1,1.76-1.77,4.74,4.74,0,0,1,4.69,0,4.68,4.68,0,0,1,1.58,1.69,8,8,0,0,1,.88,2.5,16.38,16.38,0,0,1,.28,3v1.17Zm6.44-1.78a8.86,8.86,0,0,0-.74-3.92,2.44,2.44,0,0,0-2.32-1.47,2.28,2.28,0,0,0-1.56.56,4.58,4.58,0,0,0-1,1.4,6.94,6.94,0,0,0-.58,1.77,9,9,0,0,0-.18,1.66Z"/><path class="cls-5" d="M669.09,375.44a17.54,17.54,0,0,1-.27,3.18,7.51,7.51,0,0,1-.92,2.53,4.53,4.53,0,0,1-1.73,1.69,5.45,5.45,0,0,1-2.72.62,6.27,6.27,0,0,1-5.13-2.7l1.38-1.49a5.22,5.22,0,0,0,1.62,1.62,4,4,0,0,0,2.19.62,3.06,3.06,0,0,0,1.75-.46,3,3,0,0,0,1.07-1.26,6.69,6.69,0,0,0,.55-1.92,17.9,17.9,0,0,0,.16-2.43v-2.66H667a5.56,5.56,0,0,1-1.28,2.43,3.26,3.26,0,0,1-2.53,1,3.68,3.68,0,0,1-2.15-.64,5.38,5.38,0,0,1-1.57-1.81,9.75,9.75,0,0,1-1-2.72,16.17,16.17,0,0,1-.34-3.46,17.42,17.42,0,0,1,.32-3.44,9.17,9.17,0,0,1,.95-2.68,4.86,4.86,0,0,1,1.57-1.75,3.8,3.8,0,0,1,2.16-.63,3.54,3.54,0,0,1,2.45.89,4.41,4.41,0,0,1,1.36,2.35h.1v-2.72h2.05ZM667,367.62a15.66,15.66,0,0,0-.21-2.63,8.13,8.13,0,0,0-.64-2.15,4.09,4.09,0,0,0-1.07-1.42,2.27,2.27,0,0,0-1.48-.52,2.24,2.24,0,0,0-1.49.52,3.87,3.87,0,0,0-1,1.41,7.82,7.82,0,0,0-.61,2.12,17.2,17.2,0,0,0-.19,2.67,16.51,16.51,0,0,0,.19,2.61,8,8,0,0,0,.61,2.12,3.87,3.87,0,0,0,1,1.43,2.39,2.39,0,0,0,3,0,4,4,0,0,0,1.06-1.41,7.83,7.83,0,0,0,.64-2.11A15.53,15.53,0,0,0,667,367.62Z"/><path class="cls-5" d="M675.18,368.07a12.47,12.47,0,0,0,.22,2.45,7.2,7.2,0,0,0,.66,2,3.72,3.72,0,0,0,1.1,1.3,2.64,2.64,0,0,0,1.56.47,2.51,2.51,0,0,0,1.87-.72,4.77,4.77,0,0,0,1.09-1.72l1.61.94a6.16,6.16,0,0,1-1.72,2.45,4.25,4.25,0,0,1-2.9,1,4.64,4.64,0,0,1-4.13-2.27,11.35,11.35,0,0,1-1.48-6.26,14.66,14.66,0,0,1,.39-3.48,9,9,0,0,1,1.1-2.72,5.32,5.32,0,0,1,1.76-1.77,4.74,4.74,0,0,1,4.69,0,4.68,4.68,0,0,1,1.58,1.69,8,8,0,0,1,.88,2.5,15.58,15.58,0,0,1,.28,3v1.17Zm6.44-1.78a8.86,8.86,0,0,0-.74-3.92,2.44,2.44,0,0,0-2.32-1.47,2.28,2.28,0,0,0-1.56.56,4.58,4.58,0,0,0-1,1.4,6.94,6.94,0,0,0-.58,1.77,9,9,0,0,0-.18,1.66Z"/><path class="cls-5" d="M695.72,375.67V365.28c0-.5,0-1-.08-1.51a4.72,4.72,0,0,0-.35-1.4,2.78,2.78,0,0,0-.77-1,2,2,0,0,0-1.3-.4,2.47,2.47,0,0,0-1.43.44,3.64,3.64,0,0,0-1,1.2,6.72,6.72,0,0,0-.68,1.75,8.73,8.73,0,0,0-.24,2.06v9.29h-2.11V363.62c0-.34,0-.72,0-1.12l0-1.17c0-.37,0-.72,0-1s0-.56,0-.73h2c0,.41.08.9.1,1.49s0,1.14,0,1.65h.06a5.79,5.79,0,0,1,1.48-2.64,3.48,3.48,0,0,1,2.56-1,3.52,3.52,0,0,1,2.07.55,3.66,3.66,0,0,1,1.2,1.44,6.61,6.61,0,0,1,.56,2,16.82,16.82,0,0,1,.15,2.23v10.39Z"/><path class="cls-5" d="M712.2,360.07a3.5,3.5,0,0,1,2.6-1,3.1,3.1,0,0,1,2.54,1.12,3.59,3.59,0,0,1,.67,1.18,9.62,9.62,0,0,1,.37,1.4h.06a6.82,6.82,0,0,1,.54-1.38,5,5,0,0,1,.88-1.19,4.32,4.32,0,0,1,1.22-.83,3.78,3.78,0,0,1,1.54-.3,3.41,3.41,0,0,1,2,.55,3.72,3.72,0,0,1,1.19,1.44,6.63,6.63,0,0,1,.58,2,18.67,18.67,0,0,1,.14,2.23v10.39h-2.11V365.28c0-.5,0-1-.08-1.51a5.42,5.42,0,0,0-.34-1.4,2.63,2.63,0,0,0-.75-1,2,2,0,0,0-1.33-.4,2.4,2.4,0,0,0-1.4.44,3.51,3.51,0,0,0-1,1.2,6.69,6.69,0,0,0-.64,1.75,9.29,9.29,0,0,0-.22,2.06v9.29h-2.12V365.28c0-.5,0-1-.08-1.53a5.4,5.4,0,0,0-.32-1.41,2.31,2.31,0,0,0-.73-1,2,2,0,0,0-1.29-.39,2.33,2.33,0,0,0-1.4.44,3.62,3.62,0,0,0-1,1.2,6.36,6.36,0,0,0-.65,1.75,9.29,9.29,0,0,0-.23,2.06v9.29H708.7V363.62c0-.34,0-.72,0-1.12l0-1.17c0-.37,0-.72,0-1s0-.56,0-.73h2.08c.05.41.08.9.1,1.49s0,1.14,0,1.65h.07A5.21,5.21,0,0,1,712.2,360.07Z"/><path class="cls-5" d="M733.89,354.63a1.54,1.54,0,0,1-.42,1.12,1.36,1.36,0,0,1-2,0,1.57,1.57,0,0,1-.4-1.12,1.59,1.59,0,0,1,.4-1.1,1.34,1.34,0,0,1,2,0A1.59,1.59,0,0,1,733.89,354.63Zm-2.47,21v-16.1h2.12v16.1Z"/><path class="cls-5" d="M738.47,375.67V351.13h2.12v24.54Z"/><path class="cls-5" d="M753.15,375.67l-5.45-8.12h-.06v8.12h-2.12V351.13h2.12v15.54h.06l5.13-7.1h2.53l-5.7,7.46,6.05,8.64Z"/><path class="cls-5" d="M764.21,362.36a3.41,3.41,0,0,0-1.08-1.15,2.72,2.72,0,0,0-1.58-.44,2.12,2.12,0,0,0-1.69.76,3,3,0,0,0-.65,2,2.43,2.43,0,0,0,.64,1.88,5.93,5.93,0,0,0,1.92,1.07,9.46,9.46,0,0,1,1.28.63,4.65,4.65,0,0,1,1.14.93,4.44,4.44,0,0,1,1.14,3.15,5.06,5.06,0,0,1-1.27,3.68,4.33,4.33,0,0,1-3.28,1.31,5,5,0,0,1-2.47-.63,5.51,5.51,0,0,1-1.86-1.7l1.28-1.4a5.21,5.21,0,0,0,1.3,1.38,3,3,0,0,0,1.78.54,2.24,2.24,0,0,0,1.81-.83,3.3,3.3,0,0,0,.69-2.19,3.07,3.07,0,0,0-.26-1.32,2.71,2.71,0,0,0-.67-.89,4.58,4.58,0,0,0-1-.62c-.35-.17-.72-.33-1.1-.48a7.83,7.83,0,0,1-1.17-.55,4,4,0,0,1-1.73-2.1,5.62,5.62,0,0,1,.06-3.62,4.21,4.21,0,0,1,1-1.44,4.38,4.38,0,0,1,1.39-.94,4.23,4.23,0,0,1,1.72-.34,4.73,4.73,0,0,1,2.32.53,4.85,4.85,0,0,1,1.59,1.38Z"/><path class="cls-5" d="M777.06,375.67V365.28c0-.5,0-1-.08-1.51a5.42,5.42,0,0,0-.34-1.4,2.63,2.63,0,0,0-.75-1,2,2,0,0,0-1.3-.4,2.47,2.47,0,0,0-1.43.44,3.81,3.81,0,0,0-1.07,1.2,6.39,6.39,0,0,0-.69,1.75,8.73,8.73,0,0,0-.24,2.06v9.29h-2.11V351.13h2.11v11.49h.07a5.45,5.45,0,0,1,1.43-2.57,3.91,3.91,0,0,1,4.61-.45,3.66,3.66,0,0,1,1.2,1.44,6.91,6.91,0,0,1,.56,2,18.67,18.67,0,0,1,.14,2.23v10.39Z"/><path class="cls-5" d="M790.68,375.67c0-.18,0-.39,0-.65s0-.54,0-.83,0-.57,0-.85v-.69h-.06q-.81,3.44-3.85,3.44a3.71,3.71,0,0,1-1.34-.26,3.33,3.33,0,0,1-1.22-.85,4.63,4.63,0,0,1-.9-1.47,6,6,0,0,1-.35-2.16,5.68,5.68,0,0,1,.61-2.83,4.81,4.81,0,0,1,1.54-1.68,5.48,5.48,0,0,1,2-.83,11.32,11.32,0,0,1,2.1-.21h1.25V365a5,5,0,0,0-.77-3.08,2.51,2.51,0,0,0-2.08-1,3.09,3.09,0,0,0-1.67.48,4.83,4.83,0,0,0-1.31,1.24l-1.12-1.33a4.9,4.9,0,0,1,1.92-1.66,5.31,5.31,0,0,1,2.37-.58,3.9,3.9,0,0,1,3.56,1.65,9.13,9.13,0,0,1,1.05,4.84v6.68c0,.22,0,.49,0,.82l0,1c0,.33,0,.64.05.94s0,.52.07.7Zm-.26-8.18h-1.28a8,8,0,0,0-1.54.14,3.58,3.58,0,0,0-1.36.55,3.16,3.16,0,0,0-1,1.12,4,4,0,0,0-.38,1.85,3.39,3.39,0,0,0,.73,2.44,2.23,2.23,0,0,0,3.13.19,3.74,3.74,0,0,0,1-1.39,7.64,7.64,0,0,0,.53-1.85,12,12,0,0,0,.16-2Z"/><path class="cls-5" d="M804.59,375.67l-5.45-8.12h-.07v8.12H797V351.13h2.11v15.54h.07l5.13-7.1h2.53L801.09,367l6.06,8.64Z"/><path class="cls-5" d="M810.55,368.07a12.47,12.47,0,0,0,.22,2.45,7.2,7.2,0,0,0,.66,2,3.72,3.72,0,0,0,1.1,1.3,2.64,2.64,0,0,0,1.56.47,2.51,2.51,0,0,0,1.87-.72,4.77,4.77,0,0,0,1.09-1.72l1.61.94a6.16,6.16,0,0,1-1.72,2.45,4.25,4.25,0,0,1-2.9,1,4.64,4.64,0,0,1-4.13-2.27,11.35,11.35,0,0,1-1.48-6.26,14.66,14.66,0,0,1,.39-3.48,9,9,0,0,1,1.1-2.72,5.32,5.32,0,0,1,1.76-1.77,4.74,4.74,0,0,1,4.69,0,4.79,4.79,0,0,1,1.59,1.69,8.28,8.28,0,0,1,.87,2.5,16.38,16.38,0,0,1,.28,3v1.17Zm6.44-1.78a8.86,8.86,0,0,0-.74-3.92,2.45,2.45,0,0,0-2.32-1.47,2.28,2.28,0,0,0-1.56.56,4.58,4.58,0,0,0-1,1.4,6.94,6.94,0,0,0-.58,1.77,9,9,0,0,0-.18,1.66Z"/><path class="cls-5" d="M825.45,374.27a1.61,1.61,0,0,1-.43,1.17,1.44,1.44,0,0,1-1.08.45,1.36,1.36,0,0,1-1.05-.45,1.65,1.65,0,0,1-.42-1.17,1.71,1.71,0,0,1,.42-1.14,1.32,1.32,0,0,1,1.05-.48,1.4,1.4,0,0,1,1.08.48A1.67,1.67,0,0,1,825.45,374.27Z"/><path class="cls-5" d="M589.13,414.62V403.71h-8.68v10.91H578.2v-23h2.25V401.7h8.68V391.63h2.25v23Z"/><path class="cls-5" d="M598.62,417a7.28,7.28,0,0,1-.93,3.93,3.44,3.44,0,0,1-3.14,1.46,4.83,4.83,0,0,1-.6-.05,4.72,4.72,0,0,1-.65-.15l.19-1.91a3.13,3.13,0,0,0,.93.16,1.75,1.75,0,0,0,1-.29,2.14,2.14,0,0,0,.64-.78,3.53,3.53,0,0,0,.32-1.14,10,10,0,0,0,.08-1.36V398.55h2.12Zm.32-23.44a1.61,1.61,0,0,1-.4,1.12,1.33,1.33,0,0,1-1,.44,1.28,1.28,0,0,1-1-.44,1.57,1.57,0,0,1-.4-1.12,1.59,1.59,0,0,1,.4-1.1,1.27,1.27,0,0,1,1-.46,1.32,1.32,0,0,1,1,.46A1.63,1.63,0,0,1,598.94,393.58Z"/><path class="cls-5" d="M612,407a12.47,12.47,0,0,0,.22,2.45,7.2,7.2,0,0,0,.66,1.95,3.7,3.7,0,0,0,1.09,1.3,2.64,2.64,0,0,0,1.56.47,2.48,2.48,0,0,0,1.85-.72,4.77,4.77,0,0,0,1.09-1.72l1.61.94a6.16,6.16,0,0,1-1.72,2.45,4.25,4.25,0,0,1-2.9,1,4.18,4.18,0,0,1-3-1.07,5.47,5.47,0,0,1-1.54-3.08,5.17,5.17,0,0,1-1.49,3,4.34,4.34,0,0,1-3.12,1.1,4,4,0,0,1-1.4-.25,3.6,3.6,0,0,1-1.25-.83,4.33,4.33,0,0,1-.91-1.46,5.82,5.82,0,0,1-.35-2.16,5.1,5.1,0,0,1,.61-2.65,4.49,4.49,0,0,1,1.53-1.59,5.77,5.77,0,0,1,2-.76,12.13,12.13,0,0,1,2.1-.19h1.25v-.91a6.1,6.1,0,0,0-.75-3.31,2.39,2.39,0,0,0-2.1-1.17,3.09,3.09,0,0,0-1.67.48,4.83,4.83,0,0,0-1.31,1.24l-1.13-1.33a5,5,0,0,1,1.93-1.66,5.31,5.31,0,0,1,2.37-.58,3.68,3.68,0,0,1,2.69.95,4.68,4.68,0,0,1,1.22,2.71,5.67,5.67,0,0,1,1.53-2.69,3.79,3.79,0,0,1,2.68-1,4.36,4.36,0,0,1,2.38.61,4.65,4.65,0,0,1,1.58,1.68,7.73,7.73,0,0,1,.88,2.48,16.41,16.41,0,0,1,.27,3.05V407Zm-2-.06h-1.28a8,8,0,0,0-1.54.14,4.31,4.31,0,0,0-1.36.5,2.88,2.88,0,0,0-1,1,3.08,3.08,0,0,0-.38,1.62,4.52,4.52,0,0,0,.2,1.43,2.79,2.79,0,0,0,.53.94,2,2,0,0,0,.74.52,2.36,2.36,0,0,0,.87.17,2.45,2.45,0,0,0,1.52-.49,3.49,3.49,0,0,0,1-1.27,6.56,6.56,0,0,0,.53-1.74,11,11,0,0,0,.16-1.89Zm8.43-1.72a8.86,8.86,0,0,0-.74-3.92,2.43,2.43,0,0,0-2.31-1.47,2.21,2.21,0,0,0-1.55.57,4.42,4.42,0,0,0-1,1.39,6.92,6.92,0,0,0-.57,1.77,9,9,0,0,0-.18,1.66Z"/><path class="cls-5" d="M624.32,414.62V390.08h2.12v24.54Z"/><path class="cls-5" d="M642.33,406.6A17.42,17.42,0,0,1,642,410a9,9,0,0,1-1,2.69,5.13,5.13,0,0,1-1.57,1.77,3.8,3.8,0,0,1-2.18.63,3.44,3.44,0,0,1-2.42-.9,4.82,4.82,0,0,1-1.36-2.37h0v10.55h-2.12V398.52h2v2.88h.07a5.47,5.47,0,0,1,1.28-2.45,3.32,3.32,0,0,1,2.53-.95,3.62,3.62,0,0,1,2.13.65,5.21,5.21,0,0,1,1.59,1.78,9.68,9.68,0,0,1,1,2.71A16.17,16.17,0,0,1,642.33,406.6Zm-2.18-.07a16.51,16.51,0,0,0-.19-2.61,8.23,8.23,0,0,0-.61-2.13,3.91,3.91,0,0,0-1-1.42,2.39,2.39,0,0,0-3,0,4.07,4.07,0,0,0-1.06,1.42,8.21,8.21,0,0,0-.64,2.13,15.33,15.33,0,0,0-.21,2.61,16,16,0,0,0,.21,2.67,7.79,7.79,0,0,0,.64,2.12,4,4,0,0,0,1.07,1.41,2.27,2.27,0,0,0,1.48.52,2.24,2.24,0,0,0,1.49-.52,3.87,3.87,0,0,0,1-1.41,7.82,7.82,0,0,0,.61-2.12A17.2,17.2,0,0,0,640.15,406.53Z"/><path class="cls-5" d="M660.18,414.62v-2.89h-.06a5.68,5.68,0,0,1-1.29,2.43,3.25,3.25,0,0,1-2.53,1,3.65,3.65,0,0,1-2.14-.64,5.27,5.27,0,0,1-1.57-1.81,9.45,9.45,0,0,1-1-2.72,16.17,16.17,0,0,1-.34-3.46,17.42,17.42,0,0,1,.32-3.44,9.47,9.47,0,0,1,.95-2.68,5,5,0,0,1,1.57-1.75,3.8,3.8,0,0,1,2.16-.63,3.51,3.51,0,0,1,2.44.89,4.44,4.44,0,0,1,1.34,2.35h.07V390.08h2.11v24.54Zm0-8.05a16,16,0,0,0-.21-2.67,7.79,7.79,0,0,0-.64-2.12,3.93,3.93,0,0,0-1.07-1.41,2.38,2.38,0,0,0-3,0,4,4,0,0,0-1,1.41,7.82,7.82,0,0,0-.61,2.12,17.2,17.2,0,0,0-.19,2.67,16.51,16.51,0,0,0,.19,2.61,8,8,0,0,0,.61,2.12,4,4,0,0,0,1,1.43,2.26,2.26,0,0,0,1.49.52,2.22,2.22,0,0,0,1.49-.52,4,4,0,0,0,1.06-1.43,8,8,0,0,0,.64-2.12A15.33,15.33,0,0,0,660.18,406.57Z"/><path class="cls-5" d="M668.32,407a12.44,12.44,0,0,0,.23,2.45,7.2,7.2,0,0,0,.66,1.95,3.7,3.7,0,0,0,1.09,1.3,2.64,2.64,0,0,0,1.56.47,2.49,2.49,0,0,0,1.87-.72,4.93,4.93,0,0,0,1.1-1.72l1.6.94a6.16,6.16,0,0,1-1.72,2.45,4.23,4.23,0,0,1-2.9,1,4.64,4.64,0,0,1-4.13-2.27,11.44,11.44,0,0,1-1.47-6.26,14.67,14.67,0,0,1,.38-3.48,9,9,0,0,1,1.1-2.72,5.41,5.41,0,0,1,1.76-1.77,4.76,4.76,0,0,1,4.7,0,4.76,4.76,0,0,1,1.58,1.69,8.57,8.57,0,0,1,.88,2.5,16.41,16.41,0,0,1,.27,3.05V407Zm6.44-1.78a8.72,8.72,0,0,0-.74-3.92,2.44,2.44,0,0,0-2.32-1.47,2.24,2.24,0,0,0-1.56.57,4.42,4.42,0,0,0-1,1.39,6.94,6.94,0,0,0-.58,1.77,9,9,0,0,0-.18,1.66Z"/><path class="cls-5" d="M684.35,399a3.5,3.5,0,0,1,2.61-1,3.4,3.4,0,0,1,1.48.3,3.28,3.28,0,0,1,1,.82,3.59,3.59,0,0,1,.67,1.18,9.62,9.62,0,0,1,.37,1.4h.06a6.31,6.31,0,0,1,.55-1.38,4.68,4.68,0,0,1,.87-1.19,4.46,4.46,0,0,1,1.22-.83,3.83,3.83,0,0,1,1.55-.3,3.4,3.4,0,0,1,2,.55A3.84,3.84,0,0,1,698,400a6.92,6.92,0,0,1,.57,2,16.8,16.8,0,0,1,.14,2.23v10.39h-2.11V404.23c0-.5,0-1-.08-1.51a5.52,5.52,0,0,0-.34-1.4,2.53,2.53,0,0,0-.75-1,2,2,0,0,0-1.33-.41,2.37,2.37,0,0,0-1.39.44,3.43,3.43,0,0,0-1.05,1.2,7.07,7.07,0,0,0-.64,1.75,9.29,9.29,0,0,0-.22,2.06v9.29H688.7V404.23a13.3,13.3,0,0,0-.08-1.53,5.4,5.4,0,0,0-.32-1.41,2.23,2.23,0,0,0-.73-1,2,2,0,0,0-1.29-.39,2.33,2.33,0,0,0-1.4.44,3.73,3.73,0,0,0-1,1.2,6.7,6.7,0,0,0-.65,1.75,9.29,9.29,0,0,0-.22,2.06v9.29h-2.12V402.57c0-.34,0-.72,0-1.12s0-.79,0-1.16,0-.73,0-1,0-.56,0-.73h2.09c0,.41.07.9.09,1.49s0,1.14,0,1.65H683A5.21,5.21,0,0,1,684.35,399Z"/><path class="cls-5" d="M713.13,399a3.5,3.5,0,0,1,2.6-1,3.1,3.1,0,0,1,2.54,1.12,3.59,3.59,0,0,1,.67,1.18,9.62,9.62,0,0,1,.37,1.4h.06a6.31,6.31,0,0,1,.55-1.38,4.68,4.68,0,0,1,.87-1.19,4.46,4.46,0,0,1,1.22-.83,3.79,3.79,0,0,1,1.55-.3,3.4,3.4,0,0,1,2,.55,3.72,3.72,0,0,1,1.19,1.44,6.63,6.63,0,0,1,.58,2,16.8,16.8,0,0,1,.14,2.23v10.39H725.4V404.23c0-.5,0-1-.08-1.51a5.52,5.52,0,0,0-.34-1.4,2.53,2.53,0,0,0-.75-1,2,2,0,0,0-1.33-.41,2.42,2.42,0,0,0-1.4.44,3.51,3.51,0,0,0-1,1.2,7.07,7.07,0,0,0-.64,1.75,9.29,9.29,0,0,0-.22,2.06v9.29h-2.12V404.23a13.3,13.3,0,0,0-.08-1.53,5.4,5.4,0,0,0-.32-1.41,2.31,2.31,0,0,0-.73-1,2,2,0,0,0-1.29-.39,2.33,2.33,0,0,0-1.4.44,3.62,3.62,0,0,0-1,1.2,6.7,6.7,0,0,0-.65,1.75,9.29,9.29,0,0,0-.22,2.06v9.29h-2.12V402.57c0-.34,0-.72,0-1.12s0-.79,0-1.16,0-.73,0-1,0-.56,0-.73h2.09c0,.41.07.9.09,1.49s0,1.14,0,1.65h.07A5.21,5.21,0,0,1,713.13,399Z"/><path class="cls-5" d="M733.51,407a12.47,12.47,0,0,0,.22,2.45,7.2,7.2,0,0,0,.66,1.95,3.72,3.72,0,0,0,1.1,1.3,2.64,2.64,0,0,0,1.56.47,2.52,2.52,0,0,0,1.87-.72,4.91,4.91,0,0,0,1.09-1.72l1.6.94a6,6,0,0,1-1.71,2.45,4.27,4.27,0,0,1-2.9,1,4.64,4.64,0,0,1-4.13-2.27,11.35,11.35,0,0,1-1.48-6.26,15.21,15.21,0,0,1,.38-3.48,9.22,9.22,0,0,1,1.11-2.72,5.39,5.39,0,0,1,1.75-1.77A4.42,4.42,0,0,1,737,398a4.36,4.36,0,0,1,2.38.61,4.68,4.68,0,0,1,1.58,1.69,8,8,0,0,1,.88,2.5,16.41,16.41,0,0,1,.27,3.05V407Zm6.44-1.78a8.86,8.86,0,0,0-.74-3.92,2.45,2.45,0,0,0-2.32-1.47,2.22,2.22,0,0,0-1.56.57,4.27,4.27,0,0,0-1,1.39,6.57,6.57,0,0,0-.58,1.77,9,9,0,0,0-.18,1.66Z"/><path class="cls-5" d="M753.86,414.62v-2.89h-.07a5.56,5.56,0,0,1-1.28,2.43,3.26,3.26,0,0,1-2.53,1,3.68,3.68,0,0,1-2.15-.64,5.38,5.38,0,0,1-1.57-1.81,9.75,9.75,0,0,1-1-2.72,16.87,16.87,0,0,1-.33-3.46,16.7,16.7,0,0,1,.32-3.44,9.47,9.47,0,0,1,.94-2.68,5,5,0,0,1,1.57-1.75A3.81,3.81,0,0,1,750,398a3.47,3.47,0,0,1,2.43.89,4.52,4.52,0,0,1,1.35,2.35h.06V390.08h2.12v24.54Zm0-8.05a16,16,0,0,0-.21-2.67,7.79,7.79,0,0,0-.64-2.12,4,4,0,0,0-1.08-1.41,2.37,2.37,0,0,0-3,0,3.76,3.76,0,0,0-1,1.41,7.82,7.82,0,0,0-.61,2.12,17.2,17.2,0,0,0-.19,2.67,16.51,16.51,0,0,0,.19,2.61,8,8,0,0,0,.61,2.12,3.76,3.76,0,0,0,1,1.43,2.39,2.39,0,0,0,3,0A4,4,0,0,0,753,411.3a8,8,0,0,0,.64-2.12A15.33,15.33,0,0,0,753.86,406.57Z"/><path class="cls-5" d="M773.44,414.62c0-.18,0-.39-.05-.65s0-.54,0-.83,0-.57,0-.85v-.69h-.06q-.81,3.43-3.85,3.44a3.8,3.8,0,0,1-1.35-.26,3.38,3.38,0,0,1-1.21-.85,4.46,4.46,0,0,1-.9-1.47,5.82,5.82,0,0,1-.35-2.16,5.68,5.68,0,0,1,.61-2.83,4.79,4.79,0,0,1,1.53-1.68,5.53,5.53,0,0,1,2-.83,11.32,11.32,0,0,1,2.1-.21h1.25v-.85a5,5,0,0,0-.77-3.08,2.51,2.51,0,0,0-2.08-1,3.09,3.09,0,0,0-1.67.48,4.83,4.83,0,0,0-1.31,1.24l-1.13-1.33a5,5,0,0,1,1.93-1.66,5.31,5.31,0,0,1,2.37-.58,3.92,3.92,0,0,1,3.56,1.65,9.13,9.13,0,0,1,1.05,4.84v6.68c0,.22,0,.49,0,.82s0,.65,0,1,0,.64.05.94,0,.52.06.7Zm-.26-8.18H771.9a8,8,0,0,0-1.54.14,3.58,3.58,0,0,0-1.36.55,3.16,3.16,0,0,0-1,1.12,3.88,3.88,0,0,0-.38,1.85,3.39,3.39,0,0,0,.73,2.44,2.21,2.21,0,0,0,3.13.19,3.86,3.86,0,0,0,1-1.39,7.64,7.64,0,0,0,.53-1.85,12,12,0,0,0,.16-1.95Z"/><path class="cls-5" d="M784,414.91A4.59,4.59,0,0,1,783,415a2.5,2.5,0,0,1-2.35-1.17,6.11,6.11,0,0,1-.69-3.12V400.27h-2.08v-1.75h2v-4.45H782v4.45h2.82v1.75H782v10.09a4.11,4.11,0,0,0,.42,2.13,1.39,1.39,0,0,0,1.25.67,2.31,2.31,0,0,0,.61-.09,3.86,3.86,0,0,0,.54-.17l.1,1.72A6.79,6.79,0,0,1,784,414.91Z"/><path class="cls-5" d="M799.07,391.54a2.83,2.83,0,0,0-.92-.16,1.73,1.73,0,0,0-1.08.32,2.36,2.36,0,0,0-.69.84,3.94,3.94,0,0,0-.35,1.19,10.18,10.18,0,0,0-.1,1.38v3.41h2.7v1.75h-2.7v14.35h-2.11V400.27h-2.15v-1.75h2.15v-3.41a7.31,7.31,0,0,1,1-4,3.43,3.43,0,0,1,3.11-1.54,4.06,4.06,0,0,1,1.31.19Z"/><path class="cls-5" d="M807.92,414.62c0-.18,0-.39,0-.65s0-.54,0-.83,0-.57,0-.85v-.69h-.06c-.53,2.29-1.82,3.44-3.85,3.44a3.75,3.75,0,0,1-1.34-.26,3.33,3.33,0,0,1-1.22-.85,4.82,4.82,0,0,1-.9-1.47,6,6,0,0,1-.35-2.16,5.68,5.68,0,0,1,.61-2.83,4.81,4.81,0,0,1,1.54-1.68,5.48,5.48,0,0,1,2-.83,11.32,11.32,0,0,1,2.1-.21h1.25v-.85a4.93,4.93,0,0,0-.77-3.08,2.49,2.49,0,0,0-2.08-1,3.11,3.11,0,0,0-1.67.48,4.83,4.83,0,0,0-1.31,1.24l-1.12-1.33a4.9,4.9,0,0,1,1.92-1.66A5.31,5.31,0,0,1,805,398a3.9,3.9,0,0,1,3.56,1.65,9.12,9.12,0,0,1,1.06,4.84v6.68c0,.22,0,.49,0,.82s0,.65,0,1,0,.64,0,.94,0,.52.07.7Zm-.26-8.18h-1.28a8.09,8.09,0,0,0-1.54.14,3.64,3.64,0,0,0-1.36.55,3.26,3.26,0,0,0-1,1.12,4,4,0,0,0-.38,1.85,3.35,3.35,0,0,0,.74,2.44,2.2,2.2,0,0,0,3.12.19,3.74,3.74,0,0,0,1-1.39,7.22,7.22,0,0,0,.53-1.85,12,12,0,0,0,.16-1.95Z"/><path class="cls-5" d="M822.34,414.62V404.23c0-.5,0-1-.08-1.51a4.79,4.79,0,0,0-.35-1.4,2.66,2.66,0,0,0-.77-1,1.93,1.93,0,0,0-1.3-.41,2.42,2.42,0,0,0-1.42.44,3.56,3.56,0,0,0-1.06,1.2,6.72,6.72,0,0,0-.68,1.75,8.73,8.73,0,0,0-.24,2.06v9.29h-2.11V402.57c0-.34,0-.72,0-1.12s0-.79,0-1.16,0-.73,0-1,0-.56,0-.73h2c0,.41.08.9.1,1.49s0,1.14,0,1.65h.06a5.79,5.79,0,0,1,1.48-2.64,3.9,3.9,0,0,1,4.63-.47,3.66,3.66,0,0,1,1.2,1.44,6.61,6.61,0,0,1,.56,2,16.82,16.82,0,0,1,.15,2.23v10.39Z"/><path class="cls-5" d="M839.26,414.39a17.46,17.46,0,0,1-.27,3.18,7.72,7.72,0,0,1-.91,2.53,4.67,4.67,0,0,1-1.73,1.69,5.51,5.51,0,0,1-2.73.62,6.1,6.1,0,0,1-2.93-.74,6,6,0,0,1-2.2-2l1.38-1.49a5.22,5.22,0,0,0,1.62,1.62,4,4,0,0,0,2.2.62,2.91,2.91,0,0,0,2.82-1.72,7,7,0,0,0,.54-1.92,16.42,16.42,0,0,0,.16-2.43v-2.66h-.06a5.78,5.78,0,0,1-1.28,2.43,3.29,3.29,0,0,1-2.54,1,3.65,3.65,0,0,1-2.14-.64,5.27,5.27,0,0,1-1.57-1.81,9.45,9.45,0,0,1-1-2.72,16.17,16.17,0,0,1-.34-3.46,17.42,17.42,0,0,1,.32-3.44,9.47,9.47,0,0,1,1-2.68,5,5,0,0,1,1.57-1.75,3.8,3.8,0,0,1,2.16-.63,3.54,3.54,0,0,1,2.45.89,4.42,4.42,0,0,1,1.37,2.35h.09v-2.72h2Zm-2-7.82a15.66,15.66,0,0,0-.21-2.63,8.13,8.13,0,0,0-.64-2.15,4,4,0,0,0-1.07-1.42,2.38,2.38,0,0,0-3,0,4,4,0,0,0-1,1.41,7.82,7.82,0,0,0-.61,2.12,18.53,18.53,0,0,0-.19,2.67,17.79,17.79,0,0,0,.19,2.61,8,8,0,0,0,.61,2.12,4,4,0,0,0,1,1.43,2.26,2.26,0,0,0,1.49.52,2.22,2.22,0,0,0,1.49-.52,4,4,0,0,0,1.06-1.41,7.83,7.83,0,0,0,.64-2.11A15.53,15.53,0,0,0,837.21,406.57Z"/><path class="cls-5" d="M845.35,407a12.44,12.44,0,0,0,.23,2.45,7.2,7.2,0,0,0,.66,1.95,3.7,3.7,0,0,0,1.09,1.3,2.64,2.64,0,0,0,1.56.47,2.49,2.49,0,0,0,1.87-.72,4.93,4.93,0,0,0,1.1-1.72l1.6.94a6.16,6.16,0,0,1-1.72,2.45,4.23,4.23,0,0,1-2.9,1,4.64,4.64,0,0,1-4.13-2.27,11.44,11.44,0,0,1-1.47-6.26,14.67,14.67,0,0,1,.38-3.48,9,9,0,0,1,1.1-2.72,5.41,5.41,0,0,1,1.76-1.77,4.76,4.76,0,0,1,4.7,0,4.76,4.76,0,0,1,1.58,1.69,8.29,8.29,0,0,1,.88,2.5,16.41,16.41,0,0,1,.27,3.05V407Zm6.44-1.78a8.86,8.86,0,0,0-.74-3.92,2.44,2.44,0,0,0-2.32-1.47,2.24,2.24,0,0,0-1.56.57,4.42,4.42,0,0,0-1,1.39,6.94,6.94,0,0,0-.58,1.77,9,9,0,0,0-.18,1.66Z"/><path class="cls-5" d="M871.63,414.62v-2.89h-.06a5.68,5.68,0,0,1-1.29,2.43,3.25,3.25,0,0,1-2.53,1,3.68,3.68,0,0,1-2.15-.64,5.38,5.38,0,0,1-1.57-1.81,9.75,9.75,0,0,1-1-2.72,16.17,16.17,0,0,1-.34-3.46,17.42,17.42,0,0,1,.32-3.44,9.17,9.17,0,0,1,1-2.68,5,5,0,0,1,1.57-1.75,3.8,3.8,0,0,1,2.16-.63,3.51,3.51,0,0,1,2.44.89,4.44,4.44,0,0,1,1.34,2.35h.07V390.08h2.11v24.54Zm0-8.05a16,16,0,0,0-.21-2.67,7.79,7.79,0,0,0-.64-2.12,4,4,0,0,0-1.07-1.41,2.38,2.38,0,0,0-3,0,4,4,0,0,0-1,1.41,7.82,7.82,0,0,0-.61,2.12,17.2,17.2,0,0,0-.19,2.67,16.51,16.51,0,0,0,.19,2.61,8,8,0,0,0,.61,2.12,4,4,0,0,0,1,1.43,2.26,2.26,0,0,0,1.49.52,2.22,2.22,0,0,0,1.49-.52,4,4,0,0,0,1.06-1.43,8,8,0,0,0,.64-2.12A15.33,15.33,0,0,0,871.63,406.57Z"/><path class="cls-5" d="M879.77,407a12.47,12.47,0,0,0,.22,2.45,7.2,7.2,0,0,0,.66,1.95,3.72,3.72,0,0,0,1.1,1.3,2.64,2.64,0,0,0,1.56.47,2.51,2.51,0,0,0,1.87-.72,4.77,4.77,0,0,0,1.09-1.72l1.61.94a6.16,6.16,0,0,1-1.72,2.45,4.25,4.25,0,0,1-2.9,1,4.64,4.64,0,0,1-4.13-2.27,11.35,11.35,0,0,1-1.48-6.26,14.66,14.66,0,0,1,.39-3.48,9,9,0,0,1,1.1-2.72,5.32,5.32,0,0,1,1.76-1.77,4.74,4.74,0,0,1,4.69,0,4.79,4.79,0,0,1,1.59,1.69,8.28,8.28,0,0,1,.87,2.5,15.58,15.58,0,0,1,.28,3.05V407Zm6.44-1.78a8.86,8.86,0,0,0-.74-3.92,2.44,2.44,0,0,0-2.32-1.47,2.24,2.24,0,0,0-1.56.57,4.42,4.42,0,0,0-1,1.39,6.94,6.94,0,0,0-.58,1.77,9,9,0,0,0-.18,1.66Z"/><path class="cls-5" d="M588.07,453.34a17.46,17.46,0,0,1-.27,3.18,7.5,7.5,0,0,1-.91,2.53,4.67,4.67,0,0,1-1.73,1.69,5.51,5.51,0,0,1-2.73.62,6.21,6.21,0,0,1-2.93-.73,6,6,0,0,1-2.19-2l1.37-1.49a5.22,5.22,0,0,0,1.62,1.62,4.06,4.06,0,0,0,2.2.62,2.91,2.91,0,0,0,2.82-1.72,6.69,6.69,0,0,0,.54-1.92,16.42,16.42,0,0,0,.16-2.43v-2.66H586a5.78,5.78,0,0,1-1.28,2.43,3.28,3.28,0,0,1-2.53,1,3.67,3.67,0,0,1-2.15-.65,5.27,5.27,0,0,1-1.57-1.81,9.45,9.45,0,0,1-1-2.72,16.84,16.84,0,0,1-.34-3.46,17.42,17.42,0,0,1,.32-3.44,9.47,9.47,0,0,1,1-2.68,5,5,0,0,1,1.57-1.75,3.8,3.8,0,0,1,2.16-.63,3.59,3.59,0,0,1,2.45.89,4.46,4.46,0,0,1,1.37,2.35H586v-2.72h2.05ZM586,445.52a15.66,15.66,0,0,0-.21-2.63,7.7,7.7,0,0,0-.64-2.14,3.81,3.81,0,0,0-1.07-1.43,2.26,2.26,0,0,0-1.47-.52,2.22,2.22,0,0,0-1.49.52,3.89,3.89,0,0,0-1,1.41,7.83,7.83,0,0,0-.6,2.12,17.16,17.16,0,0,0-.2,2.67,16.47,16.47,0,0,0,.2,2.61,8.23,8.23,0,0,0,.6,2.13,3.93,3.93,0,0,0,1,1.42,2.22,2.22,0,0,0,1.49.52,2.26,2.26,0,0,0,1.49-.52,4,4,0,0,0,1-1.41,7.49,7.49,0,0,0,.64-2.11A15.53,15.53,0,0,0,586,445.52Z"/><path class="cls-5" d="M603.14,445.55a14.28,14.28,0,0,1-.39,3.47,9.19,9.19,0,0,1-1.09,2.7,5.2,5.2,0,0,1-1.74,1.75,4.51,4.51,0,0,1-2.33.62,4.44,4.44,0,0,1-2.31-.62,5.39,5.39,0,0,1-1.74-1.75,9.21,9.21,0,0,1-1.11-2.7,14.81,14.81,0,0,1-.38-3.47,15.31,15.31,0,0,1,.37-3.51,8.73,8.73,0,0,1,1.07-2.72,5.17,5.17,0,0,1,1.75-1.76,4.79,4.79,0,0,1,4.68,0,5.23,5.23,0,0,1,1.74,1.76,9,9,0,0,1,1.09,2.72A14.74,14.74,0,0,1,603.14,445.55ZM601,445.5a15.94,15.94,0,0,0-.21-2.66,8.29,8.29,0,0,0-.63-2.12,3.8,3.8,0,0,0-1-1.4,2.22,2.22,0,0,0-1.49-.52,2.28,2.28,0,0,0-1.5.52,3.72,3.72,0,0,0-1.05,1.4,8.75,8.75,0,0,0-.6,2.12,15.94,15.94,0,0,0-.21,2.66,15.2,15.2,0,0,0,.21,2.62,9.07,9.07,0,0,0,.6,2.11,3.68,3.68,0,0,0,1.05,1.41,2.38,2.38,0,0,0,1.5.5,2.41,2.41,0,0,0,1.51-.5,3.66,3.66,0,0,0,1-1.41,9.06,9.06,0,0,0,.61-2.11A15.2,15.2,0,0,0,601,445.5Z"/><path class="cls-5" d="M615.06,453.57v-2.89H615a5.56,5.56,0,0,1-1.28,2.43,3.27,3.27,0,0,1-2.53,1,3.69,3.69,0,0,1-2.15-.65,5.38,5.38,0,0,1-1.57-1.81,9.75,9.75,0,0,1-1-2.72,16.87,16.87,0,0,1-.33-3.46,16.7,16.7,0,0,1,.32-3.44,9.47,9.47,0,0,1,.94-2.68,5,5,0,0,1,1.57-1.75,3.84,3.84,0,0,1,2.17-.63,3.52,3.52,0,0,1,2.43.89,4.5,4.5,0,0,1,1.35,2.35H615V429h2.12v24.54Zm0-8.05a16,16,0,0,0-.21-2.67,7.79,7.79,0,0,0-.64-2.12,4,4,0,0,0-1.08-1.41,2.37,2.37,0,0,0-3,0,3.87,3.87,0,0,0-1,1.41,7.82,7.82,0,0,0-.61,2.12,17.2,17.2,0,0,0-.19,2.67,16.51,16.51,0,0,0,.19,2.61,8.23,8.23,0,0,0,.61,2.13,3.91,3.91,0,0,0,1,1.42,2.39,2.39,0,0,0,3,0,4.07,4.07,0,0,0,1.06-1.42,8.21,8.21,0,0,0,.64-2.13A15.33,15.33,0,0,0,615.06,445.52Z"/><path class="cls-5" d="M623.2,446a12.47,12.47,0,0,0,.22,2.45,7.2,7.2,0,0,0,.66,1.95,3.72,3.72,0,0,0,1.1,1.3,2.64,2.64,0,0,0,1.56.47,2.51,2.51,0,0,0,1.87-.72,4.69,4.69,0,0,0,1.09-1.72l1.61.94a6.26,6.26,0,0,1-1.72,2.46,4.3,4.3,0,0,1-2.9,1,4.65,4.65,0,0,1-4.13-2.28,11.35,11.35,0,0,1-1.48-6.26,14.51,14.51,0,0,1,.39-3.47,8.91,8.91,0,0,1,1.1-2.73,5.32,5.32,0,0,1,1.76-1.77,4.74,4.74,0,0,1,4.69,0,4.76,4.76,0,0,1,1.58,1.69,8,8,0,0,1,.88,2.5,16.41,16.41,0,0,1,.27,3.05V446Zm6.44-1.78a8.86,8.86,0,0,0-.74-3.92,2.45,2.45,0,0,0-2.32-1.47,2.24,2.24,0,0,0-1.56.57,4.42,4.42,0,0,0-1,1.39,6.57,6.57,0,0,0-.58,1.77,9,9,0,0,0-.18,1.66Z"/><path class="cls-5" d="M644,432.53a1.54,1.54,0,0,1-.42,1.12,1.3,1.3,0,0,1-1,.44,1.27,1.27,0,0,1-1-.44,1.57,1.57,0,0,1-.4-1.12,1.59,1.59,0,0,1,.4-1.1,1.29,1.29,0,0,1,1-.46,1.32,1.32,0,0,1,1,.46A1.63,1.63,0,0,1,644,432.53Zm-2.47,21v-16.1h2.11v16.1Z"/><path class="cls-5" d="M656.72,453.57V443.18c0-.5,0-1-.08-1.51a4.79,4.79,0,0,0-.35-1.4,2.77,2.77,0,0,0-.77-1,2,2,0,0,0-1.3-.41,2.47,2.47,0,0,0-1.43.44,3.53,3.53,0,0,0-1,1.2,6.72,6.72,0,0,0-.68,1.75,8.73,8.73,0,0,0-.24,2.06v9.29h-2.11V441.52c0-.34,0-.72,0-1.12s0-.79,0-1.16,0-.73,0-1,0-.56,0-.73h2c0,.41.07.91.1,1.49s0,1.14,0,1.66h.06A5.77,5.77,0,0,1,652.3,438a3.47,3.47,0,0,1,2.56-1,3.54,3.54,0,0,1,2.07.55,3.66,3.66,0,0,1,1.2,1.44,6.89,6.89,0,0,1,.56,2,16.54,16.54,0,0,1,.14,2.22v10.39Z"/><path class="cls-5" d="M673.64,453.34a17.46,17.46,0,0,1-.27,3.18,7.51,7.51,0,0,1-.92,2.53,4.53,4.53,0,0,1-1.73,1.69,5.45,5.45,0,0,1-2.72.62,6.2,6.2,0,0,1-5.13-2.7l1.38-1.49a5.22,5.22,0,0,0,1.62,1.62,4,4,0,0,0,2.19.62,3.06,3.06,0,0,0,1.75-.46,3,3,0,0,0,1.07-1.26,6.69,6.69,0,0,0,.55-1.92,16.42,16.42,0,0,0,.16-2.43v-2.66h-.07a5.56,5.56,0,0,1-1.28,2.43,3.27,3.27,0,0,1-2.53,1,3.69,3.69,0,0,1-2.15-.65,5.38,5.38,0,0,1-1.57-1.81,9.75,9.75,0,0,1-1-2.72,16.17,16.17,0,0,1-.34-3.46A17.42,17.42,0,0,1,663,442a9.17,9.17,0,0,1,1-2.68,5,5,0,0,1,1.57-1.75,3.8,3.8,0,0,1,2.16-.63,3.59,3.59,0,0,1,2.45.89,4.44,4.44,0,0,1,1.36,2.35h.1v-2.72h2Zm-2-7.82a15.66,15.66,0,0,0-.21-2.63,8.06,8.06,0,0,0-.64-2.14,4,4,0,0,0-1.07-1.43,2.38,2.38,0,0,0-3,0,4,4,0,0,0-1,1.41,7.82,7.82,0,0,0-.61,2.12,17.2,17.2,0,0,0-.19,2.67,16.51,16.51,0,0,0,.19,2.61,8.23,8.23,0,0,0,.61,2.13,4,4,0,0,0,1,1.42,2.26,2.26,0,0,0,1.49.52,2.22,2.22,0,0,0,1.49-.52,4,4,0,0,0,1.06-1.41,7.83,7.83,0,0,0,.64-2.11A15.53,15.53,0,0,0,671.59,445.52Z"/><path class="cls-5" d="M682.2,437.92a2.88,2.88,0,0,1,2.11-.94,1.92,1.92,0,0,1,.39,0l-.07,2.21-.24-.05-.27,0a2.12,2.12,0,0,0-1.43.56,4.43,4.43,0,0,0-1,1.42,8.09,8.09,0,0,0-.62,2,12.08,12.08,0,0,0-.21,2.22v8.22H678.7V441.52c0-.34,0-.72,0-1.12s0-.79,0-1.16,0-.73,0-1,0-.56,0-.73h2c0,.41.07.92.09,1.54s0,1.27,0,2h.07A6.15,6.15,0,0,1,682.2,437.92Z"/><path class="cls-5" d="M688.32,446a12.47,12.47,0,0,0,.22,2.45,7.2,7.2,0,0,0,.66,1.95,3.72,3.72,0,0,0,1.1,1.3,2.64,2.64,0,0,0,1.56.47,2.51,2.51,0,0,0,1.87-.72,4.82,4.82,0,0,0,1.09-1.72l1.61.94a6.26,6.26,0,0,1-1.72,2.46,4.32,4.32,0,0,1-2.9,1,4.65,4.65,0,0,1-4.13-2.28,11.35,11.35,0,0,1-1.48-6.26,14.51,14.51,0,0,1,.39-3.47,8.91,8.91,0,0,1,1.1-2.73,5.39,5.39,0,0,1,1.75-1.77,4.42,4.42,0,0,1,2.32-.63,4.36,4.36,0,0,1,2.38.61,4.76,4.76,0,0,1,1.58,1.69,8,8,0,0,1,.88,2.5,16.41,16.41,0,0,1,.27,3.05V446Zm6.44-1.78a8.86,8.86,0,0,0-.74-3.92,2.45,2.45,0,0,0-2.32-1.47,2.24,2.24,0,0,0-1.56.57,4.27,4.27,0,0,0-1,1.39,6.94,6.94,0,0,0-.58,1.77,9,9,0,0,0-.18,1.66Z"/><path class="cls-5" d="M708.67,453.57v-2.89h-.07a5.56,5.56,0,0,1-1.28,2.43,3.27,3.27,0,0,1-2.53,1,3.69,3.69,0,0,1-2.15-.65,5.38,5.38,0,0,1-1.57-1.81,9.75,9.75,0,0,1-1-2.72,16.87,16.87,0,0,1-.33-3.46,16.7,16.7,0,0,1,.32-3.44,9.47,9.47,0,0,1,.94-2.68,5,5,0,0,1,1.57-1.75,3.81,3.81,0,0,1,2.17-.63,3.52,3.52,0,0,1,2.43.89,4.56,4.56,0,0,1,1.35,2.35h.06V429h2.12v24.54Zm0-8.05a16,16,0,0,0-.21-2.67,7.79,7.79,0,0,0-.64-2.12,4,4,0,0,0-1.08-1.41,2.37,2.37,0,0,0-3,0,3.87,3.87,0,0,0-1,1.41,7.82,7.82,0,0,0-.61,2.12,17.2,17.2,0,0,0-.19,2.67,16.51,16.51,0,0,0,.19,2.61,8.23,8.23,0,0,0,.61,2.13,3.91,3.91,0,0,0,1,1.42,2.39,2.39,0,0,0,3,0,4.07,4.07,0,0,0,1.06-1.42,8.21,8.21,0,0,0,.64-2.13A15.33,15.33,0,0,0,708.67,445.52Z"/><path class="cls-5" d="M718.12,432.53a1.54,1.54,0,0,1-.42,1.12,1.36,1.36,0,0,1-2,0,1.57,1.57,0,0,1-.4-1.12,1.59,1.59,0,0,1,.4-1.1,1.34,1.34,0,0,1,2,0A1.59,1.59,0,0,1,718.12,432.53Zm-2.47,21v-16.1h2.12v16.1Z"/><path class="cls-5" d="M723.86,446a12.47,12.47,0,0,0,.22,2.45,7.2,7.2,0,0,0,.66,1.95,3.72,3.72,0,0,0,1.1,1.3,2.64,2.64,0,0,0,1.56.47,2.52,2.52,0,0,0,1.87-.72,4.82,4.82,0,0,0,1.09-1.72l1.6.94a6.14,6.14,0,0,1-1.71,2.46,4.32,4.32,0,0,1-2.9,1,4.65,4.65,0,0,1-4.13-2.28,11.35,11.35,0,0,1-1.48-6.26,15.06,15.06,0,0,1,.38-3.47,9.18,9.18,0,0,1,1.11-2.73,5.39,5.39,0,0,1,1.75-1.77,4.42,4.42,0,0,1,2.32-.63,4.36,4.36,0,0,1,2.38.61,4.76,4.76,0,0,1,1.58,1.69,8,8,0,0,1,.88,2.5,16.41,16.41,0,0,1,.27,3.05V446Zm6.44-1.78a8.86,8.86,0,0,0-.74-3.92,2.45,2.45,0,0,0-2.32-1.47,2.21,2.21,0,0,0-1.56.57,4.27,4.27,0,0,0-1,1.39,6.57,6.57,0,0,0-.58,1.77,9,9,0,0,0-.18,1.66Z"/><path class="cls-5" d="M744.4,453.57V443.18c0-.5,0-1-.08-1.51a4.79,4.79,0,0,0-.35-1.4,2.77,2.77,0,0,0-.77-1,2,2,0,0,0-1.3-.41,2.45,2.45,0,0,0-1.43.44,3.67,3.67,0,0,0-1.06,1.2,7.08,7.08,0,0,0-.67,1.75,8.73,8.73,0,0,0-.24,2.06v9.29h-2.11V441.52c0-.34,0-.72,0-1.12s0-.79,0-1.16,0-.73,0-1,0-.56,0-.73h2c0,.41.07.91.1,1.49s0,1.14,0,1.66h.06A5.77,5.77,0,0,1,740,438a3.47,3.47,0,0,1,2.56-1,3.54,3.54,0,0,1,2.07.55,3.66,3.66,0,0,1,1.2,1.44,6.89,6.89,0,0,1,.56,2,16.54,16.54,0,0,1,.14,2.22v10.39Z"/><path class="cls-5" d="M757.38,440.26a3.41,3.41,0,0,0-1.08-1.15,2.7,2.7,0,0,0-1.58-.44,2.09,2.09,0,0,0-1.68.76,2.94,2.94,0,0,0-.66,2,2.43,2.43,0,0,0,.64,1.88,6,6,0,0,0,1.92,1.07,8.92,8.92,0,0,1,1.28.63,4.63,4.63,0,0,1,2,2.24,4.81,4.81,0,0,1,.32,1.84,5.06,5.06,0,0,1-1.27,3.68,4.34,4.34,0,0,1-3.28,1.32,4.87,4.87,0,0,1-2.47-.64,5.51,5.51,0,0,1-1.86-1.7l1.28-1.4a4.92,4.92,0,0,0,1.3,1.38,3,3,0,0,0,1.78.54,2.24,2.24,0,0,0,1.81-.83,3.3,3.3,0,0,0,.69-2.19,2.93,2.93,0,0,0-.26-1.32,2.71,2.71,0,0,0-.67-.89,4.78,4.78,0,0,0-.94-.62q-.54-.26-1.11-.48a7.83,7.83,0,0,1-1.17-.55,4,4,0,0,1-1-.85,3.91,3.91,0,0,1-.72-1.25,5.62,5.62,0,0,1,.06-3.62,4.21,4.21,0,0,1,1-1.44,4.67,4.67,0,0,1,1.39-.94,4.26,4.26,0,0,1,1.72-.34,4.62,4.62,0,0,1,3.91,1.91Z"/><path class="cls-5" d="M763.37,446a12.44,12.44,0,0,0,.23,2.45,7.2,7.2,0,0,0,.66,1.95,3.7,3.7,0,0,0,1.09,1.3,2.64,2.64,0,0,0,1.56.47,2.49,2.49,0,0,0,1.87-.72,4.84,4.84,0,0,0,1.1-1.72l1.6.94a6.26,6.26,0,0,1-1.72,2.46,4.28,4.28,0,0,1-2.9,1,4.65,4.65,0,0,1-4.13-2.28,11.44,11.44,0,0,1-1.47-6.26,14.53,14.53,0,0,1,.38-3.47,8.91,8.91,0,0,1,1.1-2.73,5.41,5.41,0,0,1,1.76-1.77,4.76,4.76,0,0,1,4.7,0,4.85,4.85,0,0,1,1.58,1.69,8.29,8.29,0,0,1,.88,2.5,16.41,16.41,0,0,1,.27,3.05V446Zm6.44-1.78a8.86,8.86,0,0,0-.74-3.92,2.44,2.44,0,0,0-2.32-1.47,2.24,2.24,0,0,0-1.56.57,4.42,4.42,0,0,0-1,1.39,6.94,6.94,0,0,0-.58,1.77,9,9,0,0,0-.18,1.66Z"/><path class="cls-5" d="M779.39,437.92a2.9,2.9,0,0,1,2.12-.94,1.74,1.74,0,0,1,.38,0l-.06,2.21-.24-.05-.27,0a2.1,2.1,0,0,0-1.43.56,4.29,4.29,0,0,0-1,1.42,8.09,8.09,0,0,0-.63,2,13,13,0,0,0-.2,2.22v8.22H775.9V441.52c0-.34,0-.72,0-1.12s0-.79,0-1.16,0-.73,0-1,0-.56-.05-.73h2.05c0,.41.08.92.1,1.54s0,1.27,0,2H778A6.07,6.07,0,0,1,779.39,437.92Z"/><path class="cls-5" d="M788.3,452.17a1.63,1.63,0,0,1-.43,1.15,1.38,1.38,0,0,1-1.07.47,1.33,1.33,0,0,1-1.06-.47,1.78,1.78,0,0,1,0-2.3,1.37,1.37,0,0,1,1.06-.47,1.42,1.42,0,0,1,1.07.47A1.63,1.63,0,0,1,788.3,452.17Zm-2.56-5.45V430.58h2.11v16.14Z"/><rect class="cls-5" x="1155.7" y="260.43" width="10.68" height="347.21" transform="translate(1595.08 -727.01) rotate(90)"/><polygon class="cls-5" points="992.31 302.3 984.21 310.51 956.97 282.92 965.07 274.71 992.31 302.3"/><polygon class="cls-5" points="984.65 311.04 976.67 302.96 1021.72 257.33 1029.7 265.41 984.65 311.04"/><polygon class="cls-5" points="978.78 637.98 970.8 629.9 1015.85 584.26 1023.84 592.35 978.78 637.98"/><polygon class="cls-5" points="971.62 591.21 979.94 583.48 1023.01 631.03 1014.7 638.76 971.62 591.21"/><path class="cls-9" d="M1077.21,149.6l-.09-.12c.83.18,1.65.4,2.47.65l-.16.11-1.12.82Z"/><path class="cls-9" d="M1105.53,186c-.3,12.6-40,34.59-48.93,37.77s-17-44.88-14.47-56.66c1.26-5.8,6.61-11.33,13.69-14.75l.46.23,3.66.94,2.13.35,3.31.36-3.19,1.28-2,1.4-1.54,1.39-1.18,1.63-1.64,2.1-1.54,3.14-1.18,2.33h3.07l2.59-.7,3.66-.58,2.12-.23,2.83-1.05.6-1.4.82-1.39,1.5-1.75-1.55,2.22-.35.69-.32.54-.25.67-.3.88-.19.88-.13,1.22-.11,1.22-.08,1.72.08,3.05,1.25-.91,1-.81,1.17-.75,1-.85,1-.89.77-.74.62-.78.63-.91.86-1.37.68-1.18.65-1.28.6-1.1.49-1.15.41-1.42v-.6l.36-.94v6.05l.16,2.15.25,1.72.54,1.88.91,2.46,1.08,2,1,1.51,1.24,1.77,1.41,1.26,1.07-1.43.67-1.43.66-1.8.29-1.47.29-1.48v-5.52l1.2,2.09,2,2.65,3.27,3,2.19,1.58,3.13,1.26,3.14.7,1.29,0A32.13,32.13,0,0,1,1105.53,186Z"/><polygon class="cls-10" points="1112.97 175.41 1110.12 176.3 1106.21 176.68 1104.29 176.72 1103 176.74 1099.86 176.04 1096.72 174.78 1094.55 173.2 1091.28 170.22 1089.29 167.56 1088.08 165.48 1088.08 171 1087.79 172.48 1087.5 173.95 1086.84 175.75 1086.17 177.18 1085.1 178.61 1083.69 177.35 1082.45 175.58 1081.45 174.07 1080.37 172.07 1079.46 169.61 1078.92 167.73 1078.67 166.01 1078.51 163.86 1078.51 157.81 1078.15 158.75 1078.15 159.35 1077.74 160.77 1077.25 161.92 1076.65 163.02 1076 164.3 1075.32 165.48 1074.46 166.85 1073.83 167.76 1073.21 168.53 1072.44 169.28 1071.47 170.17 1070.52 171.03 1069.35 171.77 1068.35 172.58 1067.1 173.49 1067.02 170.44 1067.1 168.72 1067.21 167.5 1067.35 166.28 1067.54 165.4 1067.83 164.52 1068.08 163.85 1068.4 163.31 1068.76 162.62 1070.3 160.4 1068.8 162.15 1067.98 163.54 1067.38 164.94 1064.55 165.99 1062.43 166.22 1058.77 166.8 1056.18 167.5 1053.11 167.5 1054.29 165.17 1055.83 162.03 1057.47 159.94 1058.65 158.31 1060.19 156.91 1062.19 155.51 1065.38 154.23 1062.07 153.87 1059.94 153.52 1056.28 152.59 1055.82 152.35 1054.03 151.42 1052.02 149.08 1050.95 147.1 1050.12 144.3 1050.12 139.16 1053.11 140.39 1055.21 142.38 1063.49 142.38 1067.27 143.07 1071.06 144.31 1074.25 146.23 1075.82 147.69 1077.12 149.48 1077.21 149.6 1078.32 151.06 1079.43 150.24 1079.59 150.13 1082.57 148.23 1085.62 146.41 1088.94 144.95 1092.46 144.31 1096.06 144.77 1100.68 144.31 1104.56 144.31 1104.47 145.68 1103.27 147.78 1101.7 149.69 1099.94 151.79 1097.91 153.34 1096.34 154.23 1093.66 154.98 1091.07 155.44 1093.75 156.07 1095.88 157.17 1097.26 158.36 1099.02 159.63 1100.77 161.28 1102.34 162.92 1104.93 166.02 1108.17 169.85 1111.22 173.04 1112.97 175.41"/><ellipse class="cls-3" cx="1049.71" cy="172.83" rx="1.59" ry="0.59" transform="translate(434.06 1040.43) rotate(-63.99)"/><ellipse class="cls-3" cx="1057.57" cy="178.61" rx="1.59" ry="0.59" transform="translate(433.27 1050.74) rotate(-63.99)"/><ellipse class="cls-3" cx="1067.22" cy="178.61" rx="1.59" ry="0.59" transform="translate(438.7 1059.42) rotate(-63.99)"/><ellipse class="cls-3" cx="1048.83" cy="182.72" rx="1.59" ry="0.59" transform="translate(424.68 1045.2) rotate(-63.99)"/><ellipse class="cls-3" cx="1058.81" cy="187.25" rx="1.59" ry="0.59" transform="translate(426.22 1056.71) rotate(-63.99)"/><ellipse class="cls-3" cx="1050.62" cy="192.98" rx="1.59" ry="0.59" transform="translate(416.47 1052.57) rotate(-63.99)"/><ellipse class="cls-3" cx="1067.22" cy="187.82" rx="1.59" ry="0.59" transform="translate(430.42 1064.59) rotate(-63.99)"/><ellipse class="cls-3" cx="1061.32" cy="195.19" rx="1.59" ry="0.59" transform="translate(420.49 1063.42) rotate(-63.99)"/><ellipse class="cls-3" cx="1052.86" cy="200.91" rx="1.59" ry="0.59" transform="translate(410.6 1059.03) rotate(-63.99)"/><ellipse class="cls-3" cx="1057.91" cy="207.51" rx="1.59" ry="0.59" transform="translate(407.5 1067.28) rotate(-63.99)"/><ellipse class="cls-3" cx="1051.71" cy="210.71" rx="1.59" ry="0.59" transform="translate(401.14 1063.5) rotate(-63.99)"/><ellipse class="cls-3" cx="1056.01" cy="218.76" rx="1.59" ry="0.59" transform="translate(396.32 1071.88) rotate(-63.99)"/><ellipse class="cls-3" cx="1063.93" cy="215.7" rx="1.59" ry="0.59" transform="translate(403.52 1077.28) rotate(-63.99)"/><ellipse class="cls-3" cx="1064.8" cy="205.13" rx="1.59" ry="0.59" transform="translate(413.51 1072.13) rotate(-63.99)"/><ellipse class="cls-3" cx="1073.59" cy="209.75" rx="1.59" ry="0.59" transform="translate(414.29 1082.62) rotate(-63.99)"/><ellipse class="cls-3" cx="1072.15" cy="198.68" rx="1.59" ry="0.59" transform="translate(423.43 1075.11) rotate(-63.99)"/><ellipse class="cls-3" cx="1082.88" cy="202.36" rx="1.59" ry="0.59" transform="translate(426.15 1086.83) rotate(-63.99)"/><ellipse class="cls-3" cx="1078.15" cy="192.78" rx="1.59" ry="0.59" transform="translate(432.1 1077.2) rotate(-63.99)"/><ellipse class="cls-3" cx="1090.69" cy="196.64" rx="1.59" ry="0.59" transform="translate(435.67 1090.63) rotate(-63.99)"/><ellipse class="cls-3" cx="1077.28" cy="182.19" rx="1.59" ry="0.59" transform="translate(441.13 1070.47) rotate(-63.99)"/><ellipse class="cls-3" cx="1087.28" cy="188.7" rx="1.59" ry="0.59" transform="translate(440.89 1083.11) rotate(-63.99)"/><ellipse class="cls-3" cx="1092.86" cy="180.07" rx="1.59" ry="0.59" transform="translate(451.78 1083.28) rotate(-63.99)"/><ellipse class="cls-3" cx="1097.62" cy="187.25" rx="1.59" ry="0.59" transform="translate(448.01 1091.59) rotate(-63.99)"/><ellipse class="cls-3" cx="1047.96" cy="163.94" rx="1.59" ry="0.59" transform="translate(441.07 1033.87) rotate(-63.99)"/><ellipse class="cls-11" cx="1252.04" cy="197.83" rx="5.49" ry="6.02" transform="translate(-5.18 36.17) rotate(-1.65)"/><ellipse class="cls-11" cx="1257.38" cy="193.37" rx="5.49" ry="6.02" transform="matrix(1, -0.03, 0.03, 1, -5.05, 36.32)"/><ellipse class="cls-11" cx="1262.31" cy="190.07" rx="5.49" ry="6.02" transform="translate(-4.95 36.46) rotate(-1.65)"/><ellipse class="cls-11" cx="1265.2" cy="187.54" rx="5.49" ry="6.02" transform="translate(-4.88 36.54) rotate(-1.65)"/><ellipse class="cls-11" cx="1268.19" cy="188.02" rx="5.49" ry="6.02" transform="translate(-4.89 36.63) rotate(-1.65)"/><ellipse class="cls-11" cx="1257.06" cy="204.38" rx="6.63" ry="6.72"/><ellipse class="cls-11" cx="1263.45" cy="210.89" rx="5.49" ry="6.02" transform="translate(-5.55 36.5) rotate(-1.65)"/><ellipse class="cls-11" cx="1271.06" cy="216.08" rx="5.49" ry="6.02" transform="translate(-5.7 36.72) rotate(-1.65)"/><ellipse class="cls-11" cx="1275.51" cy="219.17" rx="5.49" ry="6.02" transform="translate(-5.79 36.85) rotate(-1.65)"/><ellipse class="cls-11" cx="1284.6" cy="220.25" rx="6.65" ry="6.02" transform="translate(-7.4 48.65) rotate(-2.16)"/><ellipse class="cls-11" cx="1291.87" cy="214.79" rx="5.49" ry="6.02" transform="translate(-5.65 37.32) rotate(-1.65)"/><ellipse class="cls-11" cx="1294.86" cy="209.25" rx="5.49" ry="6.02" transform="translate(-5.49 37.41) rotate(-1.65)"/><ellipse class="cls-11" cx="1279.51" cy="173.84" rx="5.49" ry="6.02" transform="translate(-4.48 36.95) rotate(-1.65)"/><ellipse class="cls-11" cx="1279.63" cy="177.43" rx="5.49" ry="6.02" transform="translate(-4.58 36.96) rotate(-1.65)"/><ellipse class="cls-11" cx="1278.42" cy="185.93" rx="5.49" ry="6.02" transform="translate(-4.83 36.92) rotate(-1.65)"/><ellipse class="cls-11" cx="1295.62" cy="211.25" rx="5.83" ry="6.43" transform="translate(-5.58 37.68) rotate(-1.66)"/><ellipse class="cls-11" cx="1297" cy="203.73" rx="6.75" ry="6.83"/><ellipse class="cls-11" cx="1297.59" cy="194.9" rx="5.49" ry="6.02" transform="translate(-5.08 37.48) rotate(-1.65)"/><ellipse class="cls-11" cx="1284.91" cy="170.24" rx="5.49" ry="6.02" transform="translate(-4.37 37.1) rotate(-1.65)"/><ellipse class="cls-11" cx="1290.02" cy="169.62" rx="6.39" ry="6.47"/><ellipse class="cls-11" cx="1294.46" cy="175.94" rx="5.49" ry="6.02" transform="translate(-4.53 37.38) rotate(-1.65)"/><ellipse class="cls-11" cx="1296.31" cy="182.89" rx="5.49" ry="6.02" transform="translate(-4.73 37.44) rotate(-1.65)"/><ellipse class="cls-11" cx="1297.77" cy="189.14" rx="5.49" ry="6.02" transform="translate(-4.91 37.48) rotate(-1.65)"/><ellipse class="cls-11" cx="1292.04" cy="220" rx="5.49" ry="6.02" transform="translate(-5.8 37.33) rotate(-1.65)"/><ellipse class="cls-11" cx="1278.17" cy="201.02" rx="20.98" ry="17.24" transform="translate(-6.35 45.64) rotate(-2.04)"/><ellipse class="cls-11" cx="1286.11" cy="184.05" rx="6.27" ry="8.9" transform="translate(-5.25 41.45) rotate(-1.84)"/><ellipse class="cls-11" cx="1248.8" cy="185.32" rx="5.49" ry="6.02" transform="translate(-4.82 36.07) rotate(-1.65)"/><ellipse class="cls-11" cx="1251.43" cy="179.2" rx="5.49" ry="6.02" transform="translate(-4.65 36.14) rotate(-1.65)"/><path class="cls-12" d="M1256.3,180.19s-1.28,2.89-5.48,1.92-4.13-4.14-4.13-4.14a4.87,4.87,0,0,0,3.77,5.72A4.81,4.81,0,0,0,1256.3,180.19Z"/><ellipse class="cls-11" cx="1275.48" cy="162.68" rx="4.56" ry="5.27" transform="translate(-4.36 38.92) rotate(-1.75)"/><polygon class="cls-10" points="1240.78 206.09 1242.34 203.39 1244.68 200.51 1246.37 199.18 1249.99 194.77 1253.49 190.81 1258.82 186.69 1262.78 183.79 1264.31 182.69 1266.83 182.61 1270.28 183.94 1274.94 185.58 1275.68 182.89 1276.09 180.37 1275.24 177.74 1274.59 175.16 1274.54 173.54 1279.2 171.58 1281.72 168.89 1284.34 166.95 1293.09 162.44 1296.69 160.59 1299.48 158.86 1302.21 156.76 1304.29 154.39 1297.88 157.19 1294.23 157.93 1289.68 158.08 1285.34 158.23 1281.87 158.35 1278.83 159.56 1274.2 163.36 1271.08 167.11 1268.98 168.14 1271.43 163.97 1273.32 161.57 1273.23 158.64 1271.72 155.49 1269.47 150.87 1268.97 147.43 1268.87 144.27 1269.6 141.28 1267.14 145.1 1265.21 148.42 1265.22 151.59 1262.3 155.04 1259.99 158.09 1258.93 159.76 1262.64 165.23 1264.31 168.11 1265.73 170.07 1266.46 171.57 1263.99 173.09 1262.44 173.44 1260.8 170.82 1257.9 165.39 1255.91 167.72 1252.32 167.17 1245.91 167.29 1240.7 168.33 1235.58 169.27 1233.36 169.73 1231.51 169.79 1230.14 169.55 1228.35 168.08 1230.67 170.62 1233.25 172.23 1235.79 172.61 1238.42 172.96 1241.43 172.86 1244.38 173.75 1247.03 174.48 1249.31 174.4 1251.19 174.34 1253.34 174.52 1256.12 174.17 1257.9 174.11 1261.2 174 1257.95 175.72 1255.19 177.33 1251.98 180.33 1249.94 183.18 1247.78 185.69 1246.03 188.87 1244.28 194.26 1242.44 197.42 1241.1 201.09 1240.44 204.78 1240.78 206.09"/><polygon class="cls-10" points="1254.44 174.13 1255.45 175.13 1256.52 176.91 1261.5 174.9 1261.11 172.65 1254.44 174.13"/><polygon class="cls-11" points="1271.18 164.39 1268.98 168.14 1271.08 167.11 1271.99 166.03 1271.18 164.39"/><polygon class="cls-13" points="1262.44 173.44 1263.99 173.09 1266.46 171.57 1265.73 170.07 1264.31 168.11 1263.61 166.91 1262.64 165.23 1261.87 164.1 1261.1 162.96 1260.42 161.96 1259.86 161.13 1258.93 159.76 1258.2 158 1257.37 156.4 1254.77 152.37 1253.11 149.78 1251.95 147.76 1251.48 147.06 1250.35 146.59 1248.98 146.63 1248.29 146.66 1248.32 147.69 1248.36 148.78 1248.71 149.87 1253.37 157.5 1255.09 160.06 1256.9 162.73 1257.9 165.39 1259.05 167.53 1261.19 171.35 1262.44 173.44"/><path class="cls-12" d="M1265.45,199.39s-1.27,2.88-5.48,1.91-4.12-4.13-4.12-4.13a4.86,4.86,0,0,0,3.76,5.71A4.79,4.79,0,0,0,1265.45,199.39Z"/><path class="cls-12" d="M1272.62,189.52s-1.27,2.89-5.48,1.92-4.12-4.13-4.12-4.13a4.86,4.86,0,0,0,3.76,5.71A4.79,4.79,0,0,0,1272.62,189.52Z"/><path class="cls-12" d="M1280.82,198.86s-1.27,2.89-5.47,1.92-4.13-4.13-4.13-4.13a4.86,4.86,0,0,0,3.77,5.71A4.78,4.78,0,0,0,1280.82,198.86Z"/><path class="cls-12" d="M1288.84,188.7s-1.27,2.89-5.48,1.92-4.12-4.13-4.12-4.13a4.86,4.86,0,0,0,3.76,5.71A4.79,4.79,0,0,0,1288.84,188.7Z"/><path class="cls-12" d="M1286.27,179.17s-1.27,2.89-5.48,1.92-4.12-4.13-4.12-4.13a4.86,4.86,0,0,0,3.76,5.71A4.79,4.79,0,0,0,1286.27,179.17Z"/><path class="cls-12" d="M1301.31,187.7s-1.28,2.89-5.48,1.92-4.13-4.14-4.13-4.14a4.87,4.87,0,0,0,3.77,5.72A4.81,4.81,0,0,0,1301.31,187.7Z"/><path class="cls-12" d="M1274.54,209.47s-1.27,2.88-5.48,1.91-4.12-4.13-4.12-4.13a4.86,4.86,0,0,0,3.76,5.72A4.8,4.8,0,0,0,1274.54,209.47Z"/><path class="cls-12" d="M1297.47,199.9s-1.27,2.89-5.47,1.92-4.13-4.13-4.13-4.13a4.86,4.86,0,0,0,3.77,5.71A4.79,4.79,0,0,0,1297.47,199.9Z"/><path class="cls-12" d="M1292.13,210.26s-1.27,2.89-5.47,1.92-4.13-4.13-4.13-4.13a4.86,4.86,0,0,0,3.77,5.71A4.79,4.79,0,0,0,1292.13,210.26Z"/><path class="cls-12" d="M1284.3,217.59s-1.27,2.89-5.48,1.92-4.12-4.13-4.12-4.13a4.86,4.86,0,0,0,3.77,5.71A4.78,4.78,0,0,0,1284.3,217.59Z"/><path class="cls-12" d="M1294.52,172.87s-1.27,2.89-5.48,1.92-4.12-4.14-4.12-4.14a4.86,4.86,0,0,0,3.77,5.72A4.79,4.79,0,0,0,1294.52,172.87Z"/><polygon class="cls-10" points="1194.69 174.7 1197.81 171.84 1200.17 167.72 1201.93 163.29 1202.94 159.52 1203.69 153.6 1198.78 154.89 1193.64 157.48 1187.99 161.65 1185.2 164.49 1182.21 168.32 1180.63 171.1 1179.78 173.54 1179.45 175.31 1179.34 177.6 1181.28 178.83 1182.37 179.7 1183.74 181 1184.87 182.32 1185.39 183.03 1186.93 180.59 1188.59 178.68 1190.4 177.11 1192.77 175.59 1194.69 174.7"/><path class="cls-14" d="M1212,194.63c0,11.59-8.44,21-18.85,21-6.8,0-12.75-4-16.07-10a18.69,18.69,0,0,1-16.36,10c-10.41,0-18.85-8.9-18.85-19.89s8.44-19.89,18.85-19.89a18.6,18.6,0,0,1,15.76,9c3.16-6.66,9.44-11.19,16.67-11.19C1203.59,173.63,1212,183,1212,194.63Z"/><ellipse class="cls-5" cx="1159.93" cy="179.29" rx="1.84" ry="0.63"/><ellipse class="cls-5" cx="1165.57" cy="182.19" rx="2.27" ry="4.21" transform="translate(415.78 1093) rotate(-59.42)"/><ellipse class="cls-5" cx="1189.21" cy="182.19" rx="4.58" ry="2.73" transform="translate(12.23 431.46) rotate(-20.67)"/><ellipse class="cls-5" cx="1198.82" cy="181.05" rx="1.37" ry="2.91" transform="translate(781.82 1319.49) rotate(-78.47)"/><path class="cls-15" d="M1202.36,193.5c-.44,1.05-2.56.11-3.63.09-.3,0-.76.33-1.08.08,0,.05-.09.1-.09.14a1.54,1.54,0,0,1,0,.37c-.23,1.21,1,2.88-.31,3.71s-2.52-.77-3.26-1.77a4.59,4.59,0,0,1-.26-.49c-.09.05-.26.22-.35.27-1.14.55-2.91,1.51-3.86.07s.77-2.41,1.55-3.4c.19-.25.29-.62.56-.8a2.66,2.66,0,0,1-.53-.8c-.41-1-1.59-2.94-.7-3.78s3.11.21,4,.57c.17.06.41.48.56.59a2,2,0,0,1,.38-.7c.86-.68,1.95-2.48,3.26-1.88s-.19,2.22.12,3.31c0,.15.11.37.14.51.19.17.59.26.68.55C1200.05,191.49,1202.79,192.44,1202.36,193.5Z"/><ellipse class="cls-14" cx="1195.07" cy="192.56" rx="0.66" ry="1.12" transform="matrix(0.84, -0.55, 0.55, 0.84, 90.89, 688.61)"/><ellipse class="cls-14" cx="1196.25" cy="191.73" rx="0.6" ry="1.1" transform="translate(60.05 612.24) rotate(-29.42)"/><path class="cls-15" d="M1161.87,187.79c.36,1.08-1.84,1.8-2.65,2.51-.23.2-.35.76-.76.79,0,0,0,.14,0,.16a1.28,1.28,0,0,1,.26.26c.63,1.06,2.66,1.46,2.21,3s-2.39,1.12-3.59.87a4,4,0,0,1-.52-.19c0,.11,0,.34-.09.44-.49,1.18-1.18,3.09-2.83,2.65s-1-2.32-1.08-3.58c0-.31-.19-.66-.1-1a2.71,2.71,0,0,1-.92-.24c-1-.5-3.13-1.12-3-2.36s2.46-1.93,3.4-2.3c.16-.07.62.08.81.06a1.9,1.9,0,0,1-.19-.77c.2-1.09-.17-3.17,1.2-3.61s1.32,1.79,2.27,2.4a4.61,4.61,0,0,1,.43.29c.26,0,.62-.21.88-.05C1158.83,187.84,1161.5,186.71,1161.87,187.79Z"/><ellipse class="cls-14" cx="1156.41" cy="192.34" rx="1.12" ry="0.67" transform="translate(96.65 693.53) rotate(-34.75)"/><ellipse class="cls-14" cx="1155.36" cy="190.88" rx="1.12" ry="0.66" transform="translate(212.54 885.42) rotate(-45.76)"/><polygon class="cls-10" points="1165.57 176.5 1161.91 173.63 1158.86 169.19 1156.42 164.29 1154.84 160.04 1153.27 153.25 1158.63 154.02 1164.4 156.26 1170.92 160.28 1174.25 163.17 1177.92 167.18 1179.96 170.19 1181.18 172.91 1181.76 174.91 1182.17 177.57 1180.3 179.29 1179.26 180.47 1177.99 182.19 1176.96 183.91 1176.51 184.81 1174.56 182.19 1172.56 180.22 1170.43 178.66 1167.72 177.25 1165.57 176.5"/><polygon class="cls-16" points="1079.59 249.84 1131.6 326.5 1132.46 326.43 1173.28 293.55 1173.66 292.37 1122.44 216.25 1121.5 215.51 1120.45 215.91 1080.41 248.21 1079.95 248.92 1079.59 249.84"/><polygon class="cls-17" points="1082.93 250.29 1094.05 266.78 1105.42 257.85 1093.91 241.01 1082.93 250.29"/><polygon class="cls-16" points="1085.15 251.27 1095.5 266.67 1105.74 257.76 1095.64 242.66 1085.15 251.27"/><polygon class="cls-17" points="1095.88 238.81 1107.61 255.96 1119.63 246.65 1107.49 229.13 1095.88 238.81"/><polygon class="cls-16" points="1098.85 239.6 1109.75 254.96 1120.66 246 1110.02 230.94 1098.85 239.6"/><polygon class="cls-17" points="1110.09 228.19 1121.21 244.68 1132.58 235.75 1121.07 218.91 1110.09 228.19"/><polygon class="cls-16" points="1112.31 229.17 1122.66 244.57 1132.9 235.66 1122.8 220.56 1112.31 229.17"/><polygon class="cls-17" points="1095.47 268.97 1106.59 285.46 1117.97 276.53 1106.45 259.68 1095.47 268.97"/><polygon class="cls-16" points="1097.69 269.94 1108.04 285.34 1118.28 276.44 1108.18 261.33 1097.69 269.94"/><polygon class="cls-17" points="1109.4 258.23 1120.52 274.72 1131.89 265.79 1120.38 248.95 1109.4 258.23"/><polygon class="cls-16" points="1111.62 259.2 1121.97 274.61 1132.21 265.7 1122.11 250.6 1111.62 259.2"/><polygon class="cls-17" points="1122.65 247.19 1133.78 263.68 1145.15 254.75 1133.64 237.9 1122.65 247.19"/><polygon class="cls-16" points="1124.88 248.16 1135.22 263.56 1145.46 254.66 1135.37 239.56 1124.88 248.16"/><polygon class="cls-17" points="1112.73 295.01 1108.1 288.75 1119.7 279.27 1122.23 282.81 1112.73 295.01"/><polygon class="cls-16" points="1110.45 288.93 1114.59 293.92 1122.54 282.27 1120.51 280.26 1110.45 288.93"/><polygon class="cls-9" points="1111.08 297.21 1146 251.16 1174.34 292.27 1174.48 294.13 1132.56 327.78 1131.26 327.02 1111.08 297.21"/><polygon class="cls-5" points="1110.86 299.28 1150.18 274.55 1147.68 252.94 1145.95 250.73 1110.72 297.53 1110.86 299.28"/><path class="cls-5" d="M1250.7,288.4s2.58-2.06,9.07,2.85,5.74,8.35,5.74,8.35c1.16-1.91-1.21-6-5.31-9.07S1251.86,286.49,1250.7,288.4Z"/><ellipse class="cls-18" cx="1211.21" cy="289.71" rx="18.48" ry="21.25" transform="translate(149.1 940.01) rotate(-44.93)"/><ellipse class="cls-18" cx="1250.83" cy="303.5" rx="19.69" ry="18.64" transform="translate(-27.49 453.79) rotate(-20.34)"/><polygon class="cls-10" points="1216.77 273.72 1221.34 269.4 1225.53 263.66 1226.92 259 1228.78 250.51 1228.78 246.35 1229.5 239.63 1231.21 242.19 1231.21 249.47 1230.07 256.67 1228.78 260.39 1226.49 265.69 1224.63 269.08 1222.63 272.12 1218.77 276.28 1216.77 276.28 1216.77 273.72"/><polygon class="cls-10" points="1244.66 285.9 1243.52 278.54 1242.09 272.28 1239.94 263.66 1237.08 255.79 1234.5 249.47 1231.21 242.19 1229.5 239.63 1226.92 236.1 1225.53 236.1 1221.91 232.9 1220.34 230.02 1219.72 227.62 1221.49 227.62 1222.63 225.54 1225.53 230.82 1228.07 234.18 1231.21 237.06 1234.5 242.35 1237.08 248.11 1240.37 255.72 1243.09 265.69 1244.66 273.04 1246.38 279.81 1247.36 285.15 1247.36 287.77 1246.45 288.73 1245.26 288.26 1244.63 287.84 1244.66 285.9"/><polygon class="cls-19" points="1224.43 228.82 1228.85 227.09 1233.86 227.09 1238.4 227.96 1242.78 229.98 1248.41 234.36 1250.68 237.51 1254.2 241.89 1259.76 247.75 1264.14 251.78 1266.72 253.27 1268.75 253.27 1273.21 253.27 1269.3 254.76 1263.67 254.76 1257.49 253.71 1250.37 251.87 1244.19 248.89 1239.18 245.83 1234.5 242.35 1229.79 235.41 1228.07 234.18 1225.96 231.56 1224.43 228.82"/><polygon class="cls-20" points="1225.53 236.1 1225.1 239.63 1225.53 242.5 1226.12 245.48 1226.9 247.58 1228.58 251.44 1228.78 249.24 1228.78 247.23 1228.78 246.35 1229.06 243.77 1229.36 240.93 1229.5 239.63 1226.92 236.1 1225.53 236.1"/><polygon class="cls-20" points="1231.21 242.19 1231.21 246.7 1231.21 249.47 1230.9 251.44 1230.31 255.16 1231.83 257.13 1233.54 259.57 1236.13 262.37 1237.93 263.95 1240.62 266.39 1239.94 263.66 1239.02 261.41 1238.32 259.4 1237.57 257.13 1236.47 254.29 1235.46 251.44 1234.5 249.47 1233.23 246.18 1231.21 242.19"/><polygon class="cls-20" points="1243.7 268.53 1246.85 270.51 1250.45 272.27 1255.77 273.67 1253.42 269.46 1249.73 261.94 1246.77 256.07 1245.75 253.53 1244.58 250.03 1244.19 248.89 1241.4 247.19 1239.18 245.83 1236.89 244.12 1234.5 242.35 1239.02 255.11 1241.29 262.02 1243.7 268.53"/><path class="cls-5" d="M1250.88,290.12s2.74-3.21,9,.66,5.34,8.19,5.34,8.19c1.28-2.62-.89-6.72-4.86-9.16S1252.17,287.5,1250.88,290.12Z"/><path class="cls-5" d="M1219,279.37s3.92-.71,6.83,6.64-.18,10.14-.18,10.14c2.44-1.21,2.93-5.95,1.1-10.59S1221.45,278.15,1219,279.37Z"/><ellipse cx="1230.95" cy="381.91" rx="19.28" ry="41.96" transform="translate(817.08 1602.49) rotate(-88.51)"/><ellipse class="cls-5" cx="1231.36" cy="375.19" rx="17.49" ry="41.96" transform="translate(824.23 1596.35) rotate(-88.51)"/><ellipse cx="1231.38" cy="365.23" rx="20.1" ry="41.96" transform="translate(834.14 1586.65) rotate(-88.5)"/><polygon class="cls-21" points="1043.68 330.35 1037.02 335.95 1033.91 340.57 1031.76 348.62 1030.78 360.79 1031.66 372.28 1035.59 380.73 1041.2 388.53 1048.65 395.45 1057.02 400.95 1064.21 404.42 1072.29 403.79 1080.05 401.25 1085.91 398.69 1092.61 395.89 1098.53 394.03 1104.36 391.09 1108.46 383.62 1111.09 375 1112.31 368.43 1111.72 360.59 1110.99 351.01 1109.68 345.25 1105.79 339.51 1103.01 337.1 1101.38 333.87 1098.18 330.46 1093.38 326.46 1090.6 324.05 1086.07 321.43 1080.85 318.68 1077.09 317.05 1071.52 316.61 1065.16 317.11 1060.35 317.48 1054.98 319.65 1050.59 323.32 1047.2 326.57 1043.68 330.35"/><ellipse class="cls-22" cx="1035.05" cy="354.24" rx="5.26" ry="3.96" transform="translate(42.48 814.26) rotate(-43.76)"/><ellipse class="cls-22" cx="1056.71" cy="359.68" rx="4.25" ry="3.55" transform="translate(-57.36 429.41) rotate(-22.38)"/><ellipse class="cls-22" cx="1073.11" cy="378.7" rx="6" ry="3.97" transform="translate(-64.03 422.19) rotate(-21.63)"/><ellipse class="cls-22" cx="1093.57" cy="343.72" rx="2.82" ry="3.46" transform="translate(-41.32 182.29) rotate(-9.35)"/><ellipse class="cls-22" cx="1096.11" cy="365.76" rx="3.73" ry="5.34" transform="translate(-58.82 402.89) rotate(-20.29)"/><ellipse class="cls-22" cx="1050.17" cy="384.52" rx="4.25" ry="3.55" transform="translate(-67.31 428.79) rotate(-22.38)"/><ellipse class="cls-22" cx="1091.66" cy="388.18" rx="4.06" ry="2.58" transform="translate(-66.25 428.73) rotate(-21.58)"/><path class="cls-22" d="M1053.53,333.29a3.41,3.41,0,0,1-2.29,4.16,3.33,3.33,0,0,1-4.44-1.54,3.39,3.39,0,0,1,2.29-4.15,3.33,3.33,0,0,1,4.44,1.53"/><path class="cls-22" d="M1077.27,349.8a3.62,3.62,0,0,1-1.77,4.75,3.54,3.54,0,0,1-4.46-2.33,3.62,3.62,0,0,1,1.77-4.76,3.56,3.56,0,0,1,4.46,2.34"/><path class="cls-22" d="M1081.41,329.65a3.62,3.62,0,0,1-1.77,4.75,3.55,3.55,0,0,1-4.46-2.33,3.63,3.63,0,0,1,1.77-4.76,3.55,3.55,0,0,1,4.46,2.34"/><path class="cls-22" d="M1066.24,321.29c.66,1.73-.46,3.77-2.49,4.56s-4.21,0-4.87-1.69.47-3.77,2.5-4.56,4.21,0,4.86,1.69"/><path class="cls-23" d="M1075.87,329.37a2.61,2.61,0,0,1,3.43-.49,2.68,2.68,0,0,1,1.41,3.21,2.75,2.75,0,0,0-1.14-3.69A2.69,2.69,0,0,0,1075.87,329.37Z"/><path class="cls-23" d="M1071.57,349.65a2.63,2.63,0,0,1,3.44-.49,2.68,2.68,0,0,1,1.4,3.21,2.74,2.74,0,0,0-1.14-3.69A2.69,2.69,0,0,0,1071.57,349.65Z"/><path class="cls-23" d="M1092.18,341.37a2.62,2.62,0,0,1,3.13,1.52,2.69,2.69,0,0,1-.59,3.46,2.76,2.76,0,0,0,1.07-3.71A2.68,2.68,0,0,0,1092.18,341.37Z"/><path class="cls-23" d="M1093.79,366.78a2.68,2.68,0,0,1,.34-3.49,2.62,2.62,0,0,1,3.42-.63,2.69,2.69,0,0,0-3.82.25A2.77,2.77,0,0,0,1093.79,366.78Z"/><path class="cls-23" d="M1054.51,361.75a2.69,2.69,0,0,1,1.31-3.25,2.62,2.62,0,0,1,3.45.38,2.69,2.69,0,0,0-3.73-.85A2.76,2.76,0,0,0,1054.51,361.75Z"/><path class="cls-23" d="M1031.26,355.91s-.39-1.67,2.69-3.53,4.35-.72,4.35-.72c-.58-1-2.62-.81-4.56.36S1030.69,354.93,1031.26,355.91Z"/><path class="cls-23" d="M1052.34,333.16a2.69,2.69,0,0,1-1.27,3.27,2.62,2.62,0,0,1-3.45-.34,2.67,2.67,0,0,0,3.73.81A2.76,2.76,0,0,0,1052.34,333.16Z"/><path class="cls-23" d="M1060.55,325.11a2.7,2.7,0,0,1,.41-3.49,2.61,2.61,0,0,1,3.42-.56,2.68,2.68,0,0,0-3.82.18A2.77,2.77,0,0,0,1060.55,325.11Z"/><path class="cls-23" d="M1077,377.24s.24,1.69-3,3.27-4.39.34-4.39.34c.49,1,2.53,1,4.57,0S1077.51,378.26,1077,377.24Z"/><path class="cls-23" d="M1094.78,387.53s0,.89-2.23,2-2.94.53-2.94.53c.25.51,1.6.36,3-.34S1095,388,1094.78,387.53Z"/><path class="cls-23" d="M1048.32,387.07a2.7,2.7,0,0,1-.09-3.51,2.63,2.63,0,0,1,3.31-1.06,2.69,2.69,0,0,0-3.75.74A2.76,2.76,0,0,0,1048.32,387.07Z"/><polygon class="cls-10" points="1070.41 517.12 1072.48 516.59 1073.32 514.32 1075.45 514.8 1078.33 515.1 1085.36 518.3 1084.77 515.95 1084.22 513.75 1083.37 510.31 1083.72 509.45 1085.17 509.43 1086.19 508.61 1086.87 507.68 1087.08 506.82 1087.1 504.44 1088.67 504.64 1090.53 504.06 1092.29 507.92 1096.4 513.43 1096.57 508.49 1097.44 505.89 1098.5 501.83 1099.1 501.77 1100.63 502.55 1102.58 502.55 1104.14 502 1106.08 500.75 1107.24 511.73 1110.47 504.43 1111.7 504.47 1113.01 503.88 1113.88 503.2 1115.05 504.47 1116.12 505.11 1112.46 510.69 1111.15 515.23 1110.57 523.73 1110.82 530.23 1111.98 537.63 1113.96 543.29 1118.53 559.32 1116.5 559.84 1113.01 560.43 1109.98 561.5 1107.28 562.81 1104.65 563.98 1102.4 565.11 1098.3 567.21 1097.36 563.42 1096.89 559.79 1096.78 557.13 1096.56 554.03 1095.84 550.92 1095.27 547.78 1092.77 540.81 1090.8 538.59 1088.49 535.02 1086.7 531.76 1084.5 528.61 1083.2 526.04 1080.35 523.78 1077.72 521.55 1074.41 519.23 1070.41 517.12"/><ellipse class="cls-24" cx="1109.76" cy="563.72" rx="11.16" ry="1.72" transform="translate(-125.86 413.4) rotate(-19.99)"/><polygon class="cls-25" points="1047.35 495.94 1045.27 492.5 1046.17 488.85 1048.79 485.87 1053.14 485.15 1055.57 486.61 1053.85 482.98 1055.87 478.93 1057.51 478.16 1059.28 479.23 1060.66 475.68 1063.18 472.82 1065.71 472.59 1067.15 473.45 1068.56 470.45 1071.25 467.17 1073.34 464.58 1076.02 463.38 1078.82 462.97 1081.65 463.26 1083.92 464.63 1087.59 466.83 1089.53 463.09 1091.34 461.03 1093.43 460.19 1097.78 461.4 1100.31 462.92 1101.96 465.65 1103.43 467.06 1105.68 468.24 1107 470.25 1106.45 472.19 1103.32 473.11 1106.23 473.98 1108.49 476.03 1109.3 477.74 1107.69 479.57 1105.87 481.63 1102.41 480.08 1099.65 478.6 1097.23 480.47 1094.76 482.84 1091.84 484.41 1088.53 485.75 1083.61 486.29 1080.75 487.55 1079.37 489.34 1078.92 491.17 1075.46 492.25 1073.39 494.7 1066.93 495.57 1060.39 495.97 1054.93 496.27 1047.35 495.94"/><polygon class="cls-25" points="1093.74 459.54 1096.99 458 1101.31 458.32 1105.34 459.76 1107.35 462.44 1106.4 464.07 1109.96 462.75 1115.03 463.74 1116.34 464.72 1115.65 465.91 1119.97 466.53 1123.85 467.92 1124.81 469.49 1124.25 470.46 1127.98 471.14 1132.38 472.61 1135.84 473.75 1137.91 475.35 1139.15 477.08 1139.61 478.88 1138.72 480.41 1137.29 482.87 1141.98 483.83 1144.78 484.83 1146.29 486.09 1146.16 488.9 1145.17 490.6 1142.58 491.82 1141.42 492.84 1140.74 494.34 1138.87 495.3 1136.55 495.09 1134.66 493.18 1134.5 495.07 1132.84 496.63 1131.16 497.26 1128.68 496.37 1125.89 495.37 1126.65 493.08 1127.53 491.25 1124.78 489.85 1121.46 488.46 1118.91 486.73 1116.5 484.74 1114.53 481.68 1112.34 479.98 1109.96 479.23 1107.8 479.07 1105.65 476.97 1102.35 475.83 1099.58 471.83 1097.32 467.74 1095.48 464.33 1093.74 459.54"/><polygon class="cls-25" points="1080.35 523.78 1079.78 525.81 1078.04 527.11 1075.94 527.65 1074.09 526.75 1073.76 525.47 1072.99 527.48 1070.69 528.63 1069.8 528.51 1069.57 527.57 1067.7 528.69 1065.68 529.2 1064.67 528.6 1064.48 527.84 1062.81 528.72 1060.57 529.37 1058.81 529.89 1057.38 529.65 1056.2 529.06 1055.29 528.15 1054.98 526.95 1054.5 525 1052.36 526.05 1050.9 526.42 1049.82 526.2 1048.7 524.49 1048.37 523.15 1048.83 521.53 1048.84 520.53 1048.47 519.41 1048.77 518.2 1049.72 517.52 1051.21 518 1050.49 516.83 1050.46 515.34 1050.83 514.39 1052.12 514.06 1053.57 513.69 1054.23 515.3 1054.66 516.69 1056.26 516.56 1058.07 516.24 1059.74 516.39 1061.46 516.73 1063.45 517.86 1064.98 518.12 1066.17 517.74 1067.04 517.09 1068.71 517.59 1070.41 517.12 1073.09 518.53 1075.62 520.17 1077.72 521.55 1080.35 523.78"/><polygon class="cls-25" points="1053.57 513.69 1054.66 516.69 1058.07 516.24 1061.46 516.73 1063.45 517.86 1064.98 518.12 1066.17 517.74 1067.04 517.09 1068.71 517.59 1072.48 516.59 1073.32 514.32 1075.45 514.8 1075.96 514.25 1077.25 513.47 1077.72 512.12 1079.03 512.23 1080.77 511.62 1082.18 510.81 1083.37 510.31 1083.72 509.45 1085.17 509.43 1086.19 508.61 1087.08 506.82 1087.1 504.44 1088.67 504.64 1090.53 504.06 1091.63 503.28 1092.52 502.23 1092.97 500.27 1094.69 501.23 1096.52 501.55 1098.5 501.83 1099.1 501.77 1100.63 502.55 1102.58 502.55 1104.14 502 1105.28 501.26 1106.08 500.75 1106.53 501.39 1107.26 501.88 1108.15 501.95 1109.16 501.39 1109.37 502.24 1109.57 503.02 1109.8 503.97 1110.47 504.43 1111.7 504.47 1113.01 503.88 1113.88 503.2 1115.05 504.47 1116.12 505.11 1117.71 504.38 1118.33 503.18 1119.7 504.55 1120.89 504.25 1122.08 503.94 1123.21 502.98 1124.11 501.51 1124.42 500 1124 498.29 1123.8 497.49 1125.59 496.84 1127.35 495.63 1128.35 494.56 1128.83 493.25 1128.51 491.99 1128.65 490.24 1128.34 488.98 1127.21 488.61 1125.59 489.02 1126.94 487.05 1127.87 484.81 1128.2 482.44 1127.66 480.29 1126.48 478.3 1125 476.97 1123.55 476.67 1120.85 477.36 1120.34 475.77 1118.99 474.5 1117.79 473.85 1116.39 474.21 1114.88 474.6 1113.35 473.08 1111.37 471.58 1108.92 470.49 1106.02 470.38 1103.22 471.57 1101.39 472.99 1100.95 471.67 1099.14 470.42 1096.39 469.98 1094.12 470.56 1091.53 471.22 1089.48 471.75 1087.87 472.63 1087.1 473.69 1086.59 475.35 1086.89 477.46 1085.77 477.56 1084.18 477.2 1082.69 477.68 1083.29 479.62 1081.99 479 1080.52 479.09 1078.97 479.77 1077.45 481.5 1075.77 483.07 1074.79 485.13 1076.11 487.65 1074.87 486.83 1073.32 487.51 1071.93 486.53 1069.44 486.69 1066.42 487.46 1063.31 488.64 1061.6 490.22 1060.27 491.8 1059.47 494.58 1060.65 496.09 1058.55 495.48 1056.43 495.74 1054.75 496.84 1054.77 498.74 1055.21 500.06 1057.47 501.76 1054.29 501.91 1052.29 503.57 1051.55 505.57 1050.88 508.03 1050.71 510.55 1051.2 512.52 1052.12 514.06 1053.57 513.69"/><polygon class="cls-25" points="1111.56 513.93 1113.07 515.91 1115.15 516.46 1117.13 515.95 1118.17 513.96 1117.76 512.34 1119.43 514.2 1121.89 514.29 1122.55 513.67 1122.25 512.49 1124.34 512.76 1126.24 512.27 1126.75 511.07 1126.51 510.11 1128.32 510.22 1130.47 509.76 1132.17 509.41 1133.21 508.39 1133.86 507.1 1134.13 505.59 1133.75 504.07 1133.14 501.63 1135.42 501.67 1136.79 501.32 1137.55 500.5 1137.57 497.98 1137.15 496.29 1135.95 494.72 1135.42 493.59 1135.14 492.14 1134.28 490.93 1133.16 490.67 1132.19 492 1132.17 490.3 1131.43 488.6 1130.64 487.73 1129.43 488.04 1128.06 488.39 1128.36 490.56 1128.72 492.35 1127.36 493.05 1125.73 493.65 1124.45 494.69 1123.24 495.99 1122.2 498.32 1121.1 499.41 1119.93 499.62 1118.89 499.35 1117.8 500.79 1116.18 501.17 1114.73 504.18 1113.53 507.36 1112.54 510.03 1111.56 513.93"/><polygon class="cls-25" points="1048.45 523.16 1045.22 523.97 1042.95 523.25 1041.82 521.71 1042.94 519.46 1044.9 518.33 1041.66 518.94 1039.54 517.63 1039.61 516.74 1041.03 515.91 1039.03 514.96 1037.94 513.48 1038.72 512.18 1039.88 511.51 1038.27 510.58 1036.95 508.99 1035.89 507.74 1036.05 506.3 1036.81 504.84 1038.08 503.43 1039.91 502.37 1042.87 500.66 1040.93 499.41 1040.15 498.35 1040.34 497.22 1042.84 495.1 1044.87 493.92 1047.44 493.28 1049 492.63 1050.68 491.57 1052.62 491.05 1053.8 491.46 1053.27 493.12 1054.99 491.7 1057.3 490.7 1058.82 490.41 1059.52 491.36 1060.31 492.43 1057.89 494.08 1055.8 495.37 1056.22 496.73 1056.98 498.15 1056.99 499.75 1056.7 501.53 1055.23 504.06 1055.06 505.6 1055.81 506.43 1056.95 506.79 1056.41 508.62 1057.37 509.85 1055.56 513.19 1053.38 516.54 1051.53 519.34 1048.45 523.16"/><path class="cls-25" d="M1058.84,491.76C1050,519,1053,498,1053,498"/><ellipse class="cls-25" cx="1060.19" cy="500.94" rx="4.95" ry="12.54" transform="translate(-89.43 270.02) rotate(-13.93)"/><ellipse class="cls-25" cx="1056.2" cy="517.54" rx="4.18" ry="2.23" transform="translate(-95.86 280.56) rotate(-14.48)"/><polygon class="cls-26" points="1180.39 507.23 1180.39 542.02 1275.87 530.55 1275.87 485.71 1273.6 480.88 1270.06 476.84 1265.51 473.2 1260.97 470.39 1257.18 468.34 1253.14 466.81 1248.59 465.53 1244.04 465.53 1180.39 507.23"/><ellipse class="cls-4" cx="1203.92" cy="532.47" rx="5.6" ry="5.67"/><ellipse class="cls-4" cx="1227.15" cy="495.7" rx="5.6" ry="5.11"/><ellipse class="cls-4" cx="1213.88" cy="492.83" rx="1.37" ry="1.39"/><ellipse class="cls-4" cx="1255.7" cy="512.48" rx="9.32" ry="9.44"/><ellipse class="cls-4" cx="1237.96" cy="480.06" rx="4.71" ry="2.54"/><ellipse class="cls-4" cx="1254.77" cy="480.41" rx="2.51" ry="4.67"/><polygon class="cls-4" points="1180.39 524.02 1183.13 524.83 1185.3 527.97 1185.3 531.04 1185.3 534.25 1183.57 537.03 1180.39 538.05 1180.39 524.02"/><polygon class="cls-4" points="1209.24 487.85 1209.62 489.75 1208.03 492.56 1205.71 494.16 1203.27 495.83 1200.54 496.34 1198.61 495.15 1209.24 487.85"/><ellipse class="cls-4" cx="1214.61" cy="518.13" rx="3.15" ry="5.65"/><ellipse class="cls-4" cx="1194.98" cy="519.29" rx="3.63" ry="3.49"/><polygon class="cls-4" points="1227.82 536.41 1234.61 535.57 1235.45 534 1235.58 531.23 1234.92 529.15 1233.43 527.69 1231.46 526.79 1229.54 527.5 1228.19 528.67 1226.81 530.36 1226.68 533.04 1226.61 534.45 1227.82 536.41"/><line class="cls-27" x1="1180.39" y1="507.22" x2="1275.87" y2="485.71"/><path class="cls-5" d="M1251.64,508s2.16-2.52,6.39-.14,3.28,5.57,3.28,5.57c1.08-2-.2-4.81-2.87-6.31S1252.73,506,1251.64,508Z"/><path class="cls-5" d="M1223.49,493.16s1.7-2,4.85-.27,2.34,4.31,2.34,4.31c.87-1.59,0-3.78-2-4.9S1224.37,491.57,1223.49,493.16Z"/><path class="cls-5" d="M1200.36,530.4s1.69-2,4.84-.26,2.34,4.3,2.34,4.3c.87-1.59,0-3.78-2-4.9S1201.23,528.81,1200.36,530.4Z"/><path class="cls-5" d="M1252.62,479.85s.34-2.06,2.14-2,2,2.16,2,2.16a2.11,2.11,0,1,0-4.1-.18Z"/><path class="cls-5" d="M1236.7,478.19a2,2,0,0,0-1.71,1.93c0,1.64,1.83,1.81,1.83,1.81a2.07,2.07,0,0,1-2.29-1.79A2.09,2.09,0,0,1,1236.7,478.19Z"/><path class="cls-5" d="M1207.43,489.29s.78,2-2.18,4.12-4.58.61-4.58.61c.84,1.22,3,1.16,4.89-.15S1208.27,490.51,1207.43,489.29Z"/><path class="cls-5" d="M1197,517.78a2.59,2.59,0,0,1-1,3.21,2.53,2.53,0,0,1-3.34-.15,2.58,2.58,0,0,0,3.63.59A2.65,2.65,0,0,0,1197,517.78Z"/><path class="cls-5" d="M1214.57,522.4s2.11-.63,1.94-4.37-2.33-4.18-2.33-4.18c1.48-.07,2.77,1.79,2.88,4.15S1216.05,522.33,1214.57,522.4Z"/><path class="cls-5" d="M1181.89,536.74s2.09-.75,1.88-5.36-2.37-5.15-2.37-5.15c1.48-.07,2.79,2.22,2.93,5.13S1183.37,536.67,1181.89,536.74Z"/><path class="cls-5" d="M1228.53,530.13s1.4-1.67,4-.2,2,3.56,2,3.56c.72-1.31,0-3.12-1.69-4S1229.25,528.82,1228.53,530.13Z"/><path class="cls-28" d="M1057.89,710.26a20.52,20.52,0,0,0-1.48,3.19c-.79,1.82-1,2.16-1.44,2.36a3.27,3.27,0,0,1-2.49-.32c-.66-.35-.67-.65-1.47-1a6.2,6.2,0,0,0-1.48-.41,14.24,14.24,0,0,1-1.61-.29,3.64,3.64,0,0,1-1.35-.77,3.18,3.18,0,0,1-.94-1.83c-.29-1.76,1-3.34,1.76-4.27a18.58,18.58,0,0,0,1.94-2.22,9.58,9.58,0,0,0,.94-2c.42-1.34.16-1.68.46-2.87a9.75,9.75,0,0,1,1.6-3.07,19.71,19.71,0,0,1,2.21-2.82c1.35-1.45,1.68-1.39,2.83-2.67a18.64,18.64,0,0,0,2.09-2.94c1.31-2.16,1.23-2.67,2.12-4.14.69-1.12.92-1.12,3.63-4,2.1-2.22,3.57-3.92,4.52-5a45.83,45.83,0,0,0,3.25-4c1.57-2.3,1.33-2.63,2.49-3.89,1.73-1.86,2.6-1.48,4-3.24,1.15-1.46.56-1.74,1.87-3.66.94-1.38,1.41-1.49,3.36-3.74.88-1,.65-.84,2.08-2.58a39,39,0,0,1,4.53-5c.75-.67,1-.85,2.18-1.86a11.93,11.93,0,0,0,2.45-2.57c.64-1.09.32-1.31,1.09-2.73.6-1.11.8-1,1.43-2.11,1-1.7.7-2.33,1.47-2.84.44-.3,1.13-.3,2.5-.28a15.74,15.74,0,0,1,3.61.35,18.57,18.57,0,0,1,3.33,1.19,23.4,23.4,0,0,1,3,1.42,26.56,26.56,0,0,1,4.14,3.25c2.16,1.9,1.9,1.83,3.16,2.87,2,1.66,2.45,1.63,4,3a29.58,29.58,0,0,1,3,3.22c1.74,2,2,2.58,3.84,4.81,2.63,3.25,2.59,2.79,4.09,4.81s1.35,2.24,3.57,5.41a41.22,41.22,0,0,0,2.76,3.69,35.08,35.08,0,0,1,3.25,3.71c1.29,1.85,1.44,2.71,1.26,3.4s-.42.69-.54,1.43a3.06,3.06,0,0,0,.42,2.3c.35.47.89.69,2,1.14a18.69,18.69,0,0,0,2.42.76l.18,0c1,.24,1.36.24,1.36.29a23.63,23.63,0,0,1-4.88.44,6.49,6.49,0,0,0-2.13.3,11.54,11.54,0,0,0-1.9,1,11.55,11.55,0,0,1-2.28,1.13c-.91.21-1-.1-2.5-.08a8.73,8.73,0,0,0-3.39.61,8.4,8.4,0,0,0-1.91,1.14,23.53,23.53,0,0,0-2.44,2.45,10.68,10.68,0,0,1-2.69,2.08,9.08,9.08,0,0,1-3.77.84c-1.91.08-2.14-.38-4.48-.38a20.49,20.49,0,0,0-3.13.26,18.22,18.22,0,0,0-3.9.84,13.24,13.24,0,0,0-2.66,1.23c-2,1.24-1.84,2-3.71,3.13a8.07,8.07,0,0,1-3.42,1.34c-1.2.13-1.64-.17-2.75.15a5.63,5.63,0,0,0-2.29,1.37c-.78.7-.77,1-2.08,2.82a8.06,8.06,0,0,1-2,2.22,5.29,5.29,0,0,1-3,.63,6.19,6.19,0,0,1-2.84-.82c-.72-.42-.72-.64-1.59-1.13a8.92,8.92,0,0,0-2-.78,12.28,12.28,0,0,0-2.36-.44,6.09,6.09,0,0,0-2.62,0,5,5,0,0,0-1.92,1.38,25.29,25.29,0,0,0-1.81,2.11c-1.33,1.57-1.58,1.74-1.81,1.86a5,5,0,0,1-2.51.52,7,7,0,0,1-2.24-.31,24.28,24.28,0,0,1-2.21-1,7,7,0,0,0-2.23-.67,17.55,17.55,0,0,0-1.87.06c-1.53.06-1.48,0-1.63.07A4.23,4.23,0,0,0,1057.89,710.26Z"/><polygon class="cls-29" points="1099.18 638.58 1099.64 636.67 1100.94 634.07 1102.62 632.43 1105.14 631.55 1108.54 630.7 1111.3 630.19 1113.42 630.25 1116.51 631.31 1119.09 632.6 1122.41 633.9 1126.1 635.7 1130.5 638.49 1134.52 641.62 1137.94 644.13 1141.2 647.6 1144.12 649.86 1148.07 655.15 1151.28 660.18 1154.86 665.34 1156.37 669 1157.15 672.02 1158.24 676.87 1158.38 678.8 1144.14 680.87 1144.49 677.63 1144.21 674.74 1141.91 672.5 1139.73 670.15 1137.41 668.63 1135.4 665.21 1133.76 661.91 1131.47 659.19 1128.83 656.94 1125.91 653.61 1124.72 651.65 1122.89 650.39 1120.36 647.54 1117.17 645.76 1114.49 643.63 1111.57 641.25 1110.36 640.01 1108.04 638.48 1105.29 638.65 1101.68 638.29 1099.18 638.58"/><ellipse class="cls-9" cx="1071.94" cy="694.96" rx="11.54" ry="9.49" transform="translate(-128.93 259.15) rotate(-13.01)"/><ellipse class="cls-9" cx="1088.8" cy="672.36" rx="10.11" ry="6.6" transform="matrix(0.97, -0.25, 0.25, 0.97, -135.15, 298.85)"/><ellipse class="cls-9" cx="1108.48" cy="691.1" rx="9.72" ry="6.57" transform="translate(-152.91 351.61) rotate(-16.88)"/><ellipse class="cls-9" cx="1119.9" cy="667.69" rx="13.93" ry="9.52" transform="matrix(0.97, -0.25, 0.25, 0.97, -131.87, 302.92)"/><ellipse class="cls-9" cx="1099.96" cy="651.81" rx="10.86" ry="6.27" transform="translate(-178.52 636.17) rotate(-29.95)"/><polyline class="cls-30" points="1100.26 678.17 1104.19 677.25 1103.36 675.93"/><polyline class="cls-30" points="1084.17 661.09 1087.13 663.76 1087.82 662.38"/><polyline class="cls-30" points="1114.35 651.92 1117.3 654.58 1118 653.2"/><polyline class="cls-30" points="1086.99 688.43 1089.95 691.1 1090.64 689.71"/><polyline class="cls-30" points="1119.36 684.8 1123.69 688.84 1124.62 686.84"/><polyline class="cls-30" points="1133.38 681.54 1133.33 676.58 1131.48 677.22"/><polyline class="cls-30" points="1087.57 699.85 1091.49 698.92 1090.67 697.61"/><polygon class="cls-31" points="1300.85 549.63 1300.85 553.89 1298.49 558.65 1294.78 563.08 1290.89 567.18 1288.03 569.81 1285.16 573.25 1283.98 577.19 1283.14 581.78 1282.12 585.72 1278.58 589.66 1281.11 594.42 1282.29 598.36 1282.97 602.13 1283.47 604.75 1284.82 608.04 1287.86 610.99 1291.24 613.45 1294.1 615.91 1295.96 619.03 1297.47 622.8 1297.82 625.59 1297.82 628.55 1297.14 630.68 1296.3 626.41 1294.44 623.13 1292.75 621.65 1290.73 620.01 1288.37 618.53 1286.17 617.55 1283.14 616.4 1280.27 614.93 1277.57 614.43 1275.21 612.96 1273.69 611.64 1271.16 609.68 1270.31 608.2 1269.3 606.56 1268.8 604.92 1268.29 603.12 1267.78 601.31 1267.11 599.67 1266.43 597.21 1265.76 595.73 1263.9 596.55 1262.38 598.03 1260.19 603.61 1257.66 608.2 1259.27 607.81 1260.74 607.81 1262.48 608.4 1263.95 609.05 1265.22 609.76 1266.76 610.81 1267.9 612.11 1268.7 613.67 1269.17 615.42 1269.51 618.09 1270.11 620.76 1271.11 622.65 1272.78 624.99 1275.13 627.98 1270.17 626.55 1267.63 625.7 1264.62 624.27 1261.34 622.38 1258.07 619.91 1255.72 617.51 1253.58 615.42 1251.53 612.79 1249.9 613.61 1244.67 615.75 1237.75 617.55 1232.18 618.04 1227.12 617.72 1227.82 618.09 1229.23 619.07 1230.43 619.65 1231.91 620.04 1233.51 620.5 1235.05 621.15 1236.18 621.93 1237.39 622.97 1238.73 624.4 1239.33 626.23 1239.87 628.3 1240.87 630.68 1241.67 632.02 1243.01 632.28 1244.48 633.32 1245.89 634.75 1246.83 636.37 1248.1 638.72 1249.9 642.55 1248.7 640.54 1247.16 639.24 1245.29 638.2 1243.48 637.35 1240.54 636.37 1238.06 635.47 1235.85 634.62 1233.98 633.71 1231.64 632.47 1229.56 631.1 1227.49 629.35 1225.02 626.68 1223.47 624.27 1222.67 624.86 1222.2 625.97 1221.73 627.72 1221.73 631.75 1221.27 633.05 1220.13 634.75 1219.26 635.72 1217.72 637.22 1216.38 638.85 1215.64 640.6 1215.64 642.3 1216.05 644.57 1217.72 648.48 1215.64 646.59 1213.77 644.25 1212.97 641.9 1212.44 639.37 1212.44 633.38 1212.97 630.39 1213.84 626.94 1214.91 623.3 1215.98 620.5 1217.45 617.25 1218.84 614.29 1217.51 613.61 1211.6 610.33 1206.88 607.21 1202.66 603.61 1200.8 601.31 1198.95 598.85 1201.31 596.88 1199.96 595.08 1198.95 593.43 1200.13 591.63 1204.51 589.5 1208.06 586.38 1212.11 583.26 1212.17 583.22 1211.6 583.26 1213.12 576.86 1214.13 571.94 1215.82 567.02 1219.19 563.08 1222.73 559.64 1226.11 557.17 1231.51 555.04 1237.24 553.4 1241.63 552.41 1245.85 550.94 1250.24 548.15 1246.69 552.41 1245.18 555.86 1244.67 559.8 1245.01 562.26 1246.86 565.7 1249.39 567.51 1252.43 570.96 1253.95 573.91 1255.47 577.52 1255.89 580 1256.48 580.47 1259.35 582.61 1261.88 583.42 1263.57 582.11 1266.6 579.16 1270.14 575.55 1273.02 571.28 1276.05 566.36 1279.43 563.41 1282.29 560.78 1286.85 558.49 1290.05 557.5 1292.24 557.5 1294.44 556.52 1297.65 553.73 1300.85 549.63"/><path d="M1222.47,576.91c.14-.81,1.39-4.47,1.39-4.47l1.39-2.58,2.51-3.52,2.51-3,4-3"/><polyline points="1223.08 576.91 1224.97 574.44 1228.89 570.81 1232.39 567.89 1234.32 565.86 1236.55 563.83 1238.18 561.88 1239.18 560.37 1240.73 557.74"/><polyline points="1216.98 575.57 1216.98 572.49 1217.98 570 1219.92 567.89"/><polyline points="1228.39 574.82 1231.91 572.79 1235.47 571.28 1238.8 569.4 1241.12 567.33 1243.75 563.83"/><polyline points="1241.97 572.33 1244.37 571.13 1246.61 569.33 1247.62 567.33"/><polyline points="1248.16 575.57 1249.7 575.19 1251.02 574.14 1251.64 572.71"/><polyline points="1265.95 585.66 1269.61 583.83 1272.28 581.13 1274.72 578.32 1276.94 575.57 1279.49 572.33 1281.26 569.83 1284.04 567.33 1286.03 565.38 1288.59 563.83 1290.47 563.83 1292.58 563.33 1293.8 563.33"/><polyline points="1265.07 588.73 1267.51 588.73 1270.61 586.9 1274.38 584.63 1276.49 582.48 1278.38 580.43 1280.82 578.15 1282.37 576.81 1283.82 575.38 1284.92 574.82"/><polyline points="1267.51 588.73 1271.06 588.73 1273.72 587.6 1275.72 586.31 1277.6 585.66 1279.04 583.72 1279.88 582.42 1281.71 581.78 1282.7 581.78"/><polyline points="1268.62 590.95 1271.5 590.95 1275.11 593.1 1277.49 595.37 1279.38 598.31 1281.37 600.87 1282.7 603.46"/><polyline points="1269.17 595.15 1271.72 596.02 1274.05 597.74 1275.66 599.9 1277.6 602.17 1279.27 604.43 1280.71 606.59 1282.7 608.96 1286.59 611.34"/><polyline points="1269.17 598.31 1271.5 600.98 1273.16 603.46 1274.38 606.7 1276.6 609.39 1279.88 612.2 1283.59 614.25 1286.59 614.9 1289.81 616.08 1291.91 617.16 1294.91 619.64 1296.57 622.56"/><polyline points="1225.68 588.25 1225.68 590.41 1226.57 593 1228.39 595.69 1229.79 599.36 1229.79 602.06 1229.23 605.08 1227.73 607.13 1225.68 608.64 1223.58 609.5 1221.8 611.34"/><polyline points="1251.97 613.17 1254.86 613.93 1256.97 615.11 1258.52 616.41 1260.07 618.57"/><polyline points="1254.53 611.77 1257.52 611.77 1260.07 612.41 1262.4 613.17 1264.29 614.36 1265.95 616.62"/><polyline points="1259.08 615 1262.63 616.62 1265.07 618.57 1267.51 620.4 1269.17 621.69"/><polyline points="1218.91 615.87 1217.58 619.54 1216.81 622.56 1216.03 624.9 1214.37 628.49"/><polyline points="1219.69 617.16 1218.91 623.19 1217.36 627.2 1215.81 630.86 1213.81 634.42"/><polyline points="1221.8 617.16 1224.8 623.19 1228.23 626.62 1231.56 629.89 1234.56 631.62 1239.88 634.42"/><polyline points="1225.79 617.81 1227.13 620.29 1229.34 622.18 1232.23 623.19 1235.33 624.17"/><ellipse cx="1214.81" cy="593" rx="4.88" ry="4.75"/><ellipse class="cls-5" cx="1213.34" cy="593.62" rx="2.08" ry="2.02"/><polyline points="1236.07 580.38 1238.32 581.78 1239.03 583.14 1237.55 584.62 1235.33 584.62 1240.73 586.2 1240.73 587.58 1239.88 589.36 1239.33 590.95 1238.03 592.03 1236.89 592.03 1235.33 590.95 1237.5 593.62 1237.71 595.15 1237.4 596.57 1236.07 595.64 1237.2 598.31 1237.2 599.79 1236.49 601.31 1234.32 601.7 1235.33 602.69 1236.07 604.07 1235.33 605.55 1234.32 606.54 1232.94 606.54"/><ellipse class="cls-18" cx="1221.98" cy="731.88" rx="45.79" ry="39.09"/><path class="cls-5" d="M1231.59,715.34s3.46-4.37,12.69.63,8.4,10.78,8.4,10.78c1.5-3.54-2-9-7.83-12.1S1233.09,711.81,1231.59,715.34Z"/><polygon class="cls-32" points="1214.55 704.01 1211.2 701.96 1208.87 700.83 1205.62 697.33 1203.39 694.15 1200.15 691.27 1198.12 689.53 1194.26 689.01 1191.63 689.01 1188.89 691.79 1191.42 691.38 1194.06 691.27 1196.9 692.1 1199.54 695.07 1202.38 698.26 1205.62 702.16 1210.69 706.27 1217.09 709.04 1215.36 710.59 1211.71 712.33 1206.74 711.92 1202.48 710.48 1199.54 708.22 1195.38 705.24 1197.31 709.15 1201.57 713.15 1205.32 715 1209.88 716.03 1215.16 715.21 1219.42 714.08 1221.45 713.77 1224.08 714.28 1227.23 715.41 1230.37 716.75 1233.21 718.29 1235.14 720.96 1238.99 725.99 1238.18 720.55 1236.25 716.75 1234.53 714.8 1230.78 712.13 1227.33 710.48 1231.59 710.17 1234.83 709.87 1238.59 709.46 1242.04 709.46 1245.38 709.46 1247.21 709.87 1244.77 707.5 1241.73 707.5 1239.3 706.68 1236.76 706.37 1233.11 706.68 1230.17 707.5 1227.73 707.5 1230.88 703.91 1235.34 699.9 1238.89 696.51 1240.72 692.4 1242.24 686.96 1242.74 683.57 1242.64 680.79 1241.73 678.43 1240.72 677.4 1240.82 679.97 1240.41 683.47 1239.9 686.24 1239.09 688.29 1237.88 690.55 1236.05 693.12 1232.81 695.38 1230.57 697.33 1229.05 698.98 1227.94 700.83 1226.72 702.78 1224.89 703.7 1224.79 701.7 1225 696.82 1225.6 693.33 1224.79 687.37 1224.39 682.85 1223.98 678.64 1223.07 673.3 1222.36 668.26 1220.94 671.55 1220.43 674.63 1220.53 677.61 1220.74 681.82 1221.14 685.01 1221.65 688.71 1222.46 690.97 1221.95 693.84 1221.04 696.41 1220.33 699.39 1220.43 702.67 1221.85 705.76 1222.56 707.09 1223.17 708.53 1220.13 709.76 1218.91 707.61 1216.88 702.57 1215.06 698.57 1213.03 694.87 1211.61 692.61 1211 696.41 1211.2 698.77 1212.22 700.83 1214.55 704.01"/><polygon class="cls-25" points="1220.13 709.76 1223.17 708.53 1220.43 702.67 1220.33 699.39 1214.66 688.75 1214.66 691.05 1213.4 691.81 1211.61 692.61 1217.39 703.83 1220.13 709.76"/><ellipse class="cls-32" cx="1213.19" cy="690.8" rx="2.41" ry="1.32" transform="translate(-146.23 1008.6) rotate(-42.82)"/></g></svg>