<svg xmlns="http://www.w3.org/2000/svg" width="143" height="133" viewBox="0 0 143 133"><defs><style>.cls-1{fill:#f7daea;}</style></defs><g id="Skyer_settings" data-name="Skyer + settings"><path class="cls-1" d="M95.27,72.73l7.41-1.85.91-3.7-.79-4.12-7.3-1.41.23-3.7L93.33,55,97.66,48l-1.93-2.71L92.08,43l-6,3.91-2.62-2.28L79,44.15,77.14,36H68.7L68,44.15l-4,.33L60.72,47l-7.64-4.35-3.31,1.85L47.49,47.3l5.36,6.31-1.94,3.47-.45,4.46-8.78,1.74-.57,3,.68,4.29,6.5.87L49,74.69,50.8,77.4l-3.31,6.74,4.91,6,6.15-4.56,3.65,1.63,4.68,1.52L68.25,96l3.87.54L76,95.34V90l5.36-1.09,3.19-1.63,6.62,3.81,3.76-2.94,2.39-3L92.08,79l2.39-3.15Zm-9.61-5.19c-.66,6.11-5.83,10.79-12.2,11.38A12.44,12.44,0,0,1,63,75.13C58.08,71.58,57.71,64,60.89,59.32a14.09,14.09,0,0,1,16-5.3A13,13,0,0,1,85.66,67.54Z"/></g></svg>