<svg xmlns="http://www.w3.org/2000/svg" width="117" height="112" viewBox="0 0 117 112"><defs><style>.cls-1{fill:#f2d7de;}</style></defs><g id="Liv_setting" data-name="Liv + setting"><path class="cls-1" d="M85,68.33,94.26,66l1.14-4.77-1-5.31-9.09-1.82.28-4.76-3-3.78L88,36.4l-2.42-3.5L81,30l-7.53,5-3.27-2.94L64.7,31.5,62.42,21H51.9l-.85,10.5-5,.42L42,35.14l-9.52-5.6-4.12,2.38-2.84,3.64,6.68,8.13-2.42,4.48-.57,5.74L18.22,56.15,17.51,60l.85,5.53,8.1,1.12.85,4.2,2.28,3.5L25.47,83l6.11,7.7,7.67-5.88L43.8,87l5.83,2,1.7,9.38,4.84.7L61,97.46V90.6l6.68-1.4,4-2.1L79.9,92l4.69-3.78,3-3.92L81,76.45l3-4.06Zm-12-6.69A16.69,16.69,0,0,1,57.83,76.31a15.26,15.26,0,0,1-13.1-4.89c-6.07-4.57-6.53-14.31-2.56-20.36,4.18-6.39,12.67-9.57,20-6.84A16.83,16.83,0,0,1,73.05,61.64Z"/></g></svg>