<?xml version="1.0" encoding="utf-8"?>
<!-- Generator: Adobe Illustrator 24.2.3, SVG Export Plug-In . SVG Version: 6.00 Build 0)  -->
<svg version="1.1" id="Lag_1" xmlns="http://www.w3.org/2000/svg" xmlns:xlink="http://www.w3.org/1999/xlink" x="0px" y="0px"
	 viewBox="0 0 1618 922" style="enable-background:new 0 0 1618 922;" xml:space="preserve">
<style type="text/css">
	.st0{fill:url(#SVGID_1_);}
	.st1{fill:#D6E4C2;stroke:#F2F2F2;stroke-miterlimit:10;}
	.st2{opacity:0.7;fill:#FFFFFF;enable-background:new    ;}
	.st3{opacity:0.77;fill:#FFFFFF;enable-background:new    ;}
	.st4{opacity:0.63;fill:#FFFFFF;enable-background:new    ;}
	.st5{opacity:0.75;fill:#FFFFFF;enable-background:new    ;}
	.st6{fill:#F7DAEA;}
	.st7{fill:#F0E9E7;}
	.st8{fill:#B8B5B5;}
	.st9{fill:#FFFFFF;}
	.st10{fill:#E6DBEE;}
	.st11{fill:#D9CDE7;}
	.st12{fill:#DBEFF6;}
	.st13{fill:#F2D7DE;}
	.st14{fill:#F6BBD5;}
	.st15{fill:#E5F2EB;}
	.st16{fill:#D6E4C2;}
	.st17{fill:none;stroke:#FCFBF9;stroke-miterlimit:10;}
	.st18{fill:#FCD8BC;}
	.st19{fill:#D2E8F3;}
	.st20{fill:#EDCBC4;}
	.st21{fill:none;stroke:#EFCBB4;stroke-miterlimit:10;}
</style>
<linearGradient id="SVGID_1_" gradientUnits="userSpaceOnUse" x1="-1481.8018" y1="860.2671" x2="-738.9018" y2="860.2671" gradientTransform="matrix(0 -1.11 -1.28 0 1894.67 -829.41)">
	<stop  offset="5.000000e-02" style="stop-color:#B7E0EF"/>
	<stop  offset="0.17" style="stop-color:#C0DFEF"/>
	<stop  offset="0.37" style="stop-color:#DADCEE"/>
	<stop  offset="0.44" style="stop-color:#E6DBEE"/>
	<stop  offset="0.84" style="stop-color:#D3ECF6"/>
	<stop  offset="0.99" style="stop-color:#B7E0EF"/>
</linearGradient>
<path class="st0" d="M-33.2,810.6l2.9-823.3l1650.5,4.8v6.5c-0.1,6.4-0.2,12.7-0.3,18.8c0,0.5,0.1,1,0.2,1.4v10.1
	c-1.1,17.7-1,35.8-0.8,53.2c0,6.7,0.1,13.6,0.1,20.4c0,0.7,0.2,1.5,0.5,2.1l-2.5,710.7L-33.2,810.6z"/>
<path d="M1-12.2l1618.8,4.8v6c-0.1,6.5-0.2,12.8-0.3,18.8c0,0.5,0.1,1,0.2,1.5v10c-1.1,17.7-1,35.8-0.8,53.2
	c0,6.7,0.1,13.6,0.1,20.4c0,0.8,0.2,1.5,0.5,2.2l-2.5,710.1L-1.9,810.1L1-12.2 M0-13.2l-2.9,824.3l1620.8,4.8l2.5-711.3
	c-0.3-0.6-0.5-1.3-0.5-2c0.1-24.5-0.8-49.1,0.7-73.6V18.7c-0.1-0.4-0.2-0.9-0.2-1.4c0-6.3,0.1-12.5,0.3-18.8v-7L0-13.2z"/>
<path class="st1" d="M1443.8,997.5c4.4-0.8,8.9-1.3,13.3-2.2c2.9-0.6,6.8-1.1,9.7-2.6c-0.6-12.4-7.9-23.3-13.1-34.2
	c-4.4-9.1-5.4-21.2-11.8-29.2c-5.1-1.2-4.7-9.9,1.3-9.8h0.5c0.6-0.1,1.2-0.1,1.8,0c31.1,0.2,62.1,2.8,93.2,3.7
	c16.2,0.5,32.5,0.6,48.6-0.2c6.4-0.3,12.8-0.8,19.2-0.8c3.7,0,8,0.4,11.9-0.3c-1.7-70.4,0.8-140.6-0.3-211.2c0-0.4-4.6-1.4,1.6-1.5
	c-121.8-39.8-197-58-341-54.6c-212.8,5.1-316.8,38.8-407.1,107.3c-84.6-105.6-293.1-180.3-537-180.3c-128.2,0-246.6,20.7-342.4,55.7
	c1.6,14.8,2.2,29.8,1.9,44.7c-0.1,7.1-0.3,14.2-0.9,21.3c0.5,1.8,0.9,3.6,1.2,5.4c0.6,4.3,0.7,8.6,0.2,12.8c0.2,0.5,0.2,1.1,0.2,1.6
	c0,13.8-0.5,27.5-1.3,41.3c0.1,7.2,0.1,14.3-0.4,21.5c-0.2,3.2-0.3,8.5-1.8,12.5c-2,29.8-3.5,59.4-2.2,89.4c0.4,9,1.5,18,1.6,27.1
	c0,1.7,0.1,3.6,0.1,5.6l0,0c21.3,0,42.6,1,63.9,1.7s42.5,0.1,63.7,0h0.6c62,0,124.1,4.7,186,0.5c0.9-0.7,2-1.1,3.2-1.1
	c29.1,0.1,58,4.5,87.1,4.6c18.1,0.1,36.3-1,54.4-0.8c0.9-1.4,2.4-2.2,4-2.1c81.3,0.1,162.6,7.8,243.9,2.5c0.9-0.9,2.1-1.4,3.4-1.3
	c65.9,0,131.9,2.3,197.8,2.3c0.2,0,0.4,0,0.7,0c29.4,0.4,58.4,4.3,87.6,7.7l3.6-0.1c14.1-0.5,28.2-1.5,42.2-2.2
	c23.7-1.3,47.4-2.1,70.9,0.2c0.7-1.7,2.5-2.8,4.4-2.7c13.5,0,27,0,40.5-0.4c7.8-0.3,15.7-2.4,23.5-2c13.9,0.6,14.5,18.4,15.5,28.9
	c0.6,6.2,0.7,12.5,0.9,18.7c0.2,5.8-1.3,13.7,1.3,19c1.4,2.8,4.4,4,7.3,4.9c5.4,1.4,10.9,2.4,16.5,3c11.5,1.3,23.1,1.5,34.6,2
	c18.6,0.8,37.5,0.4,56,2.3c0.9-1.3,2.4-2,3.9-2c30.2-0.4,60.1,4.4,90.3,0.6C1414,1002.7,1428.9,1000.1,1443.8,997.5z"/>
<path class="st2" d="M695.6,114.6c0,7.7-9.5,14.1-21.8,15l0,0H554.2c-1,0.1-2,0.1-3,0.1c-13.8,0-24.9-6.8-24.9-15.2
	c0-6,5.7-11.1,14-13.6c-1.1-2.6-1.7-5.3-1.7-8.1c0-13,12.5-23.6,27.9-23.6c5.4,0,10.8,1.3,15.5,4c2.6-14.5,16.1-25.6,32.3-25.6
	c16,0,29.4,10.8,32.2,25c2.5-0.9,5.2-1.3,7.9-1.3c11.8,0,21.4,8.5,21.4,18.9c0,3.3-0.9,6.4-2.7,9.2c-0.7,0-1.5-0.1-2.2-0.1
	c-1,0-2,0-3,0.1h6.1l0,0C686.1,100.5,695.6,106.9,695.6,114.6z"/>
<path class="st3" d="M1345.8,111.2c0,7.7-9.5,14.1-21.8,15h-119.6c-1,0.1-2,0.1-3,0.1c-13.8,0-24.9-6.8-24.9-15.2
	c0-6,5.7-11.1,14-13.6c-1.1-2.6-1.7-5.3-1.7-8.1c0-13,12.5-23.6,27.9-23.6c5.4,0,10.8,1.3,15.5,4c2.6-14.5,16.1-25.6,32.3-25.6
	c16,0,29.4,10.8,32.2,25c2.5-0.9,5.2-1.3,7.9-1.3c11.8,0,21.4,8.5,21.4,18.9c0,3.3-0.9,6.5-2.7,9.2c-0.7,0-1.5-0.1-2.2-0.1
	c-1,0-2,0-3,0.1h6l0,0C1336.3,97.1,1345.8,103.4,1345.8,111.2z"/>
<path class="st4" d="M452.1,189.1c0,14-16.1,25.7-36.8,27.3H213.6c-1.7,0.1-3.5,0.2-5.2,0.2c-23.2,0-42-12.3-42-27.5
	c0-10.8,9.6-20.2,23.5-24.7c-1.9-4.7-2.9-9.7-2.9-14.8c0-23.7,21-42.9,47-42.9c9.2,0,18.3,2.5,26.2,7.3
	c4.9-30.1,33.2-50.5,63.2-45.7C346.6,72.1,364.8,90,369,113c4.2-1.6,8.7-2.4,13.3-2.4c19.9,0,36.1,15.4,36.1,34.4
	c0,5.9-1.6,11.6-4.5,16.7C435.3,162.9,452.1,174.7,452.1,189.1z"/>
<path class="st5" d="M1630.4,217.1c0,15.1-15.4,27.5-35.4,29.3h-193.8c-1.7,0.2-3.3,0.2-5,0.2c-22.3,0-40.4-13.2-40.4-29.6
	c0-11.6,9.2-21.7,22.6-26.5c-1.8-5.1-2.8-10.5-2.8-15.9c0-25.4,20.2-46,45.2-46c9,0,17.8,2.7,25.2,7.8c4.2-28.3,26-49.9,52.3-49.9
	c26,0,47.6,21,52.2,48.8c4-1.7,8.4-2.6,12.7-2.6c19.2,0,34.7,16.5,34.7,36.9c0,6.2-1.5,12.4-4.3,17.9c-1.2-0.1-2.4-0.1-3.6-0.1
	c-1.7,0-3.4,0.1-5.1,0.2h8.7l0.1-0.1C1614.3,189,1630.4,201.7,1630.4,217.1z"/>
<polygon class="st6" points="1199.3,433.8 1198,443.9 1197.8,439.7 "/>
<path class="st6" d="M1201.8,425.9c0,0.1,0,0.2,0,0.4l-1.1,2.9l0.7-2.3L1201.8,425.9z"/>
<path class="st6" d="M1202,824.3c-295.6-0.3-589,3.7-885,3c3.8-91.7,0.3-200.9-0.5-288.5c-0.6-61.6,13.8-110.1,47-142.8
	c5.4-5.3,11.2-10.2,17.4-14.5c31.5-22.1,75.3-33.8,133.6-33.6c196.3,0.5,433.3-4.4,634,6.9c21.6,1.2,36.1,5.8,44.5,15.8l-2.4,2.1
	l-4.4,5l-1.8,3.8l-0.5,1l-1.8,5.3l-0.8,5.3l-0.4,2.9l-0.1,1l-4.1,3.9l-3.9,6l-1.8,7.3V429l2.6,5.8l2.3,4.9l4.9,5.2l4.9,3.9l4.9,2.2
	h8.8l2.4,4.4C1201.2,576.9,1200.7,702.4,1202,824.3z"/>
<path class="st6" d="M447.9,728.4c-31.8,96.3-115.2,73.2-222.4,77s-131.4-36-121.8-124.8S227.1,540.4,313.8,559
	S479.8,632.1,447.9,728.4z"/>
<ellipse class="st7" cx="292.1" cy="822.8" rx="101.3" ry="89.5"/>
<polygon class="st6" points="400.5,443.9 343.1,421.2 270.8,569.3 328.3,592.1 "/>
<ellipse class="st8" cx="292.1" cy="825.2" rx="78.8" ry="70.9"/>
<ellipse class="st7" cx="969.2" cy="822.8" rx="101.3" ry="89.5"/>
<ellipse class="st8" cx="969.2" cy="822.8" rx="78.7" ry="70.9"/>
<ellipse cx="969.2" cy="822.8" rx="60.1" ry="54.2"/>
<ellipse cx="292.1" cy="825.2" rx="60.1" ry="54.2"/>
<ellipse class="st9" cx="292.1" cy="822.8" rx="15.3" ry="13.8"/>
<ellipse class="st9" cx="969.2" cy="822.8" rx="15.3" ry="13.8"/>
<path class="st10" d="M182,806.4c-22.8,0.8-49,0-71.6-1.1c-6.1-0.3-7.5-1.7-8-6c-0.6-6-1.4-11.9-0.6-17.9c0.6-4.3,2.5-5.8,8.6-5.5
	c22.8,0.8,48.8,1.3,71.7,0.3c6.1-0.3,7.8,1.1,8.3,5.6c0.8,6.1,0.4,12.3-0.1,18.5C190,804.8,188.1,806.2,182,806.4z"/>
<path class="st9" d="M509.4,419.4h134.6c1.6,0,3,1.3,3,3v366c0,1.6-1.3,3-3,3H509.4c-1.6,0-3-1.3-3-3v-366
	C506.5,420.7,507.8,419.4,509.4,419.4z"/>
<path class="st9" d="M731.7,419.4h417.6c6.3,0,11.3,5.1,11.3,11.3v238.4c0,6.3-5.1,11.3-11.3,11.3H731.7c-6.3,0-11.3-5.1-11.3-11.3
	V430.7C720.4,424.4,725.5,419.4,731.7,419.4z"/>
<path class="st10" d="M1095.4,840c29.5-0.5,64.4-2,93.7-2.7c7.9-0.2,11-1.2,11.8-5.5c1.1-5.8,1.7-10.7,0.2-16.5
	c-1.1-4.2-3.9-5.2-12.1-5c-30.8,0.8-68.2,1.9-99,2.2c-8.3,0.1-11.1,1.2-11.5,5.5c-0.6,5.9,0.9,11.1,3.4,16.8
	C1083.8,839,1087.5,840.1,1095.4,840z"/>
<path class="st10" d="M403.6,811.2h452.8c1.9,0,3.5,1.6,3.5,3.5v20.9c0,1.9-1.6,3.5-3.5,3.5H403.6c-1.9,0-3.5-1.6-3.5-3.5v-20.9
	C400,812.8,401.6,811.2,403.6,811.2z"/>
<path class="st10" d="M517.9,427.4h51.3c2.3,0,4.2,1.9,4.2,4.2v347.6c0,2.3-1.9,4.2-4.2,4.2h-51.3c-2.3,0-4.2-1.9-4.2-4.2V431.5
	C513.7,429.2,515.6,427.4,517.9,427.4z"/>
<path class="st10" d="M585.2,427.4h51.3c2.3,0,4.2,1.9,4.2,4.2v347.6c0,2.3-1.9,4.2-4.2,4.2h-51.3c-2.3,0-4.2-1.9-4.2-4.2V431.5
	C581,429.2,582.9,427.4,585.2,427.4z"/>
<polygon class="st9" points="335.7,669 439.1,434.7 452.5,423.6 464,418.8 477.4,417 488.4,420.5 487.7,673.7 487.3,788.4 
	458.1,788.5 445.2,762.6 432.4,746.3 415.7,723.9 404.2,710.2 391.8,699.4 380.3,689.9 368.4,682.2 355.5,675.7 342.6,672.7 "/>
<polygon class="st10" points="345.1,657.6 481.4,657.6 481.4,427.4 468.1,427.4 458.4,432.7 449.4,437.6 "/>
<polygon class="st10" points="345.1,666.4 362.5,671.8 377.2,680.5 391.4,690.3 406.7,703.6 417.3,716 435.5,738.3 448.5,755.5 
	463.2,783.3 481.4,783.3 481.4,666.4 "/>
<rect x="455.4" y="647.4" width="6.6" height="28.4"/>
<ellipse cx="458.6" cy="643.8" rx="6" ry="5.4"/>
<ellipse cx="458.6" cy="679.7" rx="6" ry="5.4"/>
<ellipse cx="543.5" cy="643" rx="6" ry="5.4"/>
<rect x="540.2" y="647.4" width="6.6" height="28.4"/>
<ellipse cx="543.5" cy="679.7" rx="6" ry="5.4"/>
<path class="st9" d="M432.1,433.6l-56.7,125c-2.8,6.2-9.1,10-15.9,9.7l-56.6-2.2c-8.9-0.2-16-7.7-15.8-16.6c0.1-2.5,0.7-4.9,1.8-7.1
	l60.5-116.2c1.4-2.7,4.2-4.3,7.2-4.3l68.4,0.7c4.3,0,7.8,3.5,7.8,7.8C432.8,431.5,432.6,432.6,432.1,433.6z"/>
<path class="st10" d="M424,440.4l-49.8,114c-1.4,3.3-4.8,5.4-8.4,5.2l-61.6-2.4c-4.7-0.2-8.4-4.1-8.2-8.9c0-1.2,0.3-2.4,0.9-3.4
	L353,432.8c1.5-3,4.6-4.9,7.9-4.8l55.3,0.5c4.7,0,8.5,3.8,8.5,8.5C424.7,438.2,424.5,439.3,424,440.4z"/>
<polygon class="st11" points="197.6,805.7 206.2,788.5 213.4,775.8 223.6,765.8 234.3,754.3 246.3,750.8 262.3,744.8 278.5,741.8 
	296.3,741.8 312.3,741.8 328.3,746.6 345.1,754.3 352.3,761.6 363,773.7 370.9,783.3 376.4,795.9 381.7,811.2 381.7,827.5 
	413.2,825.2 412.1,805.7 407.7,791.3 403.1,775.8 393.4,761.6 377.7,741.8 363,733.3 345.1,724.9 322.3,719.5 299,716 276.8,718.9 
	250.9,724.9 226.9,733.3 208.9,744.2 194.9,758.1 182.2,771.7 172.9,788.5 "/>
<polygon class="st11" points="168.2,800.2 166.2,822.8 197.6,822.8 197.6,805.7 172.9,788.5 "/>
<polygon class="st11" points="879.8,805.7 888.5,788.5 895.6,775.8 905.8,765.8 916.5,754.3 928.5,750.8 944.5,744.8 960.7,741.8 
	978.5,741.8 994.6,741.8 1010.6,746.6 1027.3,754.3 1034.5,761.6 1045.3,773.7 1053.1,783.3 1058.6,795.9 1063.9,811.2 
	1063.9,827.5 1095.5,825.2 1094.3,805.7 1090,791.3 1085.3,775.8 1075.6,761.6 1059.9,741.8 1045.3,733.3 1027.3,724.9 
	1004.6,719.5 981.2,716 959.1,718.9 933.2,724.9 909.2,733.3 891.1,744.2 877.1,758.1 864.5,771.7 855.1,788.5 "/>
<polygon class="st11" points="855.1,788.5 852.2,798.7 851.3,811.2 851.3,830 880.3,830 880.3,817.2 880.3,811.2 879.8,805.7 "/>
<path class="st10" d="M745.5,430.8h390c6.3,0,11.3,5.1,11.3,11.3v215.6c0,6.3-5.1,11.3-11.3,11.3h-390c-6.3,0-11.3-5.1-11.3-11.3
	V442.1C734.2,435.9,739.3,430.8,745.5,430.8z"/>
<polygon class="st9" points="1184.3,381.5 1183.8,382.6 1182,387.9 1181.2,393.2 1180.9,396 360.4,396 375.5,381.5 "/>
<polygon class="st12" points="683.4,460.7 724.9,396 768.6,396 731.2,460.7 730.4,467.1 726,473.1 720.7,476.9 715.7,478.8 
	709.8,478.8 703.9,478.8 698.5,478.8 693.9,475.4 689.7,473.1 685.9,469 683.4,464.5 "/>
<polygon class="st9" points="731.2,460.7 736.2,467.9 740.5,473.1 745.9,476.9 750.9,478.8 755.1,478.8 761,478.8 766.9,478.8 
	772.8,475.8 776.5,472.4 780.3,467.1 782.4,462.9 782.4,458 782.4,454.6 811.8,396 768.6,396 "/>
<polygon class="st12" points="811.8,396 782.4,454.6 782.4,462.9 785.4,467.5 790.4,472.8 795,475.8 801.3,478.8 808.9,478.8 
	816,478.8 821.5,476.6 826.9,474.3 830.3,470.1 833.6,464.8 833.6,456.5 857.1,396 "/>
<polygon class="st9" points="857.1,396 833.6,456.5 833.6,464.8 838.2,470.5 845.4,475 850.8,476.9 857.1,478.8 865.5,478.8 
	871.8,478.8 877.3,475.4 881,471.3 883.6,467.1 885.7,460.7 885.7,456.5 897.4,396 "/>
<polygon class="st12" points="885.7,456.5 890.3,465.2 895.3,471.3 901.6,475.4 909.6,478.8 915.5,478.8 926.2,476 929.7,473.7 
	933,470.7 935.6,467.7 938.1,463 938.1,456.5 937.3,396 897.4,396 "/>
<polygon class="st10" points="921.3,478.8 926.2,476 915.5,478.8 "/>
<polygon class="st9" points="937.3,396 938.1,463 942.7,468.6 947,471.8 951.5,474.7 956.2,477.4 960.4,478.8 965.4,478.8 
	970.7,478.8 974.1,477.4 978.6,476 982.2,472.6 985.2,470.3 986.5,466.8 988.4,461.2 980.7,396 "/>
<polygon class="st12" points="980.7,396 988.4,461.2 991.6,467.2 994.7,471.1 998,474.1 1002.8,477.1 1007.8,478.8 1014,480.1 
	1019.7,480.1 1026.3,477.3 1030.1,474.7 1034.2,471.1 1036.8,467 1039.7,462.1 1039.7,458.5 1021.8,396 "/>
<polygon class="st9" points="1021.8,396 1039.7,462.1 1043.2,466.6 1045.8,469.6 1049.2,472.8 1054.1,475.8 1059.4,477.9 
	1064.8,480.1 1070.1,480.1 1076,478.8 1079.8,477.1 1084.3,474.3 1087.2,471.3 1089.3,468.1 1091,464.7 1091,458.9 1091,455 
	1062.9,396 "/>
<polygon class="st12" points="1062.9,396 1091,455 1091,458.9 1091,464.7 1093.4,469.2 1096.9,472.6 1100.2,474.5 1104.8,476.4 
	1109,477.9 1114.3,478.8 1117.8,478.8 1121.2,478.8 1125.4,477.9 1128.8,476.7 1131.6,475.2 1135.2,472.4 1138.5,469.6 
	1140.7,466.4 1141.8,462.7 1141.8,458 1109.5,396 "/>
<rect x="101.8" y="716" class="st6" width="77.1" height="84.2"/>
<polygon class="st9" points="1109.5,396 1141.8,458 1141.8,462.7 1140.7,466.4 1138.5,469.6 1143.3,473.2 1149,476.7 1153.7,477.5 
	1159.7,478.8 1164.2,478.8 1169.7,478.8 1173.4,477.7 1176.5,476.4 1180.6,474.1 1183.2,472.2 1185.8,469 1187.5,466.2 1188.9,463 
	1188.9,458.2 1188.9,456.1 1157.1,396 "/>
<polygon class="st13" points="682.3,353.1 701.5,319.4 724.5,285.8 748.9,256.7 778.3,223.1 810.3,194.1 848.8,161.6 885.9,133.7 
	932,101.2 1112.5,336.8 1092.1,353.1 "/>
<polygon class="st9" points="930.8,101.3 940,95.6 953.5,95.6 968.3,98.5 979.8,106 987.2,111.4 993.2,114.9 998,110.4 1002,109.7 
	1008.1,109.5 1013.9,109.9 1016.3,110.9 1022.9,113 1027.4,116.6 1033.2,121.2 1037.7,125.9 1042.5,123.1 1047.2,122.6 
	1054.9,122.1 1061,123.1 1068.7,125.9 1075,129.8 1085.9,137.4 1095.1,144.1 1100.1,146.5 1106.8,147.7 1111,147.7 1113.9,146 
	1113.9,141.2 1113.9,137.2 1112.2,132.1 1108.6,129.3 1105.7,127.6 1105.7,125.2 1108.3,123.6 1113.9,123.8 1122.9,126.7 
	1129,130.5 1136.1,136.9 1140.4,142.9 1145.1,149.8 1148.6,156.8 1151.5,164.4 1153.1,172.8 1153.1,180.9 1153.1,186.1 
	1153.1,191.2 1153.1,197.9 1151.5,202.6 1148.6,207.4 1145.7,212.4 1141.4,218.4 1138,224.1 1134.5,227.4 1114.4,232.5 
	1118.4,236.3 1121.6,239.6 1125.3,244.2 1128.4,249.4 1131.1,253.5 1133.5,258.5 1135.9,264.3 1138,270 1139,275.7 1138.5,281.5 
	1137.7,286.5 1136.7,291.2 1134.8,296.3 1131.6,301.3 1128.7,304.4 1129,308.7 1128.7,313.7 1127.9,318.7 1125.5,323.5 
	1123.4,327.8 1119.7,331.1 1116.8,334.2 1112.2,337.1 "/>
<polygon class="st14" points="1013.4,110.8 1013.4,107 1014.5,102.6 1016,98.7 1018.6,94.7 1021.1,91.4 1023.9,89.1 1027.2,86.1 
	1030.9,84.1 1034.8,82.3 1038.6,80.9 1041.9,80 1046.2,79.3 1050,79.3 1053.6,80.1 1056.9,81.2 1060.1,83.4 1063.7,87.5 
	1066.2,90.4 1068.4,91.3 1073.7,91.5 1079.6,92.7 1083.6,94.2 1087.3,96 1090.4,98.4 1092.8,101.7 1095,104.3 1097.2,107.8 
	1098.1,110.8 1098.1,113.4 1098.5,115.1 1098.5,117.6 1098.5,119.5 1098.5,121.9 1097.8,123.7 1096.8,126 1095.5,128.4 
	1094.1,130.6 1092.8,132.7 1091.4,134.1 1089.5,136.7 1086.9,137.8 1070.8,126.8 1051.9,122.7 1046.8,122.9 1041.9,123.4 
	1036.9,126.3 1032.2,121.5 1024.6,116 1021.5,113.4 "/>
<polygon class="st15" points="1134.5,227.4 1315.1,187.5 1315.1,195.7 1317.4,201.4 1320.6,207.4 1131.1,253.5 1114.4,232.5 "/>
<ellipse transform="matrix(0.9632 -0.2688 0.2688 0.9632 -4.561 361.4478)" class="st16" cx="1317.9" cy="197.4" rx="2.6" ry="10.4"/>
<path class="st16" d="M1139.6,55.5c0.4-1.7-1.1-3.5-2-5c-34.4-10-57.2,14.1-72.4,39.9l3.6,2C1084,66.4,1105.2,43.1,1139.6,55.5z"/>
<path class="st6" d="M1073.5,103.5c0.3,0,0.7,0,1-0.2c1.5-5.3-3.6-9.6-9-12.7l-0.3,0.5C1070.6,94.3,1075.5,98.3,1073.5,103.5z"/>
<path class="st6" d="M1050.8,94c-0.3-0.2-0.3-0.6-0.4-0.9c3.4-5.1,10.1-4.3,15.9-2.4c-0.1,0.2-0.2,0.4-0.2,0.7
	C1060.2,89.5,1053.9,88.6,1050.8,94z"/>
<polyline class="st17" points="874.1,142.6 885.7,142.6 897.4,145.6 911.9,153.4 920.8,161.7 930.8,178.9 930.8,193.5 930.8,206.7 
	948.3,211.3 962.9,216.4 974.8,220.5 988.4,231.4 997.1,242.2 1001.4,253.5 1001.4,267.7 1001.4,281.6 1016,281.6 1028.9,285.4 
	1041.9,291.6 1050.4,299.4 1058.3,313.2 1062.9,324.8 1062.9,337.1 1062.9,351 "/>
<polyline class="st17" points="930.8,206.7 901.7,227.1 878.5,246.8 857.1,267.3 843.3,280.4 826.2,297.4 808.2,313.6 797.8,325.2 
	786.7,340.7 781.1,351 "/>
<polyline class="st17" points="1001.4,281.6 988.4,293.5 973.8,305.1 958.3,317.5 945.5,326.8 926.2,342.2 911.9,353.1 "/>
<path class="st14" d="M119,322.2c3.9,11.8-6.1,25-12.6,30.3c-11,9-24.1,8.8-32.5,3.7c-7-4.2-13.1-15.1-13.4-29.6
	c-0.6-37.3,27.1-69.2,44.5-76.7c8.4-3.7,16-4.4,21,0.5c3.4,3.3,7,8.5,8.2,12.9c1.4,5.1,0.9,10-1.4,15.5s-4.5,12.3-6.2,17.4
	c-0.5,1.4-1.6,2.5-3.4,1.1c-3.6-2.6-6.1-8.1-3.7-16.9c2.6-9.3,8.1-19.3,4.6-23.6c-4.4-5.3-28,9-42,35.2
	c-13.7,25.7-12.1,51.7-4.5,58.8c10,9.1,26.5-2.6,38.3-28.9C116.5,319.9,118.2,319.9,119,322.2z"/>
<path class="st14" d="M182.5,290.2c1.4-2.3,2.6-2.6,3.7-1.1c2.3,3.2,3.6,10.7-0.2,19.5c-3.4,7.9-11.2,21.1-14.9,30.5
	c-3.9,9.9-4.1,17.4,1.2,17.1c6.4-0.4,14.9-12.3,20.4-24.5c0.8-1.6,1.9-1.8,2.5-0.2s0.6,6-1.4,10.9c-4,9.7-13.8,19.4-22.4,18.8
	c-8.4-0.5-12.8-6.2-12.8-14.4c-5,7.2-12,13.7-19.4,13.7c-14.5,0-17.4-22.4-4.5-43.6c12.6-20.8,24.9-28.7,32.7-28.7
	c6.7,0,9.8,5.8,9.5,12.7C178.9,296.7,180.8,293,182.5,290.2z M170.1,297.4c-5-0.5-16.3,10.9-24.9,26.6c-8.2,15.1-10.3,30.6-4.2,30.8
	c6.4,0.2,14.5-11.1,22.4-26.6C173.2,308.9,174.6,297.9,170.1,297.4z"/>
<path class="st14" d="M199.1,285.1c-1.6-2.5-0.6-3.7,1.7-3.5c4.3,0.1,8.6-0.1,12.9-0.7c4.8-9.7,9.2-18,11.8-21.8
	c1.4-2.3,2.9-2.1,3.7,0c1.7,4.9,1.7,10.7-2,19.9c6.1-0.2,8.4,3,9.6,5.3c1.1,2.1,0.5,3.4-1.9,3.4c-3.4-0.5-8.2,0-12.1,0.7
	c-6.1,11.8-14.9,28.9-20.9,43.6c-5.1,12.8-3.4,23.8,3.1,24.1c7,0.4,15.9-12.1,21.6-25.4c0.9-2.1,2.6-2.5,3.3,0c0.8,2.8,0,6-1.6,10
	c-2,5.1-12.3,20.6-24.7,20.1c-10.3-0.4-18.5-13.4-11-33.6c3.3-8.8,9.8-23.6,16.5-37.5C204,289.7,200.4,287,199.1,285.1z"/>
<path class="st14" d="M268.5,299.9c3.3,7.4-3,16.7-6.1,26.2c-0.6,2.1-1.2,2.6-3.3,1.4c-3.7-2.1-5.9-7.4-3.7-15.3
	c1.7-6.3,6.4-13.9,4.2-15.8c-2.6-2.5-14.3,8.8-21.3,24.8c-8.6,19.9-5.3,34.5,3.9,34.7c13.1,0.2,24.3-13.9,30.7-25
	c0.8-1.4,2.2-1.6,2.8,0.2c0.5,1.4-0.1,5.8-2.8,10.6c-5.9,10.4-18.2,19-30,19.2c-19.8,0.4-26.5-21.5-16.3-44.2
	c10-22.2,25.7-31.7,33.5-26.4C263.8,292.5,266.7,295.9,268.5,299.9z"/>
<path class="st14" d="M309,361c-13.1,0-16.3-10.7-11.7-26c5.1-17.1,18.7-35.4,16.2-37c-2.2-1.4-19.1,10.6-28.2,27.3
	c-5.9,10.8-10.9,21.9-15.1,33.4c-0.6,1.6-1.7,1.9-2.6,0.7c-2.5-3.2-3.9-8.1-0.6-18.6c5.4-17.6,37.8-79.5,50.4-97.3
	c1.4-2.1,3-1.9,3.7,0.2c2,5.1,1.5,13.9-4.4,25c-3.7,7-12,21.3-18.7,33.1c6.4-7,14.5-12.9,18.7-12.3c5.3,0.7,10.1,9.5,6.1,18.5
	c-3.4,7.8-10.9,20.6-14.5,29.8c-3.9,10.2-3.1,18.5,2.6,18.1c6.4-0.4,14.9-13,19.8-24.3c0.6-1.6,2.2-1.6,2.8-0.2
	c0.8,1.9,0.8,5.6-1.6,10.9C327.7,352.1,318.2,361,309,361z"/>
<path class="st14" d="M389.9,272.2c-5.6,3-13.9,8.1-17.9,9.5c-3.4,1.2-6.4,1-8.1,0.2c-1.2-0.7-1.4-1.6,0.1-2.8
	c4.2-3.4,10.9-8.3,14.8-10.2c3.5-1.7,7.7-1.5,11,0.5C391.2,270.3,391.5,271.4,389.9,272.2z"/>
<path class="st14" d="M438.6,289.1c5.1,0.9,10,9.5,6.1,18.6c-3.3,7.8-10.9,20.8-14.5,29.9c-4,10.2-3.1,18.5,2.5,18.1
	c6.4-0.4,14-12,19.9-24.3c0.8-1.6,1.9-1.6,2.6-0.2c1.1,1.9,0.8,6-1.4,11.1c-4.2,9.9-14,18.8-23,18.8c-13.2,0-16.3-10.9-11.8-26.2
	c5.1-17.2,18.8-35.9,16-37.3c-1.6-0.7-10.6,4.2-20.5,16.5c-9.2,11.3-16,28.2-22.7,44.7c-0.6,1.6-1.6,2.3-3,0.7
	c-3.1-3.5-4-9.3-1.5-18.1c3.1-11.1,15.1-35.5,24.9-51.9c1.1-1.9,2.3-1.8,3.3,0c2.3,4.4,2.2,10.4,0.5,16.7
	C422.9,297.9,433.5,288.3,438.6,289.1z"/>
<path class="st14" d="M477.8,272.2c-5.6,3-13.9,8.1-17.9,9.5c-3.4,1.2-6.4,1-8.1,0.2c-1.2-0.7-1.4-1.6,0.2-2.8
	c4.2-3.4,10.9-8.3,14.8-10.2c3.5-1.7,7.7-1.5,11,0.5C479.1,270.3,479.4,271.4,477.8,272.2z"/>
<path class="st14" d="M523,356.2c6.4-0.4,14.8-12.1,20.2-24.3c0.8-1.6,1.9-1.6,2.5-0.2c0.6,1.6,0.8,6.2-1.2,10.9
	c-4.2,9.7-13.8,19-22.4,18.5c-8.4-0.5-12.6-5.8-12.6-14.1c-5,7-12,13.5-19.3,13.5c-14.5,0-17.3-22.4-4.5-43.5
	c12.3-20.4,24.7-28.3,32.5-28.3c6.4,0,9.5,5.5,9.3,12c8.4-18.1,20.2-42.1,25.8-51c1.6-2.5,3-2.3,3.7,0c2.2,5.8,1.7,13.4-4.8,26.6
	c-7.5,15.1-22.4,44.2-30.2,62.8C517.8,349.3,517.7,356.5,523,356.2z M495.9,324.2c-8.4,15.1-10.1,30.5-4,30.6
	c6.2,0.2,14.6-10.2,21.9-26.2c9-19.5,11.4-30.6,6.8-30.8C515.8,297.6,504.5,308.7,495.9,324.2L495.9,324.2z"/>
<path class="st14" d="M583,294.4c1.9-1.4,3.1-1.8,4.2-0.4c3,3.7,6.7,11.4,2.2,17.2c-7,9-14.6,20.1-17.1,29.2s-0.6,16,3.9,16.2
	c6.1,0.4,13.5-10.6,18.5-23.2c0.6-1.4,1.5-1.6,2.2-0.2c0.8,1.9,0.9,6.2-0.8,10.9c-3.6,10.2-12.6,17.6-20.8,17.2
	c-11.2-0.5-15.7-12.1-11.8-25.3c3.4-11.6,12.5-24.1,18.7-32.2c-6.8,5.1-13.5,6.7-18.2,6.7c-5.9,12.3-20.9,37.3-23.8,53.3
	c-0.3,1.6-1.2,2.5-2.7,0.9c-4.5-5.3-4.5-13.4-0.3-22.4c3.6-7.8,14-24.3,19.8-33.6c-8.9-6.5,4.7-27.3,10.4-27.5
	c4.8-0.2,3.6,10-0.3,21.1C572,301.8,577.3,299,583,294.4z"/>
<path class="st14" d="M593,335.1c3.9-12.8,14.2-33.6,19.9-42.8c1.4-2.1,2.5-2.6,3.7-1.1c2.3,2.8,3.6,10.4-0.2,19.2
	c-3.3,7.8-9.8,19.7-13.1,28.5c-3.8,10.2-3.4,17.1,1.6,16.7c7-0.4,15.6-12,20.2-24.1c0.8-1.6,1.9-1.4,2.5,0c1.2,2.8,0.8,6.5-1.1,10.9
	c-4.7,10.9-14.5,18.3-23.2,18.3C591.6,360.8,588.6,349.5,593,335.1z M627.7,289.1c-2,2.5-6.4,1.9-8.7-2.6c-2.5-4.8-1.7-10,0.8-13
	s7-0.9,9,3.9C630.8,281.9,629.7,286.7,627.7,289.1L627.7,289.1z"/>
<path class="st14" d="M671.6,289.1c5.1,0.9,10,9.5,6.1,18.6c-3.3,7.8-10.9,20.8-14.5,29.9c-4,10.2-3.1,18.5,2.5,18.1
	c6.4-0.4,14-12,19.9-24.3c0.8-1.6,1.9-1.6,2.6-0.2c1.1,1.9,0.8,6-1.4,11.1c-4.2,9.9-14,18.8-23,18.8c-13.2,0-16.3-10.9-11.8-26.2
	c5.1-17.2,18.8-35.9,16-37.3c-1.6-0.7-10.6,4.2-20.5,16.5c-9.2,11.3-16,28.2-22.7,44.7c-0.6,1.6-1.6,2.3-3,0.7
	c-3.1-3.5-4-9.3-1.6-18.1c3.1-11.1,15.1-35.5,24.9-51.9c1.1-1.9,2.3-1.8,3.3,0c2.3,4.4,2.2,10.4,0.5,16.7
	C655.8,297.9,666.4,288.3,671.6,289.1z"/>
<path class="st14" d="M725.9,287c5.9-2.3,9.7,0.4,12.8,7.7c3,6.9,2.5,14.3-3.3,20.6c-5.8,6.6-13.3,11.5-21.6,14.3
	c0.6,14.4,5,24.5,10.9,25.2c6.4,0.7,14.9-12.9,19.6-23.8c0.9-2.1,2.3-2.3,3.1-0.2s0.5,6.3-1.9,10.7c-3.7,7.4-10.9,18.6-23.2,18.5
	c-10.9-0.2-20.1-10.2-19.8-34c0-3.2,0.3-3.7,3.3-4.8c19.3-7.2,29.6-22.5,27.2-27.1c-1.7-3.2-8.6-1.2-16.8,6
	c-11.7,10-18.7,25.5-30.7,57.9c-0.5,1.4-1.7,1.8-2.8,0.4c-2.3-3-3.1-8.6-0.2-19.4c4.4-16,30.2-73.9,44-95.2c1.4-2.1,3-2.3,3.9-0.2
	c2.3,5.3,2,12.3-4.5,25.2c-3.7,7.2-9.8,19.5-14,28.2C715.8,292.6,720.5,289.2,725.9,287z"/>
<path class="st9" d="M112.5,322.6c3.9,11.8-6.1,25-12.6,30.3c-11.1,9-24.1,8.8-32.5,3.7c-7-4.2-13.1-15.1-13.4-29.6
	c-0.6-37.3,27.1-69.2,44.5-76.7c8.4-3.7,16-4.4,21,0.5c3.4,3.4,7,8.5,8.2,12.9c1.4,5.1,0.9,10-1.4,15.5s-4.5,12.3-6.2,17.4
	c-0.5,1.4-1.6,2.5-3.4,1.1c-3.6-2.6-6.1-8.1-3.7-16.9c2.5-9.3,8.1-19.4,4.5-23.6c-4.4-5.3-28,9-42,35.2
	c-13.7,25.7-12.1,51.8-4.5,58.8c10,9.1,26.5-2.6,38.3-28.9C110,320.4,111.8,320.4,112.5,322.6z"/>
<path class="st9" d="M176,290.6c1.4-2.3,2.6-2.6,3.7-1.1c2.3,3.2,3.6,10.7-0.1,19.5c-3.4,7.9-11.2,21.1-14.9,30.4
	c-3.9,9.9-4,17.4,1.2,17.1c6.4-0.4,14.9-12.3,20.4-24.5c0.8-1.6,1.9-1.8,2.5-0.2s0.6,6-1.4,10.9c-4,9.7-13.9,19.4-22.4,18.8
	c-8.4-0.5-12.8-6.2-12.8-14.4c-5,7.2-12,13.7-19.4,13.7c-14.5,0-17.4-22.4-4.5-43.6c12.6-20.8,24.9-28.7,32.7-28.7
	c6.7,0,9.8,5.8,9.5,12.7C172.4,297.1,174.3,293.4,176,290.6z M163.6,297.8c-5-0.5-16.3,10.9-24.9,26.6c-8.2,15.1-10.3,30.6-4.2,30.8
	c6.4,0.2,14.5-11.1,22.4-26.6C166.7,309.3,168.1,298.4,163.6,297.8L163.6,297.8z"/>
<path class="st9" d="M192.7,285.5c-1.6-2.5-0.6-3.7,1.7-3.5c4.3,0.1,8.6-0.1,12.9-0.7c4.8-9.7,9.2-18,11.8-21.8c1.4-2.3,3-2.1,3.7,0
	c1.7,4.9,1.7,10.7-2,19.9c6.1-0.2,8.4,3,9.6,5.3c1.1,2.1,0.5,3.4-1.9,3.4c-3.4-0.5-8.2,0-12.1,0.7c-6.1,11.8-14.9,28.9-20.9,43.6
	c-5.1,12.9-3.4,23.8,3.1,24.1c7,0.4,15.9-12.1,21.6-25.3c0.9-2.1,2.6-2.5,3.3,0c0.8,2.8,0,6-1.6,10c-2,5.1-12.3,20.6-24.8,20.1
	c-10.3-0.4-18.5-13.4-11-33.6c3.3-8.8,9.8-23.6,16.5-37.5C197.5,290.1,193.9,287.4,192.7,285.5z"/>
<path class="st9" d="M262.1,300.3c3.3,7.4-3,16.7-6.1,26.2c-0.6,2.1-1.2,2.6-3.3,1.4c-3.7-2.1-5.9-7.4-3.7-15.3
	c1.7-6.3,6.4-13.9,4.2-15.8c-2.6-2.5-14.3,8.8-21.3,24.8c-8.6,19.9-5.3,34.5,3.9,34.7c13.1,0.2,24.3-13.9,30.7-25
	c0.8-1.4,2.2-1.6,2.8,0.2c0.5,1.4-0.1,5.8-2.8,10.6c-5.9,10.4-18.2,19-30,19.2c-19.8,0.4-26.4-21.5-16.3-44.2
	c10-22.2,25.7-31.7,33.5-26.4C257.3,292.9,260.3,296.3,262.1,300.3z"/>
<path class="st9" d="M302.5,361.4c-13.1,0-16.3-10.7-11.7-26c5.1-17.1,18.7-35.4,16.2-37c-2.2-1.4-19.1,10.6-28.2,27.3
	c-5.9,10.7-10.9,21.9-15.1,33.4c-0.6,1.6-1.7,1.9-2.6,0.7c-2.5-3.2-3.9-8.1-0.6-18.6c5.5-17.6,37.8-79.5,50.4-97.3
	c1.4-2.1,3-1.9,3.7,0.2c2,5.1,1.6,13.9-4.4,25c-3.7,7-12,21.3-18.7,33.1c6.4-7,14.5-12.9,18.7-12.3c5.3,0.7,10.1,9.5,6.1,18.5
	c-3.4,7.8-10.9,20.6-14.5,29.8c-3.9,10.2-3.1,18.5,2.6,18.1c6.4-0.4,14.9-13,19.8-24.3c0.6-1.6,2.2-1.6,2.8-0.2
	c0.8,1.9,0.8,5.6-1.6,10.9C321.2,352.6,311.7,361.4,302.5,361.4z"/>
<path class="st9" d="M383.4,272.7c-5.6,3-13.9,8.1-17.9,9.5c-3.4,1.2-6.4,1-8.1,0.2c-1.2-0.7-1.4-1.6,0.2-2.8
	c4.2-3.4,10.9-8.3,14.8-10.2c3.5-1.7,7.7-1.5,11,0.5C384.7,270.7,385,271.8,383.4,272.7z"/>
<path class="st9" d="M432.1,289.5c5.1,0.9,10,9.5,6.1,18.7c-3.3,7.7-10.9,20.8-14.5,29.9c-4,10.2-3.1,18.5,2.5,18.1
	c6.4-0.4,14-12,19.9-24.3c0.8-1.6,1.9-1.6,2.6-0.2c1.1,1.9,0.8,6-1.4,11.1c-4.2,9.9-14,18.8-23,18.8c-13.2,0-16.3-10.9-11.8-26.2
	c5.1-17.2,18.8-35.9,16-37.3c-1.6-0.7-10.6,4.2-20.6,16.6c-9.2,11.3-16,28.2-22.7,44.7c-0.6,1.6-1.5,2.3-3,0.7
	c-3.1-3.5-4-9.3-1.6-18.1c3.1-11.1,15.1-35.5,24.9-51.9c1.1-1.9,2.3-1.8,3.3,0c2.3,4.4,2.2,10.4,0.5,16.7
	C416.4,298.4,427,288.7,432.1,289.5z"/>
<path class="st9" d="M471.4,272.7c-5.6,3-13.9,8.1-17.9,9.5c-3.4,1.2-6.4,1-8.1,0.2c-1.2-0.7-1.4-1.6,0.1-2.8
	c4.2-3.4,10.9-8.3,14.8-10.2c3.5-1.7,7.7-1.5,11,0.5C472.6,270.7,472.9,271.8,471.4,272.7z"/>
<path class="st9" d="M516.5,356.6c6.4-0.4,14.8-12.1,20.2-24.3c0.8-1.6,1.9-1.6,2.5-0.2c0.6,1.6,0.8,6.2-1.2,10.9
	c-4.2,9.7-13.8,19-22.4,18.5c-8.4-0.5-12.6-5.8-12.6-14.1c-5,7-12,13.5-19.3,13.5c-14.5,0-17.3-22.4-4.5-43.5
	c12.3-20.4,24.7-28.3,32.5-28.3c6.4,0,9.5,5.5,9.3,12c8.4-18.1,20.2-42.1,25.8-51c1.6-2.5,3-2.3,3.7,0c2.2,5.8,1.7,13.4-4.8,26.6
	c-7.5,15.1-22.4,44.2-30.2,62.8C511.3,349.7,511.2,357,516.5,356.6z M489.4,324.6c-8.4,15.1-10.1,30.5-4,30.6S500,345,507.3,329
	c9-19.5,11.4-30.6,6.8-30.8C509.3,298,498,309.1,489.4,324.6L489.4,324.6z"/>
<path class="st9" d="M576.5,294.8c1.9-1.4,3.1-1.8,4.2-0.4c3,3.7,6.7,11.4,2.2,17.2c-7,9-14.6,20.1-17.1,29.2s-0.6,16,3.9,16.2
	c6.1,0.4,13.5-10.6,18.5-23.2c0.6-1.4,1.6-1.6,2.2-0.2c0.8,1.9,0.9,6.2-0.8,10.9c-3.6,10.2-12.6,17.6-20.8,17.2
	c-11.2-0.5-15.7-12.1-11.8-25.3c3.4-11.6,12.5-24.1,18.7-32.2c-6.8,5.1-13.5,6.7-18.2,6.7c-5.9,12.3-20.8,37.3-23.8,53.3
	c-0.3,1.6-1.2,2.5-2.6,0.9c-4.5-5.3-4.5-13.4-0.3-22.4c3.6-7.8,14-24.3,19.8-33.6c-8.9-6.5,4.7-27.3,10.4-27.5
	c4.8-0.2,3.6,10-0.3,21.1C565.5,302.2,570.8,299.4,576.5,294.8z"/>
<path class="st9" d="M586.5,335.5c3.9-12.9,14.2-33.6,19.9-42.8c1.4-2.1,2.5-2.6,3.7-1.1c2.3,2.8,3.6,10.4-0.2,19.2
	c-3.3,7.7-9.8,19.7-13.1,28.5c-3.7,10.2-3.4,17.1,1.6,16.7c7-0.4,15.6-12,20.2-24.1c0.8-1.6,1.9-1.4,2.5,0c1.2,2.8,0.8,6.5-1.1,10.9
	c-4.7,10.9-14.5,18.3-23.2,18.3C585.1,361.2,582.1,349.9,586.5,335.5z M621.2,289.5c-2,2.5-6.4,1.9-8.7-2.6c-2.5-4.8-1.7-10,0.8-13
	s7-0.9,9,3.9C624.3,282.3,623.2,287.1,621.2,289.5z"/>
<path class="st9" d="M665.1,289.5c5.1,0.9,10,9.5,6.1,18.7c-3.3,7.7-10.9,20.8-14.5,29.9c-4,10.2-3.1,18.5,2.5,18.1
	c6.4-0.4,14-12,19.9-24.3c0.8-1.6,1.9-1.6,2.7-0.2c1.1,1.9,0.8,6-1.4,11.1c-4.2,9.9-14,18.8-23,18.8c-13.2,0-16.3-10.9-11.8-26.2
	c5.1-17.2,18.8-35.9,16-37.3c-1.6-0.7-10.6,4.2-20.5,16.5c-9.2,11.3-16,28.2-22.7,44.7c-0.6,1.6-1.6,2.3-3,0.7
	c-3.1-3.5-4-9.3-1.5-18.1c3.1-11.1,15.1-35.5,24.9-51.9c1.1-1.9,2.3-1.8,3.3,0c2.3,4.4,2.2,10.4,0.5,16.7
	C649.4,298.4,659.9,288.7,665.1,289.5z"/>
<path class="st9" d="M719.4,287.4c5.9-2.3,9.7,0.4,12.8,7.7c3,6.9,2.5,14.3-3.3,20.6c-5.8,6.6-13.3,11.5-21.6,14.2
	c0.6,14.4,5,24.5,10.9,25.2c6.4,0.7,14.9-12.9,19.6-23.8c0.9-2.1,2.3-2.3,3.1-0.2s0.5,6.3-1.9,10.7c-3.7,7.4-10.9,18.6-23.2,18.5
	c-10.9-0.2-20.1-10.2-19.8-34c0-3.2,0.3-3.7,3.3-4.8c19.3-7.2,29.6-22.5,27.2-27.1c-1.7-3.2-8.6-1.2-16.8,6
	c-11.7,10-18.7,25.5-30.7,57.9c-0.5,1.4-1.7,1.8-2.8,0.4c-2.3-3-3.1-8.6-0.2-19.4c4.4-16,30.2-73.9,44-95.2c1.4-2.1,3-2.3,3.9-0.2
	c2.3,5.3,2,12.3-4.5,25.2c-3.7,7.2-9.8,19.5-14,28.2C709.3,293.1,714,289.7,719.4,287.4z"/>
<path class="st18" d="M1348.4,485.3v16.6l-0.8,8.5l-0.1,1.4l-1.1,12.4l-0.3,4.2l-0.5,6.5l-0.8,8.1v0.1l-0.4,4.5v2.9l-0.2,0.3
	l-1.6,2.5l-3,1.3l-47.1,15.2l-17.6,5.6l-14.4,4l-4.1,0.5l-3.6-0.3l-3.4-0.5l-4.1-2.7l-5.8-5.4l-4.5-5.6l-4.7-6.3l-4.7-7.6l-1-1.7
	l-2.4-4l-2.4-4.3l-2.9-5.3l-1.8-3.9l-2.3-5.7l-1.2-4.6V503l0.9-5.9l0.8-4.8l0.7-5.8v-2.6v-4V475v-4.6l-0.7-3.5l2.2,1.3h0.9
	c0.8-1.3,1.9-2.4,3.2-3.2c0.9-0.6,1.9-1,3-1.2h-0.1l-1.3-1.4l-1.2-4l0.8-1.2l2.2,4.4l1.8,1.4l1.1,0.4c0.9,0,1.8,0,2.7,0.1l-0.9-1.5
	l-0.3-1.7l-0.5-1.4l0.7-1.4l0.5-1v1.2l4.9,1.9l0.7,0.3l0.5-0.9l0.1,1.1l4.5,1.7l1,0.2l0.3-0.5v0.6l5.3,1.2l6.9-0.1l-1.5-6.4
	l-0.9-5.9v-7.9l2.4-11l2,9.6l2.1,8.4l3.9,6.2l3.8,4.4l4.1,4.1l5.3,1.7l-3.8-6.1l-3.5-8.3l-1.8-8.3l0.3-5.8l0.9-7.4l2.4-7.5l2.7-6.3
	l4.4-6.3l4.8-5.4h0.3l-3.6,10.3l-1.5,7.2l-0.9,8.3v5.4l0.6,8.3l2.4,6.2l3.2,5.6l4.2,5.2l6.8,4.4l-5.7-8l-3-8.5l-2.3-6.3v-13.9
	l2.3,11.3l6.6,10.1l5.2,5.4l7.3,5.2l4.9,2c2.1-0.3,4.2-0.4,6.3-0.2c5.7,0.4,9.1,3.2,11.1,7.2h6.5l2.7-1.2l6.8,1.2l-3-4l-6.8-7.7
	l-4.1-6.6l20.3,16L1348.4,485.3z"/>
<polygon class="st18" points="1280.1,608.8 1283.3,601.3 1285.2,592.5 1285.2,583.8 1286.9,575 1286.9,571.7 1331.2,557.5 
	1329.9,564.7 1328.9,572.6 1328.9,579.2 1329.6,584.4 1331.2,593.1 1327.9,595.2 1324.7,596.8 1319.9,597.3 1324.1,599.5 
	1328.9,599.8 1332.5,599.5 1332.5,603.4 1335.7,608.8 1333.4,613.4 1326.7,616.7 1319.9,618.8 1313.1,618.8 1304.3,618.8 
	1297.9,617 1290.4,614.9 "/>
<polygon class="st14" points="1239.3,540.7 1237.7,545.2 1237.2,547.5 1237.2,549.4 1237.7,550.9 1238.8,552.5 1240.4,553.7 
	1242,554.4 1244.5,554.7 1246.3,554.7 1249,554.7 1251,554.4 1253.8,553.8 1256.4,553.1 1259,551.9 1261.2,551 1264.4,549.3 
	1267.4,547.7 1269.7,546.2 1272.3,544.3 1274.1,542.8 1276.3,541.2 1277.9,539.4 1279.3,537.8 1280.8,536.4 1281.7,534.8 
	1282.9,533.2 1283.6,531.3 1280.1,533.8 1278.6,534.5 1276.6,535.7 1275,536.8 1273.1,537.7 1271.3,538.5 1269.2,539.2 1267.3,540 
	1265.3,540.8 1263.1,541.4 1260.4,542.2 1258.4,543 1256.4,543.6 1254.3,543.9 1252.4,544.1 1250.6,544.3 1248.7,544.6 
	1247.1,544.8 1245.4,544.8 1244,544.5 1242.9,544 1242.2,543 1241.4,541.9 "/>
<path class="st14" d="M1240.7,540.8h-1.4H1240.7z"/>
<polygon class="st14" points="1241.4,541.9 1240.7,540.8 1235.8,537.7 1234.1,535.9 1232.9,534.5 1232.1,533.4 1231.3,532.2 
	1230.7,531 1230.3,529.8 1230.1,528.3 1230.4,526.9 1231.1,526 1231.8,525.3 1232.7,524.7 1233.4,524.3 1234.5,523.8 1236.4,523.5 
	1237.9,523.5 1239.3,523.5 1241,523.5 1242.6,523.5 1244.4,523.8 1246.4,524.2 1248,524.6 1249.5,524.9 1251.4,525.5 1253.5,526.2 
	1255.4,526.7 1257.4,527.4 1259.3,528.1 1261.5,528.8 1263.7,529.5 1266,530 1268.4,530.3 1270.4,530.5 1273.3,530.9 1275.5,531 
	1277.3,531 1279.1,531.3 1280.8,531.3 1282.2,531.3 1282.4,532.1 1281.2,533 1280.1,533.8 1274,534.1 1272.8,534.2 1270.6,534.3 
	1267.1,534.2 1264.2,534 1261.6,533.7 1254,533.3 1251.4,533.2 1249.7,533 1248,532.9 1246.3,532.7 1244.9,532.7 1243.4,532.7 
	1241.8,532.7 1240.7,532.7 1239.3,532.9 1238.2,532.7 1238.7,534 1239.7,535.7 1240.7,537.7 1241.3,539.4 1241.9,540.8 
	1242.6,542.7 1242.9,544 "/>
<polygon class="st14" points="1240.3,541.3 1239.3,540.7 1237,539 1235.8,537.7 1240.7,540.8 1241.4,541.9 "/>
<polygon class="st14" points="1283.6,531.3 1282.2,531.3 1282.4,532.1 "/>
<polygon class="st9" points="1238.2,532.7 1240,536.3 1241.3,539.4 1242.2,541.4 1242.9,544 1244,544.5 1247.1,544.8 1248.7,544.6 
	1250.6,544.3 1252.4,544.1 1254.3,543.9 1256.4,543.6 1259.1,542.7 1264,541.1 1269.2,539.2 1271.8,538.2 1274,537.2 1275.6,536.3 
	1277.4,535.2 1280.1,533.8 1277.5,533.7 1273.9,533.5 1271,533.7 1268.8,533.7 1265.7,534.1 1261.6,533.7 1258.5,533.6 
	1255.6,533.4 1251,533.1 1249.7,533 1246.8,532.7 1244.9,532.7 "/>
<polygon class="st9" points="1265.3,540.8 1267.3,540 1262.2,541.7 "/>
<path class="st9" d="M1238.7,499.4c-14.6-1.5-22.9-8-24.6-15.5c-0.2-0.8-0.3-1.6-0.3-2.5c-0.1-2.1,0-4.3,0.3-6.4
	c0.3-2.4,1.1-4.7,2.4-6.8c0.8-1.3,1.9-2.4,3.2-3.2c0.9-0.6,1.9-1,3-1.2c0.7-0.2,1.4-0.3,2.2-0.3c0.4,0,0.7,0,1.1,0
	c0.9,0,1.8,0,2.7,0.1c0.9,0.1,1.8,0.2,2.7,0.4c0.5,0.1,1,0.2,1.5,0.4c1.3,0.3,2.6,0.8,3.8,1.4c0.7,0.3,1.4,0.6,2,1
	c0.8,0.5,1.6,1,2.4,1.6c0.8,0.6,1.6,1.3,2.4,2.1c0.8,0.9,1.6,1.8,2.3,2.8c1.6,2.2,2.8,4.6,3.6,7.1
	C1253.7,493,1254.9,501,1238.7,499.4z"/>
<path class="st19" d="M1245.3,479c-0.2,7.6-7.6,14.9-15.9,13.1s-13.9-4.8-14.5-15.4s5.5-13.1,14.9-11.5S1245.5,471.5,1245.3,479z"/>
<ellipse cx="1230.1" cy="480.2" rx="8.7" ry="7.8"/>
<ellipse class="st9" cx="1229.1" cy="481.2" rx="2" ry="1.9"/>
<ellipse class="st9" cx="1225.9" cy="479.4" rx="1" ry="0.9"/>
<path class="st9" d="M1325.9,483.2c-0.4,9.4-10.4,18.1-29.8,20s-18-7.1-12.7-21.4c0.5-1.4,1.1-2.7,1.8-4l0,0
	c0.4-0.8,0.9-1.6,1.5-2.4c0.8-1.3,1.8-2.5,2.9-3.6c0.4-0.5,0.9-0.9,1.3-1.3c0.6-0.5,1.2-1.1,1.9-1.5l0,0c1.2-0.9,2.5-1.7,3.8-2.4
	c0.6-0.3,1.1-0.6,1.7-0.8c1-0.4,2.1-0.8,3.1-1.2c1.6-0.5,3.3-0.9,4.9-1.1c2.1-0.3,4.2-0.4,6.3-0.2c5.7,0.4,9.1,3.2,11.1,7.2
	C1325.6,474.1,1326.1,478.8,1325.9,483.2z"/>
<path class="st19" d="M1291.1,480.6c0.2,8.4,8.1,16.6,17.1,14.6s14.9-5.3,15.6-17.1s-5.9-14.6-16-12.8S1290.9,472.2,1291.1,480.6z"
	/>
<ellipse cx="1303" cy="480.2" rx="8.8" ry="8.2"/>
<ellipse class="st9" cx="1305.4" cy="481.4" rx="2.4" ry="2.1"/>
<ellipse class="st9" cx="1300.4" cy="479.4" rx="1.2" ry="1"/>
<path class="st20" d="M1362.9,390.6l-0.4,3.4C1362.6,392.9,1362.7,391.8,1362.9,390.6z"/>
<path class="st20" d="M1363.3,401.6c-0.6-2.5-0.9-5.1-0.7-7.6L1363.3,401.6z"/>
<path class="st20" d="M1365.2,407c-0.8-1.7-1.5-3.5-1.9-5.4L1365.2,407z"/>
<path class="st20" d="M1368.6,412.5L1368.6,412.5c-1.3-1.7-2.4-3.6-3.3-5.5L1368.6,412.5z"/>
<path class="st20" d="M1395.2,460.7c-1.6-1-3.1-2.2-4.5-3.5L1395.2,460.7z"/>
<path class="st20" d="M1399.6,463.2c-1.5-0.7-3-1.5-4.4-2.5L1399.6,463.2z"/>
<path class="st20" d="M1404.9,465.3c-1.8-0.6-3.5-1.3-5.2-2.1L1404.9,465.3z"/>
<path class="st20" d="M1417.5,467.5c-4.2-0.2-8.4-0.9-12.5-2.2L1417.5,467.5z"/>
<path class="st20" d="M1364.9,428.5c-0.1-1.2-0.1-2.4-0.1-3.6L1364.9,428.5z"/>
<path class="st20" d="M1366.9,436.7L1366.9,436.7v-0.1C1366.9,436.6,1366.9,436.6,1366.9,436.7z"/>
<path class="st20" d="M1370.3,442.8c-1.4-1.9-2.5-3.9-3.4-6.1L1370.3,442.8z"/>
<path class="st20" d="M1366.9,436.6c-1.1-2.6-1.7-5.3-2-8.1L1366.9,436.6z"/>
<path class="st20" d="M1374.6,447.7c-1.6-1.5-3-3.1-4.3-4.9L1374.6,447.7z"/>
<path class="st20" d="M1378.5,450.9c-1.3-1-2.6-2-3.8-3.1L1378.5,450.9z"/>
<path class="st20" d="M1386,455.3c-2.6-1.2-5.1-2.7-7.5-4.4L1386,455.3z"/>
<path class="st20" d="M1390.6,457.2c-1.6-0.6-3.1-1.2-4.7-1.9L1390.6,457.2z"/>
<path class="st9" d="M1366.9,436.6L1366.9,436.6v0.1C1366.9,436.6,1366.9,436.6,1366.9,436.6z"/>
<polygon class="st20" points="1199.3,433.8 1198,443.9 1197.8,439.7 "/>
<polygon class="st20" points="1199.3,433.8 1198,443.9 1197.8,439.7 "/>
<path class="st20" d="M1221.4,468.1h-4.9c0.8-1.3,1.9-2.4,3.2-3.2l0.4,0.7L1221.4,468.1z"/>
<polygon class="st20" points="1228.1,457.7 1227.5,457.5 1228,456.5 "/>
<polygon class="st20" points="1234.2,460.1 1233.6,459.9 1234.1,459 "/>
<polygon class="st20" points="1240.1,461.5 1240,462.1 1239.8,462 "/>
<path class="st20" d="M1323.8,470.5l-1.2-0.5l-9.4-3.8l-3.1-1.2l0,0l-3.7-1.5c2.1-0.3,4.2-0.4,6.3-0.2
	C1318.4,463.6,1321.9,466.5,1323.8,470.5z"/>
<polygon class="st20" points="1348.4,497.1 1348.4,501.9 1347.7,510.4 1347.5,511.8 "/>
<polygon class="st20" points="1345.6,549.6 1344.5,551.8 1344.5,552.3 1344.2,552.5 1344.5,550.5 1344.5,550.5 "/>
<path class="st20" d="M1362.9,390.6l-0.4,3.4C1362.6,392.9,1362.7,391.8,1362.9,390.6z"/>
<path class="st20" d="M1363.3,401.6c-0.6-2.5-0.9-5.1-0.7-7.6L1363.3,401.6z"/>
<path class="st20" d="M1364.9,428.5c-0.1-1.2-0.1-2.4-0.1-3.6L1364.9,428.5z"/>
<path class="st20" d="M1365.2,407c-0.8-1.7-1.5-3.5-1.9-5.4L1365.2,407z"/>
<path class="st20" d="M1368.6,412.5L1368.6,412.5c-1.3-1.7-2.4-3.6-3.3-5.5L1368.6,412.5z"/>
<path class="st20" d="M1366.9,436.6c-1.1-2.6-1.7-5.3-2-8.1L1366.9,436.6z"/>
<path class="st20" d="M1366.9,436.7L1366.9,436.7v-0.1C1366.9,436.6,1366.9,436.6,1366.9,436.7z"/>
<path class="st20" d="M1370.3,442.8c-1.4-1.9-2.5-3.9-3.4-6.1L1370.3,442.8z"/>
<path class="st20" d="M1374.6,447.7c-1.6-1.5-3-3.1-4.3-4.9L1374.6,447.7z"/>
<path class="st20" d="M1378.5,450.9c-1.3-1-2.6-2-3.8-3.1L1378.5,450.9z"/>
<path class="st20" d="M1386,455.3c-2.6-1.2-5.1-2.7-7.5-4.4L1386,455.3z"/>
<path class="st20" d="M1390.6,457.2c-1.6-0.6-3.1-1.2-4.7-1.9L1390.6,457.2z"/>
<polygon class="st20" points="1390.7,481.4 1390,487.8 1386,493.1 1380.3,496.9 1375.8,499.3 1371.6,502.8 1369.3,477.4 
	1373.8,473.9 1380.2,471.9 1385.3,473.1 1390,476.1 "/>
<path class="st20" d="M1395.2,460.7c-1.6-1-3.1-2.2-4.5-3.5L1395.2,460.7z"/>
<path class="st20" d="M1399.6,463.2c-1.5-0.7-3-1.5-4.4-2.5L1399.6,463.2z"/>
<path class="st20" d="M1404.9,465.3c-1.8-0.6-3.5-1.3-5.2-2.1L1404.9,465.3z"/>
<path class="st20" d="M1417.5,467.5c-4.2-0.2-8.4-0.9-12.5-2.2L1417.5,467.5z"/>
<polygon class="st20" points="1345.6,549.6 1344.5,551.8 1344.5,550.5 1344.5,550.5 "/>
<polygon class="st14" points="1225.7,551.4 1225.7,558.2 1224.9,567.8 1223.8,574.9 1223.2,583 1221.6,590.7 1219.5,595 
	1216.6,599.5 1213.5,602.6 1210.4,604.2 1206.3,606 1204.4,606 1207.1,608.7 1211.7,609.3 1216.3,609.3 1219.7,609.3 1225.7,608.2 
	1230.1,606 1234.7,602.7 1237.2,599.8 1240,596.3 1242.8,592.3 1244.9,588.3 1244.9,591.8 1244.9,595.8 1243.2,598.7 1241.4,601.1 
	1240,603.4 1243,601.9 1245.7,599 1247.6,595.8 1248.7,593.4 1248.7,591.2 1248.7,588.9 1248.7,585.4 1249.5,581.8 1249.6,579 "/>
<polygon class="st12" points="1276.2,613.8 1277.7,612.4 1279.2,610.5 1280.1,608.8 1288,613.5 1294.2,615.9 1304.3,618.8 
	1313.1,618.8 1319.9,618.8 1323.8,617.6 1328.8,615.7 1333.4,613.4 1335.7,608.8 1339.6,611.6 1342.9,613.8 1339.1,617.6 
	1332.5,621.6 1324.7,625.1 1317.8,626.8 1310.6,627.7 1302.7,627.7 1296.3,626.3 1289.6,624.1 1283.8,621 1280.1,618.3 "/>
<polygon class="st10" points="1276.2,613.8 1272.7,614.9 1268.9,615.5 1265.9,616.3 1241,652.6 1243.8,654.5 1251.3,657.2 
	1257.6,659.1 1265.9,661.2 1275.3,663.1 1284.3,664.5 1293.4,665.4 1299.6,665.4 1310.3,665.4 1315.6,665.4 1317.4,664.3 
	1310.4,656 1308.8,652.1 1307.9,648.7 1307.9,646.7 1309.5,645.9 1311.3,645.9 1313.8,647 1315.9,648.8 1319.1,651.6 1324.9,656.5 
	1326,654.5 1327.7,653.3 1329.6,652 1331.6,651.2 1333.1,651.2 1333.1,649.6 1333.1,648.1 1335,646.9 1336.7,645.5 1338.6,644.2 
	1340.3,644 1342.9,644.3 1342.9,642.6 1345.3,640.3 1348.6,637.3 1352.8,633.7 1355.7,631.9 1356.8,630 1358.8,627.7 1361.5,625.5 
	1364.4,622.5 1352.7,618.3 1347,615.9 1342.9,613.8 1339.1,617.6 1334.2,619.9 1327.4,623 1320.7,624.9 1314.8,626 1308.6,626 
	1302.2,625.4 1295.9,623.2 1288.9,620.7 1283.1,618.3 "/>
<polygon class="st10" points="1376.6,627 1365.4,636.7 1370.3,640.8 1377.2,647.2 1380.6,651.3 1383.9,656.5 1366,691.6 1368,695.5 
	1368.3,698.3 1369,702.2 1369.2,704.4 1372.9,703.8 1376.9,703.2 1380.6,703 1383.9,701.8 1388.1,699.7 1392.4,697.8 1398.1,696.5 
	1402.8,694.5 1407.5,692.1 1411.7,690.4 1409.7,677.8 1407.5,669.5 1405.3,662.2 1404.1,657.2 1401.1,652.3 1397.9,648.7 
	1395.1,642.9 1392.5,638.9 1389.3,635.4 1385.3,630.8 1380.9,628.4 "/>
<polygon class="st10" points="1211.9,666.6 1227.5,653.5 1252.5,617.6 1246,618.8 1241,619.7 1234.6,621.7 1229.6,623.6 
	1225.7,625.5 1222.2,628.1 1219.5,630.6 1217.8,633.4 1216.6,636.5 1215.7,639.6 1215.1,643.9 1214.2,649.7 1213.8,655.4 
	1213.3,659.2 "/>
<path class="st12" d="M1266.5,615.7l-13.4,1.3l-4,5.7l-8.1,11.7l-12.9,18.6l-15.5,13l-5.2,6.5l-3.5,5.3l-0.7,5.1v10.9l1.7,9.9
	l2.4,11.8l3.1,11.3l0.7,7.3v8.2l1.5,8.4l2.7,7.9l5.1,8.9l4.6,4.8l7.3,6.3l7.7,2l11.5,2.2l12.1,1l14.1,0.8l15.4-0.8l12.4-1l10.1-1.5
	l9-2.6l7.5-3.9l4-6.2l3.3-6l4.4-10.2l2.8-11.5l2.6-10.2l-15.5-30.5c1.1,2.1,0.9-8.1,0.9-8.1l-0.5-12.8l-16-15.7l-9.5,1.2H1294
	l-13.3-1.6l-14.2-2.7l-14.6-4l-10.3-4.5L1266.5,615.7z"/>
<polygon class="st9" points="1290.8,676.7 1322.4,678.3 1318.5,689.3 1287.2,686.8 "/>
<polygon class="st10" points="1353.5,647.9 1353.5,646.4 1355.1,644.8 1356.2,643.7 1357.7,643.7 1361.1,645.8 1369.2,653.2 
	1367,653.2 "/>
<polygon class="st12" points="1355.7,631.9 1356.8,630 1358.8,627.7 1361.5,625.5 1364.4,622.5 1376.6,627 1373,630 1365.4,636.7 
	1363.6,635.9 1362.3,635 1361,634 1359.7,633.2 1358.2,632.6 "/>
<polygon class="st18" points="1372.9,703.8 1376.9,703.2 1380.6,703 1383.9,701.8 1388.1,699.7 1392.4,697.8 1396.2,696.9 
	1400.4,695.5 1405,693.4 1409.5,691.3 1416.3,721.3 1420.2,739 1422.9,752.9 1425.2,762.8 1427.4,773.2 1427.4,777.5 1423.6,773.5 
	1409.8,757.5 1402.7,749.5 1393.5,742.6 1383.8,735.3 "/>
<polygon class="st18" points="1427.4,777.5 1427.4,783 1427.4,789.2 1425.6,794.8 1422.6,799.2 1419.1,799.9 1409.8,797.7 
	1398.8,794.2 1389.2,789.5 1376.4,780.1 1365.4,766.2 1358.1,753.6 1352.9,742 1349.1,732.2 1347.4,727.4 1333.6,700.2 1334,679.4 
	1370.3,681.3 1361.4,703.1 1359.8,705.7 1359.6,708.5 1361.4,711.3 1367.1,718.5 1379.4,731.5 1383.8,735.3 1390.5,740.3 
	1396.2,745.8 1401.2,749.7 1407.1,756.1 "/>
<polygon class="st18" points="1334,679.4 1328.7,674.1 1323.2,668.8 1318,663.7 1315.3,661.8 1313.1,659.2 1311.3,657 1310.4,656 
	1309.3,653.2 1308.5,651 1307.9,648.7 1310.5,651.9 1312.1,652.8 1314.2,653.2 1316.1,653.2 1317.6,653.2 1318.8,652.4 
	1322.4,655.3 1325.8,657.9 1329.4,660.6 1333.1,663.2 1338.6,666.5 1340,667.4 1341.7,668.3 1348.1,671.5 1351.1,672.8 
	1349.8,671.3 1346.7,670.1 1343,668.2 1337,664.8 1335.3,663.5 1333.6,662.2 1331.4,660.8 1329.5,659.4 1328,658.3 1326,657 
	1324.9,656.5 1326,654.5 1328.7,652.6 1329.6,652 1331.6,651.2 1333,651.5 1334.7,651.9 1345.1,656.4 1361.4,662.7 1361.9,661.8 
	1347.8,656.7 1342.7,654.4 1338.1,652.5 1335.7,651.5 1334.3,651 1333.1,648.1 1335,646.9 1336.7,645.5 1338.6,644.2 1340.3,644 
	1347.2,646 1352.4,648.3 1354.5,649.2 1363,652.3 1367,653.2 1369.2,653.2 1368,652.1 1366.7,650.9 1365.4,649.7 1364.4,648.9 
	1363.4,648 1362.4,647 1361.1,645.8 1359.9,645.1 1357.7,643.7 1356.2,643.7 1355.1,644.8 1353.5,646.4 1353.5,647.9 1344.4,644.5 
	1342.9,644.3 1342.9,642.6 1344.2,641.4 1345.3,640.3 1348.6,637.3 1350.9,635.3 1352.8,633.7 1354.1,632.9 1355.7,631.9 
	1358.2,632.6 1359.7,633.2 1362.3,635 1363.6,635.9 1365.4,636.7 1368.9,639.6 1372,642.4 1374.3,644.5 1377.2,647.2 1378.2,648.5 
	1380.6,651.3 1381.8,653.2 1383.3,655.6 1383.9,656.5 1381.3,661.6 1379.9,664.4 1378,668.2 1376.1,671.9 1374.5,675.1 1372.9,678 
	1371.5,680.8 1370.1,683.7 1368.7,686.4 1367.2,688.9 1366,691.6 "/>
<polygon class="st14" points="1318.8,652.4 1317.6,651.2 1316.3,649.7 1315.3,648.8 1314.8,647.9 1313.8,647 1312.8,646.6 
	1311.9,646.2 1311.3,645.9 1309.5,645.9 1307.9,646.7 1307.9,648.7 1309.1,650.1 1310,651.2 1310.9,652.1 1312.1,652.8 
	1313.7,653.1 1315,653.2 1316.8,653.2 1317.6,653.2 "/>
<polygon class="st18" points="1207.2,715.5 1203.2,708.7 1194.8,693.5 1186.2,677.6 1180.2,666.6 1172.5,653 1170.9,648.1 
	1170.9,642.1 1152.6,643.6 1149.6,652.8 1152,653.5 1153.3,659.1 1155,665.4 1157.2,673.6 1159.8,683 1163,693.8 1165.3,701.2 
	1169.2,711.3 1172.4,719.8 1178.4,731.3 1180.9,737.8 1185.2,745.3 1189.9,751.8 1194.8,758 1198.1,761.5 1202.4,763.8 
	1205.6,763.8 1208.6,763.8 1211.2,762.6 1215.3,758.6 1211.1,742.4 1211,737.1 1210.7,732.7 1210.7,729.1 1210.4,726.8 "/>
<path class="st18" d="M1152.6,643.6l-1.6-2.4c-0.7-1.1-1.4-2.2-2-3.3c-0.6-1.1-1.2-2.3-1.7-3.5c-0.8-2.1-1.2-4.4-1.2-6.6
	c0-1.3,0.1-2.6,0.2-3.8c0.1-1.6,0.2-2.5,0.3-3.2c0.3-2,1-4,1.9-5.9c0,0,0.4-0.8,2-3.6l0,0c0.1-0.3,0-0.7-0.2-1
	c-0.4-0.4-1.2-0.1-2.4-0.2c-0.8-0.2-1.7-0.5-2.4-0.8c-1.1-0.4-1.9-0.8-2.8-1.2c-0.7-0.3-1.4-0.7-2.4-1.2c-1-0.5-1.9-1.1-2.8-1.7
	c-0.3-0.2-1-0.8-2.4-1.8s-1.8-1.4-2.3-1.9c-0.6-0.5-1.1-1-1.7-1.5c-0.5-0.5-0.4-0.5-1.2-1.5c-0.7-0.8-0.8-0.9-1.6-1.9
	c-0.2-0.3-0.5-0.6-1-1.3s-0.6-0.9-0.6-0.9s1.2,0.5,3.2,0.9c0.8,0.2,0.6,0.1,1.8,0.3c0.9,0.3,1.8,0.4,2.8,0.5c0.5,0,1-0.1,1.6-0.2
	c0.4-0.1,0.8-0.3,1.2-0.5c0.4-0.3,0.8-0.7,0.9-1.2c0.1-0.6-0.3-1-0.1-1.1s1.1,0.7,2.5,1.4c1,0.6,1.1,0.4,2.9,1.2
	c1.2,0.6,1.2,0.7,2.9,1.5c1.6,0.9,3.4,1.5,5.3,1.5c2,0.2,2,0.1,3.3,0.3c0.7,0.1,1.6,0.3,3.4,0.6c1,0.2,1.9,0.4,2.9,0.5
	c0.8,0.1,1.7,0.1,2.5,0.1c0.7-0.1,1.5-0.1,2.2,0c0.7,0.2,0.8,0.5,2.7,2.2c1.1,1,1.2,1.1,2,1.9c0.6,0.5,1.2,1.2,1.7,1.9
	c0.4,0.8,0.3,1.4,0.2,3.1c0,0.9,0,1.8,0.1,3.5c0.1,2.4,0.3,2.4,0.3,4.3c0,0.6,0,0.5,0,3.5c0,2.8,0,2.5,0,3c0,1.4-0.1,1.6-0.4,4.8
	c-0.2,1.7-0.1,1.7-0.3,3.6c-0.1,0.7-0.2,1.8-0.3,3.2c-0.1,1-0.3,2.3-0.4,3.7l-0.3,1.5l-0.2,1.9L1152.6,643.6z"/>
<polygon class="st18" points="1126.7,594.1 1125.6,593.5 1124.8,592.8 1124.2,592 1123.8,591.2 1123.8,590.2 1125,589.4 1126.5,589 
	1128,589 1129.1,589 1130.8,589.4 1131.8,589.4 1133.3,589.9 1134.3,590.2 1135.2,590.8 1136.2,591.3 1137.1,591.9 1137.6,592.3 
	1138,592.8 1138.1,593.9 1137.7,594.8 1137.2,595.2 1136.5,595.5 1135.4,595.8 1134.5,595.9 1133.8,595.8 1132.7,595.7 
	1131.7,595.4 1129.9,595.1 1128.5,594.8 "/>
<polygon class="st18" points="1123.8,591.2 1120.2,587.3 1117.9,584 1115.3,580.4 1113.6,577.3 1112,573.8 1110.7,570.4 1109.7,567 
	1108.8,562.6 1108.8,559.6 1108.8,557.6 1109.4,555.8 1110.3,554.8 1111.7,555.3 1113.3,556.2 1114.8,557.3 1116.3,559.1 
	1118.7,561.1 1120.7,563.8 1123.3,568.3 1128.3,576.1 1131,580.4 1133.6,584.4 1135.4,586.5 1137.7,589 1139.2,589.7 1140.6,589.7 
	1141.2,588.4 1140.6,585.8 1138.6,577.2 1137.6,573 1136.9,569.5 1136.6,565.2 1136.8,561.6 1137.3,557.7 1138.1,553.9 
	1139.2,550.7 1140.3,548.1 1141.2,545.9 1142.1,544.4 1142.7,543.1 1143.8,542.5 1146,543.2 1146.6,544.4 1147.6,546.5 
	1147.6,549.2 1147.6,553.1 1148.4,557.3 1149,563 1149,566.3 1149.8,570.1 1149.8,572.9 1151,576.6 1152.1,579.8 1153.2,583.2 
	1154.7,586.1 1156.4,589.8 1157.9,592 1160.3,595 1162.4,597.2 1164.5,598.9 1166,600 1161.2,599.9 1156.3,598.9 1149.8,598.7 
	1143.9,597.2 1137.2,595.2 1131.7,595.4 1125.6,593.5 "/>
<polygon class="st18" points="1152.9,600 1165.1,600.8 1162.7,598.3 1154.2,597.6 "/>
<polygon class="st18" points="1135.1,593.2 1132.7,595.7 1138.1,597.6 1138.1,593.9 "/>
<polygon class="st14" points="1108.8,562.6 1108.2,560.3 1107.9,558.4 1107.6,556.4 1107.6,554.9 1107.6,553.4 1108.2,552.3 
	1109.2,552.3 1110.6,552.3 1111.9,552.7 1113.1,553.7 1114.8,555.4 1116.4,557.5 1118.7,561.1 1113.3,556.2 1111.7,555.3 
	1110.3,554.8 1109.4,555.8 1108.8,557.6 1108.9,560.1 "/>
<polygon class="st18" points="1116.3,559.1 1116.9,559.4 1116.1,558.7 1116.4,559.4 1118,560.7 1118.7,561.1 1115.6,558.3 "/>
<polygon class="st14" points="1142.4,546.5 1144.3,547.3 1145.2,547.6 1146.2,549.4 1147.5,552.5 1148.1,549.5 1148.1,546.5 
	1147,544.2 1146,542 1145.2,540.9 1143.3,540.9 1141.7,543 1140.9,544.5 1140,549.4 "/>
<polygon class="st18" points="1139.6,619.5 1139.2,617.7 1138.1,615.8 1137.4,614.2 1135.8,612.8 1134.4,611.2 1132.1,608.8 
	1129.9,607 1128.2,605.7 1125,603.9 1123.5,603.2 1122,602.6 1120,601.8 1120,600.8 1122.7,601.9 1124.5,602.7 1127.6,604.3 
	1128.8,604.9 1131,604.6 1135,603.2 1132.7,601.4 1131.1,599.8 1129.8,598.3 1128.8,597 1127.3,595.1 1125.4,594.4 1123.8,593.2 
	1122.8,592 1121.3,592 1118.9,592 1116,593.9 1112.9,596.6 1109.5,600 1107.6,602.8 1107,604.7 1107,606.3 1108.4,608.2 
	1112.6,610.1 1123.3,615.3 1127.5,617.6 1131.8,619.5 1131,618.2 1131.6,616.9 1132.3,615.9 1134.2,616.6 1135.8,617.2 
	1137.1,618.2 "/>
<polygon class="st14" points="1131,618.2 1131.8,619.5 1133.4,621.2 1135.8,623.4 1138.2,624.8 1140.2,625.2 1142,624.4 1142,623.5 
	1141.5,622.2 1140.4,620.5 1139.6,619.5 1137.8,618.2 1136.5,617.5 1135.8,617.2 1134.2,616.6 1132.3,615.9 1131,617.3 "/>
<polygon class="st18" points="1132.7,621.1 1130.7,619.8 1128.8,618.9 1126.5,617.6 1124.4,617.1 1122.2,616.5 1119.5,615.9 
	1116.7,615.7 1115.2,615.3 1114.7,614.5 1115.2,614.5 1116.7,614.5 1118.8,615.2 1122.5,615.7 1123.3,615.3 1117.6,612.5 
	1114.3,610.9 1111,609.4 1108.4,608.2 1107,610.9 1105.6,613.3 1104.7,615.1 1103.8,616.5 1103.8,618.6 1104.1,620.6 1105.7,621.9 
	1107.6,623 1109.6,623.9 1112.4,625 1114.3,625.2 1117.2,626 1119.1,626.3 1120.9,626.3 1123.6,626.5 1126,626.3 1125.1,625.2 
	1124.9,624.6 1125.2,623.9 1126.2,623.7 1127.3,623.5 1129.3,623.4 1131,623.3 1132.3,623.6 1134.7,624.5 1135.3,624.8 
	1135.8,623.4 1134.6,622.4 1133.4,621.2 "/>
<polygon class="st14" points="1126,626.3 1125.1,625.2 1124.9,624.6 1125.2,623.9 1127.3,623.5 1131,623.3 1132.3,623.6 
	1133.5,624.1 1135.3,624.8 1136.5,625.8 1136.9,626.5 1136.9,627.5 1135.8,628.3 1134.1,628.7 1132.3,628.7 1130.6,628.7 
	1129,628.2 1127.8,627.8 1126.7,627.2 "/>
<polygon class="st18" points="1134.9,603.5 1131,604.9 1127.9,605.2 1128.8,605.9 1131,607.6 1131.9,608.2 1132.7,609.1 
	1134.4,611.2 1136.3,612.9 1137.4,614.2 1138.4,616.3 1139.6,618.2 1139.6,619.5 1140.2,620.3 1141,621.5 1141.5,622.2 1142,623.5 
	1142,624.4 1140.2,625.2 1138.2,624.8 1137.1,624.2 1135.8,623.4 1135.3,624.8 1136.5,625.8 1136.9,626.5 1136.9,627.5 
	1135.8,628.3 1134.1,628.7 1132.3,628.7 1130.6,628.7 1127.8,627.8 1126.7,627.2 1126,626.3 1123.6,626.5 1120.9,626.3 
	1119.1,626.3 1121.4,631.2 1122.6,633.6 1123.9,636 1125.3,637.8 1130.1,643.3 1134.3,647 1139.6,650 1143.4,651.6 1149.6,652.8 
	1151.8,644.6 1151.2,642.9 1150.2,641.5 1149.6,640.2 1148.9,639.1 1148.4,637.8 1147.8,636.6 1147.2,635.5 1146.7,634.5 
	1146.3,633.3 1146.1,632.3 1145.8,631.2 1145.5,629.5 1145.3,626.5 1145.6,623.1 1146,620.6 1146.9,617.4 1148.8,612.9 
	1149.5,611.2 1147.8,610.7 1146.3,610.2 1144.8,609.7 1143.5,609.1 1142,608.2 1140.7,607.5 1139.3,606.8 1138,606 1136.9,605.3 
	1135.8,604.5 "/>
<polygon class="st18" points="1151.2,642.9 1153.1,644 1150.5,653.1 1148.6,652.6 "/>
<polyline class="st10" points="1302.2,783.2 1293.1,783.9 1283.2,783.7 1276.2,783.6 1269.3,783.7 1263.6,783.9 1251.5,782.9 
	1240,780.7 1232.3,778.6 1231.6,789.1 1241.8,793.5 1255.6,796.2 1268.3,798.2 1281.8,798.2 1296.4,798.2 1307.9,797.4 
	1318.2,795.4 1325.8,793.5 1330.7,791 1334.8,788.4 1332.1,774.8 1324.6,778.8 "/>
<polygon class="st9" points="1235.2,790.6 1241.8,793.5 1250.5,795.2 1260.6,797 1268.3,798.2 1276.2,798.2 1288.8,798.2 
	1296.4,798.2 1307.9,797.4 1316.4,795.7 1323.9,794.4 1325.8,793.5 1333.6,795.6 1342.8,801.3 1354.7,812.3 1364.4,822.8 
	1372.9,833.4 1388.8,857.4 1400.2,877.6 1407.1,894 1410.5,903.8 1414.6,915.6 1416.8,924.3 1418.7,930.3 1413.5,935.5 
	1398.2,941.1 1372.9,945.3 1337.3,949.5 1305.1,951.2 1277.5,951.2 1255.4,951.2 1235.2,949.1 1215.4,946.3 1208.3,944.6 1199,940 
	1201.6,912.5 1205,881.1 1208,861.9 1214.7,835.4 1220.7,818.6 1228.1,802.9 "/>
<path class="st12" d="M1446.2,947.8l-27.4-71.6l-4.8-14.1l-6.2-9.6l-6.6-9l-7.3-9.6l-7.1-7.7l-7.8-8.3l-7.1-6.2l-6.6-6l-7.3-5.7
	l-8.7-5.8l-10-5h-5.3l-8,4.4l7.8,2.2l4.2,2.5l8,5.8l6.5,6.1l6.7,7l7.2,8l6.8,8.4l5.3,8.1l6,9.1l6.8,10.9l4.8,8.6l5.1,9.5l3.7,8.7
	l3.7,9.5l3.2,9.3l3.9,12.2l3.2,11l-5.2,5.2l-5.8,2.1l-7.4,2.7l-12,2.4l-15.3,2.5l-15.6,1.8l-12.6,1.5l-12.4,1.1l-15.6,0.8l-11.7,0.6
	h-49.7l-9.8-1l-10.5-1.1l-12.8-1.8l-9.4-1.6l-8.4-3l-5.6-2.7l1.2-12.5l1.7-17.9l1.3-9.9l1.2-13l1.9-13.8l2.2-13.1l2.5-10l3.7-14.4
	l4-11.3l4.6-10.9l6.6-13.2l5.3-9.3l-3.6-1.5l-10.4,10.9l-5.9,6.4l-6.6,15.5l-7.2,15.5l-6,16.5l-3.8,20.8l-3,23.2v38.7l1.2,13.6
	c0.2,2.1,0.4,4.1,0.5,5.9c0,0.3,0,0.6,0.1,0.9l0.8,9.4l4.2,26.4l22.6,3.9l17.7,2.5l23,2.5h94.2l36.6-2.5l37.8-3.9l14.6-2.5l12.8-4.9
	l4.1-5L1446.2,947.8z"/>
<path class="st14" d="M1447.3,394.4c-1.2-16.9-18.7-30.9-40.7-31.8s-40.7,11.3-43.7,28l-8.7-3.9l-6-2.4l-8.4-2.5l-8.9-2l-11-1.6
	l-13.7-2l-12.2-0.9h-27.6l-6.5,0.8l-6,2.1l-6.9,2.4l6.7-2.9l6.2-1.7l-3.6-5.5l-5.4-5l-7-3.9l-8.5-2.4l-8.7-1h-7.2l-9,2.2l-7.5,3.1
	l-7,4.3l-3.2,2.7l-2.4,2.1l-4.4,5l-1.8,3.8l-0.5,1l-1.8,5.3l-0.8,5.3l-0.4,2.9l-0.1,1l-4.1,3.9l-3.9,6l-1.8,7.3v15l2.6,5.8l2.3,4.9
	l4.9,5.2l4.9,3.9l4.9,2.2h8.8l2.4,4.4l1.1,2l3,4.1l4.1,3.3l3.4,2l2.2,1.3h0.9c0.8-1.3,1.9-2.4,3.2-3.2c0.9-0.6,1.9-1,3-1.2h-0.1
	l-1.3-1.4l-1.2-4l0.8-1.2l2.2,4.4l1.8,1.4l1.1,0.4c0.9,0,1.8,0,2.7,0.1l-0.9-1.5l-0.3-1.7l-0.5-1.4l0.7-1.4l0.5-1v1.2l4.9,1.9
	l0.7,0.3l0.5-0.9l0.1,1.1l4.5,1.7l1,0.2l0.3-0.5v0.6l5.3,1.2l6.9-0.1l-1.5-6.4l-0.9-5.9V443l2.4-11l2,9.6l2.1,8.4l3.9,6.2l3.8,4.4
	l4.1,4.1l5.3,1.7l-3.8-6.1l-3.5-8.3l-1.8-8.3l0.3-5.8l0.9-7.4l2.4-7.5l2.7-6.3l4.4-6.3l4.8-5.4l0.5-0.6l-0.2,0.6l-3.6,10.3l-1.5,7.2
	l-0.9,8.3v5.4l0.6,8.3l2.4,6.2l3.2,5.6l4.2,5.2l6.8,4.4l-5.7-8l-3-8.5l-2.3-6.3v-13.8l2.3,11.3l6.6,10.1l5.2,5.4l7.3,5.2l4.9,2
	c2.1-0.3,4.2-0.4,6.3-0.2c5.7,0.4,9.1,3.2,11.1,7.2h6.5l2.7-1.2l6.8,1.2l-3-4l-6.8-7.7l-4.1-6.6l20.3,16l2.2,17.2l0.1,0.8v9.4
	l-0.1,1.6v4.8l-0.8,8.5l-0.1,1.4l-0.1,1.2v0.2l-1.1,18.1l-0.2,2.4l-0.8,11l-0.9,5.7l1.1-0.9l-1.1,2.3V563l-1.8,6.9l-1.7,6.7
	l-2.3,6.1l-3,6.8l-4.5,5l-6.5,3.6l-2.7,0.3l-2.2,0.3l4.2,2.1l4.8,0.3l3.6-0.3l8.5-1l5.7-1.9l5.1-3.2l4.3-4l6-8l2.6-4.8l2.3-4.5
	l1.7-5.3V563l1.4-10.5l1.4,10.5v5.3l-2,6.1l-1.7,5.4l-4.6,8l6.6-4.5l1.7-4.5l2.9-4.8l1.4-5.1V562l1.4-4.3v-22.4l-1.1-4l1.1-2.7
	l-0.6-5.2l7.1-5.3l5.5-5.5l5.9-6.6l5.1-6.4l4.7-7.1l4.8-7.1l1.6-5l3.2-8l3-4.8c-4.2-0.2-8.4-0.9-12.5-2.2l12.5,2.2
	c20.3,0.9,37.5-10.9,38.2-26.2c0.2-4.1-0.8-8.1-2.7-11.7c3.8-3.8,6.1-9,6.4-14.4C1459.7,406.5,1455,398.5,1447.3,394.4z M1198,443.9
	l-0.2-4.2l1.5-5.9L1198,443.9z M1201.8,426.2l-1.1,2.9l0.7-2.3l0.4-0.9l0.7-1.4L1201.8,426.2z M1213.7,405.6l1.1-1.8l1.8-1.9
	L1213.7,405.6z M1224.3,394.4l2.6-2.2l3.1-2L1224.3,394.4z M1390.6,457.2c-1.6-0.6-3.1-1.2-4.7-1.9L1390.6,457.2z M1386,455.3
	c-2.6-1.2-5.1-2.7-7.5-4.4L1386,455.3z M1378.5,450.9c-1.3-1-2.6-2-3.8-3.1L1378.5,450.9z M1374.6,447.7c-1.6-1.5-3-3.1-4.3-4.9
	c-1.4-1.9-2.5-3.9-3.4-6.1v-0.1v-0.1c-1.1-2.6-1.7-5.3-2-8.1l2,8.1c0,0,0.1,0.1,0.1,0.1l3.4,6.1L1374.6,447.7z M1364.8,424.9
	l0.1,3.6C1364.8,427.3,1364.7,426.1,1364.8,424.9L1364.8,424.9z M1362.6,394c0.1-1.1,0.2-2.3,0.4-3.4L1362.6,394l0.7,7.6l1.9,5.4
	l3.4,5.5l0,0c-1.3-1.7-2.4-3.6-3.3-5.5c-0.8-1.7-1.5-3.5-1.9-5.4C1362.7,399.1,1362.4,396.6,1362.6,394z M1390,487.8l-4,5.4
	l-5.7,3.8l-4.5,2.5l-4.2,3.5l-2.3-25.4l4.4-3.6l6.4-1.9l5.2,1.2l4.7,3l0.7,5.3L1390,487.8z M1395.2,460.8c-1.6-1-3.1-2.2-4.5-3.5
	L1395.2,460.8l4.4,2.5C1398.1,462.5,1396.6,461.6,1395.2,460.8L1395.2,460.8z M1399.7,463.2l5.2,2.1
	C1403.1,464.7,1401.4,464,1399.7,463.2L1399.7,463.2z"/>
<polygon class="st20" points="1347.4,513.2 1346.3,531.3 1346.2,533.7 1345.4,544.8 1344.5,550.5 1345.6,549.6 1344.5,551.8 
	1344.2,552.5 1344.3,550.7 1344.5,548.5 1344.9,543 1344.9,543 1346.2,528.3 "/>
<polygon class="st20" points="1318.8,597.9 1319.9,597.3 1324.7,596.8 1331.2,593.1 1335.7,589.5 1332.5,597.7 1324.1,599 
	1319.9,598.7 "/>
<polygon points="1225.9,463.3 1222.6,463.7 1222.5,463.7 1221.3,462.3 1220.1,458.3 1220.8,457.1 1223,461.5 1224.8,462.9 
	1225.9,463.3 "/>
<polygon points="1231.3,463.9 1228.6,463.4 1228.6,463.4 1227.6,461.9 1227.3,460.2 1226.8,458.8 1227.5,457.5 1228,456.5 
	1228.1,457.7 1228.1,459.2 1229.9,461.5 1231.3,463.8 "/>
<polygon points="1236.7,465.6 1232.8,464.3 1232.8,464.1 1232.9,462.9 1233,460.9 1233.6,459.9 1234.1,459 1234.2,460.1 
	1234.4,461.7 1235.8,464.5 1236.6,465.5 "/>
<polygon points="1241.1,468.2 1241,468.1 1238.6,466.8 1238.6,466.5 1238.7,465.2 1238.8,463.6 1239.8,462 1240.1,461.5 1240,462.1 
	1239.9,464.2 1240.6,466.9 "/>
<polygon points="1243.3,470.5 1243.3,468.8 1243.3,466.6 1244.9,464.8 1244.9,468.1 1245.7,471.2 1245.7,473 "/>
<polygon points="1301.2,465.2 1301.8,464 1301.8,462.9 1302,461.9 1300.1,460.5 1300.7,462.4 1299.2,464.2 1298.2,466 "/>
<polygon points="1296.7,466.8 1296.3,465.5 1295.6,463.6 1293.9,462 1294.3,464.7 1293.4,467.7 1292.8,469.1 "/>
<polygon points="1291,470.6 1290.5,469.1 1289.9,467.6 1288.1,465.9 1288.9,468.5 1288.9,471.2 1288.6,472.6 "/>
<polygon points="1286.8,475.5 1286.3,473.8 1285.8,471.7 1283.6,470.3 1284.4,473.5 1284.4,476.7 1284.8,478.5 "/>
<polygon class="st18" points="1390.7,481.4 1390,487.8 1386,493.1 1380.3,496.9 1375.8,499.3 1371.6,502.8 1369.3,477.4 
	1373.8,473.9 1380.2,471.9 1385.3,473.1 1390,476.1 "/>
<polyline class="st21" points="1261.3,489.7 1261.3,493.7 1261.3,496.9 1260.4,501 1259.1,504.6 1257.2,508.1 1256.3,511 
	1256.3,513 "/>
<polyline class="st21" points="1256.3,515.7 1257.8,517.1 1259.1,517.1 1261.3,517.1 1264.8,516.4 "/>
<path class="st9" d="M1383.4,97.7c-1.2,0.1-2.5,0.2-3.8,0.2s-2.6,0-3.8-0.2H1383.4z"/>
</svg>
