<svg id="Lag_2" data-name="Lag 2" xmlns="http://www.w3.org/2000/svg" width="400" height="400" viewBox="0 0 400 400"><defs><style>.cls-1{fill:#e5132c;}.cls-2{fill:#d6e4c2;}.cls-3{fill:#f9f6ca;}</style></defs><path class="cls-1" d="M201.62,131.06l-.2-.28c1.91.42,3.82.93,5.71,1.53l-.38.25-2.57,1.93Z"/><path class="cls-1" d="M267.09,216.56c-.69,29.6-92.34,81.29-113.11,88.75s-39.39-105.45-33.46-133.14c2.92-13.61,15.3-26.61,31.65-34.66l1.06.56,8.47,2.2,4.92.82,7.66.85-7.37,3-4.63,3.28-3.55,3.28L156,155.34l-3.81,4.93-3.55,7.38-2.73,5.47H153l6-1.64,8.46-1.37,4.91-.54,6.54-2.46,1.37-3.29,1.91-3.28,3.47-4.1-3.58,5.2-.81,1.64-.76,1.25-.56,1.58-.69,2.07-.44,2.08-.31,2.86-.26,2.87-.18,4,.18,7.17,2.89-2.14,2.32-1.89,2.7-1.76,2.2-2,2.25-2.08,1.76-1.76,1.44-1.83,1.45-2.14,2-3.21,1.57-2.77,1.51-3,1.38-2.58,1.13-2.7.94-3.34v-1.41l.83-2.21v14.22l.39,5.06.57,4,1.25,4.42,2.11,5.77,2.49,4.71,2.3,3.55,2.87,4.16,3.26,3,2.49-3.37,1.54-3.36,1.53-4.23.67-3.46.67-3.46v-13l2.78,4.9,4.6,6.25,7.56,7,5,3.71,7.25,3,7.26,1.64,3-.06A76.83,76.83,0,0,1,267.09,216.56Z"/><polygon class="cls-2" points="284.3 191.71 277.7 193.79 268.66 194.68 264.23 194.77 261.25 194.83 253.99 193.19 246.74 190.22 241.7 186.51 234.14 179.52 229.54 173.27 226.76 168.37 226.76 181.35 226.09 184.81 225.42 188.27 223.89 192.5 222.35 195.86 219.86 199.23 216.6 196.27 213.73 192.11 211.43 188.56 208.94 183.85 206.83 178.08 205.58 173.66 205.01 169.62 204.62 164.56 204.62 150.34 203.79 152.55 203.79 153.96 202.85 157.3 201.72 160 200.34 162.58 198.83 165.6 197.26 168.37 195.26 171.58 193.81 173.72 192.37 175.55 190.61 177.31 188.36 179.39 186.16 181.4 183.46 183.16 181.14 185.05 178.25 187.19 178.07 180.02 178.25 175.99 178.51 173.12 178.82 170.26 179.26 168.18 179.95 166.11 180.51 164.53 181.27 163.28 182.08 161.64 185.66 156.44 182.19 160.54 180.28 163.82 178.91 167.11 172.37 169.57 167.46 170.11 159 171.48 153 173.12 145.91 173.12 148.64 167.65 152.19 160.27 156 155.34 158.73 151.51 162.28 148.23 166.91 144.95 174.28 141.94 166.62 141.09 161.7 140.27 153.23 138.07 152.17 137.51 148.03 135.33 143.39 129.84 140.93 125.18 139.01 118.6 139.01 106.53 145.91 109.41 150.77 114.08 169.91 114.08 178.65 115.72 187.4 118.62 194.78 123.13 198.42 126.56 201.42 130.78 201.62 131.06 204.18 134.49 206.75 132.56 207.13 132.31 214.01 127.84 221.06 123.55 228.75 120.13 236.87 118.62 245.21 119.7 255.89 118.62 264.86 118.62 264.65 121.84 261.87 126.77 258.24 131.27 254.18 136.2 249.48 139.84 245.85 141.94 239.65 143.7 233.67 144.77 239.86 146.27 244.78 148.85 247.98 151.63 252.04 154.63 256.1 158.49 259.73 162.35 265.72 169.64 273.19 178.64 280.25 186.14 284.3 191.71"/><ellipse class="cls-3" cx="138.04" cy="185.64" rx="3.73" ry="1.36" transform="translate(-88.97 230.2) rotate(-64.47)"/><ellipse class="cls-3" cx="156.21" cy="199.23" rx="3.73" ry="1.36" transform="translate(-90.9 254.32) rotate(-64.47)"/><ellipse class="cls-3" cx="178.54" cy="199.23" rx="3.73" ry="1.36" transform="translate(-78.19 274.47) rotate(-64.47)"/><ellipse class="cls-3" cx="136.02" cy="208.88" rx="3.73" ry="1.36" transform="translate(-111.09 241.59) rotate(-64.47)"/><ellipse class="cls-3" cx="159.09" cy="219.52" rx="3.73" ry="1.36" transform="translate(-107.56 268.47) rotate(-64.47)"/><ellipse class="cls-3" cx="140.16" cy="232.99" rx="3.73" ry="1.36" transform="translate(-130.49 259.04) rotate(-64.47)"/><ellipse class="cls-3" cx="178.54" cy="220.87" rx="3.73" ry="1.36" transform="translate(-97.72 286.78) rotate(-64.47)"/><ellipse class="cls-3" cx="164.88" cy="238.18" rx="3.73" ry="1.36" transform="translate(-121.1 284.31) rotate(-64.47)"/><ellipse class="cls-3" cx="145.33" cy="251.62" rx="3.73" ry="1.36" transform="translate(-144.35 274.32) rotate(-64.47)"/><ellipse class="cls-3" cx="157.02" cy="267.14" rx="3.73" ry="1.36" transform="translate(-151.71 293.69) rotate(-64.47)"/><ellipse class="cls-3" cx="142.68" cy="274.65" rx="3.73" ry="1.36" transform="translate(-166.65 285.03) rotate(-64.47)"/><ellipse class="cls-3" cx="152.61" cy="293.56" rx="3.73" ry="1.36" transform="translate(-178.06 304.75) rotate(-64.47)"/><ellipse class="cls-3" cx="170.91" cy="286.37" rx="3.73" ry="1.36" transform="translate(-161.16 317.17) rotate(-64.47)"/><ellipse class="cls-3" cx="172.93" cy="261.54" rx="3.73" ry="1.36" transform="translate(-137.6 304.86) rotate(-64.47)"/><ellipse class="cls-3" cx="193.25" cy="272.39" rx="3.73" ry="1.36" transform="translate(-135.84 329.37) rotate(-64.47)"/><ellipse class="cls-3" cx="189.92" cy="246.39" rx="3.73" ry="1.36" transform="translate(-114.27 311.57) rotate(-64.47)"/><ellipse class="cls-3" cx="214.74" cy="255.04" rx="3.73" ry="1.36" transform="translate(-107.95 338.88) rotate(-64.47)"/><ellipse class="cls-3" cx="203.8" cy="232.52" rx="3.73" ry="1.36" transform="translate(-93.85 316.2) rotate(-64.47)"/><ellipse class="cls-3" cx="232.77" cy="241.6" rx="3.73" ry="1.36" transform="translate(-85.56 347.51) rotate(-64.47)"/><ellipse class="cls-3" cx="201.78" cy="207.64" rx="3.73" ry="1.36" transform="translate(-72.55 300.22) rotate(-64.47)"/><ellipse class="cls-3" cx="224.91" cy="222.94" rx="3.73" ry="1.36" transform="translate(-73.19 329.8) rotate(-64.47)"/><ellipse class="cls-3" cx="237.8" cy="202.65" rx="3.73" ry="1.36" transform="translate(-47.55 329.89) rotate(-64.47)"/><ellipse class="cls-3" cx="248.81" cy="219.52" rx="3.73" ry="1.36" transform="translate(-56.51 349.42) rotate(-64.47)"/><ellipse class="cls-3" cx="134" cy="164.75" rx="3.73" ry="1.36" transform="translate(-72.42 214.66) rotate(-64.47)"/></svg>