<?xml version="1.0" encoding="utf-8"?>
<!-- Generator: Adobe Illustrator 24.2.3, SVG Export Plug-In . SVG Version: 6.00 Build 0)  -->
<svg version="1.1" id="Lag_1" xmlns="http://www.w3.org/2000/svg" xmlns:xlink="http://www.w3.org/1999/xlink" x="0px" y="0px"
	 viewBox="0 0 224 209" style="enable-background:new 0 0 224 209;" xml:space="preserve">
<style type="text/css">
	.st0{fill:#F6BBD5;}
	.st1{fill:#FCFBF9;}
</style>
<g id="Tid_point">
	<path class="st0" d="M109.1,45.5c-33.7,0-61,27.3-61,61s27.3,61,61,61s61-27.3,61-61l0,0C170.1,72.8,142.7,45.5,109.1,45.5z
		 M142.4,140.7l-32.2-26.8l0.1-0.1c-0.9,0.5-2,0.8-3.1,0.8c-3.5,0-6.4-2.9-6.4-6.4c0-2.8,1.8-5.3,4.5-6.1V60.9h3.6v41.2
		c2.7,0.8,4.6,3.3,4.6,6.1c0,1-0.3,2.1-0.8,3l31.9,26.7L142.4,140.7z"/>
	<path class="st1" d="M144.8,137.9l-2.3,2.8l-32.2-26.8l0.1-0.1c-0.9,0.5-2,0.8-3.1,0.8c-3.5,0-6.4-2.9-6.4-6.4
		c0-2.8,1.8-5.3,4.5-6.1V60.9h3.6v41.2c2.7,0.8,4.6,3.3,4.6,6.1c0,1-0.3,2.1-0.8,3L144.8,137.9z"/>
</g>
</svg>
