<?xml version="1.0" encoding="utf-8"?>
<!-- Generator: Adobe Illustrator 24.2.3, SVG Export Plug-In . SVG Version: 6.00 Build 0)  -->
<svg version="1.1" id="Lag_1" xmlns="http://www.w3.org/2000/svg" xmlns:xlink="http://www.w3.org/1999/xlink" x="0px" y="0px"
	 viewBox="0 0 137.4 141" style="enable-background:new 0 0 137.4 141;" xml:space="preserve">
<style type="text/css">
	.st0{fill:#CC6289;}
	.st1{fill:#FFFFFF;}
	.st2{fill:#F6BBD5;}
</style>
<g id="Tid_point">
	<path class="st0" d="M-225.5,15.5c-33.7,0-61,27.3-61,61s27.3,61,61,61s61-27.3,61-61l0,0C-164.5,42.8-191.9,15.5-225.5,15.5z
		 M-192.2,110.7l-32.2-26.8l0.1-0.1c-0.9,0.5-2,0.8-3.1,0.8c-3.5,0-6.4-2.9-6.4-6.4c0-2.8,1.8-5.3,4.5-6.1V30.9h3.6v41.2
		c2.7,0.8,4.6,3.3,4.6,6.1c0,1-0.3,2.1-0.8,3l31.9,26.7L-192.2,110.7z"/>
	<path class="st1" d="M-189.8,107.9l-2.3,2.8l-32.2-26.8l0.1-0.1c-0.9,0.5-2,0.8-3.1,0.8c-3.5,0-6.4-2.9-6.4-6.4
		c0-2.8,1.8-5.3,4.5-6.1V30.9h3.6v41.2c2.7,0.8,4.6,3.3,4.6,6.1c0,1-0.3,2.1-0.8,3L-189.8,107.9z"/>
</g>
<g id="Tid_point_1_">
	<path class="st0" d="M68.7,9.8c-33.7,0-61,27.3-61,61s27.3,61,61,61s61-27.3,61-61l0,0C129.7,37.1,102.3,9.8,68.7,9.8z"/>
</g>
<g id="Tid_point_2_">
	<path class="st2" d="M68.7,16.4c-30.1,0-54.4,24.4-54.4,54.4s24.4,54.4,54.4,54.4s54.4-24.4,54.4-54.4l0,0
		C123.1,40.7,98.7,16.4,68.7,16.4z"/>
</g>
<circle class="st1" cx="68.7" cy="70.5" r="8.1"/>
<rect x="66.5" y="19.9" class="st1" width="4.4" height="50.9"/>
</svg>
