<svg xmlns="http://www.w3.org/2000/svg" width="224" height="209" viewBox="0 0 224 209"><defs><style>.cls-1{fill:#f2d7de;}.cls-2{fill:#fff;}</style></defs><g id="Tid_point" data-name="Tid + point"><path class="cls-1" d="M109.06,45.45a61,61,0,1,0,61,61A61,61,0,0,0,109.06,45.45Zm33.39,95.29L110.29,113.9l.07-.09a6.24,6.24,0,0,1-3.12.83,6.37,6.37,0,0,1-1.82-12.47V60.93h3.64v41.24a6.36,6.36,0,0,1,4.55,6.1,6.29,6.29,0,0,1-.76,3l31.93,26.65Z"/><path class="cls-2" d="M144.78,137.94l-2.33,2.8L110.29,113.9l.07-.09a6.24,6.24,0,0,1-3.12.83,6.37,6.37,0,0,1-1.82-12.47V60.93h3.64v41.24a6.36,6.36,0,0,1,4.55,6.1,6.29,6.29,0,0,1-.76,3Z"/></g></svg>