<svg xmlns="http://www.w3.org/2000/svg" width="400" height="400" viewBox="0 0 400 400"><defs><style>.cls-1{fill:#c40a2a;}.cls-2{fill:#fff;}.cls-3{fill:#04561d;}.cls-4{fill:#53681f;}</style></defs><g id="Lag_11" data-name="Lag 11"><ellipse class="cls-1" cx="206.32" cy="230.11" rx="98.45" ry="82.98"/><path class="cls-2" d="M227,195s7.43-9.28,27.29,1.33,18,22.88,18,22.88c3.23-7.5-4.31-19-16.83-25.68S230.21,187.51,227,195Z"/><polygon class="cls-3" points="190.35 170.96 183.15 166.59 178.14 164.2 171.16 156.78 166.36 150.02 159.38 143.92 155.02 140.21 146.74 139.12 141.07 139.12 135.18 145.01 140.63 144.13 146.3 143.92 152.41 145.66 158.07 151.99 164.18 158.75 171.16 167.03 182.06 175.75 195.8 181.64 192.09 184.91 184.24 188.62 173.56 187.75 164.4 184.69 158.07 179.9 149.13 173.57 153.28 181.86 162.44 190.36 170.5 194.29 180.32 196.47 191.66 194.72 200.81 192.33 205.18 191.67 210.84 192.76 217.6 195.16 224.36 198 230.47 201.27 234.61 206.94 242.9 217.62 241.16 206.06 237.01 198 233.31 193.85 225.24 188.18 217.82 184.69 226.98 184.04 233.96 183.38 242.03 182.51 249.44 182.51 256.64 182.51 260.56 183.38 255.33 178.37 248.79 178.37 243.55 176.63 238.1 175.97 230.25 176.63 223.93 178.37 218.69 178.37 225.46 170.74 235.05 162.23 242.68 155.04 246.61 146.32 249.88 134.76 250.97 127.56 250.75 121.67 248.79 116.66 246.61 114.48 246.82 119.93 245.95 127.34 244.86 133.23 243.12 137.59 240.5 142.39 236.57 147.84 229.6 152.64 224.8 156.78 221.53 160.27 219.13 164.2 216.51 168.34 212.59 170.3 212.37 166.05 212.81 155.69 214.12 148.28 212.37 135.63 211.5 126.04 210.63 117.1 208.66 105.76 207.14 95.07 204.09 102.05 203 108.59 203.21 114.92 203.65 123.86 204.52 130.62 205.61 138.47 207.36 143.26 206.27 149.37 204.3 154.82 202.78 161.14 203 168.12 206.05 174.66 207.57 177.5 208.88 180.55 202.34 183.17 199.72 178.59 195.36 167.9 191.44 159.4 187.08 151.55 184.02 146.75 182.72 154.82 183.15 159.84 185.33 164.2 190.35 170.96"/><polygon class="cls-4" points="202.34 183.17 208.88 180.55 203 168.12 202.78 161.14 190.59 138.56 190.59 143.44 187.88 145.06 184.02 146.75 196.45 170.57 202.34 183.17"/><ellipse class="cls-3" cx="187.42" cy="142.91" rx="5.16" ry="2.81" transform="translate(-47.43 162.71) rotate(-42.14)"/></g></svg>