<svg xmlns="http://www.w3.org/2000/svg" width="563" height="357" viewBox="0 0 563 357"><defs><style>.cls-1{fill:#fff;stroke:#f6bbd5;stroke-miterlimit:10;stroke-width:25px;}.cls-2{fill:#f6bbd5;}</style></defs><g id="Winner"><rect class="cls-1" x="83.5" y="83.5" width="390" height="178" rx="54.53"/><path class="cls-2" d="M144,142.89c-6.12.21-10.51-2-11.63-5.81-.3-.92.1-1.43,1.12-1.33,9.08.72,26-3.06,31.83-2.85,4.28.1,8.16,1.22,9.69,5.2.31.82.1,1.63-1.23,1.53-5-.51-11.42.51-17.34,1.53.11,2.45-.61,5.81-3.36,10.81C147,163.09,138.3,177.37,130.34,196c-.41,1-.92,1-1.63.31-1.43-1.33-2.65-4.39-1.33-9.29,2.35-8.36,13.37-30.5,22.85-44.88A51.82,51.82,0,0,1,144,142.89Z"/><path class="cls-2" d="M175.22,158.81c1.23-.82,2-1,2.76-.21,1.94,2.15,4.38,6.63,1.42,10-4.59,5.2-9.58,11.63-11.22,16.93s-.4,9.29,2.55,9.39c4,.2,8.88-6.12,12.14-13.47.41-.81,1-.92,1.43-.1.51,1.12.61,3.57-.51,6.32-2.35,5.92-8.26,10.21-13.67,10-7.34-.3-10.3-7-7.75-14.69,2.24-6.73,8.16-14,12.24-18.66a22.22,22.22,0,0,1-11.93,3.87c-3.88,7.14-13.67,21.63-15.61,30.91-.2.92-.82,1.43-1.74.51-3-3.06-3-7.75-.2-13,2.35-4.49,9.18-14.08,13-19.49-5.82-3.77,3.06-15.81,6.83-15.91,3.16-.1,2.35,5.81-.2,12.24C168,163.09,171.45,161.46,175.22,158.81Z"/><path class="cls-2" d="M201.84,199.51c-5.71,13.67-13,30.09-21.42,33.35-1.94.72-3.88.72-5.81-2.14-2-3.06-4.08-6.63-2-12.65,3.06-9.18,11.73-15.3,21.83-19.28,1-2.34,2-4.89,3.16-7.34-3.16,3.26-7,5.92-11.12,5.61-7.35-.61-7.55-8.06-5.2-14.79a108.64,108.64,0,0,1,13.87-25.81,1.41,1.41,0,0,1,2.55,0c2.45,3.27,1.84,7.55-1.94,13.57a93.28,93.28,0,0,0-7.85,14.89c-2,5-1.84,8.57.51,8.77,4,.31,9.08-6.22,14.28-15.09,4.38-7.55,8.77-16.73,12.34-21.93.92-1.33,1.63-1.53,2.55-.72,1.43,1.84,2.24,6.22-.41,11.43-3.06,5.91-9.28,18.15-13.56,28.05a54.42,54.42,0,0,0,18-15.71c.51-.72,1.43-.82,1.63.2s-.1,3.27-1.83,5.92C217.45,192.16,210.31,196,201.84,199.51Zm-25.19,27.74c1.32,1.94,9.69-9.18,16-24.17C179.4,210.73,174.81,224.7,176.65,227.25Z"/><path class="cls-2" d="M254.37,181.35A160.79,160.79,0,0,0,246.62,196a1,1,0,0,1-1.84.2c-1.22-1.63-1.63-4.69.51-10.4a54.37,54.37,0,0,1,2.76-5.82,7.21,7.21,0,0,1-3.37-3.46c-.51-1.33-.31-1.74,1.22-1.53s3,.4,4.59.51c8-13.88,22.14-34.07,32.95-42.95,1.63-1.32,2.65-1.32,3.67.1a13.82,13.82,0,0,1,2.35,4.19,9.87,9.87,0,0,1,0,7.44A213.46,213.46,0,0,0,282,174a6.33,6.33,0,0,1,4.59,5.2c.21.92-.2,1.22-1.12.92a24.1,24.1,0,0,0-4.38-.62c-.72,5.31-1.33,10.92-1.53,16.32,0,1-.62,1.33-1.53.92-2-.92-3.68-3.46-3.78-9.28,0-2,.1-4.69.41-7.75C267.43,180.23,259.16,181.45,254.37,181.35Zm21.11-7.85C277,162.89,279.87,150,283,142.08a274.53,274.53,0,0,0-24.78,33.15C264.47,174.72,270.69,173.6,275.48,173.5Z"/><path class="cls-2" d="M310.37,199.92c-5.61,13.66-12.85,29.88-21.12,33.15-2,.81-4.08.51-5.91-2.15-2.15-3-4-6.63-2-12.64,2.95-9.18,11.73-15.41,21.83-19.28,1-2.25,1.93-4.69,2.95-7-2.95,3-6.52,5.1-10.3,5.1-9.38,0-11.22-12.75-3-25,8-11.83,16.22-16.42,21.42-16.42,4.08,0,6.12,3.16,6,6.73,1.23-2,2.35-3.88,3.37-5.61.81-1.43,1.83-1.53,2.55-.61,1.53,1.83,2.34,6.22-.21,11.22-3.06,6.12-9.48,18.46-13.77,28.35a50.79,50.79,0,0,0,18.26-15.3c.61-.81,1.53-.81,1.74.21s-.31,3.16-2,5.91C326.18,192.78,318.83,196.86,310.37,199.92Zm-25,27.43c1.32,1.94,9.38-8.67,16-24.17C288.13,210.93,283.64,224.91,285.38,227.35Zm30.39-66.5c-3.16-.21-10.6,6.32-16.21,15.2s-6.63,17.74-2.55,17.85,9.18-6.33,14.38-15.3C317.81,167.38,318.73,161.05,315.77,160.85Z"/><path class="cls-2" d="M365.45,156.36c.91-1.33,1.73-1.53,2.45-.61,1.53,1.83,2.34,6.22-.11,11.32-2.24,4.59-7.34,12.24-9.79,17.65-2.55,5.71-2.65,10.1.82,9.89,4.18-.2,9.79-7.14,13.36-14.18.51-.92,1.22-1,1.63-.1s.41,3.47-.92,6.33c-2.65,5.61-9.08,11.22-14.69,10.91s-8.36-3.57-8.36-8.36c-3.26,4.18-7.85,7.95-12.75,7.95-9.49,0-11.43-12.95-3-25.3,8.26-12,16.32-16.62,21.42-16.62,4.39,0,6.43,3.36,6.22,7.34A70.49,70.49,0,0,1,365.45,156.36Zm-8.16,4.18c-3.27-.3-10.71,6.33-16.32,15.4-5.41,8.78-6.74,17.75-2.76,17.85,4.18.11,9.49-6.42,14.69-15.4C359.33,167.17,360.24,160.85,357.29,160.54Z"/><path class="cls-2" d="M370.44,182.37c2.55-7.45,9.29-19.48,13.06-24.79.92-1.22,1.63-1.53,2.45-.61,1.53,1.63,2.34,6-.1,11.12-2.15,4.49-6.43,11.42-8.57,16.53-2.45,5.91-2.25,9.89,1,9.69,4.59-.21,10.2-6.94,13.26-14,.51-.92,1.22-.82,1.63,0,.82,1.63.51,3.77-.71,6.33-3.06,6.32-9.49,10.6-15.2,10.6C369.52,197.26,367.59,190.74,370.44,182.37Zm22.75-26.62c-1.33,1.43-4.18,1.12-5.71-1.53a6.34,6.34,0,0,1,.51-7.55c1.63-1.74,4.59-.51,5.91,2.24A6.15,6.15,0,0,1,393.19,155.75Z"/><path class="cls-2" d="M422,155.75c3.37.51,6.53,5.51,4,10.81-2.14,4.49-7.14,12-9.49,17.34-2.65,5.92-2,10.71,1.64,10.51,4.18-.21,9.18-6.94,13.05-14.08.51-.92,1.23-.92,1.74-.1.71,1.12.51,3.47-.92,6.43-2.75,5.71-9.18,10.91-15.1,10.91-8.67,0-10.71-6.32-7.75-15.2,3.37-10,12.34-20.81,10.51-21.62-1-.41-6.94,2.44-13.47,9.58-6,6.53-10.5,16.33-14.89,25.91-.41.92-1,1.33-1.94.41-2-2-2.65-5.4-1-10.51,2-6.42,9.9-20.6,16.32-30.09.72-1.12,1.53-1,2.14,0,1.53,2.55,1.43,6,.31,9.69C411.65,160.85,418.59,155.24,422,155.75Z"/></g></svg>