<svg xmlns="http://www.w3.org/2000/svg" width="559" height="348" viewBox="0 0 559 348"><defs><style>.cls-1{fill:#d6e4c2;stroke:#fff;stroke-miterlimit:10;stroke-width:21px;}</style></defs><g id="Game_over" data-name="Game over"><rect class="cls-1" x="75.5" y="77.5" width="390" height="178" rx="54.53"/><path d="M141.82,132.38c-6.12.21-10.51-2-11.63-5.81-.31-.92.1-1.43,1.12-1.33,9.08.72,26-3.06,31.83-2.85,4.28.1,8.16,1.22,9.69,5.2.3.82.1,1.63-1.23,1.53-5-.51-11.42.51-17.34,1.53.1,2.45-.61,5.81-3.36,10.81-6.12,11.12-14.79,25.4-22.75,44.07-.41,1-.92,1-1.63.3-1.43-1.32-2.65-4.38-1.33-9.28,2.35-8.36,13.36-30.5,22.85-44.88A52.28,52.28,0,0,1,141.82,132.38Z"/><path d="M173,148.3c1.23-.82,2-1,2.76-.21,1.93,2.15,4.38,6.63,1.42,10-4.59,5.2-9.59,11.63-11.22,16.93s-.41,9.28,2.55,9.39c4,.2,8.88-6.12,12.14-13.47.41-.81,1-.92,1.43-.1.51,1.12.61,3.57-.51,6.32-2.35,5.92-8.26,10.21-13.67,10-7.34-.31-10.3-7-7.75-14.69,2.24-6.73,8.16-14,12.24-18.67a22.19,22.19,0,0,1-11.94,3.88c-3.87,7.14-13.66,21.63-15.6,30.91-.21.92-.82,1.43-1.74.51-2.95-3.06-2.95-7.75-.2-13,2.35-4.48,9.18-14.07,12.95-19.48-5.81-3.77,3.06-15.81,6.84-15.91,3.16-.1,2.34,5.81-.21,12.24C165.79,152.58,169.26,151,173,148.3Z"/><path d="M199.65,189c-5.71,13.67-13,30.09-21.42,33.35-1.94.72-3.88.72-5.81-2.14-2-3.06-4.09-6.63-2-12.65,3.06-9.18,11.73-15.3,21.82-19.28,1-2.34,2-4.89,3.17-7.34-3.17,3.26-7,5.91-11.12,5.61-7.35-.61-7.55-8.06-5.2-14.79A108.64,108.64,0,0,1,192.92,146a1.41,1.41,0,0,1,2.55,0c2.45,3.26,1.83,7.55-1.94,13.57a92.47,92.47,0,0,0-7.85,14.89c-2,5-1.84,8.57.51,8.77,4,.31,9.07-6.22,14.28-15.09,4.38-7.55,8.77-16.73,12.34-21.94.92-1.32,1.63-1.53,2.55-.71,1.43,1.84,2.24,6.22-.41,11.43-3.06,5.91-9.28,18.15-13.57,28a54.36,54.36,0,0,0,18.06-15.71c.51-.72,1.43-.82,1.63.2s-.1,3.27-1.84,5.92C215.26,181.65,208.12,185.53,199.65,189Zm-25.19,27.74c1.32,1.94,9.69-9.18,16-24.17C177.21,200.22,172.62,214.19,174.46,216.74Z"/><path d="M252.18,170.84a160.79,160.79,0,0,0-7.75,14.69,1,1,0,0,1-1.84.2c-1.22-1.63-1.63-4.69.51-10.4a56,56,0,0,1,2.75-5.82,7.17,7.17,0,0,1-3.36-3.46c-.51-1.33-.31-1.74,1.22-1.53s3,.4,4.59.51c8-13.88,22.14-34.07,32.95-42.95,1.63-1.32,2.65-1.32,3.67.1a13.82,13.82,0,0,1,2.35,4.19,9.87,9.87,0,0,1,0,7.44,213.46,213.46,0,0,0-7.45,29.69,6.34,6.34,0,0,1,4.59,5.2c.21.92-.2,1.22-1.12.92a24.09,24.09,0,0,0-4.39-.62c-.71,5.31-1.32,10.92-1.53,16.32,0,1-.61,1.33-1.53.92-2-.92-3.67-3.47-3.77-9.28,0-2,.1-4.69.41-7.75C265.24,169.72,257,170.94,252.18,170.84ZM273.29,163c1.53-10.61,4.39-23.47,7.55-31.42a274.53,274.53,0,0,0-24.78,33.15C262.28,164.21,268.5,163.09,273.29,163Z"/><path d="M308.18,189.41c-5.61,13.66-12.86,29.88-21.12,33.15-2,.81-4.08.51-5.91-2.15-2.15-3.06-4-6.63-2-12.64,3-9.19,11.74-15.41,21.83-19.28,1-2.25,1.94-4.7,3-7-3,3-6.53,5.1-10.3,5.1-9.38,0-11.22-12.75-3-25,8-11.84,16.22-16.43,21.42-16.43,4.08,0,6.12,3.17,6,6.74,1.23-2,2.35-3.88,3.37-5.61.81-1.43,1.83-1.53,2.55-.62,1.53,1.84,2.34,6.23-.21,11.23-3.06,6.12-9.48,18.46-13.77,28.35a50.79,50.79,0,0,0,18.26-15.3c.61-.81,1.53-.81,1.74.21s-.31,3.16-2,5.91C324,182.26,316.64,186.34,308.18,189.41Zm-25,27.43c1.32,1.94,9.38-8.67,16-24.17C285.94,200.42,281.45,214.4,283.19,216.84Zm30.39-66.5c-3.16-.21-10.61,6.32-16.22,15.2s-6.63,17.74-2.55,17.85,9.18-6.33,14.39-15.3C315.62,156.87,316.54,150.54,313.58,150.34Z"/><path d="M363.26,145.85c.91-1.33,1.73-1.53,2.44-.61,1.53,1.83,2.35,6.22-.1,11.32-2.24,4.59-7.34,12.24-9.79,17.65-2.55,5.71-2.65,10.09.82,9.89,4.18-.2,9.79-7.14,13.36-14.18.51-.92,1.22-1,1.63-.1s.41,3.47-.92,6.32c-2.65,5.61-9.08,11.23-14.69,10.92s-8.36-3.57-8.36-8.37c-3.27,4.19-7.86,8-12.75,8-9.49,0-11.43-13-3-25.3,8.26-12,16.32-16.62,21.42-16.62,4.39,0,6.43,3.36,6.22,7.34A70.49,70.49,0,0,1,363.26,145.85ZM355.1,150c-3.27-.31-10.72,6.33-16.33,15.4-5.4,8.78-6.73,17.75-2.75,17.85,4.18.11,9.49-6.42,14.69-15.4C357.14,156.66,358.05,150.34,355.1,150Z"/><path d="M368.25,171.86c2.55-7.45,9.28-19.48,13.06-24.79.92-1.22,1.63-1.53,2.45-.61,1.53,1.63,2.34,6-.11,11.12-2.14,4.49-6.42,11.42-8.56,16.52-2.45,5.92-2.25,9.9,1,9.69,4.59-.2,10.2-6.93,13.26-14,.51-.92,1.22-.82,1.63,0,.81,1.63.51,3.77-.72,6.32-3.06,6.33-9.48,10.61-15.19,10.61C367.33,186.75,365.4,180.22,368.25,171.86ZM391,145.24c-1.33,1.43-4.18,1.12-5.71-1.53a6.31,6.31,0,0,1,.51-7.55c1.63-1.74,4.59-.51,5.91,2.24A6.18,6.18,0,0,1,391,145.24Z"/><path d="M419.76,145.24c3.37.51,6.53,5.51,4,10.81-2.14,4.49-7.14,12-9.49,17.34-2.65,5.92-2,10.71,1.64,10.51,4.18-.21,9.18-6.94,13.05-14.08.51-.92,1.23-.92,1.74-.1.71,1.12.51,3.47-.92,6.42-2.76,5.72-9.18,10.92-15.1,10.92-8.67,0-10.71-6.33-7.75-15.2,3.37-10,12.34-20.81,10.51-21.62-1-.41-6.94,2.44-13.47,9.58-6,6.53-10.51,16.32-14.89,25.91-.41.92-1,1.33-1.94.41-2-2-2.65-5.41-1-10.51,2-6.42,9.89-20.6,16.32-30.09.72-1.12,1.53-1,2.14,0,1.53,2.55,1.43,6,.31,9.69C409.46,150.34,416.4,144.73,419.76,145.24Z"/></g></svg>