<svg xmlns="http://www.w3.org/2000/svg" width="1498" height="994" viewBox="0 0 1498 994"><defs><style>.cls-1{fill:#e9e5f3;}.cls-2{fill:#f6bbd5;}.cls-3{fill:#f9f6ca;}.cls-4{fill:#fcf6ce;}.cls-5{fill:#fcfbf9;}.cls-6{fill:#f0e9e7;}.cls-7{fill:#fff;}.cls-8{fill:#e22951;}.cls-9{fill:#d6e4c2;}.cls-10{fill:#f7daea;}.cls-11{fill:#fcd8bc;}.cls-12{fill:#d2e8f3;}.cls-13{fill:#edcbc4;}.cls-14{fill:#dbeff6;}.cls-15{fill:#e6dbee;}.cls-16{fill:none;stroke:#efcbb4;stroke-miterlimit:10;}</style></defs><g id="Lag_16" data-name="Lag 16"><rect class="cls-1" x="105.22" y="63.82" width="1277" height="849" rx="89.07"/><path class="cls-2" d="M352.29,696.08c7.72,4.87,12.49,11.6,12.49,19,0,7-4.17,13.31-11,18.08,27.9,9.13,51.06,30.24,59.17,51.48,11.23,29.4-76.34,33.72-96.43,33.12s-99.06-11-75.65-41.52c17-22.11,29.09-35.91,50.32-42.78-7.13-4.8-11.5-11.27-11.5-18.38,0-8.33,6-15.77,15.42-20.71-56.08-20.41-70-89-87-188.34-9.88-57.76-17-99.12-3.19-123.64C225,399.68,277.69,396,300,395.46c23-.53,109.23.92,138.87-17.94,19.76,10.06,14.65,30.22,10.94,84.89C443.82,550,414.17,671.47,352.29,696.08Z"/><path class="cls-3" d="M269.46,325.59c2.67.14,5.31.34,7.88.61C274.63,326.05,272,325.86,269.46,325.59Z"/><path class="cls-3" d="M377.25,321.88a132.11,132.11,0,0,1-19,3.66C364.55,324.23,371,323,377.25,321.88Z"/><path class="cls-4" d="M269.46,325.59c2.67.14,5.31.34,7.88.61C274.63,326.05,272,325.86,269.46,325.59Z"/><path class="cls-4" d="M377.25,321.88a132.11,132.11,0,0,1-19,3.66C364.55,324.23,371,323,377.25,321.88Z"/><path class="cls-5" d="M436.84,350.54c5.11-5.21,6.07-11.25.87-18.09-4.24-5.59-10-9.07-16.85-11,1.93-1.2,2.93-2.5,2.75-3.88-.6-4.64-11.33-8.68-25.65-12-.75-6.2-8.43-13.86-26.9-23.11-66.22-33.16-1.92-49.26-50.54-36.5-47.62,12.52-79.9,39.41-79.63,62.18-20,5.68-34,13.28-29,22.74a14.39,14.39,0,0,0,3,3.87c-8.28,4.66-13.55,11.21-13.55,20-3.16,2.84-4.79,6.87-4.37,12.47a21.6,21.6,0,0,0,7.92,15.23C225,399.68,277.69,396,300,395.46c23-.53,109.23.92,138.87-17.94,5.59-3.55,9.17-7.83,9.92-13C449.71,357.9,445.08,353.43,436.84,350.54Zm-167.38-25c2.67.14,5.31.34,7.88.61C274.63,326.05,272,325.86,269.46,325.59Zm88.79,0c6.3-1.31,12.7-2.58,19-3.66A132.11,132.11,0,0,1,358.25,325.54Z"/><path class="cls-5" d="M269.46,325.59c2.67.14,5.31.34,7.88.61C274.63,326.05,272,325.86,269.46,325.59Z"/><path class="cls-5" d="M377.25,321.88a132.11,132.11,0,0,1-19,3.66C364.55,324.23,371,323,377.25,321.88Z"/><polygon class="cls-2" points="269.46 318.31 250.78 326.2 184.31 191.84 202.98 183.95 269.46 318.31"/><ellipse class="cls-6" cx="193.56" cy="187.72" rx="10.09" ry="1.93" transform="matrix(0.92, -0.39, 0.39, 0.92, -57.6, 89.61)"/><path class="cls-5" d="M270.18,438.72c.3-3.13-14.41-10.15-30.17-11.44s-35.86,2.13-36.16,5.27,20.05-3.06,35.82-1.77S269.88,441.86,270.18,438.72Z"/><path class="cls-5" d="M365.55,440.54c0-3.06-18.68-8.51-37.87-8.33s-43,5.3-43,8.36,23.83-4.77,43-4.95S365.58,443.59,365.55,440.54Z"/><path class="cls-5" d="M448.05,432.61c-.3-2.72-17-6.19-33.67-4.61s-36.92,7.91-36.61,10.63,20.28-6,37-7.6S448.35,435.34,448.05,432.61Z"/><path class="cls-5" d="M287.31,581.6c9.31,48.52,29.15,94,27.86,94.26s-20.73-37.19-30-85.71-16.08-112.59-14.78-112.8S278,533.08,287.31,581.6Z"/><path class="cls-5" d="M368.7,571c-6.43,48.92-26,95.11-24.42,95.29s21.53-37.84,28-86.76,8.18-113.37,6.58-113.55S375.14,522.11,368.7,571Z"/><path class="cls-5" d="M348.81,736c0,1.69-11.23,5-22.92,5.11s-26.27-2.32-26.29-4,14.57,2.3,26.26,2.13S348.79,734.35,348.81,736Z"/><path class="cls-5" d="M348.81,696.45c0,1.69-11.23,4.94-22.92,5.11s-26.27-2.33-26.29-4,14.57,2.3,26.26,2.13S348.79,694.77,348.81,696.45Z"/><path class="cls-5" d="M388.1,791.71c0,1.79-28.6,13-59.07,13.48S259.8,795.74,259.77,794s37.76,7.37,68.23,6.94S388.07,789.93,388.1,791.71Z"/><path class="cls-7" d="M537.32,161.88c-.66-1.82-.49-2.81,1.65-3.14,11.39-1.48,19.64-8.08,30.36-9.73,10.56-1.65,18.81,3.79,24.92,14.52,15.17,26.39-14.19,74.57-58.41,89.26-4.79,1.65-7.76,1.15-10.56-1.16a35.49,35.49,0,0,1-6.93-7.09c-3.14-4.29-4-6.77-.5-17.49,5.12-15.51,18.81-41.25,30.2-58.25C541.61,168.47,538.31,164.35,537.32,161.88Zm15.18,22.6c-8.25,14.68-21.61,36.63-26.4,51.81-2.14,6.93-1,9.24,4,7.42,45.05-17.16,65.84-64.34,56.1-79.85-5.77-9.24-17.82-.5-29.37,3.3C557.62,171.28,556.63,177.22,552.5,184.48Z"/><path class="cls-7" d="M600,253.61c-11.71-.82-12-13-8.41-23.92s12-27.06,22.77-42.08c1.32-1.81,3-1.65,4.29-.16,3.63,5.44,2.8,12.87-3.14,22.27A170.22,170.22,0,0,0,602.66,234c-3.46,8.08-3,14,.83,14.35,6.43.5,15.51-11.05,24.42-25.41,10.39-16.83,15.18-28.21,20.46-35.31,1.65-2.31,2.8-2.64,4.12-1,2.48,3,3.8,10.23-.16,18.48-3.63,7.43-11.88,19.8-15.68,28.22-4.29,9.4-3.63,16.33,2.31,16,6.93-.33,15.35-11.22,21.78-22.77.83-1.48,2.31-1.65,3-.16.66,1.32.83,5.77-1.48,10.39-4.79,9.24-15,17.66-24.75,17.66-10.73,0-15-6.77-13.7-16.34C618,245.86,609.26,254.27,600,253.61Z"/><path class="cls-7" d="M776.24,151c1.65-1.82,3.3-1.49,3.79.82,1.16,5.78-1,12.71-9.07,23.43-11.72,15.51-38,47.85-57.26,77.88-1.15,1.81-2.31,2.47-4.62.82-6.1-4.62-8.74-10.56-7.42-22.11,2.8-25.57,11.05-64,17-79.85,1-2.48,2.15-2.81,3.63-1,3.8,4.45,4.46,10.55,1.65,23.26-3.46,15.84-8.91,39.1-13,64.35C726.74,212,761.55,166.33,776.24,151Z"/><path class="cls-7" d="M805.77,187.78q2.24-3.22,4-1c2.48,3,3.8,10.06-.16,18.31-3.63,7.43-11.88,19.8-15.84,28.55-4.13,9.24-4.29,16.33,1.32,16,6.76-.33,15.84-11.55,21.61-22.93.83-1.49,2-1.65,2.64-.17s.66,5.61-1.48,10.23c-4.29,9.08-14.69,18.15-23.76,17.66-8.91-.5-13.53-5.78-13.53-13.53-5.28,6.76-12.71,12.87-20.63,12.87-15.34,0-18.48-21-4.78-40.92,13.36-19.47,26.4-26.9,34.65-26.9,7.09,0,10.39,5.45,10.06,11.88C802,193.88,804,190.42,805.77,187.78Zm-13.2,6.76c-5.28-.49-17.32,10.23-26.4,24.92-8.74,14.19-10.89,28.71-4.45,28.87,6.76.17,15.34-10.39,23.76-24.91C795.87,205.27,797.36,195,792.57,194.54Z"/><path class="cls-7" d="M864,186.79c5.44.82,10.56,8.91,6.43,17.49-3.46,7.26-11.55,19.47-15.34,28.05-4.29,9.57-3.3,17.32,2.64,17,6.76-.33,14.85-11.22,21.12-22.77.82-1.48,2-1.48,2.8-.16,1.16,1.81.83,5.61-1.48,10.39-4.46,9.24-14.85,17.66-24.42,17.66-14,0-17.33-10.23-12.54-24.59,5.44-16.17,20-33.66,17-35-1.65-.66-11.22,4-21.78,15.51-9.73,10.56-17,26.4-24.09,41.91-.66,1.49-1.65,2.15-3.13.66-3.3-3.3-4.29-8.74-1.65-17,3.3-10.4,16-33.33,26.4-48.68,1.15-1.81,2.47-1.65,3.46,0,2.48,4.13,2.31,9.74.5,15.68C847.35,195,858.57,186,864,186.79Z"/><path class="cls-7" d="M923.58,249.65c6.76-.33,15.67-11.38,21.45-22.77.82-1.48,2-1.48,2.64-.16.66,1.48.82,5.77-1.32,10.23-4.46,9.07-14.69,17.82-23.76,17.32-8.91-.49-13.36-5.44-13.36-13.2-5.28,6.6-12.71,12.71-20.46,12.71-15.35,0-18.32-21-4.79-40.76,13-19.14,26.24-26.56,34.48-26.56,6.77,0,10.07,5.11,9.9,11.22,8.91-17,21.45-39.43,27.39-47.85,1.65-2.31,3.14-2.14,4,0,2.31,5.45,1.82,12.54-5.11,24.92-7.92,14.18-23.76,41.41-32,58.9C918.13,243.22,918,250,923.58,249.65Zm-28.71-30c-8.91,14.19-10.72,28.55-4.29,28.71,6.6.17,15.51-9.57,23.27-24.58,9.57-18.32,12-28.71,7.25-28.88C916,194.71,904,205.1,894.87,219.62Z"/><path class="cls-7" d="M953,183c-1.65-2.31-.66-3.46,1.81-3.29a95.57,95.57,0,0,0,13.7-.66c5.11-9.08,9.73-16.83,12.54-20.46,1.48-2.15,3.13-2,4,0,1.81,4.62,1.81,10.06-2.15,18.64,6.44-.17,8.91,2.81,10.23,4.95,1.16,2,.5,3.13-2,3.13-3.63-.49-8.74,0-12.87.66C971.76,197,962.35,213,956.08,226.88c-5.44,12.05-3.63,22.28,3.3,22.61,7.43.33,16.83-11.39,22.94-23.76,1-2,2.8-2.31,3.46,0,.83,2.64,0,5.61-1.65,9.4-2.14,4.79-13,19.31-26.23,18.81-10.89-.33-19.64-12.54-11.72-31.51,3.47-8.25,10.4-22.11,17.49-35.15C958.06,187.28,954.27,184.81,953,183Z"/><path class="cls-7" d="M998.82,253.45c-2,2.47-6.77,1.48-9.08-2.31a10,10,0,0,1,.83-12c2.47-2.64,7.26-.82,9.4,3.8A10.64,10.64,0,0,1,998.82,253.45Zm42.4-103.12c2.15,4.62,1.82,12.7-5,24.91-9.07,16.33-22.93,42.24-31.35,60.55-.82,1.65-1.48,2-2.8.66-2.48-2.64-4.13-8.08-.5-18,6.6-17.66,23.1-50.33,35.48-68.47C1038.42,148,1040.23,148,1041.22,150.33Z"/><path class="cls-7" d="M534.45,344.54q-1.8,2.67-5.78,2.67a6.82,6.82,0,0,1-4.71-1.59,8.13,8.13,0,0,1-2.44-4.22l3-1.2a6,6,0,0,0,1.37,2.76,3.51,3.51,0,0,0,2.76,1.18,3.36,3.36,0,0,0,3.38-2,13.81,13.81,0,0,0,.89-5.52V312.41h3.36v24.67Q536.25,341.88,534.45,344.54Z"/><path class="cls-7" d="M546.57,322.58v15.36a21.3,21.3,0,0,0,.12,2.24,7,7,0,0,0,.53,2.06,4.12,4.12,0,0,0,1.13,1.54,3,3,0,0,0,2,.6,3.65,3.65,0,0,0,2.13-.65A5.41,5.41,0,0,0,554,342a9.91,9.91,0,0,0,1-2.59,12.74,12.74,0,0,0,.36-3.05V322.58h3.17v17.81c0,.51,0,1.07,0,1.66s0,1.17,0,1.73,0,1.08.05,1.56,0,.83.07,1.05h-3.07c-.06-.61-.11-1.34-.14-2.21s0-1.68,0-2.44h-.1a8.58,8.58,0,0,1-2.2,3.91,5.89,5.89,0,0,1-6.94.69,5.34,5.34,0,0,1-1.8-2.13,9.73,9.73,0,0,1-.84-2.95,26.07,26.07,0,0,1-.22-3.32V322.58Z"/><path class="cls-7" d="M582.57,334.39a24.53,24.53,0,0,1-.5,5.11,14.52,14.52,0,0,1-1.47,4,7.84,7.84,0,0,1-2.35,2.66,5.52,5.52,0,0,1-3.21,1,5,5,0,0,1-3.8-1.42,8.23,8.23,0,0,1-1.92-3.62h-.09v4.27h-3.07V310.1h3.16v16.56h0a7.06,7.06,0,0,1,2-3.5,5.16,5.16,0,0,1,3.63-1.34,5.8,5.8,0,0,1,3.24.93,7.72,7.72,0,0,1,2.37,2.59,13.37,13.37,0,0,1,1.44,4A25.08,25.08,0,0,1,582.57,334.39Zm-3.26.1a25.21,25.21,0,0,0-.29-3.89,12.11,12.11,0,0,0-.91-3.17,6,6,0,0,0-1.56-2.11,3.59,3.59,0,0,0-4.44,0,6,6,0,0,0-1.61,2.11,12.08,12.08,0,0,0-1,3.17,24.69,24.69,0,0,0,0,7.8,11.69,11.69,0,0,0,1,3.12,6.16,6.16,0,0,0,1.58,2.09,3.63,3.63,0,0,0,4.47,0,6,6,0,0,0,1.56-2.09,11.72,11.72,0,0,0,.91-3.12A25,25,0,0,0,579.31,334.49Z"/><path class="cls-7" d="M592.22,315.29a2.26,2.26,0,0,1-.63,1.65,2.06,2.06,0,0,1-3,0,2.54,2.54,0,0,1,0-3.28,2,2,0,0,1,3,0A2.34,2.34,0,0,1,592.22,315.29Zm-3.7,31.1V322.58h3.17v23.81Z"/><path class="cls-7" d="M602.78,315.29a2.26,2.26,0,0,1-.63,1.65,2.06,2.06,0,0,1-3,0,2.54,2.54,0,0,1,0-3.28,2,2,0,0,1,3,0A2.34,2.34,0,0,1,602.78,315.29Zm-3.7,31.1V322.58h3.17v23.81Z"/><path class="cls-7" d="M615.26,344.33a2.41,2.41,0,0,1-.65,1.7,2.09,2.09,0,0,1-1.61.7,2,2,0,0,1-1.58-.7,2.43,2.43,0,0,1-.63-1.7,2.48,2.48,0,0,1,.63-1.71,2,2,0,0,1,1.58-.69,2.12,2.12,0,0,1,1.61.69A2.45,2.45,0,0,1,615.26,344.33Zm-3.84-8.07V312.41h3.17v23.85Z"/><path class="cls-7" d="M652.46,329.45a27.83,27.83,0,0,1-.87,7.34,15.38,15.38,0,0,1-2.49,5.31,10.66,10.66,0,0,1-3.92,3.21,11.65,11.65,0,0,1-5.06,1.08h-7.29v-34h7.34a11.68,11.68,0,0,1,5.06,1.08,10.31,10.31,0,0,1,3.89,3.24,15.67,15.67,0,0,1,2.47,5.35A28.12,28.12,0,0,1,652.46,329.45Zm-3.32,0a25.41,25.41,0,0,0-.69-6.29,13.67,13.67,0,0,0-1.92-4.4,8.13,8.13,0,0,0-2.88-2.6,7.61,7.61,0,0,0-3.58-.87h-3.93v28.22h3.93a7.61,7.61,0,0,0,3.58-.87,8.13,8.13,0,0,0,2.88-2.6,13.65,13.65,0,0,0,1.92-4.38A24.8,24.8,0,0,0,649.14,329.45Z"/><path class="cls-7" d="M661.58,322.58v15.36a21.3,21.3,0,0,0,.12,2.24,7,7,0,0,0,.52,2.06,4.23,4.23,0,0,0,1.13,1.54,3,3,0,0,0,2,.6,3.7,3.7,0,0,0,2.14-.65A5.39,5.39,0,0,0,669,342a9.92,9.92,0,0,0,1-2.59,12.74,12.74,0,0,0,.36-3.05V322.58h3.17v17.81c0,.51,0,1.07,0,1.66s0,1.17,0,1.73,0,1.08.05,1.56a9.58,9.58,0,0,0,.07,1.05H670.7c-.07-.61-.12-1.34-.15-2.21s0-1.68,0-2.44h-.09a8.68,8.68,0,0,1-2.21,3.91,5.23,5.23,0,0,1-3.84,1.51,5,5,0,0,1-4.9-3,10.34,10.34,0,0,1-.84-2.95,26.07,26.07,0,0,1-.21-3.32V322.58Z"/><path class="cls-7" d="M698.15,312.26a4.37,4.37,0,0,0-1.39-.24,2.63,2.63,0,0,0-1.61.48,3.52,3.52,0,0,0-1,1.25,5.78,5.78,0,0,0-.53,1.75,15.08,15.08,0,0,0-.14,2v5h4v2.6h-4v21.21h-3.17V325.18h-3.22v-2.6h3.22v-5a10.58,10.58,0,0,1,1.49-5.92,5.15,5.15,0,0,1,4.65-2.28,6.25,6.25,0,0,1,2,.28Zm7,3a2.24,2.24,0,0,1-.65,1.65,2,2,0,0,1-1.46.65,1.94,1.94,0,0,1-1.51-.65,2.54,2.54,0,0,1,0-3.28A1.93,1.93,0,0,1,703,313a2,2,0,0,1,1.49.68A2.32,2.32,0,0,1,705.11,315.29Zm-3.74,31.1V322.58h3.17v23.81Z"/><path class="cls-7" d="M723.4,346.39l-8.16-12h-.1v12H712V310.1h3.17v23h.1l7.68-10.52h3.79l-8.54,11,9.07,12.77Z"/><path class="cls-7" d="M749.13,326.71a5.25,5.25,0,0,0-1.61-1.7,4.26,4.26,0,0,0-2.38-.65,3.21,3.21,0,0,0-2.52,1.13,4.34,4.34,0,0,0-1,2.95,3.56,3.56,0,0,0,1,2.78,9,9,0,0,0,2.88,1.59,15.34,15.34,0,0,1,1.92.93,7.06,7.06,0,0,1,1.7,1.37,6.75,6.75,0,0,1,1.23,1.95,6.88,6.88,0,0,1,.48,2.71,7.51,7.51,0,0,1-1.9,5.45,6.58,6.58,0,0,1-4.92,1.94,7.43,7.43,0,0,1-3.7-.94,8.18,8.18,0,0,1-2.78-2.52l1.92-2.06a7.42,7.42,0,0,0,1.94,2,4.53,4.53,0,0,0,2.67.79,3.39,3.39,0,0,0,2.71-1.22,4.86,4.86,0,0,0,1-3.24,4.55,4.55,0,0,0-.38-1.95,4.15,4.15,0,0,0-1-1.32,7,7,0,0,0-1.42-.91c-.52-.25-1.08-.49-1.65-.72a11.11,11.11,0,0,1-1.75-.81,6,6,0,0,1-1.52-1.25A6.31,6.31,0,0,1,739,331.2a7.48,7.48,0,0,1-.4-2.62,7.13,7.13,0,0,1,.5-2.73,6.21,6.21,0,0,1,1.42-2.14,6.83,6.83,0,0,1,2.08-1.39,6.4,6.4,0,0,1,2.57-.5,7.16,7.16,0,0,1,3.48.79,7.08,7.08,0,0,1,2.38,2Z"/><path class="cls-7" d="M766.36,346.39c0-.25-.06-.57-.07-1s0-.79,0-1.22,0-.85,0-1.25v-1h-.09q-1.2,5.08-5.76,5.09a5.57,5.57,0,0,1-2-.39,4.76,4.76,0,0,1-1.82-1.25,6.79,6.79,0,0,1-1.35-2.18,8.63,8.63,0,0,1-.52-3.19,8.33,8.33,0,0,1,.91-4.18,7.18,7.18,0,0,1,2.3-2.49,8.38,8.38,0,0,1,3-1.23,16.77,16.77,0,0,1,3.14-.31h1.88v-1.25a7.27,7.27,0,0,0-1.16-4.56,3.76,3.76,0,0,0-3.12-1.44,4.62,4.62,0,0,0-2.49.72,7,7,0,0,0-2,1.83l-1.68-2a7.45,7.45,0,0,1,2.88-2.45,8,8,0,0,1,3.55-.86c2.5,0,4.27.81,5.33,2.44s1.58,4,1.58,7.16v9.88q0,.48,0,1.2c0,.48,0,1,0,1.47s0,1,.07,1.39.06.78.09,1ZM766,334.3h-1.92a12.86,12.86,0,0,0-2.3.21,5.44,5.44,0,0,0-2,.82,4.61,4.61,0,0,0-1.46,1.65,5.65,5.65,0,0,0-.58,2.74,5,5,0,0,0,1.1,3.6,3.36,3.36,0,0,0,4.68.29,5.77,5.77,0,0,0,1.49-2.07,11,11,0,0,0,.79-2.73,18,18,0,0,0,.24-2.88Z"/><path class="cls-7" d="M781.2,323.33a5.28,5.28,0,0,1,3.9-1.51,5.05,5.05,0,0,1,2.22.45,5.13,5.13,0,0,1,1.58,1.2,5.3,5.3,0,0,1,1,1.75,12.39,12.39,0,0,1,.55,2.07h.1a9.43,9.43,0,0,1,.81-2,6.89,6.89,0,0,1,1.32-1.75,6.1,6.1,0,0,1,1.81-1.23,5.75,5.75,0,0,1,2.32-.45,5.19,5.19,0,0,1,3.06.81,5.69,5.69,0,0,1,1.8,2.14,9.7,9.7,0,0,1,.86,3,26.19,26.19,0,0,1,.21,3.29v15.36h-3.17V331a21.11,21.11,0,0,0-.12-2.23,7.32,7.32,0,0,0-.5-2.06,3.75,3.75,0,0,0-1.13-1.54,3.07,3.07,0,0,0-2-.6,3.62,3.62,0,0,0-2.09.65,5.19,5.19,0,0,0-1.56,1.77,10.1,10.1,0,0,0-1,2.6,13.75,13.75,0,0,0-.33,3v13.73h-3.17V331a21.63,21.63,0,0,0-.12-2.25,8.11,8.11,0,0,0-.48-2.09,3.32,3.32,0,0,0-1.1-1.51,3,3,0,0,0-1.93-.58,3.51,3.51,0,0,0-2.1.65,5.39,5.39,0,0,0-1.55,1.77,9.43,9.43,0,0,0-1,2.6,13.75,13.75,0,0,0-.33,3v13.73H776V328.58q0-.76,0-1.65c0-.59,0-1.17,0-1.73s0-1.07,0-1.54,0-.82-.07-1.08h3.12c.06.61.11,1.35.14,2.21s.05,1.68.05,2.45h.09A7.77,7.77,0,0,1,781.2,323.33Z"/><path class="cls-7" d="M810,346.39V310.1h3.17v36.29Z"/><path class="cls-7" d="M822.28,335.16a18.51,18.51,0,0,0,.33,3.62,10.81,10.81,0,0,0,1,2.88,5.37,5.37,0,0,0,1.64,1.92,3.93,3.93,0,0,0,2.34.7,3.78,3.78,0,0,0,2.8-1.06,7.23,7.23,0,0,0,1.64-2.54l2.4,1.39a9.26,9.26,0,0,1-2.57,3.63,6.44,6.44,0,0,1-4.34,1.46,7,7,0,0,1-6.19-3.36c-1.48-2.24-2.21-5.33-2.21-9.26a21.81,21.81,0,0,1,.57-5.14,13.34,13.34,0,0,1,1.65-4,8.15,8.15,0,0,1,2.64-2.62,7.17,7.17,0,0,1,7,0,7.09,7.09,0,0,1,2.37,2.49,12.07,12.07,0,0,1,1.32,3.7,24,24,0,0,1,.4,4.51v1.73Zm9.64-2.64a12.79,12.79,0,0,0-1.11-5.78,3.64,3.64,0,0,0-3.47-2.19,3.39,3.39,0,0,0-2.34.84,6.75,6.75,0,0,0-1.54,2.07,10.27,10.27,0,0,0-.87,2.61,13.13,13.13,0,0,0-.27,2.45Z"/><path class="cls-7" d="M847.28,346.82a6.39,6.39,0,0,1-1.58.2,3.79,3.79,0,0,1-3.53-1.73,8.92,8.92,0,0,1-1-4.61v-15.5H838v-2.6h3.07V316h3.12v6.57h4.23v2.6h-4.23V340.1a6,6,0,0,0,.63,3.15,2.07,2.07,0,0,0,1.87,1,3.74,3.74,0,0,0,.91-.12,6.69,6.69,0,0,0,.82-.26l.14,2.54A6.81,6.81,0,0,1,847.28,346.82Z"/><path class="cls-7" d="M871.72,346.39c0-.25-.06-.57-.08-1s0-.79,0-1.22,0-.85,0-1.25v-1h-.09q-1.2,5.08-5.76,5.09a5.53,5.53,0,0,1-2-.39,4.76,4.76,0,0,1-1.82-1.25,6.63,6.63,0,0,1-1.35-2.18A8.62,8.62,0,0,1,860,340a8.33,8.33,0,0,1,.92-4.18,7.09,7.09,0,0,1,2.3-2.49,8.31,8.31,0,0,1,3-1.23,16.77,16.77,0,0,1,3.14-.31h1.87v-1.25a7.27,7.27,0,0,0-1.15-4.56,3.79,3.79,0,0,0-3.12-1.44,4.6,4.6,0,0,0-2.49.72,7,7,0,0,0-2,1.83l-1.68-2a7.3,7.3,0,0,1,2.88-2.45,8,8,0,0,1,3.55-.86c2.5,0,4.27.81,5.33,2.44s1.58,4,1.58,7.16v9.88q0,.48,0,1.2c0,.48,0,1,0,1.47s0,1,.08,1.39.06.78.09,1Zm-.39-12.09h-1.92a12.78,12.78,0,0,0-2.3.21,5.44,5.44,0,0,0-2,.82A4.73,4.73,0,0,0,863.6,337a5.77,5.77,0,0,0-.57,2.74,5,5,0,0,0,1.1,3.6,3.36,3.36,0,0,0,4.68.29,5.77,5.77,0,0,0,1.49-2.07,11,11,0,0,0,.79-2.73,18,18,0,0,0,.24-2.88Z"/><path class="cls-7" d="M881.12,346.39V310.1h3.17v36.29Z"/><path class="cls-7" d="M891.68,346.39V310.1h3.17v36.29Z"/><path class="cls-7" d="M904,335.16a17.74,17.74,0,0,0,.34,3.62,10.15,10.15,0,0,0,1,2.88,5.27,5.27,0,0,0,1.64,1.92,3.93,3.93,0,0,0,2.34.7,3.75,3.75,0,0,0,2.79-1.06,7.09,7.09,0,0,0,1.64-2.54l2.41,1.39a9.36,9.36,0,0,1-2.57,3.63,6.48,6.48,0,0,1-4.35,1.46A7,7,0,0,1,903,343.8q-2.21-3.36-2.21-9.26a21.28,21.28,0,0,1,.58-5.14,13.09,13.09,0,0,1,1.65-4,8.12,8.12,0,0,1,2.63-2.62,7.19,7.19,0,0,1,7,0,7,7,0,0,1,2.36,2.49,11.81,11.81,0,0,1,1.32,3.7,23.93,23.93,0,0,1,.41,4.51v1.73Zm9.65-2.64a12.79,12.79,0,0,0-1.11-5.78,3.66,3.66,0,0,0-3.47-2.19,3.36,3.36,0,0,0-2.34.84,6.62,6.62,0,0,0-1.55,2.07,10.27,10.27,0,0,0-.87,2.61,13.92,13.92,0,0,0-.26,2.45Z"/><path class="cls-7" d="M537.31,404v-4.27h-.1a8.22,8.22,0,0,1-1.92,3.6,4.92,4.92,0,0,1-3.79,1.44,5.53,5.53,0,0,1-3.22-1,8,8,0,0,1-2.35-2.66,14.21,14.21,0,0,1-1.46-4A23.85,23.85,0,0,1,524,392a25.08,25.08,0,0,1,.48-5.09,14,14,0,0,1,1.42-4,7.47,7.47,0,0,1,2.35-2.59,5.8,5.8,0,0,1,3.24-.93,5.3,5.3,0,0,1,3.65,1.32,6.68,6.68,0,0,1,2,3.48h.09V367.7h3.17V404Zm0-11.9a24.31,24.31,0,0,0-.31-3.94,11.73,11.73,0,0,0-1-3.14,6.1,6.1,0,0,0-1.61-2.09,3.46,3.46,0,0,0-2.21-.77,3.41,3.41,0,0,0-2.23.77,5.76,5.76,0,0,0-1.56,2.09,11.41,11.41,0,0,0-.91,3.14,24.39,24.39,0,0,0-.29,3.94,23.56,23.56,0,0,0,.29,3.86,11.81,11.81,0,0,0,.91,3.15,5.76,5.76,0,0,0,1.56,2.11,3.61,3.61,0,0,0,4.46,0A6.17,6.17,0,0,0,536,399.1a12.16,12.16,0,0,0,1-3.15A23.49,23.49,0,0,0,537.31,392.09Z"/><path class="cls-7" d="M549.5,392.76a17.74,17.74,0,0,0,.34,3.62,10.15,10.15,0,0,0,1,2.88,5.27,5.27,0,0,0,1.64,1.92,3.93,3.93,0,0,0,2.34.7,3.75,3.75,0,0,0,2.79-1.06,7.09,7.09,0,0,0,1.64-2.54l2.4,1.39a9.23,9.23,0,0,1-2.56,3.63,6.48,6.48,0,0,1-4.35,1.46,7,7,0,0,1-6.19-3.36q-2.2-3.36-2.21-9.26a21.28,21.28,0,0,1,.58-5.14,13.09,13.09,0,0,1,1.65-4,8,8,0,0,1,2.63-2.62,7.17,7.17,0,0,1,7,0,6.92,6.92,0,0,1,2.37,2.49,11.81,11.81,0,0,1,1.32,3.7,23.93,23.93,0,0,1,.41,4.51v1.73Zm9.65-2.64a12.79,12.79,0,0,0-1.11-5.78,3.66,3.66,0,0,0-3.48-2.19,3.39,3.39,0,0,0-2.34.84,6.75,6.75,0,0,0-1.54,2.07,10.27,10.27,0,0,0-.87,2.61,13.92,13.92,0,0,0-.26,2.45Z"/><path class="cls-7" d="M591.93,403.66a25.54,25.54,0,0,1-.41,4.7,11.26,11.26,0,0,1-1.36,3.74,7,7,0,0,1-2.6,2.5,8.24,8.24,0,0,1-4.08.91,9.26,9.26,0,0,1-4.39-1.08,9.06,9.06,0,0,1-3.29-2.9l2.07-2.21a7.7,7.7,0,0,0,2.42,2.4,6.08,6.08,0,0,0,3.29.91,4.72,4.72,0,0,0,2.62-.67,4.52,4.52,0,0,0,1.6-1.87,9.71,9.71,0,0,0,.82-2.83,24.88,24.88,0,0,0,.24-3.6v-3.94h-.1a8.22,8.22,0,0,1-1.92,3.6,4.92,4.92,0,0,1-3.79,1.44,5.53,5.53,0,0,1-3.22-1,8,8,0,0,1-2.35-2.66,14.52,14.52,0,0,1-1.46-4,23.85,23.85,0,0,1-.51-5.11,24.36,24.36,0,0,1,.49-5.09,13.65,13.65,0,0,1,1.41-4,7.57,7.57,0,0,1,2.35-2.59,5.8,5.8,0,0,1,3.24-.93,5.37,5.37,0,0,1,3.67,1.32,6.52,6.52,0,0,1,2,3.48h.15v-4h3.07Zm-3.07-11.57a24,24,0,0,0-.31-3.89,12.08,12.08,0,0,0-1-3.17,6,6,0,0,0-1.61-2.11,3.46,3.46,0,0,0-2.21-.77,3.41,3.41,0,0,0-2.23.77A5.88,5.88,0,0,0,580,385a11.41,11.41,0,0,0-.91,3.14,25.58,25.58,0,0,0-.29,3.94,24.72,24.72,0,0,0,.29,3.86,11.81,11.81,0,0,0,.91,3.15,5.87,5.87,0,0,0,1.56,2.11,3.61,3.61,0,0,0,4.46,0,6.06,6.06,0,0,0,1.59-2.09,11.69,11.69,0,0,0,1-3.12A23.75,23.75,0,0,0,588.86,392.09Z"/><path class="cls-7" d="M614.49,392.14a20.85,20.85,0,0,1-.58,5.13,13.4,13.4,0,0,1-1.63,4,7.6,7.6,0,0,1-2.61,2.59,6.75,6.75,0,0,1-3.48.91,6.62,6.62,0,0,1-3.46-.91,8,8,0,0,1-2.62-2.59,13.15,13.15,0,0,1-1.65-4,20.85,20.85,0,0,1-.58-5.13,23.21,23.21,0,0,1,.55-5.19,13.32,13.32,0,0,1,1.61-4,7.71,7.71,0,0,1,2.62-2.59,6.83,6.83,0,0,1,3.53-.91,6.75,6.75,0,0,1,3.48.91,7.6,7.6,0,0,1,2.61,2.59,13.33,13.33,0,0,1,1.63,4A21.53,21.53,0,0,1,614.49,392.14Zm-3.26-.08a23,23,0,0,0-.32-3.92A12,12,0,0,0,610,385a6,6,0,0,0-1.56-2.08,3.43,3.43,0,0,0-2.23-.77,3.52,3.52,0,0,0-2.26.77,5.51,5.51,0,0,0-1.56,2.08,12.86,12.86,0,0,0-.91,3.14,23,23,0,0,0-.31,3.92,22.19,22.19,0,0,0,.31,3.88,13.52,13.52,0,0,0,.91,3.12,5.36,5.36,0,0,0,1.56,2.08,3.81,3.81,0,0,0,4.51,0,5.36,5.36,0,0,0,1.56-2.08,13,13,0,0,0,.91-3.12A22.15,22.15,0,0,0,611.23,392.06Z"/><path class="cls-7" d="M632.35,404v-4.27h-.1a8.33,8.33,0,0,1-1.92,3.6,4.94,4.94,0,0,1-3.79,1.44,5.53,5.53,0,0,1-3.22-1,7.84,7.84,0,0,1-2.35-2.66,14.52,14.52,0,0,1-1.47-4A24.53,24.53,0,0,1,619,392a25.08,25.08,0,0,1,.48-5.09,13.65,13.65,0,0,1,1.42-4,7.38,7.38,0,0,1,2.35-2.59,5.75,5.75,0,0,1,3.24-.93,5.3,5.3,0,0,1,3.65,1.32,6.6,6.6,0,0,1,2,3.48h.1V367.7h3.17V404Zm0-11.9a23.2,23.2,0,0,0-.32-3.94,11.38,11.38,0,0,0-1-3.14,6,6,0,0,0-1.6-2.09,3.46,3.46,0,0,0-2.21-.77,3.4,3.4,0,0,0-2.23.77,5.76,5.76,0,0,0-1.56,2.09,11.76,11.76,0,0,0-.92,3.14,25.63,25.63,0,0,0-.28,3.94,24.76,24.76,0,0,0,.28,3.86,12.18,12.18,0,0,0,.92,3.15,5.76,5.76,0,0,0,1.56,2.11,3.61,3.61,0,0,0,4.46,0,6.15,6.15,0,0,0,1.58-2.11,11.78,11.78,0,0,0,1-3.15A22.41,22.41,0,0,0,632.35,392.09Z"/><path class="cls-7" d="M644.54,392.76a18.51,18.51,0,0,0,.33,3.62,10.81,10.81,0,0,0,1,2.88,5.37,5.37,0,0,0,1.64,1.92,3.93,3.93,0,0,0,2.34.7,3.78,3.78,0,0,0,2.8-1.06,7.23,7.23,0,0,0,1.64-2.54l2.4,1.39a9.26,9.26,0,0,1-2.57,3.63,6.44,6.44,0,0,1-4.34,1.46,7,7,0,0,1-6.19-3.36c-1.48-2.24-2.21-5.33-2.21-9.26a21.81,21.81,0,0,1,.57-5.14,13.6,13.6,0,0,1,1.65-4,8.15,8.15,0,0,1,2.64-2.62,7.17,7.17,0,0,1,7,0,7.09,7.09,0,0,1,2.37,2.49,12.07,12.07,0,0,1,1.32,3.7,24,24,0,0,1,.4,4.51v1.73Zm9.64-2.64a12.79,12.79,0,0,0-1.11-5.78,3.65,3.65,0,0,0-3.47-2.19,3.39,3.39,0,0,0-2.34.84,6.59,6.59,0,0,0-1.54,2.07,10.27,10.27,0,0,0-.87,2.61,13.13,13.13,0,0,0-.27,2.45Z"/><path class="cls-7" d="M675.69,372.89a2.26,2.26,0,0,1-.63,1.65,2.06,2.06,0,0,1-3,0,2.33,2.33,0,0,1-.6-1.65,2.36,2.36,0,0,1,.6-1.63,2,2,0,0,1,3,0A2.36,2.36,0,0,1,675.69,372.89ZM672,404V380.18h3.17V404Z"/><path class="cls-7" d="M694.74,404V388.63a21.11,21.11,0,0,0-.12-2.23,7,7,0,0,0-.52-2.06,4,4,0,0,0-1.16-1.54,3,3,0,0,0-1.94-.6,3.7,3.7,0,0,0-2.14.65,5.35,5.35,0,0,0-1.58,1.77,10.13,10.13,0,0,0-1,2.6,12.65,12.65,0,0,0-.36,3V404h-3.17V386.18c0-.51,0-1.06,0-1.65s0-1.17-.05-1.73,0-1.07,0-1.54,0-.82-.07-1.08h3.07c.07.61.12,1.35.15,2.21s.05,1.68.05,2.45h.09a8.59,8.59,0,0,1,2.21-3.91,5.23,5.23,0,0,1,3.84-1.51,5,5,0,0,1,4.9,2.95,10.29,10.29,0,0,1,.84,3,26.19,26.19,0,0,1,.21,3.29V404Z"/><path class="cls-7" d="M720.09,403.66a25.54,25.54,0,0,1-.41,4.7,11,11,0,0,1-1.37,3.74,6.91,6.91,0,0,1-2.59,2.5,8.26,8.26,0,0,1-4.08.91,9.23,9.23,0,0,1-4.39-1.08,9.06,9.06,0,0,1-3.29-2.9l2.06-2.21a7.73,7.73,0,0,0,2.43,2.4,6.05,6.05,0,0,0,3.29.91,4.69,4.69,0,0,0,2.61-.67,4.47,4.47,0,0,0,1.61-1.87,10.37,10.37,0,0,0,.82-2.83,26.47,26.47,0,0,0,.23-3.6v-3.94h-.09a8.33,8.33,0,0,1-1.92,3.6,4.94,4.94,0,0,1-3.79,1.44,5.53,5.53,0,0,1-3.22-1,7.84,7.84,0,0,1-2.35-2.66,14.52,14.52,0,0,1-1.47-4,24.53,24.53,0,0,1-.5-5.11,25.08,25.08,0,0,1,.48-5.09,13.65,13.65,0,0,1,1.42-4,7.38,7.38,0,0,1,2.35-2.59,5.75,5.75,0,0,1,3.24-.93,5.39,5.39,0,0,1,3.67,1.32,6.52,6.52,0,0,1,2,3.48H717v-4h3.08ZM717,392.09a22.88,22.88,0,0,0-.31-3.89,12.08,12.08,0,0,0-1-3.17,6,6,0,0,0-1.61-2.11,3.43,3.43,0,0,0-2.2-.77,3.4,3.4,0,0,0-2.23.77,5.76,5.76,0,0,0-1.56,2.09,11.76,11.76,0,0,0-.92,3.14,25.63,25.63,0,0,0-.28,3.94,24.76,24.76,0,0,0,.28,3.86,12.18,12.18,0,0,0,.92,3.15,5.76,5.76,0,0,0,1.56,2.11,3.61,3.61,0,0,0,4.46,0,6.16,6.16,0,0,0,1.58-2.09,11.69,11.69,0,0,0,1-3.12A22.71,22.71,0,0,0,717,392.09Z"/><path class="cls-7" d="M732.9,380.86a4.38,4.38,0,0,1,3.17-1.4,2.69,2.69,0,0,1,.58.05l-.1,3.27-.36-.08-.41,0a3.11,3.11,0,0,0-2.13.82,6.21,6.21,0,0,0-1.56,2.11,11.74,11.74,0,0,0-.94,2.95,17.53,17.53,0,0,0-.31,3.29V404h-3.17V386.18c0-.51,0-1.06,0-1.65s0-1.17,0-1.73,0-1.07-.05-1.54,0-.82-.07-1.08h3.07c.06.61.11,1.37.14,2.28s0,1.88,0,2.91h.1A9,9,0,0,1,732.9,380.86Z"/><path class="cls-7" d="M742.07,392.76a17.74,17.74,0,0,0,.34,3.62,10.15,10.15,0,0,0,1,2.88,5.27,5.27,0,0,0,1.64,1.92,3.9,3.9,0,0,0,2.34.7,3.77,3.77,0,0,0,2.79-1.06,7.09,7.09,0,0,0,1.64-2.54l2.4,1.39a9.23,9.23,0,0,1-2.56,3.63,6.48,6.48,0,0,1-4.35,1.46,7,7,0,0,1-6.19-3.36q-2.21-3.36-2.21-9.26a21.28,21.28,0,0,1,.58-5.14,13.09,13.09,0,0,1,1.65-4,8,8,0,0,1,2.63-2.62,7.17,7.17,0,0,1,7,0,6.92,6.92,0,0,1,2.37,2.49,11.81,11.81,0,0,1,1.32,3.7,23.93,23.93,0,0,1,.41,4.51v1.73Zm9.65-2.64a12.79,12.79,0,0,0-1.11-5.78,3.66,3.66,0,0,0-3.48-2.19,3.39,3.39,0,0,0-2.34.84,6.75,6.75,0,0,0-1.54,2.07,10.27,10.27,0,0,0-.87,2.61,13.92,13.92,0,0,0-.26,2.45Z"/><path class="cls-7" d="M772.55,404v-4.27h-.1a8.22,8.22,0,0,1-1.92,3.6,4.92,4.92,0,0,1-3.79,1.44,5.48,5.48,0,0,1-3.21-1,7.87,7.87,0,0,1-2.36-2.66,14.21,14.21,0,0,1-1.46-4,23.87,23.87,0,0,1-.5-5.11,25.08,25.08,0,0,1,.48-5.09,13.65,13.65,0,0,1,1.41-4,7.57,7.57,0,0,1,2.35-2.59,5.8,5.8,0,0,1,3.24-.93,5.3,5.3,0,0,1,3.65,1.32,6.68,6.68,0,0,1,2,3.48h.09V367.7h3.17V404Zm0-11.9a23.23,23.23,0,0,0-.31-3.94,11.73,11.73,0,0,0-1-3.14,6,6,0,0,0-1.61-2.09,3.46,3.46,0,0,0-2.21-.77,3.41,3.41,0,0,0-2.23.77,5.88,5.88,0,0,0-1.56,2.09,11.41,11.41,0,0,0-.91,3.14,25.58,25.58,0,0,0-.29,3.94,24.72,24.72,0,0,0,.29,3.86,11.81,11.81,0,0,0,.91,3.15,5.87,5.87,0,0,0,1.56,2.11,3.61,3.61,0,0,0,4.46,0,6,6,0,0,0,1.59-2.11,12.16,12.16,0,0,0,1-3.15A22.44,22.44,0,0,0,772.55,392.09Z"/><path class="cls-7" d="M786.71,372.89a2.26,2.26,0,0,1-.63,1.65,2.06,2.06,0,0,1-3,0,2.33,2.33,0,0,1-.6-1.65,2.36,2.36,0,0,1,.6-1.63,2,2,0,0,1,3,0A2.36,2.36,0,0,1,786.71,372.89ZM783,404V380.18h3.17V404Z"/><path class="cls-7" d="M795.3,392.76a17.74,17.74,0,0,0,.34,3.62,10.15,10.15,0,0,0,1,2.88,5.27,5.27,0,0,0,1.64,1.92,3.93,3.93,0,0,0,2.34.7,3.75,3.75,0,0,0,2.79-1.06,7.09,7.09,0,0,0,1.64-2.54l2.4,1.39a9.23,9.23,0,0,1-2.56,3.63,6.48,6.48,0,0,1-4.35,1.46,7,7,0,0,1-6.19-3.36q-2.21-3.36-2.21-9.26a21.28,21.28,0,0,1,.58-5.14,13.09,13.09,0,0,1,1.65-4,8.12,8.12,0,0,1,2.63-2.62,7.17,7.17,0,0,1,7,0,6.92,6.92,0,0,1,2.37,2.49,11.81,11.81,0,0,1,1.32,3.7,23.93,23.93,0,0,1,.41,4.51v1.73Zm9.65-2.64a12.79,12.79,0,0,0-1.11-5.78,3.66,3.66,0,0,0-3.48-2.19A3.35,3.35,0,0,0,798,383a6.62,6.62,0,0,0-1.55,2.07,10.27,10.27,0,0,0-.87,2.61,13.92,13.92,0,0,0-.26,2.45Z"/><path class="cls-7" d="M826.07,404V388.63a21.11,21.11,0,0,0-.12-2.23,7,7,0,0,0-.53-2.06,4,4,0,0,0-1.15-1.54,3,3,0,0,0-1.95-.6,3.65,3.65,0,0,0-2.13.65,5.37,5.37,0,0,0-1.59,1.77,10.13,10.13,0,0,0-1,2.6,12.65,12.65,0,0,0-.36,3V404h-3.17V386.18q0-.76,0-1.65c0-.59,0-1.17,0-1.73s0-1.07,0-1.54,0-.82-.07-1.08H817c.06.61.11,1.35.14,2.21s0,1.68,0,2.45h.1a8.58,8.58,0,0,1,2.2-3.91,5.26,5.26,0,0,1,3.84-1.51,5,5,0,0,1,4.9,2.95,10,10,0,0,1,.84,3,26.22,26.22,0,0,1,.22,3.29V404Z"/><path class="cls-7" d="M845.51,384.31a5.25,5.25,0,0,0-1.61-1.7,4.26,4.26,0,0,0-2.38-.65,3.21,3.21,0,0,0-2.52,1.13,4.34,4.34,0,0,0-1,3,3.56,3.56,0,0,0,1,2.78,9,9,0,0,0,2.88,1.59,16.87,16.87,0,0,1,1.92.93,7.06,7.06,0,0,1,1.7,1.37,6.75,6.75,0,0,1,1.23,2,6.88,6.88,0,0,1,.48,2.71,7.51,7.51,0,0,1-1.9,5.45,6.58,6.58,0,0,1-4.92,1.94,7.43,7.43,0,0,1-3.7-.94,8.18,8.18,0,0,1-2.78-2.52l1.92-2.06a7.57,7.57,0,0,0,1.94,2,4.53,4.53,0,0,0,2.67.79,3.39,3.39,0,0,0,2.71-1.22,4.86,4.86,0,0,0,1-3.24,4.4,4.4,0,0,0-.38-1.95,4.15,4.15,0,0,0-1-1.32,7,7,0,0,0-1.41-.91c-.53-.25-1.08-.49-1.66-.72a11.11,11.11,0,0,1-1.75-.81,5.79,5.79,0,0,1-1.51-1.25,5.9,5.9,0,0,1-1.08-1.85,7.24,7.24,0,0,1-.41-2.62,7.33,7.33,0,0,1,.5-2.73,6.21,6.21,0,0,1,1.42-2.14,6.76,6.76,0,0,1,2.09-1.39,6.32,6.32,0,0,1,2.56-.5,7.16,7.16,0,0,1,3.48.79,7.08,7.08,0,0,1,2.38,2Z"/><path class="cls-7" d="M854.48,392.76a18.48,18.48,0,0,0,.34,3.62,10.81,10.81,0,0,0,1,2.88,5.27,5.27,0,0,0,1.64,1.92,3.93,3.93,0,0,0,2.34.7,3.78,3.78,0,0,0,2.8-1.06,7.37,7.37,0,0,0,1.64-2.54l2.4,1.39a9.26,9.26,0,0,1-2.57,3.63,6.47,6.47,0,0,1-4.34,1.46,7,7,0,0,1-6.2-3.36q-2.21-3.36-2.2-9.26a21.81,21.81,0,0,1,.57-5.14,13.09,13.09,0,0,1,1.65-4,8.22,8.22,0,0,1,2.63-2.62,7.19,7.19,0,0,1,7,0,7.09,7.09,0,0,1,2.37,2.49,12.06,12.06,0,0,1,1.31,3.7,23.93,23.93,0,0,1,.41,4.51v1.73Zm9.65-2.64a12.79,12.79,0,0,0-1.11-5.78,3.66,3.66,0,0,0-3.47-2.19,3.39,3.39,0,0,0-2.34.84,6.59,6.59,0,0,0-1.54,2.07,9.55,9.55,0,0,0-.87,2.61,13.13,13.13,0,0,0-.27,2.45Z"/><path class="cls-7" d="M878.48,380.86a4.38,4.38,0,0,1,3.17-1.4,2.69,2.69,0,0,1,.58.05l-.1,3.27-.36-.08-.41,0a3.11,3.11,0,0,0-2.13.82,6.21,6.21,0,0,0-1.56,2.11,11.74,11.74,0,0,0-.94,2.95,17.53,17.53,0,0,0-.31,3.29V404h-3.17V386.18c0-.51,0-1.06,0-1.65s0-1.17-.05-1.73,0-1.07,0-1.54,0-.82-.07-1.08h3.07c.07.61.11,1.37.15,2.28s0,1.88,0,2.91h.1A9,9,0,0,1,878.48,380.86Z"/><path class="cls-7" d="M885.59,410.28H883l2.78-11.9H889Z"/><path class="cls-7" d="M534.48,441.91a5.25,5.25,0,0,0-1.61-1.7,4.26,4.26,0,0,0-2.38-.65,3.21,3.21,0,0,0-2.52,1.13,4.34,4.34,0,0,0-1,2.95,3.56,3.56,0,0,0,1,2.78,9,9,0,0,0,2.88,1.59,15.34,15.34,0,0,1,1.92.93,7.06,7.06,0,0,1,1.7,1.37,6.75,6.75,0,0,1,1.23,1.95,6.88,6.88,0,0,1,.48,2.71,7.51,7.51,0,0,1-1.9,5.45,6.58,6.58,0,0,1-4.92,1.94,7.43,7.43,0,0,1-3.7-.94,8.18,8.18,0,0,1-2.78-2.52l1.92-2.06a7.42,7.42,0,0,0,1.94,2,4.53,4.53,0,0,0,2.67.79,3.39,3.39,0,0,0,2.71-1.22,4.86,4.86,0,0,0,1-3.24,4.55,4.55,0,0,0-.38-1.95,4.15,4.15,0,0,0-1-1.32,7,7,0,0,0-1.42-.91c-.52-.25-1.08-.49-1.65-.72a11.11,11.11,0,0,1-1.75-.81,6,6,0,0,1-1.52-1.25,6.31,6.31,0,0,1-1.08-1.85,7.48,7.48,0,0,1-.4-2.62,7.13,7.13,0,0,1,.5-2.73,6.21,6.21,0,0,1,1.42-2.14,6.83,6.83,0,0,1,2.08-1.39,6.4,6.4,0,0,1,2.57-.5,7.16,7.16,0,0,1,3.48.79,7.08,7.08,0,0,1,2.38,2Z"/><path class="cls-7" d="M556.89,449.74a21.37,21.37,0,0,1-.57,5.13,13.67,13.67,0,0,1-1.64,4,7.6,7.6,0,0,1-2.61,2.59,6.75,6.75,0,0,1-3.48.91,6.65,6.65,0,0,1-3.46-.91,8,8,0,0,1-2.61-2.59,13.16,13.16,0,0,1-1.66-4,21.35,21.35,0,0,1-.58-5.13,22.62,22.62,0,0,1,.56-5.19,13.06,13.06,0,0,1,1.6-4,7.71,7.71,0,0,1,2.62-2.59,6.85,6.85,0,0,1,3.53-.91,6.75,6.75,0,0,1,3.48.91,7.6,7.6,0,0,1,2.61,2.59,13.59,13.59,0,0,1,1.64,4A22.06,22.06,0,0,1,556.89,449.74Zm-3.26-.08a24.06,24.06,0,0,0-.31-3.92,12,12,0,0,0-.94-3.14,6,6,0,0,0-1.56-2.08,3.41,3.41,0,0,0-2.23-.77,3.52,3.52,0,0,0-2.26.77,5.51,5.51,0,0,0-1.56,2.08,12.86,12.86,0,0,0-.91,3.14,23,23,0,0,0-.31,3.92,22.19,22.19,0,0,0,.31,3.88,13.52,13.52,0,0,0,.91,3.12,5.36,5.36,0,0,0,1.56,2.08,3.81,3.81,0,0,0,4.51,0,5.36,5.36,0,0,0,1.56-2.08,13.51,13.51,0,0,0,.92-3.12A23.2,23.2,0,0,0,553.63,449.66Z"/><path class="cls-7" d="M568.28,438.53a5.26,5.26,0,0,1,3.9-1.51,5.05,5.05,0,0,1,2.22.45,5.13,5.13,0,0,1,1.58,1.2,5.48,5.48,0,0,1,1,1.75,12.39,12.39,0,0,1,.55,2.07h.1a9.43,9.43,0,0,1,.81-2,6.89,6.89,0,0,1,1.32-1.75,6.1,6.1,0,0,1,1.81-1.23,5.75,5.75,0,0,1,2.32-.45,5.19,5.19,0,0,1,3.06.81,5.58,5.58,0,0,1,1.79,2.14,9.43,9.43,0,0,1,.86,3,24.46,24.46,0,0,1,.22,3.29v15.36h-3.17V446.23a21.11,21.11,0,0,0-.12-2.23,7.68,7.68,0,0,0-.5-2.06,3.75,3.75,0,0,0-1.13-1.54,3.09,3.09,0,0,0-2-.6,3.59,3.59,0,0,0-2.09.65,5.09,5.09,0,0,0-1.56,1.77,9.74,9.74,0,0,0-1,2.6,13.75,13.75,0,0,0-.34,3v13.73H574.8V446.23a21.63,21.63,0,0,0-.12-2.25,8.11,8.11,0,0,0-.48-2.09,3.39,3.39,0,0,0-1.1-1.51,3,3,0,0,0-1.93-.58,3.51,3.51,0,0,0-2.1.65,5.39,5.39,0,0,0-1.55,1.77,9.43,9.43,0,0,0-1,2.6,13.18,13.18,0,0,0-.34,3v13.73H563V443.78q0-.76,0-1.65c0-.59,0-1.17,0-1.73s0-1.07,0-1.54,0-.82-.08-1.08H566c.07.61.12,1.35.15,2.21s0,1.68,0,2.45h.09A7.77,7.77,0,0,1,568.28,438.53Z"/><path class="cls-7" d="M622.79,436.82a11.59,11.59,0,0,1-.69,4.16,9,9,0,0,1-1.85,3,7.79,7.79,0,0,1-2.66,1.82,8.12,8.12,0,0,1-3.15.62h-5v15.17h-3.31v-34h8a11.07,11.07,0,0,1,3,.43,7.21,7.21,0,0,1,2.78,1.51,7.92,7.92,0,0,1,2,2.86A10.77,10.77,0,0,1,622.79,436.82Zm-3.31,0a8.58,8.58,0,0,0-.43-2.89,5.22,5.22,0,0,0-1.2-2,4.81,4.81,0,0,0-1.75-1.12,6.2,6.2,0,0,0-2.14-.36h-4.51v13.05H614a5.23,5.23,0,0,0,3.87-1.65A7,7,0,0,0,619.48,436.85Z"/><path class="cls-7" d="M630.57,430.49a2.3,2.3,0,0,1-.62,1.65,2,2,0,0,1-1.49.65,1.94,1.94,0,0,1-1.51-.65,2.54,2.54,0,0,1,0-3.28,2,2,0,0,1,3,0A2.34,2.34,0,0,1,630.57,430.49Zm-3.69,31.1V437.78H630v23.81Z"/><path class="cls-7" d="M647.51,461.59l-4.75-10-4.7,10h-3.51l6.34-12.53-5.81-11.28h3.55l4.18,9,4.13-9h3.45L644.68,449l6.43,12.57Z"/><path class="cls-7" d="M659.27,430.49a2.26,2.26,0,0,1-.62,1.65,2,2,0,0,1-1.49.65,1.94,1.94,0,0,1-1.51-.65,2.54,2.54,0,0,1,0-3.28,2,2,0,0,1,3,0A2.34,2.34,0,0,1,659.27,430.49Zm-3.69,31.1V437.78h3.17v23.81Z"/><path class="cls-7" d="M667.87,450.36a18.51,18.51,0,0,0,.33,3.62,10.81,10.81,0,0,0,1,2.88,5.37,5.37,0,0,0,1.64,1.92,3.93,3.93,0,0,0,2.34.7,3.78,3.78,0,0,0,2.8-1.06,7.23,7.23,0,0,0,1.64-2.54l2.4,1.39a9.26,9.26,0,0,1-2.57,3.63,6.44,6.44,0,0,1-4.34,1.46,7,7,0,0,1-6.19-3.36c-1.48-2.24-2.21-5.33-2.21-9.26a21.81,21.81,0,0,1,.57-5.14,13.09,13.09,0,0,1,1.65-4,8.22,8.22,0,0,1,2.63-2.62A6.66,6.66,0,0,1,673,437a6.58,6.58,0,0,1,3.57.91,7.09,7.09,0,0,1,2.37,2.49,12.06,12.06,0,0,1,1.31,3.7,23.13,23.13,0,0,1,.41,4.51v1.73Zm9.64-2.64a12.79,12.79,0,0,0-1.11-5.78,3.65,3.65,0,0,0-3.47-2.19,3.39,3.39,0,0,0-2.34.84,6.59,6.59,0,0,0-1.54,2.07,10.27,10.27,0,0,0-.87,2.61,13.13,13.13,0,0,0-.27,2.45Z"/><path class="cls-7" d="M710.49,449.74a20.85,20.85,0,0,1-.58,5.13,13.66,13.66,0,0,1-1.63,4,7.6,7.6,0,0,1-2.61,2.59,6.77,6.77,0,0,1-3.48.91,6.62,6.62,0,0,1-3.46-.91,8,8,0,0,1-2.62-2.59,13.15,13.15,0,0,1-1.65-4,20.85,20.85,0,0,1-.58-5.13,23.21,23.21,0,0,1,.55-5.19,13.32,13.32,0,0,1,1.61-4,7.71,7.71,0,0,1,2.62-2.59,7.2,7.2,0,0,1,7,0,7.6,7.6,0,0,1,2.61,2.59,13.59,13.59,0,0,1,1.63,4A21.53,21.53,0,0,1,710.49,449.74Zm-3.26-.08a23,23,0,0,0-.32-3.92,12,12,0,0,0-.93-3.14,6,6,0,0,0-1.56-2.08,3.43,3.43,0,0,0-2.23-.77,3.52,3.52,0,0,0-2.26.77,5.51,5.51,0,0,0-1.56,2.08,12.86,12.86,0,0,0-.91,3.14,23,23,0,0,0-.31,3.92,22.19,22.19,0,0,0,.31,3.88,13.52,13.52,0,0,0,.91,3.12,5.36,5.36,0,0,0,1.56,2.08,3.81,3.81,0,0,0,4.51,0,5.36,5.36,0,0,0,1.56-2.08,13,13,0,0,0,.91-3.12A22.15,22.15,0,0,0,707.23,449.66Z"/><path class="cls-7" d="M731.42,461.26A25.54,25.54,0,0,1,731,466a11,11,0,0,1-1.37,3.74,6.91,6.91,0,0,1-2.59,2.5,8.26,8.26,0,0,1-4.08.91,9.23,9.23,0,0,1-4.39-1.08,9.06,9.06,0,0,1-3.29-2.9l2.06-2.21a7.73,7.73,0,0,0,2.43,2.4,6,6,0,0,0,3.28.91,4.7,4.7,0,0,0,2.62-.67,4.54,4.54,0,0,0,1.61-1.87,10,10,0,0,0,.81-2.83,24.88,24.88,0,0,0,.24-3.6v-3.94h-.09a8.43,8.43,0,0,1-1.92,3.6,4.94,4.94,0,0,1-3.79,1.44,5.53,5.53,0,0,1-3.22-1,7.84,7.84,0,0,1-2.35-2.66,14.52,14.52,0,0,1-1.47-4,24.53,24.53,0,0,1-.5-5.11,25.08,25.08,0,0,1,.48-5.09,13.65,13.65,0,0,1,1.42-4,7.38,7.38,0,0,1,2.35-2.59,5.75,5.75,0,0,1,3.24-.93,5.39,5.39,0,0,1,3.67,1.32,6.52,6.52,0,0,1,2,3.48h.14v-4h3.08Zm-3.08-11.57a22.88,22.88,0,0,0-.31-3.89,12.08,12.08,0,0,0-1-3.17,6,6,0,0,0-1.61-2.11,3.59,3.59,0,0,0-4.44,0,6,6,0,0,0-1.56,2.09,11.77,11.77,0,0,0-.91,3.14,25.58,25.58,0,0,0-.29,3.94,24.72,24.72,0,0,0,.29,3.86,12.19,12.19,0,0,0,.91,3.15,6,6,0,0,0,1.56,2.11,3.63,3.63,0,0,0,4.47,0,6.16,6.16,0,0,0,1.58-2.09,11.69,11.69,0,0,0,1-3.12A22.71,22.71,0,0,0,728.34,449.69Z"/><path class="cls-7" d="M747.88,461.59v-34h3.36v30.86h9.7v3.12Z"/><path class="cls-7" d="M779.7,449.74a21.37,21.37,0,0,1-.57,5.13,13.94,13.94,0,0,1-1.63,4,7.71,7.71,0,0,1-2.62,2.59,6.75,6.75,0,0,1-3.48.91,6.65,6.65,0,0,1-3.46-.91,8,8,0,0,1-2.61-2.59,13.16,13.16,0,0,1-1.66-4,21.35,21.35,0,0,1-.58-5.13,22.62,22.62,0,0,1,.56-5.19,13.06,13.06,0,0,1,1.6-4,7.71,7.71,0,0,1,2.62-2.59,6.85,6.85,0,0,1,3.53-.91,6.75,6.75,0,0,1,3.48.91,7.71,7.71,0,0,1,2.62,2.59,13.86,13.86,0,0,1,1.63,4A22.06,22.06,0,0,1,779.7,449.74Zm-3.26-.08a24.06,24.06,0,0,0-.31-3.92,12,12,0,0,0-.94-3.14,6,6,0,0,0-1.56-2.08,3.41,3.41,0,0,0-2.23-.77,3.53,3.53,0,0,0-2.26.77,5.51,5.51,0,0,0-1.56,2.08,12.86,12.86,0,0,0-.91,3.14,23,23,0,0,0-.31,3.92,22.19,22.19,0,0,0,.31,3.88,13.52,13.52,0,0,0,.91,3.12,5.36,5.36,0,0,0,1.56,2.08,3.82,3.82,0,0,0,4.52,0,5.44,5.44,0,0,0,1.55-2.08,13.51,13.51,0,0,0,.92-3.12A23.2,23.2,0,0,0,776.44,449.66Z"/><path class="cls-7" d="M785.65,461.59V425.3h3.17v36.29Z"/><path class="cls-7" d="M806.2,461.59c0-.25-.06-.57-.07-1s0-.79,0-1.22,0-.85,0-1.25v-1H806q-1.2,5.08-5.76,5.09a5.57,5.57,0,0,1-2-.39,4.76,4.76,0,0,1-1.82-1.25A6.79,6.79,0,0,1,795,458.4a8.63,8.63,0,0,1-.52-3.19,8.33,8.33,0,0,1,.91-4.18,7.09,7.09,0,0,1,2.3-2.49,8.38,8.38,0,0,1,3-1.23,16.77,16.77,0,0,1,3.14-.31h1.88v-1.25a7.27,7.27,0,0,0-1.16-4.56,3.76,3.76,0,0,0-3.12-1.44,4.62,4.62,0,0,0-2.49.72,7,7,0,0,0-2,1.83l-1.68-2a7.3,7.3,0,0,1,2.88-2.45,8,8,0,0,1,3.55-.86c2.5,0,4.27.81,5.33,2.44s1.58,4,1.58,7.16v9.88q0,.48,0,1.2c0,.48,0,1,0,1.47s0,1,.07,1.39.06.78.09,1Zm-.39-12.09h-1.92a12.86,12.86,0,0,0-2.3.21,5.44,5.44,0,0,0-2,.82,4.61,4.61,0,0,0-1.46,1.65,5.65,5.65,0,0,0-.58,2.74,5,5,0,0,0,1.1,3.6,3.36,3.36,0,0,0,4.68.29,5.77,5.77,0,0,0,1.49-2.07,11,11,0,0,0,.79-2.73,18,18,0,0,0,.24-2.88Z"/><path class="cls-7" d="M831.73,461.59H828l-6.38-23.81H825l4.95,20.45H830l4.71-20.45H838Z"/><path class="cls-7" d="M846.18,430.49a2.3,2.3,0,0,1-.62,1.65,2,2,0,0,1-1.49.65,1.94,1.94,0,0,1-1.51-.65,2.54,2.54,0,0,1,0-3.28,2,2,0,0,1,3,0A2.34,2.34,0,0,1,846.18,430.49Zm-3.69,31.1V437.78h3.16v23.81Z"/><path class="cls-7" d="M853,461.59V425.3h3.17v36.29Z"/><path class="cls-7" d="M863.6,461.59V425.3h3.17v36.29Z"/><path class="cls-7" d="M875.89,450.36a17.74,17.74,0,0,0,.34,3.62,10.15,10.15,0,0,0,1,2.88,5.27,5.27,0,0,0,1.64,1.92,3.93,3.93,0,0,0,2.34.7,3.78,3.78,0,0,0,2.8-1.06,7.37,7.37,0,0,0,1.64-2.54l2.4,1.39a9.36,9.36,0,0,1-2.57,3.63,6.48,6.48,0,0,1-4.35,1.46,7,7,0,0,1-6.19-3.36q-2.2-3.36-2.21-9.26a21.8,21.8,0,0,1,.58-5.14,13.09,13.09,0,0,1,1.65-4,8.12,8.12,0,0,1,2.63-2.62,7.19,7.19,0,0,1,7,0,7.09,7.09,0,0,1,2.37,2.49,12.06,12.06,0,0,1,1.31,3.7,23.93,23.93,0,0,1,.41,4.51v1.73Zm9.65-2.64a12.79,12.79,0,0,0-1.11-5.78,3.66,3.66,0,0,0-3.47-2.19,3.36,3.36,0,0,0-2.34.84,6.77,6.77,0,0,0-1.55,2.07,9.88,9.88,0,0,0-.86,2.61,13.13,13.13,0,0,0-.27,2.45Z"/><path class="cls-7" d="M537.4,519.19V503.83a21.11,21.11,0,0,0-.12-2.23,7.32,7.32,0,0,0-.5-2.06,3.75,3.75,0,0,0-1.13-1.54,3,3,0,0,0-1.94-.6,3.7,3.7,0,0,0-2.14.65,5.65,5.65,0,0,0-1.61,1.77,9.8,9.8,0,0,0-1,2.6,12.65,12.65,0,0,0-.36,3v13.73H525.4V482.9h3.17v17h.1a8.12,8.12,0,0,1,2.15-3.8,5.26,5.26,0,0,1,3.82-1.48,4.92,4.92,0,0,1,4.88,2.95,10.29,10.29,0,0,1,.84,3,26.19,26.19,0,0,1,.21,3.29v15.36Z"/><path class="cls-7" d="M557.8,519.19c0-.25,0-.57-.07-1s0-.79-.05-1.22,0-.85,0-1.25v-1h-.1q-1.2,5.09-5.76,5.09a5.52,5.52,0,0,1-2-.39,4.87,4.87,0,0,1-1.83-1.25,6.78,6.78,0,0,1-1.34-2.18,8.62,8.62,0,0,1-.53-3.19,8.44,8.44,0,0,1,.91-4.18,7.21,7.21,0,0,1,2.31-2.49,8.31,8.31,0,0,1,3.05-1.23,16.77,16.77,0,0,1,3.14-.31h1.87v-1.25a7.27,7.27,0,0,0-1.15-4.56,3.79,3.79,0,0,0-3.12-1.44,4.63,4.63,0,0,0-2.5.72,7.11,7.11,0,0,0-2,1.83l-1.68-2a7.3,7.3,0,0,1,2.88-2.45,8,8,0,0,1,3.55-.86q3.74,0,5.33,2.44c1,1.64,1.58,4,1.58,7.16v9.88c0,.32,0,.72,0,1.2s0,1,0,1.47,0,1,.07,1.39.07.78.1,1Zm-.38-12.09H555.5a12.7,12.7,0,0,0-2.3.21,5.44,5.44,0,0,0-2,.82,4.63,4.63,0,0,0-1.47,1.65,5.77,5.77,0,0,0-.57,2.74,4.94,4.94,0,0,0,1.1,3.6,3.36,3.36,0,0,0,4.68.29,5.89,5.89,0,0,0,1.49-2.07,11,11,0,0,0,.79-2.73,18,18,0,0,0,.24-2.88Z"/><path class="cls-7" d="M574.46,519.19h-3.74l-6.39-23.81h3.36l4.95,20.45h.09l4.71-20.45h3.26Z"/><path class="cls-7" d="M586.94,508a17.74,17.74,0,0,0,.34,3.62,10.15,10.15,0,0,0,1,2.88,5.27,5.27,0,0,0,1.64,1.92,3.93,3.93,0,0,0,2.34.7A3.75,3.75,0,0,0,595,516a7.09,7.09,0,0,0,1.64-2.54l2.4,1.39a9.23,9.23,0,0,1-2.56,3.63,6.48,6.48,0,0,1-4.35,1.46A7,7,0,0,1,586,516.6q-2.21-3.36-2.21-9.27a21.26,21.26,0,0,1,.58-5.13,13.09,13.09,0,0,1,1.65-4,8,8,0,0,1,2.63-2.62,7.17,7.17,0,0,1,7,0A6.92,6.92,0,0,1,598,498a11.81,11.81,0,0,1,1.32,3.7,23.93,23.93,0,0,1,.41,4.51V508Zm9.65-2.64a12.79,12.79,0,0,0-1.11-5.78,3.66,3.66,0,0,0-3.48-2.19,3.35,3.35,0,0,0-2.33.84,6.62,6.62,0,0,0-1.55,2.07,10.27,10.27,0,0,0-.87,2.61,13.92,13.92,0,0,0-.26,2.45Z"/><path class="cls-7" d="M618.09,488.09a2.3,2.3,0,0,1-.62,1.65,2,2,0,0,1-1.49.65,1.94,1.94,0,0,1-1.51-.65,2.54,2.54,0,0,1,0-3.28,2,2,0,0,1,3,0A2.34,2.34,0,0,1,618.09,488.09Zm-3.69,31.1V495.38h3.16v23.81Z"/><path class="cls-7" d="M645.74,519.19v-4.27h-.1a8.22,8.22,0,0,1-1.92,3.6,4.92,4.92,0,0,1-3.79,1.44,5.53,5.53,0,0,1-3.22-1,7.89,7.89,0,0,1-2.35-2.67,14.33,14.33,0,0,1-1.46-4,23.85,23.85,0,0,1-.51-5.11,24.36,24.36,0,0,1,.49-5.09,13.65,13.65,0,0,1,1.41-4,7.57,7.57,0,0,1,2.35-2.59,5.8,5.8,0,0,1,3.24-.93,5.3,5.3,0,0,1,3.65,1.32,6.68,6.68,0,0,1,2,3.48h.09V482.9h3.17v36.29Zm0-11.9a24.31,24.31,0,0,0-.31-3.94,11.73,11.73,0,0,0-1-3.14,6,6,0,0,0-1.61-2.09,3.46,3.46,0,0,0-2.21-.77,3.41,3.41,0,0,0-2.23.77,5.76,5.76,0,0,0-1.56,2.09,11.41,11.41,0,0,0-.91,3.14,24.39,24.39,0,0,0-.29,3.94,23.56,23.56,0,0,0,.29,3.86,11.62,11.62,0,0,0,.91,3.14,5.72,5.72,0,0,0,1.56,2.12,3.61,3.61,0,0,0,4.46,0,6,6,0,0,0,1.59-2.12,12,12,0,0,0,1-3.14A23.49,23.49,0,0,0,645.74,507.29Z"/><path class="cls-7" d="M657.93,508a17.74,17.74,0,0,0,.34,3.62,10.15,10.15,0,0,0,1,2.88,5.27,5.27,0,0,0,1.64,1.92,3.93,3.93,0,0,0,2.34.7A3.75,3.75,0,0,0,666,516a7.09,7.09,0,0,0,1.64-2.54l2.4,1.39a9.23,9.23,0,0,1-2.56,3.63,6.48,6.48,0,0,1-4.35,1.46A7,7,0,0,1,657,516.6q-2.21-3.36-2.21-9.27a21.26,21.26,0,0,1,.58-5.13,13.09,13.09,0,0,1,1.65-4,8.12,8.12,0,0,1,2.63-2.62,7.17,7.17,0,0,1,7,0A6.92,6.92,0,0,1,669,498a11.81,11.81,0,0,1,1.32,3.7,23.93,23.93,0,0,1,.41,4.51V508Zm9.65-2.64a12.79,12.79,0,0,0-1.11-5.78,3.66,3.66,0,0,0-3.47-2.19,3.36,3.36,0,0,0-2.34.84,6.62,6.62,0,0,0-1.55,2.07,10.27,10.27,0,0,0-.87,2.61,13.92,13.92,0,0,0-.26,2.45Z"/><path class="cls-7" d="M681.93,496.06a4.36,4.36,0,0,1,3.17-1.4,2.58,2.58,0,0,1,.57,0l-.09,3.27a3,3,0,0,0-.36-.08l-.41,0a3.16,3.16,0,0,0-2.14.82,6.49,6.49,0,0,0-1.56,2.11,12.16,12.16,0,0,0-.93,2.95,17.53,17.53,0,0,0-.31,3.29v12.14H676.7V501.38q0-.76,0-1.65c0-.59,0-1.17,0-1.73s0-1.07,0-1.54,0-.82-.07-1.08h3.07c.06.61.11,1.37.14,2.28s0,1.88,0,2.91h.1A8.87,8.87,0,0,1,681.93,496.06Z"/><path class="cls-7" d="M691.1,508a18.51,18.51,0,0,0,.33,3.62,10.81,10.81,0,0,0,1,2.88,5.37,5.37,0,0,0,1.64,1.92,3.93,3.93,0,0,0,2.34.7,3.78,3.78,0,0,0,2.8-1.06,7.09,7.09,0,0,0,1.64-2.54l2.4,1.39a9.16,9.16,0,0,1-2.57,3.63,6.44,6.44,0,0,1-4.34,1.46,7,7,0,0,1-6.19-3.36q-2.21-3.36-2.21-9.27a21.79,21.79,0,0,1,.57-5.13,13.6,13.6,0,0,1,1.65-4,8.15,8.15,0,0,1,2.64-2.62,7.17,7.17,0,0,1,7,0,7.09,7.09,0,0,1,2.37,2.49,12.07,12.07,0,0,1,1.32,3.7,24,24,0,0,1,.4,4.51V508Zm9.65-2.64a12.65,12.65,0,0,0-1.12-5.78,3.64,3.64,0,0,0-3.47-2.19,3.39,3.39,0,0,0-2.34.84,6.75,6.75,0,0,0-1.54,2.07,10.27,10.27,0,0,0-.87,2.61,13,13,0,0,0-.26,2.45Z"/><path class="cls-7" d="M718.74,499.51a5.12,5.12,0,0,0-1.6-1.7,4.26,4.26,0,0,0-2.38-.65,3.21,3.21,0,0,0-2.52,1.13,4.29,4.29,0,0,0-1,2.95,3.56,3.56,0,0,0,1,2.78,9,9,0,0,0,2.88,1.59,15.34,15.34,0,0,1,1.92.93,7.26,7.26,0,0,1,1.7,1.37,6.73,6.73,0,0,1,1.22,1.95,6.88,6.88,0,0,1,.48,2.71,7.51,7.51,0,0,1-1.89,5.45,6.59,6.59,0,0,1-4.92,1.94,7.4,7.4,0,0,1-3.7-.94,8.09,8.09,0,0,1-2.78-2.52l1.92-2.06a7.42,7.42,0,0,0,1.94,2,4.5,4.5,0,0,0,2.67.79,3.39,3.39,0,0,0,2.71-1.22,4.86,4.86,0,0,0,1-3.24,4.55,4.55,0,0,0-.38-1.95,4.18,4.18,0,0,0-1-1.32,7,7,0,0,0-1.42-.91q-.8-.37-1.65-.72a11.22,11.22,0,0,1-1.76-.81,5.88,5.88,0,0,1-2.59-3.1,7.47,7.47,0,0,1-.41-2.62,7.13,7.13,0,0,1,.51-2.73,6.19,6.19,0,0,1,1.41-2.14,7,7,0,0,1,2.09-1.39,6.4,6.4,0,0,1,2.57-.5,7.21,7.21,0,0,1,3.48.79,7.08,7.08,0,0,1,2.38,2Z"/><path class="cls-7" d="M740.31,496.13a5.24,5.24,0,0,1,3.9-1.51,5.05,5.05,0,0,1,2.22.45,5.13,5.13,0,0,1,1.58,1.2,5.48,5.48,0,0,1,1,1.75,13.43,13.43,0,0,1,.55,2.07h.1a9.43,9.43,0,0,1,.81-2,7.34,7.34,0,0,1,1.31-1.76,6.32,6.32,0,0,1,1.82-1.22,5.75,5.75,0,0,1,2.32-.45,5.23,5.23,0,0,1,3.06.81,5.67,5.67,0,0,1,1.79,2.14,9.43,9.43,0,0,1,.86,3,24.46,24.46,0,0,1,.22,3.29v15.36h-3.17V503.83a21.11,21.11,0,0,0-.12-2.23,7.68,7.68,0,0,0-.5-2.06,3.84,3.84,0,0,0-1.13-1.54,3.09,3.09,0,0,0-2-.6,3.59,3.59,0,0,0-2.09.65,5,5,0,0,0-1.56,1.77,9.74,9.74,0,0,0-1,2.6,13.18,13.18,0,0,0-.34,3v13.73h-3.17V503.83a21.63,21.63,0,0,0-.12-2.25,8.12,8.12,0,0,0-.47-2.09,3.39,3.39,0,0,0-1.1-1.51,3,3,0,0,0-1.93-.58,3.51,3.51,0,0,0-2.1.65,5.41,5.41,0,0,0-1.56,1.77,9.42,9.42,0,0,0-1,2.6,13.18,13.18,0,0,0-.34,3v13.73h-3.17V501.38c0-.51,0-1.06,0-1.65s0-1.17,0-1.73,0-1.07,0-1.54,0-.82-.07-1.08H738c.07.61.11,1.35.15,2.21s0,1.68,0,2.45h.1A7.77,7.77,0,0,1,740.31,496.13Z"/><path class="cls-7" d="M772.79,488.09a2.3,2.3,0,0,1-.62,1.65,2,2,0,0,1-1.49.65,1.94,1.94,0,0,1-1.51-.65,2.54,2.54,0,0,1,0-3.28,2,2,0,0,1,3,0A2.34,2.34,0,0,1,772.79,488.09Zm-3.69,31.1V495.38h3.16v23.81Z"/><path class="cls-7" d="M779.66,519.19V482.9h3.16v36.29Z"/><path class="cls-7" d="M801.64,519.19l-8.16-12h-.1v12h-3.17V482.9h3.17v23h.1l7.68-10.52H805l-8.54,11,9.07,12.77Z"/><path class="cls-7" d="M818.2,499.51a5.14,5.14,0,0,0-1.61-1.7,4.26,4.26,0,0,0-2.38-.65,3.21,3.21,0,0,0-2.52,1.13,4.34,4.34,0,0,0-1,2.95,3.56,3.56,0,0,0,1,2.78,9,9,0,0,0,2.88,1.59,15.34,15.34,0,0,1,1.92.93,7.06,7.06,0,0,1,1.7,1.37,6.75,6.75,0,0,1,1.23,1.95,6.88,6.88,0,0,1,.48,2.71A7.47,7.47,0,0,1,818,518a6.58,6.58,0,0,1-4.92,1.94,7.39,7.39,0,0,1-3.69-.94,8.21,8.21,0,0,1-2.79-2.52l1.92-2.06a7.46,7.46,0,0,0,2,2,4.47,4.47,0,0,0,2.66.79,3.39,3.39,0,0,0,2.71-1.22,4.86,4.86,0,0,0,1-3.24,4.4,4.4,0,0,0-.38-1.95,4,4,0,0,0-1-1.32,7,7,0,0,0-1.41-.91c-.53-.25-1.08-.49-1.66-.72a11.11,11.11,0,0,1-1.75-.81,5.79,5.79,0,0,1-1.51-1.25,5.9,5.9,0,0,1-1.08-1.85,7.24,7.24,0,0,1-.41-2.62,7.33,7.33,0,0,1,.5-2.73,6.21,6.21,0,0,1,1.42-2.14,6.88,6.88,0,0,1,2.09-1.39,6.36,6.36,0,0,1,2.56-.5,7.16,7.16,0,0,1,3.48.79,7.08,7.08,0,0,1,2.38,2Z"/><path class="cls-7" d="M837.45,519.19V503.83a21.11,21.11,0,0,0-.12-2.23,7.32,7.32,0,0,0-.51-2.06,3.66,3.66,0,0,0-1.13-1.54,3,3,0,0,0-1.94-.6,3.7,3.7,0,0,0-2.14.65,5.51,5.51,0,0,0-1.6,1.77,9.49,9.49,0,0,0-1,2.6,12.65,12.65,0,0,0-.36,3v13.73h-3.16V482.9h3.16v17h.1a8.12,8.12,0,0,1,2.15-3.8,5.34,5.34,0,0,1,8.7,1.47,10,10,0,0,1,.84,3,26.19,26.19,0,0,1,.21,3.29v15.36Z"/><path class="cls-7" d="M857.85,519.19c0-.25-.06-.57-.08-1s0-.79,0-1.22,0-.85,0-1.25v-1h-.09q-1.2,5.09-5.76,5.09a5.53,5.53,0,0,1-2-.39,4.76,4.76,0,0,1-1.82-1.25,6.63,6.63,0,0,1-1.35-2.18,8.62,8.62,0,0,1-.53-3.19,8.33,8.33,0,0,1,.92-4.18,7.09,7.09,0,0,1,2.3-2.49,8.31,8.31,0,0,1,3-1.23,16.77,16.77,0,0,1,3.14-.31h1.87v-1.25a7.27,7.27,0,0,0-1.15-4.56,3.79,3.79,0,0,0-3.12-1.44,4.6,4.6,0,0,0-2.49.72,7,7,0,0,0-2,1.83l-1.68-2a7.3,7.3,0,0,1,2.88-2.45,8,8,0,0,1,3.55-.86c2.5,0,4.27.81,5.33,2.44s1.58,4,1.58,7.16v9.88q0,.48,0,1.2c0,.48,0,1,0,1.47s0,1,.08,1.39.06.78.09,1Zm-.39-12.09h-1.92a12.78,12.78,0,0,0-2.3.21,5.44,5.44,0,0,0-2,.82,4.73,4.73,0,0,0-1.47,1.65,5.77,5.77,0,0,0-.57,2.74,5,5,0,0,0,1.1,3.6,3.36,3.36,0,0,0,4.68.29,5.77,5.77,0,0,0,1.49-2.07,11,11,0,0,0,.79-2.73,18,18,0,0,0,.24-2.88Z"/><path class="cls-7" d="M878.68,519.19l-8.16-12h-.1v12h-3.17V482.9h3.17v23h.1l7.68-10.52H882l-8.54,11,9.07,12.77Z"/><path class="cls-7" d="M887.61,508a18.51,18.51,0,0,0,.33,3.62,10.81,10.81,0,0,0,1,2.88,5.37,5.37,0,0,0,1.64,1.92,3.93,3.93,0,0,0,2.34.7,3.78,3.78,0,0,0,2.8-1.06,7.23,7.23,0,0,0,1.64-2.54l2.4,1.39a9.26,9.26,0,0,1-2.57,3.63,6.44,6.44,0,0,1-4.34,1.46,7,7,0,0,1-6.19-3.36c-1.48-2.24-2.21-5.33-2.21-9.27a21.79,21.79,0,0,1,.57-5.13,13.34,13.34,0,0,1,1.65-4,8.15,8.15,0,0,1,2.64-2.62,7.17,7.17,0,0,1,7,0A7.09,7.09,0,0,1,898.7,498a12.07,12.07,0,0,1,1.32,3.7,24,24,0,0,1,.4,4.51V508Zm9.64-2.64a12.79,12.79,0,0,0-1.11-5.78,3.64,3.64,0,0,0-3.47-2.19,3.39,3.39,0,0,0-2.34.84,6.75,6.75,0,0,0-1.54,2.07,10.27,10.27,0,0,0-.87,2.61,13.13,13.13,0,0,0-.27,2.45Z"/><path class="cls-7" d="M909.93,517.13a2.41,2.41,0,0,1-.65,1.73,2.17,2.17,0,0,1-1.61.67,2.08,2.08,0,0,1-1.58-.67,2.44,2.44,0,0,1-.63-1.73,2.47,2.47,0,0,1,.63-1.68,2,2,0,0,1,1.58-.72,2.08,2.08,0,0,1,1.61.72A2.44,2.44,0,0,1,909.93,517.13Z"/><path class="cls-7" d="M540.84,594.67a13.28,13.28,0,0,1-4.68.75,10.35,10.35,0,0,1-5.09-1.25,10.78,10.78,0,0,1-3.79-3.55,17.82,17.82,0,0,1-2.36-5.57,30.37,30.37,0,0,1-.81-7.3,29.67,29.67,0,0,1,.79-7,19,19,0,0,1,2.28-5.64,11.3,11.3,0,0,1,3.65-3.72,9,9,0,0,1,4.89-1.35,10.24,10.24,0,0,1,4.56,1,8.58,8.58,0,0,1,3.46,3.17l-2.16,2.21a7.7,7.7,0,0,0-2.57-2.52,6.18,6.18,0,0,0-3.14-.84,5.84,5.84,0,0,0-3.65,1.17,9.39,9.39,0,0,0-2.57,3.19,17.15,17.15,0,0,0-1.53,4.68,32.33,32.33,0,0,0,0,11.55,15.75,15.75,0,0,0,1.61,4.63,8.72,8.72,0,0,0,2.69,3,6.44,6.44,0,0,0,3.72,1.1,9.44,9.44,0,0,0,2.76-.38,5.71,5.71,0,0,0,2-1.11V579.38h-4.85V576.5h8.11v16.19A10.51,10.51,0,0,1,540.84,594.67Z"/><path class="cls-7" d="M566.25,582.94a21.37,21.37,0,0,1-.57,5.13,13.67,13.67,0,0,1-1.64,4,7.6,7.6,0,0,1-2.61,2.59,6.75,6.75,0,0,1-3.48.91,6.65,6.65,0,0,1-3.46-.91,8,8,0,0,1-2.61-2.59,13.16,13.16,0,0,1-1.66-4,21.35,21.35,0,0,1-.58-5.13,22.62,22.62,0,0,1,.56-5.19,13.06,13.06,0,0,1,1.6-4,7.71,7.71,0,0,1,2.62-2.59,6.85,6.85,0,0,1,3.53-.91,6.75,6.75,0,0,1,3.48.91,7.6,7.6,0,0,1,2.61,2.59,13.59,13.59,0,0,1,1.64,4A22.06,22.06,0,0,1,566.25,582.94Zm-3.26-.08a24.06,24.06,0,0,0-.31-3.92,12,12,0,0,0-.94-3.14,6,6,0,0,0-1.56-2.08A3.41,3.41,0,0,0,558,573a3.52,3.52,0,0,0-2.26.77,5.51,5.51,0,0,0-1.56,2.08,12.86,12.86,0,0,0-.91,3.14,23,23,0,0,0-.31,3.92,22.19,22.19,0,0,0,.31,3.88,13.52,13.52,0,0,0,.91,3.12,5.36,5.36,0,0,0,1.56,2.08,3.81,3.81,0,0,0,4.51,0,5.36,5.36,0,0,0,1.56-2.08,13.51,13.51,0,0,0,.92-3.12A23.2,23.2,0,0,0,563,582.86Z"/><path class="cls-7" d="M584.11,594.79v-4.27H584a8.22,8.22,0,0,1-1.92,3.6,4.92,4.92,0,0,1-3.79,1.44,5.53,5.53,0,0,1-3.22-1,7.84,7.84,0,0,1-2.35-2.66,14.21,14.21,0,0,1-1.46-4,23.85,23.85,0,0,1-.51-5.11,25.08,25.08,0,0,1,.48-5.09,14,14,0,0,1,1.42-4,7.47,7.47,0,0,1,2.35-2.59,5.75,5.75,0,0,1,3.24-.93,5.3,5.3,0,0,1,3.65,1.32,6.68,6.68,0,0,1,2,3.48H584V558.5h3.17v36.29Zm0-11.9a23.2,23.2,0,0,0-.32-3.94,11.05,11.05,0,0,0-1-3.14,6,6,0,0,0-1.6-2.09A3.46,3.46,0,0,0,579,573a3.41,3.41,0,0,0-2.23.77,5.76,5.76,0,0,0-1.56,2.09,11.41,11.41,0,0,0-.91,3.14,24.39,24.39,0,0,0-.29,3.94,23.56,23.56,0,0,0,.29,3.86,11.81,11.81,0,0,0,.91,3.15,5.76,5.76,0,0,0,1.56,2.11,3.61,3.61,0,0,0,4.46,0,6,6,0,0,0,1.58-2.11,11.43,11.43,0,0,0,1-3.15A22.41,22.41,0,0,0,584.11,582.89Z"/><path class="cls-7" d="M601,595.22a6.39,6.39,0,0,1-1.58.2,3.78,3.78,0,0,1-3.53-1.73,8.92,8.92,0,0,1-1-4.61v-15.5h-3.12V571h3.07v-6.57h3.12V571h4.22v2.6h-4.22V588.5a6.16,6.16,0,0,0,.62,3.15,2.09,2.09,0,0,0,1.88,1,3.8,3.8,0,0,0,.91-.12,6,6,0,0,0,.81-.26l.15,2.54A7.06,7.06,0,0,1,601,595.22Z"/><path class="cls-7" d="M630.43,594.46a25.54,25.54,0,0,1-.41,4.7,11,11,0,0,1-1.37,3.74,6.91,6.91,0,0,1-2.59,2.5,8.26,8.26,0,0,1-4.08.91,9.23,9.23,0,0,1-4.39-1.08,9.06,9.06,0,0,1-3.29-2.9l2.06-2.21a7.73,7.73,0,0,0,2.43,2.4,6,6,0,0,0,3.28.91,4.7,4.7,0,0,0,2.62-.67,4.54,4.54,0,0,0,1.61-1.87,10,10,0,0,0,.81-2.83,24.88,24.88,0,0,0,.24-3.6v-3.94h-.09a8.43,8.43,0,0,1-1.92,3.6,4.94,4.94,0,0,1-3.79,1.44,5.53,5.53,0,0,1-3.22-1,7.84,7.84,0,0,1-2.35-2.66,14.52,14.52,0,0,1-1.47-4,24.53,24.53,0,0,1-.5-5.11,25.08,25.08,0,0,1,.48-5.09,13.65,13.65,0,0,1,1.42-4,7.38,7.38,0,0,1,2.35-2.59,5.75,5.75,0,0,1,3.24-.93,5.39,5.39,0,0,1,3.67,1.32,6.52,6.52,0,0,1,2,3.48h.14v-4h3.08Zm-3.08-11.57A22.88,22.88,0,0,0,627,579a12.08,12.08,0,0,0-1-3.17,6,6,0,0,0-1.61-2.11,3.59,3.59,0,0,0-4.44,0,6,6,0,0,0-1.56,2.09,11.77,11.77,0,0,0-.91,3.14,25.58,25.58,0,0,0-.29,3.94,24.72,24.72,0,0,0,.29,3.86,12.19,12.19,0,0,0,.91,3.15A6,6,0,0,0,620,592a3.63,3.63,0,0,0,4.47,0,6.16,6.16,0,0,0,1.58-2.09,11.69,11.69,0,0,0,1-3.12A22.71,22.71,0,0,0,627.35,582.89Z"/><path class="cls-7" d="M647.8,594.79c0-.25,0-.57-.07-1s0-.79-.05-1.22,0-.85,0-1.25v-1h-.1q-1.2,5.08-5.76,5.09a5.52,5.52,0,0,1-2-.39,4.72,4.72,0,0,1-1.83-1.25,6.78,6.78,0,0,1-1.34-2.18,8.42,8.42,0,0,1-.53-3.19,8.33,8.33,0,0,1,.91-4.18,7.21,7.21,0,0,1,2.31-2.49,8.26,8.26,0,0,1,3-1.23,16.87,16.87,0,0,1,3.15-.31h1.87V579a7.27,7.27,0,0,0-1.15-4.56A3.79,3.79,0,0,0,643.1,573a4.63,4.63,0,0,0-2.5.72,7.15,7.15,0,0,0-2,1.83l-1.68-2a7.45,7.45,0,0,1,2.88-2.45,8,8,0,0,1,3.56-.86c2.49,0,4.27.81,5.32,2.44s1.59,4,1.59,7.16v9.88c0,.32,0,.72,0,1.2s0,1,0,1.47,0,1,.07,1.39.06.78.1,1Zm-.38-12.09H645.5a12.89,12.89,0,0,0-2.31.21,5.58,5.58,0,0,0-2,.82,4.61,4.61,0,0,0-1.46,1.65,5.77,5.77,0,0,0-.58,2.74,4.94,4.94,0,0,0,1.11,3.6,3.31,3.31,0,0,0,2.4,1.1,3.39,3.39,0,0,0,2.28-.81,5.89,5.89,0,0,0,1.49-2.07,11.42,11.42,0,0,0,.79-2.73,18,18,0,0,0,.24-2.88Zm.81-19.4a4.93,4.93,0,0,1-1.27,3.46,4.19,4.19,0,0,1-3.24,1.39,4.06,4.06,0,0,1-3.17-1.39,5,5,0,0,1-1.24-3.46,5.06,5.06,0,0,1,1.24-3.5,4.06,4.06,0,0,1,3.17-1.39A4.19,4.19,0,0,1,647,559.8,5,5,0,0,1,648.23,563.3Zm-1.82,0a3.69,3.69,0,0,0-.7-2.25,2.31,2.31,0,0,0-2-1,2.25,2.25,0,0,0-1.94,1,3.69,3.69,0,0,0-.7,2.25,3.62,3.62,0,0,0,.7,2.21,2.25,2.25,0,0,0,1.94,1,2.31,2.31,0,0,0,2-1A3.62,3.62,0,0,0,646.41,563.3Z"/><path class="cls-7" d="M658.94,583.56a18.51,18.51,0,0,0,.33,3.62,10.81,10.81,0,0,0,1,2.88A5.37,5.37,0,0,0,661.9,592a3.93,3.93,0,0,0,2.34.7,3.78,3.78,0,0,0,2.8-1.06,7.23,7.23,0,0,0,1.64-2.54l2.4,1.39a9.26,9.26,0,0,1-2.57,3.63,6.44,6.44,0,0,1-4.34,1.46A7,7,0,0,1,658,592.2c-1.48-2.24-2.21-5.33-2.21-9.26a21.81,21.81,0,0,1,.57-5.14,13.6,13.6,0,0,1,1.65-4,8.15,8.15,0,0,1,2.64-2.62,7.17,7.17,0,0,1,7,0,7.09,7.09,0,0,1,2.37,2.49,12.07,12.07,0,0,1,1.32,3.7,24,24,0,0,1,.4,4.51v1.73Zm9.64-2.64a12.79,12.79,0,0,0-1.11-5.78A3.64,3.64,0,0,0,664,573a3.39,3.39,0,0,0-2.34.84,6.75,6.75,0,0,0-1.54,2.07,10.27,10.27,0,0,0-.87,2.61,13,13,0,0,0-.26,2.45Z"/><path class="cls-7" d="M683.94,595.22a6.39,6.39,0,0,1-1.58.2,3.79,3.79,0,0,1-3.53-1.73,8.92,8.92,0,0,1-1-4.61v-15.5h-3.12V571h3.07v-6.57h3.12V571h4.23v2.6h-4.23V588.5a6,6,0,0,0,.63,3.15,2.07,2.07,0,0,0,1.87,1,3.74,3.74,0,0,0,.91-.12,6.69,6.69,0,0,0,.82-.26l.14,2.54A6.81,6.81,0,0,1,683.94,595.22Z"/><path class="cls-7" d="M695.13,592.73a2.41,2.41,0,0,1-.65,1.7,2.09,2.09,0,0,1-1.61.7,2,2,0,0,1-1.58-.7,2.43,2.43,0,0,1-.62-1.7,2.47,2.47,0,0,1,.62-1.71,2,2,0,0,1,1.58-.69,2.12,2.12,0,0,1,1.61.69A2.45,2.45,0,0,1,695.13,592.73Zm-3.84-8.07V560.81h3.17v23.85Z"/><polygon class="cls-8" points="342.75 294.22 342.75 290.42 343.82 286.01 345.36 282.18 347.9 278.16 350.43 274.9 353.19 272.51 356.5 269.54 360.24 267.53 364.1 265.71 367.96 264.37 371.27 263.41 375.57 262.74 379.31 262.74 382.95 263.5 386.26 264.65 389.45 266.86 392.98 270.98 395.52 273.83 397.72 274.78 402.99 274.97 408.93 276.12 412.88 277.65 416.62 279.41 419.69 281.85 422.11 285.14 424.31 287.77 426.51 291.21 427.39 294.22 427.39 296.84 427.83 298.56 427.83 301.04 427.83 302.95 427.83 305.33 427.17 307.14 426.18 309.43 424.86 311.82 423.44 314.01 422.12 316.11 420.69 317.54 418.82 320.12 416.26 321.21 400.16 310.29 381.24 306.1 376.14 306.4 371.19 306.88 366.25 309.74 361.57 304.97 353.94 299.42 350.86 296.85 342.75 294.22"/><path class="cls-9" d="M468.9,238.94c.37-1.71-1.1-3.5-2-5-34.37-10-57.22,14.1-72.43,39.93l3.55,2C413.37,249.86,434.5,226.55,468.9,238.94Z"/><path class="cls-10" d="M402.83,286.94a1.53,1.53,0,0,0,1-.2c1.51-5.27-3.61-9.57-9-12.67-.12.17-.24.34-.35.52C399.89,277.72,404.83,281.72,402.83,286.94Z"/><path class="cls-10" d="M380.15,277.46c-.3-.19-.35-.59-.43-.89,3.44-5.07,10.08-4.3,15.89-2.45-.07.21-.15.43-.22.65C389.53,272.91,383.24,272.05,380.15,277.46Z"/><path class="cls-8" d="M291.08,179.31a16.14,16.14,0,0,1-3.09,5.95l.09,0L273.43,205.6l-20.16-11.82-5.05-3c-6.07-5.21-7.29-13.76-2.72-19.15s13.29-5.57,19.42-.37a15.51,15.51,0,0,1,1.37,1.31,1.6,1.6,0,0,1,0-.21c2.16-7.75,9.46-12.49,16.29-10.58S293.25,171.56,291.08,179.31Z"/><path class="cls-8" d="M253.27,193.78a16.1,16.1,0,0,1-5-2.89l-.08-.07Z"/><path class="cls-8" d="M390,217.61a16.07,16.07,0,0,1-6.09,2.8l.06.07-24,7-8.65-21.71-2.17-5.43c-1.59-7.84,2.69-15.34,9.61-16.79s13.91,3.77,15.56,11.64a17.55,17.55,0,0,1,.27,1.87,1.09,1.09,0,0,1,.17-.13c6.46-4.79,15.14-4.05,19.35,1.65S396.43,212.83,390,217.61Z"/><path class="cls-8" d="M351.24,205.81a15.93,15.93,0,0,1-2.15-5.33.44.44,0,0,1,0-.1Z"/><path class="cls-8" d="M204.42,276.07a16.14,16.14,0,0,1-3.09,5.95l.09,0-14.65,20.32-20.16-11.82-5.05-3c-6.07-5.21-7.29-13.76-2.72-19.15s13.29-5.57,19.42-.37a15.51,15.51,0,0,1,1.37,1.31,1.6,1.6,0,0,1,.05-.21c2.16-7.75,9.46-12.49,16.29-10.58S206.59,268.32,204.42,276.07Z"/><path class="cls-8" d="M166.61,290.54a16.1,16.1,0,0,1-5-2.89l-.08-.07Z"/><path class="cls-8" d="M172.46,197a16.26,16.26,0,0,1-.82,6.66h.09L165.1,227.8l-23-4-5.77-1c-7.51-2.76-11.63-10.35-9.23-17s10.51-9.86,18.07-7.13a16.88,16.88,0,0,1,1.74.75,1.52,1.52,0,0,1,0-.21c-.68-8,4.5-15,11.57-15.6S171.78,189,172.46,197Z"/><path class="cls-8" d="M142.08,223.76a15.78,15.78,0,0,1-5.67-1l-.1,0Z"/><path class="cls-8" d="M468.05,169.45a16.24,16.24,0,0,1-6.07,2.84l.06.07-24,7.23L429.23,158,427,152.53c-1.65-7.83,2.58-15.36,9.49-16.86s13.93,3.66,15.64,11.51a15.57,15.57,0,0,1,.29,1.88l.17-.14c6.43-4.84,15.1-4.16,19.36,1.51S474.48,164.62,468.05,169.45Z"/><path class="cls-8" d="M429.23,158a16.45,16.45,0,0,1-2.19-5.32s0-.07,0-.1Z"/><path class="cls-8" d="M355.65,116.83a16.16,16.16,0,0,1-4.61,4.86l.08,0-19.69,15.48-16.12-16.93-4-4.23c-4.4-6.69-3.21-15.24,2.67-19.16s14.31-1.69,18.77,5a15.12,15.12,0,0,1,.95,1.64l.11-.19C338,96.5,346.32,94,352.36,97.68S359.87,110,355.65,116.83Z"/><path class="cls-8" d="M315.31,120.29a16.1,16.1,0,0,1-4-4.15.35.35,0,0,1-.05-.08Z"/><path class="cls-8" d="M214.57,111.7a16,16,0,0,1-2.2,6.33h.09l-11.59,22.21-21.64-8.82-5.43-2.2c-6.75-4.29-9.18-12.58-5.43-18.56s12.36-7.42,19.17-3.15a14.28,14.28,0,0,1,1.54,1.1,1.8,1.8,0,0,1,0-.22c1-8,7.57-13.71,14.61-12.8S215.61,103.72,214.57,111.7Z"/><path class="cls-8" d="M179.23,131.43a16.14,16.14,0,0,1-5.34-2.14l-.09-.06Z"/><path class="cls-11" d="M1224.87,370.25v17.46l-.77,9-.12,1.55-1,13-.27,4-.5,7.23-.78,9.07-.36,4.28v3.1l-.18.28-1.55,2.58-2.88,1.4-45.8,16-17.06,5.9-14,4.19-4,.57-3.48-.34-3.33-.58-4-2.79-5.66-5.69-4.34-5.93-4.61-6.63-4.61-8h0l-1-1.77-2.3-4.18-2.31-4.49-2.84-5.64-1.79-4.15-2.23-6-1.14-4.81v-20l.84-6.23.72-5.06.7-6.11v-2.71h0l0-4.21,0-5.2v-4.76l-.71-3.73,2.17,1.37h5.68l-2.58-5.21-3.1-7V328.37L1099,334l6.74,6.24,1.53.65.5-1.05v1.27l4.73,2,.67.27.49-.93.13,1.18,4.37,1.8,1,.25.3-.53,0,.6,5.11,1.26,6.68-.11-1.49-6.69-.86-6.24v-8.27l2.35-11.61,2,10.16,2,8.85,3.76,6.53,3.68,4.64,4,4.34,5.18,1.76-3.75-6.39-3.44-8.7-1.72-8.71.29-6.09.86-7.84,2.3-7.84,2.58-6.67,4.31-6.68,4.62-5.66.29,0-3.47,10.87-1.44,7.54-.86,8.71v5.73l.57,8.78,2.3,6.53,3.1,6,4.08,5.51,6.64,4.64-5.49-8.41-2.95-9-2.28-6.67V311.53l2.28,11.91L1167,334l5,5.66,7.12,5.52,4.79,2.07a28.74,28.74,0,0,1,6.12-.25,12,12,0,0,1,10.79,7.62h6.34l2.58-1.32,6.61,1.32-2.87-4.22-6.61-8.12-4-7,19.75,16.83Z"/><polygon class="cls-11" points="1212.48 500.3 1210.28 505.07 1205.73 507.48 1205.67 507.5 1203.68 508.56 1200.92 509.5 1200.91 509.5 1197.07 510.79 1181.96 510.79 1175.66 508.89 1172.43 507.89 1172.09 507.79 1172.08 507.79 1168.42 506.65 1166.1 505.18 1166.07 505.17 1158.36 500.3 1161.51 492.35 1163.39 483.13 1163.39 473.9 1164.96 464.68 1164.96 461.18 1208.08 446.24 1206.82 453.87 1205.88 462.13 1205.88 469.13 1206.51 474.54 1208.08 483.76 1204.93 485.98 1201.79 487.57 1197.07 488.21 1199.17 489.35 1200.08 489.85 1201.15 490.44 1205.88 490.76 1209.34 490.44 1209.34 494.57 1212.48 500.3"/><polygon class="cls-2" points="1118.7 428.58 1117.13 433.35 1116.7 435.75 1116.7 437.69 1117.16 439.27 1118.26 441.03 1119.82 442.24 1121.29 442.98 1123.76 443.35 1125.51 443.35 1128.17 443.35 1130.09 442.98 1132.85 442.33 1135.32 441.59 1137.89 440.38 1140 439.36 1143.12 437.6 1146.06 435.96 1148.26 434.36 1150.83 432.32 1152.57 430.83 1154.68 429.07 1156.24 427.22 1157.62 425.55 1159.09 424.06 1159.91 422.4 1161.1 420.73 1161.75 418.69 1158.35 421.28 1156.88 422.03 1154.96 423.32 1153.4 424.44 1151.56 425.36 1149.82 426.2 1147.8 427.03 1145.96 427.77 1143.95 428.7 1141.84 429.35 1139.22 430.09 1137.25 431.02 1135.32 431.57 1133.3 431.94 1131.47 432.13 1129.73 432.41 1127.8 432.69 1126.24 432.87 1124.68 432.87 1123.3 432.59 1122.2 432.04 1121.47 431.02 1120.73 429.81 1118.7 428.58"/><path class="cls-2" d="M1120.09,428.63l-1.39-.05Z"/><polygon class="cls-2" points="1120.73 429.81 1120.09 428.63 1115.25 425.38 1113.59 423.55 1112.44 422.02 1111.66 420.92 1110.94 419.66 1110.37 418.3 1109.95 417.14 1109.74 415.52 1110.05 414.05 1110.73 413.05 1111.4 412.37 1112.23 411.69 1112.96 411.32 1114 410.74 1115.92 410.43 1117.32 410.43 1118.7 410.43 1120.39 410.43 1121.94 410.43 1123.66 410.74 1125.58 411.22 1127.14 411.58 1128.59 411.95 1130.46 412.53 1132.49 413.26 1134.41 413.84 1136.28 414.57 1138.15 415.31 1140.28 415.99 1142.46 416.73 1144.64 417.3 1147.03 417.67 1149 417.88 1151.75 418.25 1153.93 418.35 1155.7 418.4 1157.36 418.69 1159.07 418.69 1160.48 418.69 1160.64 419.54 1159.5 420.41 1158.35 421.28 1152.48 421.61 1151.23 421.71 1149.1 421.81 1145.73 421.76 1142.92 421.5 1140.38 421.19 1132.95 420.82 1130.51 420.66 1128.8 420.45 1127.14 420.4 1125.48 420.12 1124.18 420.12 1122.72 420.12 1121.11 420.12 1120.09 420.12 1118.7 420.4 1117.63 420.12 1118.1 421.5 1119.09 423.34 1120.09 425.38 1120.65 427.17 1121.22 428.63 1121.94 430.63 1122.2 432.04 1120.73 429.81"/><polygon class="cls-2" points="1119.71 429.19 1118.7 428.58 1116.44 426.75 1115.25 425.38 1120.09 428.63 1120.73 429.81 1119.71 429.19"/><polygon class="cls-2" points="1161.75 418.69 1160.48 418.69 1160.64 419.54 1161.75 418.69"/><polygon class="cls-7" points="1117.63 420.12 1119.39 423.96 1120.65 427.17 1121.47 429.33 1122.2 432.04 1123.3 432.59 1126.24 432.87 1127.8 432.69 1129.73 432.41 1131.47 432.13 1133.3 431.94 1135.32 431.57 1137.92 430.7 1142.68 428.95 1147.8 427.03 1150.33 425.95 1152.48 424.9 1154.04 423.98 1155.76 422.78 1158.35 421.28 1155.89 421.23 1152.38 421.01 1149.57 421.23 1147.44 421.23 1144.38 421.61 1140.38 421.19 1137.37 421.06 1134.5 420.91 1130.11 420.56 1128.8 420.45 1125.96 420.12 1124.18 420.12 1117.63 420.12"/><polygon class="cls-7" points="1143.95 428.7 1145.96 427.77 1140.97 429.58 1143.95 428.7"/><path class="cls-7" d="M1118.07,385.06c-14.23-1.56-22.27-8.47-24-16.35h0a14.91,14.91,0,0,1-.32-2.59,37.63,37.63,0,0,1,.32-6.82v0a19.61,19.61,0,0,1,2.31-7.09h4.82l-1.68-3.4a9.3,9.3,0,0,1,2.82-1.28,11.29,11.29,0,0,1,2.17-.37c.35,0,.71,0,1.06,0a20.92,20.92,0,0,1,2.62.09,24.83,24.83,0,0,1,2.66.41c.48.1,1,.23,1.46.37a21.4,21.4,0,0,1,3.74,1.45,20.35,20.35,0,0,1,1.92,1.08,21.05,21.05,0,0,1,2.31,1.67,21.52,21.52,0,0,1,2.29,2.2,22.11,22.11,0,0,1,2.27,2.89,29.63,29.63,0,0,1,3.54,7.5C1132.72,378.33,1133.83,386.78,1118.07,385.06Z"/><path class="cls-12" d="M1124.5,363.64c-.21,8-7.34,15.69-15.46,13.83s-13.54-5-14.12-16.21c-.22-4.12.45-7.07,1.83-9.09h4.5l-1.29-2.61c2.45-1.08,5.67-1.13,9.47-.43C1118.63,350.82,1124.73,355.66,1124.5,363.64Z"/><ellipse cx="1109.69" cy="364.83" rx="8.44" ry="8.23"/><ellipse class="cls-7" cx="1108.76" cy="365.96" rx="1.95" ry="1.97"/><ellipse class="cls-7" cx="1105.71" cy="363.99" rx="0.94" ry="0.95"/><path class="cls-7" d="M1203,368.08c-.39,9.88-10.14,19.11-29,21s-17.48-7.45-12.35-22.53a31.56,31.56,0,0,1,1.8-4.29,23.32,23.32,0,0,1,1.38-2.46,26.6,26.6,0,0,1,2.78-3.75,17.54,17.54,0,0,1,1.33-1.39c.58-.58,1.19-1.12,1.8-1.63a26,26,0,0,1,3.75-2.54c.55-.31,1.11-.61,1.67-.86a26.06,26.06,0,0,1,3-1.22,27.52,27.52,0,0,1,4.79-1.14,28.74,28.74,0,0,1,6.12-.25,12,12,0,0,1,10.79,7.62h0C1202.65,358.51,1203.16,363.36,1203,368.08Z"/><path class="cls-12" d="M1169.09,365.31c.23,8.87,7.89,17.43,16.61,15.36s14.54-5.58,15.16-18-5.7-15.36-15.58-13.48S1168.85,356.44,1169.09,365.31Z"/><ellipse cx="1180.68" cy="364.83" rx="8.59" ry="8.68"/><ellipse class="cls-7" cx="1183.01" cy="366.18" rx="2.33" ry="2.18"/><ellipse class="cls-7" cx="1178.09" cy="363.99" rx="1.12" ry="1.05"/><path class="cls-13" d="M1239,270.55l-.38,3.57A28,28,0,0,1,1239,270.55Z"/><path class="cls-13" d="M1238.59,274.12l.71,8c-.06-.27-.12-.53-.17-.81a5.27,5.27,0,0,1-.15-.81c0-.21-.07-.42-.1-.64a8.28,8.28,0,0,1-.13-1c0-.16,0-.33,0-.49,0-.39-.08-.79-.1-1.18v0c0-.52,0-1.05,0-1.57S1238.57,274.61,1238.59,274.12Z"/><path class="cls-13" d="M1241.16,287.8a28.85,28.85,0,0,1-1.11-2.93c-.28-.89-.53-1.79-.74-2.69Z"/><path class="cls-13" d="M1244.43,293.6a32.72,32.72,0,0,1-3.27-5.78Z"/><polygon class="cls-13" points="1244.44 293.61 1244.44 293.62 1244.43 293.61 1244.44 293.61"/><path class="cls-13" d="M1266,340.7l4.38,3.64c-.38-.27-.76-.54-1.13-.82a.05.05,0,0,1,0,0c-.37-.28-.74-.57-1.11-.88C1267.32,342,1266.63,341.36,1266,340.7Z"/><path class="cls-13" d="M1270.46,344.42l4.18,2.54c-.36-.18-.73-.38-1.09-.59s-.66-.38-1-.58l-.09-.05C1271.77,345.31,1271.11,344.88,1270.46,344.42Z"/><path class="cls-13" d="M1274.71,347l5.12,2.22A41.38,41.38,0,0,1,1274.71,347Z"/><path class="cls-13" d="M1292,351.54a43.15,43.15,0,0,1-12.16-2.33Z"/><path class="cls-2" d="M1321.06,274.57c-1.22-17.83-18.17-32.51-39.59-33.52s-39.58,11.93-42.5,29.5l-.38,3.57.71,8v0a7.34,7.34,0,0,1-.17-.84,5.27,5.27,0,0,1-.15-.81,4.49,4.49,0,0,1-.1-.64,8.28,8.28,0,0,1-.13-1,4.07,4.07,0,0,1,0-.49c0-.39-.07-.79-.1-1.18v0c0-.51,0-1.05,0-1.57s0-1,0-1.45a28,28,0,0,1,.38-3.57l-8.47-4.14-5.81-2.54-8.14-2.69-8.62-2.05-10.66-1.74L1184,255.33l-11.91-1h-26.8l-6.29.86-5.84,2.24-6.7,2.58,6.52-3,6-1.78-3.51-5.83-5.26-5.32L1123.4,240l-8.27-2.54-8.49-1h-7.06l-8.77,2.28-7.27,3.29-6.78,4.57-5.51,5.07L1067,257l-2.26,5.06-1.75,5.57-.76,5.58-.5,4-4,4.06-3.76,6.33-1.76,7.65V311l2.51,6.08,2.26,5.14,4.76,5.5,4.76,4.05,4.77,2.28h8.52l3.4,6.82,2.87,4.36,4,3.46,3.33,2.13,2.17,1.37h5.68l-2.58-5.21-3.1-7V328.37L1099,334l6.74,6.24,1.53.65.5-1.05v1.27l4.73,2,.67.27.49-.93.13,1.18,4.37,1.8,1,.25.3-.53,0,.6,5.11,1.26,6.68-.11-1.49-6.69-.86-6.24v-8.27l2.35-11.61,2,10.16,2,8.85,3.76,6.53,3.68,4.64,4,4.34,5.18,1.76-3.75-6.39-3.44-8.7-1.72-8.71.29-6.09.86-7.84,2.3-7.84,2.58-6.67,4.31-6.68,4.62-5.66.49-.59-.2.61-3.47,10.87-1.44,7.54-.86,8.71v5.73l.57,8.78,2.3,6.53,3.1,6,4.08,5.51,6.64,4.64-5.49-8.41-2.95-9-2.28-6.67V311.53l2.28,11.91L1167,334l5,5.66,7.12,5.52,4.79,2.07a28.74,28.74,0,0,1,6.12-.25,12,12,0,0,1,10.79,7.62h6.34l2.58-1.32,6.61,1.32-2.87-4.22-6.61-8.12-4-7,19.75,16.83,2.11,18.08.09.83V381l-.09,1.7v5l-.77,9-.12,1.55-.07,1.18v0l-1.1,19.27-.14,2.54-.78,11.64-.85,6,1-.94-1,2.37v11.77l-1.77,7.29-1.67,7-2.23,6.46-2.89,7.1-4.4,3.83-3.15,2.22-3.14,1.59-4.73.64,2.11,1.14.9.5,1.08.59,4.73.32,3.46-.32v1.42l8.26-1.07,5.55-2,5-3.37,4.16-4.21,5.84-8.42,2.49-5.05,2.22-4.78,1.67-5.61v-5.33l1.4-11.09,1.38,11.09v5.61l-1.94,6.46-1.67,5.66-4.44,8.38,6.39-4.78,1.66-4.77,2.78-5.05,1.39-5.34v-7.29l1.38-4.5V422.87l-1.11-4.18,1.11-2.84-.62-5.42,6.91-5.56,5.4-5.82,5.75-7,5-6.77,4.54-7.53,4.69-7.45,1.53-5.26,3.07-8.45,2.87-5.06a43.15,43.15,0,0,1-12.16-2.33l12.16,2.33c19.8.94,36.47-11.44,37.21-27.64a24.72,24.72,0,0,0-2.65-12.31,24.21,24.21,0,0,0-5.5-37Zm-214.42-2.36,3.06-2.1-5.58,4.43Zm-11.76,12.17,1.74-2-2.85,4Zm-16.36,42.3-.24-4.48,1.49-6.15Zm2.59-15.58.67-2.5,1-2.37Zm163.32-17.49h0ZM1254.1,334l7.1,4.54.49.24,4.24,1.87c-.42-.15-.83-.31-1.24-.49s-.62-.25-.92-.39a41.12,41.12,0,0,1-7.83-4.39l-.32-.22c-.51-.37-1-.77-1.52-1.16a40.68,40.68,0,0,1-3.71-3.34Zm-12.94-46.21,3.27,5.78A32.72,32.72,0,0,1,1241.16,287.82Zm-1.11-2.95a25.53,25.53,0,0,1-.74-2.69l1.85,5.62A28.85,28.85,0,0,1,1240.05,284.87Zm2.78,34.15,0,0v0c-.13-.33-.25-.66-.36-1s-.28-.79-.39-1.19a29.82,29.82,0,0,1-1.29-9.06c0-.36,0-.73,0-1.09l.08,3.56c0,.1,0,.2,0,.3l1.92,8.46a.06.06,0,0,0,0,0l3.34,6.44,4.21,5.2a35.35,35.35,0,0,1-4.21-5.2A31.77,31.77,0,0,1,1242.83,319Zm22.47,53.8-3.88,5.63-5.54,4-4.4,2.61-4.08,3.66-2.19-26.74,4.3-3.76,6.24-2,5,1.27,4.53,3.1.66,5.6Zm3.91-29.3a.05.05,0,0,1,0,0c-.37-.28-.74-.57-1.11-.88-.73-.6-1.42-1.24-2.09-1.9l4.38,3.64C1270,344.08,1269.57,343.81,1269.21,343.52Zm4.34,2.85c-.33-.18-.66-.38-1-.58l-.09-.05c-.7-.41-1.36-.85-2-1.32l4.18,2.54C1274.28,346.78,1273.91,346.58,1273.55,346.37Zm1.16.62,5.12,2.22A41.38,41.38,0,0,1,1274.71,347Z"/><path class="cls-13" d="M1240.79,306.65l.08,3.56c-.07-.81-.1-1.64-.1-2.47C1240.77,307.38,1240.77,307,1240.79,306.65Z"/><path class="cls-13" d="M1240.87,310.21c0,.1,0,.2,0,.3l0-.09Z"/><path class="cls-13" d="M1240.89,310.51l1.92,8.46c-.13-.33-.25-.66-.36-1s-.28-.79-.39-1.19A30.35,30.35,0,0,1,1240.89,310.51Z"/><path class="cls-13" d="M1242.81,319a.06.06,0,0,0,0,0l0,0Z"/><polygon class="cls-13" points="1244.44 293.62 1244.43 293.61 1244.44 293.61 1244.44 293.62"/><path class="cls-13" d="M1242.83,319l3.34,6.44A31.77,31.77,0,0,1,1242.83,319Z"/><path class="cls-13" d="M1246.17,325.46l4.21,5.2A35.35,35.35,0,0,1,1246.17,325.46Z"/><path class="cls-13" d="M1250.39,330.69l3.71,3.34A40.68,40.68,0,0,1,1250.39,330.69Z"/><path class="cls-13" d="M1254.1,334l7.1,4.54a45.78,45.78,0,0,1-5.26-3.16l-.32-.22Z"/><path class="cls-13" d="M1261.2,338.57l.49.24-.32-.13Z"/><path class="cls-13" d="M1265.93,340.68c-.42-.15-.83-.31-1.24-.49l-.92-.39c-.7-.32-1.4-.64-2.08-1Z"/><polygon class="cls-13" points="1079.77 316.05 1078.52 326.69 1078.28 322.2 1079.77 316.05"/><polygon class="cls-13" points="1079.77 316.05 1078.52 326.69 1078.28 322.2 1079.77 316.05"/><polygon class="cls-13" points="1107.74 339.88 1107.75 341.14 1107.24 340.92 1107.74 339.88"/><polygon class="cls-13" points="1113.64 342.51 1113.77 343.69 1113.15 343.44 1113.64 342.51"/><polygon class="cls-13" points="1119.43 345.21 1119.4 345.81 1119.13 345.74 1119.43 345.21"/><polygon class="cls-13" points="1222.07 437.92 1221.04 440.29 1221.04 440.74 1220.73 440.97 1221.04 438.86 1222.07 437.92"/><path class="cls-13" d="M1200.91,354.65l-1.17-.52-9.15-4-3-1.31-3.57-1.54a28.74,28.74,0,0,1,6.12-.25A12,12,0,0,1,1200.91,354.65Z"/><polygon class="cls-13" points="1224.87 382.68 1224.87 387.71 1224.1 396.67 1223.98 398.22 1224.87 382.68"/><path class="cls-13" d="M1239,270.55l-.38,3.57A28,28,0,0,1,1239,270.55Z"/><path class="cls-13" d="M1241.16,287.8a28.85,28.85,0,0,1-1.11-2.93c-.28-.89-.53-1.79-.74-2.69Z"/><path class="cls-13" d="M1239.3,282.11c-.06-.27-.12-.53-.17-.81a5.27,5.27,0,0,1-.15-.81c0-.21-.07-.42-.1-.64a8.28,8.28,0,0,1-.13-1c0-.16,0-.33,0-.49,0-.39-.08-.79-.1-1.18v0c0-.52,0-1.05,0-1.57s0-1,0-1.45Z"/><path class="cls-13" d="M1244.43,293.6a32.72,32.72,0,0,1-3.27-5.78Z"/><polygon class="cls-13" points="1244.44 293.61 1244.44 293.62 1244.43 293.61 1244.44 293.61"/><path class="cls-13" d="M1240.89,310.51l0-.09v-.21C1240.87,310.31,1240.88,310.41,1240.89,310.51Z"/><path class="cls-13" d="M1246.17,325.46a31.77,31.77,0,0,1-3.34-6.44Z"/><path class="cls-13" d="M1242.83,319l0,0v0A.06.06,0,0,0,1242.83,319Z"/><path class="cls-13" d="M1240.87,310.21c-.07-.81-.1-1.64-.1-2.47,0-.36,0-.73,0-1.09Z"/><path class="cls-13" d="M1242.81,319c-.13-.33-.25-.66-.36-1s-.28-.79-.39-1.19a30.35,30.35,0,0,1-1.17-6.29Z"/><path class="cls-13" d="M1250.38,330.66a35.35,35.35,0,0,1-4.21-5.2Z"/><path class="cls-13" d="M1254.1,334a40.68,40.68,0,0,1-3.71-3.34Z"/><path class="cls-13" d="M1265.93,340.68c-.42-.15-.83-.31-1.24-.49l-.92-.39c-.7-.32-1.4-.64-2.08-1Z"/><path class="cls-13" d="M1261.2,338.57a45.78,45.78,0,0,1-5.26-3.16l-.32-.22L1254.1,334Z"/><path class="cls-13" d="M1261.69,338.81l-.32-.13-.17-.11Z"/><polygon class="cls-13" points="1265.96 366.14 1265.3 372.82 1261.42 378.45 1255.88 382.41 1251.48 385.02 1247.4 388.68 1245.21 361.94 1249.51 358.18 1255.75 356.17 1260.77 357.44 1265.3 360.54 1265.96 366.14"/><path class="cls-13" d="M1274.64,347c-.36-.18-.73-.38-1.09-.59s-.66-.38-1-.58l-.09-.05c-.7-.43-1.36-.86-2-1.32Z"/><path class="cls-13" d="M1270.34,344.34c-.38-.27-.76-.54-1.13-.82a.05.05,0,0,1,0,0c-.37-.28-.74-.57-1.11-.88-.73-.6-1.42-1.24-2.09-1.9Z"/><path class="cls-13" d="M1279.83,349.21a41.38,41.38,0,0,1-5.12-2.22Z"/><path class="cls-13" d="M1292,351.54a43.15,43.15,0,0,1-12.16-2.33Z"/><path class="cls-7" d="M1242.81,319v0l0,0A.06.06,0,0,1,1242.81,319Z"/><polygon class="cls-13" points="1209.34 490.44 1209.34 491.86 1205.88 492.18 1201.15 491.86 1197.07 489.63 1199.17 489.35 1200.08 489.85 1201.15 490.44 1205.88 490.76 1209.34 490.44"/><polygon class="cls-13" points="1222.07 437.92 1221.04 440.29 1221.04 438.86 1222.07 437.92"/><polygon class="cls-2" points="1105.48 439.84 1105.48 446.97 1104.67 457.13 1103.66 464.58 1102.99 473.05 1101.48 481.18 1099.47 485.75 1096.62 490.49 1093.61 493.71 1090.59 495.4 1086.57 497.27 1084.72 497.27 1087.4 500.15 1091.85 500.82 1096.29 500.82 1099.64 500.82 1105.48 499.64 1109.74 497.27 1114.22 493.88 1116.7 490.83 1119.39 487.11 1122.1 482.87 1124.11 478.64 1124.11 482.36 1124.11 486.6 1122.44 489.65 1120.73 492.18 1119.39 494.56 1122.27 493.03 1124.95 489.99 1126.8 486.6 1127.8 484.06 1127.8 481.69 1127.8 479.31 1127.8 475.59 1128.64 471.86 1128.72 468.87 1105.48 439.84"/><polygon class="cls-14" points="1154.54 505.58 1156.03 504.08 1157.52 502.03 1158.35 500.3 1166.08 505.17 1172.09 507.78 1181.96 510.79 1190.46 510.79 1197.07 510.79 1200.9 509.5 1205.72 507.48 1210.28 505.07 1212.49 500.3 1216.27 503.26 1219.51 505.54 1215.73 509.54 1209.38 513.77 1201.82 517.46 1195.07 519.23 1188.04 520.18 1180.34 520.18 1174.13 518.68 1167.64 516.36 1161.97 513.09 1158.35 510.24 1154.54 505.58"/><polygon class="cls-15" points="1154.54 505.58 1151.17 506.67 1147.52 507.36 1144.55 508.17 1120.37 546.39 1123.07 548.44 1130.37 551.17 1136.44 553.21 1144.55 555.4 1153.73 557.44 1162.51 558.95 1171.29 559.9 1177.37 559.9 1187.77 559.9 1192.9 559.9 1194.66 558.67 1187.91 549.94 1186.29 545.84 1185.42 542.29 1185.42 540.11 1187.03 539.29 1188.72 539.29 1191.15 540.52 1193.17 542.43 1196.28 545.3 1201.95 550.48 1203.03 548.44 1204.65 547.07 1206.55 545.71 1208.44 544.89 1209.92 544.89 1209.92 543.25 1209.92 541.61 1211.81 540.38 1213.43 538.88 1215.33 537.52 1216.95 537.38 1219.51 537.65 1219.51 535.88 1221.81 533.42 1224.97 530.28 1229.1 526.46 1231.94 524.55 1233.02 522.64 1234.91 520.18 1237.61 517.86 1240.45 514.73 1228.97 510.24 1223.43 507.76 1219.51 505.54 1215.73 509.54 1211 512 1204.38 515.27 1197.9 517.18 1192.09 518.41 1186.15 518.41 1179.87 517.73 1173.72 515.41 1166.97 512.81 1161.3 510.24 1154.54 505.58"/><polygon class="cls-15" points="1252.22 519.37 1241.33 529.59 1246.13 533.91 1252.87 540.72 1256.11 545.04 1259.35 550.54 1241.98 587.47 1243.92 591.53 1244.18 594.54 1244.83 598.6 1245.09 600.96 1248.72 600.3 1252.61 599.65 1256.11 599.39 1259.35 598.21 1263.49 595.98 1267.64 594.02 1273.21 592.58 1277.75 590.48 1282.29 587.99 1286.43 586.16 1284.49 572.93 1282.29 564.16 1280.21 556.43 1279.05 551.2 1276.06 546.09 1272.95 542.29 1270.23 536.13 1267.77 531.95 1264.66 528.28 1260.77 523.43 1256.49 520.95 1252.22 519.37"/><polygon class="cls-15" points="1092.09 561.08 1107.2 547.37 1131.54 509.54 1125.19 510.79 1120.37 511.78 1114.13 513.82 1109.22 515.86 1105.47 517.9 1102.1 520.63 1099.4 523.25 1097.77 526.17 1096.61 529.47 1095.75 532.72 1095.17 537.25 1094.3 543.28 1093.92 549.31 1093.44 553.3 1092.09 561.08"/><path class="cls-14" d="M1145.18,507.57l-13,1.37-3.89,6-7.89,12.25-12.57,19.53-15.11,13.71-5,6.85-3.38,5.58-.71,5.4v11.51l1.6,10.43,2.31,12.42,3,11.87.71,7.74v8.63l1.47,8.81,2.63,8.28,5,9.35,4.45,5,7.12,6.66,7.48,2.16,11.22,2.34,11.75,1.07,13.71.9,15-.9,12.11-1.07,9.79-1.62,8.72-2.7,7.3-4.14,3.92-6.48,3.2-6.29,4.28-10.8,2.67-12,2.49-10.79-15.1-32.13c1,2.2.88-8.5.88-8.5l-.44-13.46-15.54-16.51-9.24,1.23h-14.13L1159,557.63l-13.81-2.84L1131,550.56l-10-4.78Z"/><polygon class="cls-7" points="1168.75 571.71 1199.56 573.41 1195.76 585.07 1165.32 582.4 1168.75 571.71"/><polygon class="cls-15" points="1229.78 541.43 1229.78 539.82 1231.37 538.11 1232.46 537 1233.86 537 1237.14 539.22 1245.1 547.05 1242.91 547.05 1229.78 541.43"/><polygon class="cls-14" points="1231.94 524.55 1233.02 522.64 1234.91 520.18 1237.61 517.86 1240.45 514.73 1252.22 519.37 1248.77 522.61 1241.33 529.59 1239.63 528.79 1238.4 527.86 1237.1 526.85 1235.79 526 1234.41 525.3 1231.94 524.55"/><polygon class="cls-11" points="1248.72 600.3 1252.61 599.65 1256.11 599.39 1259.35 598.21 1263.49 595.98 1267.64 594.02 1271.34 593.06 1275.46 591.54 1279.9 589.3 1284.31 587.1 1290.94 618.76 1294.65 637.34 1297.35 652 1299.54 662.4 1301.74 673.31 1301.74 677.91 1298.03 673.65 1284.53 656.77 1277.61 648.42 1268.67 641.09 1259.22 633.42 1248.72 600.3"/><polygon class="cls-11" points="1301.74 677.91 1301.74 683.66 1301.74 690.19 1299.89 696.08 1297.05 700.7 1293.58 701.5 1284.59 699.11 1273.87 695.45 1264.57 690.51 1252.12 680.63 1241.33 665.98 1234.3 652.75 1229.26 640.49 1225.49 630.13 1223.83 625.14 1210.39 596.54 1210.83 574.58 1246.12 576.6 1237.44 599.54 1235.88 602.25 1235.72 605.28 1237.44 608.15 1242.97 615.79 1254.95 629.49 1259.22 633.42 1265.77 638.73 1271.35 644.47 1276.24 648.61 1281.91 655.35 1301.74 677.91"/><polygon class="cls-11" points="1210.83 574.58 1205.61 569.03 1200.35 563.44 1195.29 558.07 1192.61 556.02 1190.49 553.28 1188.74 551.02 1187.91 549.94 1186.76 547.05 1186 544.66 1185.42 542.29 1187.99 545.66 1189.5 546.54 1191.56 547.05 1193.39 547.05 1194.91 547.05 1195.99 546.21 1199.56 549.27 1202.8 552 1206.37 554.84 1209.93 557.57 1215.3 561.07 1216.64 561.94 1218.26 562.92 1224.53 566.31 1227.45 567.62 1226.15 566.09 1223.13 564.78 1219.56 562.82 1213.72 559.21 1212.1 557.9 1210.39 556.48 1208.31 555.06 1206.44 553.53 1204.96 552.44 1203.02 551.02 1201.95 550.48 1203.03 548.44 1205.62 546.38 1206.55 545.71 1208.44 544.89 1209.84 545.23 1211.5 545.63 1221.61 550.36 1237.44 557.02 1237.94 556.04 1224.21 550.69 1219.23 548.28 1214.8 546.32 1212.42 545.23 1211.13 544.68 1209.92 541.61 1211.81 540.38 1213.43 538.88 1215.33 537.52 1216.95 537.38 1223.67 539.43 1228.73 541.84 1230.8 542.82 1239.02 546.1 1242.91 547.05 1245.1 547.05 1243.89 545.87 1242.64 544.63 1241.33 543.35 1240.45 542.48 1239.46 541.5 1238.42 540.48 1237.14 539.22 1236 538.45 1233.86 537 1232.46 537 1231.37 538.11 1229.78 539.82 1229.78 541.43 1220.96 537.91 1219.51 537.65 1219.51 535.88 1220.71 534.6 1221.81 533.42 1224.97 530.28 1227.29 528.14 1229.1 526.46 1230.34 525.63 1231.94 524.55 1234.41 525.3 1235.79 526 1238.4 527.86 1239.63 528.79 1241.33 529.59 1244.81 532.72 1247.8 535.6 1250.07 537.89 1252.87 540.72 1253.85 542.03 1256.11 545.04 1257.29 547.05 1258.77 549.56 1259.35 550.54 1256.86 555.82 1255.47 558.78 1253.58 562.79 1251.74 566.72 1250.18 570.03 1248.72 573.14 1247.32 576.12 1245.9 579.13 1244.54 581.93 1243.12 584.55 1241.98 587.47 1210.83 574.58"/><polygon class="cls-2" points="1195.99 546.21 1194.88 544.88 1193.62 543.37 1192.68 542.37 1192.11 541.43 1191.15 540.52 1190.24 540.06 1189.33 539.6 1188.72 539.29 1187.03 539.29 1185.42 540.11 1185.42 542.29 1186.56 543.79 1187.45 544.96 1188.38 545.89 1189.5 546.54 1191.07 546.93 1192.35 547.05 1194.04 547.05 1194.91 547.05 1195.99 546.21"/><polygon class="cls-11" points="1087.51 612.66 1083.6 605.4 1075.38 589.42 1067.02 572.7 1061.2 561.08 1053.75 546.8 1052.11 541.66 1052.11 535.31 1034.3 536.88 1031.39 546.62 1033.75 547.35 1035.03 553.23 1036.66 559.9 1038.84 568.48 1041.39 578.39 1044.48 589.78 1046.66 597.5 1050.48 608.15 1053.57 617.15 1059.45 629.28 1061.93 636.07 1066.11 643.97 1070.65 650.77 1075.38 657.38 1078.65 661.05 1082.83 663.44 1085.92 663.44 1088.83 663.44 1091.38 662.16 1095.35 657.99 1091.25 640.9 1091.2 635.34 1090.83 630.75 1090.83 626.89 1090.54 624.53 1087.51 612.66"/><path class="cls-11" d="M1034.3,536.88l-1.55-2.48c-.55-.88-1.23-2-1.94-3.48a27,27,0,0,1-1.61-3.69,22.69,22.69,0,0,1-1-4,21.71,21.71,0,0,1-.22-2.93c0-1,.06-2,.22-4,.13-1.72.2-2.6.32-3.37a23.22,23.22,0,0,1,1.83-6.2s.39-.88,1.94-3.8h0a1.33,1.33,0,0,0-.22-1.09c-.43-.46-1.17-.09-2.36-.22a9.87,9.87,0,0,1-2.37-.87c-1.07-.46-1.86-.87-2.69-1.3-.64-.33-1.39-.73-2.37-1.31a27.72,27.72,0,0,1-2.69-1.74c-.32-.24-1-.81-2.36-2s-1.77-1.51-2.26-2a18,18,0,0,1-1.62-1.63c-.46-.56-.39-.57-1.18-1.63-.63-.85-.73-.91-1.51-2-.2-.28-.46-.65-1-1.41s-.58-.91-.53-1c.16-.23,1.21.51,3.12,1,.76.19.62.08,1.72.32a11.41,11.41,0,0,0,2.69.55,5.52,5.52,0,0,0,1.5-.22,3.19,3.19,0,0,0,1.19-.54,2.27,2.27,0,0,0,.86-1.31c.11-.67-.26-1.06-.11-1.19s1.08.68,2.47,1.52c1,.61,1,.42,2.8,1.3,1.18.59,1.18.68,2.8,1.53a16.08,16.08,0,0,0,2.58,1.19,15.72,15.72,0,0,0,2.58.44c1.9.23,1.94.14,3.23.32.72.1,1.59.29,3.34.65a25.38,25.38,0,0,0,2.79.55c1,.1,1.89.1,2.48.11,1.74,0,1.7-.13,2.15,0,.65.18.82.49,2.58,2.28,1.08,1.09,1.2,1.16,1.94,2a10.06,10.06,0,0,1,1.61,2c.4.87.25,1.44.22,3.26,0,1,0,1.87.1,3.7.12,2.49.26,2.48.33,4.57,0,.64,0,.48,0,3.69,0,2.9,0,2.68,0,3.15-.05,1.46-.14,1.69-.43,5-.16,1.79-.14,1.75-.33,3.8-.06.73-.17,1.87-.32,3.37-.11,1.09-.25,2.41-.43,3.91l-.32,1.63-.22,2Z"/><polygon class="cls-11" points="1009.19 484.83 1008.09 484.18 1007.3 483.39 1006.75 482.6 1006.38 481.71 1006.38 480.69 1007.53 479.85 1008.96 479.48 1010.44 479.48 1011.45 479.48 1013.11 479.8 1014.13 479.85 1015.6 480.41 1016.52 480.69 1017.44 481.29 1018.37 481.85 1019.24 482.46 1019.7 482.88 1020.16 483.42 1020.27 484.61 1019.87 485.47 1019.41 485.92 1018.66 486.32 1017.66 486.59 1016.72 486.68 1016.01 486.6 1015 486.46 1014.03 486.13 1012.31 485.81 1010.95 485.53 1009.19 484.83"/><polygon class="cls-11" points="1006.38 481.71 1002.86 477.62 1000.58 474.21 998.07 470.33 996.44 467.06 994.81 463.44 993.61 459.81 992.63 456.29 991.76 451.67 991.76 448.48 991.76 446.39 992.31 444.41 993.18 443.42 994.59 443.97 996.12 444.85 997.53 446.06 999.07 447.93 1001.34 450.02 1003.3 452.88 1005.8 457.61 1010.7 465.86 1013.33 470.33 1015.81 474.54 1017.66 476.74 1019.84 479.48 1021.36 480.15 1022.67 480.15 1023.21 478.83 1022.67 476.08 1020.71 466.95 1019.73 462.57 1019.08 458.93 1018.75 454.31 1018.97 450.57 1019.51 446.5 1020.27 442.43 1021.36 439.13 1022.34 436.38 1023.21 434.07 1024.08 432.43 1024.74 431.11 1025.83 430.45 1027.89 431.22 1028.55 432.43 1029.53 434.63 1029.53 437.48 1029.53 441.66 1030.29 446.06 1030.83 452 1030.83 455.52 1031.67 459.48 1031.67 462.45 1032.79 466.4 1033.88 469.7 1034.97 473.33 1036.38 476.41 1038.01 480.26 1039.54 482.57 1041.82 485.76 1043.89 488.07 1045.96 489.83 1047.38 491.03 1042.75 490.92 1037.9 489.83 1031.67 489.61 1025.93 488.07 1019.41 485.92 1014.03 486.13 1008.09 484.18 1006.38 481.71"/><polygon class="cls-11" points="1034.64 491.03 1046.5 491.81 1044.22 489.17 1035.95 488.51 1034.64 491.03"/><polygon class="cls-11" points="1017.34 483.89 1015 486.46 1020.27 488.51 1020.27 484.61 1017.34 483.89"/><polygon class="cls-2" points="991.76 451.67 991.14 449.16 990.84 447.2 990.53 445.12 990.53 443.52 990.53 441.93 991.15 440.77 992.11 440.77 993.5 440.77 994.72 441.2 995.93 442.24 997.57 444.02 999.15 446.22 1001.34 450.02 996.12 444.85 994.59 443.97 993.18 443.42 992.31 444.41 991.76 446.39 991.81 448.98 991.76 451.67"/><polyline class="cls-11" points="999.07 447.93 999.58 448.28 998.79 447.5 999.18 448.28 1000.65 449.64 1001.34 450.02 998.38 447.1"/><polygon class="cls-2" points="1024.44 434.72 1026.27 435.48 1027.2 435.87 1028.07 437.68 1029.38 440.98 1029.96 437.85 1029.96 434.72 1028.94 432.27 1027.92 429.96 1027.2 428.8 1025.32 428.8 1023.74 430.99 1022.95 432.52 1022.12 437.68 1024.44 434.72"/><polygon class="cls-11" points="1021.74 511.52 1021.33 509.65 1020.27 507.61 1019.57 505.9 1018.03 504.44 1016.66 502.81 1014.41 500.29 1012.23 498.33 1010.62 497.03 1007.48 495.07 1006.03 494.34 1004.58 493.69 1002.64 492.88 1002.64 491.81 1005.22 492.96 1006.99 493.85 1010.05 495.56 1011.18 496.13 1013.33 495.89 1017.25 494.4 1015 492.44 1013.38 490.81 1012.2 489.18 1011.19 487.88 1009.72 485.81 1007.88 485.06 1006.38 483.89 1005.38 482.62 1003.93 482.62 1001.6 482.62 998.78 484.57 995.72 487.42 992.41 491.03 990.56 493.94 990 495.97 990 497.68 991.36 499.63 995.47 501.67 1005.87 507.12 1009.89 509.48 1014.08 511.52 1013.33 510.14 1013.92 508.75 1014.65 507.77 1016.42 508.51 1018.03 509.16 1019.24 510.14 1021.74 511.52"/><polygon class="cls-2" points="1013.33 510.14 1014.08 511.52 1015.69 513.36 1018 515.64 1020.36 517.12 1022.33 517.51 1024.08 516.72 1024.08 515.75 1023.57 514.38 1022.44 512.62 1021.74 511.52 1019.97 510.14 1018.7 509.38 1018.03 509.16 1016.42 508.51 1014.65 507.77 1013.33 509.27 1013.33 510.14"/><polygon class="cls-11" points="1015.01 513.19 1013.04 511.83 1011.24 510.92 1008.93 509.55 1006.91 508.98 1004.77 508.36 1002.13 507.77 999.42 507.5 997.96 507.11 997.51 506.31 998.02 506.31 999.42 506.31 1001.51 506.99 1005.11 507.5 1005.87 507.12 1000.3 504.2 997.06 502.5 993.85 500.86 991.36 499.63 990 502.5 988.62 505.06 987.72 506.94 986.87 508.36 986.87 510.57 987.15 512.64 988.67 514.04 990.59 515.24 992.56 516.21 995.2 517.29 997.06 517.51 999.87 518.42 1001.73 518.71 1003.53 518.71 1006.12 518.93 1008.43 518.71 1007.59 517.51 1007.36 516.94 1007.7 516.21 1008.71 515.92 1009.78 515.69 1011.64 515.64 1013.33 515.58 1014.62 515.86 1016.93 516.83 1017.55 517.06 1018 515.64 1016.87 514.61 1015.69 513.36 1015.01 513.19"/><polygon class="cls-2" points="1008.43 518.71 1007.59 517.51 1007.36 516.94 1007.7 516.21 1009.78 515.69 1013.33 515.58 1014.62 515.86 1015.74 516.33 1017.55 517.06 1018.7 518.14 1019.12 518.93 1019.12 519.96 1018 520.81 1016.36 521.21 1014.62 521.21 1012.93 521.21 1011.36 520.7 1010.17 520.3 1009.17 519.67 1008.43 518.71"/><polygon class="cls-11" points="1017.16 494.7 1013.33 496.17 1010.29 496.44 1011.24 497.22 1013.33 499 1014.18 499.63 1014.98 500.57 1016.66 502.81 1018.48 504.54 1019.57 505.9 1020.54 508.13 1021.74 510.14 1021.74 511.52 1022.27 512.35 1023.06 513.59 1023.57 514.38 1024.08 515.75 1024.08 516.72 1022.33 517.51 1020.36 517.12 1019.27 516.43 1018 515.64 1017.55 517.06 1018.7 518.14 1019.12 518.93 1019.12 519.96 1018 520.81 1016.36 521.21 1014.62 521.21 1012.93 521.21 1010.17 520.3 1009.17 519.67 1008.43 518.71 1006.12 518.93 1003.53 518.71 1001.73 518.71 1003.99 523.88 1005.12 526.38 1006.39 528.9 1007.78 530.78 1012.49 536.58 1016.6 540.49 1021.74 543.68 1025.4 545.3 1031.39 546.62 1033.61 537.96 1032.96 536.15 1032.02 534.7 1031.39 533.29 1030.78 532.14 1030.23 530.84 1029.69 529.53 1029.09 528.33 1028.64 527.38 1028.25 526.02 1028 525.02 1027.7 523.82 1027.4 522.12 1027.26 518.93 1027.55 515.3 1027.9 512.64 1028.79 509.28 1030.63 504.62 1031.37 502.81 1029.64 502.26 1028.2 501.76 1026.76 501.16 1025.52 500.56 1024.08 499.63 1022.74 498.9 1021.45 498.15 1020.16 497.35 1019.12 496.6 1018 495.75 1017.16 494.7"/><polygon class="cls-11" points="1032.96 536.15 1034.87 537.32 1032.28 546.9 1030.43 546.41 1032.96 536.15"/><polyline class="cls-15" points="1179.87 683.83 1171.01 684.62 1161.41 684.43 1154.54 684.26 1147.88 684.43 1142.35 684.62 1130.6 683.53 1119.38 681.2 1111.9 679.04 1111.19 690.07 1121.16 694.68 1134.52 697.59 1146.87 699.64 1160.06 699.64 1174.27 699.64 1185.43 698.78 1195.4 696.73 1202.85 694.68 1207.58 692.12 1211.64 689.34 1208.93 675.08 1201.63 679.22"/><polygon class="cls-7" points="1114.66 691.67 1121.16 694.68 1129.58 696.51 1139.42 698.4 1146.87 699.64 1154.54 699.64 1166.82 699.64 1174.27 699.64 1185.43 698.78 1193.74 697.07 1200.97 695.65 1202.85 694.68 1210.39 696.97 1219.4 702.89 1230.93 714.54 1240.35 725.54 1248.72 736.76 1264.16 761.95 1275.23 783.26 1281.97 800.52 1285.24 810.81 1289.24 823.3 1291.42 832.48 1293.24 838.72 1288.15 844.23 1273.24 850.11 1248.72 854.52 1213.99 858.93 1182.73 860.76 1155.83 860.76 1134.38 860.76 1114.66 858.56 1095.48 855.62 1088.57 853.78 1079.48 849.01 1082.03 819.99 1085.3 786.93 1088.21 766.73 1094.75 738.81 1100.57 721.18 1107.84 704.65 1114.66 691.67"/><polygon class="cls-14" points="1111.19 690.07 1114.66 691.67 1109.49 701.5 1103.11 715.42 1098.68 726.92 1094.75 738.81 1091.21 753.95 1088.73 764.52 1086.54 778.3 1084.71 792.86 1083.6 806.57 1082.33 816.98 1080.64 835.81 1079.48 849.01 1084.92 851.86 1093.07 854.98 1102.21 856.65 1114.66 858.56 1124.84 859.7 1134.38 860.76 1145.76 860.76 1158.01 860.76 1169.38 860.76 1182.73 860.76 1194.11 860.1 1209.25 859.21 1221.28 858 1233.54 856.45 1248.72 854.52 1263.59 851.85 1275.29 849.31 1282.5 846.46 1288.15 844.23 1293.24 838.72 1290.16 827.16 1286.38 814.36 1283.25 804.54 1279.64 794.56 1276.07 785.42 1271.15 775.41 1266.42 766.32 1259.78 754.82 1253.93 745.26 1248.72 736.76 1242.09 727.88 1235.1 719.41 1228.54 712.12 1222.18 705.7 1214.45 699.64 1210.39 696.97 1202.85 694.68 1210.57 690.07 1215.72 690.07 1225.49 695.35 1233.99 701.5 1241.12 707.5 1247.59 713.81 1254.49 720.34 1262.07 729.12 1268.98 737.22 1276.11 747.35 1282.57 756.81 1288.59 766.94 1293.24 781.8 1319.94 857.19 1332.41 894.23 1328.38 899.42 1315.91 904.61 1301.74 907.2 1264.95 911.27 1229.39 913.87 1202.63 913.87 1179.21 913.87 1157.53 913.87 1137.73 913.87 1115.37 911.27 1098.14 908.68 1076.14 904.61 1072.11 876.82 1069.54 845.33 1069.54 804.58 1072.47 780.13 1076.14 758.28 1082.01 740.86 1088.97 724.56 1095.35 708.26 1101.07 701.5 1111.19 690.07"/><polygon class="cls-13" points="1223.91 399.42 1222.81 418.69 1222.67 421.23 1221.89 432.87 1221.04 438.86 1222.07 437.92 1221.04 440.29 1220.73 440.97 1220.86 439.14 1221.04 436.69 1221.4 431.48 1221.44 431.02 1222.68 415.18 1223.91 399.42"/><polygon class="cls-13" points="1200.08 489.85 1197.07 489.63 1196.08 488.83 1197.07 488.21 1199.17 489.35 1200.08 489.85"/><polygon class="cls-13" points="1208.08 483.76 1204.93 485.98 1201.79 487.57 1208.08 483.76"/><polygon points="1102.39 347.49 1101.15 346.06 1099.96 341.83 1100.72 340.54 1102.85 345.14 1104.57 346.64 1105.7 347.12 1102.39 347.49"/><polygon points="1110.95 347.68 1108.26 347.19 1108.24 347.17 1107.33 345.55 1107.04 343.79 1106.56 342.36 1107.24 340.92 1107.74 339.88 1107.75 341.14 1107.76 342.82 1109.57 345.23 1110.9 347.58 1110.95 347.68"/><polygon points="1116.21 349.56 1112.35 348.11 1112.37 347.95 1112.44 346.67 1112.56 344.56 1113.15 343.44 1113.64 342.51 1113.77 343.69 1113.95 345.37 1115.32 348.29 1116.1 349.4 1116.21 349.56"/><polygon points="1120.41 352.2 1120.33 352.15 1118.01 350.72 1118.02 350.48 1118.12 349.04 1118.22 347.35 1119.13 345.74 1119.43 345.21 1119.4 345.81 1119.26 348 1119.91 350.84 1120.41 352.2"/><polygon points="1122.63 354.66 1122.63 352.85 1122.63 350.56 1124.17 348.67 1124.17 352.13 1124.89 355.38 1124.89 357.31 1122.63 354.66"/><polygon points="1178.86 349.08 1179.52 347.82 1179.46 346.6 1179.67 345.57 1177.86 344.19 1178.47 346.12 1176.99 348.06 1176 349.95 1178.86 349.08"/><polygon points="1174.57 350.75 1174.13 349.37 1173.5 347.36 1171.84 345.67 1172.18 348.52 1171.36 351.73 1170.69 353.19 1174.57 350.75"/><polygon points="1168.99 354.81 1168.48 353.21 1167.96 351.6 1166.13 349.84 1166.98 352.5 1166.94 355.45 1166.7 356.9 1168.99 354.81"/><polygon points="1164.85 359.88 1164.43 358.13 1163.89 355.91 1161.76 354.48 1162.57 357.85 1162.55 361.19 1163 363.07 1164.85 359.88"/><polygon class="cls-11" points="1265.96 366.14 1265.3 372.82 1261.42 378.45 1255.88 382.41 1251.48 385.02 1247.4 388.68 1245.21 361.94 1249.51 358.18 1255.75 356.17 1260.77 357.44 1265.3 360.54 1265.96 366.14"/><polyline class="cls-16" points="1140.09 374.89 1140.09 379.1 1140.09 382.41 1139.22 386.77 1137.99 390.53 1136.07 394.29 1135.19 397.3 1135.19 399.4"/><polyline class="cls-16" points="1135.19 402.26 1136.66 403.76 1137.99 403.76 1140.09 403.76 1143.47 403.01"/></g></svg>